<svg id="Capa_1" enable-background="new 0 0 512 512" height="512" viewBox="0 0 512 512" width="512" xmlns="http://www.w3.org/2000/svg"><g><g><path d="m455.25 206.5h-398.5c.14-109.93 89.29-199 199.25-199s199.11 89.07 199.25 199z" fill="#b2e5fb"/><path d="m234.54 8.65c-86.52 25.4-150.32 103.92-153.67 197.85h-24.12c.13-102.68 77.92-187.16 177.79-197.85z" fill="#98e0f9"/><g fill="#98e0f9"><path d="m244.5 206.5h-66c0-18.2 14.8-33 33-33s33 14.8 33 33z"/><path d="m167.5 206.5h-66c0-18.2 14.8-33 33-33s33 14.8 33 33z"/><path d="m89.5 206.5h-32.75c.01-11.19.95-22.17 2.74-32.86 16.8 1.51 30.01 15.67 30.01 32.86z"/><path d="m455.25 206.5h-32.75c0-17.19 13.21-31.35 30.01-32.86 1.79 10.69 2.73 21.67 2.74 32.86z"/><path d="m333.5 206.5h-66c0-18.2 14.8-33 33-33s33 14.8 33 33z"/><path d="m410.5 206.5h-66c0-18.2 14.8-33 33-33s33 14.8 33 33z"/></g><g><g><path d="m103.5 286.5c0-11.046-8.954-20-20-20-2.391 0-4.685.42-6.81 1.189-1.493.541-2.926 2.172-4.158 3.034-5.114 3.579-7.851 8.802-7.851 15.777 0 11.046 7.773 19.33 18.819 19.33 8.654 0 16.025-4.827 18.811-12.52.77-2.125 1.189-4.419 1.189-6.81z" fill="#ccf49f"/><path d="m102.31 293.31c-2.79 7.7-10.15 13.19-18.81 13.19-11.05 0-20-8.95-20-20 0-8.66 5.49-16.02 13.19-18.81-.77 2.12-1.19 4.42-1.19 6.81 0 11.05 8.95 20 20 20 2.39 0 4.69-.42 6.81-1.19z" fill="#b3e59f"/></g><g><path d="m276 286.167c0-11.046-8.954-20-20-20-2.391 0-4.685.42-6.81 1.189-1.493.541-2.926 2.172-4.158 3.034-5.114 3.579-7.851 8.802-7.851 15.777 0 11.046 7.773 19.33 18.819 19.33 8.654 0 16.025-4.827 18.811-12.52.77-2.126 1.189-4.419 1.189-6.81z" fill="#ccf49f"/><path d="m274.81 292.977c-2.79 7.7-10.15 13.19-18.81 13.19-11.05 0-20-8.95-20-20 0-8.66 5.49-16.02 13.19-18.81-.77 2.12-1.19 4.42-1.19 6.81 0 11.05 8.95 20 20 20 2.39 0 4.69-.42 6.81-1.19z" fill="#b3e59f"/></g><g><path d="m276 375.5c0-11.046-8.954-20-20-20-2.391 0-4.685.42-6.81 1.189-1.493.541-2.926 2.172-4.158 3.034-5.114 3.579-7.851 8.802-7.851 15.777 0 11.046 7.773 19.33 18.819 19.33 8.654 0 16.025-4.827 18.811-12.52.77-2.125 1.189-4.419 1.189-6.81z" fill="#ccf49f"/><path d="m274.81 382.31c-2.79 7.7-10.15 13.19-18.81 13.19-11.05 0-20-8.95-20-20 0-8.66 5.49-16.02 13.19-18.81-.77 2.12-1.19 4.42-1.19 6.81 0 11.05 8.95 20 20 20 2.39 0 4.69-.42 6.81-1.19z" fill="#b3e59f"/></g><g><path d="m168.5 360.095c0-11.046-8.954-20-20-20-2.391 0-4.685.42-6.81 1.189-1.493.541-2.926 2.172-4.158 3.034-5.114 3.579-7.851 8.802-7.851 15.777 0 11.046 7.773 19.33 18.819 19.33 8.654 0 16.025-4.827 18.811-12.52.77-2.125 1.189-4.419 1.189-6.81z" fill="#ccf49f"/><path d="m167.31 366.905c-2.79 7.7-10.15 13.19-18.81 13.19-11.05 0-20-8.95-20-20 0-8.66 5.49-16.02 13.19-18.81-.77 2.12-1.19 4.42-1.19 6.81 0 11.05 8.95 20 20 20 2.39 0 4.69-.42 6.81-1.19z" fill="#b3e59f"/></g><g><path d="m449.5 286.167c0-11.046-8.954-20-20-20-2.391 0-4.685.42-6.81 1.189-1.493.541-2.926 2.172-4.158 3.034-5.114 3.579-7.851 8.802-7.851 15.777 0 11.046 7.773 19.33 18.819 19.33 8.654 0 16.025-4.827 18.811-12.52.77-2.126 1.189-4.419 1.189-6.81z" fill="#ccf49f"/><path d="m448.31 292.977c-2.79 7.7-10.15 13.19-18.81 13.19-11.05 0-20-8.95-20-20 0-8.66 5.49-16.02 13.19-18.81-.77 2.12-1.19 4.42-1.19 6.81 0 11.05 8.95 20 20 20 2.39 0 4.69-.42 6.81-1.19z" fill="#b3e59f"/></g><g><path d="m382.5 359.5c0-11.046-8.954-20-20-20-2.391 0-4.685.42-6.81 1.189-1.493.541-2.926 2.172-4.158 3.034-5.114 3.579-7.851 8.802-7.851 15.777 0 11.046 7.773 19.33 18.819 19.33 8.654 0 16.025-4.827 18.811-12.52.77-2.125 1.189-4.419 1.189-6.81z" fill="#ccf49f"/><path d="m381.31 366.31c-2.79 7.7-10.15 13.19-18.81 13.19-11.05 0-20-8.95-20-20 0-8.66 5.49-16.02 13.19-18.81-.77 2.12-1.19 4.42-1.19 6.81 0 11.05 8.95 20 20 20 2.39 0 4.69-.42 6.81-1.19z" fill="#b3e59f"/></g><g><path d="m174.5 485.095c0-11.046-8.954-20-20-20-2.391 0-4.685.42-6.81 1.189-1.493.541-2.926 2.172-4.158 3.034-5.114 3.579-7.851 8.802-7.851 15.777 0 11.046 7.773 19.33 18.819 19.33 8.654 0 16.025-4.827 18.811-12.52.77-2.125 1.189-4.419 1.189-6.81z" fill="#ccf49f"/><path d="m173.31 491.905c-2.79 7.7-10.15 13.19-18.81 13.19-11.05 0-20-8.95-20-20 0-8.66 5.49-16.02 13.19-18.81-.77 2.12-1.19 4.42-1.19 6.81 0 11.05 8.95 20 20 20 2.39 0 4.69-.42 6.81-1.19z" fill="#b3e59f"/></g><g><path d="m154.5 206.5c0-11.046-8.954-20-20-20-2.391 0-4.685.42-6.81 1.189-1.493.541-2.926 2.172-4.158 3.034-5.114 3.579-7.851 8.802-7.851 15.777 0 11.046 7.773 19.33 18.819 19.33 8.654 0 16.025-4.827 18.811-12.52.77-2.125 1.189-4.419 1.189-6.81z" fill="#ccf49f"/><path d="m153.31 213.31c-2.79 7.7-10.15 13.19-18.81 13.19-11.05 0-20-8.95-20-20 0-8.66 5.49-16.02 13.19-18.81-.77 2.12-1.19 4.42-1.19 6.81 0 11.05 8.95 20 20 20 2.39 0 4.69-.42 6.81-1.19z" fill="#b3e59f"/></g><g><path d="m231.5 206.5c0-11.046-8.954-20-20-20-2.391 0-4.685.42-6.81 1.189-1.493.541-2.926 2.172-4.158 3.034-5.114 3.579-7.851 8.802-7.851 15.777 0 11.046 7.773 19.33 18.819 19.33 8.654 0 16.025-4.827 18.811-12.52.77-2.125 1.189-4.419 1.189-6.81z" fill="#ccf49f"/><path d="m230.31 213.31c-2.79 7.7-10.15 13.19-18.81 13.19-11.05 0-20-8.95-20-20 0-8.66 5.49-16.02 13.19-18.81-.77 2.12-1.19 4.42-1.19 6.81 0 11.05 8.95 20 20 20 2.39 0 4.69-.42 6.81-1.19z" fill="#b3e59f"/></g><g><path d="m76.5 206.5c0-11.046-8.954-20-20-20-2.391 0-4.685.42-6.81 1.189-1.493.541-2.926 2.172-4.158 3.034-5.114 3.579-7.851 8.802-7.851 15.777 0 11.046 7.773 19.33 18.819 19.33 8.654 0 16.025-4.827 18.811-12.52.77-2.125 1.189-4.419 1.189-6.81z" fill="#ccf49f"/><path d="m75.31 213.31c-2.79 7.7-10.15 13.19-18.81 13.19-11.05 0-20-8.95-20-20 0-8.66 5.49-16.02 13.19-18.81-.77 2.12-1.19 4.42-1.19 6.81 0 11.05 8.95 20 20 20 2.39 0 4.69-.42 6.81-1.19z" fill="#b3e59f"/></g><g><path d="m320.5 206.5c0-11.046-8.954-20-20-20-2.391 0-4.685.42-6.81 1.189-1.493.541-2.926 2.172-4.158 3.034-5.114 3.579-7.851 8.802-7.851 15.777 0 11.046 7.773 19.33 18.819 19.33 8.654 0 16.025-4.827 18.811-12.52.77-2.125 1.189-4.419 1.189-6.81z" fill="#ccf49f"/><path d="m319.31 213.31c-2.79 7.7-10.15 13.19-18.81 13.19-11.05 0-20-8.95-20-20 0-8.66 5.49-16.02 13.19-18.81-.77 2.12-1.19 4.42-1.19 6.81 0 11.05 8.95 20 20 20 2.39 0 4.69-.42 6.81-1.19z" fill="#b3e59f"/></g><g><path d="m276 484.5c0-11.046-8.954-20-20-20-2.391 0-4.685.42-6.81 1.189-1.493.541-2.926 2.172-4.158 3.034-5.114 3.579-7.851 8.802-7.851 15.777 0 11.046 7.773 19.33 18.819 19.33 8.654 0 16.025-4.827 18.811-12.52.77-2.125 1.189-4.419 1.189-6.81z" fill="#ccf49f"/><path d="m274.81 491.31c-2.79 7.7-10.15 13.19-18.81 13.19-11.05 0-20-8.95-20-20 0-8.66 5.49-16.02 13.19-18.81-.77 2.12-1.19 4.42-1.19 6.81 0 11.05 8.95 20 20 20 2.39 0 4.69-.42 6.81-1.19z" fill="#b3e59f"/></g><g><path d="m377.5 484.5c0-11.046-8.954-20-20-20-2.391 0-4.685.42-6.81 1.189-1.493.541-2.926 2.172-4.158 3.034-5.114 3.579-7.851 8.802-7.851 15.777 0 11.046 7.773 19.33 18.819 19.33 8.654 0 16.025-4.827 18.811-12.52.77-2.125 1.189-4.419 1.189-6.81z" fill="#ccf49f"/><path d="m376.31 491.31c-2.79 7.7-10.15 13.19-18.81 13.19-11.05 0-20-8.95-20-20 0-8.66 5.49-16.02 13.19-18.81-.77 2.12-1.19 4.42-1.19 6.81 0 11.05 8.95 20 20 20 2.39 0 4.69-.42 6.81-1.19z" fill="#b3e59f"/></g><g><path d="m397.5 206.5c0-11.046-8.954-20-20-20-2.391 0-4.685.42-6.81 1.189-1.493.541-2.926 2.172-4.158 3.034-5.114 3.579-7.851 8.802-7.851 15.777 0 11.046 7.773 19.33 18.819 19.33 8.654 0 16.025-4.827 18.811-12.52.77-2.125 1.189-4.419 1.189-6.81z" fill="#ccf49f"/><path d="m396.31 213.31c-2.79 7.7-10.15 13.19-18.81 13.19-11.05 0-20-8.95-20-20 0-8.66 5.49-16.02 13.19-18.81-.77 2.12-1.19 4.42-1.19 6.81 0 11.05 8.95 20 20 20 2.39 0 4.69-.42 6.81-1.19z" fill="#b3e59f"/></g><g><path d="m475.5 206.5c0-11.046-8.954-20-20-20-2.391 0-4.685.42-6.81 1.189-1.493.541-2.926 2.172-4.158 3.034-5.114 3.579-7.851 8.802-7.851 15.777 0 11.046 7.773 19.33 18.819 19.33 8.654 0 16.025-4.827 18.811-12.52.77-2.125 1.189-4.419 1.189-6.81z" fill="#ccf49f"/><path d="m474.31 213.31c-2.79 7.7-10.15 13.19-18.81 13.19-11.05 0-20-8.95-20-20 0-8.66 5.49-16.02 13.19-18.81-.77 2.12-1.19 4.42-1.19 6.81 0 11.05 8.95 20 20 20 2.39 0 4.69-.42 6.81-1.19z" fill="#b3e59f"/></g></g></g><g><path d="m455.5 234c15.164 0 27.5-12.336 27.5-27.5 0-13.292-9.479-24.41-22.032-26.952-2.859-21.757-9.126-42.781-18.662-62.542-1.801-3.73-6.285-5.295-10.014-3.496-3.73 1.8-5.295 6.284-3.496 10.014 1.506 3.12 2.914 6.278 4.244 9.464l-56.275-.102c-4.451-18.781-10.552-36.179-18.005-51.789.019-.011 41.661-.076 41.971-.108 3.62 4.155 7.078 8.476 10.35 12.967 2.439 3.347 7.13 4.086 10.478 1.645 3.348-2.439 4.084-7.13 1.645-10.478-18.797-25.8-43.667-47.206-71.92-61.903-29.2-15.191-62.149-23.22-95.284-23.22-51.248 0-100.41 18.887-138.431 53.183-36.63 33.041-60.146 77.771-66.54 126.365-12.551 2.544-22.029 13.662-22.029 26.952-.08 15.087 13.142 28.217 28.773 27.468l10.135 29.897c-7.187 4.966-11.908 13.258-11.908 22.635 0 15.164 12.336 27.5 27.5 27.5 4.363 0 8.489-1.026 12.157-2.842l29.932 33.155c-2.896 4.355-4.589 9.576-4.589 15.187 0 15.164 12.336 27.5 27.5 27.5 11.413 0 21.223-6.99 25.378-16.913l54.816 8.628c1.324 11.307 9.528 20.54 20.306 23.379v19.906h-64.5c-2.75 0-5.279 1.505-6.591 3.922l-17.253 31.781c-1.981-.455-4.039-.703-6.156-.703-15.164 0-27.5 12.336-27.5 27.5s12.336 27.5 27.5 27.5 27.5-12.336 27.5-27.5c0-7.65-3.143-14.578-8.201-19.567l15.164-27.933h60.037v21.048c-11.528 3.274-20 13.889-20 26.452 0 15.164 12.336 27.5 27.5 27.5s27.5-12.336 27.5-27.5c0-12.563-8.472-23.178-20-26.452v-21.048h15c4.142 0 7.5-3.358 7.5-7.5s-3.358-7.5-7.5-7.5h-15v-20.19c10.179-3.101 17.866-11.959 19.264-22.764l54.204-8.182c4.333 9.507 13.92 16.136 25.032 16.136 15.164 0 27.5-12.336 27.5-27.5 0-5.282-1.5-10.219-4.092-14.413l31.235-34.032c3.718 1.879 7.915 2.945 12.357 2.945 15.164 0 27.5-12.336 27.5-27.5 0-9.502-4.845-17.892-12.193-22.834l9.65-29.692c.347.013.693.026 1.043.026zm-301 263c-6.893 0-12.5-5.607-12.5-12.5s5.607-12.5 12.5-12.5 12.5 5.607 12.5 12.5-5.607 12.5-12.5 12.5zm114.5-12.5c0 6.893-5.607 12.5-12.5 12.5s-12.5-5.607-12.5-12.5 5.607-12.5 12.5-12.5 12.5 5.607 12.5 12.5zm199-278c0 6.893-5.607 12.5-12.5 12.5s-12.5-5.607-12.5-12.5 5.607-12.5 12.5-12.5 12.5 5.607 12.5 12.5zm-29.425-58.502c3.42 10.635 5.907 21.559 7.419 32.697-8.185 3.025-14.542 9.841-16.946 18.305h-25.096c-2.682-9.444-10.29-16.833-19.862-19.196-.882-10.953-2.294-21.608-4.183-31.912zm-111.623 51.002c-2.671-9.407-10.23-16.777-19.75-19.17-.324-10.919-.844-21.642-1.552-32.073l58.978.107c2.038 10.527 3.535 21.38 4.453 32.459-8.706 2.807-15.525 9.843-18.033 18.677zm76.095 94.995c.699 2.463 1.729 4.787 3.045 6.918l-31.235 34.032c-3.718-1.879-7.915-2.944-12.357-2.944-6.584 0-12.634 2.328-17.374 6.202l-15.177-10.458c-3.411-2.35-8.082-1.49-10.431 1.92-2.35 3.411-1.491 8.081 1.92 10.431l15.085 10.395c-.617 1.773-1.055 3.627-1.297 5.542l-54.162 8.175c-3.38-7.473-10.001-13.177-18.064-15.301v-36.312c3.944-1.039 7.543-2.933 10.587-5.472l18.744 12.916c1.3.896 2.782 1.325 4.249 1.325 2.384 0 4.728-1.134 6.183-3.245 2.35-3.411 1.491-8.081-1.92-10.432l-20.067-13.961zm-171.974 69.91-55.414-8.722c-.229-1.445-.574-2.851-1.019-4.212l63.404-44.169c2.866 2.478 6.245 4.377 9.957 5.508v36.881c-7.503 2.285-13.652 7.699-16.928 14.714zm37.427-77.905c0 6.893-5.607 12.5-12.5 12.5s-12.5-5.607-12.5-12.5 5.607-12.5 12.5-12.5 12.5 5.607 12.5 12.5zm-12.5-27.5c-2.195 0-4.328.266-6.376.754l-18.458-33.559c3.154-3.231 5.518-7.234 6.785-11.695h36.096c1.259 4.432 3.601 8.411 6.725 11.631l-19.223 33.432c-1.792-.369-3.648-.563-5.549-.563zm-70.952-59.5h-24.096c-2.509-8.834-9.327-15.87-18.033-18.677.93-11.218 2.452-22.205 4.529-32.855l58.918.107c-.715 10.489-1.241 21.27-1.567 32.254-9.521 2.394-17.079 9.764-19.751 19.171zm-77 0h-25.096c-2.403-8.463-8.76-15.279-16.944-18.304 1.558-11.502 4.122-22.648 7.587-33.362l58.581.107c-1.931 10.444-3.37 21.251-4.265 32.363-9.573 2.363-17.181 9.752-19.863 19.196zm2.63-117.566 42.336.138c-7.292 15.366-13.278 32.451-17.674 50.873l-56.191-.102c7.841-18.715 18.537-35.853 31.529-50.909zm182.035-24.874c-3.9-15.799-8.252-28.216-13.102-37.35 18.962 6.817 36.767 21.769 51.646 43.747.713 1.053 1.415 2.12 2.111 3.199l-38.423.089c-.717-3.331-1.461-6.562-2.232-9.685zm-14.563 3.594c.493 1.997.974 4.039 1.445 6.126l-47.211.109c.432-1.92.872-3.808 1.324-5.652 8.849-36.178 18.451-45.737 22.292-45.737 3.806 0 13.334 9.437 22.15 45.154zm14.059 120.126c-8.767 2.779-15.64 9.842-18.161 18.72h-36.096c-2.521-8.878-9.393-15.941-18.161-18.72.33-11.148.87-22.073 1.605-32.677l69.217.126c.731 10.565 1.267 21.448 1.596 32.551zm-69.624-47.675c1.656-18.48 3.931-35.749 6.755-51.209l53.296-.123c2.84 15.52 5.127 32.874 6.789 51.454zm9.802-113.395c-4.913 9.252-9.314 21.871-13.25 37.963-.731 2.989-1.437 6.077-2.119 9.252l-38.612.089c.769-1.2 1.546-2.389 2.337-3.557 14.879-21.978 32.683-36.93 51.644-43.747zm-18.29 62.221c-2.743 15.569-4.953 32.803-6.565 51.146l-56.735-.103c4.654-18.441 11.034-35.631 18.953-50.94zm-79.597 112.569c6.893 0 12.5 5.607 12.5 12.5s-5.607 12.5-12.5 12.5-12.5-5.607-12.5-12.5 5.608-12.5 12.5-12.5zm77 0c6.893 0 12.5 5.607 12.5 12.5s-5.607 12.5-12.5 12.5-12.5-5.607-12.5-12.5 5.608-12.5 12.5-12.5zm76.5 12.5c0-6.893 5.607-12.5 12.5-12.5s12.5 5.607 12.5 12.5-5.607 12.5-12.5 12.5-12.5-5.607-12.5-12.5zm89.5-12.5c6.893 0 12.5 5.607 12.5 12.5s-5.607 12.5-12.5 12.5-12.5-5.607-12.5-12.5 5.608-12.5 12.5-12.5zm-16.2-61.142-56.819-.103c-1.621-18.489-3.848-35.851-6.614-51.517l44.173-.102c8.071 15.515 14.558 32.974 19.26 51.722zm24.873-66.825-35.292.082c-9.372-16.181-20.34-29.909-32.488-40.593 25.048 8.655 48.181 22.438 67.78 40.511zm-225.304.522-35.981.083c19.639-18.361 43.126-32.578 69.054-41.405-12.391 10.821-23.561 24.803-33.073 41.322zm-116.869 139.945c0-6.893 5.607-12.5 12.5-12.5s12.5 5.607 12.5 12.5-5.607 12.5-12.5 12.5-12.5-5.607-12.5-12.5zm27.997 22.703c5.242-3.589 9.178-8.946 10.955-15.203h25.096c3.274 11.528 13.889 20 26.452 20s23.178-8.472 26.452-20h24.096c3.274 11.528 13.889 20 26.452 20 2.298 0 4.529-.287 6.664-.821l18.375 33.41c-3.285 3.293-5.735 7.415-7.022 12.019l-45.5-.101c-4.121.027-7.507 3.341-7.517 7.483s3.341 7.507 7.483 7.517l46.848.102-64.573 44.919c-4.794-4.068-10.992-6.528-17.758-6.528-4.114 0-8.017.914-11.526 2.541l-30.188-33.439c1.492-2.37 2.637-4.979 3.352-7.76l38.346.085h.017c4.134 0 7.49-3.347 7.5-7.483.009-4.142-3.341-7.507-7.483-7.517l-38.753-.086c-3.336-11.033-14.912-20.012-27.655-19.305zm-.997 57.297c0-6.893 5.607-12.5 12.5-12.5s12.5 5.607 12.5 12.5-5.607 12.5-12.5 12.5-12.5-5.607-12.5-12.5zm77.5 85.5c-6.893 0-12.5-5.607-12.5-12.5s5.607-12.5 12.5-12.5 12.5 5.607 12.5 12.5-5.607 12.5-12.5 12.5zm107.5 16c-6.893 0-12.5-5.607-12.5-12.5s5.608-12.5 12.5-12.5 12.5 5.607 12.5 12.5-5.607 12.5-12.5 12.5zm106.5-16c-6.893 0-12.5-5.607-12.5-12.5s5.607-12.5 12.5-12.5 12.5 5.607 12.5 12.5-5.607 12.5-12.5 12.5zm67-73c-6.893 0-12.5-5.607-12.5-12.5s5.607-12.5 12.5-12.5 12.5 5.607 12.5 12.5-5.607 12.5-12.5 12.5zm1.043-39.974c-12.083-.687-24.276 8.246-27.493 19.968l-120.534-.269c-1.353-4.927-4.044-9.302-7.659-12.714l18.89-32.853c2.161.548 4.423.841 6.752.841 12.563 0 23.178-8.472 26.452-20h24.096c3.274 11.528 13.889 20 26.452 20s23.178-8.472 26.452-20h25.096c1.798 6.333 5.807 11.744 11.145 15.334z"/><path d="m357.5 457c-1.773 0-3.505.175-5.186.497l-17.23-31.588c-1.314-2.41-3.839-3.909-6.584-3.909h-14.5c-4.142 0-7.5 3.358-7.5 7.5s3.358 7.5 7.5 7.5h10.048l14.866 27.253c-5.475 5.03-8.913 12.244-8.913 20.247 0 15.164 12.336 27.5 27.5 27.5s27.5-12.336 27.5-27.5-12.337-27.5-27.501-27.5zm0 40c-6.893 0-12.5-5.607-12.5-12.5s5.607-12.5 12.5-12.5 12.5 5.607 12.5 12.5-5.607 12.5-12.5 12.5z"/></g></g></svg>