<svg id="Capa_1" enable-background="new 0 0 512.014 512.014" height="512" viewBox="0 0 512.014 512.014" width="512" xmlns="http://www.w3.org/2000/svg"><g><g><circle cx="256.007" cy="256.013" fill="#b2e5fb" r="248.5"/><path d="m454.727 405.243c-45.35 60.28-117.48 99.27-198.72 99.27-137.24 0-248.5-111.26-248.5-248.5 0-38.96 8.97-75.82 24.95-108.64-6.8 23.03-10.45 47.41-10.45 72.64 0 141.38 114.62 256 256 256 68.53 0 130.77-26.93 176.72-70.77z" fill="#98e0f9"/><path d="m482.637 358.093v.01c-5.13 11.35-11.07 22.24-17.77 32.6-23.36-54.78-66.08-104.07-128.87-148.35-3.61-2.54-7.29-5.08-11.04-7.59-5.72-3.84-11.59-7.64-17.62-11.4-5.92-3.7-11.99-7.36-18.22-10.98-36.45-21.22-78.08-41.19-124.97-59.98-9.13-3.66-18.47-7.27-28-10.84-26.28-9.84-54.07-19.35-83.41-28.52 6.19-8.8 12.95-17.18 20.21-25.08 24.9 7.94 48.63 16.1 71.21 24.48 9.51 3.52 18.81 7.08 27.91 10.68 50.84 20.14 95.53 41.56 134.65 64.52 8.43 4.94 16.59 9.95 24.51 15.05 2.01 1.29 4 2.58 5.98 3.89 3.34 2.19 6.63 4.4 9.88 6.63 6.44 4.42 12.71 8.9 18.8 13.46 29.65 22.12 55.07 45.74 75.78 70.4 16.25 19.35 29.95 39.77 40.97 61.02z" fill="#f8f7f7"/><path d="m492.986 183.581c-51.06 1.69-107.479 8.192-155.879 17.912-.6-23.41-3.31-47.05-8.11-70.73-7.44-36.67-22.796-80.85-40.396-118.75-11.27-1.67-22.8-2.55-34.53-2.58 29.51 58.92 48.906 122.62 52.646 178.21.46 6.78.73 13.54.8 20.27-6.13 1.42-12.26 2.92-18.4 4.47-45.7 11.55-91.95 26.51-140.7 44.72 2.27-35.93 7.51-70.81 15.73-104.7 2.39-9.84 5.03-19.6 7.92-29.28 10.62-35.53 27.449-79.39 44.859-112.88-13.2 2.32-26.03 5.72-38.39 10.11-12.5 26.85-25.859 63.85-34.379 92.09-2.9 9.63-5.57 19.34-8.01 29.12-7.78 31.25-13.16 63.23-16.1 95.83-.94 10.35-1.63 20.82-2.07 31.38-30.78 12.06-62.72 25.37-96.18 39.86 2.21 9.92 5.05 19.62 8.46 29.03 30.24-13.11 59.16-25.26 87.09-36.38.19 51.89 5.98 106.01 17.33 161.86 10.91 6.4 22.37 11.96 34.29 16.6-15.29-66.6-22.58-129.84-21.78-190.09 55.66-21.2 107.78-38.15 159.28-50.6-6.7 85.7-45.12 167.98-115.44 248.06 10.9 3.06 22.12 5.37 33.59 6.86 25.75-30.9 47.23-62.46 64.06-94.17 22.5-42.38 37.35-86.24 44.15-130.36 1.38-8.97 2.44-18 3.17-27.09.28-3.35.5-6.72.68-10.09 9.73-2.04 19.46-3.9 29.21-5.59 41.31-7.2 90.839-12.152 134.349-13.302-1.79-10.16-4.22-20.11-7.25-29.79z" fill="#f8f7f7"/><path d="m442.607 416.073c-45.08 52.51-111.95 85.78-186.6 85.78-135.78 0-245.84-110.06-245.84-245.84 0-32.95 4.84-21.91 4.84 0 0 18.21 2.04 35.95 5.89 53.01 4.95-2.15 9.87-4.26 14.75-6.35 3.25 9.53 7.04 18.8 11.35 27.78-5.82 2.49-11.69 5.02-17.61 7.59 19.38 53.37 57.11 98.01 105.53 126.27-2.52-12.33-4.77-24.57-6.75-36.72 10.79 7.81 22.2 14.78 34.16 20.85 2.08 10.7 4.38 21.5 6.89 32.39 6.89 2.67 13.93 5.04 21.11 7.08 6.29-7.14 12.32-14.29 18.11-21.47 10.62 2.99 21.51 5.32 32.64 6.92-5.5 7.2-11.24 14.37-17.2 21.5 10.51 1.41 21.24 2.15 32.13 2.15 62.16 0 118.91-23.66 161.69-62.44 8.68-5.66 17-11.84 24.91-18.5z" fill="#e8e8e8"/><g><g><path d="m193.507 134.013c0 7.022-1.93 13.593-5.288 19.211-6.547 10.954-17.432 16.087-31.122 16.087-20.711 0-36.41-14.587-36.41-35.298 0-13.235 4.675-24.868 15.029-31.542 5.849-3.77 12.814-5.958 20.29-5.958 20.711 0 37.501 16.79 37.501 37.5z" fill="#7dc3ee"/><path d="m188.217 153.223c-6.54 10.95-18.52 18.29-32.21 18.29-20.71 0-37.5-16.79-37.5-37.5 0-13.69 7.34-25.67 18.29-32.21-3.36 5.62-5.29 12.19-5.29 19.21 0 20.71 16.79 37.5 37.5 37.5 7.02 0 13.59-1.93 19.21-5.29z" fill="#64acdc"/></g><g><path d="m362.507 218.013c0 7.022-1.93 13.593-5.288 19.211-6.547 10.954-17.432 16.087-31.122 16.087-20.711 0-36.41-14.587-36.41-35.298 0-13.235 4.675-24.868 15.029-31.542 5.849-3.77 12.814-5.958 20.29-5.958 20.711 0 37.501 16.79 37.501 37.5z" fill="#7dc3ee"/><path d="m357.217 237.223c-6.54 10.95-18.52 18.29-32.21 18.29-20.71 0-37.5-16.79-37.5-37.5 0-13.69 7.34-25.67 18.29-32.21-3.36 5.62-5.29 12.19-5.29 19.21 0 20.71 16.79 37.5 37.5 37.5 7.02 0 13.59-1.93 19.21-5.29z" fill="#64acdc"/></g><g><path d="m317.507 384.513c0 7.022-1.93 13.593-5.288 19.211-6.547 10.954-17.432 16.087-31.122 16.087-20.711 0-36.41-14.587-36.41-35.298 0-13.235 4.675-24.868 15.029-31.542 5.849-3.77 12.814-5.958 20.29-5.958 20.711 0 37.501 16.79 37.501 37.5z" fill="#7dc3ee"/><path d="m312.217 403.723c-6.54 10.95-18.52 18.29-32.21 18.29-20.71 0-37.5-16.79-37.5-37.5 0-13.69 7.34-25.67 18.29-32.21-3.36 5.62-5.29 12.19-5.29 19.21 0 20.71 16.79 37.5 37.5 37.5 7.02 0 13.59-1.93 19.21-5.29z" fill="#64acdc"/></g><g><path d="m169.507 286.013c0 7.022-1.93 13.593-5.288 19.211-6.547 10.954-17.432 16.087-31.122 16.087-20.711 0-36.41-14.587-36.41-35.298 0-13.235 4.675-24.868 15.029-31.542 5.849-3.77 12.814-5.958 20.29-5.958 20.711 0 37.501 16.79 37.501 37.5z" fill="#7dc3ee"/><path d="m164.217 305.223c-6.54 10.95-18.52 18.29-32.21 18.29-20.71 0-37.5-16.79-37.5-37.5 0-13.69 7.34-25.67 18.29-32.21-3.36 5.62-5.29 12.19-5.29 19.21 0 20.71 16.79 37.5 37.5 37.5 7.02 0 13.59-1.93 19.21-5.29z" fill="#64acdc"/></g></g></g><path d="m437.026 74.994c-48.352-48.352-112.64-74.98-181.02-74.98-96.459-1.032-189.932 57.849-230.931 145.384-1.792 3.734-.217 8.214 3.517 10.006 3.735 1.794 8.215.217 10.006-3.517 5.034-10.49 10.793-20.511 17.196-30.016 19.124 6.043 37.813 12.312 55.693 18.678 1.358 9.292 5.569 17.666 11.709 24.214-5.376 26.117-9.286 53.579-11.373 81.049-10.66 5.374-18.901 14.857-22.629 26.361-21.71 8.798-44.657 18.437-69.859 29.346-2.829-14.742-4.328-29.951-4.328-45.506 0-24.7 3.72-49.054 11.058-72.386 1.242-3.952-.954-8.162-4.905-9.405-3.953-1.242-8.162.954-9.405 4.905-7.796 24.79-11.749 50.658-11.749 76.886-.125 143.635 117.414 256.398 256 256 143.636.125 256.398-117.414 256-256 .001-68.38-26.628-132.667-74.98-181.019zm28.706 299.632c-22.375-45.589-58.656-87.789-108.093-125.675 3.505-3.695 6.389-7.98 8.489-12.693 27.122 20.706 50.587 42.767 69.796 65.64 14.97 17.826 27.84 36.762 38.299 56.332-2.627 5.584-5.458 11.054-8.491 16.396zm-161.383-27.371c-4.107-2.667-8.663-4.686-13.523-5.904 10.039-26.389 17.016-53.357 20.79-80.372 3.215.992 9.118 2.197 14.567 2.005-3.686 27.203-11.447 57.101-21.834 84.271zm-105.916 142.79c20.218-23.224 37.957-46.845 52.86-70.412 3.811 3.166 8.152 5.711 12.867 7.491-14.04 22.307-30.477 44.599-48.975 66.415-5.653-.969-11.239-2.137-16.752-3.494zm36.574-105.032c0 8.233 2.233 15.949 6.109 22.595-16.108 26.045-35.832 52.228-58.678 77.907-1.61-.517-3.215-1.047-4.811-1.597-13.023-55.238-20.588-108.801-22.494-159.319 12.943-7.786 21.66-21.896 21.859-38.023 11.726-4.252 23.296-8.306 34.429-12.048 3.926-1.32 6.039-5.573 4.72-9.499-1.32-3.926-5.572-6.041-9.499-4.72-10.385 3.491-21.145 7.251-32.053 11.185-1.669-4.88-4.152-9.383-7.29-13.349 40.304-14.611 77.396-26.34 112.927-35.716.503 5.142 1.881 10.029 3.973 14.519-14.379 3.791-29.159 8.01-44.042 12.578-3.96 1.215-6.185 5.411-4.97 9.37.99 3.227 3.959 5.302 7.167 5.302.729 0 1.47-.107 2.203-.332 16.57-5.085 33.003-9.73 48.879-13.824 1.269 1.251 2.615 2.423 4.025 3.518-3.593 29.137-11.093 58.286-22.307 86.719-22.539 2.429-40.147 21.561-40.147 44.734zm-91.425 84.115c-10.02-47.365-16.084-93.925-18.035-138.585 2.591.422 8.985.809 14.805-.318 2.104 46.92 8.945 96.312 20.37 147.133-5.837-2.522-11.552-5.271-17.14-8.23zm-17.575-335.115c0-16.542 13.458-30 30-30s30 13.458 30 30-13.458 30-30 30-30-13.458-30-30zm79.232-113.515c-12.022 23.578-22.466 47.815-31.158 72.318-4.486-1.976-9.353-3.236-14.458-3.644 7.573-21.622 16.44-42.964 26.4-63.634 6.32-1.938 12.729-3.625 19.216-5.04zm42.725-5.344c27.73 54.336 44.538 107.709 50.024 158.83-29.384-16.508-62.173-32.421-97.602-47.378-1.638-9.845-6.482-18.615-13.421-25.205 9.938-28.62 22.338-56.906 36.91-84.194 7.951-1.085 15.988-1.778 24.089-2.053zm107.043 202.859c0 16.542-13.458 30-30 30s-30-13.458-30-30 13.458-30 30-30 30 13.458 30 30zm-154.867-75.214c33.23 14.238 63.994 29.312 91.636 44.905-3.429 3.756-6.232 8.093-8.241 12.845-26.813-15.092-56.639-29.722-88.843-43.582 2.568-4.313 4.438-9.086 5.448-14.168zm-33.902 35.027c6.767-1.58 12.954-4.683 18.17-8.939 30.65 13.036 59.146 26.768 84.927 40.93-35.415 9.596-72.425 21.505-112.578 36.211 1.891-23.099 5.072-45.997 9.481-68.202zm203.76 40.545c.047-3.834-.626-9.431-2.405-14.868 39.995-6.705 79.619-10.58 120.683-11.816 1.36 4.905 2.573 9.871 3.625 14.896-41.431 1.117-81.456 4.994-121.903 11.788zm113.628-41.545c-42.043 1.451-82.66 5.651-123.749 12.783-4.448-5.451-10.149-9.836-16.656-12.729-1.364-15.774-3.665-31.772-6.874-47.608-3.643-17.948-8.569-36.34-14.646-54.666-1.303-3.932-5.548-6.06-9.479-4.759-3.932 1.304-6.062 5.548-4.759 9.479 5.888 17.758 10.66 35.566 14.183 52.927 2.753 13.586 4.813 27.292 6.163 40.856-3.905-.232-8.859.01-14.665 1.502-5.213-51.469-21.463-105.019-48.369-159.422 5.8.209 11.548.617 17.238 1.231 4.718 9.911 9.153 19.893 13.173 29.734 1.188 2.906 3.989 4.666 6.946 4.666.944 0 1.905-.18 2.833-.559 3.835-1.566 5.674-5.945 4.107-9.779-2.906-7.114-6.033-14.299-9.307-21.477 85.721 15.79 155.693 77.086 183.861 157.821zm-317.452-144.247c-8.627 19.053-16.325 38.584-22.981 58.304-5.512 1.64-10.58 4.311-14.989 7.787-13.368-4.76-27.223-9.483-41.361-14.099 22.773-22.35 49.793-40.044 79.331-51.992zm-90.796 64.043c14.364 4.625 28.47 9.37 42.102 14.163-2.58 4.263-4.471 8.985-5.521 14.014-15.165-5.345-30.878-10.612-46.909-15.728 3.308-4.274 6.754-8.424 10.328-12.449zm61.141 77.949c4.405 2.125 9.21 3.542 14.265 4.13-3.974 20.721-6.914 41.995-8.76 63.451-4.538-.852-8.192-1.498-14.783-.883.75-14.531 5.224-45.84 9.278-66.698zm-4.512 81.442c16.542 0 30 13.458 30 30s-13.458 30-30 30-30-13.458-30-30 13.458-30 30-30zm-44.874 33.194c.367 5.206 1.619 10.17 3.614 14.742-19.843 8.135-40.84 17.011-63.806 26.973-1.565-4.773-2.997-9.604-4.266-14.502 23.149-10.04 44.374-19.001 64.458-27.213zm-55.073 55.844c24.258-10.529 46.3-19.838 67.091-28.335 3.237 3.462 7.009 6.416 11.189 8.723 1.554 43.078 6.881 87.912 15.862 133.553-42.151-27.05-75.359-66.866-94.142-113.941zm223.947 151.962c-7.839 0-15.587-.389-23.236-1.125 17.842-21.672 33.695-43.772 47.254-65.876 9.372-.004 18.357-2.862 25.981-8.267 3.38-2.396 4.177-7.077 1.782-10.456-2.396-3.377-7.075-4.177-10.456-1.781-5.08 3.601-11.071 5.504-17.325 5.504-16.542 0-30-13.458-30-30s13.458-30 30-30c16.269 0 29.725 13.228 29.996 29.487.068 4.099 3.412 7.375 7.496 7.375.043 0 .086 0 .128-.001 4.142-.069 7.443-3.482 7.374-7.624-.162-9.679-3.446-18.635-8.863-25.926 12.707-32.06 21.401-64.98 25.592-98.546 1.144-.46 2.265-.963 3.36-1.512 52.507 39.527 89.903 83.776 111.224 131.607-43.284 64.558-116.913 107.141-200.307 107.141zm225.614-156.284c-9.782-16.782-21.244-33.037-34.211-48.478-17.775-21.165-39.023-41.62-63.288-60.969 36.534-5.631 72.871-8.834 110.407-9.754 1.622 11.267 2.478 22.778 2.478 34.487 0 29.798-5.452 58.345-15.386 84.714z"/></g></svg>