<svg id="Capa_1" enable-background="new 0 0 512 512" height="512" viewBox="0 0 512 512" width="512" xmlns="http://www.w3.org/2000/svg"><g><g><g><g><path d="m281 32.5c0 3.452-.7 6.74-1.965 9.731-3.795 8.973-13.212 13.365-23.567 13.365-13.807 0-23.319-8.259-23.319-22.066 0-10.018 4.743-19.689 13.251-23.678 3.218-1.509 6.81-2.352 10.6-2.352 13.807 0 25 11.193 25 25z" fill="#ccf49f"/><path d="m278.94 42.44c-3.84 8.86-12.66 15.06-22.94 15.06-13.81 0-25-11.19-25-25 0-10.28 6.2-19.1 15.06-22.94-1.33 3.04-2.06 6.41-2.06 9.94 0 13.81 11.19 25 25 25 3.53 0 6.9-.73 9.94-2.06z" fill="#b3e59f"/></g><g><path d="m439.038 97.962c0 3.452-.7 6.74-1.965 9.731-3.795 8.973-13.212 13.365-23.567 13.365-13.807 0-23.319-8.259-23.319-22.066 0-10.018 4.743-19.689 13.25-23.678 3.218-1.509 6.811-2.352 10.601-2.352 13.807 0 25 11.193 25 25z" fill="#ccf49f"/><path d="m436.978 107.902c-3.84 8.86-12.66 15.06-22.94 15.06-13.81 0-25-11.19-25-25 0-10.28 6.2-19.1 15.06-22.94-1.33 3.04-2.06 6.41-2.06 9.94 0 13.81 11.19 25 25 25 3.53 0 6.9-.73 9.94-2.06z" fill="#b3e59f"/></g><g><path d="m122.962 97.962c0 3.452-.7 6.74-1.965 9.731-3.795 8.973-13.212 13.365-23.567 13.365-13.807 0-23.319-8.259-23.319-22.066 0-10.018 4.743-19.689 13.25-23.678 3.218-1.509 6.811-2.352 10.601-2.352 13.807 0 25 11.193 25 25z" fill="#ccf49f"/><path d="m120.902 107.902c-3.84 8.86-12.66 15.06-22.94 15.06-13.81 0-25-11.19-25-25 0-10.28 6.2-19.1 15.06-22.94-1.33 3.04-2.06 6.41-2.06 9.94 0 13.81 11.19 25 25 25 3.53 0 6.9-.73 9.94-2.06z" fill="#b3e59f"/></g><g><path d="m439.038 414.038c0 3.452-.7 6.74-1.965 9.731-3.795 8.973-13.212 13.365-23.567 13.365-13.807 0-23.319-8.259-23.319-22.066 0-10.018 4.743-19.689 13.25-23.678 3.218-1.509 6.811-2.352 10.601-2.352 13.807 0 25 11.193 25 25z" fill="#ccf49f"/><path d="m436.978 423.978c-3.84 8.86-12.66 15.06-22.94 15.06-13.81 0-25-11.19-25-25 0-10.28 6.2-19.1 15.06-22.94-1.33 3.04-2.06 6.41-2.06 9.94 0 13.81 11.19 25 25 25 3.53 0 6.9-.73 9.94-2.06z" fill="#b3e59f"/></g><g><path d="m281 479.5c0 3.452-.7 6.74-1.965 9.731-3.795 8.973-13.212 13.365-23.567 13.365-13.807 0-23.319-8.259-23.319-22.066 0-10.018 4.743-19.689 13.251-23.678 3.218-1.509 6.811-2.352 10.601-2.352 13.806 0 24.999 11.193 24.999 25z" fill="#ccf49f"/><path d="m278.94 489.44c-3.84 8.86-12.66 15.06-22.94 15.06-13.81 0-25-11.19-25-25 0-10.28 6.2-19.1 15.06-22.94-1.33 3.04-2.06 6.41-2.06 9.94 0 13.81 11.19 25 25 25 3.53 0 6.9-.73 9.94-2.06z" fill="#b3e59f"/></g><g><path d="m122.962 414.038c0 3.452-.7 6.74-1.965 9.731-3.795 8.973-13.212 13.365-23.567 13.365-13.807 0-23.319-8.259-23.319-22.066 0-10.018 4.743-19.689 13.25-23.678 3.218-1.509 6.811-2.352 10.601-2.352 13.807 0 25 11.193 25 25z" fill="#ccf49f"/><path d="m120.902 423.978c-3.84 8.86-12.66 15.06-22.94 15.06-13.81 0-25-11.19-25-25 0-10.28 6.2-19.1 15.06-22.94-1.33 3.04-2.06 6.41-2.06 9.94 0 13.81 11.19 25 25 25 3.53 0 6.9-.73 9.94-2.06z" fill="#b3e59f"/></g><g><path d="m57.5 255.456c0 3.452-.7 6.74-1.965 9.731-3.795 8.973-13.212 13.365-23.567 13.365-13.807 0-23.319-8.259-23.319-22.066 0-10.018 4.743-19.689 13.251-23.678 3.218-1.509 6.811-2.352 10.601-2.352 13.806 0 24.999 11.193 24.999 25z" fill="#ccf49f"/><path d="m55.44 265.396c-3.84 8.86-12.66 15.06-22.94 15.06-13.81 0-25-11.19-25-25 0-10.28 6.2-19.1 15.06-22.94-1.33 3.04-2.06 6.41-2.06 9.94 0 13.81 11.19 25 25 25 3.53 0 6.9-.73 9.94-2.06z" fill="#b3e59f"/></g><g><path d="m504.5 255.456c0 3.452-.7 6.74-1.965 9.731-3.795 8.973-13.212 13.365-23.567 13.365-13.807 0-23.319-8.259-23.319-22.066 0-10.018 4.743-19.689 13.251-23.678 3.218-1.509 6.811-2.352 10.601-2.352 13.806 0 24.999 11.193 24.999 25z" fill="#ccf49f"/><path d="m502.44 265.396c-3.84 8.86-12.66 15.06-22.94 15.06-13.81 0-25-11.19-25-25 0-10.28 6.2-19.1 15.06-22.94-1.33 3.04-2.06 6.41-2.06 9.94 0 13.81 11.19 25 25 25 3.53 0 6.9-.73 9.94-2.06z" fill="#b3e59f"/></g></g><g><circle cx="256" cy="256" fill="#b2e5fb" r="155"/><path d="m363.01 368.14c-27.82 26.55-65.51 42.86-107.01 42.86-85.6 0-155-69.4-155-155 0-32.6 10.07-62.85 27.26-87.81-7.58 18.78-11.76 39.31-11.76 60.81 0 89.75 72.75 162.5 162.5 162.5 30.75 0 59.49-8.54 84.01-23.36z" fill="#98e0f9"/></g></g><path d="m512 256c0-16.12-11.799-29.53-27.213-32.063-5.397-38.818-20.661-75.665-44.345-107.026 8.595-11.345 8.138-30.964-3.422-41.93-10.299-10.511-28.814-13.003-41.93-3.423-31.357-23.68-68.213-38.952-107.027-44.349-2.535-15.412-15.944-27.209-32.063-27.209-16.125 0-29.538 11.806-32.066 27.226-14.351 1.996-28.532 5.335-42.21 9.977-3.923 1.331-6.023 5.59-4.692 9.512 1.061 3.124 3.977 5.092 7.102 5.092.8 0 1.612-.129 2.411-.4 12.462-4.229 25.372-7.308 38.441-9.189 3.406 10.846 12.357 19.252 23.514 21.898v29.563c-39.338 1.796-75.071 17.643-102.29 42.631l-20.86-20.86c6.275-9.825 6.753-22.31 1.42-32.535 9.258-6.921 19.093-13.125 29.298-18.46 3.671-1.919 5.091-6.45 3.172-10.121s-6.451-5.091-10.121-3.172c-11.236 5.874-22.048 12.735-32.201 20.401-5.489-3.959-12.056-6.102-18.956-6.102-16.567-.358-32.835 14.508-32.5 32.5 0 6.897 2.141 13.463 6.096 18.95-23.684 31.361-38.947 68.208-44.345 107.026-15.414 2.533-27.213 15.943-27.213 32.063 0 16.119 11.797 29.528 27.21 32.063 5.396 38.812 20.671 75.674 44.348 107.027-8.595 11.345-8.138 30.964 3.422 41.929 10.299 10.511 28.814 13.003 41.93 3.423 31.359 23.682 68.197 38.95 107.026 44.348 2.536 15.412 15.945 27.21 32.064 27.21 16.128 0 29.543-11.811 32.067-27.236 18.115-2.518 35.888-7.165 52.86-13.879 3.852-1.523 5.739-5.881 4.216-9.733-1.524-3.851-5.881-5.741-9.733-4.215-15.547 6.15-31.816 10.442-48.401 12.827-3.41-10.837-12.357-19.236-23.509-21.882v-29.563c39.338-1.796 75.071-17.643 102.29-42.631l20.86 20.86c-6.272 9.82-6.752 22.296-1.429 32.518-6.239 4.665-12.752 9.039-19.435 12.992-3.565 2.108-4.747 6.708-2.639 10.273 1.4 2.368 3.898 3.684 6.463 3.684 1.298 0 2.612-.337 3.811-1.045 7.457-4.409 14.72-9.307 21.652-14.541 11.344 8.606 30.975 8.155 41.946-3.411 10.512-10.298 13.003-28.815 3.424-41.93 23.677-31.352 38.951-68.215 44.348-107.026 15.412-2.534 27.209-15.943 27.209-32.062zm-97.962 125.539c-5.947 0-11.649 1.588-16.625 4.56l-21.045-21.045c24.598-27.125 40.172-62.571 41.952-101.554h29.563c2.647 11.158 11.054 20.11 21.901 23.516-5.119 35.567-19.116 69.351-40.691 98.209-4.591-2.407-9.723-3.686-15.055-3.686zm-189.054 88.246c-35.585-5.121-69.349-19.117-98.214-40.701 5.175-9.924 4.882-21.979-.878-31.663l21.006-21.006c26.823 24.64 64.438 40.544 101.601 41.909v29.56c-11.157 2.646-20.11 11.054-23.515 21.901zm-142.078-84.561c-21.576-28.858-35.572-62.643-40.691-98.209 10.847-3.405 19.255-12.357 21.902-23.516h29.576c.245 5.371.732 10.732 1.496 16.008.542 3.735 3.747 6.426 7.413 6.425 3.633.049 7.838-3.454 7.433-8.577-.663-4.567-1.089-9.206-1.323-13.856h62.378c.516 22.238 3.321 43.679 8.188 63.25h-52.751c-2.981-5.488-5.665-11.199-7.985-17.144-1.506-3.858-5.852-5.768-9.713-4.26-3.859 1.506-5.767 5.855-4.26 9.713 7.375 18.897 18.112 36.06 31.665 50.808l-20.778 20.779c-8.664-5.618-21.985-7.099-32.55-1.421zm15.056-254.763c5.947 0 11.649-1.588 16.625-4.56l21.045 21.045c-24.599 27.125-40.172 62.571-41.953 101.554h-29.562c-2.647-11.157-11.053-20.109-21.9-23.515 5.121-35.572 19.107-69.343 40.69-98.209 4.591 2.406 9.724 3.685 15.055 3.685zm189.053-88.245c35.57 5.12 69.353 19.114 98.216 40.696-5.177 9.925-4.885 21.982.876 31.667l-21.002 21.003c-26.895-24.676-64.415-40.532-101.605-41.905v-29.56c11.158-2.647 20.11-11.054 23.515-21.901zm142.079 84.56c21.582 28.866 35.568 62.637 40.689 98.21-10.846 3.406-19.253 12.357-21.9 23.515h-29.576c-.217-4.747-.617-9.484-1.238-14.153-.547-4.106-4.319-6.986-8.425-6.444-4.105.547-6.991 4.319-6.444 8.425.535 4.016.886 8.089 1.091 12.173h-62.38c-.516-22.238-3.321-43.679-8.188-63.25h52.695c3.289 5.986 6.2 12.23 8.65 18.73 1.461 3.875 5.788 5.833 9.663 4.373 3.876-1.461 5.834-5.788 4.372-9.664-7.382-19.583-18.367-37.337-32.346-52.546l20.789-20.789c8.662 5.617 21.983 7.098 32.548 1.42zm-43.703 199.974h-52.669c4.867-19.571 7.673-41.012 8.188-63.25h62.4c-1.148 22.825-7.514 44.296-17.919 63.25zm-249.517 15h47.656c5.955 19.148 16.726 41.295 29.956 55.584-31.348-9.315-58.612-28.798-77.612-55.584zm-27.185-93.25c1.149-22.825 7.514-44.296 17.919-63.25h52.669c-4.867 19.571-7.673 41.012-8.188 63.25zm86.203-63.25h53.608v63.25h-62.406c.571-22.68 3.711-44.193 8.798-63.25zm181.068-15h-47.49c-5.93-19.048-16.596-41.038-29.713-55.321 30.979 9.476 58.251 28.975 77.203 55.321zm-112.46 0v-60.857c19.898 4.705 37.592 27.838 49.03 60.857zm53.608 15c5.087 19.057 8.227 40.57 8.797 63.25h-62.405v-63.25zm-68.608-15h-49.03c11.438-33.019 29.131-56.152 49.03-60.857zm0 93.25v63.25h-53.608c-5.087-19.057-8.227-40.57-8.797-63.25zm0 78.25v60.857c-19.898-4.705-37.592-27.838-49.03-60.857zm15 0h49.03c-11.438 33.019-29.131 56.152-49.03 60.857zm0-15v-63.25h62.406c-.57 22.68-3.711 44.193-8.797 63.25zm-69.009-183.706c-4.185 8.37-7.848 17.493-10.962 27.206h-47.474c18.748-26.149 45.824-45.936 77.315-55.461-6.901 7.548-13.255 17.008-18.879 28.255zm123.018 225.912c4.185-8.37 7.848-17.493 10.962-27.206h47.474c-18.748 26.149-45.824 45.936-77.315 55.461 6.901-7.548 13.255-17.008 18.879-28.255zm179.491-112.956c0 9.649-7.851 17.5-17.5 17.5s-17.5-7.851-17.5-17.5 7.851-17.5 17.5-17.5 17.5 7.851 17.5 17.5zm-82.962-175.538c4.675 0 9.069 1.82 12.375 5.126 6.034 5.877 7.239 17.627 0 24.748-5.875 6.033-17.63 7.242-24.749 0-6.823-6.823-6.823-17.925-.001-24.749 3.306-3.305 7.701-5.125 12.375-5.125zm-175.538-47.962c0-9.649 7.851-17.5 17.5-17.5s17.5 7.851 17.5 17.5-7.851 17.5-17.5 17.5-17.5-7.851-17.5-17.5zm-152.912 53.087c5.876-6.034 17.628-7.24 24.748 0 6.823 6.823 6.823 17.925.001 24.749-5.878 6.034-17.629 7.24-24.75 0-6.034-5.878-7.24-17.628.001-24.749zm-70.588 170.413c0-9.649 7.851-17.5 17.5-17.5s17.5 7.851 17.5 17.5-7.851 17.5-17.5 17.5-17.5-7.851-17.5-17.5zm82.962 175.538c-4.675 0-9.069-1.82-12.375-5.126-6.033-5.878-7.24-17.628.001-24.748 5.876-6.034 17.628-7.24 24.748 0 6.823 6.823 6.823 17.925.001 24.749-3.306 3.305-7.701 5.125-12.375 5.125zm175.538 47.962c0 9.649-7.851 17.5-17.5 17.5s-17.5-7.851-17.5-17.5 7.851-17.5 17.5-17.5 17.5 7.851 17.5 17.5zm152.912-53.087c-5.877 6.035-17.628 7.24-24.749 0h.001c-6.823-6.823-6.823-17.925-.001-24.749 5.878-6.034 17.629-7.24 24.75 0 6.034 5.878 7.24 17.628-.001 24.749z"/></g></svg>