<svg id="Capa_1" enable-background="new 0 0 512 512" height="512" viewBox="0 0 512 512" width="512" xmlns="http://www.w3.org/2000/svg"><g><g><g><path d="m170.005 241.5h-29.142v-54c0-3.314 2.686-6 6-6l8-1h10c3.314 0 6 2.686 6 6v40z" fill="#ffd163"/><path d="m170.863 226.5v16.518h-31v-56.518c0-3.314 2.686-6 6-6h9v43c0 1.657 1.343 3 3 3z" fill="#ffb65f"/></g><g><path d="m227.026 241.5h-29.142v-54c0-3.314 2.686-6 6-6l8-1h10c3.314 0 6 2.686 6 6v40z" fill="#ffd163"/><path d="m227.884 226.5v16.518h-31v-56.518c0-3.314 2.686-6 6-6h9v43c0 1.657 1.343 3 3 3z" fill="#ffb65f"/></g><g><path d="m310.994 241.5h-29.142v-54c0-3.314 2.686-6 6-6l8-1h10c3.314 0 6 2.686 6 6v40z" fill="#ffd163"/><path d="m311.852 226.5v16.518h-31v-56.518c0-3.314 2.686-6 6-6h9v43c0 1.657 1.343 3 3 3z" fill="#ffb65f"/></g><g><path d="m368.016 241.5h-29.142v-54c0-3.314 2.686-6 6-6l8-1h10c3.314 0 6 2.686 6 6v40z" fill="#ffd163"/><path d="m368.874 226.5v16.518h-31v-56.518c0-3.314 2.686-6 6-6h9v43c0 1.657 1.343 3 3 3z" fill="#ffb65f"/></g><path d="m238.874 247v24.94l-53.087 4.243-54.991-4.243.083-23.922c0-2.76 2.24-5 5-5l11.995-1.018h86c2.76 0 5 2.24 5 5z" fill="#f8f7f7"/><path d="m379.874 495.1v5.4c0 2.209-1.791 4-4 4h-87l-13.188-.472c-2.209 0-4-1.791-4-4l.661-5.395c0-14.66-6.686-28.801-18.605-37.321l-52.183-38.532c-43.2-30.88-69.688-79.4-69.688-132.5v-14.34h107.005v14.34c0 10.219 2.813 20.077 7.932 28.595 3.858 6.419 6.618 13.335 12.88 17.813l52.167 37.651c14.328 10.242 29.971 21.776 39.851 35.811 18.093 25.706 28.168 56.686 28.168 88.95z" fill="#7dc3ee"/><path d="m147.874 242v29.94l-10.06 2.922-7.94-2.922v-24.94c0-2.76 2.24-5 5-5z" fill="#e8e8e8"/><path d="m382.624 247v24.94l-55.727 4.243-52.273-4.243v-23.94c0-2.76 2.24-5 5-5l11-1h87c2.76 0 5 2.24 5 5z" fill="#f8f7f7"/><path d="m315.224 369.41-53.13-37.98c-6.26-4.48-11.43-10.14-15.28-16.56-1.57 1.58-3.29 3.04-5.13 4.36l-53.13 37.98c-3.751 2.681-7.367 5.508-10.854 8.463-1.399 1.185-3.503.861-4.481-.69-16.329-25.912-25.345-56.231-25.345-87.703v-5.34h-18v14.34c0 34.855 11.043 68.305 30.849 95.91.02.028.041.053.061.08 10.359 14.417 23.108 27.239 37.92 37.829l53.13 37.98c5.75 4.11 10.39 9.46 13.63 15.55.003-.003.007-.006.01-.009.001.001.001.002.002.003 3.492 6.523 5.398 13.89 5.398 21.476v5.4c0 2.209 1.791 4 4 4h14v-18.4c0-7.902-2.081-15.558-5.858-22.277-.748-1.331-.392-3.008.851-3.896l38.647-27.627c10.76-7.69 20.53-16.47 29.19-26.15-9.88-14.039-22.15-26.499-36.48-36.739z" fill="#64acdc"/><path d="m382.624 271.94v14.34c0 53.1-25.63 102.94-68.83 133.82l-53.13 37.98c-11.92 8.52-19.04 22.36-19.04 37.02v5.4c0 2.209-1.791 4-4 4h-87.99l-11.453-1.017c-2.209 0-4-1.791-4-4v-5.4c0-49.88 23.173-94.028 63.743-123.028l54.991-38.807c14.57-10.42 23.22-27.23 23.22-45.15l-.431-15.158z" fill="#df646e"/><path d="m290.624 242v29.94l-9.771 2.922-7.229-2.922v-24.94c0-2.76 2.24-5 5-5z" fill="#e8e8e8"/><path d="m290.624 271.94v24.34c0 17.92-8.65 34.73-23.22 45.15l-53.13 37.98c-40.41 28.88-64.46 75.44-64.64 125.09h-13.01c-2.209 0-4-1.791-4-4v-5.4c0-49.88 24.08-96.69 64.65-125.69l53.13-37.98c14.57-10.42 23.22-27.23 23.22-45.15v-14.34z" fill="#dc4955"/><g><path d="m243.374 67c0 13.784-4.687 26.473-12.555 36.561-10.888 13.961-27.868 21.714-46.945 21.714-32.861 0-57.95-24.607-57.95-57.468 0-19.194 7.538-37.072 21.646-47.952 10.046-7.747 22.636-12.355 36.304-12.355 32.86 0 59.5 26.639 59.5 59.5z" fill="#f8f7f7"/><path d="m231.944 102.07c-10.83 14.81-28.32 24.43-48.07 24.43-32.86 0-59.5-26.64-59.5-59.5 0-19.75 9.62-37.24 24.43-48.07-7.19 9.83-11.43 21.96-11.43 35.07 0 32.86 26.64 59.5 59.5 59.5 13.11 0 25.24-4.24 35.07-11.43z" fill="#e8e8e8"/></g><g><path d="m387.626 67c0 13.784-4.687 26.473-12.555 36.561-10.888 13.961-27.868 21.714-46.945 21.714-32.861 0-57.95-24.607-57.95-57.468 0-19.194 7.538-37.072 21.646-47.952 10.047-7.747 22.637-12.355 36.304-12.355 32.861 0 59.5 26.639 59.5 59.5z" fill="#f8f7f7"/><path d="m376.196 102.07c-10.83 14.81-28.32 24.43-48.07 24.43-32.86 0-59.5-26.64-59.5-59.5 0-19.75 9.62-37.24 24.43-48.07-7.19 9.83-11.43 21.96-11.43 35.07 0 32.86 26.64 59.5 59.5 59.5 13.11 0 25.24-4.24 35.07-11.43z" fill="#e8e8e8"/></g></g><g><path d="m377.626 234.5h-1.253v-48c0-7.444-6.056-13.5-13.5-13.5h-1.5v-19.5c0-4.142-3.358-7.5-7.5-7.5s-7.5 3.358-7.5 7.5v19.5h-2.5c-7.444 0-13.5 6.056-13.5 13.5v48h-10v-48c0-7.444-6.056-13.5-13.5-13.5h-2.5v-19.5c0-4.142-3.358-7.5-7.5-7.5s-7.5 3.358-7.5 7.5v19.5h-1.5c-7.444 0-13.5 6.056-13.5 13.5v48.761c-4.802 1.746-8.247 6.341-8.247 11.739v39.281c0 10.642-3.559 20.875-9.878 29.152-6.396-8.334-9.875-18.482-9.875-29.152v-39.281c0-6.384-4.813-11.657-11-12.401v-48.099c0-7.444-6.056-13.5-13.5-13.5h-1.5v-19.5c0-4.142-3.358-7.5-7.5-7.5s-7.5 3.358-7.5 7.5v19.5h-2.5c-7.444 0-13.5 6.056-13.5 13.5v48h-10v-48c0-7.444-6.056-13.5-13.5-13.5h-2.5v-19.5c0-4.142-3.358-7.5-7.5-7.5s-7.5 3.358-7.5 7.5v19.5h-1.5c-7.444 0-13.5 6.056-13.5 13.5v48.099c-6.187.745-11 6.017-11 12.401v39.281c0 39.196 13.507 77.412 38.07 107.908-22.557 28.366-35.317 63.9-35.317 100.907v9.404c0 4.142 3.358 7.5 7.5 7.5s7.5-3.358 7.5-7.5v-9.404c0-47.347 22.995-92.052 61.512-119.586l53.126-37.978c16.507-11.8 26.362-30.959 26.362-51.251v-6.846h94v6.846c0 4.278-.177 8.605-.526 12.863-.339 4.128 2.733 7.75 6.861 8.088 4.112.334 7.75-2.733 8.088-6.862.382-4.664.577-9.404.577-14.09v-39.28c0-6.893-5.607-12.5-12.5-12.5zm-173.252-46.5h16v46.5h-16zm-40 0v46.5h-16v-46.5zm28.541 175.307c-8.125 5.809-15.618 12.315-22.432 19.398-21.381-27.485-33.11-61.529-33.11-96.424v-6.846h43.534c4.142 0 7.5-3.358 7.5-7.5s-3.358-7.5-7.5-7.5h-43.534v-14.935h94v14.936h-15.466c-4.142 0-7.5 3.358-7.5 7.5s3.358 7.5 7.5 7.5h15.466v6.846c0 14.557 4.918 28.383 13.959 39.555zm152.459-175.307h16v46.5h-16zm-40 0v46.5h-16v-46.5zm-24.248 76.436v-14.936h94v14.936z"/><path d="m382.673 336.37c1.207-3.962-1.028-8.153-4.99-9.359-3.964-1.207-8.153 1.027-9.359 4.99-10.014 32.889-30.929 62.01-58.894 82.001l-7.758 5.546c-3.37 2.409-4.148 7.093-1.739 10.463 1.464 2.048 3.768 3.139 6.107 3.139 1.509 0 3.034-.455 4.355-1.399l7.758-5.545c8.578-6.132 16.55-13.05 23.825-20.622 19.645 25.603 30.395 57.14 30.395 89.513v9.404c0 4.142 3.358 7.5 7.5 7.5s7.5-3.358 7.5-7.5v-9.404c0-36.666-12.518-72.354-35.324-100.975 13.722-17.063 24.215-36.701 30.624-57.752z"/><path d="m273.064 439.999-16.76 11.981c-13.887 9.928-22.178 26.046-22.178 43.116v9.404c0 4.142 3.358 7.5 7.5 7.5s7.5-3.358 7.5-7.5v-9.404c0-8.017 2.564-15.733 7.123-22.108 4.572 6.419 7.124 14.203 7.124 22.108v9.404c0 4.142 3.358 7.5 7.5 7.5s7.5-3.358 7.5-7.5v-9.404c0-11.714-4.016-23.234-11.156-32.479l14.57-10.416c3.37-2.409 4.148-7.094 1.74-10.463s-7.092-4.148-10.463-1.739z"/><path d="m183.874 134c36.944 0 67-30.056 67-67s-30.056-67-67-67c-16.122 0-31.701 5.809-43.869 16.357-3.129 2.713-3.467 7.45-.754 10.58 2.714 3.129 7.45 3.467 10.58.754 9.44-8.184 21.53-12.691 34.043-12.691 28.673 0 52 23.327 52 52s-23.327 52-52 52-52-23.327-52-52c0-4.444.56-8.855 1.665-13.109 1.041-4.009-1.365-8.103-5.375-9.144-4.011-1.04-8.103 1.366-9.144 5.375-1.424 5.484-2.146 11.164-2.146 16.879 0 36.943 30.056 66.999 67 66.999z"/><path d="m328.126 134c36.944 0 67-30.056 67-67s-30.056-67-67-67-67 30.056-67 67 30.057 67 67 67zm0-119c28.673 0 52 23.327 52 52s-23.327 52-52 52-52-23.327-52-52 23.328-52 52-52z"/><path d="m206.287 74.5c4.142 0 7.5-3.358 7.5-7.5s-3.358-7.5-7.5-7.5h-44.827c-4.142 0-7.5 3.358-7.5 7.5s3.358 7.5 7.5 7.5z"/><path d="m305.713 74.5h14.913v14.913c0 4.142 3.358 7.5 7.5 7.5s7.5-3.358 7.5-7.5v-14.913h14.913c4.142 0 7.5-3.358 7.5-7.5s-3.358-7.5-7.5-7.5h-14.913v-14.913c0-4.142-3.358-7.5-7.5-7.5s-7.5 3.358-7.5 7.5v14.913h-14.913c-4.142 0-7.5 3.358-7.5 7.5s3.358 7.5 7.5 7.5z"/></g></g></svg>