<svg id="Capa_1" enable-background="new 0 0 512 512" height="512" viewBox="0 0 512 512" width="512" xmlns="http://www.w3.org/2000/svg"><g><g><path d="m444.4 108.8v365.8c0 5.5-1.5 10.6-4 15-5.2 9-18 14.4-32 12.2l-309.4.5c-13.7 2.3-28.8-13.2-28.8-29.7l1.3-363.8 175.4-6z" fill="#ffd163"/><path d="m444.4 37.5v71.2h-372.9l-1.3-69.1c0-11.1 3.4-22.9 12.4-28.1 4.4-2.6 9.5-4 15-4h316.9c16.5 0 29.9 13.4 29.9 30z" fill="#8d9ca8"/><path d="m440.4 489.5c-5.2 9-14.9 15-26 15h-316.8c-16.6 0-30-13.4-30-30v-365.7l7.5-3.4 7.5 3.4v365.8c0 8.3 6.7 15 15 15h342.8z" fill="#ffb65f"/><path d="m82.6 11.5v97.2h-15v-71.2c0-11.1 6-20.8 15-26z" fill="#7a8c98"/><path d="m103.4 401.4 133.3-231.5c8.6-14.9 30-14.9 38.6 0l133.3 231.5c8.5 14.8-2.2 33.4-19.3 33.4h-266.6c-17.2 0-27.9-18.6-19.3-33.4z" fill="#ffd163"/><g><path d="m202.2 326.3c-3.5 4.7-1 11.8 4.8 12.1h.4 39.5c.6 0 1.1.3 1.4.7.3.5 1.9.9 1.7 1.5l-22 50c-2.8 6.5-.5 14.1 5.6 16.4 1.3.5 2.7.8 4.2.8 3.8 0 7.3-1.8 9.6-4.8l63.2-84.2c3.6-4.8.2-11.7-5.8-11.7h-39.5c-1.3 0-2.1-1.3-1.6-2.4l21.7-50.1c2.5-5.7.2-11.8-4.5-14.9-1.8-1.2-4-.9-6.4-.9-3.8 0-7.3 1.8-9.6 4.8z" fill="#8d9ca8"/><g fill="#7a8c98"><path d="m262.5 340.9-28.9 66.1c-6.2-2.3-9.6-9.5-6.8-16l21.7-50.1c.5-1.2-.4-2.5-1.6-2.5h14c1.2 0 2.1 1.3 1.6 2.5z"/><path d="m280.7 239.7-73.7 98.7c-5.8-.3-9-7-5.5-11.7l63.2-84.2c1.1-1.5 2.6-2.7 4.2-3.5s3.5-1.3 5.4-1.3c2.4.1 4.6.8 6.4 2z"/></g></g><path d="m411.5 414.8c-1.1 10.7-10 20-22.2 20h-266.6c-17.1 0-27.8-18.5-19.3-33.4l133.3-231.5c6-10.5 18.5-13.6 28.3-9.2l-144.3 250.7c-.2.3-.7 1.1 0 2.3s1.6 1.1 2 1.1z" fill="#ffb65f"/><path d="m143 73.2h226c8.3 0 15-6.7 15-15 0-8.3-6.7-15-15-15h-226c-8.3 0-15 6.7-15 15 0 8.3 6.7 15 15 15z" fill="#7a8c98"/></g><g><path d="m414.4 0h-316.8c-20.7 0-37.5 16.8-37.5 37.5v148.5c0 4.1 3.4 7.5 7.5 7.5s7.5-3.4 7.5-7.5v-69.7h361.9v358.2c0 12.4-10.1 22.5-22.5 22.5h-316.9c-12.4 0-22.5-10.1-22.5-22.5v-253.5c0-4.1-3.4-7.5-7.5-7.5s-7.5 3.4-7.5 7.5v253.5c0 20.7 16.8 37.5 37.5 37.5h316.9c20.7 0 37.5-16.8 37.5-37.5v-437c-.1-20.7-16.9-37.5-37.6-37.5zm-339.3 101.2v-63.7c0-12.4 10.1-22.5 22.5-22.5h316.9c12.4 0 22.5 10.1 22.5 22.5v63.8h-361.9z"/><path d="m96.9 427.4c5.4 9.3 15 14.9 25.8 14.9h266.7c21.8.7 37.4-25.2 25.8-44.6l-64.7-112.4c-2.1-3.6-6.7-4.8-10.2-2.8-3.6 2.1-4.8 6.7-2.8 10.2l64.7 112.4c5.2 8.3-1 22.4-12.8 22.1h-266.7c-10.3.3-18.5-11.9-12.8-22.1l133.3-231.5c4.8-9.1 19.8-10.1 25.6 0l51.1 88.7c2.1 3.6 6.7 4.8 10.2 2.8 3.6-2.1 4.8-6.7 2.8-10.2l-51.1-88.7c-10.4-19.4-40.8-19.7-51.6 0l-133.3 231.4c-5.4 9.3-5.4 20.5 0 29.8z"/><path d="m369 35.8h-144c-4.1 0-7.5 3.4-7.5 7.5s3.4 7.5 7.5 7.5h144c4.1 0 7.5 3.4 7.5 7.5s-3.4 7.5-7.5 7.5h-226c-4.1 0-7.5-3.4-7.5-7.5s3.4-7.5 7.5-7.5h47c4.1 0 7.5-3.4 7.5-7.5s-3.4-7.5-7.5-7.5h-47c-12.4 0-22.5 10.1-22.5 22.5s10.1 22.5 22.5 22.5h226c12.4 0 22.5-10.1 22.5-22.5s-10.1-22.5-22.5-22.5z"/><path d="m221.5 406.5c3.6 5.5 9.7 8.8 16.3 8.8 6.1 0 11.9-2.9 15.6-7.8l63.2-84.2c3.4-4.5 3.9-10.5 1.4-15.5-2.5-5.1-7.6-8.2-13.2-8.2h-30.8l18.2-42.1c2.6-6 2-12.9-1.6-18.4s-9.7-8.8-16.3-8.8c-6.1 0-11.9 2.9-15.6 7.8l-63.2 84.2c-3.4 4.5-3.9 10.5-1.4 15.5s7.6 8.2 13.2 8.2h30.8l-18.2 42c-2.6 6.1-2 13 1.6 18.5zm12.1-12.5 22.7-52.6c1-2.3.8-5-.6-7.1s-3.7-3.4-6.3-3.4h-41.8l62.9-83.9c.8-1.1 2.2-1.8 3.6-1.8 2.2 0 3.4 1.4 3.8 2s1.2 2.2.4 4.3l-22.7 52.6c-1 2.3-.8 5 .6 7.1s3.7 3.4 6.3 3.4h41.8l-62.9 83.9c-.8 1.1-2.2 1.8-3.6 1.8-2.2 0-3.4-1.4-3.8-2-.4-.7-1.2-2.3-.4-4.3z"/><path d="m154 461.8c-4.1 0-7.5 3.4-7.5 7.5s3.4 7.5 7.5 7.5h49c4.1 0 7.5-3.4 7.5-7.5s-3.4-7.5-7.5-7.5z"/><path d="m238 461.8c-4.1 0-7.5 3.4-7.5 7.5s3.4 7.5 7.5 7.5h120c4.1 0 7.5-3.4 7.5-7.5s-3.4-7.5-7.5-7.5z"/><path d="m404.5 141.8h-75c-4.1 0-7.5 3.4-7.5 7.5s3.4 7.5 7.5 7.5h75c4.1 0 7.5-3.4 7.5-7.5s-3.4-7.5-7.5-7.5z"/><path d="m404.5 171.8h-55c-4.1 0-7.5 3.4-7.5 7.5s3.4 7.5 7.5 7.5h55c4.1 0 7.5-3.4 7.5-7.5s-3.4-7.5-7.5-7.5z"/><path d="m107.5 156.8h75c4.1 0 7.5-3.4 7.5-7.5s-3.4-7.5-7.5-7.5h-75c-4.1 0-7.5 3.4-7.5 7.5s3.4 7.5 7.5 7.5z"/><path d="m107.5 186.8h55c4.1 0 7.5-3.4 7.5-7.5s-3.4-7.5-7.5-7.5h-55c-4.1 0-7.5 3.4-7.5 7.5s3.4 7.5 7.5 7.5z"/></g></g></svg>