<svg id="Capa_1" enable-background="new 0 0 512.001 512.001" height="512" viewBox="0 0 512.001 512.001" width="512" xmlns="http://www.w3.org/2000/svg"><g><g><path d="m26.501 474.501h20c2.761 0 5-2.239 5-5v-41l-16.115-3.775-13.885 3.775v41c0 2.761 2.239 5 5 5z" fill="#e8e8e8"/><path d="m465.501 474.501h20c2.761 0 5-2.239 5-5v-41l-14.5-3.995-15.5 3.995v41c0 2.761 2.239 5 5 5z" fill="#e8e8e8"/><path d="m447.501 366.745v52.756c0 4.418 3.582 8 8 8l5 1h36c4.418 0 8-3.582 8-8v-119.71l-3.537-31.295 3.537-48.995z" fill="#ffb65f"/><path d="m298.321 48.791h-87.98c-47.04 0-89.62 19.07-120.45 49.89s-49.89 73.41-49.89 120.45c0 94.08 76.26 170.34 170.34 170.34h87.98c47.04 0 89.62-19.07 120.45-49.89s49.89-73.41 49.89-120.45c0-94.08-76.26-170.34-170.34-170.34zm-19.49 269.21h-45.16c-53.17 0-98.49-44.23-98.56-97.37-.04-25.8 10.99-51.06 29.23-69.32 18.25-18.26 43.51-28.31 69.33-28.31h45.16c53.24 0 98.56 44.29 98.56 97.5s-45.32 97.5-98.56 97.5z" fill="#ffb65f"/><path d="m278.831 108.001h-45.16c-30.09 0-58.38 11.72-79.65 33-21.27 21.29-32.96 49.58-32.91 79.65.08 61.95 50.58 112.35 112.56 112.35h45.16c62.07 0 112.56-50.47 112.56-112.5s-50.49-112.5-112.56-112.5zm0 209h-45.16c-53.17 0-96.49-43.23-96.56-96.37-.04-25.8 9.99-50.06 28.23-68.32 18.25-18.26 42.51-28.31 68.33-28.31h45.16c53.24 0 96.56 43.29 96.56 96.5s-43.32 96.5-96.56 96.5z" fill="#ff9350"/><path d="m504.501 220.501-58 145.784v54.216c0 4.418 3.582 8 8 8h6v-55.283c0-.729.269-1.43.752-1.976 17.958-20.267 33.379-44.735 43.248-70.452z" fill="#ff9350"/><path d="m10.506 223.588c-.077-56.816 20.313-111.394 60.44-151.596 23.31-23.353 49.936-40.278 80.257-50.642 21.877-7.478 44.892-13.349 68.691-13.349h72.214c117.114 0 212.393 95.327 212.393 212.5s-95.279 212.5-212.393 212.5h-72.214c-56.678 0-109.978-22.067-150.082-62.138-1.482-1.481-2.939-2.979-4.372-4.496zm209.596-157.587c-41.335 0-80.185 16.097-109.394 45.326-29.208 29.229-45.263 68.076-45.207 109.384.116 85.075 69.47 154.29 154.601 154.29h72.298c85.247 0 154.601-69.309 154.601-154.5s-69.354-154.5-154.601-154.5z" fill="#ffd163"/><g><path d="m80.501 286.821v94.02c-3.66-3.19-7.22-6.52-10.69-9.98-1.48-1.48-2.94-2.98-4.37-4.49l-57.94-145.58 58-.08s5.41 46.06 15 66.11z" fill="#ffb65f"/></g><path d="m9.501 220.501-1 199c0 4.418 3.582 8 8 8l5 1h36c4.418 0 8-3.582 8-8v-200z" fill="#ffd163"/><path d="m233.891 8.001c-56.78 0-110.16 22.14-150.28 62.34-40.06 40.13-62.12 93.45-62.11 150.16v208h-6c-4.42 0-8-3.58-8-8v-200c-.01-56.71 22.05-110.03 62.11-150.16 40.12-40.2 93.5-62.34 150.28-62.34h14z" fill="#ffb65f"/></g><g><path d="m504.501 364.723c4.143 0 7.5-3.358 7.5-7.5v-136.972c0-121.309-98.644-220-219.894-220h-72.213c-58.787-.08-115.24 23.412-156.653 65.61-2.908 2.95-2.874 7.698.075 10.606 2.947 2.906 7.696 2.875 10.606-.075 38.314-39.031 90.944-61.269 145.972-61.142h72.213c112.979 0 204.894 91.962 204.894 205s-91.915 205-204.894 205h-20.829c-4.143 0-7.5 3.358-7.5 7.5s3.357 7.5 7.5 7.5h20.829c56.413 0 107.926-21.372 146.894-56.438v36.438c0 8.041 6.155 14.667 14 15.424v33.576c0 6.893 5.607 12.5 12.5 12.5h2.5v22.5c0 4.142 3.357 7.5 7.5 7.5s7.5-3.358 7.5-7.5v-22.5h2.5c6.893 0 12.5-5.607 12.5-12.5v-33.576c7.845-.757 14-7.383 14-15.424v-27.972c0-4.142-3.357-7.5-7.5-7.5s-7.5 3.358-7.5 7.5v27.972c0 .276-.225.5-.5.5h-6-30-6c-.275 0-.5-.224-.5-.5v-51.286c18.302-19.927 32.987-43.227 43-68.853v57.111c0 4.143 3.357 7.501 7.5 7.501zm-21.5 71.028v31h-15v-31z"/><path d="m235.179 425.251h-15.284c-55.202.044-108.204-22.139-146.894-62.085v-74.927c25.778 55.45 82.04 94.012 147.102 94.012h72.297c89.383 0 162.102-72.673 162.102-162s-72.719-162-162.102-162h-72.297c-43.34 0-84.074 16.878-114.7 47.525-30.559 30.582-47.384 71.205-47.398 114.415-.009 39.215-.001 163.048-.003 200.06 0 .276-.225.5-.5.5-8.503 0-33.903 0-42 0-.275 0-.5-.224-.5-.5v-199.721c-.059-42.723 12.802-83.578 37.188-118.148 2.388-3.385 1.579-8.064-1.806-10.452-3.384-2.387-8.064-1.579-10.452 1.805-26.118 37.023-39.919 80.744-39.928 126.458-.009.022 0 199.958-.003 200.057 0 8.041 6.155 14.667 14 15.424v33.576c0 6.893 5.607 12.5 12.5 12.5h2.5v22.5c0 4.142 3.357 7.5 7.5 7.5s7.5-3.358 7.5-7.5v-22.5h2.5c6.893 0 12.5-5.607 12.5-12.5v-33.576c7.845-.757 14-7.383 14-15.424v-36.289c40.409 36.382 92.126 56.289 146.894 56.289h15.284c4.143 0 7.5-3.358 7.5-7.5s-3.358-7.499-7.5-7.499zm-119.166-308.873c27.793-27.811 64.759-43.127 104.09-43.127h72.297c81.112 0 147.102 65.944 147.102 147s-65.989 147-147.102 147h-72.297c-81.002 0-146.991-65.854-147.102-146.8-.053-39.302 15.223-76.262 43.012-104.073zm-72.012 350.373h-15v-31h15z"/><path d="m233.673 324.251h45.156c57.381 0 104.063-46.654 104.063-104 0-21.181-6.36-41.577-18.394-58.983-2.354-3.406-7.027-4.259-10.434-1.904s-4.26 7.027-1.904 10.435c10.291 14.887 15.731 32.333 15.731 50.453 0 49.075-39.954 89-89.063 89h-45.156c-49.043 0-88.997-39.871-89.063-88.879-.032-23.794 9.216-46.171 26.042-63.009s39.208-26.112 63.021-26.112h45.156c18.092 0 35.519 5.414 50.396 15.656 3.412 2.349 8.081 1.487 10.431-1.925 2.349-3.412 1.487-8.082-1.925-10.431-17.391-11.972-37.758-18.3-58.901-18.3h-45.156c-27.822 0-53.973 10.835-73.633 30.509-19.661 19.676-30.469 45.826-30.431 73.632.079 57.267 46.761 103.858 104.064 103.858z"/></g></g></svg>