<svg id="Capa_1" enable-background="new 0 0 512 512" height="512" viewBox="0 0 512 512" width="512" xmlns="http://www.w3.org/2000/svg"><g><g><path d="m389.01 138.5-9.59 35-127.511 6.564-119.309-6.564 1.786-15.895-11.376-19.105 126.257-9.01z" fill="#e8e8e8"/><path d="m379.42 173.5-53.69 196-70.424 5.757-67.016-5.757-53.69-196z" fill="#f8f7f7"/><path d="m221.01 477.5h68.11l.482 13-1.078 5.82c-.878 4.74-5.012 8.179-9.833 8.179h-43.081l-1.282-1c-4.821 0-8.955-3.439-9.833-8.179z" fill="#b6c4cf"/><path d="m289.6 490.5h-52.982c-1.876 0-3.292 1.703-2.95 3.548l1.941 10.452h-2.28c-4.82 0-8.96-3.44-9.83-8.18l-3.49-18.82 36-2.665 36 2.665z" fill="#9facba"/><path d="m297.51 477.5h-69.986l-12.014-1c-11.046 0-20-8.954-20-20l1-57h15l47.555-2.775 58.445 2.775v58c0 11.046-8.955 20-20 20z" fill="#f8f7f7"/><path d="m213.01 250h86c8.284 0 15-6.716 15-15 0-8.284-6.716-15-15-15h-86c-8.284 0-15 6.716-15 15 0 8.284 6.715 15 15 15z" fill="#ccf49f"/><path d="m231.51 477.5h-17c-11.05 0-20-8.95-20-20v-58l8.188-2.775 8.812 2.775v58c0 11.05 8.95 20 20 20z" fill="#e8e8e8"/><path d="m389.01 138.5 4.945-20.909c12.906-56.357-29.913-110.091-87.729-110.091h-90.042l-10.073.711c-58.351 0-98.947 53.572-85.101 110.257l4.954 20.032z" fill="#ccf49f"/><path d="m135.81 118.86 4.64 19.64-6.46 3.693-10.98-3.693-4.64-19.64c-13.85-56.69 29.08-111.36 87.43-111.36h17.44c-58.35 0-101.28 54.67-87.43 111.36z" fill="#b3e59f"/><path d="m325.73 369.5-8.22 30h-106l-16-1.454-9.22-28.546z" fill="#b6c4cf"/><path d="m203.29 369.5-7.78 5.757-9.22-5.757-53.69-196 6.905-3.344 10.095 3.344z" fill="#e8e8e8"/><path d="m149.6 173.5h-17l-9.59-35h17.4z" fill="#d8d8d8"/><path d="m211.51 399.5h-17l-8.22-30h17z" fill="#9facba"/></g><g><path d="m382.477 36.737c-18.605-23.346-46.397-36.737-76.251-36.737h-100.428c-20.501 0-40.059 6.243-56.583 18.058-3.36 2.402-4.415 7.105-2.082 10.514 2.388 3.49 7.165 4.312 10.575 1.854 14.013-10.092 30.642-15.426 48.09-15.426h100.428c25.261 0 48.777 11.33 64.52 31.086 15.743 19.755 21.537 45.207 15.91 69.778l-3.58 15.136h-254.132l-3.29-13.923c-5.276-21.603-1.788-43.867 9.821-62.729 2.142-3.48 1.363-8.159-2.032-10.435-3.548-2.379-8.325-1.324-10.556 2.271-13.876 22.366-18.068 48.808-11.817 74.396 3.796 16.051 69.615 256.794 75.518 278.382.282 1.031.423 2.087.423 3.157v55.38c0 14.914 11.937 27.085 26.758 27.481l2.353 12.706c1.536 8.294 8.771 14.312 17.206 14.312h45.365c8.436 0 15.671-6.019 17.208-14.314l2.353-12.705c14.821-.396 26.758-12.567 26.758-27.481v-55.393c0-1.061.14-2.115.418-3.139 6.048-22.3 75.716-279.186 75.838-279.703 6.662-29.098-.187-59.178-18.791-82.526zm-8.777 129.263h-150.69c-4.142 0-7.5 3.357-7.5 7.5s3.358 7.5 7.5 7.5h146.581l-49.584 181h-26.961c-4.142 0-7.5 3.357-7.5 7.5s3.358 7.5 7.5 7.5h22.852l-4.109 15h-111.558l-4.109-15h61.565c4.142 0 7.5-3.357 7.5-7.5s-3.358-7.5-7.5-7.5h-65.674l-49.584-181h45.581c4.142 0 7.5-3.357 7.5-7.5s-3.358-7.5-7.5-7.5h-49.69l-5.479-20h246.338zm-171.69 278v-11h108v11zm108-26h-108v-11h108zm-31.319 79h-45.363c-1.205 0-2.239-.86-2.458-2.044l-1.844-9.956h53.968l-1.844 9.955c-.22 1.185-1.254 2.045-2.459 2.045zm18.819-27c-.082 0-79.433 0-83 0-6.384 0-11.657-4.813-12.401-11h107.802c-.745 6.187-6.017 11-12.401 11z"/><path d="m273.51 318h-36c-4.142 0-7.5 3.357-7.5 7.5s3.358 7.5 7.5 7.5h36c4.142 0 7.5-3.357 7.5-7.5s-3.358-7.5-7.5-7.5z"/><path d="m283.51 289h-56c-4.142 0-7.5 3.357-7.5 7.5s3.358 7.5 7.5 7.5h56c4.142 0 7.5-3.357 7.5-7.5s-3.358-7.5-7.5-7.5z"/><path d="m213.01 257.5h86c12.407 0 22.5-10.094 22.5-22.5s-10.093-22.5-22.5-22.5h-86c-12.407 0-22.5 10.094-22.5 22.5s10.093 22.5 22.5 22.5zm0-30h86c4.136 0 7.5 3.364 7.5 7.5s-3.364 7.5-7.5 7.5h-86c-4.136 0-7.5-3.364-7.5-7.5s3.364-7.5 7.5-7.5z"/></g></g></svg>