<svg id="Capa_1" enable-background="new 0 0 512 512" height="512" viewBox="0 0 512 512" width="512" xmlns="http://www.w3.org/2000/svg"><g><g><path d="m276.251 318.165-81.139-80.978-25.859 25.824 81.139 80.978z" fill="#b6c4cf"/><path d="m190.477 236.366-22.03 21.99 3.749 8.265 6.931 2.395 21.98-22.03-4.23-7.259z" fill="#9facba"/><g><path d="m97.504 395.868-83.776 82.115c-2.929 2.929-4.947 7.268-4.947 11.106s.741 6.646 3.67 9.574c5.653 5.653 14.674 6.83 20.564 1.572.213-.19.422-.388.627-.593l83.936-84.149z" fill="#f8f7f7"/></g><path d="m96.197 394.586 9.93 9.71-77.383 77.535c-3.897 3.905-3.896 10.228.003 14.131l4.269 4.274c-5.89 5.25-14.94 5.06-20.59-.59-2.93-2.93-4.39-6.77-4.39-10.61s1.46-7.68 4.39-10.61l6.409-6.409.014-.019z" fill="#e8e8e8"/><path d="m76.027 376.101 59.049 58.952c6.654 6.643 17.444 6.643 24.098 0l71.096-70.98-38.499-44.601-43.611-37.518-70.411 69.646c-6.21 6.2-8.347 16.439-2.966 23.118.386.478.8.94 1.244 1.383z" fill="#b6c4cf"/><path d="m147.127 281.066-15.458 15.432-2.605 7.369-8.014 3.232-10.169 10.151-2.795 7.559-7.819 3.037-10.174 10.156-3.259 8.023-7.355 2.574-3.453 3.447c-6.21 6.2-6.62 15.99-1.24 22.67l82.35-83.65-1.451-7.168z" fill="#9facba"/><g><path d="m417.208 11.365.058.058c5.871 5.861 5.871 15.364 0 21.225l-69.726 69.612-11.607 9.589-19.319-19.284 79.331-80.2c5.871-5.862 15.391-6.862 21.263-1z" fill="#ffd163"/><path d="m395.949 11.368-80.33 80.2 8.705 12.5 12.605 8.78 10.61-10.59-8.567-8.567c-1.172-1.172-1.171-3.074.002-4.245l78.235-78.079c-5.87-5.869-15.39-5.869-21.26.001z" fill="#ffb65f"/></g><g><path d="m499.576 93.732.058.058c5.871 5.861 5.871 15.364 0 21.225l-69.726 69.612-11.607 9.589-19.319-19.284 79.331-80.2c5.871-5.862 15.391-6.862 21.263-1z" fill="#ffd163"/><path d="m478.317 93.736-80.33 80.2 8.55 14.132 12.76 7.148 10.61-10.59-8.567-8.567c-1.172-1.172-1.171-3.074.002-4.245l78.235-78.079c-5.87-5.869-15.39-5.869-21.26.001z" fill="#ffb65f"/></g><path d="m188.366 231.344 91.085 91.085c7.827 7.815 19.451 13.766 29.446 11.19 5.04-1.299 9.809-3.918 13.756-7.859l53.865-53.777c12.564-12.543 28.785-20.79 46.336-23.557l-74.148-83.679-84.186-74.403c-2.771 17.522-11.568 33.095-24.132 45.638l-52.021 52.793c-11.775 11.756-11.775 30.814-.001 42.569z" fill="#f8f7f7"/><path d="m262.957 88.796c-1.38 8.76-4.14 17.19-8.12 25-3.98 7.8-9.19 14.99-15.47 21.26l-53.87 53.78c-11.77 11.75-11.77 30.81 0 42.56l94.52 94.37c7.82 7.81 18.88 10.43 28.88 7.85l-112.8-112.83c-2.85-2.85-4.43-6.64-4.43-10.67s1.58-7.82 4.43-10.67l53.87-53.78c8.42-8.41 15.15-18.09 20.01-28.67l6.11-15.09-3.635-10.604z" fill="#e8e8e8"/><path d="m262.856 87.025 161.298 160.66c6.274 6.263 16.272 8.985 23.147 3.776.632-.479 1.238-1.006 1.815-1.581l.067-.067c6.849-6.838 6.849-17.925 0-24.763l-162.805-162.54c-.132-.131-.265-.26-.399-.387-6.876-6.45-16.915-5.551-23.633 1.157-6.85 6.839-6.34 16.907.51 23.745z" fill="#f8f7f7"/><path d="m285.977 62.126-7.866 7.853c-3.523 3.517-3.527 9.22-.003 12.735 31.528 31.446 169.189 168.742 169.189 168.742-6.87 5.21-16.72 4.68-22.99-1.58l-162.8-162.54c-.132-.131-.246-.273-.372-.407l-.007.007c-3.708-4.088-6.081-10.416-4.016-17.013.499-1.51 1.238-3.441 2.825-5.547.004.004.007.008.011.011.485-.637-.016.02 1.619-1.882 6.72-6.699 17.53-6.829 24.41-.379z" fill="#e8e8e8"/><path d="m260.503 350.269-81.381-81.248-18.879-16.848c-6.067-6.057-12.905-7.057-18.972-1l-.06.06c-6.067 6.057-6.067 15.876 0 21.933l15.929 17.898 81.332 81.199c6.067 6.057 15.905 6.057 21.972 0l.06-.06c6.066-6.058 6.066-15.877-.001-21.934z" fill="#f8f7f7"/><path d="m138.267 250.176-.06.06c-6.06 6.05-6.06 15.87 0 21.93l18.93 18.9 21.99-22.04-18.88-18.85c-6.07-6.06-15.91-6.06-21.98 0z" fill="#e8e8e8"/></g><path d="m505.411 89.547c-7.709-7.992-22.933-9.215-31.902 0l-74.87 74.992-50.422-50.504 34.089-34.145c2.927-2.931 2.923-7.681-.009-10.607-2.932-2.927-7.681-2.923-10.607.009l-34.071 34.127-10.688-10.705 74.888-75.01c2.248-2.15 6.869-3.427 10.67 0 2.951 2.956 2.951 7.766 0 10.723l-15.965 15.991c-2.927 2.931-2.923 7.681.009 10.607 2.931 2.926 7.68 2.922 10.607-.009l15.965-15.991c8.786-8.8 8.786-23.119 0-31.919-7.71-7.991-22.933-9.214-31.902 0l-74.87 74.992-24.493-24.532c-8.68-9.038-25.637-10.138-35.449 0-9.291 9.307-9.734 24.163-1.342 34.007-3.018 14.675-10.157 27.969-20.798 38.628l-53.781 53.869c-14.654 14.678-14.654 38.562 0 53.24l.386.386-11.397 11.416-2.852-2.857c-7.881-8.169-23.443-9.419-32.611 0-8.981 8.996-8.981 23.634 0 32.63l2.869 2.874-65.664 65.771c-9.569 9.584-9.569 25.178 0 34.762l13.082 13.103-77.704 77.703c-8.772 8.773-8.772 23.048 0 31.821 7.69 7.96 22.875 9.178 31.822 0l77.677-77.677 14.015 14.037c8.62 9.085 25.175 9.716 34.74 0 15.796-15.822 50.228-50.31 65.646-65.753l3.561 3.567c7.881 8.169 23.443 9.419 32.611 0 8.982-8.996 8.982-23.634 0-32.63l-2.869-2.874 11.406-11.425c13.401 13.682 38.601 14.486 52.839-.333l15.255-15.28c2.927-2.931 2.923-7.68-.009-10.607-2.931-2.927-7.681-2.923-10.607.009l-15.255 15.28c-7.726 8.007-22.969 9.233-31.956 0l-94.368-94.523c-8.82-8.834-8.82-23.21 0-32.044l53.781-53.869c10.422-10.439 18.035-22.992 22.434-36.833l76.008 76.132c2.927 2.932 7.676 2.936 10.607.009 2.932-2.927 2.936-7.676.009-10.607l-86.918-87.06c-3.929-3.936-3.929-10.34 0-14.276 2.996-2.852 9.043-4.588 14.218 0l162.484 162.75c3.929 3.936 3.929 10.34 0 14.276-2.996 2.852-9.043 4.588-14.218 0l-50.732-50.815c-2.927-2.932-7.676-2.935-10.607-.009-2.932 2.927-2.936 7.676-.009 10.607l39.848 39.912c-13.828 4.407-26.37 12.035-36.799 22.48l-13.693 13.717c-2.927 2.931-2.923 7.681.009 10.607 2.348 2.163 6.714 3.396 10.607-.009l13.692-13.714c10.635-10.652 23.898-17.799 38.537-20.824 8.819 7.985 24.791 8.029 33.98-1.352 9.764-9.78 9.764-25.693 0-35.472l-23.801-23.84 74.888-75.01c8.784-8.8 8.784-23.119-.001-31.919zm-316.44 306.324-72.418-72.536 10.156-10.172 72.418 72.536zm-20.754 20.788-72.418-72.536 10.156-10.172 72.418 72.536zm-140.423 77.654c-2.232 2.133-6.83 3.399-10.606 0-2.924-2.924-2.924-7.683 0-10.608l77.695-77.694 10.599 10.616zm119.668-60.828c-2.55 0-4.949-.996-6.754-2.803l-58.892-58.987c-3.734-3.74-3.734-9.826 0-13.566l3.384-3.389 72.418 72.536-3.401 3.407c-1.805 1.806-4.204 2.802-6.755 2.802zm108.574-64.989c-2.397 2.292-7.326 3.655-11.38 0l-46.829-46.906c-2.927-2.931-7.676-2.936-10.607-.009-2.932 2.927-2.936 7.676-.009 10.607l32.67 32.723-10.156 10.172-72.418-72.536 10.156-10.172 14.914 14.938c2.927 2.932 7.676 2.936 10.607.009 2.932-2.926 2.936-7.676.009-10.607l-28.381-28.428c-3.147-3.152-3.147-8.281 0-11.434 2.397-2.293 7.326-3.655 11.38 0l100.044 100.209c3.147 3.153 3.147 8.281 0 11.434zm-75.979-108.768 11.397-11.416 73.127 73.247-11.397 11.416zm314.738-148.86-74.87 74.992-10.688-10.705 74.888-75.01c2.248-2.15 6.868-3.428 10.67 0 2.951 2.956 2.951 7.767 0 10.723z"/></g></svg>