<svg id="Capa_1" enable-background="new 0 0 512 512" height="512" viewBox="0 0 512 512" width="512" xmlns="http://www.w3.org/2000/svg"><g><g><path d="m472.486 502.376-439.037.56c-13.807 0-25-11.193-25-25v-443.78c0-11.009 6.166-22.012 16.05-25.348 2.512-.848 5.203-1.308 8.001-1.308h447c13.807 0 25 11.193 25 25v447c0 2.798-.46 5.489-1.308 8.001-3.336 9.883-19.697 14.875-30.706 14.875z" fill="#f8f7f7"/><path d="m503.19 487.5c-3.33 9.89-12.68 17-23.69 17h-447c-13.81 0-25-11.19-25-25v-447c0-11.01 7.11-20.36 17-23.69v467.69c0 6.08 4.92 11 11 11z" fill="#e8e8e8"/><path d="m418.982 434.945-327.11-.083c-8.284 0-15-6.716-15-15l.523-327.33c0-8.284 5.428-16.426 13.712-16.426h329.787c8.284 0 15 6.716 15 15v329.787c0 8.285-8.628 14.052-16.912 14.052z" fill="#e8e8e8"/><path d="m435.89 420.89c0 8.29-6.71 15-15 15h-329.78c-8.284 0-15-6.716-15-15v-329.78c0-8.29 6.71-15 15-15v337.78c0 3.866 3.134 7 7 7z" fill="#d8d8d8"/><path d="m166 376c-16.542 0-30-13.458-30-30v-180c0-16.542 13.458-30 30-30h180c16.542 0 30 13.458 30 30v180c0 16.542-13.458 30-30 30z" fill="#d8d8d8"/><path d="m346 361h-180c-8.284 0-15-6.716-15-15v-180c0-8.284 6.716-15 15-15h180c8.284 0 15 6.716 15 15v180c0 8.284-6.716 15-15 15z" fill="#f8f7f7"/><g><path d="m328 239.529h-16.471c-1.657 0-3-1.343-3-3v-16.941c0-1.657-1.343-3-3-3h-13.029c-1.657 0-3-1.343-3-3v-16.941c0-1.657-1.343-3-3-3h-61c-1.657 0-3 1.343-3 3v16.941c0 1.657-1.343 3-3 3h-13.029c-1.657 0-3 1.343-3 3v16.941c0 1.657-1.343 3-3 3h-4.471l-11 1c-1.657 0-3 1.343-3 3v70.823c0 1.657 1.343 3 3 3h142c1.657 0 3-1.343 3-3l1-11.003v-60.821c0-1.655-1.343-2.999-3-2.999z" fill="#b6c4cf"/><path d="m331 303.35v12c0 1.657-1.343 3-3 3h-19.5l-7-2.359-8 2.359h-15l-5.771-2.359-9.229 2.359h-15l-6.376-2.359-8.624 2.359h-15l-7-2.359-8 2.359h-19.5c-1.657 0-3-1.343-3-3v-72.82c0-1.657 1.343-3 3-3h12v60.82c0 1.657 1.343 3 3 3z" fill="#9facba"/></g></g><g><path d="m347.191 497h-314.691c-9.649 0-17.5-7.851-17.5-17.5v-447c0-9.649 7.851-17.5 17.5-17.5h126.5c4.142 0 7.5-3.357 7.5-7.5s-3.358-7.5-7.5-7.5h-126.5c-17.92 0-32.5 14.579-32.5 32.5v447c0 17.921 14.58 32.5 32.5 32.5h314.691c4.143 0 7.5-3.357 7.5-7.5s-3.357-7.5-7.5-7.5z"/><path d="m479.5 0h-285.5c-4.142 0-7.5 3.357-7.5 7.5s3.358 7.5 7.5 7.5h285.5c9.649 0 17.5 7.851 17.5 17.5v447c0 9.649-7.851 17.5-17.5 17.5h-97.309c-4.143 0-7.5 3.357-7.5 7.5s3.357 7.5 7.5 7.5h97.309c17.921 0 32.5-14.579 32.5-32.5v-447c0-17.921-14.579-32.5-32.5-32.5z"/><path d="m76.106 353.5c-4.142 0-7.5 3.357-7.5 7.5v59.894c0 12.406 10.093 22.5 22.5 22.5h329.787c12.406 0 22.5-10.094 22.5-22.5v-329.788c0-12.406-10.094-22.5-22.5-22.5h-329.787c-12.407 0-22.5 10.094-22.5 22.5v234.894c0 4.143 3.358 7.5 7.5 7.5s7.5-3.357 7.5-7.5v-234.894c0-4.136 3.364-7.5 7.5-7.5h329.787c4.136 0 7.5 3.364 7.5 7.5v329.787c0 4.136-3.364 7.5-7.5 7.5h-329.787c-4.136 0-7.5-3.364-7.5-7.5v-59.893c0-4.143-3.357-7.5-7.5-7.5z"/><path d="m361 208.628c4.143 0 7.5-3.357 7.5-7.5v-35.128c0-12.406-10.094-22.5-22.5-22.5h-180c-12.407 0-22.5 10.094-22.5 22.5v180c0 12.406 10.093 22.5 22.5 22.5h180c12.406 0 22.5-10.094 22.5-22.5v-109.872c0-4.143-3.357-7.5-7.5-7.5s-7.5 3.357-7.5 7.5v109.872c0 4.136-3.364 7.5-7.5 7.5h-180c-4.136 0-7.5-3.364-7.5-7.5v-180c0-4.136 3.364-7.5 7.5-7.5h180c4.136 0 7.5 3.364 7.5 7.5v35.128c0 4.143 3.357 7.5 7.5 7.5z"/><path d="m286.5 186.147h-61c-5.79 0-10.5 4.71-10.5 10.5v12.44h-8.529c-5.79 0-10.5 4.71-10.5 10.5v12.441h-11.971c-5.79 0-10.5 4.71-10.5 10.5v72.823c0 5.79 4.71 10.5 10.5 10.5h144c5.79 0 10.5-4.71 10.5-10.5v-72.823c0-5.79-4.71-10.5-10.5-10.5h-11.971v-12.441c0-5.79-4.71-10.5-10.5-10.5h-8.529v-12.44c0-5.79-4.71-10.5-10.5-10.5zm14.529 37.941v12.441c0 5.79 4.71 10.5 10.5 10.5h11.971v63.823h-15v-26.205c0-4.143-3.357-7.5-7.5-7.5s-7.5 3.357-7.5 7.5v26.205h-15v-26.205c0-4.143-3.357-7.5-7.5-7.5s-7.5 3.357-7.5 7.5v26.205h-15v-26.205c0-4.143-3.358-7.5-7.5-7.5s-7.5 3.357-7.5 7.5v26.205h-15v-26.205c0-4.143-3.358-7.5-7.5-7.5s-7.5 3.357-7.5 7.5v26.205h-15v-63.823h11.971c5.79 0 10.5-4.71 10.5-10.5v-12.441h8.529c5.79 0 10.5-4.71 10.5-10.5v-12.44h52v12.44c0 5.79 4.71 10.5 10.5 10.5z"/></g></g></svg>