<svg id="Capa_1" enable-background="new 0 0 512 512" height="512" viewBox="0 0 512 512" width="512" xmlns="http://www.w3.org/2000/svg"><g><g><path d="m414 165.5c0-87.261-70.739-158-158-158-17.836 0-34.982 2.955-50.974 8.403-27.684 9.431-49.875 26.782-68.246 48.748-22.936 27.426-35.89 61.552-35.89 100.101 0 7.959-.335 17.197 1.431 26.503 7.445 39.222 28.668 75.29 57.468 102.937 24.242 23.271 52.514 55.701 52.514 79.307l41.174 2.821 49.023-2.82c0-23.604 28.282-55.811 52.523-79.081 28.803-27.649 48.647-63.39 56.091-102.616 1.765-9.305 2.886-18.345 2.886-26.303z" fill="#ffd163"/><g><path d="m328.05 252.887-9.077-17.709c-.661-1.286-.383-2.837.657-3.854 6.701-6.498 12.219-13.83 16.533-21.679.686-1.267 2.109-1.952 3.51-1.666l19.927 4.022c1.764.36 3.482-.781 3.843-2.546l8.605-42.624c.36-1.764-.781-3.482-2.546-3.843l-19.788-3.995c-1.416-.287-2.454-1.478-2.598-2.925-.865-8.934-3.037-17.777-6.527-26.245-.551-1.326-.198-2.849.905-3.775l15.727-13.196c1.379-1.157 1.559-3.214.395-4.6l-27.946-33.307c-1.157-1.379-3.214-1.559-4.593-.402l-15.466 12.978c-1.111.932-2.693 1.007-3.908.212-7.683-5.002-15.977-8.773-24.602-11.273-1.378-.397-2.356-1.626-2.387-3.062l-.511-20.523c-.048-1.8-1.542-3.223-3.342-3.174l-43.471 1.087c-1.792.042-3.223 1.542-3.174 3.342l.494 19.989c.036 1.458-.9 2.739-2.281 3.193-8.527 2.782-16.739 6.84-24.365 12.221-.598.422-1.298.627-1.991.61-.666-.016-1.85.365-2.411-.06l-15.798-11.962c-1.438-1.091-3.485-.809-4.569.622l-24.967 33.633c-1.083 1.431-.801 3.479.637 4.57l15.744 11.918c1.151.874 1.571 2.402 1.061 3.77-3.206 8.656-5.423 18.693-5.962 27.852-.082 1.427-1.055 2.648-2.442 3.002l-19.413 4.945c-1.756.443-2.807 2.225-2.363 3.967l10.566 40.49c.444 1.742 2.218 2.799 3.96 2.355l18.97-4.835c1.379-.348 2.841.227 3.578 1.449 2.448 4.068 5.185 8.342 8.335 12.095 2.893 3.447 6.525 7.058 9.798 9.963 1.072.967 1.428 2.496.831 3.806l-8.182 18.144c-.747 1.645-.015 3.576 1.624 4.316l38.314 17c1.639.74 3.57.007 4.317-1.638l7.848-17.022c.137-.304.793-.535 1.004-.774.71-.802 1.787-1.213 2.896-1.077 9.104 1.173 18.36 1.003 27.461-.55 1.419-.238 2.822.438 3.483 1.724l9.163 17.858c.825 1.605 2.786 2.231 4.39 1.42l38.696-19.847c1.599-.818 2.233-2.785 1.408-4.39zm-111.087-55.708c-17.722-21.12-14.957-52.72 6.163-70.442s52.72-14.957 70.442 6.163 14.957 52.72-6.163 70.442c-21.121 17.722-52.721 14.957-70.442-6.163z" fill="#f8f7f7"/><path d="m227.608 278.163-39.64-17.884c-1.639-.74-2.371-2.671-1.624-4.316l8.182-18.144c.597-1.31.241-2.839-.831-3.806-3.274-2.906-6.375-6.073-9.268-9.52-3.15-3.754-5.927-7.702-8.375-11.77-.738-1.222-2.199-1.797-3.578-1.449l-18.97 4.835c-1.742.444-3.517-.613-3.96-2.355l-10.737-42.137c-.444-1.742.606-3.524 2.363-3.967l19.413-4.945c1.387-.354 2.36-1.575 2.442-3.002.539-9.159 2.432-18.228 5.639-26.884.51-1.368.09-2.895-1.061-3.77l-15.744-11.918c-1.438-1.091-1.72-3.139-.637-4.57l26.258-34.669c1.084-1.431 3.131-1.714 4.569-.622l16.137 12.215c.566.426 1.215.639 1.887.662-29.341 41.434-28.37 98.971 5.8 139.694 9.944 11.851 21.777 21.176 34.688 27.914-.219.236-.399.504-.533.812l-8.101 17.959c-.749 1.644-2.68 2.376-4.319 1.637z" fill="#e8e8e8"/></g><path d="m291.9 469.468-2.081 21.034-1.304 5.819c-.878 4.74-5.012 8.179-9.833 8.179h-39.852l-4.512-1c-4.821 0-8.955-3.439-9.833-8.179l-5.783-24.576z" fill="#b6c4cf"/><path d="m222.692 367.411c-1.305-8.384-3.863-16.542-7.791-24.062-8.953-17.139-24.952-36.694-48.231-59.039-27.18-26.09-45.17-58.98-52.03-95.11-1.75-9.24-2.64-17.21-2.64-23.7 0-4.893.107-9.982.329-15.184 3.918-61.58 43.111-113.581 97.601-135.986-38.022 11.567-69.96 37.093-89.865 70.604-14.036 23.973-22.706 51.987-22.015 83.586 0 0 .001 0 .001-.001.238 7.194 1.289 15.139 2.839 23.291 7.44 39.22 27.28 74.96 56.08 102.6 24.24 23.27 52.53 55.48 52.53 79.09l7.427 1.06 6.713-1.06z" fill="#ffb65f"/><g><g><path d="m58.312 283.752c0 11.046 8.055 18.826 19.101 18.826 8.654 0 16.112-4.575 18.898-12.268.77-2.126 1.189-4.419 1.189-6.81 0-11.046-8.954-20-20-20-2.391 0-4.685.42-6.81 1.189-7.693 2.786-12.378 10.409-12.378 19.063z" fill="#ffd163"/><path d="m96.31 290.31c-2.79 7.7-10.15 13.19-18.81 13.19-11.05 0-20-8.95-20-20 0-8.66 5.49-16.02 13.19-18.81-.77 2.12-1.19 4.42-1.19 6.81 0 11.05 8.95 20 20 20 2.39 0 4.69-.42 6.81-1.19z" fill="#ffb65f"/></g><g><path d="m415.312 283.752c0 11.046 8.055 18.826 19.101 18.826 8.654 0 16.112-4.575 18.898-12.268.77-2.126 1.189-4.419 1.189-6.81 0-11.046-8.954-20-20-20-2.391 0-4.685.42-6.81 1.189-7.693 2.786-12.378 10.409-12.378 19.063z" fill="#ffd163"/><path d="m453.31 290.31c-2.79 7.7-10.15 13.19-18.81 13.19-11.05 0-20-8.95-20-20 0-8.66 5.49-16.02 13.19-18.81-.77 2.12-1.19 4.42-1.19 6.81 0 11.05 8.95 20 20 20 2.39 0 4.69-.42 6.81-1.19z" fill="#ffb65f"/></g><g><path d="m58.312 47.752c0 11.046 8.055 18.826 19.101 18.826 8.654 0 16.112-4.575 18.898-12.268.77-2.126 1.189-4.419 1.189-6.81 0-11.046-8.954-20-20-20-2.391 0-4.685.42-6.81 1.189-7.693 2.786-12.378 10.409-12.378 19.063z" fill="#ffd163"/><path d="m96.31 54.31c-2.79 7.7-10.15 13.19-18.81 13.19-11.05 0-20-8.95-20-20 0-8.66 5.49-16.02 13.19-18.81-.77 2.12-1.19 4.42-1.19 6.81 0 11.05 8.95 20 20 20 2.39 0 4.69-.42 6.81-1.19z" fill="#ffb65f"/></g><g><path d="m415.312 47.752c0 11.046 8.055 18.826 19.101 18.826 8.654 0 16.112-4.575 18.898-12.268.77-2.126 1.189-4.419 1.189-6.81 0-11.046-8.954-20-20-20-2.391 0-4.685.42-6.81 1.189-7.693 2.786-12.378 10.409-12.378 19.063z" fill="#ffd163"/><path d="m453.31 54.31c-2.79 7.7-10.15 13.19-18.81 13.19-11.05 0-20-8.95-20-20 0-8.66 5.49-16.02 13.19-18.81-.77 2.12-1.19 4.42-1.19 6.81 0 11.05 8.95 20 20 20 2.39 0 4.69-.42 6.81-1.19z" fill="#ffb65f"/></g><g><path d="m504.5 165.5c0 4.165-.934 8.112-2.605 11.642-4.366 9.226-13.585 14.113-24.469 14.113-15.05 0-25.702-10.706-25.702-25.755 0-10.885 4.658-20.279 13.884-24.645 3.53-1.671 7.477-2.605 11.642-2.605 15.05 0 27.25 12.2 27.25 27.25z" fill="#ffd163"/><path d="m501.89 177.14c-4.36 9.23-13.76 15.61-24.64 15.61-15.05 0-27.25-12.2-27.25-27.25 0-10.89 6.38-20.28 15.61-24.64-1.68 3.53-2.61 7.48-2.61 11.64 0 15.05 12.2 27.25 27.25 27.25 4.17 0 8.11-.93 11.64-2.61z" fill="#ffb65f"/></g><g><path d="m62 165.5c0 4.165-.934 8.112-2.605 11.642-4.366 9.226-13.585 14.113-24.469 14.113-15.05 0-25.702-10.706-25.702-25.755 0-10.885 4.658-20.279 13.884-24.645 3.53-1.671 7.477-2.605 11.642-2.605 15.05 0 27.25 12.2 27.25 27.25z" fill="#ffd163"/><path d="m59.39 177.14c-4.36 9.23-13.76 15.61-24.64 15.61-15.05 0-27.25-12.2-27.25-27.25 0-10.89 6.38-20.28 15.61-24.64-1.68 3.53-2.61 7.48-2.61 11.64 0 15.05 12.2 27.25 27.25 27.25 4.17 0 8.11-.93 11.64-2.61z" fill="#ffb65f"/></g></g><path d="m294.53 469.47-75.83 1.27 4.79 25.58c.87 4.74 5.01 8.18 9.83 8.18h5.51l-1.949-10.45c-.344-1.845 1.072-3.55 2.949-3.55h49.98z" fill="#9facba"/><path d="m317.5 387.5v70c0 11.046-8.954 20-20 20h-73.85l-8.075-.702c-11.046 0-20-8.954-20-20l-.5-67.596c0-7.732 6.268-14 14-14l14.565-1.702h79.86c7.732 0 14 6.268 14 14z" fill="#f8f7f7"/><path d="m223.65 373.5v104h-9.15c-11.05 0-20-8.95-20-20v-70c0-7.73 6.27-14 14-14z" fill="#e8e8e8"/></g><g><path d="m421.5 165.5c0-91.257-74.243-165.5-165.5-165.5-46.544 0-91.201 19.769-122.521 54.237-2.785 3.065-2.559 7.81.507 10.595s7.81 2.559 10.595-.507c28.482-31.346 69.094-49.325 111.419-49.325 82.986 0 150.5 67.514 150.5 150.5-1.177 47.641-25.39 95.776-61.779 128.476-2.95 2.907-2.984 7.656-.077 10.606 2.316 2.171 6.705 3.454 10.606.077 39.106-35.196 64.951-87.057 66.25-139.159z"/><path d="m330.883 319.299c-3.198-2.63-7.926-2.172-10.557 1.027-14.548 17.687-22.692 32.704-24.771 45.674h-79.091c-3.165-19.968-20.636-44.684-54.297-76.997-28.156-27.029-46.799-61.123-53.911-98.595-6.953-34.088-.013-68.634 16.548-98.705 2.034-3.608.759-8.183-2.85-10.217-3.607-2.035-8.183-.758-10.217 2.85-18.292 33.203-25.733 70.223-18.218 108.869 7.696 40.551 27.843 77.419 58.261 106.618 29.887 28.691 46.55 51.313 49.671 67.388-8.399 2.927-14.451 10.905-14.451 20.289v70c0 14.914 11.937 27.085 26.758 27.481l2.353 12.706c1.537 8.293 8.773 14.312 17.208 14.312h45.363c8.435 0 15.671-6.02 17.208-14.313l2.353-12.705c14.82-.396 26.757-12.567 26.757-27.481v-70c0-9.375-6.04-17.345-14.426-20.28 1.59-7.858 6.94-19.864 21.336-37.365 2.632-3.199 2.172-7.925-1.027-10.556zm-128.883 124.701v-11h23.015c4.143 0 7.5-3.357 7.5-7.5s-3.357-7.5-7.5-7.5h-23.015v-11h108v11h-49.819c-4.143 0-7.5 3.357-7.5 7.5s3.357 7.5 7.5 7.5h49.819v11zm108-52h-108v-4.5c0-3.584 2.916-6.5 6.5-6.5h95c3.584 0 6.5 2.916 6.5 6.5zm-31.318 105h-45.363c-1.205 0-2.239-.86-2.458-2.044l-1.844-9.956h53.967l-1.844 9.955c-.219 1.185-1.253 2.045-2.458 2.045zm18.818-27h-83c-6.384 0-11.656-4.813-12.401-11h107.802c-.745 6.187-6.017 11-12.401 11z"/><path d="m288.536 117.898c-24.418-17.63-62.87-11.302-79.917 14.845-13.904 19.734-13.519 48.913 2.514 68.487 2.596 3.229 7.313 3.74 10.545 1.148 3.229-2.595 3.742-7.315 1.148-10.545-11.058-13.297-12.687-35.379-1.842-50.6 12.115-18.476 40.038-24.534 59.061-10.971 18.476 12.114 24.533 40.04 10.971 59.061-9.139 13.334-25.597 20.681-42.56 17.783-4.069-.744-7.98 1.963-8.72 6.038-.74 4.076 1.963 7.979 6.038 8.72 20.458 4.15 45.499-5.438 57.606-24.05 17.633-24.419 11.302-62.867-14.844-79.916z"/><path d="m357.293 222.054c4.648 1.247 11.512-1.528 12.885-8.099l9.669-42.391c1.337-5.078-1.525-11.515-8.098-12.888l-16.39-3.738c-.81-7.781-2.529-15.416-5.128-22.774l13.488-10.76c4.639-3.699 5.403-10.483 1.703-15.123l-27.115-33.991c-3.699-4.637-10.485-5.402-15.123-1.703l-13.363 10.66c-6.516-4.181-13.478-7.581-20.765-10.142v-17.473c0-5.934-4.828-10.761-10.762-10.761h-43.481c-5.934 0-10.762 4.827-10.762 10.761v17.096c-7.316 2.478-14.321 5.801-20.893 9.915l-13.66-10.893c-4.641-3.701-11.423-2.935-15.124 1.704l-27.108 33.996c-3.7 4.639-2.936 11.423 1.704 15.123l13.208 10.532c-2.684 7.329-4.49 14.942-5.388 22.705l-16.761 3.826c-4.886 1.378-9.635 5.492-8.098 12.887l9.677 42.39c1.319 5.785 7.104 9.425 12.886 8.098l16.228-3.704c4.103 6.715 8.979 12.919 14.543 18.506l-7.366 15.299c-2.574 5.347-.318 11.791 5.027 14.364l39.178 18.863c5.348 2.575 11.79.317 14.364-5.028l7.146-14.84c7.905.997 15.737 1.046 23.67.135l7.309 15.172c2.238 4.562 7.163 7.933 14.366 5.026l39.174-18.87c5.345-2.574 7.6-9.019 5.024-14.364l-7.211-14.969c5.64-5.532 10.588-11.678 14.761-18.331zm-27.937-13.996c-4.256 7.278-9.585 13.895-15.839 19.664-3.517 3.246-4.493 8.309-2.428 12.603l6.713 13.936-31.536 15.19-6.801-14.117c-1.817-3.772-5.587-6.086-9.689-6.086-7.543.923-17.559 1.555-26.99-.044-4.63-.732-9.298 1.717-11.343 5.966l-6.652 13.815-31.539-15.186 6.853-14.23c2.04-4.238 1.102-9.267-2.336-12.515-6.167-5.825-11.415-12.506-15.596-19.854-2.378-4.182-7.111-6.274-11.766-5.207l-15.118 3.45-7.791-34.126 15.608-3.562c4.579-1.048 7.925-4.913 8.324-9.622.708-8.376 2.654-16.568 5.784-24.349 1.8-4.47.492-9.48-3.256-12.47l-12.323-9.827 21.825-27.367 12.73 10.151c3.679 2.938 8.796 3.142 12.73.509 6.946-4.651 14.503-8.236 22.46-10.654 4.588-1.395 7.67-5.535 7.67-10.304v-15.951h35.005v16.292c0 4.711 3.034 8.836 7.548 10.266 7.93 2.513 15.439 6.183 22.322 10.908 3.949 2.712 9.105 2.536 12.832-.436l12.466-9.944 21.829 27.364-12.576 10.032c-3.699 2.951-5.025 7.913-3.301 12.345 3.037 7.814 4.887 16.033 5.497 24.431.349 4.771 3.699 8.688 8.338 9.747l15.27 3.482-7.784 34.128-15.438-3.521c-4.602-1.05-9.306.995-11.702 5.093z"/><path d="m434.5 75c15.163 0 27.5-12.337 27.5-27.5s-12.337-27.5-27.5-27.5-27.5 12.337-27.5 27.5 12.337 27.5 27.5 27.5zm0-40c6.893 0 12.5 5.607 12.5 12.5s-5.607 12.5-12.5 12.5-12.5-5.607-12.5-12.5 5.607-12.5 12.5-12.5z"/><path d="m434.5 256c-15.163 0-27.5 12.337-27.5 27.5s12.337 27.5 27.5 27.5 27.5-12.337 27.5-27.5-12.337-27.5-27.5-27.5zm0 40c-6.893 0-12.5-5.607-12.5-12.5s5.607-12.5 12.5-12.5 12.5 5.607 12.5 12.5-5.607 12.5-12.5 12.5z"/><path d="m477.25 130.75c-19.161 0-34.75 15.589-34.75 34.75s15.589 34.75 34.75 34.75 34.75-15.589 34.75-34.75-15.589-34.75-34.75-34.75zm0 54.5c-10.891 0-19.75-8.859-19.75-19.75s8.859-19.75 19.75-19.75 19.75 8.859 19.75 19.75-8.859 19.75-19.75 19.75z"/><path d="m77.5 75c15.163 0 27.5-12.337 27.5-27.5s-12.337-27.5-27.5-27.5-27.5 12.337-27.5 27.5 12.337 27.5 27.5 27.5zm0-40c6.893 0 12.5 5.607 12.5 12.5s-5.607 12.5-12.5 12.5-12.5-5.607-12.5-12.5 5.607-12.5 12.5-12.5z"/><path d="m77.5 256c-15.163 0-27.5 12.337-27.5 27.5s12.337 27.5 27.5 27.5 27.5-12.337 27.5-27.5-12.337-27.5-27.5-27.5zm0 40c-6.893 0-12.5-5.607-12.5-12.5s5.607-12.5 12.5-12.5 12.5 5.607 12.5 12.5-5.607 12.5-12.5 12.5z"/><path d="m69.5 165.5c0-19.161-15.589-34.75-34.75-34.75s-34.75 15.589-34.75 34.75 15.589 34.75 34.75 34.75 34.75-15.589 34.75-34.75zm-34.75 19.75c-10.891 0-19.75-8.859-19.75-19.75s8.859-19.75 19.75-19.75 19.75 8.859 19.75 19.75-8.859 19.75-19.75 19.75z"/></g></g></svg>