<svg id="Capa_1" enable-background="new 0 0 512 512" height="512" viewBox="0 0 512 512" width="512" xmlns="http://www.w3.org/2000/svg"><g><g><path d="m331.664 469.411h-151.328c-5.781 0-10.55-1.468-15.74-3.035-24.56-7.418-42.275-30.442-42.275-57.798l-.643-143.135 135.454-5.709 134.532 5.766v143.911c0 33.137-26.863 60-60 60z" fill="#b6c4cf"/><path d="m196.34 469.41h-16c-33.14 0-60-26.86-60-60v-143.91l7.155-2 8.845 2v143.91c0 33.14 26.86 60 60 60z" fill="#9facba"/><path d="m395.5 264.5h-279c-5.523 0-10-4.477-10-10v-19l147.491-4.5 152.509 4.5v15l-1 4c0 5.523-4.477 10-10 10z" fill="#b2e5fb"/><path d="m406.5 250.5v5c0 5.52-4.48 10-10 10h-281c-5.52 0-10-4.48-10-10v-20l7.133-4.5 7.867 4.5v9c0 3.31 2.69 6 6 6z" fill="#98e0f9"/><path d="m362.422 398.078c0-58.775-47.647-106.422-106.422-106.422-27.284 0-52.17 10.268-71.005 27.15-21.739 19.485-35.417 47.781-35.417 79.272 0 58.775 47.647 106.422 106.422 106.422 29.957 0 57.022-12.377 76.362-32.297 18.605-19.163 30.06-45.307 30.06-74.125z" fill="#9facba"/><path d="m336.98 467.12c-19.51 22.87-48.55 37.38-80.98 37.38-58.78 0-106.42-47.65-106.42-106.42 0-32.45 14.52-61.5 37.41-81.01-15.85 18.58-25.41 42.68-25.41 69.01 0 58.77 47.64 106.42 106.42 106.42 26.32 0 50.41-9.55 68.98-25.38z" fill="#8d9ca8"/><g><circle cx="302.769" cy="398.078" fill="#98e0f9" r="32.653"/><circle cx="209.231" cy="398.078" fill="#7a8c98" r="32.653"/></g><circle cx="256" cy="454.411" fill="#8d9ca8" r="15"/><g><path d="m220 32.5.468-20.307c0-2.209 1.791-4 4-4l8.532-.693h55c2.209 0 4 1.791 4 4v8l-1.018 13z" fill="#e8e8e8"/></g><g><path d="m292 19.5v13l-36 1.821-36-1.821v-21c0-2.209 1.791-4 4-4h9v9c0 1.657 1.343 3 3 3z" fill="#d8d8d8"/></g><path d="m89.851 217.749c5.239-71.843 62.195-115.667 62.195-115.667s42.842-35.924 52.156-61.94c1.557-4.349 5.706-7.224 10.325-7.224l6.673-.418h76.867c4.619 0 8.768 2.874 10.325 7.224 6.689 18.685 30.692 42.395 43.689 54.275l4.845 8.415 12.059 6.592c16.398 15.795 51.431 55.583 55.427 110.382.027.374.041.745.041 1.113-.001 8.208-9.088 12.922-17.435 12.922l-302.202.44c-8.721-.001-15.599-7.416-14.965-16.114z" fill="#f8f7f7"/><path d="m424.45 220.5c.01 8.21-6.65 15-15 15h-306.9c-8.72 0-15.6-7.41-14.96-16.11 3.997-54.804 39.027-94.593 55.423-110.387l10.133-6.481 6.77-8.526c12.998-11.881 37-35.59 43.693-54.277 1.55-4.35 5.7-7.22 10.32-7.22h7.27l-2.179 7.607c-2.705 9.444-6.881 18.419-12.528 26.457-16.365 23.298-42.176 45.172-45.833 48.226l-.18.15-.18.14c-.511.395-48.796 38.991-56.926 98.582-.493 3.612 2.303 6.838 5.949 6.838h315.128z" fill="#e8e8e8"/></g><g><path d="m431.894 218.841c-.603-8.259-1.915-16.595-3.902-24.774-.978-4.024-5.031-6.496-9.059-5.518-4.024.978-6.495 5.033-5.518 9.059 1.792 7.377 2.976 14.889 3.518 22.324.154 2.11-.555 4.126-1.994 5.675-1.436 1.544-3.386 2.394-5.491 2.394h-98.224-110.448-98.224c-2.105 0-4.056-.85-5.491-2.394-1.439-1.549-2.148-3.564-1.994-5.674 4.404-60.395 49.232-102.399 59.074-110.933h65.859c4.143 0 7.5-3.357 7.5-7.5s-3.357-7.5-7.5-7.5h-49.086c13.889-13.281 33.467-34.182 39.755-51.749.481-1.347 1.793-2.251 3.264-2.251h84.135c1.471 0 2.782.904 3.264 2.251 6.288 17.567 25.866 38.468 39.754 51.749h-86.086c-4.143 0-7.5 3.357-7.5 7.5s3.357 7.5 7.5 7.5h102.863c6.598 5.704 28.848 26.336 44.085 57.281 1.83 3.715 6.324 5.243 10.042 3.415 3.716-1.83 5.245-6.325 3.415-10.042-19.184-38.959-47.857-62.205-50.086-63.975-11.553-9.653-42.815-38.789-49.865-58.483-2.45-6.844-8.752-11.581-15.954-12.14v-17.556c0-4.143-3.357-7.5-7.5-7.5s-7.5 3.357-7.5 7.5v17.5h-57v-17.5c0-4.143-3.357-7.5-7.5-7.5s-7.5 3.357-7.5 7.5v17.556c-7.202.559-13.504 5.296-15.954 12.14-7.05 19.692-38.309 48.827-49.863 58.482-3.616 2.866-61.214 49.64-66.576 123.163-.453 6.222 1.723 12.41 5.97 16.979 3.195 3.435 7.388 5.766 11.924 6.709v12.97c0 8.741 6.45 15.985 14.836 17.275v136.636c-.09 34.16 26.181 63.859 60.642 67.126 20.767 21.834 50.082 35.464 82.521 35.464 32.425 0 61.729-13.618 82.495-35.434 34.079-3.338 60.787-32.398 60.669-67.155v-30.864c0-4.143-3.357-7.5-7.5-7.5s-7.5 3.357-7.5 7.5v30.864c0 21.243-12.502 39.648-30.882 47.892 10.552-17.269 16.64-37.549 16.64-59.225.223-65.963-56.965-118.888-122.905-113.573-4.13.323-7.215 3.934-6.893 8.062.323 4.129 3.953 7.222 8.062 6.893 56.824-4.831 107.025 41.386 106.735 98.618.001 54.546-44.375 98.922-98.921 98.922s-98.922-44.376-98.922-98.922c0-39.409 23.355-75.034 59.5-90.757 3.798-1.653 5.537-6.071 3.885-9.87s-6.068-5.54-9.869-3.885c-41.621 18.105-68.516 59.129-68.516 104.512 0 21.666 6.081 41.937 16.624 59.2-18.357-8.268-30.866-26.694-30.866-47.867v-136.411h256.328v69.417c0 4.143 3.357 7.5 7.5 7.5s7.5-3.357 7.5-7.5v-69.642c8.386-1.29 14.836-8.534 14.836-17.275v-12.97c4.536-.943 8.729-3.274 11.924-6.709 4.247-4.569 6.423-10.758 5.97-16.98zm-32.894 36.659c0 1.379-1.121 2.5-2.5 2.5h-281c-1.379 0-2.5-1.121-2.5-2.5v-12.5h87.776 110.447 87.777z"/><path d="m209.23 357.925c-22.14 0-40.152 18.013-40.152 40.153s18.013 40.152 40.152 40.152 40.152-18.013 40.152-40.152c.001-22.14-18.012-40.153-40.152-40.153zm0 65.305c-13.869 0-25.152-11.283-25.152-25.152s11.283-25.153 25.152-25.153 25.152 11.284 25.152 25.153-11.282 25.152-25.152 25.152z"/><path d="m302.77 438.23c22.14 0 40.152-18.013 40.152-40.152 0-22.141-18.013-40.153-40.152-40.153s-40.152 18.013-40.152 40.153c-.001 22.14 18.012 40.152 40.152 40.152zm0-65.305c13.869 0 25.152 11.284 25.152 25.153s-11.283 25.152-25.152 25.152-25.152-11.283-25.152-25.152 11.282-25.153 25.152-25.153z"/><path d="m233.5 454.411c0 12.406 10.094 22.5 22.5 22.5s22.5-10.094 22.5-22.5-10.094-22.5-22.5-22.5-22.5 10.094-22.5 22.5zm30 0c0 4.136-3.364 7.5-7.5 7.5s-7.5-3.364-7.5-7.5 3.364-7.5 7.5-7.5 7.5 3.364 7.5 7.5z"/><path d="m193.276 204.719c0 4.143 3.357 7.5 7.5 7.5h110.447c4.143 0 7.5-3.357 7.5-7.5s-3.357-7.5-7.5-7.5h-110.447c-4.142 0-7.5 3.357-7.5 7.5z"/><path d="m281.224 181.438c4.143 0 7.5-3.357 7.5-7.5s-3.357-7.5-7.5-7.5h-50.447c-4.143 0-7.5 3.357-7.5 7.5s3.357 7.5 7.5 7.5z"/><circle cx="302.77" cy="398.078" r="7.501"/></g></g></svg>