<svg id="Capa_1" enable-background="new 0 0 512 512" height="512" viewBox="0 0 512 512" width="512" xmlns="http://www.w3.org/2000/svg"><g><g><circle cx="256" cy="256" fill="#f8f7f7" r="145"/><path d="m149 101.275v-83.775c0-5.523-4.477-10-10-10h-106c-5.523 0-10 4.477-10 10v83.775z" fill="#f8f7f7"/><path d="m149 81.28v20h-126v-83.78c0-5.523 4.477-10 10-10h10v69.78c0 2.209 1.791 4 4 4z" fill="#e8e8e8"/><path d="m158.998 107.703c-3.987 7.851-12.046 12.797-20.851 12.797h-.147-104c-8.882 0-16.998-5.032-20.947-12.988l-2.721-5.482c-.547-1.103-.268-.404-.268-1.635 0-4.408 3.573-7.981 7.981-7.981l12.485-.914h34.47l21.746 2.839 20.254-2.839h48.519c4.408 0 7.981 3.573 7.981 7.981v.416c0 1.256-.296 2.494-.865 3.614l-1.517 2.988z" fill="#b6c4cf"/><path d="m161.12 106.5-1.12 2.2c-3.99 7.85-12.05 12.8-20.85 12.8h-32.15l-22.19-1.95-19.81 1.95h-32c-4.44 0-8.69-1.26-12.32-3.51-3.64-2.25-6.66-5.5-8.63-9.48l-2.72-5.48c-.55-1.1-.83-2.32-.83-3.55 0-2.2.89-4.2 2.34-5.64 1.44-1.45 3.44-2.34 5.64-2.34h14.05l1 2.01c1.97 3.98 4.99 7.23 8.62 9.48s7.88 3.51 12.32 3.51z" fill="#9facba"/><path d="m107 91.5v30l-19.872-3-22.128 3v-30z" fill="#9facba"/><path d="m65 106.5h42v15h-42z" fill="#8d9ca8"/><g><path d="m479.78 14.5v40l-1 12h-103.56v-51c0-3.87 3.13-7 7-7l4-1h86.56c3.87 0 7 3.13 7 7z" fill="#7dc3ee"/><path d="m479.78 54.5v12l-58.964 3.839-46.596-3.839v-52c0-3.866 3.134-7 7-7h5v44c0 1.657 1.343 3 3 3z" fill="#64acdc"/><path d="m479.78 66.5v47l-1 4c0 3.87-3.13 7-7 7h-89.56c-3.87 0-7-3.13-7-7v-51z" fill="#7dc3ee"/><path d="m479.78 113.5v5c0 3.866-3.134 7-7 7h-91.56c-3.866 0-7-3.134-7-7v-52l4.321-2.986 7.679 2.986v44c0 1.657 1.343 3 3 3z" fill="#64acdc"/></g><path d="m130.779 503.5h-89.558c-3.866 0-7-3.134-7-7v-102c0-3.866 3.134-7 7-7l5-1h85.559c3.866 0 7 3.134 7 7v98l-1 5c-.001 3.866-3.135 7-7.001 7z" fill="#7dc3ee"/><path d="m138.78 491.5v6c0 3.866-3.134 7-7 7h-91.56c-3.866 0-7-3.134-7-7v-104c0-3.866 3.134-7 7-7h6v102c0 1.657 1.343 3 3 3z" fill="#64acdc"/><path d="m63.221 471.5v-52c0-1.657 1.343-3 3-3h39.559c1.657 0 3 1.343 3 3v52c0 1.657-1.343 3-3 3h-39.559c-1.657 0-3-1.343-3-3z" fill="#f8f7f7"/><g><path d="m287.633 231.5v-23.79c0-8.858-4.265-17.469-10.321-23.04-4.577-4.21-11.151-6.416-17.637-7.199-1.205-.146-2.431-.22-3.675-.22-16.795 0-30.459 13.664-30.459 30.46v23.79h-27.164v-23.79c0-33.391 24.233-59.7 57.624-59.7 2.263 0 4.497-.635 6.695-.393 30.24 3.331 53.765 28.965 53.765 60.093v23.79h-28.828z" fill="#ffd163"/><path d="m301.46 207.71v23.79h-15v-23.79c-.653-8.495-1.826-15.135-10.93-23.36-4.664-3.875-11.012-6.974-19.53-7.1h15c16.8 0 30.46 13.66 30.46 30.46z" fill="#ffb65f"/><path d="m263.5 147.72c-29.85 3.68-52.96 29.14-52.96 59.99v23.79h-15v-23.79c0-33.39 27.07-60.46 60.46-60.46 2.54 0 5.04.16 7.5.47z" fill="#ffb65f"/><path d="m184.541 222.174 3.459-1.424h141c5.523 0 10 4.477 10 10v8.25l-2.844 8.037 2.844 6.963v60.75c0 5.467-1.462 10.593-4.018 15.007-5.188 8.963-17.01 12.949-28.111 12.949l-102.881.385c-16.569 0-30-13.431-30-30l.55-80.917c.001-5.523 4.478-10 10.001-10z" fill="#9facba"/><g fill="#8d9ca8"><path d="m334.97 329.75c-5.17 8.97-14.86 15-25.97 15h-106c-16.57 0-30-13.43-30-30v-60.75l3.963-7.5-3.963-7.5v-8.25c0-5.52 4.48-10 10-10h5v95c0 7.72 6.28 14 14 14z"/><circle cx="256.5" cy="288.5" r="17"/></g></g><g><path d="m455.716 256.5c0-10.274 4.982-19.1 13.842-22.945 3.047-1.322 6.409-2.055 9.942-2.055 13.807 0 25 11.193 25 25 0 3.452-.7 6.74-1.965 9.731-3.795 8.973-12.685 13.503-23.04 13.503-13.807 0-23.779-9.427-23.779-23.234z" fill="#ccf49f"/><path d="m502.44 266.44c-3.84 8.86-12.66 15.06-22.94 15.06-13.81 0-25-11.19-25-25 0-10.28 6.2-19.1 15.06-22.94-1.33 3.04-2.06 6.41-2.06 9.94 0 13.81 11.19 25 25 25 3.53 0 6.9-.73 9.94-2.06z" fill="#b3e59f"/></g><path d="m459.78 504.5h-65.56c-5.523 0-10-4.477-10-10v-98c0-5.523 4.477-10 10-10h65.559c5.523 0 10 4.477 10 10v98c.001 5.523-4.477 10-9.999 10z" fill="#f8f7f7"/><path d="m469.78 489.5v5c0 5.52-4.48 10-10 10h-65.56c-5.52 0-10-4.48-10-10v-98c0-5.52 4.48-10 10-10h5v99c0 2.21 1.79 4 4 4z" fill="#e8e8e8"/><g><path d="m9.436 256.5c0-10.274 4.982-19.1 13.842-22.945 3.047-1.322 6.409-2.055 9.942-2.055 13.807 0 25 11.193 25 25 0 3.452-.7 6.74-1.965 9.731-3.795 8.973-12.685 13.503-23.04 13.503-13.807 0-23.779-9.427-23.779-23.234z" fill="#ccf49f"/><path d="m56.16 266.44c-3.84 8.86-12.66 15.06-22.94 15.06-13.81 0-25-11.19-25-25 0-10.28 6.2-19.1 15.06-22.94-1.33 3.04-2.06 6.41-2.06 9.94 0 13.81 11.19 25 25 25 3.53 0 6.9-.73 9.94-2.06z" fill="#b3e59f"/></g></g><g><path d="m453.846 29.5h-29.339c-4.142 0-7.5 3.357-7.5 7.5s3.358 7.5 7.5 7.5h29.339c4.142 0 7.5-3.357 7.5-7.5s-3.358-7.5-7.5-7.5z"/><path d="m453.846 88.5h-29.339c-4.142 0-7.5 3.357-7.5 7.5s3.358 7.5 7.5 7.5h29.339c4.142 0 7.5-3.357 7.5-7.5s-3.358-7.5-7.5-7.5z"/><path d="m62.721 482h45.559c4.142 0 7.5-3.357 7.5-7.5v-58c0-4.143-3.358-7.5-7.5-7.5h-45.559c-4.142 0-7.5 3.357-7.5 7.5v58c0 4.143 3.358 7.5 7.5 7.5zm7.5-58h30.559v43h-30.559z"/><path d="m255.5 139.75c-37.473 0-67.959 30.486-67.959 67.96v5.54h-5.041c-9.649 0-17.5 7.851-17.5 17.5v84c0 20.678 16.822 37.5 37.5 37.5h106c20.678 0 37.5-16.822 37.5-37.5v-84c0-9.649-7.851-17.5-17.5-17.5h-5.041v-5.54c0-37.474-30.486-67.96-67.959-67.96zm-52.959 67.96c0-29.202 23.757-52.96 52.959-52.96s52.959 23.758 52.959 52.96v5.54h-15v-5.54c0-20.932-17.028-37.96-37.959-37.96s-37.959 17.028-37.959 37.96v5.54h-15zm75.918 0v5.54h-45.919v-5.54c0-12.66 10.3-22.96 22.959-22.96s22.96 10.3 22.96 22.96zm50.041 20.54c1.378 0 2.5 1.121 2.5 2.5v8.25h-82.5c-4.142 0-7.5 3.357-7.5 7.5s3.358 7.5 7.5 7.5h82.5v60.75c0 12.406-10.093 22.5-22.5 22.5h-106c-12.407 0-22.5-10.094-22.5-22.5v-60.75h33.5c4.142 0 7.5-3.357 7.5-7.5s-3.358-7.5-7.5-7.5h-33.5v-8.25c0-1.379 1.122-2.5 2.5-2.5z"/><path d="m248.5 311.821v7.679c0 4.143 3.358 7.5 7.5 7.5s7.5-3.357 7.5-7.5v-7.679c9.851-3.176 17-12.427 17-23.321 0-13.51-10.991-24.5-24.5-24.5s-24.5 10.99-24.5 24.5c0 10.894 7.149 20.146 17 23.321zm7.5-32.821c5.238 0 9.5 4.262 9.5 9.5s-4.262 9.5-9.5 9.5-9.5-4.262-9.5-9.5 4.262-9.5 9.5-9.5z"/><path d="m479 224c-14.98 0-27.618 10.19-31.365 24h-39.867c-1.433-27.688-10.268-54.254-25.817-77.27-2.318-3.432-6.98-4.334-10.413-2.017-3.433 2.319-4.335 6.981-2.017 10.413 15.36 22.737 23.479 49.319 23.479 76.874 0 75.817-61.682 137.5-137.5 137.5s-137.5-61.683-137.5-137.5 61.682-137.5 137.5-137.5c34.275 0 67.107 12.685 92.45 35.718 3.065 2.787 7.809 2.561 10.595-.506 2.786-3.064 2.56-7.809-.506-10.594-18.799-17.086-41.316-29.029-65.539-35.072v-31.546c0-1.379 1.122-2.5 2.5-2.5h71.221v44.5c0 7.995 6.505 14.5 14.5 14.5h91.559c7.995 0 14.5-6.505 14.5-14.5v-104c0-7.995-6.505-14.5-14.5-14.5h-91.559c-7.995 0-14.5 6.505-14.5 14.5v44.5h-71.221c-9.649 0-17.5 7.851-17.5 17.5v28.592c-7.24-1.05-14.589-1.592-22-1.592-7.816 0-15.497.593-23 1.733v-28.733c0-9.649-7.851-17.5-17.5-17.5h-59v-41.5c0-9.649-7.851-17.5-17.5-17.5h-106c-9.649 0-17.5 7.851-17.5 17.5v14.5c0 4.143 3.358 7.5 7.5 7.5s7.5-3.357 7.5-7.5v-14.5c0-1.379 1.122-2.5 2.5-2.5h106c1.378 0 2.5 1.121 2.5 2.5v66.5h-111v-17c0-4.143-3.358-7.5-7.5-7.5s-7.5 3.357-7.5 7.5v17.05c-8.079.51-14.5 7.227-14.5 15.431 0 3.28 2.713 9.517 4.335 12.365 5.252 10.581 15.853 17.154 27.665 17.154h106.147c11.692 0 22.244-6.476 27.538-16.901 2.177-4.557 4.314-9.173 4.314-12.617 0-8.205-6.421-14.921-14.5-15.432v-10.05h59c1.378 0 2.5 1.121 2.5 2.5v31.793c-63.276 16.289-110.788 72.272-114.29 139.707h-38.844c-3.747-13.81-16.385-24-31.365-24-17.92 0-32.5 14.579-32.5 32.5s14.58 32.5 32.5 32.5c15.695 0 28.826-11.183 31.846-26h38.321c3.083 67.88 50.744 124.338 114.333 140.707v31.793c0 1.379-1.122 2.5-2.5 2.5h-69.221v-44.5c0-7.995-6.505-14.5-14.5-14.5h-91.558c-7.995 0-14.5 6.505-14.5 14.5v104c0 7.995 6.505 14.5 14.5 14.5h91.559c7.995 0 14.5-6.505 14.5-14.5v-44.5h69.22c9.649 0 17.5-7.851 17.5-17.5v-28.733c7.503 1.14 15.184 1.733 23 1.733 7.47 0 14.814-.55 22-1.593v28.593c0 9.649 7.851 17.5 17.5 17.5h81.221v41.5c0 9.649 7.851 17.5 17.5 17.5h65.559c9.649 0 17.5-7.851 17.5-17.5v-25.86c0-4.143-3.358-7.5-7.5-7.5s-7.5 3.357-7.5 7.5v25.86c0 1.379-1.122 2.5-2.5 2.5h-65.559c-1.378 0-2.5-1.121-2.5-2.5v-98c0-1.379 1.122-2.5 2.5-2.5h65.559c1.378 0 2.5 1.121 2.5 2.5v34.5c0 4.143 3.358 7.5 7.5 7.5s7.5-3.357 7.5-7.5v-34.5c0-9.649-7.851-17.5-17.5-17.5h-65.559c-9.649 0-17.5 7.851-17.5 17.5v41.5h-81.221c-1.378 0-2.5-1.121-2.5-2.5v-31.548c64.088-16.033 112.234-72.718 115.333-140.952h39.321c3.02 14.817 16.151 26 31.846 26 17.92 0 32.5-14.579 32.5-32.5s-14.58-32.5-32.5-32.5zm-97.779-209h90.559v44h-90.559zm0 59h90.559v44h-90.559zm-324.221 40h-24.5c-6.075 0-11.527-3.381-14.229-8.822l-2.721-5.483c-.033-.066-.05-.138-.05-.213 0-.266.216-.481.481-.481h41.019zm42 0h-27v-15h27zm56.5-14.103c0 .075-.019.151-.052.218l-2.637 5.192c-2.723 5.361-8.15 8.692-14.164 8.692h-24.647v-14.999h41.019c.266 0 .481.216.481.481zm-122.5 174.103c-9.649 0-17.5-7.851-17.5-17.5s7.851-17.5 17.5-17.5 17.5 7.851 17.5 17.5-7.851 17.5-17.5 17.5zm97.779 223h-90.558v-103h90.559v103zm348.221-223c-9.649 0-17.5-7.851-17.5-17.5s7.851-17.5 17.5-17.5 17.5 7.851 17.5 17.5-7.851 17.5-17.5 17.5z"/><circle cx="399.15" cy="37" r="7.5"/><circle cx="399.15" cy="96" r="7.5"/><circle cx="426.5" cy="479.5" r="7.5"/></g></g></svg>