<svg id="Capa_1" enable-background="new 0 0 512 512" height="512" viewBox="0 0 512 512" width="512" xmlns="http://www.w3.org/2000/svg"><g><g><path d="m485.5 360h-459c-9.941 0-18-8.059-18-18v-172c0-8.698 5.17-16.956 13.372-18.634 1.172-.24 2.385-.366 3.628-.366h461c9.941 0 18 8.059 18 18v174c0 1.023-.085 2.027-.249 3.003-1.43 8.512-9.833 13.997-18.751 13.997z" fill="#f8f7f7"/><path d="m32.5 346c-5.523 0-10-4.477-10-10v-184.73c-8.51 1.431-15 8.813-15 17.73v174c0 9.941 8.059 18 18 18h461c8.917 0 16.299-6.49 17.73-15z" fill="#e8e8e8"/><path d="m405.5 330.5h-354c-5.523 0-10-4.477-10-10v-129c0-5.523 4.477-10 10-10l4-1h351c5.523 0 10 4.477 10 10v126l-1 4c0 5.523-4.477 10-10 10z" fill="#8d9ca8"/><path d="m58.5 316.5c-1.657 0-3-1.343-3-3v-133h-5c-5.523 0-10 4.477-10 10v131c0 5.523 4.477 10 10 10h356c5.523 0 10-4.477 10-10v-5z" fill="#7a8c98"/><g><g><g><path d="m131.5 253.25v-9c0-1.657-1.343-3-3-3h-21l-8 1c-1.657 0-3 1.343-3 3v8c0 1.657-2.343 3-4 3h-9.5l-6 1c-2.761 0-5 2.239-5 5v33c0 2.761 2.239 5 5 5h73c2.761 0 5-2.239 5-5l1-6v-28c0-2.761-2.239-5-5-5h-16.5c-1.657 0-3-1.343-3-3z" fill="#ffd163"/><g fill="#ffb65f"><path d="m107.5 251.247v-9.997h-9c-1.657 0-3 1.343-3 3v9c0 1.645-1.325 2.978-2.966 2.997h9.966c2.761 0 5-2.239 5-5z"/><path d="m83 287.25v-31h-7c-2.761 0-5 2.239-5 5v35c0 2.761 2.239 5 5 5h14.5l7.5-1 7.5 1h16l7.5-1 7.5 1h14.5c2.761 0 5-2.239 5-5v-7h-19.5l-7.5 1-7.5-1h-16l-7.5 1-7.5-1h-5.5c-1.105 0-2-.895-2-2z"/></g></g><g><path d="m246.5 253.25v-9c0-1.657-1.343-3-3-3h-21l-8 1c-1.657 0-3 1.343-3 3v8c0 1.657-2.343 3-4 3h-9.5l-6 1c-2.761 0-5 2.239-5 5v33c0 2.761 2.239 5 5 5h73c2.761 0 5-2.239 5-5l1-6v-28c0-2.761-2.239-5-5-5h-16.5c-1.657 0-3-1.343-3-3z" fill="#ffd163"/><g fill="#ffb65f"><path d="m222.5 251.247v-9.997h-9c-1.657 0-3 1.343-3 3v9c0 1.645-1.325 2.978-2.966 2.997h9.966c2.761 0 5-2.239 5-5z"/><path d="m198 287.25v-31h-7c-2.761 0-5 2.239-5 5v35c0 2.761 2.239 5 5 5h14.5l7.5-1 7.5 1h16l7.5-1 7.5 1h14.5c2.761 0 5-2.239 5-5v-7h-19.5l-7.5 1-7.5-1h-16l-7.5 1-7.5-1h-5.5c-1.105 0-2-.895-2-2z"/></g></g><g><path d="m361.5 253.25v-9c0-1.657-1.343-3-3-3h-21l-8 1c-1.657 0-3 1.343-3 3v8c0 1.657-2.343 3-4 3h-9.5l-6 1c-2.761 0-5 2.239-5 5v33c0 2.761 2.239 5 5 5h73c2.761 0 5-2.239 5-5l1-6v-28c0-2.761-2.239-5-5-5h-16.5c-1.657 0-3-1.343-3-3z" fill="#ffd163"/><g fill="#ffb65f"><path d="m337.5 251.247v-9.997h-9c-1.657 0-3 1.343-3 3v9c0 1.645-1.325 2.978-2.966 2.997h9.966c2.761 0 5-2.239 5-5z"/><path d="m313 287.25v-31h-7c-2.761 0-5 2.239-5 5v35c0 2.761 2.239 5 5 5h14.5l7.5-1 7.5 1h16l7.5-1 7.5 1h14.5c2.761 0 5-2.239 5-5v-7h-19.5l-7.5 1-7.5-1h-16l-7.5 1-7.5-1h-5.5c-1.105 0-2-.895-2-2z"/></g></g></g></g><g><path d="m474.5 270.5c0-7.732-6.268-14-14-14-1.781 0-3.485.333-5.052.939-5.235 2.027-7.948 7.11-7.948 13.061 0 7.732 5.268 13 13 13 5.951 0 11.034-2.712 13.061-7.948.606-1.567.939-3.271.939-5.052z" fill="#ffd163"/><path d="m468.5 276.5c-7.732 0-14-6.268-14-14 0-1.782.346-3.48.953-5.047-5.235 2.027-8.953 7.097-8.953 13.047 0 7.732 6.268 14 14 14 5.95 0 11.02-3.718 13.047-8.953-1.568.607-3.265.953-5.047.953z" fill="#ffb65f"/></g></g><g><path d="m7.5 200.819c4.143 0 7.5-3.357 7.5-7.5v-24.319c0-5.79 4.71-10.5 10.5-10.5h283.713c4.143 0 7.5-3.357 7.5-7.5s-3.357-7.5-7.5-7.5h-283.713c-14.061 0-25.5 11.439-25.5 25.5v24.319c0 4.143 3.357 7.5 7.5 7.5z"/><path d="m486.5 143.5h-142.287c-4.143 0-7.5 3.357-7.5 7.5s3.357 7.5 7.5 7.5h142.287c5.79 0 10.5 4.71 10.5 10.5v174c0 5.79-4.71 10.5-10.5 10.5h-461c-5.79 0-10.5-4.71-10.5-10.5v-114.681c0-4.143-3.357-7.5-7.5-7.5s-7.5 3.357-7.5 7.5v114.681c0 14.061 11.439 25.5 25.5 25.5h461c14.061 0 25.5-11.439 25.5-25.5v-174c0-14.061-11.439-25.5-25.5-25.5z"/><path d="m88 248.75h-12c-6.893 0-12.5 5.607-12.5 12.5v35c0 6.893 5.607 12.5 12.5 12.5h75c6.893 0 12.5-5.607 12.5-12.5v-35c0-6.893-5.607-12.5-12.5-12.5h-12v-4.5c0-5.79-4.71-10.5-10.5-10.5h-30c-5.79 0-10.5 4.71-10.5 10.5zm4.5 15c5.79 0 10.5-4.71 10.5-10.5v-4.5h21v4.5c0 5.79 4.71 10.5 10.5 10.5h14v30h-12v-8c0-4.143-3.357-7.5-7.5-7.5s-7.5 3.357-7.5 7.5v8h-16v-8c0-4.143-3.357-7.5-7.5-7.5s-7.5 3.357-7.5 7.5v8h-12v-30z"/><path d="m203 248.75h-12c-6.893 0-12.5 5.607-12.5 12.5v35c0 6.893 5.607 12.5 12.5 12.5h75c6.893 0 12.5-5.607 12.5-12.5v-35c0-6.893-5.607-12.5-12.5-12.5h-12v-4.5c0-5.79-4.71-10.5-10.5-10.5h-30c-5.79 0-10.5 4.71-10.5 10.5zm4.5 15c5.79 0 10.5-4.71 10.5-10.5v-4.5h21v4.5c0 5.79 4.71 10.5 10.5 10.5h14v30h-12v-8c0-4.143-3.357-7.5-7.5-7.5s-7.5 3.357-7.5 7.5v8h-16v-8c0-4.143-3.357-7.5-7.5-7.5s-7.5 3.357-7.5 7.5v8h-12v-30z"/><path d="m318 248.75h-12c-6.893 0-12.5 5.607-12.5 12.5v35c0 6.893 5.607 12.5 12.5 12.5h75c6.893 0 12.5-5.607 12.5-12.5v-35c0-6.893-5.607-12.5-12.5-12.5h-12v-4.5c0-5.79-4.71-10.5-10.5-10.5h-30c-5.79 0-10.5 4.71-10.5 10.5zm4.5 15c5.79 0 10.5-4.71 10.5-10.5v-4.5h21v4.5c0 5.79 4.71 10.5 10.5 10.5h14v30h-12v-8c0-4.143-3.357-7.5-7.5-7.5s-7.5 3.357-7.5 7.5v8h-16v-8c0-4.143-3.357-7.5-7.5-7.5s-7.5 3.357-7.5 7.5v8h-12v-30z"/><path d="m98.5 218.25h30c4.143 0 7.5-3.357 7.5-7.5s-3.357-7.5-7.5-7.5h-30c-4.143 0-7.5 3.357-7.5 7.5s3.357 7.5 7.5 7.5z"/><path d="m213.5 218.25h30c4.143 0 7.5-3.357 7.5-7.5s-3.357-7.5-7.5-7.5h-30c-4.143 0-7.5 3.357-7.5 7.5s3.357 7.5 7.5 7.5z"/><path d="m328.5 218.25h30c4.143 0 7.5-3.357 7.5-7.5s-3.357-7.5-7.5-7.5h-30c-4.143 0-7.5 3.357-7.5 7.5s3.357 7.5 7.5 7.5z"/><path d="m424 190.5c0-9.649-7.851-17.5-17.5-17.5h-356c-9.649 0-17.5 7.851-17.5 17.5v131c0 9.649 7.851 17.5 17.5 17.5h34.479c4.143 0 7.5-3.357 7.5-7.5s-3.357-7.5-7.5-7.5h-34.479c-1.379 0-2.5-1.121-2.5-2.5v-131c0-1.379 1.121-2.5 2.5-2.5h356c1.379 0 2.5 1.121 2.5 2.5v20.25c0 4.143 3.357 7.5 7.5 7.5s7.5-3.357 7.5-7.5z"/><path d="m119.979 339h286.521c9.649 0 17.5-7.851 17.5-17.5v-75.75c0-4.143-3.357-7.5-7.5-7.5s-7.5 3.357-7.5 7.5v75.75c0 1.379-1.121 2.5-2.5 2.5h-286.521c-4.143 0-7.5 3.357-7.5 7.5s3.357 7.5 7.5 7.5z"/><path d="m446.5 204h28c4.143 0 7.5-3.357 7.5-7.5s-3.357-7.5-7.5-7.5h-28c-4.143 0-7.5 3.357-7.5 7.5s3.357 7.5 7.5 7.5z"/><path d="m446.5 234h28c4.143 0 7.5-3.357 7.5-7.5s-3.357-7.5-7.5-7.5h-28c-4.143 0-7.5 3.357-7.5 7.5s3.357 7.5 7.5 7.5z"/><path d="m446.5 323h28c4.143 0 7.5-3.357 7.5-7.5s-3.357-7.5-7.5-7.5h-28c-4.143 0-7.5 3.357-7.5 7.5s3.357 7.5 7.5 7.5z"/><path d="m460.5 292c11.855 0 21.5-9.645 21.5-21.5s-9.645-21.5-21.5-21.5-21.5 9.645-21.5 21.5 9.645 21.5 21.5 21.5zm0-28c3.584 0 6.5 2.916 6.5 6.5s-2.916 6.5-6.5 6.5-6.5-2.916-6.5-6.5 2.916-6.5 6.5-6.5z"/></g></g></svg>