<svg id="Capa_1" enable-background="new 0 0 512.033 512.033" height="512" viewBox="0 0 512.033 512.033" width="512" xmlns="http://www.w3.org/2000/svg"><g><g><g><path d="m455.533 414.766-42.074.42v-25.872l13.074-2.548h32c8.822 0 18-7.178 18-16l-1-140c0-8.822-7.178-16-16-16h-77l-1-14-2-7.878 2-7.122h77c25.364 0 46 20.636 46 46v139c0 8.863-2.519 17.148-6.88 24.177-8.119 13.089-25.619 19.823-42.12 19.823z" fill="#e8e8e8"/></g><g fill="#d8d8d8"><path d="m474.533 231.766v139c0 8.78-7.111 15.925-15.875 15.994h14.875c8.837 0 16-7.163 16-16v-137.853c0-17.751-14.39-32.141-32.141-32.141h-75.859l-2 6.5 2 8.5h77c8.822 0 16 7.178 16 16z"/><path d="m473.533 401.766h-42c-2.761 0-5-2.239-5-5v-10h-15l-2 15.5 2 14.5h47c16.502 0 30.995-8.739 39.114-21.827-7.013 4.326-15.27 6.827-24.114 6.827z"/></g><path d="m404.533 428.266h-27v-53l12-1h16c3.314 0 6 2.686 6 6v36.5l-1 6.5c0 3.314-2.687 5-6 5z" fill="#f8f7f7"/><path d="m389.533 411.766v-37.5h-13l-2 27.5 2 27.5h29c3.314 0 6-2.686 6-6v-6.5h-17c-2.762 0-5-2.238-5-5z" fill="#e8e8e8"/><path d="m374.533 221.266h-22v-41l14-1h9c3.314 0 6 2.686 6 6v22l-1 9c0 3.314-2.687 5-6 5z" fill="#f8f7f7"/><path d="m366.533 205.266v-26h-15l-2 21.5 2 21.5h24c3.314 0 6-2.686 6-6v-9h-13c-1.105 0-2-.895-2-2z" fill="#e8e8e8"/><path d="m345.533 244.766h-48c-2.761 0-5-2.239-5-5v-78c0-2.761 2.239-5 5-5l9-1h40c2.761 0 5 2.239 5 5v70l-1 9c0 2.762-2.239 5-5 5z" fill="#f8f7f7"/><path d="m290.533 233.766h-23c-2.761 0-5-2.239-5-5v-56c0-2.761 2.239-5 5-5l9-1h15l2 26.633-2 26.367z" fill="#b6c4cf"/><path d="m278.533 219.766c-1.105 0-2-.895-2-2v-51h-10c-2.761 0-5 2.239-5 5v58c0 2.761 2.239 5 5 5h25l2-8.005-2-6.995z" fill="#9facba"/><path d="m475.533 63.766h23c2.761 0 5-1.239 5-4l1-10v-20c0-2.761-2.239-5-5-5h-10l-14 1z" fill="#b6c4cf"/><path d="m489.533 47.766v-23h-15l-1 18.952 1 21.048h25c2.761 0 5-2.239 5-5v-10h-13c-1.105 0-2-.895-2-2z" fill="#9facba"/><g><path d="m138.533 248.968h28l1-14v-91.202c0-26.51-21.49-48-48-48h-63.524c-9.767 0-18.113-7.578-18.465-17.339-.368-10.225 5.843-20.661 15.988-20.661l329-1 2-12 1-8.473-1-6.527h-328.159c-22.924 0-42.617 15.805-47.616 37.276-.737 3.165-.155 7.454-.216 10.833-.49 26.874 21.228 46.891 47.992 46.891h64c9.941 0 18 8.059 18 18z" fill="#e8e8e8"/></g><g fill="#d8d8d8"><path d="m152.533 229.968v-84.434c0-19.202-15.566-34.769-34.769-34.769h-58.231c-25.026 0-48.258-19.252-50.77-43.723-.737 3.166-1.161 6.452-1.222 9.832-.49 26.874 21.228 48.891 47.992 48.891h64c9.941 0 18 8.059 18 18v106.202l15 1 15-1v-15h-10c-2.762.001-5-2.237-5-4.999z"/><path d="m64.533 44.766c-21.457 0-26.996 15.101-26.996 33.29h.014c-.158-10.056 7.961-18.291 17.982-18.291h329l1-8.154-1-6.846h-320z"/></g><path d="m179.033 303.766h-53v-42c0-6.627 4.373-11 11-11l.511-1h30.489c6.627 0 12 5.373 12 12v30.5z" fill="#f8f7f7"/><path d="m137.543 287.266v-37.5h-.511c-6.627 0-12 5.373-12 12v43l27.5 2 27.5-2v-12.5h-37.489c-2.761 0-5-2.238-5-5z" fill="#e8e8e8"/><path d="m390.533 65.266h23l1-14 2-13.782-2-14.218h-15l-8 1c-3.314 0-6 .686-6 4v31c0 3.314 1.686 6 5 6z" fill="#f8f7f7"/><path d="m401.533 51.266c-1.105 0-2-.895-2-2v-26h-9c-3.314 0-6 2.686-6 6v31c0 3.314 2.686 6 6 6h24l1-7.42-1-7.58z" fill="#e8e8e8"/><path d="m420.533 76.266h48c2.761 0 5-2.239 5-5l1-9v-45c0-2.761-2.239-5-5-5h-40l-9 1c-2.761 0-5 2.239-5 5v53c0 2.762 2.238 5 5 5z" fill="#f8f7f7"/><path d="m355.533 498.766h-327c-11.046 0-20-8.954-20-20v-153c0-11.046 7.954-21 19-21h329c11.046 0 20 8.954 20 20v155c0 11.046-9.955 19-21 19z" fill="#f8f7f7"/><g fill="#e8e8e8"><path d="m27.533 469.766v-165c-11.046 0-20 8.954-20 20v155c0 11.046 8.954 20 20 20h329c11.046 0 20-8.954 20-20h-339c-5.523 0-10-4.477-10-10z"/><path d="m432.533 62.266c-1.657 0-3-1.343-3-3v-47h-10c-2.761 0-5 2.239-5 5v55c0 2.761 2.239 5 5 5h50c2.761 0 5-2.239 5-5v-10z"/><path d="m309.533 230.766c-1.657 0-3-1.343-3-3v-72h-10c-2.761 0-5 2.239-5 5v80c0 2.761 2.239 5 5 5h50c2.761 0 5-2.239 5-5v-10z"/></g><g><path d="m87.033 379.766c0-8.284-6.716-15-15-15-1.514 0-2.977.224-4.355.642-6.161 1.866-9.645 7.588-9.645 14.358 0 8.284 5.716 14 14 14 6.77 0 12.492-3.485 14.358-9.645.417-1.378.642-2.84.642-4.355z" fill="#e8e8e8"/><path d="m167.033 379.766c0-8.284-6.716-15-15-15-1.514 0-2.977.224-4.355.642-6.161 1.866-9.645 7.588-9.645 14.358 0 8.284 5.716 14 14 14 6.77 0 12.492-3.485 14.358-9.645.417-1.378.642-2.84.642-4.355z" fill="#ccf49f"/><g fill="#e8e8e8"><path d="m247.033 379.766c0-8.284-6.716-15-15-15-1.514 0-2.977.224-4.355.642-6.161 1.866-9.645 7.588-9.645 14.358 0 8.284 5.716 14 14 14 6.77 0 12.492-3.485 14.358-9.645.417-1.378.642-2.84.642-4.355z"/><path d="m327.033 379.766c0-8.284-6.716-15-15-15-1.514 0-2.977.224-4.355.642-6.161 1.866-9.645 7.588-9.645 14.358 0 8.284 5.716 14 14 14 6.77 0 12.492-3.485 14.358-9.645.417-1.378.642-2.84.642-4.355z"/></g></g><g><path d="m82.033 384.766c-8.284 0-15-6.716-15-15 0-1.515.229-2.975.647-4.353-6.16 1.866-10.647 7.584-10.647 14.353 0 8.284 6.716 15 15 15 6.77 0 12.487-4.487 14.353-10.647-1.379.418-2.839.647-4.353.647z" fill="#d8d8d8"/><path d="m162.033 384.766c-8.284 0-15-6.716-15-15 0-1.515.229-2.975.647-4.353-6.16 1.866-10.647 7.584-10.647 14.353 0 8.284 6.716 15 15 15 6.77 0 12.487-4.487 14.353-10.647-1.379.418-2.839.647-4.353.647z" fill="#b3e59f"/><g fill="#d8d8d8"><path d="m242.033 384.766c-8.284 0-15-6.716-15-15 0-1.515.229-2.975.647-4.353-6.16 1.866-10.647 7.584-10.647 14.353 0 8.284 6.716 15 15 15 6.77 0 12.487-4.487 14.353-10.647-1.379.418-2.839.647-4.353.647z"/><path d="m322.033 384.766c-8.284 0-15-6.716-15-15 0-1.515.229-2.975.647-4.353-6.16 1.866-10.647 7.584-10.647 14.353 0 8.284 6.716 15 15 15 6.77 0 12.487-4.487 14.353-10.647-1.379.418-2.839.647-4.353.647z"/></g></g></g><g><path d="m458.533 178.266h-71.479c-2.372-3.889-6.642-6.5-11.521-6.5h-16.5v-11c0-6.893-5.607-12.5-12.5-12.5h-50c-6.384 0-11.657 4.813-12.401 11h-17.599c-6.893 0-12.5 5.607-12.5 12.5v58c0 6.893 5.607 12.5 12.5 12.5h17.599c.745 6.187 6.017 11 12.401 11h50c6.893 0 12.5-5.607 12.5-12.5v-11h16.5c4.879 0 9.149-2.611 11.521-6.5h71.479c4.687 0 8.5 3.813 8.5 8.5v19.25c0 4.143 3.358 7.5 7.5 7.5s7.5-3.357 7.5-7.5v-19.25c0-12.958-10.542-23.5-23.5-23.5h-69.5v-15h69.5c21.229 0 38.5 17.271 38.5 38.5v139c0 21.229-17.271 38.5-38.5 38.5h-39.5v-15h39.5c12.958 0 23.5-10.542 23.5-23.5v-84.75c0-4.143-3.358-7.5-7.5-7.5s-7.5 3.357-7.5 7.5v84.75c0 4.687-3.813 8.5-8.5 8.5h-39.551c-.515-6.978-6.343-12.5-13.449-12.5h-21.5v-42c0-15.163-12.336-27.5-27.5-27.5h-82.117c-4.142 0-7.5 3.357-7.5 7.5s3.358 7.5 7.5 7.5h82.117c6.893 0 12.5 5.607 12.5 12.5v155c0 6.893-5.607 12.5-12.5 12.5h-329c-6.893 0-12.5-5.607-12.5-12.5v-50.25c0-4.143-3.358-7.5-7.5-7.5s-7.5 3.357-7.5 7.5v50.25c0 15.163 12.336 27.5 27.5 27.5h329c15.164 0 27.5-12.337 27.5-27.5v-43h21.5c7.106 0 12.934-5.522 13.449-12.5h39.551c29.5 0 53.5-24 53.5-53.5v-139c0-29.5-24-53.5-53.5-53.5zm-189.5-4h15v53h-15zm75 64h-45v-75h45zm30-23.5h-15v-28h15zm30 207h-20v-40h20z"/><path d="m321.533 223.266c4.142 0 7.5-3.357 7.5-7.5v-30c0-4.143-3.358-7.5-7.5-7.5s-7.5 3.357-7.5 7.5v30c0 4.143 3.357 7.5 7.5 7.5z"/><path d="m499.533 17.266h-17.5c0-6.893-5.607-12.5-12.5-12.5h-50c-6.384 0-11.657 4.813-12.401 11h-16.599c-4.879 0-9.149 2.611-11.521 6.5h-186.979c-4.142 0-7.5 3.357-7.5 7.5s3.358 7.5 7.5 7.5h185v15h-321.5c-13.043-.267-26.252 11.741-25.484 26.431.488 13.548 12.134 24.569 25.96 24.569h63.523c22.332 0 40.5 18.168 40.5 40.5v98.5h-15v-98.5c0-14.061-11.439-25.5-25.5-25.5h-64c-21.13.49-41.374-18.789-40.493-41.255.399-21.916 18.941-39.745 41.334-39.745h100.659c4.142 0 7.5-3.357 7.5-7.5s-3.358-7.5-7.5-7.5h-100.659c-30.514 0-55.784 24.436-56.331 54.472-1.242 29.439 25.016 57.208 55.49 56.528h64c5.79 0 10.5 4.71 10.5 10.5v99.821c-7.3 2.821-12.5 9.896-12.5 18.179v35.5h-90c-15.164 0-27.5 12.337-27.5 27.5v69.75c0 4.143 3.358 7.5 7.5 7.5s7.5-3.357 7.5-7.5v-69.75c0-6.893 5.607-12.5 12.5-12.5h211.883c4.142 0 7.5-3.357 7.5-7.5s-3.358-7.5-7.5-7.5h-51.883v-35.5c0-8.283-5.2-15.358-12.5-18.179v-99.821c0-30.603-24.897-55.5-55.5-55.5h-63.522c-5.848 0-10.77-4.535-10.97-10.108-.141-4.757 3.765-10.812 10.493-10.892h323.479c2.372 3.889 6.642 6.5 11.521 6.5h16.599c.745 6.187 6.017 11 12.401 11h50c6.893 0 12.5-5.607 12.5-12.5h17.5c6.893 0 12.5-5.607 12.5-12.5v-30c0-6.892-5.608-12.5-12.5-12.5zm-367 280v-35.5c0-2.481 2.019-4.5 4.5-4.5h31c2.481 0 4.5 2.019 4.5 4.5v35.5zm259.5-266.5h15v28h-15zm75 39h-45v-50h45zm30-12.5h-15v-25h15z"/><path d="m444.533 57.266c4.142 0 7.5-3.357 7.5-7.5v-10c0-4.143-3.358-7.5-7.5-7.5s-7.5 3.357-7.5 7.5v10c0 4.143 3.357 7.5 7.5 7.5z"/><path d="m87.033 342.266c4.142 0 7.5-3.357 7.5-7.5s-3.358-7.5-7.5-7.5h-30c-4.142 0-7.5 3.357-7.5 7.5s3.358 7.5 7.5 7.5z"/><path d="m167.033 342.266c4.142 0 7.5-3.357 7.5-7.5s-3.358-7.5-7.5-7.5h-30c-4.142 0-7.5 3.357-7.5 7.5s3.358 7.5 7.5 7.5z"/><path d="m247.033 342.266c4.142 0 7.5-3.357 7.5-7.5s-3.358-7.5-7.5-7.5h-30c-4.142 0-7.5 3.357-7.5 7.5s3.358 7.5 7.5 7.5z"/><path d="m327.033 342.266c4.142 0 7.5-3.357 7.5-7.5s-3.358-7.5-7.5-7.5h-30c-4.142 0-7.5 3.357-7.5 7.5s3.358 7.5 7.5 7.5z"/><path d="m72.033 402.266c12.407 0 22.5-10.094 22.5-22.5s-10.093-22.5-22.5-22.5-22.5 10.094-22.5 22.5 10.093 22.5 22.5 22.5zm0-30c4.136 0 7.5 3.364 7.5 7.5s-3.364 7.5-7.5 7.5-7.5-3.364-7.5-7.5 3.364-7.5 7.5-7.5z"/><path d="m152.033 402.266c12.407 0 22.5-10.094 22.5-22.5s-10.093-22.5-22.5-22.5-22.5 10.094-22.5 22.5 10.093 22.5 22.5 22.5zm0-30c4.136 0 7.5 3.364 7.5 7.5s-3.364 7.5-7.5 7.5-7.5-3.364-7.5-7.5 3.364-7.5 7.5-7.5z"/><path d="m232.033 402.266c12.407 0 22.5-10.094 22.5-22.5s-10.093-22.5-22.5-22.5-22.5 10.094-22.5 22.5 10.093 22.5 22.5 22.5zm0-30c4.136 0 7.5 3.364 7.5 7.5s-3.364 7.5-7.5 7.5-7.5-3.364-7.5-7.5 3.364-7.5 7.5-7.5z"/><path d="m312.033 402.266c12.407 0 22.5-10.094 22.5-22.5s-10.093-22.5-22.5-22.5-22.5 10.094-22.5 22.5 10.093 22.5 22.5 22.5zm0-30c4.136 0 7.5 3.364 7.5 7.5s-3.364 7.5-7.5 7.5-7.5-3.364-7.5-7.5 3.364-7.5 7.5-7.5z"/></g></g></svg>