<svg id="Capa_1" enable-background="new 0 0 512 512" height="512" viewBox="0 0 512 512" width="512" xmlns="http://www.w3.org/2000/svg"><g><g><path d="m471.899 424.725-433.046-.275c-16.569 0-30-13.431-30-30l.33-256.514c0-11.101 4.346-23.23 13.309-28.418 4.414-2.555 9.54-4.018 15.007-4.018h437c16.569 0 30 13.431 30 30v260.5c0 5.467-1.462 10.593-4.018 15.007-5.187 8.963-17.481 13.718-28.582 13.718z" fill="#f8f7f7"/><path d="m500.47 411c-5.18 8.97-14.87 15-25.97 15h-437c-16.57 0-30-13.43-30-30v-260.5c0-11.1 6.03-20.79 15-25.97v286.47c0 8.27 6.73 15 15 15z" fill="#e8e8e8"/><path d="m243.5 216h-175c-5.523 0-10-4.477-10-10v-110c0-5.523 4.477-10 10-10h175c5.523 0 10 4.477 10 10v110c0 5.523-4.477 10-10 10z" fill="#b6c4cf"/><path d="m253.5 201v5c0 5.523-4.477 10-10 10h-175c-5.523 0-10-4.477-10-10v-110c0-5.523 4.477-10 10-10h5v111c0 2.209 1.791 4 4 4z" fill="#9facba"/><g fill="#e8e8e8"><path d="m98.5 306h-35c-2.761 0-5-2.239-5-5v-20c0-2.761 2.239-5 5-5h35c2.761 0 5 2.239 5 5v20c0 2.761-2.239 5-5 5z"/><path d="m173.5 306h-35c-2.761 0-5-2.239-5-5v-20c0-2.761 2.239-5 5-5h35c2.761 0 5 2.239 5 5v20c0 2.761-2.239 5-5 5z"/><path d="m248.5 306h-35c-2.761 0-5-2.239-5-5v-20c0-2.761 2.239-5 5-5h35c2.761 0 5 2.239 5 5v20c0 2.761-2.239 5-5 5z"/></g><g fill="#b6c4cf"><path d="m329.5 186h-20c-2.761 0-5-2.239-5-5v-20c0-2.761 2.239-5 5-5h20c2.761 0 5 2.239 5 5v20c0 2.761-2.239 5-5 5z"/><path d="m389.5 186h-20c-2.761 0-5-2.239-5-5v-20c0-2.761 2.239-5 5-5h20c2.761 0 5 2.239 5 5v20c0 2.761-2.239 5-5 5z"/><path d="m449.5 186h-20c-2.761 0-5-2.239-5-5v-20c0-2.761 2.239-5 5-5h20c2.761 0 5 2.239 5 5v20c0 2.761-2.239 5-5 5z"/><path d="m329.5 246h-20c-2.761 0-5-2.239-5-5v-20c0-2.761 2.239-5 5-5h20c2.761 0 5 2.239 5 5v20c0 2.761-2.239 5-5 5z"/><path d="m389.5 246h-20c-2.761 0-5-2.239-5-5v-20c0-2.761 2.239-5 5-5h20c2.761 0 5 2.239 5 5v20c0 2.761-2.239 5-5 5z"/><path d="m449.5 246h-20c-2.761 0-5-2.239-5-5v-20c0-2.761 2.239-5 5-5h20c2.761 0 5 2.239 5 5v20c0 2.761-2.239 5-5 5z"/><path d="m329.5 306h-20c-2.761 0-5-2.239-5-5v-20c0-2.761 2.239-5 5-5h20c2.761 0 5 2.239 5 5v20c0 2.761-2.239 5-5 5z"/><path d="m389.5 306h-20c-2.761 0-5-2.239-5-5v-20c0-2.761 2.239-5 5-5h20c2.761 0 5 2.239 5 5v20c0 2.761-2.239 5-5 5z"/><path d="m449.5 306h-20c-2.761 0-5-2.239-5-5v-20c0-2.761 2.239-5 5-5h20c2.761 0 5 2.239 5 5v20c0 2.761-2.239 5-5 5z"/></g><g><g><path d="m127 188h-37c-5.79 0-10.5-4.71-10.5-10.5v-22c0-5.79 4.71-10.5 10.5-10.5l2.5-1h35.5c5.79 0 10.5 4.71 10.5 10.5v20.5l-1 2.5c0 5.79-4.71 10.5-10.5 10.5z" fill="#df646e"/></g><g><path d="m138.5 175v3.5c0 5.799-4.701 10.5-10.5 10.5h-39c-5.799 0-10.5-4.701-10.5-10.5v-24c0-5.799 4.701-10.5 10.5-10.5h3.5v25c0 3.314 2.686 6 6 6z" fill="#dc4955"/></g></g><g fill="#ccf49f"><circle cx="81" cy="361" r="20"/><circle cx="156" cy="361" r="20"/><circle cx="231" cy="361" r="20"/></g></g><g><path d="m504.5 318.5c-4.143 0-7.5 3.357-7.5 7.5v70c0 12.406-10.094 22.5-22.5 22.5h-437c-12.406 0-22.5-10.094-22.5-22.5v-260.5c0-12.406 10.094-22.5 22.5-22.5h13.5v24.033c0 4.143 3.357 7.5 7.5 7.5s7.5-3.357 7.5-7.5v-41.033c0-1.379 1.121-2.5 2.5-2.5h175c1.379 0 2.5 1.121 2.5 2.5v110c0 1.379-1.121 2.5-2.5 2.5h-27c-4.143 0-7.5 3.357-7.5 7.5s3.357 7.5 7.5 7.5h27c9.649 0 17.5-7.851 17.5-17.5v-93h88.596c4.143 0 7.5-3.357 7.5-7.5s-3.357-7.5-7.5-7.5h-88.596v-2c0-9.649-7.851-17.5-17.5-17.5h-175c-9.649 0-17.5 7.851-17.5 17.5v2h-13.5c-20.678 0-37.5 16.822-37.5 37.5v260.5c0 20.678 16.822 37.5 37.5 37.5h437c20.678 0 37.5-16.822 37.5-37.5v-70c0-4.143-3.357-7.5-7.5-7.5z"/><path d="m474.5 98h-89.904c-4.143 0-7.5 3.357-7.5 7.5s3.357 7.5 7.5 7.5h89.904c12.406 0 22.5 10.094 22.5 22.5v155.5c0 4.143 3.357 7.5 7.5 7.5s7.5-3.357 7.5-7.5v-155.5c0-20.678-16.822-37.5-37.5-37.5z"/><path d="m309.5 193.5h20c6.893 0 12.5-5.607 12.5-12.5v-20c0-6.893-5.607-12.5-12.5-12.5h-20c-6.893 0-12.5 5.607-12.5 12.5v20c0 6.893 5.607 12.5 12.5 12.5zm2.5-30h15v15h-15z"/><path d="m111 301v-20c0-6.893-5.607-12.5-12.5-12.5h-35c-6.893 0-12.5 5.607-12.5 12.5v20c0 6.893 5.607 12.5 12.5 12.5h35c6.893 0 12.5-5.607 12.5-12.5zm-15-2.5h-30v-15h30z"/><path d="m186 301v-20c0-6.893-5.607-12.5-12.5-12.5h-35c-6.893 0-12.5 5.607-12.5 12.5v20c0 6.893 5.607 12.5 12.5 12.5h35c6.893 0 12.5-5.607 12.5-12.5zm-15-2.5h-30v-15h30z"/><path d="m261 301v-20c0-6.893-5.607-12.5-12.5-12.5h-35c-6.893 0-12.5 5.607-12.5 12.5v20c0 6.893 5.607 12.5 12.5 12.5h35c6.893 0 12.5-5.607 12.5-12.5zm-15-2.5h-30v-15h30z"/><path d="m357 181c0 6.893 5.607 12.5 12.5 12.5h20c6.893 0 12.5-5.607 12.5-12.5v-20c0-6.893-5.607-12.5-12.5-12.5h-20c-6.893 0-12.5 5.607-12.5 12.5zm15-17.5h15v15h-15z"/><path d="m429.5 193.5h20c6.893 0 12.5-5.607 12.5-12.5v-20c0-6.893-5.607-12.5-12.5-12.5h-20c-6.893 0-12.5 5.607-12.5 12.5v20c0 6.893 5.607 12.5 12.5 12.5zm2.5-30h15v15h-15z"/><path d="m297 241c0 6.893 5.607 12.5 12.5 12.5h20c6.893 0 12.5-5.607 12.5-12.5v-20c0-6.893-5.607-12.5-12.5-12.5h-20c-6.893 0-12.5 5.607-12.5 12.5zm15-17.5h15v15h-15z"/><path d="m402 221c0-6.893-5.607-12.5-12.5-12.5h-20c-6.893 0-12.5 5.607-12.5 12.5v20c0 6.893 5.607 12.5 12.5 12.5h20c6.893 0 12.5-5.607 12.5-12.5zm-15 17.5h-15v-15h15z"/><path d="m417 241c0 6.893 5.607 12.5 12.5 12.5h20c6.893 0 12.5-5.607 12.5-12.5v-20c0-6.893-5.607-12.5-12.5-12.5h-20c-6.893 0-12.5 5.607-12.5 12.5zm15-17.5h15v15h-15z"/><path d="m297 301c0 6.893 5.607 12.5 12.5 12.5h20c6.893 0 12.5-5.607 12.5-12.5v-20c0-6.893-5.607-12.5-12.5-12.5h-20c-6.893 0-12.5 5.607-12.5 12.5zm15-17.5h15v15h-15z"/><path d="m402 301v-20c0-6.893-5.607-12.5-12.5-12.5h-20c-6.893 0-12.5 5.607-12.5 12.5v20c0 6.893 5.607 12.5 12.5 12.5h20c6.893 0 12.5-5.607 12.5-12.5zm-15-2.5h-15v-15h15z"/><path d="m417 301c0 6.893 5.607 12.5 12.5 12.5h20c6.893 0 12.5-5.607 12.5-12.5v-20c0-6.893-5.607-12.5-12.5-12.5h-20c-6.893 0-12.5 5.607-12.5 12.5zm15-17.5h15v15h-15z"/><path d="m189 216c0-4.143-3.357-7.5-7.5-7.5h-113c-1.379 0-2.5-1.121-2.5-2.5v-35.967c0-4.143-3.357-7.5-7.5-7.5s-7.5 3.357-7.5 7.5v35.967c0 9.649 7.851 17.5 17.5 17.5h113c4.143 0 7.5-3.357 7.5-7.5z"/><path d="m96.5 253.5c4.143 0 7.5-3.357 7.5-7.5s-3.357-7.5-7.5-7.5h-30c-4.143 0-7.5 3.357-7.5 7.5s3.357 7.5 7.5 7.5z"/><path d="m171.5 253.5c4.143 0 7.5-3.357 7.5-7.5s-3.357-7.5-7.5-7.5h-30c-4.143 0-7.5 3.357-7.5 7.5s3.357 7.5 7.5 7.5z"/><path d="m246.5 253.5c4.143 0 7.5-3.357 7.5-7.5s-3.357-7.5-7.5-7.5h-30c-4.143 0-7.5 3.357-7.5 7.5s3.357 7.5 7.5 7.5z"/><path d="m407 346c0 4.143 3.357 7.5 7.5 7.5h10.5c4.143 0 7.5-3.357 7.5-7.5s-3.357-7.5-7.5-7.5h-10.5c-4.143 0-7.5 3.357-7.5 7.5z"/><path d="m384.5 338.5h-10c-4.143 0-7.5 3.357-7.5 7.5s3.357 7.5 7.5 7.5h10c4.143 0 7.5-3.357 7.5-7.5s-3.357-7.5-7.5-7.5z"/><path d="m414.5 383.5h10.5c4.143 0 7.5-3.357 7.5-7.5s-3.357-7.5-7.5-7.5h-10.5c-4.143 0-7.5 3.357-7.5 7.5s3.357 7.5 7.5 7.5z"/><path d="m384.5 368.5h-10c-4.143 0-7.5 3.357-7.5 7.5s3.357 7.5 7.5 7.5h10c4.143 0 7.5-3.357 7.5-7.5s-3.357-7.5-7.5-7.5z"/><path d="m344.5 338.5h-10c-4.143 0-7.5 3.357-7.5 7.5s3.357 7.5 7.5 7.5h10c4.143 0 7.5-3.357 7.5-7.5s-3.357-7.5-7.5-7.5z"/><path d="m344.5 368.5h-10c-4.143 0-7.5 3.357-7.5 7.5s3.357 7.5 7.5 7.5h10c4.143 0 7.5-3.357 7.5-7.5s-3.357-7.5-7.5-7.5z"/><path d="m108.5 114c-12.406 0-22.5 10.094-22.5 22.5v7.942c-4.332 1.294-7.5 5.311-7.5 10.058v24c0 5.79 4.71 10.5 10.5 10.5h39c5.79 0 10.5-4.71 10.5-10.5v-24c0-4.747-3.168-8.763-7.5-10.058v-7.942c0-12.406-10.094-22.5-22.5-22.5zm-7.5 22.5c0-4.136 3.364-7.5 7.5-7.5s7.5 3.364 7.5 7.5v7.5h-15zm22.5 37.5h-30v-15h30z"/><path d="m231 181.5c0-4.143-3.357-7.5-7.5-7.5h-62c-4.143 0-7.5 3.357-7.5 7.5s3.357 7.5 7.5 7.5h62c4.143 0 7.5-3.357 7.5-7.5z"/><path d="m223.5 113h-62c-4.143 0-7.5 3.357-7.5 7.5s3.357 7.5 7.5 7.5h62c4.143 0 7.5-3.357 7.5-7.5s-3.357-7.5-7.5-7.5z"/><path d="m81 338.5c-12.406 0-22.5 10.094-22.5 22.5s10.094 22.5 22.5 22.5 22.5-10.094 22.5-22.5-10.094-22.5-22.5-22.5zm0 30c-4.136 0-7.5-3.364-7.5-7.5s3.364-7.5 7.5-7.5 7.5 3.364 7.5 7.5-3.364 7.5-7.5 7.5z"/><path d="m156 338.5c-12.406 0-22.5 10.094-22.5 22.5s10.094 22.5 22.5 22.5 22.5-10.094 22.5-22.5-10.094-22.5-22.5-22.5zm0 30c-4.136 0-7.5-3.364-7.5-7.5s3.364-7.5 7.5-7.5 7.5 3.364 7.5 7.5-3.364 7.5-7.5 7.5z"/><path d="m231 338.5c-12.406 0-22.5 10.094-22.5 22.5s10.094 22.5 22.5 22.5 22.5-10.094 22.5-22.5-10.094-22.5-22.5-22.5zm0 30c-4.136 0-7.5-3.364-7.5-7.5s3.364-7.5 7.5-7.5 7.5 3.364 7.5 7.5-3.364 7.5-7.5 7.5z"/><path d="m156.501 151.501c0 4.141 3.357 7.499 7.499 7.499s7.499-3.357 7.499-7.499-3.357-7.499-7.499-7.499-7.499 3.358-7.499 7.499z"/><path d="m186.501 151.501c0 4.141 3.357 7.499 7.499 7.499s7.499-3.357 7.499-7.499-3.357-7.499-7.499-7.499-7.499 3.358-7.499 7.499z"/><path d="m216.501 151.501c0 4.141 3.357 7.499 7.499 7.499s7.499-3.357 7.499-7.499-3.357-7.499-7.499-7.499-7.499 3.358-7.499 7.499z"/></g></g></svg>