<svg id="Capa_1" enable-background="new 0 0 512 512" height="512" viewBox="0 0 512 512" width="512" xmlns="http://www.w3.org/2000/svg"><g><g><path d="m438.505 501.275-369.005 1.225c-16.569 0-30-13.431-30-30l.472-429c0-11.101 3.557-26.794 12.52-31.982 4.415-2.555 9.541-4.018 15.008-4.018h377c16.569 0 30 13.431 30 30v437c0 5.467-1.462 10.593-4.018 15.007-5.188 8.963-20.876 11.768-31.977 11.768z" fill="#f8f7f7"/><path d="m470.47 489.5c-5.18 8.97-14.87 15-25.97 15h-377c-16.569 0-30-13.431-30-30v-437c0-11.1 6.03-20.79 15-25.97v460.97c0 9.389 7.611 17 17 17z" fill="#e8e8e8"/><path d="m89.5 442.5v-373c0-5.523 4.477-10 10-10l3-2h312c5.523 0 10 4.477 10 10v372l-1 4c0 5.523-4.477 10-10 10l-314-1c-5.523 0-10-4.477-10-10z" fill="#e8e8e8"/><path d="m424.5 439.5v5c0 5.523-4.477 10-10 10h-317c-5.523 0-10-4.477-10-10v-377c0-5.523 4.477-10 10-10h5v377c0 2.761 2.239 5 5 5z" fill="#d8d8d8"/><path d="m213.5 276-15 3.11-15-3.11 2.895-53.917-2.895-62.583h28.161l1.839 15z" fill="#8d9ca8"/><path d="m329.5 276-14.5 4.872-15.5-4.872 3.592-59.862-3.592-56.638h30l-.95 9.711.95 5.289z" fill="#8d9ca8"/><path d="m213.5 159.5v15h-10c-2.761 0-5 2.239-5 5v96.5l-7.922 2.229-7.078-2.229v-116.5l14.014-3.417z" fill="#7a8c98"/><g><path d="m170.5 277 4-1h53c5.523 0 10 4.477 10 10v12l-1.777 8 1.777 7v8l-1 4c0 5.523-4.477 10-10 10h-56c-5.523 0-10-4.477-10-10v-38c0-5.523 4.477-10 10-10z" fill="#b6c4cf"/><path d="m237.5 321v5c0 5.523-4.477 10-10 10h-58c-5.523 0-10-4.477-10-10v-13l1.5-6.511-1.5-8.489v-12c0-5.523 4.477-10 10-10h5v41c0 2.209 1.791 4 4 4z" fill="#9facba"/></g><path d="m329.5 159.5v15h-10c-2.761 0-5 2.239-5 5v96.5l-9.867 4.872-5.133-4.872v-116.5l15-3.417z" fill="#7a8c98"/><g><path d="m286.5 277 4-1h53c5.523 0 10 4.477 10 10v12l-1.777 8 1.777 7v8l-1 4c0 5.523-4.477 10-10 10h-56c-5.523 0-10-4.477-10-10v-38c0-5.523 4.477-10 10-10z" fill="#b6c4cf"/><path d="m353.5 321v5c0 5.523-4.477 10-10 10h-58c-5.523 0-10-4.477-10-10v-13l1.5-6.511-1.5-8.489v-12c0-5.523 4.477-10 10-10h5v41c0 2.209 1.791 4 4 4z" fill="#9facba"/></g><g><path d="m270.642 380.858c-6.201-6.201-15.46-7.479-22.922-3.834-1.937.946-2.58 3.398-4.189 5.007-7.81 7.81-8.277 18.593-.466 26.404s19.014 7.765 26.825-.045c1.61-1.61 3.64-2.673 4.586-4.611 3.645-7.461 2.367-16.72-3.834-22.921z" fill="#b3e59f"/><path d="m274.468 403.775c-.94 1.945-2.213 3.755-3.825 5.367-7.814 7.814-20.471 7.814-28.284 0-7.814-7.814-7.814-20.471 0-28.284 1.612-1.612 3.422-2.885 5.367-3.825-3.656 7.46-2.376 16.716 3.825 22.917s15.457 7.481 22.917 3.825z" fill="#95d6a4"/></g><g><path d="m178.642 380.858c-6.201-6.201-15.46-7.479-22.921-3.834-1.937.946-2.58 3.398-4.189 5.007-7.81 7.81-8.277 18.593-.466 26.404s19.014 7.765 26.825-.045c1.61-1.61 3.64-2.673 4.586-4.611 3.644-7.461 2.366-16.72-3.835-22.921z" fill="#b3e59f"/><path d="m182.468 403.775c-.94 1.945-2.213 3.755-3.825 5.367-7.814 7.814-20.471 7.814-28.284 0-7.814-7.814-7.814-20.471 0-28.284 1.612-1.612 3.422-2.885 5.367-3.825-3.656 7.46-2.376 16.716 3.825 22.917s15.457 7.481 22.917 3.825z" fill="#95d6a4"/></g><g><path d="m362.642 380.858c-6.201-6.201-15.46-7.479-22.922-3.834-1.937.946-2.579 3.398-4.189 5.007-7.81 7.81-8.277 18.593-.466 26.404s19.014 7.765 26.825-.045c1.61-1.61 3.64-2.673 4.586-4.611 3.645-7.461 2.367-16.72-3.834-22.921z" fill="#b3e59f"/><path d="m366.468 403.775c-.94 1.945-2.213 3.755-3.825 5.367-7.814 7.814-20.471 7.814-28.284 0-7.814-7.814-7.814-20.471 0-28.284 1.612-1.612 3.422-2.885 5.367-3.825-3.656 7.46-2.376 16.716 3.825 22.917s15.457 7.481 22.917 3.825z" fill="#95d6a4"/></g><path d="m282.395 104.5h-50.862l-.826-49.812c0-9.319 4.167-19.338 12.794-21.558 1.598-.411 3.273-.63 5-.63h16c11.046 0 20 8.954 20 20v37z" fill="#b6c4cf"/><path d="m284.5 89.5v15l-30.515 3.858-25.485-3.858v-52c0-9.32 6.37-17.15 15-19.37v53.37c0 1.657 1.343 3 3 3z" fill="#9facba"/><path d="m170.266 157.569 170.917-.495c9.319 0 20.466-3.947 22.686-12.573.411-1.598.63-3.273.63-5v-15c0-11.046-8.954-20-20-20h-176c-1.726 0-3.402.219-5 .63-8.626 2.22-14.041 11.578-14.041 20.897l.807 11.541c.001 11.046 8.955 20 20.001 20z" fill="#b6c4cf"/><path d="m363.87 144.5c-2.22 8.63-10.05 15-19.37 15h-176c-11.046 0-20-8.954-20-20v-15c0-9.32 6.37-17.15 15-19.37v29.37c0 5.523 4.477 10 10 10z" fill="#9facba"/></g><g><path d="m444.5 0h-377c-20.678 0-37.5 16.822-37.5 37.5v71.5c0 4.142 3.357 7.5 7.5 7.5s7.5-3.358 7.5-7.5v-71.5c0-12.407 10.094-22.5 22.5-22.5h377c12.406 0 22.5 10.093 22.5 22.5v337.5c0 4.142 3.357 7.5 7.5 7.5s7.5-3.358 7.5-7.5v-337.5c0-20.678-16.822-37.5-37.5-37.5z"/><path d="m474.5 402.5c-4.143 0-7.5 3.358-7.5 7.5v64.5c0 12.407-10.094 22.5-22.5 22.5h-377c-12.406 0-22.5-10.093-22.5-22.5v-330.5c0-4.142-3.357-7.5-7.5-7.5s-7.5 3.358-7.5 7.5v330.5c0 20.678 16.822 37.5 37.5 37.5h377c20.678 0 37.5-16.822 37.5-37.5v-64.5c0-4.142-3.357-7.5-7.5-7.5z"/><path d="m134 50h-36.5c-9.649 0-17.5 7.851-17.5 17.5v377c0 9.649 7.851 17.5 17.5 17.5h317c9.649 0 17.5-7.851 17.5-17.5v-377c0-9.649-7.851-17.5-17.5-17.5h-122.619c-1.268-13.996-13.062-25-27.381-25h-16c-14.32 0-26.113 11.004-27.381 25h-52.119c-4.143 0-7.5 3.358-7.5 7.5s3.357 7.5 7.5 7.5h52v32h-52.5c-15.163 0-27.5 12.336-27.5 27.5v15c0 15.164 12.337 27.5 27.5 27.5h7.5v101.5h-6.5c-9.649 0-17.5 7.851-17.5 17.5v40c0 9.649 7.851 17.5 17.5 17.5h58c9.649 0 17.5-7.851 17.5-17.5v-40c0-9.649-7.851-17.5-17.5-17.5h-6.5v-101.5h71v33c0 4.142 3.357 7.5 7.5 7.5s7.5-3.358 7.5-7.5v-33h15v101.5h-15v-33.082c0-4.142-3.357-7.5-7.5-7.5s-7.5 3.358-7.5 7.5v33.082h-6.5c-9.649 0-17.5 7.851-17.5 17.5v40c0 9.649 7.851 17.5 17.5 17.5h58c9.649 0 17.5-7.851 17.5-17.5v-40c0-9.649-7.851-17.5-17.5-17.5h-6.5v-101.5h7.5c15.163 0 27.5-12.336 27.5-27.5v-15c0-15.164-12.337-27.5-27.5-27.5h-52.5v-32h122.5c1.379 0 2.5 1.122 2.5 2.5v377c0 1.378-1.121 2.5-2.5 2.5h-317c-1.379 0-2.5-1.122-2.5-2.5v-377c0-1.378 1.121-2.5 2.5-2.5h36.5c4.143 0 7.5-3.358 7.5-7.5s-3.357-7.5-7.5-7.5zm209.5 278.5h-58c-1.379 0-2.5-1.122-2.5-2.5v-13h63v13c0 1.378-1.121 2.5-2.5 2.5zm2.5-42.5v12h-63v-12c0-1.378 1.121-2.5 2.5-2.5h58c1.379 0 2.5 1.122 2.5 2.5zm-118.5 42.5h-58c-1.379 0-2.5-1.122-2.5-2.5v-13h63v13c0 1.378-1.121 2.5-2.5 2.5zm2.5-42.5v12h-63v-12c0-1.378 1.121-2.5 2.5-2.5h58c1.379 0 2.5 1.122 2.5 2.5zm-24-17.5h-15v-101.5h15zm151-144v15c0 6.893-5.607 12.5-12.5 12.5h-176c-6.893 0-12.5-5.607-12.5-12.5v-15c0-6.893 5.607-12.5 12.5-12.5h176c6.893 0 12.5 5.607 12.5 12.5zm-121-27.5v-44.5c0-6.893 5.607-12.5 12.5-12.5h16c6.893 0 12.5 5.607 12.5 12.5v44.5z"/><path d="m284 395c0-15.164-12.337-27.5-27.5-27.5s-27.5 12.336-27.5 27.5 12.337 27.5 27.5 27.5 27.5-12.336 27.5-27.5zm-40 0c0-6.893 5.607-12.5 12.5-12.5s12.5 5.607 12.5 12.5-5.607 12.5-12.5 12.5-12.5-5.607-12.5-12.5z"/><path d="m164.5 422.5c15.163 0 27.5-12.336 27.5-27.5s-12.337-27.5-27.5-27.5-27.5 12.336-27.5 27.5 12.337 27.5 27.5 27.5zm0-40c6.893 0 12.5 5.607 12.5 12.5s-5.607 12.5-12.5 12.5-12.5-5.607-12.5-12.5 5.607-12.5 12.5-12.5z"/><path d="m321 395c0 15.164 12.337 27.5 27.5 27.5s27.5-12.336 27.5-27.5-12.337-27.5-27.5-27.5-27.5 12.336-27.5 27.5zm40 0c0 6.893-5.607 12.5-12.5 12.5s-12.5-5.607-12.5-12.5 5.607-12.5 12.5-12.5 12.5 5.607 12.5 12.5z"/><path d="m361.5 225h31c4.143 0 7.5-3.358 7.5-7.5s-3.357-7.5-7.5-7.5h-31c-4.143 0-7.5 3.358-7.5 7.5s3.357 7.5 7.5 7.5z"/><path d="m151.5 210h-31c-4.143 0-7.5 3.358-7.5 7.5s3.357 7.5 7.5 7.5h31c4.143 0 7.5-3.358 7.5-7.5s-3.357-7.5-7.5-7.5z"/><path d="m361.5 195h31c4.143 0 7.5-3.358 7.5-7.5s-3.357-7.5-7.5-7.5h-31c-4.143 0-7.5 3.358-7.5 7.5s3.357 7.5 7.5 7.5z"/><path d="m151.5 180h-31c-4.143 0-7.5 3.358-7.5 7.5s3.357 7.5 7.5 7.5h31c4.143 0 7.5-3.358 7.5-7.5s-3.357-7.5-7.5-7.5z"/><path d="m361.5 255h31c4.143 0 7.5-3.358 7.5-7.5s-3.357-7.5-7.5-7.5h-31c-4.143 0-7.5 3.358-7.5 7.5s3.357 7.5 7.5 7.5z"/><path d="m159 247.5c0-4.142-3.357-7.5-7.5-7.5h-31c-4.143 0-7.5 3.358-7.5 7.5s3.357 7.5 7.5 7.5h31c4.143 0 7.5-3.358 7.5-7.5z"/></g></g></svg>