<svg id="Capa_1" enable-background="new 0 0 512 512" height="512" viewBox="0 0 512 512" width="512" xmlns="http://www.w3.org/2000/svg"><g><g><path d="m239.972 441.791h36.028l-1.514-10.513 1.514-7.354v-206h-36.028z" fill="#f8f7f7"/><path d="m276 423.924v15h-40v-221h15v202c0 2.209 1.791 4 4 4z" fill="#e8e8e8"/><path d="m202.239 206.113c0-17.35 6.795-32.512 19.346-42.593 9.422-7.568 21.39-12.096 34.415-12.096 30.376 0 55 24.624 55 55 0 10.712-3.062 20.709-8.36 29.163-3.824 6.102-9.597 10.351-15.439 14.534-9.013 6.454-19.271 9.991-31.202 9.991-30.375.001-53.76-23.624-53.76-53.999z" fill="#f8f7f7"/><path d="m303.62 233.955c-9.51 16.42-27.27 27.47-47.62 27.47-30.38 0-55-24.62-55-55 0-17.72 8.37-33.48 21.38-43.53-4.69 8.1-7.38 17.5-7.38 27.53 0 30.38 24.62 55 55 55 12.66-.001 24.32-4.281 33.62-11.47z" fill="#e8e8e8"/><path d="m102.102 385.254-.333.249c-5.797 4.33-13.915 3.87-19.097-1.18-46.349-45.164-75.172-108.224-75.172-177.899 0-69.361 28.568-132.175 74.553-177.308 5.177-5.081 13.319-5.554 19.129-1.212l.349.261c7.257 5.423 7.975 16.037 1.509 22.382-40.429 39.672-65.54 94.893-65.54 155.877 0 61.25 25.336 116.696 66.078 156.407 6.504 6.339 5.8 16.988-1.476 22.423z" fill="#ccf49f"/><path d="m152.582 347.551-.33.246c-5.585 4.17-13.323 3.874-18.58-.703-39.291-34.213-64.172-84.588-64.172-140.67 0-55.765 24.597-105.89 63.51-140.096 5.252-4.617 13.022-4.926 18.624-.741l.339.253c7.574 5.658 7.905 16.802.806 23.045-32.645 28.708-53.279 70.762-53.279 117.539 0 47.049 20.871 89.312 53.837 118.028 7.153 6.231 6.846 17.423-.755 23.099z" fill="#b3e59f"/><path d="m204.09 309.071-.347.259c-4.997 3.733-11.828 3.974-17.005.496-33.292-22.366-55.238-60.372-55.238-103.401 0-42.695 21.601-80.438 54.455-102.872 5.178-3.536 12.055-3.313 17.079.439l.356.266c8.1 6.049 7.914 18.318-.443 24.006-25.001 17.017-41.447 45.705-41.447 78.161 0 32.722 16.712 61.606 42.049 78.571 8.442 5.652 8.68 17.994.541 24.075z" fill="#95d6a4"/><path d="m380.5 206.424c0 42.729-21.636 80.505-54.536 102.927-5.247 3.576-12.212 3.339-17.299-.461-8.223-6.143-8.002-18.575.476-24.36 24.949-17.024 41.359-45.683 41.359-78.106 0-32.27-16.252-60.809-41.001-77.862-8.291-5.713-8.438-17.922-.37-23.947l.364-.272c5.043-3.766 11.952-3.976 17.13-.398 32.524 22.479 53.877 60.032 53.877 102.479z" fill="#95d6a4"/><path d="m442.5 206.424c0 55.849-24.666 106.032-63.673 140.244-5.252 4.607-13.013 4.913-18.61.733l-.347-.259c-7.58-5.661-7.905-16.817-.793-23.056 32.728-28.707 53.422-70.815 53.422-117.663 0-46.585-20.457-88.477-52.864-117.174-7.059-6.25-6.71-17.358.844-23.001l.348-.26c5.614-4.194 13.405-3.874 18.651.771 38.63 34.198 63.022 84.132 63.022 139.665z" fill="#b3e59f"/><path d="m504.5 206.424c0 69.382-28.584 132.209-74.588 177.333-5.247 5.147-13.498 5.621-19.386 1.223l-.003-.002c-7.366-5.502-8.085-16.269-1.525-22.71 40.405-39.67 65.501-94.884 65.501-155.844 0-60.783-24.945-115.844-65.14-155.488-6.437-6.349-5.706-16.937 1.537-22.348l.352-.263c5.818-4.346 13.972-3.863 19.143 1.236 45.726 45.095 74.109 107.73 74.109 176.863z" fill="#ccf49f"/><path d="m221.5 438.924h69c11.046 0 20 8.954 20 20v13l-1.289 9.179c0 2.761-2.239 5-5 5l-97.055.165c-2.761 0-5-2.239-5-5v-21.092c0-9.319 5.718-18.402 14.344-20.622 1.598-.411 3.274-.63 5-.63z" fill="#f8f7f7"/><path d="m310.5 471.924v10c0 2.761-2.239 5-5 5h-99c-2.761 0-5-2.239-5-5v-23c0-9.32 6.37-17.15 15-19.37v28.37c0 2.209 1.791 4 4 4z" fill="#e8e8e8"/></g><g><path d="m45 206.425c0-29.358 5.941-57.784 17.659-84.488 1.664-3.793-.062-8.217-3.854-9.881-3.794-1.666-8.217.061-9.882 3.854-12.556 28.615-18.923 59.069-18.923 90.515 0 61.368 24.271 118.821 68.343 161.778 2.32 2.343 3.473 7.502-.733 11.045-2.142 1.755-6.358 2.425-9.704-.296-47.014-45.813-72.906-107.084-72.906-172.527 0-65.124 25.679-126.192 72.306-171.956 1.796-1.808 6.332-2.867 9.736-.296 2.595 2.011 4.426 6.962.746 11.021-11.835 11.612-22.408 24.536-31.425 38.411-2.257 3.473-1.271 8.118 2.202 10.375s8.118 1.271 10.375-2.202c8.422-12.959 18.298-25.031 29.353-35.878 8.836-8.225 9.068-25.664-2.269-33.74-8.13-6.532-21.346-6.16-29.225 1.604-24.041 23.596-42.936 51.171-56.158 81.961-13.697 31.892-20.641 65.772-20.641 100.7 0 35.085 7.004 69.105 20.819 101.113 13.337 30.903 32.387 58.545 56.618 82.157 7.604 7.244 19.493 8.636 29.152 1.568 10.049-7.159 12.363-24.223 2.223-33.803-41.149-40.108-63.812-93.747-63.812-151.035z"/><path d="m158.263 318.798c-32.578-28.379-51.263-69.338-51.263-112.373 0-42.766 18.491-83.555 50.731-111.907 9.808-8.2 10.487-26.193-1.267-34.684-7.599-6.131-20.52-6.089-28.407.861-41.98 36.903-66.057 90.019-66.057 145.73 0 56.056 24.329 109.389 66.747 146.325 7.284 6.132 19.11 7.77 28.322.811 10.756-7.574 12.071-25.434 1.194-34.763zm-10.169 22.743c-2.018 1.598-5.707 2.383-9.497-.104-39.145-34.086-61.597-83.296-61.597-135.012 0-51.398 22.22-100.408 60.961-134.463 1.179-.623 3.31-2.672 7.144-1.3 1.71.612 3.211 1.773 4.164 3.319 1.647 2.671 1.634 5.94-1.444 9.273-35.477 31.199-55.825 76.093-55.825 123.171 0 47.374 20.561 92.455 56.411 123.684 2.42 2.665 4.324 6.691-.317 11.432z"/><path d="m208.231 315.339c11.938-8.034 12.453-28.102-.509-36.575-24.246-16.234-38.722-43.277-38.722-72.339 0-28.792 14.268-55.694 38.167-71.961 12.018-7.602 12.961-27.238.713-36.212-6.787-5.51-18.359-6.254-26.155-.893-21.475 14.664-38.03 35.077-47.876 59.03-1.575 3.832.254 8.214 4.085 9.789 3.833 1.575 8.214-.254 9.789-4.085 8.729-21.237 23.412-39.338 42.461-52.346 1.686-1.177 5.544-1.767 8.718.521 2.835 2.161 4.615 8.029-.175 11.796-28.007 19.063-44.727 50.599-44.727 84.361 0 34.077 16.963 65.779 45.376 84.803 3.002 2.087 4.883 7.713.226 11.833-1.847 1.469-5.088 2.362-8.682.539-32.51-21.842-51.92-58.169-51.92-97.175 0-4.138.219-8.311.652-12.404.436-4.119-2.551-7.812-6.67-8.247-4.114-.434-7.812 2.55-8.247 6.67-.488 4.614-.735 9.318-.735 13.981 0 44.012 21.89 84.994 58.555 109.626 6.983 4.553 17.254 5.384 25.676-.712z"/><path d="m374.358 264.842c1.878-3.791.254-8.405-3.633-10.165-3.722-1.685-8.116.111-9.939 3.767-8.942 17.937-22.439 33.392-39.047 44.71-3.184 2.171-7.718 1.485-10.246-1.948-.569-.773-.969-1.669-1.17-2.607-.679-3.168.534-6.161 3.044-7.873 27.948-19.07 44.633-50.585 44.633-84.301 0-33.532-16.54-64.949-44.245-84.038-2.948-2.112-4.755-7.684-.139-11.761 1.52-1.213 3.966-2.033 6.76-1.289 1.044.278 2.013.794 2.896 1.417 31.16 21.971 49.728 57.651 49.728 95.671 0 6.882-.604 13.779-1.797 20.497-.724 4.079 1.996 7.972 6.074 8.695 4.072.719 7.971-1.996 8.695-6.074 1.345-7.582 2.027-15.359 2.027-23.118 0-43.316-21.351-83.933-57.112-108.649-7.091-5.093-18.67-5.103-26.246.831-11.518 8.104-12.037 27.68.603 36.132 23.642 16.289 37.756 43.088 37.756 71.686 0 28.755-14.238 55.637-38.087 71.911-6.074 4.145-9.639 10.753-9.772 18.122-.107 5.907 2.118 11.701 6.218 15.955 7.234 7.351 19.05 9.486 28.828 3.138 18.814-12.823 34.087-30.357 44.171-50.709z"/><path d="m384.449 61.145c-7.326-6.675-20.121-7.406-28.458-.903-10.69 7.534-12.064 25.26-1.327 34.624 31.989 28.327 50.336 68.989 50.336 111.559 0 42.837-18.541 83.668-50.868 112.024-9.829 8.2-10.518 26.205 1.255 34.706 7.366 5.718 19.798 6.638 28.386-.848 42.088-36.915 66.227-90.087 66.227-145.882 0-55.45-23.893-108.403-65.551-145.28zm-10.567 279.885c-1.055.938-3.044 1.69-5.246 1.57-3.145-.172-5.939-2.335-6.865-5.345-.591-1.922-.323-4.057 1.212-6.248.517-.738 1.158-1.381 1.831-1.979 35.085-31.175 55.186-75.799 55.186-122.603 0-46.861-20.189-91.616-55.393-122.789-1.991-2.23-3.619-5.381-1.424-9.1.869-1.473 2.191-2.652 3.743-3.369 1.673-.773 3.971-1.136 7.58 1.209 38.445 34.032 60.494 82.891 60.494 134.049 0 51.476-22.276 100.538-61.118 134.605z"/><path d="m435.658 24.222c-7.727-7.621-20.149-8.44-28.898-1.904-10.278 7.116-12.849 24.013-2.666 33.958 40.565 40.01 62.906 93.334 62.906 150.149 0 56.997-22.465 110.442-63.256 150.493-9.062 8.507-9.095 25.838 2.291 34.071 7.735 5.876 20.8 6.404 29.129-1.876 24.052-23.592 42.955-51.168 56.185-81.964 13.703-31.899 20.651-65.787 20.651-100.724 0-68.945-27.112-133.653-76.342-182.203zm-10.998 354.181c-.927.899-2.475 1.635-4.25 1.831-3.885.43-7.595-2.272-8.209-6.132-.324-2.037.157-4.346 2.052-6.481 43.687-42.894 67.747-100.141 67.747-161.196 0-60.86-23.927-117.977-67.373-160.827-2.398-2.41-3.41-7.934 1.11-11.263 2.859-2.136 6.895-1.892 9.388.567 46.35 45.71 71.875 106.624 71.875 171.523 0 65.145-25.69 126.221-72.34 171.978z"/><path d="m290.5 431.425h-7v-49.479c0-4.142-3.357-7.5-7.5-7.5s-7.5 3.358-7.5 7.5v49.479h-25v-163.758c4.04.823 8.22 1.258 12.5 1.258s8.46-.434 12.5-1.258v79.046c0 4.142 3.357 7.5 7.5 7.5s7.5-3.358 7.5-7.5v-84.18c20.71-10.192 35-31.509 35-56.108 0-34.462-28.037-62.5-62.5-62.5-34.462 0-62.5 28.038-62.5 62.5 0 24.599 14.29 45.916 35 56.108v168.892h-7c-15.164 0-27.5 12.336-27.5 27.5v23c0 6.893 5.607 12.5 12.5 12.5h99c6.893 0 12.5-5.607 12.5-12.5v-23c0-15.164-12.337-27.5-27.5-27.5zm-82-225c0-26.191 21.309-47.5 47.5-47.5s47.5 21.309 47.5 47.5-21.309 47.5-47.5 47.5-47.5-21.309-47.5-47.5zm94.5 273h-94v-20.5c0-6.893 5.607-12.5 12.5-12.5h69c6.893 0 12.5 5.607 12.5 12.5z"/></g></g></svg>