<svg id="Capa_1" enable-background="new 0 0 512 512" height="512" viewBox="0 0 512 512" width="512" xmlns="http://www.w3.org/2000/svg"><g><g><g><path d="m256 7.5c-72.102 0-137.033 30.709-182.426 79.761-23.815 25.735-38.18 56.885-49.454 90.931-8.141 24.582-10.9 50.497-10.9 77.808 0 137.24 100.558 239.587 237.798 239.587 89.583 0 173.078-38.493 216.804-109.585 23.262-37.821 36.678-82.345 36.678-130.002 0-137.24-111.26-248.5-248.5-248.5z" fill="#f8f7f7"/><path d="m471.41 379.97c-42.92 74.43-123.32 124.53-215.41 124.53-137.24 0-248.5-111.26-248.5-248.5 0-67.23 26.71-128.23 70.09-172.97-21.05 36.49-33.09 78.82-33.09 123.97 0 137.24 111.26 248.5 248.5 248.5 70.01 0 133.25-28.95 178.41-75.53z" fill="#e8e8e8"/><g fill="#7dc3ee"><path d="m101.5 101.5c29.051-29.051 64.838-48.918 103.839-58.132 2.408-.569 4.445 1.874 3.438 4.133-8.618 19.343-16.028 39.223-22.196 59.494-.359 1.18-1.4 2.038-2.631 2.114-21.746 1.34-40.191 14.865-48.595 33.834-.505 1.139-1.675 1.823-2.918 1.741-10.565-.702-21.583-1.054-33.128-1.054-8.263 0-16.798.177-25.629.531-2.414.097-3.953-2.562-2.662-4.604 8.614-13.621 18.808-26.383 30.482-38.057z"/><path d="m292.961 279.343c-19.13 13.451-37.47 24.494-56.298 33.273-1.273.594-2.796.217-3.641-.905-8.425-11.189-20.881-19.16-35.212-21.774-1.342-.245-2.341-1.391-2.427-2.752-1.318-20.777-1.291-41.618.066-62.387.089-1.359 1.087-2.5 2.426-2.746 14.003-2.571 26.212-10.262 34.612-21.06.851-1.093 2.35-1.454 3.607-.872 18.929 8.772 37.36 19.838 56.575 33.339 1.096.77 1.556 2.182 1.108 3.444-2.118 5.969-3.277 12.401-3.277 19.098 0 6.985 1.254 13.673 3.554 19.862.472 1.267.014 2.701-1.093 3.48z"/><path d="m39.807 256.369c0-18.562-.01-37.143 4.454-54.674 2.127-8.351 4.745-16.548 7.841-24.555.421-1.088 1.449-1.834 2.613-1.913 27.553-1.883 51.908-2.212 74.052-.876 1.358.082 2.492 1.073 2.747 2.41 3.498 18.325 15.777 33.538 32.287 41.089 1.124.514 1.792 1.685 1.704 2.918-.846 11.892-1.265 23.816-1.265 35.732 0 11.598.4 23.197 1.2 34.77.085 1.228-.579 2.395-1.698 2.908-16.769 7.692-29.159 23.287-32.402 42.023-.235 1.36-1.38 2.378-2.758 2.46-14.333.857-29.596 1.019-46.053.514-8.785-.269-16.703-1.971-26.209-2.616-1.157-.079-2.181-.817-2.605-1.896-9.852-25.112-13.908-50.506-13.908-78.294z"/><path d="m102.174 409.771c-11.377-11.377-21.199-22.658-29.67-35.89-1.306-2.039.232-4.71 2.652-4.616 8.6.337 15.93.762 23.99.762 1.86 0 3.87-.667 5.703-.685 9.689-.096 19.002-.448 27.988-1.054 1.24-.084 2.42.578 2.944 1.705 8.549 18.39 26.616 31.462 47.873 32.878 1.229.082 2.265.939 2.621 2.118 3.176 10.512 6.686 20.921 10.523 31.205 3.548 9.509 5.892 17.696 9.997 26.975 1.001 2.262-1.042 4.699-3.448 4.125-38.802-9.266-72.252-28.602-101.173-57.523z"/><path d="m458.768 340.149c-20.94 46.242-53.625 81.895-92.886 104.814-13.816 8.065-28.636 12.998-43.855 17.816-21.137 6.693-41.515 10.289-64.322 10.289-2.702 0-5.391-.047-8.071-.146-1.097-.041-2.088-.684-2.579-1.665-4.001-7.991-9.472-14.638-13.001-22.794-7.114-16.438-13.271-33.192-18.471-50.18-.4-1.307.136-2.728 1.307-3.434 16.548-9.978 27.61-28.123 27.61-48.849 0-.716-.013-1.426-.04-2.133-.046-1.217.647-2.332 1.757-2.834 20.905-9.461 42.014-21.798 65.31-38.213 1.021-.719 2.392-.749 3.417-.034 19.331 13.484 47.406 15.291 73.995-4.814.235-.177.448-.391.625-.626 35.31-46.905 2.63-98.346-42.064-98.346-12.401 0-23.877 3.958-33.229 10.69-1.026.739-2.416.721-3.451-.005-23.036-16.181-43.943-28.378-64.648-37.742-1.119-.506-1.824-1.636-1.757-2.862.056-1.022.085-2.049.085-3.08 0-20.628-10.95-38.694-27.362-48.693-1.165-.71-1.695-2.128-1.294-3.432 7.85-25.49 17.86-50.447 30.022-74.588.493-.979 1.484-1.62 2.579-1.659 2.511-.089 5.029-.128 7.554-.128 58.36 0 113.23 22.73 154.5 64 60.754 60.754 81.33 150.981 48.36 238.427-.027.074-.058.148-.091.221z"/></g><path d="m82.53 339.17c-8.78-.26-17.91-.72-27.42-1.37-1.15-.08-2.18-.82-2.6-1.9-9.85-25.11-15.01-52.11-15.01-79.9 0-19 2.41-37.64 7.08-55.56-.05 2.18-.08 4.37-.08 6.56 0 48.57 13.94 93.88 38.03 132.17z" fill="#64acdc"/><path d="m204.83 468.51c-38.8-9.27-74.41-29.09-103.33-58.01-11.38-11.38-21.35-23.79-29.82-37.02-1.3-2.04.23-4.71 2.65-4.62 8.6.34 16.92.51 24.98.51 1.86 0 3.71-.01 5.54-.03 24.9 28.83 56.31 51.87 91.95 66.85h.01c3.54 9.51 7.37 18.91 11.47 28.19 1 2.27-1.04 4.7-3.45 4.13z" fill="#64acdc"/><path d="m366.98 444.3c-33.27 19.7-71.32 30.2-110.98 30.2-2.7 0-5.39-.05-8.07-.15-1.1-.04-2.09-.68-2.58-1.66-4-7.99-7.77-16.07-11.29-24.23 18.89 4.6 38.63 7.04 58.94 7.04 25.77 0 50.61-3.92 73.98-11.2z" fill="#64acdc"/><circle cx="187.5" cy="166.115" fill="#7dc3ee" r="27"/><circle cx="187.5" cy="346" fill="#7dc3ee" r="27"/><circle cx="347.5" cy="256" fill="#7dc3ee" r="27"/></g></g><g><path d="m298.908 228.681c-21.957-15.566-42.212-27.473-61.923-36.403-3.263-1.479-7.116-.443-9.198 2.473-7.839 10.978-19.952 18.355-33.233 20.243-3.5.498-6.178 3.373-6.426 6.9-1.592 22.669-1.615 45.611-.07 68.188.242 3.536 2.927 6.42 6.436 6.915 13.612 1.918 25.914 9.539 33.752 20.91 1.453 1.8 5.139 4.433 9.285 2.568 19.627-8.946 39.809-20.845 61.7-36.378 2.861-2.03 3.933-5.772 2.58-9.009-4.545-10.944-5.325-24.867-.276-37.502 1.286-3.219.2-6.9-2.627-8.905zm-62.212 75.621c-8.833-10.417-20.792-17.796-34.032-20.998-1.017-18.119-.997-36.442.059-54.624 12.887-3.136 24.606-10.258 33.365-20.275 15.938 7.618 31.914 17.064 49.547 29.289-3.229 10.938-3.719 24.764.251 37.443-17.51 12.148-33.375 21.556-49.19 29.165z"/><path d="m437.019 74.981c-48.353-48.352-112.64-74.981-181.019-74.981s-132.666 26.629-181.019 74.981c-48.352 48.353-74.981 112.64-74.981 181.019s26.629 132.666 74.981 181.019c48.353 48.352 112.64 74.981 181.019 74.981 36.318 0 71.414-7.452 104.313-22.15 31.778-14.196 59.924-34.403 83.656-60.059 2.812-3.041 2.628-7.786-.413-10.599s-7.786-2.628-10.599.413c-45.496 49.186-109.994 77.395-176.957 77.395-132.888 0-241-108.112-241-241s108.112-241 241-241 241 108.112 241 241c0 49.309-14.787 96.713-42.763 137.087-2.358 3.405-1.511 8.077 1.894 10.436s8.077 1.511 10.437-1.893c29.722-42.895 45.432-93.254 45.432-145.63 0-68.379-26.629-132.666-74.981-181.019z"/><path d="m347.5 290.5c19.023 0 34.5-15.477 34.5-34.5s-15.477-34.5-34.5-34.5-34.5 15.477-34.5 34.5 15.477 34.5 34.5 34.5zm0-54c10.752 0 19.5 8.748 19.5 19.5s-8.748 19.5-19.5 19.5-19.5-8.748-19.5-19.5 8.748-19.5 19.5-19.5z"/><path d="m245.807 481.772c63.098 3.026 125.281-21.022 169.997-65.969 42.687-42.688 66.196-99.44 66.196-159.803s-23.509-117.115-66.196-159.803c-44.651-44.73-105.91-68.785-169.473-65.989-2.698.122-5.122 1.685-6.347 4.093-12.957 25.483-23.729 52.291-32.013 79.678-1.022 3.38.451 7.015 3.538 8.729 16.629 9.239 27.086 28.125 25.29 47.714-.286 3.196 1.492 6.221 4.425 7.523 21.589 9.589 42.892 22.019 67.041 39.117 2.696 1.909 6.325 1.83 8.936-.198 12.562-9.768 29.693-13.059 45.943-7.842 3.927 1.309 8.176-.818 9.484-4.748s-.817-8.177-4.748-9.485c-16.963-5.89-39.355-3.725-55.304 6.975-21.502-14.94-40.976-26.322-60.578-35.402.002-.121.002-.242.002-.362 0-21.356-10.58-41.209-27.975-53.166 7.34-23.229 16.521-45.989 27.346-67.787 57.373-1.394 113.171 20.955 153.825 61.755 39.855 39.856 61.804 92.842 61.804 149.198s-21.949 109.342-61.804 149.197c-40.705 40.783-96.336 63.238-154.329 61.743-10.728-21.737-19.826-44.43-27.102-67.592 17.383-11.827 28.023-31.475 28.231-52.712 19.843-9.193 39.552-20.737 61.336-35.922 10.228 6.419 21.932 9.787 34.167 9.787 35.565 0 64.5-28.935 64.5-64.5 0-13.569-4.167-26.554-12.052-37.549-2.414-3.367-7.101-4.136-10.465-1.725-3.366 2.414-4.139 7.099-1.725 10.466 6.048 8.431 9.243 18.392 9.243 28.807 0 27.294-22.206 49.5-49.5 49.5-10.816 0-21.091-3.428-29.711-9.913-2.609-1.962-6.187-2.012-8.851-.122-24.371 17.303-45.863 29.871-67.636 39.552-2.892 1.286-4.665 4.247-4.433 7.402 1.584 18.401-8.83 38.037-25.589 47.006-3.103 1.703-4.592 5.344-3.573 8.734 8.217 27.326 18.898 54.075 31.749 79.503 1.221 2.416 3.648 3.986 6.351 4.11z"/><path d="m153 346c0 19.023 15.477 34.5 34.5 34.5s34.5-15.477 34.5-34.5-15.477-34.5-34.5-34.5-34.5 15.477-34.5 34.5zm54 0c0 10.752-8.748 19.5-19.5 19.5s-19.5-8.748-19.5-19.5 8.748-19.5 19.5-19.5 19.5 8.748 19.5 19.5z"/><path d="m187.5 131.615c-19.023 0-34.5 15.477-34.5 34.5s15.477 34.5 34.5 34.5 34.5-15.477 34.5-34.5-15.477-34.5-34.5-34.5zm0 54c-10.752 0-19.5-8.748-19.5-19.5s8.748-19.5 19.5-19.5 19.5 8.748 19.5 19.5-8.748 19.5-19.5 19.5z"/><g><path d="m134.561 152.33c-.016 0-.031 0-.047 0l-66.521-.42c-2.69-.017-5.165-1.473-6.486-3.816s-1.286-5.214.091-7.524c9.572-16.058 21.213-30.987 34.599-44.373 5.739-5.739 11.826-11.216 18.093-16.277 3.224-2.604 7.946-2.101 10.547 1.121 2.604 3.222 2.102 7.944-1.121 10.547-5.855 4.73-11.546 9.85-16.911 15.216-9.321 9.321-17.734 19.438-25.114 30.193l48.031.303c9.753-19.64 28.812-32.971 50.581-35.4 5.157-16.594 11.162-32.987 17.927-48.941-16.183 4.577-31.729 11.086-46.38 19.43-3.603 2.049-8.18.793-10.229-2.806s-.793-8.179 2.806-10.229c20.355-11.592 42.324-19.881 65.295-24.638 2.765-.573 5.628.46 7.39 2.675s2.127 5.231.945 7.802c-9.765 21.241-18.143 43.44-24.901 65.981-.93 3.102-3.747 5.257-6.984 5.343-19.766.525-37.29 12.733-44.646 31.101-1.143 2.847-3.901 4.712-6.965 4.712z"/></g><g><path d="m130.991 346.01c-.027 0-.055 0-.082 0l-24.103-.26c-4.142-.045-7.463-3.438-7.419-7.581.045-4.114 3.395-7.419 7.498-7.419h.083l17.805.192c4.341-18.09 16.42-33.566 32.984-42.184-1.314-20.68-1.385-43.468.061-65.488-16.234-8.438-28.24-23.546-32.794-41.204l-67.046.736c-8.615 23.318-12.978 47.915-12.978 73.198 0 25.646 4.493 50.592 13.361 74.225l13.607.147c4.142.044 7.463 3.438 7.419 7.581-.045 4.114-3.395 7.419-7.498 7.419.001.001-18.314-.198-18.761-.202-3.031-.033-5.744-1.887-6.876-4.699-10.784-26.79-16.252-55.21-16.252-84.471 0-28.882 5.325-56.944 15.829-83.407 1.123-2.83 3.845-4.7 6.889-4.733l78.33-.86h.083c3.71 0 6.867 2.715 7.417 6.392 2.544 17.033 14.034 31.724 29.985 38.34 2.992 1.241 4.85 4.262 4.605 7.492-1.773 23.411-1.894 48.919-.069 73.597.236 3.221-1.615 6.231-4.597 7.473-16.252 6.766-27.765 21.783-30.046 39.19-.489 3.737-3.674 6.526-7.435 6.526z"/></g><g><path d="m210.73 477.33c-42.739-6.896-83.245-30.248-114.534-61.527-13.086-13.086-24.511-27.657-33.957-43.308-1.983-3.286-1.166-7.539 1.895-9.855 1.566-1.187 3.467-1.671 5.295-1.48 4.05.121 42.036-.25 65.445-.519h.087c3.012 0 5.735 1.803 6.909 4.583 7.499 17.77 24.784 29.643 44.036 30.25 3.229.102 6.03 2.26 6.952 5.356 6.7 22.507 15.009 44.674 24.694 65.885 1.175 2.574.802 5.589-.965 7.799-1.439 1.801-3.657 3.113-5.857 2.816zm-128.251-101.186c7.188 10.33 15.336 20.064 24.325 29.053 25.552 25.552 56.751 43.934 90.942 53.702-6.704-15.922-12.654-32.28-17.764-48.838-21.174-2.487-39.907-15.419-49.753-34.367-10.279.115-34.088.364-47.75.45z"/></g></g></g></svg>