<svg id="Capa_1" enable-background="new 0 0 512.02 512.02" height="512" viewBox="0 0 512.02 512.02" width="512" xmlns="http://www.w3.org/2000/svg"><g><g><path d="m468.613 182.57 3.397 13.93v226.97c0 42.036-31.836 77.289-72.933 81.178-2.233.211-4.914-.379-7.198-.357-44.75.43-78.11-36.763-78.11-81.413l-.936-134.862c0-13.219-10.06-23.18-21.793-27.608-3.001-1.133-6.231-1.796-9.61-1.898-17.23-.51-31.42 13.37-31.42 30.49v135c0 42.619-33.118 77.502-75.024 80.317-1.81.122-3.638-.356-5.479-.356h-1.5c-44.46 0-79.101-36.733-79.101-81.193l.276-191.168h49.328v43.38l-1.933 17.109 1.933 12.891v119.02c0 16.29 13.21 29.5 29.5 29.5h1.5c2.683 0 5.282-.358 7.753-1.03 12.53-3.405 22.947-12.572 22.947-26.179l.55-135.743c0-44.87 34.286-81.909 79.156-82.349 2.819-.027 5.401-.61 8.149-.356 41.407 3.822 73.945 38.761 73.945 81.157v134.87c0 16.05 12.56 29.64 28.61 30.12 3.287.097 6.458-.347 9.433-1.25 12.113-3.674 22.377-13.595 22.377-26.89l.495-243.281h45.688z" fill="#f8f7f7"/><g fill="#e8e8e8"><path d="m177.26 504.12c-2.55.26-5.13.38-7.75.38h-1.5c-44.46 0-80.5-36.04-80.5-80.5v-119.02l2.828-13.882-2.828-16.118v-43.38h17v192.4c0 41.84 31.92 76.23 72.75 80.12z"/><path d="m289.05 207.94c-41.22 4.32-73.04 39.82-73.04 82.1v133.96c0 16.29-13.21 29.5-29.5 29.5h-1.5c-2.68 0-5.28-.36-7.75-1.04 12.53-3.4 21.75-14.85 21.75-28.46v-133.96c0-44.87 35.83-82.1 80.7-82.54 3.16-.03 6.27.12 9.34.44z"/><path d="m400.01 504.55c-2.54.27-5.11.42-7.71.45-44.75.43-81.29-35.85-81.29-80.5v-134.85c0-13.98-9.22-26.15-22.04-29.93 2.99-.88 6.17-1.31 9.46-1.21 16.59.5 29.58 14.54 29.58 31.14v134.85c0 41.52 31.59 75.8 72 80.05z"/><path d="m438.01 182.57v241.93c0 16.56-13.72 29.98-30.39 29.49-2.63-.08-5.17-.51-7.57-1.26 12.11-3.66 20.96-14.93 20.96-28.23v-228l1.915-13.93z"/></g><path d="m138.51 274.98v30h-51l2.828-13.882-2.828-16.118z" fill="#ffd163"/><path d="m87.51 274.98h17v30h-17z" fill="#ffb65f"/><g><path d="m171.51 224.977v-21l-56.236-2.879-59.41 2.879-.095 19.855c0 11.046 8.954 20 20 20l73.798-.073c9.318 0 19.091-5.154 21.312-13.779.412-1.599.631-3.275.631-5.003z" fill="#b6c4cf"/><path d="m170.88 229.98c-2.22 8.62-10.05 15-19.37 15h-77c-11.05 0-20-8.96-20-20v-21l7.424-2.882 7.576 2.882v21c0 2.75 2.24 5 5 5z" fill="#9facba"/><g><path d="m161.494 6h-.969c-8.56 0-14.711 8.299-14.711 16.86l-.027 49.14h30.055l1.152-16.5v-34c0-8.56-6.939-15.5-15.5-15.5z" fill="#ffd163"/><path d="m176.994 55.5v16.5l-17.5 2.107-14.468-2.107v-50.016c0-8.652 6.878-15.706 15.469-15.974v46.396c0 1.709 1.385 3.094 3.094 3.094z" fill="#ffb65f"/></g><g><path d="m66.494 6h-.969c-8.56 0-14.711 8.299-14.711 16.86l-.027 49.14h30.055l1.152-16.5v-34c0-8.56-6.939-15.5-15.5-15.5z" fill="#ffd163"/><path d="m81.994 55.5v16.5l-17.5 2.107-14.468-2.107v-50.016c0-8.652 6.878-15.706 15.469-15.974v46.396c0 1.709 1.385 3.094 3.094 3.094z" fill="#ffb65f"/></g><path d="m168.943 203.245 7.966-14.265 21.601-60.003-86.814-3.016-82.301 2.949 26.264 73.014z" fill="#f8f7f7"/><path d="m176.91 188.98-5.4 15h-117l-27-75 6.681-2.441 9.259 2.441 20.41 56.694c.714 1.984 2.596 3.306 4.704 3.306z" fill="#e8e8e8"/><g><path d="m218.51 81.977v27c0 1.727-.219 3.404-.631 5.003-2.221 8.625-11.434 13.962-20.752 13.962l-168.617.035c-11.046 0-20-8.954-20-20v-25c0-5.523 4.477-10 10-10l4-1h186c5.523 0 10 4.477 10 10z" fill="#f8f7f7"/><path d="m217.88 113.98c-2.22 8.62-10.05 15-19.37 15h-171c-11.05 0-20-8.96-20-20v-27c0-5.53 4.48-10 10-10h5v37c0 2.75 2.24 5 5 5z" fill="#e8e8e8"/></g></g><path d="m472.01 146.5v20l-26.544 2.066-24.456-2.066 1-19c0-5.52 4.48-10 10-10l6-1h24c5.52 0 10 4.48 10 10z" fill="#b6c4cf"/><path d="m472.01 166.5v30h-34l-16.296-1.072.771-28.928z" fill="#ffd163"/><path d="m438.01 136.5v30l-9.14 2.066-7.86-2.066v-20c0-5.52 4.48-10 10-10z" fill="#9facba"/><path d="m421.01 166.5h17v30h-17z" fill="#ffb65f"/></g><g><path d="m80.01 371.199c0 4.142 3.358 7.5 7.5 7.5s7.5-3.358 7.5-7.5v-58.874h36v110.712c0 20.807 16.935 37.734 37.75 37.734s37.75-16.928 37.75-37.734v-133.142c0-17.768 6.298-35.037 17.734-48.624 2.667-3.169 2.26-7.9-.909-10.568-3.169-2.667-7.901-2.26-10.568.909-13.708 16.288-21.258 36.986-21.258 58.283v133.143c0 12.536-10.206 22.734-22.75 22.734s-22.75-10.199-22.75-22.734v-170.682h5.5c15.164 0 27.5-12.336 27.5-27.5v-19.67l24.967-69.318c12.553-2.542 22.033-13.656 22.033-26.942v-26.987c0-9.646-7.851-17.495-17.5-17.495h-24.5v-41.702c0-12.402-10.093-22.492-22.5-22.492s-22.5 10.09-22.5 22.492v41.702h-50v-41.702c0-12.402-10.093-22.492-22.5-22.492s-22.5 10.09-22.5 22.492v41.702h-26.5c-9.649 0-17.5 7.848-17.5 17.495v26.986c0 13.287 9.479 24.401 22.033 26.942l24.967 69.318v19.67c0 15.164 12.336 27.5 27.5 27.5h5.5v118.844zm15-73.873v-14.985h36v14.985zm36-29.985h-36v-14.985h36zm23-244.599c0-4.131 3.364-7.492 7.5-7.492s7.5 3.361 7.5 7.492v41.702h-15zm-95 0c0-4.131 3.364-7.492 7.5-7.492s7.5 3.361 7.5 7.492v41.702h-15zm-44 86.183v-26.986c0-1.375 1.122-2.495 2.5-2.495h191c1.378 0 2.5 1.119 2.5 2.495v26.986c0 6.887-5.607 12.49-12.5 12.49h-62.309c-4.142 0-7.5 3.358-7.5 7.5s3.358 7.5 7.5 7.5h51.636l-21.597 59.962h-106.46l-21.597-59.962h63.019c4.142 0 7.5-3.358 7.5-7.5s-3.358-7.5-7.5-7.5h-73.692c-6.893 0-12.5-5.603-12.5-12.49zm47 115.931v-13.479h102v13.479c0 6.893-5.607 12.5-12.5 12.5h-77c-6.893 0-12.5-5.607-12.5-12.5z"/><path d="m250.2 221.477c9.32-4.263 19.271-6.475 29.579-6.575 19.856-.208 38.63 7.423 52.789 21.445 14.15 14.014 21.942 32.662 21.942 52.51v134.761c0 20.194 16.121 37.08 35.937 37.64 19.323 1.022 38.486-16.216 38.063-36.97v-155.84c0-4.142-3.358-7.5-7.5-7.5s-7.5 3.358-7.5 7.5v155.839c.191 11.004-9.867 22.518-22.639 21.976-11.778-.333-21.361-10.492-21.361-22.646v-134.761c0-23.882-9.371-46.315-26.387-63.167-17.024-16.86-39.565-26.035-63.489-25.787-12.425.12-24.427 2.79-35.672 7.934-3.767 1.723-5.424 6.173-3.701 9.94 1.722 3.766 6.175 5.422 9.939 3.701z"/><path d="m504.51 21.989c-18.313.069-37.475 7.922-50.5 21.982v-36.471c0-4.142-3.358-7.5-7.5-7.5s-7.5 3.358-7.5 7.5v65.728c-11.804-13.478-30.286-20.477-53.909-20.47-4.142 0-7.5 3.358-7.5 7.5s3.358 7.5 7.5 7.5c35.771 0 53.909 17.389 53.909 51.685v9.491h-8c-9.649 0-17.5 7.848-17.5 17.495v87.037c0 4.142 3.358 7.5 7.5 7.5s7.5-3.358 7.5-7.5v-29.562h36v219.313c0 40.317-32.442 73.414-72.318 73.78-38.769 1.236-74.526-33.031-73.682-72.709v-134.783c0-20.69-16.533-38.013-36.855-38.616-19.978-1.071-39.589 16.705-39.145 37.967v134.182c0 40.781-33.084 73.958-73.75 73.958s-73.75-33.178-73.75-73.958v-16.782c0-4.142-3.358-7.5-7.5-7.5s-7.5 3.358-7.5 7.5v16.782c0 49.052 39.813 88.958 88.75 88.958s88.75-39.907 88.75-88.958v-134.182c-.212-11.523 10.354-23.543 23.7-22.974 12.296.365 22.3 10.962 22.3 23.623v134.783c-1.066 46.615 40.635 88.782 87.986 87.712 47.965.107 88.142-39.988 88.014-88.783v-276.788c0-9.647-7.851-17.495-17.5-17.495h-8v-48.471c0-23.159 23.598-43.474 50.5-43.474 4.142 0 7.5-3.358 7.5-7.5s-3.358-7.5-7.5-7.5zm-76 166.915v-14.985h36v14.985zm36-42.475v12.49h-36v-12.49c0-1.376 1.122-2.495 2.5-2.495h31c1.378 0 2.5 1.119 2.5 2.495z"/></g></g></svg>