<svg id="Capa_1" enable-background="new 0 0 512 512" height="512" viewBox="0 0 512 512" width="512" xmlns="http://www.w3.org/2000/svg"><g><g><path d="m72.57 427.25v-76.165l28.59-128.457-28.59-139.128h307.154v76.606l-33.202 108.766 33.202 120.598v37.78z" fill="#f8f7f7"/><path d="m72.724 413.5h307c11.046 0 20 8.954 20 20v5l-2.436 15h-342.564v-20c0-9.319 4.374-17.15 13-19.37 1.598-.411 3.273-.63 5-.63z" fill="#b6c4cf"/><path d="m399.724 438.5v15l-179.904 7.532-167.096-7.532v-20c0-9.32 6.37-17.15 15-19.37v21.37c0 1.657 1.343 3 3 3z" fill="#9facba"/><g><path d="m371.086 182.193-297.578-47.12c-10.289-1.63-18.914-10.298-17.284-20.587 1.337-8.441 6.86-14.904 14.92-15.973 1.765-.234 3.593-.221 5.441.072l301.794 47.799c10.289 1.63 17.309 11.292 15.679 21.581-.1.631-.23 1.25-.389 1.856-2.429 9.263-12.925 13.901-22.583 12.372z" fill="#df646e"/><path d="m393.664 169.82c-2.17 8.3-9.72 14.06-18.22 14.06-.98 0-1.97-.08-2.97-.24l-130.25-17.19-171.54-30.6c-10.29-1.63-17.31-11.3-15.68-21.59 1.34-8.43 8.08-14.67 16.14-15.75-.06.25-.1.5-.14.75-1.63 10.29 5.39 19.96 15.68 21.59z" fill="#dc4955"/></g><g><path d="m371.086 220.374-297.578-47.12c-10.289-1.63-18.914-10.298-17.284-20.587 1.337-8.441 6.86-14.904 14.92-15.973 1.765-.234 3.593-.221 5.441.072l301.794 47.799c10.289 1.63 17.309 11.292 15.679 21.581-.1.631-.23 1.25-.389 1.856-2.429 9.263-12.925 13.901-22.583 12.372z" fill="#df646e"/><path d="m393.664 208.001c-2.17 8.3-9.72 14.06-18.22 14.06-.98 0-1.97-.08-2.97-.24l-145.228-19.537-156.562-28.253c-10.29-1.63-17.31-11.3-15.68-21.59 1.34-8.43 8.08-14.67 16.14-15.75-.06.25-.1.5-.14.75-1.63 10.29 5.39 19.96 15.68 21.59z" fill="#dc4955"/></g><g><path d="m371.715 258.725-297.578-47.119c-10.289-1.63-18.914-10.298-17.284-20.587 1.337-8.441 6.86-14.904 14.92-15.973 1.765-.234 3.593-.221 5.441.072l301.794 47.799c10.289 1.63 17.309 11.292 15.679 21.581-.1.631-.23 1.25-.389 1.856-2.429 9.262-12.925 13.901-22.583 12.371z" fill="#df646e"/><path d="m394.293 246.352c-2.17 8.3-9.72 14.06-18.22 14.06-.98 0-1.97-.08-2.97-.24l-145.228-19.537-156.562-28.253c-10.29-1.63-17.31-11.3-15.68-21.59 1.34-8.43 8.08-14.67 16.14-15.75-.06.25-.1.5-.14.75-1.63 10.29 5.39 19.96 15.68 21.59z" fill="#dc4955"/></g><g><path d="m372.03 296.991-297.578-47.119c-10.289-1.63-18.914-10.298-17.284-20.587 1.337-8.441 6.86-14.904 14.92-15.973 1.765-.234 3.593-.221 5.441.072l301.794 47.799c10.289 1.63 17.309 11.292 15.679 21.581-.1.631-.23 1.25-.389 1.856-2.429 9.262-12.925 13.901-22.583 12.371z" fill="#df646e"/><path d="m394.607 284.618c-2.17 8.3-9.72 14.06-18.22 14.06-.98 0-1.97-.08-2.97-.24l-145.227-19.536-156.563-28.254c-10.29-1.63-17.31-11.3-15.68-21.59 1.34-8.43 8.08-14.67 16.14-15.75-.06.25-.1.5-.14.75-1.63 10.29 5.39 19.96 15.68 21.59z" fill="#dc4955"/></g><g><path d="m372.03 335.172-297.578-47.119c-10.289-1.63-18.914-10.298-17.284-20.587 1.337-8.441 6.86-14.904 14.92-15.973 1.765-.234 3.593-.221 5.441.072l301.794 47.799c10.289 1.63 17.309 11.292 15.679 21.581-.1.631-.23 1.25-.389 1.856-2.429 9.262-12.925 13.901-22.583 12.371z" fill="#df646e"/><path d="m394.607 322.799c-2.17 8.3-9.72 14.06-18.22 14.06-.98 0-2.416.16-3.416 0l-144.781-19.776-156.563-28.254c-10.29-1.63-17.31-11.3-15.68-21.59 1.34-8.43 8.08-14.67 16.14-15.75-.06.25-.1.5-.14.75-1.63 10.29 5.39 19.96 15.68 21.59z" fill="#dc4955"/></g><g><path d="m372.973 411.754-297.578-47.119c-10.289-1.63-18.914-10.298-17.284-20.587 1.337-8.441 6.86-14.904 14.92-15.973 1.765-.234 3.593-.221 5.441.072l301.794 47.799c10.289 1.63 17.309 11.292 15.679 21.581-.1.631-.23 1.25-.389 1.856-2.429 9.262-12.925 13.901-22.583 12.371z" fill="#df646e"/><path d="m395.551 399.381c-2.17 8.3-9.72 14.06-18.22 14.06-.98 0-2.416.16-3.416 0l-301.344-48.03c-10.29-1.63-17.31-11.3-15.68-21.59 1.34-8.43 8.08-14.67 16.14-15.75-.06.25-.1.5-.14.75-1.63 10.29 5.39 19.96 15.68 21.59z" fill="#dc4955"/></g><path d="m454.426 217.727-.33 76.483c0 13.623-6.154 28.364-16.514 37.212-5.18 4.424-12.611 6.657-19.002 8.46s-13.17 2.233-19.896 1.167c0 0-17.493-3.137-18.731-3.334l-301.796-47.799c-2.508-.397-4.978-.281-7.304.272-7.218 1.714-11.03 8.022-12.262 15.803-1.63 10.289 5.564 18.187 15.853 19.817l299.979 47.212c1.239.196 27.591 3.65 31.948 3.65 19.732 0 37.606-5.646 52.844-18.661 3.683-3.146 8.027-5.97 11.067-9.639 12.313-14.859 19.175-33.629 19.175-53.249v-79.157l-21.654-3.772z" fill="#df646e"/><path d="m471.594 346.74c-3.37 4.29-7.18 8.27-11.41 11.88-15.24 13.01-34.45 20.01-54.19 20.01-4.35 0-30.71-3.46-31.94-3.65l-301.8-47.8c-9.29-1.47-15.92-9.5-15.92-18.61 0-.98.08-1.97.24-2.97 1.23-7.78 7.06-13.7 14.28-15.41-.11.46-.2.93-.28 1.41-.16 1-.24 1.99-.24 2.97 0 9.11 6.63 17.14 15.92 18.61l301.8 47.8c1.23.19 27.59 3.65 31.94 3.65 18.64 0 36.8-6.24 51.6-17.89z" fill="#dc4955"/><path d="m483.456 185.5h-17.002l-6.998 1c-3.314 0-6 2.686-6 6v23.465h36v-24.465c0-3.314-2.686-6-6-6z" fill="#f8f7f7"/><path d="m466.454 215.96v79.16c0 13.62-5.94 26.51-16.3 35.36-10.29 8.79-23.82 12.64-37.18 10.61 8.47-1.29 16.51-4.91 23.18-10.61 10.36-8.85 16.3-21.74 16.3-35.36v-79.16l7-2.652z" fill="#dc4955"/><path d="m466.454 185.5v30.46h-14v-24.46c0-3.31 2.69-6 6-6z" fill="#e8e8e8"/><g><path d="m418.591 502.633-385.624-.343c-8.284 0-15-6.716-15-15l-.495-16.033c0-8.284 5.468-17.757 13.752-17.757h390c8.284 0 15 6.716 15 15v21c0 8.284-9.349 13.133-17.633 13.133z" fill="#b6c4cf"/><path d="m436.224 489.5c0 8.28-6.72 15-15 15h-390c-8.284 0-15-6.716-15-15v-21c0-8.28 6.72-15 15-15v29c0 3.866 3.134 7 7 7z" fill="#9facba"/></g><path d="m377.692 95.55-302.923 1.108c-11.046 0-20-8.954-20-20v-18.158l170.077-3.683 174.878 3.683v20c0 1.726-.219 3.402-.63 5-2.22 8.626-12.083 12.05-21.402 12.05z" fill="#b6c4cf"/><path d="m399.094 83.5c-2.22 8.63-10.05 15-19.37 15h-307c-11.046 0-20-8.954-20-20v-20l8.014-3.683 6.986 3.683v18c0 3.866 3.134 7 7 7z" fill="#9facba"/><g><path d="m418.591 56.633-385.624-.343c-8.284 0-15-6.716-15-15l-.495-16.033c0-8.284 5.468-17.757 13.752-17.757h390c8.284 0 15 6.716 15 15v21c0 8.284-9.349 13.133-17.633 13.133z" fill="#b6c4cf"/><path d="m436.224 43.5c0 8.28-6.72 15-15 15h-390c-8.284 0-15-6.716-15-15v-21c0-8.28 6.72-15 15-15v29c0 3.866 3.134 7 7 7z" fill="#9facba"/></g></g><path d="m502.853 115.27c-1.311-3.93-5.556-6.053-9.487-4.744-14.177 4.726-21.902 11.829-25.923 20.924-5.396-4.773-15.043-8.831-23.018-9.026-3.997 0-7.319 3.155-7.487 7.188-.173 4.138 3.042 7.633 7.181 7.806 9.281.387 19.357 7.373 19.382 16.859-.019.905 0 22.517-.006 23.723h-5c-7.444 0-13.5 6.056-13.5 13.5v24.465 79.157c0 11.426-4.983 22.235-13.672 29.656-8.408 7.216-21.331 11.031-33.095 8.564 6.943-9.701 6.634-25.299-3.543-34.568 10.01-9.36 11.257-27.785-.314-38.266 10.149-8.855 10.852-28.618-.325-38.256 10.158-8.852 10.867-28.624-.314-38.266 13.055-11.588 9.181-35.22-6.468-42.545v-36.487c11.528-3.274 20-13.889 20-26.452v-12.502h14c12.406 0 22.5-10.093 22.5-22.5v-21c0-12.407-10.094-22.5-22.5-22.5h-390c-12.406 0-22.5 10.093-22.5 22.5v21c0 12.407 10.094 22.5 22.5 22.5h14v12.5c0 8.185 3.598 15.541 9.291 20.583-9.172 9.393-10.101 27.291 1.149 37.427-9.992 9.36-11.245 27.785.313 38.265-3.995 3.842-6.819 8.964-7.751 14.848-.998 8.012 1.067 16.856 8.068 23.42-9.993 9.361-11.246 27.784.313 38.265-9.988 9.358-11.244 27.777.306 38.257-10.06 9.53-11.199 27.72.314 38.266-12.929 11.629-9.625 36.024 7.844 43.192v36.068c-11.45 3.324-19.847 13.901-19.847 26.408v12.501h-14c-12.406 0-22.5 10.093-22.5 22.5v21c0 12.407 10.094 22.5 22.5 22.5h390c12.406 0 22.5-10.093 22.5-22.5v-21c0-12.407-10.094-22.5-22.5-22.5h-14v-12.5c0-8.618-3.988-16.319-10.211-21.365 5.552-6.247 8.598-16.675 5.199-26.225 21.985 1.47 45.802-6.997 62.845-21.592 20.272-17.315 31.899-42.536 31.899-69.197v-17.149c0-4.142-3.357-7.5-7.5-7.5s-7.5 3.358-7.5 7.5v17.149c0 22.266-9.711 43.33-26.642 57.791-19.041 15.866-40.617 20.924-66.385 16.418-22.448-2.857-315.414-49.548-315.5-49.561-4.967-.828-10.483-5.968-9.446-13 .814-5.124 6.316-10.674 13.424-9.399 0 0 320.052 51.079 320.103 51.087 13.9 2.457 31.878-1.946 43.517-12.273 12.03-10.275 18.93-25.241 18.93-41.062v-71.657h22v19.387c0 4.142 3.357 7.5 7.5 7.5s7.5-3.358 7.5-7.5v-26.887-24.465c0-7.444-6.056-13.5-13.5-13.5h-5v-22.924c0-16.444 2.832-24.725 19.616-30.319 3.925-1.31 6.049-5.557 4.74-9.487zm-429.701 166.232c-4.967-.829-10.483-5.968-9.446-13 .745-5.325 6.861-10.552 13.415-9.401l295.164 46.749c6.756 1.14 17.252 3.932 15.661 14.006-.832 4.966-5.965 10.482-13.001 9.445zm3.241-60.711c.137.022 199.874 31.636 199.874 31.636 3.925.632 7.35-1.489 8.58-6.234.648-4.091-2.143-7.933-6.234-8.581l-206.09-32.642c-4.967-.828-10.483-5.968-9.446-13 .745-5.327 6.873-10.555 13.42-9.4.04.006 294.833 46.719 301.375 47.755 6.188.98 10.425 6.812 9.445 13s-6.805 10.425-13.001 9.445l-61.123-9.681c-4.095-.649-7.932 2.145-8.58 6.234-.648 4.091 2.143 7.933 6.234 8.581 11.187 1.932 57.598 8.876 67.339 10.687 4.966.829 10.482 5.968 9.445 13-.98 6.188-6.796 10.424-13.001 9.445l-301.792-47.8c-4.967-.828-10.483-5.968-9.446-13 .98-6.187 6.808-10.422 13.001-9.445zm-.629-76.532c.141.022 301.027 47.678 301.794 47.8 6.188.98 10.425 6.812 9.445 13s-6.804 10.426-13.001 9.445l-301.794-47.8c-4.966-.829-10.482-5.968-9.445-13 .981-6.187 6.801-10.422 13.001-9.445zm95.618-38.259h200.878v31.816zm18.186-40c4.143 0 7.5-3.358 7.5-7.5s-3.357-7.5-7.5-7.5h-158.307c-4.136 0-7.5-3.364-7.5-7.5v-21c0-4.136 3.364-7.5 7.5-7.5h390c4.136 0 7.5 3.364 7.5 7.5v21c0 4.136-3.364 7.5-7.5 7.5h-196.693c-4.143 0-7.5 3.358-7.5 7.5s3.357 7.5 7.5 7.5h167.692v12.5c0 6.893-5.607 12.5-12.5 12.5 0 0-306.074-.06-308.186-.06-6.772 0-11.314-5.948-11.314-12.44v-12.5zm-114.073 40 301.747 47.792c6.188.98 10.426 6.812 9.446 13s-6.806 10.428-13.001 9.445l-301.794-47.8c-4.966-.829-10.482-5.968-9.445-13 .621-3.987 5.06-10.702 13.047-9.437zm-11.16 239.035c.814-5.123 6.315-10.673 13.422-9.399 0 0 297.899 47.155 301.372 47.754 6.188.98 10.426 6.812 9.446 13s-6.807 10.431-13.001 9.445l-226.794-35.92c-4.091-.646-7.933 2.144-8.58 6.234-.648 4.091 2.143 7.933 6.234 8.581l134.301 21.27h-200.628v-31.776c1.589.156 31.039 5.099 32.939 5.123 3.625 0 6.813-2.634 7.398-6.328.648-4.091-2.143-7.933-6.234-8.581l-40.43-6.404c-4.966-.828-10.48-5.968-9.445-12.999zm364.426 123.465v21c0 4.136-3.364 7.5-7.5 7.5h-390c-4.136 0-7.5-3.364-7.5-7.5v-21c0-4.136 3.364-7.5 7.5-7.5h390c4.135 0 7.5 3.364 7.5 7.5zm-368.5-22.5v-12.5c0-6.893 5.607-12.5 12.5-12.5h307c6.893 0 12.5 5.607 12.5 12.5v12.5zm421.732-237.535h-22v-15.465h22z"/></g></svg>