<svg id="Capa_1" enable-background="new 0 0 512 512" height="512" viewBox="0 0 512 512" width="512" xmlns="http://www.w3.org/2000/svg"><g><g><g><path d="m484.5 102.5v126l-96.243 3.947-91.927-3.947.44-124.729c0-52.47 40.259-95.835 92.729-95.835 2.46 0 4.897-.342 7.31-.159 49.055 3.732 87.691 44.712 87.691 94.723z" fill="#ccf49f"/><path d="m397.5 7.84c-48.73 4.06-87 44.89-87 94.66v126l-8.225 3.947-7.775-3.947v-126c0-52.47 42.53-95 95-95 2.7 0 5.37.11 8 .34z" fill="#b3e59f"/><path d="m484.5 228.5v20l-2.39 15h-185.78v-35z" fill="#b3e59f"/><path d="m310.5 245.5v-17h-16v35l91.665 2.601 98.335-2.601v-15h-171c-1.657 0-3-1.343-3-3z" fill="#95d6a4"/><g><path d="m434.5 298.5 2.032 52.482-1.032 149.518c0 1.657 1.343 3 3 3l11 1h12c1.657 0 3-1.343 3-3v-179l-2.206-9.17 2.206-14.83z" fill="#e8e8e8"/><path d="m464.5 298.5h-15-15v24 179c0 1.657 1.343 3 3 3h12v-179c0-1.657 1.343-3 3-3h12z" fill="#d8d8d8"/></g><g><path d="m314.5 298.5 2.032 52.482-1.032 149.518c0 1.657 1.343 3 3 3l11 1h12c1.657 0 3-1.343 3-3v-179l-2.206-9.17 2.206-14.83z" fill="#e8e8e8"/><path d="m344.5 298.5h-15-15v24 179c0 1.657 1.343 3 3 3h12v-179c0-1.657 1.343-3 3-3h12z" fill="#d8d8d8"/></g><path d="m493.5 306.5h-208c-5.523 0-10-4.477-10-10v-22c0-5.523 4.477-10 10-10l4-1h205c5.523 0 10 4.477 10 10v19l-1 4c0 5.523-4.477 10-10 10z" fill="#f8f7f7"/><path d="m504.5 292.5v5c0 5.523-4.477 10-10 10h-210c-5.523 0-10-4.477-10-10v-24c0-5.523 4.477-10 10-10h5v25c0 2.209 1.791 4 4 4z" fill="#e8e8e8"/><g><path d="m350.826 438.67-42.23-.67c-2.761 0-5-2.239-5-5l-.096-54.5c0-2.761 2.239-5 5-5l6-1h37c2.761 0 5 2.239 5 5v50l-.674 6.17c0 2.761-2.239 5-5 5z" fill="#b6c4cf"/><path d="m356.5 427.5v7c0 2.761-2.239 5-5 5h-44c-2.761 0-5-2.239-5-5v-57c0-2.761 2.239-5 5-5h7v52c0 1.657 1.343 3 3 3z" fill="#9facba"/></g><g><path d="m470.826 438.67-42.23-.67c-2.761 0-5-2.239-5-5l-.096-54.5c0-2.761 2.239-5 5-5l6-1h37c2.761 0 5 2.239 5 5v50l-.674 6.17c0 2.761-2.239 5-5 5z" fill="#b6c4cf"/><path d="m476.5 427.5v7c0 2.761-2.239 5-5 5h-44c-2.761 0-5-2.239-5-5v-57c0-2.761 2.239-5 5-5h7v52c0 1.657 1.343 3 3 3z" fill="#9facba"/></g></g><g><path d="m217.5 102.5v126l-96.243 3.947-91.927-3.947.44-124.729c0-52.47 40.259-95.835 92.729-95.835 2.46 0 4.897-.342 7.31-.159 49.055 3.732 87.691 44.712 87.691 94.723z" fill="#ffd163"/><path d="m130.5 7.84c-48.73 4.06-87 44.89-87 94.66v126l-8.225 3.947-7.775-3.947v-126c0-52.47 42.53-95 95-95 2.7 0 5.37.11 8 .34z" fill="#ffb65f"/><path d="m217.5 228.5v20l-2.39 15h-185.78v-35z" fill="#ffb65f"/><path d="m43.5 245.5v-17h-16v35l91.665 2.601 98.335-2.601v-15h-171c-1.657 0-3-1.343-3-3z" fill="#ff9350"/><g><path d="m167.5 298.5 2.032 52.482-1.032 149.518c0 1.657 1.343 3 3 3l11 1h12c1.657 0 3-1.343 3-3v-179l-2.206-9.17 2.206-14.83z" fill="#e8e8e8"/><path d="m197.5 298.5h-15-15v24 179c0 1.657 1.343 3 3 3h12v-179c0-1.657 1.343-3 3-3h12z" fill="#d8d8d8"/></g><g><path d="m47.5 298.5 2.032 52.482-1.032 149.518c0 1.657 1.343 3 3 3l11 1h12c1.657 0 3-1.343 3-3v-179l-2.206-9.17 2.206-14.83z" fill="#e8e8e8"/><path d="m77.5 298.5h-15-15v24 179c0 1.657 1.343 3 3 3h12v-179c0-1.657 1.343-3 3-3h12z" fill="#d8d8d8"/></g><path d="m226.5 306.5h-208c-5.523 0-10-4.477-10-10v-22c0-5.523 4.477-10 10-10l4-1h205c5.523 0 10 4.477 10 10v19l-1 4c0 5.523-4.477 10-10 10z" fill="#f8f7f7"/><path d="m237.5 292.5v5c0 5.523-4.477 10-10 10h-210c-5.523 0-10-4.477-10-10v-24c0-5.523 4.477-10 10-10h5v25c0 2.209 1.791 4 4 4z" fill="#e8e8e8"/><g><path d="m83.826 438.67-42.23-.67c-2.761 0-5-2.239-5-5l-.096-54.5c0-2.761 2.239-5 5-5l6-1h37c2.761 0 5 2.239 5 5v50l-.674 6.17c0 2.761-2.239 5-5 5z" fill="#b6c4cf"/><path d="m89.5 427.5v7c0 2.761-2.239 5-5 5h-44c-2.761 0-5-2.239-5-5v-57c0-2.761 2.239-5 5-5h7v52c0 1.657 1.343 3 3 3z" fill="#9facba"/></g><g><path d="m203.826 438.67-42.23-.67c-2.761 0-5-2.239-5-5l-.096-54.5c0-2.761 2.239-5 5-5l6-1h37c2.761 0 5 2.239 5 5v50l-.674 6.17c0 2.761-2.239 5-5 5z" fill="#b6c4cf"/><path d="m209.5 427.5v7c0 2.761-2.239 5-5 5h-44c-2.761 0-5-2.239-5-5v-57c0-2.761 2.239-5 5-5h7v52c0 1.657 1.343 3 3 3z" fill="#9facba"/></g></g><path d="m103.5 113.5h38c2.209 0 4 1.791 4 4v58c0 2.209-1.791 4-4 4h-38c-2.209 0-4-1.791-4-4v-58c0-2.209 1.791-4 4-4z" fill="#ff9350"/><g fill="#95d6a4"><path d="m333.5 113.5h41c1.105 0 2 .895 2 2v28.099c0 .225-.038.449-.113.662l-11.888 33.901c-.281.802-1.038 1.338-1.887 1.338h-33.112v-62c0-2.209 1.791-4 4-4z"/><path d="m449.5 117.5v62h-50.868c-1.378 0-2.344-1.362-1.887-2.662l8.905-25.368c.56-1.6.85-3.28.85-4.97v-31c0-1.105.895-2 2-2h37c2.209 0 4 1.791 4 4z"/></g></g><g><path d="m227.5 256h-2.5v-153.5c0-56.519-45.981-102.5-102.5-102.5s-102.5 45.981-102.5 102.5v19.5c0 4.143 3.357 7.5 7.5 7.5s7.5-3.357 7.5-7.5v-19.5c0-48.248 39.252-87.5 87.5-87.5s87.5 39.252 87.5 87.5v118.5h-20v-64.5c0-9.649-7.851-17.5-17.5-17.5h-19.5v-21.5c0-6.341-5.159-11.5-11.5-11.5h-38c-6.341 0-11.5 5.159-11.5 11.5v21.5h-19.5c-9.649 0-17.5 7.851-17.5 17.5v64.5h-20v-64c0-4.143-3.357-7.5-7.5-7.5s-7.5 3.357-7.5 7.5v99h-2.5c-9.649 0-17.5 7.851-17.5 17.5v24c0 9.649 7.851 17.5 17.5 17.5h22.5v50.025c-6.66.265-12 5.751-12 12.475v57c0 6.724 5.34 12.209 12 12.475v57.525c0 4.143 3.357 7.5 7.5 7.5s7.5-3.357 7.5-7.5v-57.5h15v57.5c0 4.143 3.357 7.5 7.5 7.5s7.5-3.357 7.5-7.5v-57.525c6.66-.265 12-5.751 12-12.475v-57c0-6.724-5.34-12.209-12-12.475v-50.025h75v50.025c-6.66.265-12 5.751-12 12.475v57c0 6.724 5.34 12.209 12 12.475v57.525c0 4.143 3.357 7.5 7.5 7.5s7.5-3.357 7.5-7.5v-57.5h15v57.5c0 4.143 3.357 7.5 7.5 7.5s7.5-3.357 7.5-7.5v-57.525c6.66-.265 12-5.751 12-12.475v-57c0-6.724-5.34-12.209-12-12.475v-50.025h22.5c9.649 0 17.5-7.851 17.5-17.5v-24c0-9.649-7.851-17.5-17.5-17.5zm-120.5-135h31v51h-31zm-37 35.5c0-1.379 1.121-2.5 2.5-2.5h19.5v21.5c0 6.341 5.159 11.5 11.5 11.5h38c6.341 0 11.5-5.159 11.5-11.5v-21.5h19.5c1.379 0 2.5 1.121 2.5 2.5v64.5h-105zm12 223.5v52h-39v-52zm-12-15h-15v-50h15zm132 15v52h-39v-52zm-12-15h-15v-50h15zm40-67.5c0 1.379-1.121 2.5-2.5 2.5h-210c-1.379 0-2.5-1.121-2.5-2.5v-24c0-1.379 1.121-2.5 2.5-2.5h141.5c4.143 0 7.5-3.357 7.5-7.5s-3.357-7.5-7.5-7.5h-124v-20h175v20h-16c-4.143 0-7.5 3.357-7.5 7.5s3.357 7.5 7.5 7.5h33.5c1.379 0 2.5 1.121 2.5 2.5z"/><path d="m494.5 256h-2.5v-153.5c0-56.519-45.981-102.5-102.5-102.5s-102.5 45.981-102.5 102.5v153.5h-2.5c-9.649 0-17.5 7.851-17.5 17.5v24c0 9.649 7.851 17.5 17.5 17.5h22.5v50.025c-6.66.265-12 5.751-12 12.475v11.5c0 4.143 3.357 7.5 7.5 7.5s7.5-3.357 7.5-7.5v-9h39v52h-39v-8c0-4.143-3.357-7.5-7.5-7.5s-7.5 3.357-7.5 7.5v10.5c0 6.724 5.34 12.209 12 12.475v57.525c0 4.143 3.357 7.5 7.5 7.5s7.5-3.357 7.5-7.5v-57.5h15v57.5c0 4.143 3.357 7.5 7.5 7.5s7.5-3.357 7.5-7.5v-57.525c6.66-.265 12-5.751 12-12.475v-57c0-6.724-5.34-12.209-12-12.475v-50.025h20c4.143 0 7.5-3.357 7.5-7.5s-3.357-7.5-7.5-7.5h-87.5c-1.379 0-2.5-1.121-2.5-2.5v-24c0-1.379 1.121-2.5 2.5-2.5h210c1.379 0 2.5 1.121 2.5 2.5v24c0 1.379-1.121 2.5-2.5 2.5h-87.5c-4.143 0-7.5 3.357-7.5 7.5s3.357 7.5 7.5 7.5h20v50.025c-6.66.265-12 5.751-12 12.475v57c0 6.724 5.34 12.209 12 12.475v57.525c0 4.143 3.357 7.5 7.5 7.5s7.5-3.357 7.5-7.5v-57.5h15v57.5c0 4.143 3.357 7.5 7.5 7.5s7.5-3.357 7.5-7.5v-57.525c6.66-.265 12-5.751 12-12.475v-57c0-6.724-5.34-12.209-12-12.475v-50.025h22.5c9.649 0 17.5-7.851 17.5-17.5v-24c0-9.649-7.851-17.5-17.5-17.5zm-157.5 109h-15v-50h15zm52.5-350c48.248 0 87.5 39.252 87.5 87.5v118.5h-20c0-29.731 0-74.037 0-103.5 0-6.341-5.159-11.5-11.5-11.5h-39c-4.143 0-7.5 3.357-7.5 7.5v33c0 .841-.145 1.68-.426 2.485l-9.84 28.03c-.806 2.295-.449 4.837.957 6.821s3.688 3.163 6.119 3.163h46.19v34h-105v-34h27.03c3.186 0 6.023-2.012 7.077-5.019l12.47-35.56c.28-.797.423-1.637.423-2.481v-30.439c0-4.143-3.357-7.5-7.5-7.5h-43c-6.341 0-11.5 5.159-11.5 11.5v103.5h-20v-118.5c0-48.248 39.252-87.5 87.5-87.5zm52.5 157h-35.608l6.338-18.054c.843-2.409 1.271-4.915 1.271-7.446v-25.5h28v51zm-105-15.5v-35.5h32v21.663l-10.287 29.337h-21.713zm-35 79.5h175v20h-175zm167 144v52h-39v-52zm-12-15h-15v-50h15z"/></g></g></svg>