<svg id="Capa_1" enable-background="new 0 0 512 512" height="512" viewBox="0 0 512 512" width="512" xmlns="http://www.w3.org/2000/svg"><g><g><path d="m483.5 503.5h-455c-11.046 0-20-8.954-20-20v-455c0-9.317 5.371-18.146 13.994-20.368 1.6-.413 3.277-.632 5.006-.632h81.117l7.532 2 7.532-2h64.819l7.819 2 7.532-2h104.585l7.372 2 7.723-2h65.128l6.809 2 8.17-2h90.862c5.523 0 10 4.477 10 10v90.947l-2 8.681 2 6.383v64.957l-2 7.468 2 7.362v105.277l-2 7.702 2 7.149v65.106l-1 8.074 1 6.926v80.968c0 1.729-.219 3.406-.632 5.006-2.222 8.623-11.051 13.994-20.368 13.994z" fill="#b3e59f"/><path d="m22.5 479.5v-75.989l-1-7.511 1-7.553v-64.936l-1-7.319 1-7.691v-105.075l-1-6.894 1-8.021v-65.128l-1-7.383 1-7.426v-100.418c-8.621 2.224-15 10.029-15 19.344v80.989l1 7.511-1 7.426v65.085l1 7.489-1 7.489v105.064l1 7.447-1 7.511v64.936l1 7.553-1 7.489v81.011c0 11.046 8.954 20 20 20h80.989l7.34-1 7.628 1h65.074l7.213-1 7.755 1h105l7.5-1 7.5 1h65l7.5-1 7.5 1h81c9.316 0 17.121-6.379 19.344-15h-100.205l-7.638 1-7.809-1h-64.755l-7.436 1-7.436-1h-105.032l-7.691 1-7.34-1h-65.011l-7.489 1-7.447-1h-76.054c-5.523 0-10-4.477-10-10z" fill="#95d6a4"/><g fill="#ffb65f"><path d="m272 130-1-14v-10c0-2.761 2.239-5 5-5h20c2.761 0 5 2.239 5 5v10l-1 14z"/><path d="m332 130-1-14v-10c0-2.761 2.239-5 5-5h20c2.761 0 5 2.239 5 5v10l-1 14z"/><path d="m212 130-1-14v-10c0-2.761 2.239-5 5-5h20c2.761 0 5 2.239 5 5v10l-1 14z"/><path d="m152 130-1-14v-10c0-2.761 2.239-5 5-5h20c2.761 0 5 2.239 5 5v10l-1 14z"/></g><g fill="#ff9350"><path d="m271 116h30v17h-30z"/><path d="m331 116h30v17h-30z"/><path d="m211 116h30v17h-30z"/><path d="m151 116h30v17h-30z"/></g><g fill="#ffb65f"><path d="m240 382 1 14.532v9.468c0 2.761-2.239 5-5 5h-20c-2.761 0-5-2.239-5-5v-10l1-14z"/><path d="m180 382 1 14v10c0 2.761-2.239 5-5 5h-20c-2.761 0-5-2.239-5-5v-9.468l1-14.532z"/><path d="m300 382 1 14.191v9.809c0 2.761-2.239 5-5 5h-20c-2.761 0-5-2.239-5-5v-10l1-14z"/><path d="m360 382 1 14.191v9.809c0 2.761-2.239 5-5 5h-20c-2.761 0-5-2.239-5-5v-10l1-14z"/></g><g fill="#ff9350"><path d="m211 379h30v17h-30z"/><path d="m151 379h30v17h-30z"/><path d="m271 379h30v17h-30z"/><path d="m331 379h30v17h-30z"/></g><g fill="#ffb65f"><path d="m382 272 14.149-1h9.851c2.761 0 5 2.239 5 5v20c0 2.761-2.239 5-5 5h-10l-14-1z"/><path d="m382 332 14-1h10c2.761 0 5 2.239 5 5v20c0 2.761-2.239 5-5 5h-10l-14-1z"/><path d="m382 212 14.149-1h9.851c2.761 0 5 2.239 5 5v20c0 2.761-2.239 5-5 5h-10l-14-1z"/><path d="m382 152 14-1h10c2.761 0 5 2.239 5 5v20c0 2.761-2.239 5-5 5h-10l-14-1z"/></g><g fill="#ff9350"><path d="m379 271h17v30h-17z"/><path d="m379 331h17v30h-17z"/><path d="m379 211h17v30h-17z"/><path d="m379 151h17v30h-17z"/></g><g fill="#ffb65f"><path d="m130 240-14 1h-10c-2.761 0-5-2.239-5-5v-20c0-2.761 2.239-5 5-5h10l14 1z"/><path d="m129 179-13 2h-10c-2.761 0-5-2.239-5-5v-20c0-2.761 2.239-5 5-5h10l14 1z"/><path d="m130 300-14 1h-10c-2.761 0-5-2.239-5-5v-20c0-2.761 2.239-5 5-5h9.638l14.362 1z"/><path d="m130 360-14 1h-10c-2.761 0-5-2.239-5-5v-20c0-2.761 2.239-5 5-5h10l14 1z"/></g><g fill="#ff9350"><path d="m116 211h17v30h-17z"/><path d="m116 151h17v30h-17z"/><path d="m116 271h17v30h-17z"/><path d="m116 331h17v30h-17z"/></g><path d="m370 380h-228c-5.523 0-10-4.477-10-10v-228c0-5.523 4.477-10 10-10l9-1h220c5.523 0 10 4.477 10 10v220l-1 9c0 5.523-4.477 10-10 10z" fill="#8d9ca8"/><path d="m154 361c-1.657 0-3-1.343-3-3v-227h-10c-5.523 0-10 4.477-10 10v230c0 5.523 4.477 10 10 10h230c5.523 0 10-4.477 10-10v-10z" fill="#7a8c98"/></g><g><path d="m291 218.5h-70c-4.142 0-7.5 3.357-7.5 7.5s3.358 7.5 7.5 7.5h70c4.142 0 7.5-3.357 7.5-7.5s-3.358-7.5-7.5-7.5z"/><path d="m291 278.5h-70c-4.142 0-7.5 3.357-7.5 7.5s3.358 7.5 7.5 7.5h70c4.142 0 7.5-3.357 7.5-7.5s-3.358-7.5-7.5-7.5z"/><path d="m273.5 263.5c4.142 0 7.5-3.357 7.5-7.5s-3.358-7.5-7.5-7.5h-35c-4.142 0-7.5 3.357-7.5 7.5s3.358 7.5 7.5 7.5z"/><path d="m484.5 0h-401.5c-4.142 0-7.5 3.357-7.5 7.5s3.358 7.5 7.5 7.5h25.5v14.937c0 6.893 5.607 12.5 12.5 12.5h37.5v20.916h-79.25c-9.649 0-17.5 7.851-17.5 17.5v77.647h-19.314v-37.5c0-6.893-5.607-12.5-12.5-12.5h-14.936v-81c0-6.893 5.607-12.5 12.5-12.5h20.5c4.142 0 7.5-3.357 7.5-7.5s-3.358-7.5-7.5-7.5h-20.5c-15.164 0-27.5 12.337-27.5 27.5v400.5c0 4.143 3.358 7.5 7.5 7.5s7.5-3.357 7.5-7.5v-24.5h14.936c6.893 0 12.5-5.607 12.5-12.5v-37.5h19.314v77.647c0 9.649 7.851 17.5 17.5 17.5h79.25v20.916h-37.5c-6.893 0-12.5 5.607-12.5 12.5v14.937h-81c-6.893 0-12.5-5.607-12.5-12.5v-21.5c0-4.143-3.358-7.5-7.5-7.5s-7.5 3.357-7.5 7.5v21.5c0 15.164 12.336 27.5 27.5 27.5h457c15.164 0 27.5-12.336 27.5-27.5v-457c0-15.164-12.336-27.5-27.5-27.5zm-12.436 338.5h-53.564v-2.5c0-6.893-5.607-12.5-12.5-12.5h-17.5v-15h17.5c6.893 0 12.5-5.607 12.5-12.5v-2.5h44.064v17.5c0 6.893 5.607 12.5 12.5 12.5h21.936v65h-12.436v-37.5c0-6.893-5.607-12.5-12.5-12.5zm-121.064 146.063h37.5v12.437h-65v-21.937c0-6.893-5.607-12.5-12.5-12.5h-17.5v-44.063h2.5c6.893 0 12.5-5.607 12.5-12.5v-17.5h15v17.5c0 6.893 5.607 12.5 12.5 12.5h2.5v53.563c0 6.893 5.607 12.5 12.5 12.5zm-132.5-81.063v-15h15v15zm15 61.563v-46.563h2.5c6.893 0 12.5-5.607 12.5-12.5v-17.5h15v17.5c0 6.893 5.607 12.5 12.5 12.5h2.5v46.563c0 6.893 5.607 12.5 12.5 12.5h17.5v19.437h-105v-19.437h17.5c6.893 0 12.5-5.607 12.5-12.5zm45-61.563v-15h15v15zm60 0v-15h15v15zm-197.5-30c-1.378 0-2.5-1.121-2.5-2.5 0-75.501 0-154.467 0-230 0-1.379 1.122-2.5 2.5-2.5h230c1.378 0 2.5 1.121 2.5 2.5v230c0 1.379-1.122 2.5-2.5 2.5 0 0-157.881 0-230 0zm17.5 30v-15h15v15zm-35-50h-15v-15h15zm-17.5-90c-6.893 0-12.5 5.607-12.5 12.5v2.5h-46.564c-6.893 0-12.5 5.607-12.5 12.5v17.5h-19.436v-105h19.436v17.5c0 6.893 5.607 12.5 12.5 12.5h46.564v2.5c0 6.893 5.607 12.5 12.5 12.5h17.5v15zm17.5-90h-15v-15h15zm0 60h-15v-15h15zm-15 45h15v15h-15zm65-170v15h-15v-15zm47.5-74.063h-17.5v-19.437h105v19.437h-17.5c-6.893 0-12.5 5.607-12.5 12.5v46.563h-2.5c-6.893 0-12.5 5.607-12.5 12.5v17.5h-15v-17.5c0-6.893-5.607-12.5-12.5-12.5h-2.5v-46.563c0-6.893-5.607-12.5-12.5-12.5zm132.5 74.063v15h-15v-15zm-15-68.563v53.563h-2.5c-6.893 0-12.5 5.607-12.5 12.5v17.5h-15v-17.5c0-6.893-5.607-12.5-12.5-12.5h-2.5v-44.063h17.5c6.893 0 12.5-5.607 12.5-12.5v-21.937h65v12.437h-37.5c-6.893 0-12.5 5.607-12.5 12.5zm-45 68.563v15h-15v-15zm-60 0v15h-15v-15zm172.5 80c6.893 0 12.5-5.607 12.5-12.5v-2.5h53.564c6.893 0 12.5-5.607 12.5-12.5v-37.5h12.436v65h-21.936c-6.893 0-12.5 5.607-12.5 12.5v17.5h-44.064v-2.5c0-6.893-5.607-12.5-12.5-12.5h-17.5v-15zm59.064 90h-46.564v-2.5c0-6.893-5.607-12.5-12.5-12.5h-17.5v-15h17.5c6.893 0 12.5-5.607 12.5-12.5v-2.5h46.564c6.893 0 12.5-5.607 12.5-12.5v-17.5h19.436v105h-19.436v-17.5c0-6.893-5.607-12.5-12.5-12.5zm-76.564-60h15v15h-15zm0 60h15v15h-15zm15-105h-15v-15h15zm-15 165h15v15h-15zm108.5-311v81h-14.936c-6.893 0-12.5 5.607-12.5 12.5v37.5h-19.314v-22.5c0-4.143-3.358-7.5-7.5-7.5s-7.5 3.357-7.5 7.5v22.5h-16.75v-2.5c0-6.893-5.607-12.5-12.5-12.5h-17.5v-2.5c0-9.649-7.851-17.5-17.5-17.5h-2.5v-17.5c0-6.893-5.607-12.5-12.5-12.5h-2.5v-15.147h79.25c1.378 0 2.5 1.121 2.5 2.5v20.147c0 4.143 3.358 7.5 7.5 7.5s7.5-3.357 7.5-7.5v-20.147c0-9.649-7.851-17.5-17.5-17.5h-79.25v-20.916h37.5c6.893 0 12.5-5.607 12.5-12.5v-14.937h81c6.893 0 12.5 5.607 12.5 12.5zm-373.5-.063v-12.437h65v21.937c0 6.893 5.607 12.5 12.5 12.5h17.5v44.063h-2.5c-6.893 0-12.5 5.607-12.5 12.5v17.5h-15v-17.5c0-6.893-5.607-12.5-12.5-12.5h-2.5v-53.563c0-6.893-5.607-12.5-12.5-12.5zm-46.75 53.416c0-1.379 1.122-2.5 2.5-2.5h79.25v15.147h-2.5c-6.893 0-12.5 5.607-12.5 12.5v17.5h-2.5c-9.649 0-17.5 7.851-17.5 17.5v2.5h-17.5c-6.893 0-12.5 5.607-12.5 12.5v2.5h-16.75zm-49.314 42.647v37.5c0 6.893 5.607 12.5 12.5 12.5h53.564v2.5c0 6.893 5.607 12.5 12.5 12.5h17.5v15h-17.5c-6.893 0-12.5 5.607-12.5 12.5v2.5h-44.064v-17.5c0-6.893-5.607-12.5-12.5-12.5h-21.936v-65zm12.5 215c-6.893 0-12.5 5.607-12.5 12.5v37.5h-12.436v-65h21.936c6.893 0 12.5-5.607 12.5-12.5v-17.5h44.064v2.5c0 6.893 5.607 12.5 12.5 12.5h17.5v15h-17.5c-6.893 0-12.5 5.607-12.5 12.5v2.5zm39.314 95.147c-1.378 0-2.5-1.121-2.5-2.5v-77.647h16.75v2.5c0 6.893 5.607 12.5 12.5 12.5h17.5v2.5c0 9.649 7.851 17.5 17.5 17.5h2.5v17.5c0 6.893 5.607 12.5 12.5 12.5h2.5v15.147zm44.25 50.916h37.5c6.893 0 12.5-5.607 12.5-12.5v-53.563h2.5c6.893 0 12.5-5.607 12.5-12.5v-17.5h15v17.5c0 6.893 5.607 12.5 12.5 12.5h2.5v44.063h-17.5c-6.893 0-12.5 5.607-12.5 12.5v21.937h-65zm361 12.437h-81v-14.937c0-6.893-5.607-12.5-12.5-12.5h-37.5v-20.916h25.5c4.142 0 7.5-3.357 7.5-7.5s-3.358-7.5-7.5-7.5h-25.5v-15.147h2.5c6.893 0 12.5-5.607 12.5-12.5v-17.5h2.5c9.649 0 17.5-7.851 17.5-17.5v-2.5h17.5c6.893 0 12.5-5.607 12.5-12.5v-2.5h16.75v77.647c0 1.379-1.122 2.5-2.5 2.5h-18.75c-4.142 0-7.5 3.357-7.5 7.5s3.358 7.5 7.5 7.5h18.75c9.649 0 17.5-7.851 17.5-17.5v-77.647h19.314v37.5c0 6.893 5.607 12.5 12.5 12.5h14.936v81c0 6.893-5.607 12.5-12.5 12.5z"/></g></g></svg>