<svg id="Capa_1" enable-background="new 0 0 512 512" height="512" viewBox="0 0 512 512" width="512" xmlns="http://www.w3.org/2000/svg"><g><g><path d="m395.5 503.5h-278c-11.046 0-20-8.954-20-20v-116l158.5 1 159.5-1 1 14v103c0 1.729-.219 3.406-.632 5.006-2.222 8.623-11.051 13.994-20.368 13.994z" fill="#8d9ca8"/><path d="m416.5 381.5v-15l-159.5-2.5-160.5 2.5v118c0 11.046 8.954 20 20 20h280c9.316 0 17.121-6.379 19.344-15h-294.344c-5.523 0-10-4.477-10-10v-88c0-5.523 4.477-10 10-10z" fill="#7a8c98"/><path d="m225.5 463.5h-8c-5.523 0-10-4.477-10-10v-86h28l1 14v68l-1 4c0 5.523-4.477 10-10 10z" fill="#ccf49f"/><path d="m155.5 463.5h-8c-5.523 0-10-4.477-10-10v-86h28l1 14v68l-1 4c0 5.523-4.477 10-10 10z" fill="#ccf49f"/><path d="m295.5 463.5h-8c-5.523 0-10-4.477-10-10v-86h28l1 14v68l-1 4c0 5.523-4.477 10-10 10z" fill="#ccf49f"/><path d="m365.5 463.5h-8c-5.523 0-10-4.477-10-10v-86h28l1 14v68l-1 4c0 5.523-4.477 10-10 10z" fill="#ccf49f"/><path d="m236.5 381.5v-15l-15-3-15 3v88c0 5.523 4.477 10 10 10h10c5.523 0 10-4.477 10-10v-5h-12c-1.657 0-3-1.343-3-3v-62c0-1.657 1.343-3 3-3z" fill="#b3e59f"/><path d="m166.5 381.5v-15l-15-3-15 3v88c0 5.523 4.477 10 10 10h10c5.523 0 10-4.477 10-10v-5h-12c-1.657 0-3-1.343-3-3v-62c0-1.657 1.343-3 3-3z" fill="#b3e59f"/><path d="m306.5 381.5v-15l-15-3-15 3v88c0 5.523 4.477 10 10 10h10c5.523 0 10-4.477 10-10v-5h-12c-1.657 0-3-1.343-3-3v-62c0-1.657 1.343-3 3-3z" fill="#b3e59f"/><path d="m376.5 381.5v-15l-15-3-15 3v88c0 5.523 4.477 10 10 10h10c5.523 0 10-4.477 10-10v-5h-12c-1.657 0-3-1.343-3-3v-62c0-1.657 1.343-3 3-3z" fill="#b3e59f"/><path d="m376.5 396.5h-235l-4 1c-5.523 0-10 4.477-10 10v8c0 5.523 4.477 10 10 10h238c5.523 0 10-4.477 10-10l1-4v-5c0-5.523-4.477-10-10-10z" fill="#b6c4cf"/><path d="m144.5 411.5c-1.657 0-3-1.343-3-3v-12h-5c-5.523 0-10 4.477-10 10v10c0 5.523 4.477 10 10 10h240c5.523 0 10-4.477 10-10v-5z" fill="#9facba"/><path d="m444.5 365.5h-377c-16.569 0-30-13.431-30-30v-297c0-11.102 5.031-21.796 13.996-26.984 4.413-2.554 9.538-4.016 15.004-4.016h379c16.569 0 30 13.431 30 30v299c0 5.466-1.462 10.591-4.016 15.004-5.188 8.965-15.882 13.996-26.984 13.996z" fill="#b6c4cf"/><path d="m68.926 351.5c-9.624 0-17.426-7.802-17.426-17.426v-322.551c-8.964 5.188-15 14.874-15 25.977v299c0 16.569 13.431 30 30 30h379c11.102 0 20.789-6.036 25.977-15z" fill="#9facba"/><path d="m434.5 335.5h-357c-5.523 0-10-4.477-10-10v-277c0-5.523 4.477-10 10-10l4-1h354c5.523 0 10 4.477 10 10v274l-1 4c0 5.523-4.477 10-10 10z" fill="#f8f7f7"/><path d="m86.5 321.5c-2.761 0-5-2.239-5-5v-279h-5c-5.523 0-10 4.477-10 10v279c0 5.523 4.477 10 10 10h359c5.523 0 10-4.477 10-10v-5z" fill="#e8e8e8"/><g><path d="m391.5 227.5h-270c-8.284 0-15-6.716-15-15v-40c0-8.284 6.716-15 15-15h270c8.284 0 15 6.716 15 15v40c0 8.284-6.716 15-15 15z" fill="#b6c4cf"/></g><g fill="#df646e"><path d="m271.5 282.5c0-8.284-6.716-15-15-15-2.066 0-4.035.418-5.826 1.173-5.39 2.274-8.174 7.608-8.174 13.827 0 8.284 5.716 14 14 14 6.213 0 11.544-2.778 13.821-8.161.759-1.795 1.179-3.768 1.179-5.839z"/><path d="m211.5 282.5c0-8.284-6.716-15-15-15-2.066 0-4.035.418-5.826 1.173-5.39 2.274-8.174 7.608-8.174 13.827 0 8.284 5.716 14 14 14 6.213 0 11.544-2.778 13.821-8.161.759-1.795 1.179-3.768 1.179-5.839z"/><path d="m151.5 282.5c0-8.284-6.716-15-15-15-2.066 0-4.035.418-5.826 1.173-5.39 2.274-8.174 7.608-8.174 13.827 0 8.284 5.716 14 14 14 6.213 0 11.544-2.778 13.821-8.161.759-1.795 1.179-3.768 1.179-5.839z"/><path d="m331.5 282.5c0-8.284-6.716-15-15-15-2.066 0-4.035.418-5.826 1.173-5.39 2.274-8.174 7.608-8.174 13.827 0 8.284 5.716 14 14 14 6.213 0 11.544-2.778 13.821-8.161.759-1.795 1.179-3.768 1.179-5.839z"/><path d="m391.5 282.5c0-8.284-6.716-15-15-15-2.066 0-4.035.418-5.826 1.173-5.39 2.274-8.174 7.608-8.174 13.827 0 8.284 5.716 14 14 14 6.213 0 11.544-2.778 13.821-8.161.759-1.795 1.179-3.768 1.179-5.839z"/></g><path d="m264.5 289.5c-8.284 0-15-6.716-15-15 0-2.066.418-4.035 1.174-5.826-5.39 2.274-9.174 7.608-9.174 13.826 0 8.284 6.716 15 15 15 6.218 0 11.552-3.784 13.826-9.174-1.791.756-3.76 1.174-5.826 1.174z" fill="#dc4955"/><path d="m204.5 289.5c-8.284 0-15-6.716-15-15 0-2.066.418-4.035 1.174-5.826-5.39 2.274-9.174 7.608-9.174 13.826 0 8.284 6.716 15 15 15 6.218 0 11.552-3.784 13.826-9.174-1.791.756-3.76 1.174-5.826 1.174z" fill="#dc4955"/><path d="m144.5 289.5c-8.284 0-15-6.716-15-15 0-2.066.418-4.035 1.174-5.826-5.39 2.274-9.174 7.608-9.174 13.826 0 8.284 6.716 15 15 15 6.218 0 11.552-3.784 13.826-9.174-1.791.756-3.76 1.174-5.826 1.174z" fill="#dc4955"/><path d="m324.5 289.5c-8.284 0-15-6.716-15-15 0-2.066.418-4.035 1.174-5.826-5.39 2.274-9.174 7.608-9.174 13.826 0 8.284 6.716 15 15 15 6.218 0 11.552-3.784 13.826-9.174-1.791.756-3.76 1.174-5.826 1.174z" fill="#dc4955"/><path d="m384.5 289.5c-8.284 0-15-6.716-15-15 0-2.066.418-4.035 1.174-5.826-5.39 2.274-9.174 7.608-9.174 13.826 0 8.284 6.716 15 15 15 6.218 0 11.552-3.784 13.826-9.174-1.791.756-3.76 1.174-5.826 1.174z" fill="#dc4955"/><path d="m403.5 67.5h-24c-1.657 0-3 1.343-3 3v24c0 1.657 1.343 3 3 3h24c1.657 0 3-1.343 3-3v-24c0-1.657-1.343-3-3-3z" fill="#b6c4cf"/></g><g><path d="m475.5 169.649c4.142 0 7.5-3.357 7.5-7.5v-124.649c0-20.678-16.822-37.5-37.5-37.5h-379c-20.678 0-37.5 16.822-37.5 37.5v299c0 20.678 16.822 37.5 37.5 37.5h22.5v110.5c0 15.163 12.336 27.5 27.5 27.5h48c4.142 0 7.5-3.357 7.5-7.5s-3.358-7.5-7.5-7.5h-48c-6.893 0-12.5-5.607-12.5-12.5v-110.5h25v16.713c-5.902 2.816-10 8.824-10 15.787v10c0 6.963 4.098 12.972 10 15.787v22.213c0 9.649 7.851 17.5 17.5 17.5h10c9.649 0 17.5-7.851 17.5-17.5v-20.5h25v20.5c0 9.649 7.851 17.5 17.5 17.5h10c9.649 0 17.5-7.851 17.5-17.5v-20.5h25v20.5c0 9.649 7.851 17.5 17.5 17.5h10c9.649 0 17.5-7.851 17.5-17.5v-20.5h25v20.5c0 9.649 7.851 17.5 17.5 17.5h10c9.649 0 17.5-7.851 17.5-17.5v-22.213c5.902-2.816 10-8.824 10-15.787v-10c0-6.963-4.098-12.972-10-15.787v-16.713h25v110.5c0 6.893-5.607 12.5-12.5 12.5h-197c-4.142 0-7.5 3.357-7.5 7.5s3.358 7.5 7.5 7.5h197c15.164 0 27.5-12.337 27.5-27.5v-110.5h21.5c20.678 0 37.5-16.822 37.5-37.5v-139.351c0-4.143-3.358-7.5-7.5-7.5s-7.5 3.357-7.5 7.5v139.351c0 12.406-10.093 22.5-22.5 22.5h-379c-12.407 0-22.5-10.094-22.5-22.5v-299c0-12.406 10.093-22.5 22.5-22.5h379c12.407 0 22.5 10.094 22.5 22.5v124.649c0 4.143 3.358 7.5 7.5 7.5zm-99 234.351c1.378 0 2.5 1.121 2.5 2.5v10c0 1.379-1.122 2.5-2.5 2.5h-240c-1.378 0-2.5-1.121-2.5-2.5v-10c0-1.379 1.122-2.5 2.5-2.5zm-62.5-15v-15h25v15zm-15 0h-15v-15h15zm-30 0h-25v-15h25zm-40 0h-15v-15h15zm-30 0h-25v-15h25zm-40 0h-15v-15h15zm0 65.5c0 1.379-1.122 2.5-2.5 2.5h-10c-1.378 0-2.5-1.121-2.5-2.5v-20.5h15zm70 0c0 1.379-1.122 2.5-2.5 2.5h-10c-1.378 0-2.5-1.121-2.5-2.5v-20.5h15zm70 0c0 1.379-1.122 2.5-2.5 2.5h-10c-1.378 0-2.5-1.121-2.5-2.5v-20.5h15zm67.5 2.5h-10c-1.378 0-2.5-1.121-2.5-2.5v-20.5h15v20.5c0 1.379-1.122 2.5-2.5 2.5zm2.5-68h-15v-15h15z"/><path d="m136.5 30h-60c-9.649 0-17.5 7.851-17.5 17.5v195.309c0 4.143 3.358 7.5 7.5 7.5s7.5-3.357 7.5-7.5v-195.309c0-1.379 1.122-2.5 2.5-2.5h60c4.142 0 7.5-3.357 7.5-7.5s-3.358-7.5-7.5-7.5z"/><path d="m59 326.5c0 9.649 7.851 17.5 17.5 17.5h359c9.649 0 17.5-7.851 17.5-17.5v-279c0-9.649-7.851-17.5-17.5-17.5h-264c-4.142 0-7.5 3.357-7.5 7.5s3.358 7.5 7.5 7.5h264c1.378 0 2.5 1.121 2.5 2.5v279c0 1.379-1.122 2.5-2.5 2.5h-359c-1.378 0-2.5-1.121-2.5-2.5v-48.691c0-4.143-3.358-7.5-7.5-7.5s-7.5 3.357-7.5 7.5z"/><path d="m121.5 150c-12.407 0-22.5 10.094-22.5 22.5v40c0 12.406 10.093 22.5 22.5 22.5h270c12.407 0 22.5-10.094 22.5-22.5v-40c0-12.406-10.093-22.5-22.5-22.5zm157.5 70h-45v-55h45zm15-55h45v55h-45zm-75 55h-45v-55h45zm-105-7.5v-40c0-4.136 3.364-7.5 7.5-7.5h37.5v55h-37.5c-4.136 0-7.5-3.364-7.5-7.5zm285-40v40c0 4.136-3.364 7.5-7.5 7.5h-37.5v-55h37.5c4.136 0 7.5 3.364 7.5 7.5z"/><path d="m206.5 120h-20c-4.142 0-7.5 3.357-7.5 7.5s3.358 7.5 7.5 7.5h20c4.142 0 7.5-3.357 7.5-7.5s-3.358-7.5-7.5-7.5z"/><path d="m266.5 120h-20c-4.142 0-7.5 3.357-7.5 7.5s3.358 7.5 7.5 7.5h20c4.142 0 7.5-3.357 7.5-7.5s-3.358-7.5-7.5-7.5z"/><path d="m326.5 135c4.142 0 7.5-3.357 7.5-7.5s-3.358-7.5-7.5-7.5h-20c-4.142 0-7.5 3.357-7.5 7.5s3.358 7.5 7.5 7.5z"/><path d="m359 127.5c0 4.143 3.358 7.5 7.5 7.5h20c4.142 0 7.5-3.357 7.5-7.5s-3.358-7.5-7.5-7.5h-20c-4.142 0-7.5 3.357-7.5 7.5z"/><path d="m146.5 135c4.142 0 7.5-3.357 7.5-7.5s-3.358-7.5-7.5-7.5h-20c-4.142 0-7.5 3.357-7.5 7.5s3.358 7.5 7.5 7.5z"/><path d="m234 282.5c0 12.406 10.093 22.5 22.5 22.5s22.5-10.094 22.5-22.5-10.093-22.5-22.5-22.5-22.5 10.094-22.5 22.5zm30 0c0 4.136-3.364 7.5-7.5 7.5s-7.5-3.364-7.5-7.5 3.364-7.5 7.5-7.5 7.5 3.364 7.5 7.5z"/><path d="m174 282.5c0 12.406 10.093 22.5 22.5 22.5s22.5-10.094 22.5-22.5-10.093-22.5-22.5-22.5-22.5 10.094-22.5 22.5zm30 0c0 4.136-3.364 7.5-7.5 7.5s-7.5-3.364-7.5-7.5 3.364-7.5 7.5-7.5 7.5 3.364 7.5 7.5z"/><path d="m114 282.5c0 12.406 10.093 22.5 22.5 22.5s22.5-10.094 22.5-22.5-10.093-22.5-22.5-22.5-22.5 10.094-22.5 22.5zm30 0c0 4.136-3.364 7.5-7.5 7.5s-7.5-3.364-7.5-7.5 3.364-7.5 7.5-7.5 7.5 3.364 7.5 7.5z"/><path d="m294 282.5c0 12.406 10.093 22.5 22.5 22.5s22.5-10.094 22.5-22.5-10.093-22.5-22.5-22.5-22.5 10.094-22.5 22.5zm30 0c0 4.136-3.364 7.5-7.5 7.5s-7.5-3.364-7.5-7.5 3.364-7.5 7.5-7.5 7.5 3.364 7.5 7.5z"/><path d="m354 282.5c0 12.406 10.093 22.5 22.5 22.5s22.5-10.094 22.5-22.5-10.093-22.5-22.5-22.5-22.5 10.094-22.5 22.5zm30 0c0 4.136-3.364 7.5-7.5 7.5s-7.5-3.364-7.5-7.5 3.364-7.5 7.5-7.5 7.5 3.364 7.5 7.5z"/><path d="m267.5 75h-43c-4.142 0-7.5 3.357-7.5 7.5s3.358 7.5 7.5 7.5h43c4.142 0 7.5-3.357 7.5-7.5s-3.358-7.5-7.5-7.5z"/><path d="m194.5 75h-73c-4.142 0-7.5 3.357-7.5 7.5s3.358 7.5 7.5 7.5h73c4.142 0 7.5-3.357 7.5-7.5s-3.358-7.5-7.5-7.5z"/><path d="m403.5 105c5.79 0 10.5-4.71 10.5-10.5v-24c0-5.79-4.71-10.5-10.5-10.5h-24c-5.79 0-10.5 4.71-10.5 10.5v24c0 5.79 4.71 10.5 10.5 10.5zm-19.5-30h15v15h-15z"/><path d="m136.5 180c-4.142 0-7.5 3.357-7.5 7.5v10c0 4.143 3.358 7.5 7.5 7.5s7.5-3.357 7.5-7.5v-10c0-4.143-3.358-7.5-7.5-7.5z"/><path d="m196.5 205c4.142 0 7.5-3.357 7.5-7.5v-10c0-4.143-3.358-7.5-7.5-7.5s-7.5 3.357-7.5 7.5v10c0 4.143 3.358 7.5 7.5 7.5z"/><path d="m256.5 205c4.142 0 7.5-3.357 7.5-7.5v-10c0-4.143-3.358-7.5-7.5-7.5s-7.5 3.357-7.5 7.5v10c0 4.143 3.358 7.5 7.5 7.5z"/><path d="m316.5 180c-4.142 0-7.5 3.357-7.5 7.5v10c0 4.143 3.358 7.5 7.5 7.5s7.5-3.357 7.5-7.5v-10c0-4.143-3.358-7.5-7.5-7.5z"/><path d="m376.5 205c4.142 0 7.5-3.357 7.5-7.5v-10c0-4.143-3.358-7.5-7.5-7.5s-7.5 3.357-7.5 7.5v10c0 4.143 3.358 7.5 7.5 7.5z"/></g></g></svg>