<svg id="Capa_1" enable-background="new 0 0 512 512" height="512" viewBox="0 0 512 512" width="512" xmlns="http://www.w3.org/2000/svg"><g><g><path d="m484.5 125h-89.25l-7.25 1-7.75-1h-109.25l-7.5 1-7.5-1h-109.25l-7.5 1-7.5-1h-104.25c-1.729 0-3.406.219-5.006.632-8.623 2.222-13.994 11.051-13.994 20.368v220c0 11.046 8.954 20 20 20l455-1c9.317 0 18.146-4.371 20.368-12.994.412-1.6.632-3.277.632-5.006v-142l-2-31.191 2-28.809v-20c0-11.046-8.954-20-20-20z" fill="#f8f7f7"/><g fill="#e8e8e8"><path d="m271 366v-141l-1-30.404 1-29.596v-40h-15v40l1 30-1 30v162h124.25l3.722-7.468-3.722-7.532h-103.25c-3.314 0-6-2.686-6-6z"/><path d="m146.75 366v-141l-1-30 1-30v-40h-15v40l1 30-1 30v162h124.25l6.211-7.743-6.211-7.257h-103.25c-3.314 0-6-2.686-6-6z"/><path d="m22.5 366v-141l-1-30 1-30v-39.344c-8.621 2.223-15 10.029-15 19.344v20l1 30-1 30v142c0 11.046 8.954 20 20 20h104.25l6.278-6.642-6.278-8.358h-103.25c-3.314 0-6-2.686-6-6z"/><path d="m395.25 366v-141l-1-30 1-30v-40h-15v40l1 30-1 30v162h104.25c9.316 0 17.121-6.379 19.344-15h-102.594c-3.314 0-6-2.686-6-6z"/></g><path d="m380.25 165h-109.25l-7.5 1-7.5-1h-109.25l-7.5 1-7.5-1h-109.25l-14 1v58l14 1h109.25l7.5-1 7.5 1h109.25l7.5-1 7.5 1h109.25l7.5-1 7.5 1h109.25v-60h-109.25l-7.5 1z" fill="#df646e"/><path d="m131.75 165h15v60h-15z" fill="#dc4955"/><path d="m7.5 165h15v60h-15z" fill="#dc4955"/><path d="m256 165h15v60h-15z" fill="#dc4955"/><path d="m380.25 165h15v60h-15z" fill="#dc4955"/><path d="m88.625 324h-38v-18c0-5.523 4.477-10 10-10l1-1h18c5.523 0 10 4.477 10 10v8z" fill="#ffd163"/><path d="m212.875 324h-38v-19c0-5.523 3.477-9 9-9l2-1h18c5.523 0 10 4.477 10 10v8z" fill="#ffd163"/><path d="m337.125 324h-38v-18c0-5.523 4.477-10 10-10l1-1h18c5.523 0 10 4.477 10 10v8z" fill="#ffd163"/><path d="m461.375 324h-38v-18c0-5.523 4.477-10 10-10l1-1h18c5.523 0 10 4.477 10 10v8z" fill="#ffd163"/><path d="m61.625 310v-15h-2c-5.523 0-10 4.477-10 10v20l20 2 20-2v-12h-25c-1.657 0-3-1.343-3-3z" fill="#ffb65f"/><path d="m185.875 310v-15h-2c-5.523 0-10 4.477-10 10v20l20.763 2 19.237-2v-12h-25c-1.657 0-3-1.343-3-3z" fill="#ffb65f"/><path d="m310.125 310v-15h-2c-5.523 0-10 4.477-10 10v20l20 2 20-2v-12h-25c-1.657 0-3-1.343-3-3z" fill="#ffb65f"/><path d="m434.375 310v-15h-2c-5.523 0-10 4.477-10 10v20l22.114 2 17.886-2v-12h-25c-1.657 0-3-1.343-3-3z" fill="#ffb65f"/><path d="m90.75 354h-42.25c-5.523 0-10-4.477-10-10v-8c0-5.523 4.477-10 10-10l1.125-1h42.125c5.523 0 10 4.477 10 10v8l-1 1c0 5.523-4.477 10-10 10z" fill="#ffd163"/><path d="m216 354h-44.25c-5.523 0-9-3.477-9-9v-10c0-5.523 3.477-9 9-9l2.125-1h42.125c5.523 0 10 4.477 10 10v8l-1 2c0 5.523-3.477 9-9 9z" fill="#ffd163"/><path d="m339.25 354h-42.25c-5.523 0-10-4.477-10-10v-8c0-5.523 4.477-10 10-10l1.125-1h42.125c5.523 0 10 4.477 10 10v8l-1 1c0 5.523-4.477 10-10 10z" fill="#ffd163"/><path d="m463.5 354h-42.25c-5.523 0-10-4.477-10-10v-8c0-5.523 4.477-10 10-10l1.125-1h42.125c5.523 0 10 4.477 10 10v8l-1 1c0 5.523-4.477 10-10 10z" fill="#ffd163"/><path d="m52.625 343c-1.657 0-3-1.343-3-3v-15h-2.125c-5.523 0-10 4.477-10 10v10c0 5.523 4.477 10 10 10h44.25c5.523 0 10-4.477 10-10v-2z" fill="#ffb65f"/><path d="m176.875 343c-1.657 0-3-1.343-3-3v-15h-2.125c-5.523 0-10 4.477-10 10v10c0 5.523 4.477 10 10 10h44.25c5.523 0 10-4.477 10-10v-2z" fill="#ffb65f"/><path d="m301.125 343c-1.657 0-3-1.343-3-3v-15h-2.125c-5.523 0-10 4.477-10 10v10c0 5.523 4.477 10 10 10h44.25c5.523 0 10-4.477 10-10v-2z" fill="#ffb65f"/><path d="m425.375 343c-1.657 0-3-1.343-3-3v-15h-2.125c-5.523 0-10 4.477-10 10v10c0 5.523 4.477 10 10 10h44.25c5.523 0 10-4.477 10-10v-2z" fill="#ffb65f"/></g><g><path d="m484.5 117.5c-143.472.008-313.604.001-457 0-15.164 0-27.5 12.337-27.5 27.5v160c0 4.143 3.358 7.5 7.5 7.5s7.5-3.357 7.5-7.5v-72.5h109.25v147h-96.75c-6.893 0-12.5-5.607-12.5-12.5v-27c0-4.143-3.358-7.5-7.5-7.5s-7.5 3.357-7.5 7.5v27c0 15.163 12.336 27.5 27.5 27.5 143.598-.001 313.589-.007 457 0 15.163 0 27.5-12.337 27.5-27.5v-222c0-15.163-12.337-27.5-27.5-27.5zm12.5 100h-109.25v-45h109.25zm0-72.5v12.5h-109.25v-25h96.75c6.893 0 12.5 5.607 12.5 12.5zm-124.25 12.5h-109.25v-25h109.25zm-124.25-25v25h-109.25v-25zm0 40v45h-109.25v-45zm-233.5 45v-45h43.319c4.142 0 7.5-3.357 7.5-7.5s-3.358-7.5-7.5-7.5h-43.319v-12.5c0-6.893 5.607-12.5 12.5-12.5h96.75v25h-30.931c-4.142 0-7.5 3.357-7.5 7.5s3.358 7.5 7.5 7.5h30.931v45zm124.25 162v-147h109.25v147zm124.25 0v-147h35.409c4.143 0 7.5-3.357 7.5-7.5s-3.357-7.5-7.5-7.5h-35.409v-45h109.25v45h-38.841c-4.143 0-7.5 3.357-7.5 7.5s3.357 7.5 7.5 7.5h38.841v147zm221 0h-96.75v-147h109.25v134.5c0 6.893-5.607 12.5-12.5 12.5z"/><path d="m42.125 318.353c-7.026 2.274-12.125 8.873-12.125 16.647v10c0 9.649 7.851 17.5 17.5 17.5h44.25c9.649 0 17.5-7.851 17.5-17.5v-10c0-7.774-5.099-14.373-12.125-16.647v-13.353c0-9.649-7.851-17.5-17.5-17.5h-20c-9.649 0-17.5 7.851-17.5 17.5zm52.125 26.647c0 1.379-1.122 2.5-2.5 2.5h-44.25c-1.378 0-2.5-1.121-2.5-2.5v-10c0-1.379 1.122-2.5 2.5-2.5h44.25c1.378 0 2.5 1.121 2.5 2.5zm-34.625-42.5h20c1.378 0 2.5 1.121 2.5 2.5v12.5h-25v-12.5c0-1.379 1.122-2.5 2.5-2.5z"/><path d="m221.375 318.353v-13.353c0-9.649-7.851-17.5-17.5-17.5h-20c-9.649 0-17.5 7.851-17.5 17.5v13.353c-7.026 2.274-12.125 8.873-12.125 16.647v10c0 9.649 7.851 17.5 17.5 17.5h44.25c9.649 0 17.5-7.851 17.5-17.5v-10c0-7.774-5.099-14.373-12.125-16.647zm-37.5-15.853h20c1.378 0 2.5 1.121 2.5 2.5v12.5h-25v-12.5c0-1.379 1.122-2.5 2.5-2.5zm34.625 42.5c0 1.379-1.122 2.5-2.5 2.5h-44.25c-1.378 0-2.5-1.121-2.5-2.5v-10c0-1.379 1.122-2.5 2.5-2.5h44.25c1.378 0 2.5 1.121 2.5 2.5z"/><path d="m345.625 318.353v-13.353c0-9.649-7.851-17.5-17.5-17.5h-20c-9.649 0-17.5 7.851-17.5 17.5v13.353c-7.026 2.274-12.125 8.873-12.125 16.647v10c0 9.649 7.851 17.5 17.5 17.5h44.25c9.649 0 17.5-7.851 17.5-17.5v-10c0-7.774-5.099-14.373-12.125-16.647zm-37.5-15.853h20c1.379 0 2.5 1.121 2.5 2.5v12.5h-25v-12.5c0-1.379 1.121-2.5 2.5-2.5zm34.625 42.5c0 1.379-1.121 2.5-2.5 2.5h-44.25c-1.379 0-2.5-1.121-2.5-2.5v-10c0-1.379 1.121-2.5 2.5-2.5h44.25c1.379 0 2.5 1.121 2.5 2.5z"/><path d="m469.875 318.353v-13.353c0-9.649-7.851-17.5-17.5-17.5h-20c-9.649 0-17.5 7.851-17.5 17.5v13.353c-7.026 2.274-12.125 8.873-12.125 16.647v10c0 9.649 7.851 17.5 17.5 17.5h44.25c9.649 0 17.5-7.851 17.5-17.5v-10c0-7.774-5.099-14.373-12.125-16.647zm-37.5-15.853h20c1.379 0 2.5 1.121 2.5 2.5v12.5h-25v-12.5c0-1.379 1.121-2.5 2.5-2.5zm34.625 42.5c0 1.379-1.121 2.5-2.5 2.5h-44.25c-1.379 0-2.5-1.121-2.5-2.5v-10c0-1.379 1.121-2.5 2.5-2.5h44.25c1.379 0 2.5 1.121 2.5 2.5z"/><path d="m89.625 267.5c4.142 0 7.5-3.357 7.5-7.5s-3.358-7.5-7.5-7.5h-40c-4.142 0-7.5 3.357-7.5 7.5s3.358 7.5 7.5 7.5z"/><path d="m173.875 267.5h40c4.142 0 7.5-3.357 7.5-7.5s-3.358-7.5-7.5-7.5h-40c-4.142 0-7.5 3.357-7.5 7.5s3.358 7.5 7.5 7.5z"/><path d="m298.125 267.5h40c4.143 0 7.5-3.357 7.5-7.5s-3.357-7.5-7.5-7.5h-40c-4.143 0-7.5 3.357-7.5 7.5s3.357 7.5 7.5 7.5z"/><path d="m422.375 267.5h40c4.143 0 7.5-3.357 7.5-7.5s-3.357-7.5-7.5-7.5h-40c-4.143 0-7.5 3.357-7.5 7.5s3.357 7.5 7.5 7.5z"/><path d="m96.625 187.5h-54c-4.142 0-7.5 3.357-7.5 7.5s3.358 7.5 7.5 7.5h54c4.142 0 7.5-3.357 7.5-7.5s-3.358-7.5-7.5-7.5z"/><path d="m166.875 203h54c4.142 0 7.5-3.357 7.5-7.5s-3.358-7.5-7.5-7.5h-54c-4.142 0-7.5 3.357-7.5 7.5s3.358 7.5 7.5 7.5z"/><path d="m352.625 196c0-4.143-3.357-7.5-7.5-7.5h-54c-4.143 0-7.5 3.357-7.5 7.5s3.357 7.5 7.5 7.5h54c4.143 0 7.5-3.357 7.5-7.5z"/><path d="m415.375 204h54c4.143 0 7.5-3.357 7.5-7.5s-3.357-7.5-7.5-7.5h-54c-4.143 0-7.5 3.357-7.5 7.5s3.357 7.5 7.5 7.5z"/></g></g></svg>