<svg id="Capa_1" enable-background="new 0 0 512 512" height="512" viewBox="0 0 512 512" width="512" xmlns="http://www.w3.org/2000/svg"><g><g><path d="m400.5 503.5h-289c-8.284 0-15-6.716-15-15l1-466c0-8.284 4.716-13 13-13l5-2h22.5l2.5 1 229.5 1.066 4-2.066h27.5c8.284 0 15 6.716 15 15v462l-1 5c0 8.284-6.716 14-15 14z" fill="#b6c4cf"/><path d="m120.5 484.5c-2.761 0-5-2.239-5-5v-472h-5c-8.284 0-15 6.716-15 15v467c0 8.284 6.716 15 15 15h291c8.284 0 15-6.716 15-15v-5z" fill="#9facba"/><path d="m366.5 8.5v441c0 2.761-2.239 5-5 5h-211c-2.761 0-5-2.239-5-5v-441h7.5l12.5-1h193.5z" fill="#9facba"/><path d="m168.5 434.5c-1.657 0-3-1.343-3-3v-116.5l-1-6.043 1-8.957v-45l-1-6.638 1-8.362v-45l-2-7.234 2-7.766v-45l-2-7.83 2-7.17v-45l-2-7.404 2-7.596v-52.5h-12.5l-7.5 1v441c0 2.761 2.239 5 5 5h211c2.761 0 5-2.239 5-5v-13l-7.5-2h-20l-7.426 2-7.574-2h-60l-8.5 2-6.5-2h-60l-7.234 2-7.766-2z" fill="#8d9ca8"/></g><g><path d="m401.5 0h-140.5c-4.142 0-7.5 3.357-7.5 7.5s3.358 7.5 7.5 7.5h98v45h-206v-45h73c4.142 0 7.5-3.357 7.5-7.5s-3.358-7.5-7.5-7.5h-115.5c-12.407 0-22.5 10.094-22.5 22.5v202.25c0 4.143 3.358 7.5 7.5 7.5s7.5-3.357 7.5-7.5v-202.25c0-4.136 3.364-7.5 7.5-7.5h27.5v434.5c0 6.893 5.607 12.5 12.5 12.5h211c6.893 0 12.5-5.607 12.5-12.5v-56.606c0-4.143-3.357-7.5-7.5-7.5s-7.5 3.357-7.5 7.5v54.106h-20v-132h20v42.894c0 4.143 3.357 7.5 7.5 7.5s7.5-3.357 7.5-7.5v-342.894h27.5c4.136 0 7.5 3.364 7.5 7.5v467c0 4.136-3.364 7.5-7.5 7.5h-291c-4.136 0-7.5-3.364-7.5-7.5v-219.75c0-4.143-3.358-7.5-7.5-7.5s-7.5 3.357-7.5 7.5v219.75c0 12.406 10.093 22.5 22.5 22.5h291c12.406 0 22.5-10.094 22.5-22.5v-467c0-12.406-10.094-22.5-22.5-22.5zm-227.5 447h-21v-132h21zm0-147h-21v-45h21zm0-60h-21v-45h21zm0-60h-21v-45h21zm0-60h-21v-45h21zm75 327h-60v-132h60zm75 0h-60v-132h60zm0-147h-135v-45h135zm0-120h-24c-4.143 0-7.5 3.357-7.5 7.5s3.357 7.5 7.5 7.5h24v45h-135v-45h76c4.143 0 7.5-3.357 7.5-7.5s-3.357-7.5-7.5-7.5h-76v-45h135zm0-60h-135v-45h135zm35 180h-20v-45h20zm0-60h-20v-45h20zm0-60h-20v-45h20zm0-60h-20v-45h20z"/><path d="m331 45c4.143 0 7.5-3.357 7.5-7.5s-3.357-7.5-7.5-7.5h-55c-4.143 0-7.5 3.357-7.5 7.5s3.357 7.5 7.5 7.5z"/><path d="m272 105h29c4.143 0 7.5-3.357 7.5-7.5s-3.357-7.5-7.5-7.5h-29c-4.143 0-7.5 3.357-7.5 7.5s3.357 7.5 7.5 7.5z"/><path d="m272 165h29c4.143 0 7.5-3.357 7.5-7.5s-3.357-7.5-7.5-7.5h-29c-4.143 0-7.5 3.357-7.5 7.5s3.357 7.5 7.5 7.5z"/><path d="m264.5 217.5c0 4.143 3.357 7.5 7.5 7.5h29c4.143 0 7.5-3.357 7.5-7.5s-3.357-7.5-7.5-7.5h-29c-4.143 0-7.5 3.357-7.5 7.5z"/><path d="m272 285h29c4.143 0 7.5-3.357 7.5-7.5s-3.357-7.5-7.5-7.5h-29c-4.143 0-7.5 3.357-7.5 7.5s3.357 7.5 7.5 7.5z"/><path d="m214 353.5h12c4.142 0 7.5-3.357 7.5-7.5s-3.358-7.5-7.5-7.5h-12c-4.142 0-7.5 3.357-7.5 7.5s3.358 7.5 7.5 7.5z"/><path d="m214 388.5h12c4.142 0 7.5-3.357 7.5-7.5s-3.358-7.5-7.5-7.5h-12c-4.142 0-7.5 3.357-7.5 7.5s3.358 7.5 7.5 7.5z"/><path d="m214 423.5h12c4.142 0 7.5-3.357 7.5-7.5s-3.358-7.5-7.5-7.5h-12c-4.142 0-7.5 3.357-7.5 7.5s3.358 7.5 7.5 7.5z"/><path d="m287 354h12c4.143 0 7.5-3.357 7.5-7.5s-3.357-7.5-7.5-7.5h-12c-4.143 0-7.5 3.357-7.5 7.5s3.357 7.5 7.5 7.5z"/><path d="m287 389h12c4.143 0 7.5-3.357 7.5-7.5s-3.357-7.5-7.5-7.5h-12c-4.143 0-7.5 3.357-7.5 7.5s3.357 7.5 7.5 7.5z"/><path d="m287 424h12c4.143 0 7.5-3.357 7.5-7.5s-3.357-7.5-7.5-7.5h-12c-4.143 0-7.5 3.357-7.5 7.5s3.357 7.5 7.5 7.5z"/><circle cx="184" cy="37.5" r="7.5"/><circle cx="212" cy="97.5" r="7.5"/><circle cx="242" cy="97.5" r="7.5"/><circle cx="212" cy="157.501" r="7.5"/><circle cx="242" cy="157.501" r="7.5"/><circle cx="212" cy="217.503" r="7.5"/><circle cx="242" cy="217.503" r="7.5"/><circle cx="212" cy="277.504" r="7.5"/><circle cx="242" cy="277.504" r="7.5"/></g></g></svg>