<svg id="Capa_1" enable-background="new 0 0 512 512" height="512" viewBox="0 0 512 512" width="512" xmlns="http://www.w3.org/2000/svg"><g><g><path d="m227.509 225.5 1-14v-179c0-13.807-11.193-25-25-25-3.452 0-6.74.7-9.731 1.965-8.973 3.795-14.269 13.68-14.269 24.035v192z" fill="#f8f7f7"/><path d="m332.509 225.5 1-14v-179c0-13.807-11.193-25-25-25-3.452 0-6.74.7-9.731 1.965-8.973 3.795-14.269 13.68-14.269 24.035v192z" fill="#f8f7f7"/><path d="m193.509 206.5v-196.914c-8.828 3.858-15 12.663-15 22.914v194l25 2 25-2v-15h-30c-2.761 0-5-2.239-5-5z" fill="#e8e8e8"/><path d="m298.509 206.5v-196.914c-8.828 3.858-15 12.663-15 22.914v194l25.5 2 24.5-2v-15h-30c-2.761 0-5-2.239-5-5z" fill="#e8e8e8"/><path d="m292.009 477.5-2.593 14-1.893 4.821c-.878 4.74-5.012 7.179-9.833 7.179h-44.364c-4.821 0-7.955-3.439-8.833-8.179l-3.485-16.821 13.407-1 23.699-1z" fill="#b6c4cf"/><path d="m240.078 491.5c-1.778 0-3.303-1.269-3.627-3.017l-2.034-10.983-7.79-1-6.617 1 3.485 18.821c.878 4.74 5.012 8.179 9.833 8.179h45.364c4.821 0 8.955-3.439 9.833-8.179l.893-4.821z" fill="#9facba"/><path d="m240.509 258.5 1-14v-8c0-5.523-4.477-10-10-10h-51l-4 1c-5.523 0-10 4.477-10 10v21z" fill="#b6c4cf"/><path d="m345.509 258.5 1-14v-8c0-5.523-4.477-10-10-10h-51l-4 1c-5.523 0-10 4.477-10 10v21z" fill="#b6c4cf"/><path d="m180.509 239.5v-13h-5c-5.523 0-10 4.477-10 10v23l38.5 2 37.5-2v-15h-56c-2.761 0-5-2.239-5-5z" fill="#9facba"/><path d="m285.509 239.5v-13h-5c-5.523 0-10 4.477-10 10v23l38 2 38-2v-15h-56c-2.761 0-5-2.239-5-5z" fill="#9facba"/><path d="m195.605 426.149v30.351c0 11.046 9.3 20.689 20.346 20.689l3.495.311h78.064c11.046 0 20-8.954 20-20v-32l-55.394-2-52.606 2z" fill="#f8f7f7"/><path d="m220.509 477.5c-6.075 0-11-4.925-11-11v-10l-1-7.713 1-7.287v-16l-7.5-2-7.5 2v16l1 7.287-1 7.713v1c0 11.046 8.954 20 20 20z" fill="#e8e8e8"/><path d="m326.455 417.08-10.945 6.42h-119l-12.945-8.42c-18.124-13.942-28.772-31.81-33.733-54.132-1.543-6.945-2.322-14.037-2.322-21.151l-1-70.297c0-4.971 4.029-9 9-9l7-1h195c4.971 0 9 4.029 9 9v71.297c0 7.114-.779 14.207-2.322 21.151-4.226 19.019-14.033 36.256-28.054 49.565-2.435 2.311-6.997 4.504-9.679 6.567z" fill="#f8f7f7"/><path d="m336.121 410.5h-125.374c-5.312 0-10.444-1.922-14.449-5.41l-3.192-2.78c-14.044-12.232-23.904-28.555-28.196-46.677-1.594-6.732-2.4-13.627-2.4-20.545v-75.588h-8c-4.971 0-9 4.029-9 9v71.297c0 7.114.779 14.207 2.322 21.151 4.96 22.322 17.608 42.19 35.733 56.132l10.945 8.42h123l10.945-8.42c4.585-3.527 7.666-6.58 7.666-6.58z" fill="#e8e8e8"/><path d="m256.009 398.5c-29.128 0-57-23.019-57-55 0-17.29 6.605-33.838 18.646-44.474 10.23-9.036 23.663-14.526 38.354-14.526 31.981 0 58 26.019 58 58 0 11.771-3.525 22.735-9.575 31.891-10.386 15.719-28.215 24.109-48.425 24.109z" fill="#b2e5fb"/><path d="m269.009 386.5c-31.981 0-58-26.019-58-58 0-11.771 3.534-22.728 9.584-31.884-13.723 10.617-22.584 27.231-22.584 45.884 0 31.981 26.019 58 58 58 20.21 0 38.029-10.397 48.416-26.116-9.805 7.586-22.088 12.116-35.416 12.116z" fill="#98e0f9"/></g><g><path d="m357.509 252h-3.5v-15.5c0-8.091-5.528-14.898-13-16.892v-187.108c0-17.921-14.58-32.5-32.5-32.5s-32.5 14.579-32.5 32.5v187.108c-7.472 1.993-13 8.801-13 16.892v15.5h-14v-15.5c0-8.091-5.528-14.898-13-16.892v-187.108c0-17.921-14.58-32.5-32.5-32.5s-32.5 14.579-32.5 32.5v22.5c0 4.143 3.358 7.5 7.5 7.5s7.5-3.357 7.5-7.5v-22.5c0-9.649 7.851-17.5 17.5-17.5s17.5 7.851 17.5 17.5v186.5h-35v-129c0-4.143-3.358-7.5-7.5-7.5s-7.5 3.357-7.5 7.5v129.608c-7.472 1.993-13 8.801-13 16.892v15.5h-3.5c-9.098 0-16.5 7.402-16.5 16.5v71.297c-.714 35.117 19.599 69.894 49 89.396v28.307c0 14.914 11.937 27.085 26.758 27.481l2.353 12.706c1.536 8.293 8.773 14.312 17.208 14.312h45.363c8.435 0 15.671-6.02 17.208-14.313l2.353-12.705c14.821-.396 26.758-12.567 26.758-27.481v-28.307c7.975-5.987 16.435-12.533 23.569-20.883 2.703-3.14 2.349-7.875-.79-10.577-3.14-2.704-7.876-2.35-10.577.79-4.868 6.097-15.191 14.237-22.252 19.478h-57.802c-4.142 0-7.5 3.357-7.5 7.5s3.358 7.5 7.5 7.5h52.853v11h-108v-11h19.853c4.142 0 7.5-3.357 7.5-7.5s-3.358-7.5-7.5-7.5h-24.804c-26.143-17.278-44.283-45.734-44.051-78.203v-71.298c0-.827.673-1.5 1.5-1.5h203c.827 0 1.5.673 1.5 1.5v71.297c-.042 9.379-1.578 20.094-5.347 30.56-1.407 3.896.611 8.195 4.507 9.602 3.898 1.409 8.195-.611 9.601-4.508 3.734-10.236 6.226-23.013 6.238-35.653v-71.298c.001-9.098-7.401-16.5-16.499-16.5zm-76.36 242.955c-.22 1.185-1.253 2.045-2.458 2.045h-45.363c-1.205 0-2.239-.86-2.458-2.044l-1.845-9.956h53.968zm28.761-35.955c-.745 6.187-6.017 11-12.401 11-1.426 0-82.667 0-83 0-6.384 0-11.657-4.813-12.401-11zm-75.901-207h-61v-15.5c0-1.379 1.122-2.5 2.5-2.5h56c1.378 0 2.5 1.121 2.5 2.5zm57-219.5c0-9.649 7.851-17.5 17.5-17.5s17.5 7.851 17.5 17.5v186.5h-35zm48 219.5h-61v-15.5c0-1.379 1.122-2.5 2.5-2.5h56c1.378 0 2.5 1.121 2.5 2.5z"/><path d="m285.168 283.854c-9.115-4.548-18.925-6.854-29.159-6.854-36.117 0-65.5 29.383-65.5 65.5s29.383 65.5 65.5 65.5 65.5-29.383 65.5-65.5c0-10.734-2.667-21.391-7.711-30.817-1.955-3.651-6.499-5.029-10.152-3.073-3.652 1.954-5.028 6.499-3.074 10.151 3.884 7.257 5.937 15.466 5.937 23.739 0 27.846-22.654 50.5-50.5 50.5s-50.5-22.654-50.5-50.5 22.654-50.5 50.5-50.5c7.888 0 15.445 1.775 22.462 5.276 3.705 1.847 8.21.344 10.06-3.362s.344-8.21-3.363-10.06z"/><path d="m270.885 358.285c2.493 0 4.93-1.241 6.355-3.507 2.206-3.506 1.152-8.136-2.354-10.342-5.652-3.557-12.18-5.437-18.877-5.437s-13.225 1.88-18.877 5.437c-3.506 2.206-4.56 6.836-2.354 10.342s6.837 4.561 10.342 2.354c5.509-3.353 14.292-4.666 21.777 0 1.242.781 2.623 1.153 3.988 1.153z"/><path d="m285.684 337.696c2.466 0 4.882-1.216 6.315-3.445 2.24-3.484 1.231-8.124-2.253-10.364-19.179-12.649-47.213-13.372-67.476 0-3.484 2.24-4.493 6.88-2.253 10.364 2.239 3.484 6.88 4.492 10.364 2.253 14.386-9.478 35.756-10.22 51.253 0 1.256.807 2.661 1.192 4.05 1.192z"/><circle cx="256.009" cy="371.5" r="7.5"/></g></g></svg>