<svg id="Capa_1" enable-background="new 0 0 512 512" height="512" viewBox="0 0 512 512" width="512" xmlns="http://www.w3.org/2000/svg"><g><g><path d="m438.787 501.128-370.213 1.021c-16.569 0-30-13.431-30-30l.383-432.128c0-11.101 4.572-23.315 13.535-28.504 4.415-2.554 9.541-4.017 15.008-4.017h377c16.569 0 30 13.431 30 30v437c0 5.467-1.462 10.593-4.018 15.007-5.188 8.963-20.593 11.621-31.695 11.621z" fill="#f8f7f7"/><path d="m470.47 489.5c-5.18 8.97-14.87 15-25.97 15h-377c-16.57 0-30-13.43-30-30v-437c0-11.1 6.03-20.79 15-25.97v462.97c0 8.27 6.73 15 15 15z" fill="#e8e8e8"/><path d="m123.213 411.596.766-311.319c0-9.319 3.895-18.926 12.521-21.147 1.598-.411 3.273-.63 5-.63h229c11.046 0 20 8.954 20 20v315c0 1.669-.204 3.29-.59 4.84-2.164 8.707-12.81 13.426-22.187 13.426l-224.511-.17c-11.045 0-19.999-8.955-19.999-20z" fill="#b6c4cf"/><path d="m389.91 418.34c-2.16 8.71-10.03 15.16-19.41 15.16h-229c-11.05 0-20-8.95-20-20v-315c0-9.32 6.37-17.15 15-19.37v332.37c0 3.87 3.13 7 7 7h227c8.96 0 15.22-.06 19.41-.16z" fill="#9facba"/><path d="m324.5 256v109.5c0 11.05-8.95 20-20 20h-97c-11.05 0-20-8.95-20-20v-109.5l68.205-5.085z" fill="#dc4955"/><path d="m324.5 146.5v109.5h-137v-109.5c0-11.05 8.95-20 20-20h97c11.05 0 20 8.95 20 20z" fill="#df646e"/></g><g><path d="m159 497h-91.5c-12.406 0-22.5-10.093-22.5-22.5v-357c0-4.142-3.357-7.5-7.5-7.5s-7.5 3.358-7.5 7.5v357c0 20.678 16.822 37.5 37.5 37.5h91.5c4.143 0 7.5-3.358 7.5-7.5s-3.357-7.5-7.5-7.5z"/><path d="m444.5 0h-377c-20.678 0-37.5 16.822-37.5 37.5v45c0 4.142 3.357 7.5 7.5 7.5s7.5-3.358 7.5-7.5v-45c0-12.407 10.094-22.5 22.5-22.5h377c12.406 0 22.5 10.093 22.5 22.5v437c0 12.407-10.094 22.5-22.5 22.5h-250.5c-4.143 0-7.5 3.358-7.5 7.5s3.357 7.5 7.5 7.5h250.5c20.678 0 37.5-16.822 37.5-37.5v-437c0-20.678-16.822-37.5-37.5-37.5z"/><path d="m114 98.5v315c0 15.164 12.337 27.5 27.5 27.5h229c15.163 0 27.5-12.336 27.5-27.5v-32.5c0-4.142-3.357-7.5-7.5-7.5s-7.5 3.358-7.5 7.5v32.5c0 6.893-5.607 12.5-12.5 12.5h-229c-6.893 0-12.5-5.607-12.5-12.5v-315c0-6.893 5.607-12.5 12.5-12.5h229c6.893 0 12.5 5.607 12.5 12.5v247.5c0 4.142 3.357 7.5 7.5 7.5s7.5-3.358 7.5-7.5v-247.5c0-15.164-12.337-27.5-27.5-27.5h-229c-15.163 0-27.5 12.336-27.5 27.5z"/><path d="m207.5 119c-15.163 0-27.5 12.336-27.5 27.5v219c0 15.164 12.337 27.5 27.5 27.5h97c15.163 0 27.5-12.336 27.5-27.5v-219c0-15.164-12.337-27.5-27.5-27.5zm109.5 27.5v102h-19c-4.143 0-7.5 3.358-7.5 7.5s3.357 7.5 7.5 7.5h19v102c0 6.893-5.607 12.5-12.5 12.5h-97c-6.893 0-12.5-5.607-12.5-12.5v-102h68c4.143 0 7.5-3.358 7.5-7.5s-3.357-7.5-7.5-7.5h-68v-102c0-6.893 5.607-12.5 12.5-12.5h97c6.893 0 12.5 5.607 12.5 12.5z"/><path d="m256.5 161.5c-4.143 0-7.5 3.358-7.5 7.5v45c0 4.142 3.357 7.5 7.5 7.5s7.5-3.358 7.5-7.5v-45c0-4.142-3.357-7.5-7.5-7.5z"/><path d="m256 288.5c-17.921 0-32.5 14.58-32.5 32.5s14.579 32.5 32.5 32.5 32.5-14.58 32.5-32.5-14.579-32.5-32.5-32.5zm0 50c-9.649 0-17.5-7.851-17.5-17.5s7.851-17.5 17.5-17.5 17.5 7.851 17.5 17.5-7.851 17.5-17.5 17.5z"/><path d="m279.5 51c4.143 0 7.5-3.358 7.5-7.5s-3.357-7.5-7.5-7.5h-47c-4.143 0-7.5 3.358-7.5 7.5s3.357 7.5 7.5 7.5z"/><path d="m184.5 51c4.143 0 7.5-3.358 7.5-7.5s-3.357-7.5-7.5-7.5h-47c-4.143 0-7.5 3.358-7.5 7.5s3.357 7.5 7.5 7.5z"/><path d="m374.5 51c4.143 0 7.5-3.358 7.5-7.5s-3.357-7.5-7.5-7.5h-47c-4.143 0-7.5 3.358-7.5 7.5s3.357 7.5 7.5 7.5z"/><path d="m343 468.5c0-4.142-3.357-7.5-7.5-7.5h-159c-4.143 0-7.5 3.358-7.5 7.5s3.357 7.5 7.5 7.5h159c4.143 0 7.5-3.358 7.5-7.5z"/></g></g></svg>