<svg id="Capa_1" enable-background="new 0 0 512 512" height="512" viewBox="0 0 512 512" width="512" xmlns="http://www.w3.org/2000/svg"><g><g><path d="m246.89 193.628h23.11v88.372h-23.11z" fill="#f8f7f7"/><path d="m242 193.623h14v88.372h-14z" fill="#e8e8e8"/><path d="m277.275 154.5h-42.55v-82l18.936-2.896 23.614 2.896z" fill="#f8f7f7"/><g fill="#e8e8e8"><path d="m238.5 126.5-51-54 33.794-4.877 17.206 4.877z"/><path d="m273.5 126.5v-54l22.15-2.896 28.85 2.896z"/></g><g><path d="m285.25 335.75h-58.5l-53.652-59.128c-7.429-7.492-11.598-17.615-11.598-28.166v-79.461l-1.37-13.245h189.145l4.225 15.245v79.461c0 10.551-4.168 20.674-11.598 28.166zm-46-30h33.5l50.851-47.253c1.857-1.873 2.899-4.404 2.899-7.041v-82.264l-138-1v82.264c0 2.638 1.042 5.169 2.899 7.041z" fill="#f8f7f7"/></g><g fill="#e8e8e8"><path d="m228.51 314.805 4.91 4.95h.3z"/><path d="m250.56 335.745h-23.81l-56.65-57.12c-7.43-7.49-11.6-17.62-11.6-28.17v-79.46l4.005-15.25h9.995v94.71c0 6.9 2.68 13.41 7.54 18.31l48.47 46.04 4.91 4.95h.3z"/><path d="m233.72 319.755h-.3l-4.91-4.95z"/></g><g fill="#e8e8e8"><path d="m243.39 345.745-4.89 13.51 14.3-13.51z"/><path d="m338.5 165.745v94.71c0 2.64-1.04 5.17-2.9 7.04l-82.8 78.25 19.95-40 47.85-48.25c1.86-1.87 2.9-4.4 2.9-7.04v-84.71z"/></g><path d="m281.5 199h-51c-5.523 0-10-4.477-10-10l-1-18 36.5-2.808 36.5 2.808v16.005l-1 1.995c0 5.523-4.477 10-10 10z" fill="#f8f7f7"/><path d="m292.5 187.005v2.99c0 5.523-4.477 10-10 10h-53c-5.523 0-10-4.477-10-10v-19l7.243-2.308 5.757 2.308v12.01c0 2.209 1.791 4 4 4z" fill="#e8e8e8"/><path d="m287.183 353h-62.917l-.33-71c0-8.919 5.551-18.322 14.063-19.751.976-.164 1.979-.249 3.001-.249h30c9.941 0 18 8.059 18 18v57.995z" fill="#df646e"/><path d="m289 337.995v15l-33.215 4.279-32.785-4.279v-73c0-8.92 6.49-16.32 15-17.74v72.74c0 1.657 1.343 3 3 3z" fill="#dc4955"/><path d="m350.431 169h-190.238l-.165-35.157c0-8.284 5.188-17.843 13.472-17.843h165c8.284 0 15 6.716 15 15v24.995z" fill="#df646e"/><path d="m353.5 155.995v15h-195v-40c0-8.28 6.72-15 15-15v36c0 2.209 1.791 4 4 4z" fill="#dc4955"/><path d="m279 413h-41l-4-1c-5.523 0-10-4.477-10-10l-.064-19h63.193l1.871 14.995v5.005c0 5.523-4.477 10-10 10z" fill="#df646e"/><path d="m289 382.995v15h-47c-2.209 0-4 1.791-4 4v11h-5c-5.523 0-10-4.477-10-10v-20l30.44-4.263z" fill="#dc4955"/><path d="m493.5 59h-475c-5.523 0-10-4.477-10-10v-18c0-5.523 4.477-10 10-10l4-1h472c5.523 0 10 4.477 10 10v14.995l-1 4.005c0 5.523-4.477 10-10 10z" fill="#f8f7f7"/><path d="m504.5 44.995v5c0 5.523-4.477 10-10 10h-477c-5.523 0-10-4.477-10-10v-20c0-5.523 4.477-10 10-10h5v21c0 2.209 1.791 4 4 4z" fill="#e8e8e8"/><path d="m364 71.5h-216c-3.866 0-7-3.134-7-7v-49c0-3.866 3.134-7 7-7l7-1h210c3.866 0 7 3.134 7 7v42.995l-1 7.005c0 3.866-3.134 7-7 7z" fill="#df646e"/><path d="m372 57.495v8c0 3.866-3.134 7-7 7h-218c-3.866 0-7-3.134-7-7v-51c0-3.86 3.13-7 7-7h8v47c0 1.657 1.343 3 3 3z" fill="#dc4955"/><g><path d="m384.322 399.535-17.46-17.243c-.375-.375-.884-.586-1.414-.586l-219.407.294c-.53 0-1.039.211-1.414.586l-16.95 16.95c-3.905 3.905-10.237 3.905-14.142 0l-3.108-1.108-3.963-3.963c-3.905-3.905-3.905-10.237 0-14.142l21.464-21.464c3.777-3.778 8.8-5.858 14.143-5.858h227.857c5.343 0 10.365 2.08 14.143 5.858l21.464 21.464c3.905 3.905 3.905 10.237 0 14.142l-4.393 4.393-2.678.678c-3.905 3.905-10.236 3.905-14.142-.001z" fill="#f8f7f7"/></g><g><path d="m401.14 398.855-2.68 2.68c-3.9 3.91-10.23 3.91-14.14 0l-17.95-17.95c-.37-.37-.88-.59-1.41-.59h-217.92c-.53 0-1.04.22-1.41.59l-17.95 17.95c-3.91 3.91-10.24 3.91-14.14 0l-3.11-3.11 25.3-24.74c3.02-3.02 7.04-4.69 11.31-4.69h217.92c4.27 0 8.29 1.67 11.31 4.69z" fill="#e8e8e8"/></g></g><g><path d="m494.5 12.5h-115.155c-.979-7.05-7.03-12.5-14.345-12.5h-39.5c-4.143 0-7.5 3.357-7.5 7.5s3.357 7.5 7.5 7.5h39v50h-217v-50h143c4.143 0 7.5-3.357 7.5-7.5s-3.357-7.5-7.5-7.5h-143.5c-7.315 0-13.366 5.45-14.345 12.5h-115.155c-9.649 0-17.5 7.851-17.5 17.5v20c0 9.649 7.851 17.5 17.5 17.5h47.266c4.143 0 7.5-3.357 7.5-7.5s-3.357-7.5-7.5-7.5h-47.266c-1.379 0-2.5-1.121-2.5-2.5v-20c0-1.379 1.121-2.5 2.5-2.5h115v25h-32.734c-4.143 0-7.5 3.357-7.5 7.5s3.357 7.5 7.5 7.5h32.889c.979 7.05 7.03 12.5 14.345 12.5h37.268l26.917 28.5h-37.685c-12.406 0-22.5 10.094-22.5 22.5v73.957c0 4.143 3.357 7.5 7.5 7.5s7.5-3.357 7.5-7.5v-26.457h15v71.956c0 4.646 1.802 9.022 5.074 12.322l29.426 29.673v21.302l-40.076-40.412c-6.077-6.129-9.424-14.257-9.424-22.886v-10.499c0-4.143-3.357-7.5-7.5-7.5s-7.5 3.357-7.5 7.5v10.499c0 12.611 4.891 24.49 13.772 33.447l50.728 51.153v10.445h-73.429c-7.347 0-14.253 2.861-19.446 8.055l-21.464 21.464c-6.823 6.824-6.823 17.926 0 24.75l7.07 7.07c6.824 6.822 17.926 6.822 24.75 0l16.338-16.339h66.181v12.5c0 9.649 7.851 17.5 17.5 17.5h46c9.649 0 17.5-7.851 17.5-17.5v-12.5h66.181l16.338 16.339c3.412 3.411 7.894 5.117 12.375 5.117s8.963-1.706 12.375-5.117l7.07-7.07c6.823-6.824 6.823-17.926 0-24.75l-21.464-21.463c-5.193-5.194-12.1-8.056-19.446-8.056h-15.986c-4.143 0-7.5 3.357-7.5 7.5s3.357 7.5 7.5 7.5h15.986c3.34 0 6.479 1.3 8.839 3.662l21.464 21.464c.976.975.976 2.561 0 3.535l-7.07 7.07c-.975.977-2.561.977-3.535 0l-18.535-18.535c-1.407-1.406-3.314-2.196-5.304-2.196h-219.575c-1.989 0-3.896.79-5.304 2.196l-18.535 18.535c-.975.977-2.561.977-3.535 0l-7.07-7.07c-.976-.975-.976-2.561 0-3.535l21.464-21.465c2.36-2.361 5.499-3.661 8.839-3.661h176.871c4.143 0 7.5-3.357 7.5-7.5s-3.357-7.5-7.5-7.5h-22.443v-10.443l50.729-51.154c8.881-8.956 13.771-20.835 13.771-33.446 0-26.81 0-93.704 0-119.456 0-12.406-10.094-22.5-22.5-22.5h-37.684l26.916-28.501h37.268c7.315 0 13.366-5.45 14.345-12.5h115.155c9.649 0 17.5-7.851 17.5-17.5v-20c0-9.649-7.851-17.5-17.5-17.5zm-264 378h51v12.5c0 1.379-1.121 2.5-2.5 2.5h-46c-1.379 0-2.5-1.121-2.5-2.5zm15.5-310.5h20v28.5h-20zm-41.101 0h26.101v27.637zm11.779 192.337-19.954-20.122c-.467-.471-.725-1.097-.725-1.76v-71.955h16v11.5c0 9.649 7.851 17.5 17.5 17.5h5v47.843c-8.454 2.23-15.202 8.703-17.821 16.994zm12.822-79.837c-1.379 0-2.5-1.121-2.5-2.5v-11.5h58v11.5c0 1.379-1.121 2.5-2.5 2.5zm33 15v47h-13v-47zm19 138h-51v-65.5c0-5.79 4.71-10.5 10.5-10.5h30c5.79 0 10.5 4.71 10.5 10.5zm13.822-73.163c-2.618-8.292-9.367-14.764-17.822-16.995v-47.842h5c9.649 0 17.5-7.851 17.5-17.5v-11.5h16v71.956c0 .663-.258 1.289-.725 1.76zm50.678-21.881c0 8.629-3.347 16.757-9.423 22.885l-40.077 40.413v-21.303l29.426-29.673c3.272-3.3 5.074-7.676 5.074-12.322v-71.956h15zm-7.5-126.956c4.136 0 7.5 3.364 7.5 7.5v32.5h-180v-32.5c0-4.136 3.364-7.5 7.5-7.5zm-57.5-15.863v-27.637h26.102zm216-57.637c0 1.379-1.121 2.5-2.5 2.5h-115v-25h115c1.379 0 2.5 1.121 2.5 2.5z"/><circle cx="96" cy="443.254" r="7.501"/><circle cx="71" cy="473.249" r="7.501"/><circle cx="46" cy="503.244" r="7.501"/><circle cx="176" cy="443.254" r="7.501"/><circle cx="151" cy="473.249" r="7.501"/><circle cx="126" cy="503.244" r="7.501"/><circle cx="231.001" cy="473.249" r="7.501"/><circle cx="206.001" cy="503.244" r="7.501"/><circle cx="416.002" cy="443.254" r="7.501"/><circle cx="441.002" cy="473.249" r="7.501"/><circle cx="466.002" cy="503.244" r="7.501"/><circle cx="336.002" cy="443.254" r="7.501"/><circle cx="361.002" cy="473.249" r="7.501"/><circle cx="386.002" cy="503.244" r="7.501"/><circle cx="281.001" cy="473.249" r="7.501"/><circle cx="306.001" cy="503.244" r="7.501"/></g></g></svg>