<svg id="Capa_1" enable-background="new 0 0 512 512" height="512" viewBox="0 0 512 512" width="512" xmlns="http://www.w3.org/2000/svg"><g><g><g><path d="m312.5 37.5h49.748l1.252-14v-6c0-5.523-4.477-10-10-10h-28l-3 1c-5.523 0-10 4.477-10 10z" fill="#f8f7f7"/><path d="m363.5 23.5v14l-25.032 2.124-26.968-2.124v-20c0-5.523 4.477-10 10-10h4v12c0 2.209 1.791 4 4 4z" fill="#e8e8e8"/><path d="m367.5 37.5h-56l-3 1c-5.523 0-10 4.477-10 10v35h77.069l1.931-14v-22c0-5.523-4.477-10-10-10z" fill="#f8f7f7"/><path d="m377.5 69.5v14l-39.5 3.023-40.5-3.023v-36c0-5.523 4.477-10 10-10h4v28c0 2.209 1.791 4 4 4z" fill="#e8e8e8"/></g><g><path d="m149.5 37.5h49.748l1.252-14v-6c0-5.523-4.477-10-10-10h-28l-3 1c-5.523 0-10 4.477-10 10z" fill="#f8f7f7"/><path d="m200.5 23.5v14l-25.032 2.124-26.968-2.124v-20c0-5.523 4.477-10 10-10h4v12c0 2.209 1.791 4 4 4z" fill="#e8e8e8"/><path d="m204.5 37.5h-56l-3 1c-5.523 0-10 4.477-10 10v35h77.069l1.931-14v-22c0-5.523-4.477-10-10-10z" fill="#f8f7f7"/><path d="m214.5 69.5v14l-39.5 3.023-40.5-3.023v-36c0-5.523 4.477-10 10-10h4v28c0 2.209 1.791 4 4 4z" fill="#e8e8e8"/></g><path d="m399.5 83.5h-282l-4 1c-5.523 0-10 4.477-10 10v29h302.509l3.491-15v-15c0-5.523-4.477-10-10-10z" fill="#f8f7f7"/><path d="m409.5 108.5v15l-146.885 4.307-160.115-4.307v-30c0-5.523 4.477-10 10-10h5v21c0 2.209 1.791 4 4 4z" fill="#e8e8e8"/><path d="m439.5 225.5v259c0 1.381-.14 2.73-.406 4.032-1.864 9.116-10.925 14.968-20.594 14.968h-325c-11.05 0-20-8.95-20-20v-258l173.041-8.739z" fill="#df646e"/><path d="m439.5 143.5v82h-363.821l-.661-79.417c0-9.323 3.853-19.734 12.482-21.953 1.598-.411 3.273-.629 5-.629h327c11.05-.001 20 8.949 20 19.999z" fill="#7dc3ee"/><path d="m87.5 124.13v101.37l-8.959 5.133-6.041-5.133v-82c0-9.32 6.37-17.15 15-19.37z" fill="#64acdc"/><path d="m293.326 292.5h-20.826c-.552 0-1-.448-1-1v-20.826c0-8.077-6.207-15.027-14.275-15.407-.243-.011-.485-.017-.725-.017-8.284 0-14.514 7.847-14.514 16.131v20.271c0 .276-.598.375-.779.556s-.431.293-.707.293h-20.826c-8.077 0-15.027 6.207-15.407 14.275-.011.243-.017.485-.017.725 0 8.284 8.521 14.289 16.805 14.289l20.22-.092c.552 0 1 .448 1 1l.413 20.477c0 8.077 5.019 16.051 13.087 16.431.243.011.484.145.725.145 8.284 0 15-6.716 15-15v-21.251c0-.552.448-1 1-1h21.25c8.525 0 15.389-7.111 14.983-15.725-.38-8.068-7.33-14.275-15.407-14.275z" fill="#f8f7f7"/><path d="m256.5 255.25v36.22c0 .55-.45 1-1 1h-14.77c.44-.1.77-.5.77-.97v-21.25c0-8.28 6.71-15 15-15z" fill="#e8e8e8"/><path d="m256.5 311.5v48.25c-.24 0-.48-.01-.73-.02-8.06-.38-14.27-7.33-14.27-15.4v-20.83c0-.55-.45-1-1-1h-21.25c-8.28 0-15-6.71-15-15h48.25c2.21 0 4 1.79 4 4z" fill="#e8e8e8"/><g><path d="m289.202 440.523-67.486-.055c-9.029 0-17.716-5.684-17.716-13.968s7.32-15 16.349-15h70.302c9.029 0 16.349 6.716 16.349 15s-8.769 14.023-17.798 14.023z" fill="#f8f7f7"/></g><g><path d="m307 426.5c0 8.28-7.32 15-16.35 15h-70.3c-9.03 0-16.35-6.72-16.35-15z" fill="#e8e8e8"/></g><path d="m438.87 489.5c-2.22 8.63-10.05 15-19.37 15h-327c-11.05 0-20-8.95-20-20v-259h15v254c0 5.52 4.48 10 10 10z" fill="#dc4955"/></g><g><path d="m439.5 167.5c4.143 0 7.5-3.358 7.5-7.5v-16.5c0-15.164-12.337-27.5-27.5-27.5h-2.5v-22.5c0-9.649-7.851-17.5-17.5-17.5h-14.5v-28.5c0-8.451-6.022-15.521-14-17.147v-12.853c0-9.649-7.851-17.5-17.5-17.5h-32c-9.649 0-17.5 7.851-17.5 17.5v12.853c-7.978 1.626-14 8.696-14 17.147v28.5h-68v-28.5c0-8.451-6.022-15.521-14-17.147v-12.853c0-9.649-7.851-17.5-17.5-17.5h-32c-9.649 0-17.5 7.851-17.5 17.5v12.853c-7.978 1.626-14 8.696-14 17.147v28.5h-14.5c-9.649 0-17.5 7.851-17.5 17.5v22.5h-2.5c-15.163 0-27.5 12.336-27.5 27.5v175.5c0 4.142 3.357 7.5 7.5 7.5s7.5-3.358 7.5-7.5v-86h352v251.5c0 6.893-5.607 12.5-12.5 12.5h-327c-6.893 0-12.5-5.607-12.5-12.5v-130.5c0-4.142-3.357-7.5-7.5-7.5s-7.5 3.358-7.5 7.5v130.5c0 15.164 12.337 27.5 27.5 27.5h327c15.163 0 27.5-12.336 27.5-27.5v-289.5c0-4.142-3.357-7.5-7.5-7.5s-7.5 3.358-7.5 7.5v23h-352v-74.5c0-6.893 5.607-12.5 12.5-12.5h327c6.893 0 12.5 5.607 12.5 12.5v16.5c0 4.142 3.357 7.5 7.5 7.5zm-118-152.5h32c1.379 0 2.5 1.122 2.5 2.5v12.5h-37v-12.5c0-1.378 1.121-2.5 2.5-2.5zm-16.5 32.5c0-1.378 1.121-2.5 2.5-2.5h60c1.379 0 2.5 1.122 2.5 2.5v28.5h-65zm-146.5-32.5h32c1.379 0 2.5 1.122 2.5 2.5v12.5h-37v-12.5c0-1.378 1.121-2.5 2.5-2.5zm-48.5 78.5c0-1.378 1.121-2.5 2.5-2.5h44.5c4.143 0 7.5-3.358 7.5-7.5s-3.357-7.5-7.5-7.5h-15v-28.5c0-1.378 1.121-2.5 2.5-2.5h60c1.379 0 2.5 1.122 2.5 2.5v28.5h-15c-4.143 0-7.5 3.358-7.5 7.5s3.357 7.5 7.5 7.5h207.5c1.379 0 2.5 1.122 2.5 2.5v22.5h-292z"/><path d="m375 157.5c0-4.142-3.357-7.5-7.5-7.5h-222c-4.143 0-7.5 3.358-7.5 7.5s3.357 7.5 7.5 7.5h222c4.143 0 7.5-3.358 7.5-7.5z"/><path d="m185.5 184c-4.143 0-7.5 3.358-7.5 7.5s3.357 7.5 7.5 7.5h142c4.143 0 7.5-3.358 7.5-7.5s-3.357-7.5-7.5-7.5z"/><path d="m256.5 247.75c-12.406 0-22.5 10.093-22.5 22.5v14.75h-14.75c-12.406 0-22.5 10.093-22.5 22.5s10.094 22.5 22.5 22.5h14.75v14.75c0 12.407 10.094 22.5 22.5 22.5s22.5-10.093 22.5-22.5v-14.75h14.75c12.406 0 22.5-10.093 22.5-22.5s-10.094-22.5-22.5-22.5h-14.75v-14.75c0-12.407-10.094-22.5-22.5-22.5zm37.25 52.25c4.136 0 7.5 3.364 7.5 7.5s-3.364 7.5-7.5 7.5h-22.25c-4.143 0-7.5 3.358-7.5 7.5v22.25c0 4.136-3.364 7.5-7.5 7.5s-7.5-3.364-7.5-7.5v-22.25c0-4.142-3.357-7.5-7.5-7.5h-22.25c-4.136 0-7.5-3.364-7.5-7.5s3.364-7.5 7.5-7.5h22.25c4.143 0 7.5-3.358 7.5-7.5v-22.25c0-4.136 3.364-7.5 7.5-7.5s7.5 3.364 7.5 7.5v22.25c0 4.142 3.357 7.5 7.5 7.5z"/><path d="m220.35 449h70.301c13.15 0 23.85-10.093 23.85-22.5s-10.7-22.5-23.851-22.5h-7.65c-4.143 0-7.5 3.358-7.5 7.5s3.357 7.5 7.5 7.5h7.65c4.88 0 8.85 3.364 8.85 7.5s-3.97 7.5-8.85 7.5h-70.3c-4.88 0-8.85-3.364-8.85-7.5s3.97-7.5 8.85-7.5h27.65c4.143 0 7.5-3.358 7.5-7.5s-3.357-7.5-7.5-7.5h-27.65c-13.15 0-23.85 10.093-23.85 22.5s10.699 22.5 23.85 22.5z"/></g></g></svg>