<svg xmlns="http://www.w3.org/2000/svg" viewBox="0 0 104.81 153.18"><defs><style>.cls-1{fill:#a63e2c;}.cls-2{fill:#d77230;}.cls-3{fill:#e0a832;}</style></defs><title>Asset 1</title><g id="Layer_2" data-name="Layer 2"><g id="OBJECTS"><path class="cls-1" d="M58.61,50.92a78.73,78.73,0,0,0-7.57,37c.36,8.53,2.39,17.5,9.74,22.63,12.76,8.9,31.35,5.36,40.15-7.41a30.37,30.37,0,0,0,3.47-6.93,40.5,40.5,0,0,1,.19,10,55.23,55.23,0,0,1-3.22,13.63c-1.7,4.71-5.94,11.09-9,15.13a29.67,29.67,0,0,1-11.75,9.32,54.31,54.31,0,0,1-7.24,2.5,45.69,45.69,0,0,1-16.34,1.76,28.31,28.31,0,0,1-15.21-5.87c-7.59-6.14-10.32-16.25-12.24-25.39A114.09,114.09,0,0,1,27.43,91.5a45,45,0,0,1,3.21-17.11c2.32-5.4,5.77-10.23,9.22-15C43.63,54.27,51.9,42.16,58.61,50.92Z"/><path class="cls-2" d="M6.9,76c7.15-12.67,19-21.56,28.3-32.49C45.74,31.17,49.66,16.09,51,0c16.17,19.64,18.59,42,7.54,64.34-5.37,10.85-13,21-14.95,33.17-2.51,15.94,2.74,35.74,19.94,40.77,16.69,4.88,36.13-9.45,40-25.8A52.18,52.18,0,0,1,100,123a73.2,73.2,0,0,1-6.12,10c-4.91,7.19-10.79,11.27-17.86,14.9a47.16,47.16,0,0,1-9,3.49,54.22,54.22,0,0,1-19.93,1.6C32.19,151.35,17.68,143.68,9,131.28A51.4,51.4,0,0,1,.35,96.08,52.44,52.44,0,0,1,6.9,76Z"/><path class="cls-2" d="M48.37,120.75c.3-15.42,11.44-27.24,17-40.84,3.55-8.68,2.41-18.49-.59-27.73a72.74,72.74,0,0,1,5,9.14A80.67,80.67,0,0,1,74.13,73.1a52.76,52.76,0,0,1,1,23.38c-1.27,7.15-3.65,14-4.9,21.19-1,5.69,1.75,11.23,7.29,13.23,6.52,2.34,14.21-.53,19.22-5.09-6.36,9.18-18.34,14.47-29.49,14.82-8.89.27-15.35-4.09-17.82-12.56A24.86,24.86,0,0,1,48.37,120.75Z"/><path class="cls-3" d="M65.39,79.91c-5.58,13.6-16.72,25.42-17,40.84a24.86,24.86,0,0,0,1,7.32c2.47,8.47,8.93,12.83,17.82,12.56q1.89-.06,3.75-.3c.62-.08,1.24-.17,1.85-.28.28-.05,2.43-.49,2.51-.52a17.83,17.83,0,0,1-9.39-1.06c-8.27-3.35-10.31-13.42-8.39-21.29,1.24-5.07,3.52-9.81,5.69-14.54,7.43-16.17,11.19-34.17,1.56-50.46C67.8,61.42,68.94,71.23,65.39,79.91Z"/><path class="cls-3" d="M6.9,76A52.44,52.44,0,0,0,.35,96.08,51.4,51.4,0,0,0,9,131.28c16,22.88,50.07,28.62,73,13a52.16,52.16,0,0,0,21.27-30.9c-4.43,16-18.24,29.25-34.58,32.27A41.42,41.42,0,0,1,32,134.08c-11.42-11.8-11.35-28.83-7.18-43.78q.95-3.39,2.16-6.69c.37-1,.77-2.07,1.18-3.09,3.31-8.31,8.43-15.37,13.2-22.84C51.79,41.37,60.07,18.88,51,0c-1.38,16.09-5.3,31.17-15.84,43.52C25.88,54.45,14.05,63.34,6.9,76Z"/></g></g></svg>