<svg id="Icons" enable-background="new 0 0 512 512" height="512" viewBox="0 0 512 512" width="512" xmlns="http://www.w3.org/2000/svg"><g><circle cx="256" cy="256" fill="#e9465e" r="256"/><g><g><g><path d="m466.469 345.923c0 2.162-.366 4.247-1.053 6.187-.932 2.672-2.462 5.067-4.424 7.03-3.382 3.382-8.061 5.477-13.217 5.477h-401.555c-10.323 0-18.694-8.371-18.694-18.694 0-5.156 2.096-9.835 5.477-13.217 2.85-2.85 6.631-4.779 10.833-5.311.776-.1 1.574-.155 2.384-.155h401.554c10.323-.001 18.695 8.36 18.695 18.683z" fill="#d48d77"/><path d="m466.469 345.923c0 2.162-.366 4.247-1.053 6.187-.776.1-1.575.155-2.384.155h-401.555c-10.323 0-18.695-8.372-18.695-18.695 0-2.162.366-4.247 1.053-6.176.776-.1 1.574-.155 2.384-.155h401.554c10.324 0 18.696 8.361 18.696 18.684z" fill="#eea47d"/><path d="m398.348 352.265h-242.973c-6.911 0-12.513-5.602-12.513-12.513s5.602-12.513 12.513-12.513h242.973c6.911 0 12.513 5.602 12.513 12.513s-5.602 12.513-12.513 12.513z" fill="#f5b890"/></g><g><path d="m419.24 364.62v88.59c-7.35 6.09-15.04 11.77-23.04 17.02-40.28 26.41-88.44 41.77-140.2 41.77-59.72 0-114.66-20.45-158.21-54.73-8.09-6.36-15.78-13.21-23.04-20.48v-72.17z" fill="#a26d5a"/><path d="m396.2 402.44v67.79c-40.28 26.41-88.44 41.77-140.2 41.77-59.72 0-114.66-20.45-158.21-54.73v-54.83c0-7.98 6.47-14.45 14.45-14.45h269.52c7.98 0 14.44 6.47 14.44 14.45z" fill="#c17e62"/><path d="m363.98 426.98h-186.92c-10.767 0-19.495-8.728-19.495-19.495s8.728-19.495 19.495-19.495h186.92c10.767 0 19.495 8.728 19.495 19.495s-8.728 19.495-19.495 19.495z" fill="#d48d77"/></g></g><g id="Clock_3_"><path d="m223.198 93.824c0 11.066-3.689 21.287-9.913 29.475-8.897 11.732-22.994 19.305-38.859 19.305-26.939 0-48.781-21.841-48.781-48.78 0-14.618 6.438-27.742 16.624-36.69 8.581-7.522 19.835-12.09 32.156-12.09 26.94 0 48.773 21.841 48.773 48.78z" fill="#f0dae2"/><path d="m223.198 93.824c0 11.066-3.689 21.287-9.913 29.475-34.897-5.806-62.835-32.139-71.015-66.165 8.581-7.522 19.835-12.09 32.156-12.09 26.939 0 48.772 21.841 48.772 48.78z" fill="#fff"/><g><path d="m174.422 96.385c-1.415 0-2.562-1.147-2.562-2.562v-27.834c0-1.415 1.147-2.562 2.562-2.562s2.562 1.147 2.562 2.562v27.834c0 1.415-1.147 2.562-2.562 2.562z" fill="#6052a3"/><path d="m202.256 95.531h-27.834c-.943 0-1.708-.765-1.708-1.708s.765-1.708 1.708-1.708h27.834c.943 0 1.708.765 1.708 1.708s-.764 1.708-1.708 1.708z" fill="#6052a3"/><circle cx="174.422" cy="93.823" fill="#2d2667" r="6.63"/></g><g><g><g><path d="m174.422 45.046c-2.615 0-4.734 2.12-4.734 4.734v4.701c0 2.615 2.12 4.734 4.734 4.734 2.615 0 4.734-2.12 4.734-4.734v-4.701c.001-2.615-2.119-4.734-4.734-4.734z" fill="#c2aacf"/></g><g><path d="m174.422 128.407c-2.615 0-4.734 2.12-4.734 4.734v4.701c0 2.615 2.12 4.734 4.734 4.734 2.615 0 4.734-2.12 4.734-4.734v-4.701c.001-2.614-2.119-4.734-4.734-4.734z" fill="#a583bb"/></g></g><g><g><path d="m150.04 51.579c-2.264 1.307-3.04 4.203-1.733 6.467l2.351 4.072c1.307 2.264 4.203 3.04 6.467 1.733s3.04-4.203 1.733-6.467l-2.351-4.072c-1.308-2.264-4.203-3.04-6.467-1.733z" fill="#c2aacf"/></g><g><path d="m191.72 123.772c-2.264 1.307-3.04 4.203-1.733 6.467l2.351 4.072c1.307 2.264 4.203 3.04 6.467 1.733s3.04-4.203 1.733-6.467l-2.351-4.072c-1.307-2.264-4.202-3.04-6.467-1.733z" fill="#a583bb"/></g></g><g><g><path d="m132.19 69.429c-1.307 2.264-.532 5.16 1.733 6.467l4.072 2.351c2.264 1.307 5.16.532 6.467-1.733 1.307-2.264.531-5.16-1.733-6.467l-4.071-2.351c-2.265-1.308-5.161-.532-6.468 1.733z" fill="#a583bb"/></g><g><path d="m204.383 111.109c-1.307 2.264-.532 5.16 1.733 6.467l4.072 2.351c2.264 1.307 5.16.532 6.467-1.733 1.307-2.264.532-5.16-1.733-6.467l-4.072-2.351c-2.264-1.307-5.16-.531-6.467 1.733z" fill="#c2aacf"/></g></g><g><g><path d="m125.657 93.811c0 2.615 2.12 4.734 4.734 4.734h4.701c2.615 0 4.734-2.12 4.734-4.734 0-2.615-2.12-4.734-4.734-4.734h-4.701c-2.615 0-4.734 2.12-4.734 4.734z" fill="#a583bb"/></g><g><path d="m209.018 93.811c0 2.615 2.12 4.734 4.734 4.734h4.701c2.615 0 4.734-2.12 4.734-4.734 0-2.615-2.12-4.734-4.734-4.734h-4.701c-2.614 0-4.734 2.12-4.734 4.734z" fill="#c2aacf"/></g></g><g><g><path d="m132.19 118.194c1.307 2.264 4.203 3.04 6.467 1.733l4.072-2.351c2.264-1.307 3.04-4.203 1.733-6.467s-4.203-3.04-6.467-1.733l-4.072 2.351c-2.264 1.307-3.04 4.203-1.733 6.467z" fill="#a583bb"/></g><g><path d="m204.383 76.513c1.307 2.264 4.203 3.04 6.467 1.733l4.072-2.351c2.264-1.307 3.04-4.203 1.733-6.467s-4.203-3.04-6.467-1.733l-4.072 2.351c-2.264 1.308-3.04 4.203-1.733 6.467z" fill="#c2aacf"/></g></g><g><g><path d="m150.04 136.044c2.264 1.307 5.16.532 6.467-1.733l2.351-4.072c1.307-2.264.531-5.16-1.733-6.467s-5.16-.532-6.467 1.733l-2.351 4.072c-1.308 2.264-.532 5.159 1.733 6.467z" fill="#a583bb"/></g><g><path d="m191.72 63.851c2.264 1.307 5.16.532 6.467-1.733l2.351-4.072c1.307-2.264.532-5.16-1.733-6.467-2.264-1.307-5.16-.532-6.467 1.733l-2.351 4.072c-1.307 2.264-.531 5.159 1.733 6.467z" fill="#c2aacf"/></g></g></g><g><path d="m225.705 91.504c-1.214-27.237-23.749-49.018-51.28-49.018-8.519 0-16.558 2.082-23.636 5.776-16.449 8.56-27.707 25.769-27.707 45.561 0 28.306 23.031 51.337 51.343 51.337 28.306 0 51.337-23.031 51.337-51.337 0-.774-.015-1.549-.057-2.319zm-51.28 48.537c-25.485 0-46.218-20.737-46.218-46.218 0-17.343 9.604-32.491 23.775-40.39 6.649-3.715 14.305-5.828 22.442-5.828 25.222 0 45.789 20.314 46.202 45.443.01.258.01.517.01.775.001 25.481-20.731 46.218-46.211 46.218z" fill="#f39e22"/><path d="m225.705 91.504c-1.658.594-3.353 1.111-5.078 1.545-.413-25.129-20.98-45.443-46.202-45.443-8.137 0-15.793 2.113-22.442 5.828-.475-1.695-.878-3.42-1.193-5.171 7.078-3.694 15.117-5.776 23.636-5.776 27.53-.001 50.065 21.781 51.279 49.017z" fill="#f9c744"/></g></g><g><g><path d="m252.786 292.078v35.161h85.724v-35.161c0-17.615-14.276-31.9-31.9-31.9h-21.923c-17.626 0-31.901 14.286-31.901 31.9z" fill="#528f66"/><path d="m252.786 292.078v35.161h65.309v-35.161c0-17.615-14.276-31.9-31.9-31.9h-1.508c-17.626 0-31.901 14.286-31.901 31.9z" fill="#53b976"/></g><g><path d="m281.484 246.783v15.382c0 7.823 6.345 14.158 14.168 14.158 2.624 0 5.082-.715 7.187-1.958 4.171-2.458 6.972-7.001 6.972-12.2v-15.382z" fill="#f5b890"/><path d="m309.811 246.783v15.382c0 5.199-2.8 9.742-6.972 12.2v-16.44c-4.925 2.056-10.34 3.192-16.019 3.192-1.811 0-3.594-.117-5.336-.333v-14.002h28.327z" fill="#d48d77"/></g><g><g><g><path d="m335.512 200.585h-7.024v-21.978h7.024c6.069 0 10.989 4.92 10.989 10.989s-4.92 10.989-10.989 10.989z" fill="#d48d77"/><path d="m335.866 194.311h-7.378v-9.431h7.378c2.604 0 4.716 2.111 4.716 4.716 0 2.604-2.111 4.715-4.716 4.715z" fill="#c17e62"/></g><g><path d="m242.074 178.607h3.076v21.978h-3.076c-6.069 0-10.989-4.92-10.989-10.989s4.92-10.989 10.989-10.989z" fill="#d48d77"/><path d="m241.719 184.88h3.43v9.431h-3.43c-2.604 0-4.716-2.111-4.716-4.716.001-2.604 2.112-4.715 4.716-4.715z" fill="#c17e62"/></g></g><g><path d="m245.148 154.147v57.887c0 11.505 4.661 21.923 12.2 29.462 5.444 5.434 12.376 9.37 20.131 11.152 3.006.685 6.129 1.048 9.341 1.048 23.01 0 41.672-18.653 41.672-41.662v-57.887c0-12.611-10.232-22.833-22.843-22.833h-37.668c-2.213 0-4.347.313-6.374.911-9.507 2.751-16.459 11.524-16.459 21.922z" fill="#d48d77"/><path d="m245.148 154.147v57.887c0 11.505 4.661 21.923 12.2 29.462 5.444 5.434 12.376 9.37 20.131 11.152 18.525-4.24 32.331-20.816 32.331-40.615v-22.148c0-28.816-20.797-52.766-48.203-57.661-9.507 2.752-16.459 11.525-16.459 21.923z" fill="#f5b890"/><g fill="#eea47d"><path d="m275.037 192.506h8.495c3.489 0 6.318 2.828 6.318 6.318 0 3.489-2.828 6.318-6.318 6.318h-8.495c-3.489 0-6.318-2.828-6.318-6.318 0-3.489 2.829-6.318 6.318-6.318z"/><path d="m276.162 131.312h10.657v65.482h-10.657z" transform="matrix(-1 0 0 -1 562.981 328.107)"/></g><g fill="#334353"><path d="m298.128 167.795c3.189 0 5.773 2.585 5.773 5.773v10.077c0 3.188-2.585 5.773-5.773 5.773s-5.773-2.585-5.773-5.773v-10.077c0-3.188 2.584-5.773 5.773-5.773z"/><path d="m264.853 167.795c3.189 0 5.773 2.585 5.773 5.773v10.077c0 3.188-2.585 5.773-5.773 5.773-3.189 0-5.773-2.585-5.773-5.773v-10.077c-.001-3.188 2.584-5.773 5.773-5.773z"/></g><g><path d="m285.31 228.425c10.002 0 18.138-8.137 18.138-18.138 0-1.893-1.534-3.427-3.427-3.427s-3.427 1.534-3.427 3.427c0 6.222-5.062 11.284-11.284 11.284-1.893 0-3.427 1.534-3.427 3.427s1.535 3.427 3.427 3.427z" fill="#c17e62"/></g></g><g><path d="m328.488 200.585h7.024c1.228 0 2.405-.21 3.508-.582v2.929c0 5.828-4.724 10.552-10.552 10.552z" fill="#3e4e60"/><path d="m328.489 178.607h7.024c1.169 0 2.274.232 3.331.57l.177.009v-28.754c0-13.342-10.816-24.158-24.158-24.158h-28.041v6.034c0 7.875 6.384 14.258 14.258 14.258 4.823 0 8.732 3.909 8.732 8.732v5.126c0 10.042 8.141 18.183 18.183 18.183l.495.026v-.026z" fill="#3e4e60"/><path d="m240.274 137.72c0 3-2.432 5.431-5.431 5.431-1.292 0-2.541-.46-3.524-1.299l-6.492-5.536c-2.309-1.97-5.866-.328-5.866 2.707v7.658c0 10.72 8.69 19.41 19.41 19.41 4.455 0 8.728-1.77 11.879-4.92l6.887-6.887c4.942-4.942 11.644-7.718 18.633-7.718h29.597c5.604 0 10.146-4.543 10.146-10.146 0-5.604-4.543-10.146-10.146-10.146h-53.647c-6.321 0-11.446 5.124-11.446 11.446z" fill="#3f5d77"/></g></g><g><path d="m303.449 310.07h27.789v17.169h-27.789z" fill="#d48d77" transform="matrix(-1 0 0 -1 634.687 637.309)"/><path d="m303.449 310.07h14.645v17.169h-14.645z" fill="#f5b890" transform="matrix(-1 0 0 -1 621.543 637.309)"/></g></g><g><g><path d="m205.403 300.275c0 .189.008.386.024.575.292 5.194 4.619 9.332 9.884 9.332h3.76v7.094h-3.76c-8.347 0-15.307-6.046-16.726-13.983-.181-.977-.276-1.986-.276-3.019 0-7.433 4.784-13.754 11.437-16.064 1.742-.607 3.618-.938 5.565-.938h3.76v7.094h-3.76c-1.561 0-3.027.363-4.343 1.001-3.286 1.617-5.565 4.998-5.565 8.908z" fill="#22bce0"/><path d="m211.047 289.965c0 .473-.024.946-.079 1.403-3.287 1.616-5.565 4.997-5.565 8.907 0 .189.008.386.024.575-1.955 1.395-4.304 2.278-6.842 2.443-.181-.977-.276-1.986-.276-3.019 0-.938.079-1.868.229-2.767.804-4.942 3.76-9.175 7.874-11.713 1.04-.646 2.16-1.174 3.334-1.584.836 1.743 1.301 3.698 1.301 5.755z" fill="#4fcae8"/><path d="m207.043 289.027c0 4.69-3.799 8.481-8.481 8.481h-.024c.804-4.942 3.76-9.175 7.874-11.713.402 1.001.631 2.089.631 3.232z" fill="#83d5ef"/></g><g><path d="m259.695 274.074v48.57c0 2.538-2.057 4.595-4.595 4.595h-34.587c-2.538 0-4.595-2.057-4.595-4.595v-48.57c0-2.538 2.057-4.595 4.595-4.595h34.587c2.538 0 4.595 2.057 4.595 4.595z" fill="#22a8b9"/><path d="m259.695 274.074v41.704c-3.121 2.254-6.944 3.578-11.09 3.578h-5.833c-10.475 0-18.972-8.497-18.972-18.972v-19.816c0-4.138 1.332-7.969 3.579-11.09h27.721c2.538.001 4.595 2.058 4.595 4.596z" fill="#4fcae8"/><path d="m259.695 274.074v6.219c-1.056.883-2.42 1.419-3.917 1.419h-31.978v-1.143c0-4.138 1.332-7.969 3.579-11.09h27.721c2.538 0 4.595 2.057 4.595 4.595z" fill="#cde6f6"/><path d="m227.379 269.479c-2.246 3.121-3.579 6.952-3.579 11.09v1.143h-7.882v-7.638c0-2.538 2.057-4.595 4.595-4.595z" fill="#4fcae8"/><path d="m252.395 273.045h-29.175c-1.41 0-2.553 1.143-2.553 2.553s1.143 2.553 2.553 2.553h29.174c1.41 0 2.553-1.143 2.553-2.553s-1.142-2.553-2.552-2.553z" fill="#bf5e39"/><path d="m250.294 314.495c2.426 0 4.393-1.967 4.393-4.393v-20.907c0-2.426-1.967-4.393-4.393-4.393s-4.393 1.967-4.393 4.393v20.907c0 2.426 1.967 4.393 4.393 4.393z" fill="#83d5ef"/></g></g><g><g><path d="m491.88 274.54v20.96c0 17.53-14.21 31.74-31.74 31.74h-26.68v-11.45h24.38c12.47 0 22.59-10.12 22.59-22.59v-18.66c0-1.58.64-3.01 1.67-4.04 1.04-1.04 2.47-1.68 4.05-1.68 3.16 0 5.73 2.56 5.73 5.72z" fill="#c2aacf"/><path d="m491.88 274.54v5.74c-1.72.87-3.67 1.36-5.73 1.36s-4-.49-5.72-1.35v-5.75c0-1.58.64-3.01 1.67-4.04 1.04-1.04 2.47-1.68 4.05-1.68 3.16 0 5.73 2.56 5.73 5.72z" fill="#fff"/></g><g><path d="m453.25 287.69v19.76c0 10.93-8.86 19.79-19.79 19.79h-64.99v-81.45h42.88c20.49 0 37.54 14.71 41.18 34.14.47 2.51.72 5.11.72 7.76z" fill="#f9eaf9"/><g fill="#fff"><path d="m377.102 314.495h-7.846c-3.519 0-6.372 2.853-6.372 6.372s2.853 6.372 6.372 6.372h7.846c3.519 0 6.372-2.853 6.372-6.372.001-3.519-2.852-6.372-6.372-6.372z"/><path d="m400.81 314.495h-7.846c-3.519 0-6.372 2.853-6.372 6.372s2.853 6.372 6.372 6.372h7.846c3.519 0 6.372-2.853 6.372-6.372s-2.853-6.372-6.372-6.372z"/><path d="m453.25 287.69v19.76c0 10.93-8.86 19.79-19.79 19.79h-22.02v-26.738c0-11.361 9.21-20.572 20.572-20.572h20.518c.47 2.51.72 5.11.72 7.76z"/></g></g><g id="Cat"><g><g><path d="m409.02 218.323.004.002s2.418-7.431 2.418-14.684c0-4.007-1.772-7.508-3.359-9.838-1.133-1.665-3.522-1.838-4.883-.354l-15.178 16.536h-11.193l-15.178-16.536c-1.362-1.484-3.75-1.311-4.883.354-1.586 2.33-3.359 5.831-3.359 9.838 0 7.253 2.418 14.684 2.418 14.684l.004-.002c-.441.838-.813 1.723-1.101 2.652-.899 2.898-1.32 5.801-1.32 8.639 0 15.44 12.514 28.945 29.016 28.945 8.252 0 15.505-3.377 20.697-8.682 7.1-7.257 10.341-18.125 6.998-28.902-.288-.929-.66-1.815-1.101-2.652z" fill="#f9eaf9"/></g><g><path d="m356.222 207.17c0 2.567.4 5.162.825 7.205.438 2.098 2.657 3.298 4.649 2.505l1.686-.669 5.982-2.375c2.245-.892 2.9-3.755 1.266-5.535l-5.508-6-.004-.004-2.634-2.871c-1.031-1.121-2.844-1.002-3.701.257-1.207 1.769-2.561 4.435-2.561 7.487z" fill="#c2aacf"/></g><g><path d="m408.628 207.17c0 2.567-.4 5.162-.825 7.205-.438 2.098-2.657 3.298-4.649 2.505l-1.686-.669-5.982-2.375c-2.245-.892-2.9-3.755-1.266-5.535l5.508-6 .004-.004 2.634-2.871c1.031-1.121 2.843-1.002 3.701.257 1.208 1.769 2.561 4.435 2.561 7.487z" fill="#c2aacf"/></g><g fill="#fff"><path d="m396.039 220.747h-1.867c-1.554 0-2.814 1.26-2.814 2.814v2.502c0 1.554 1.26 2.814 2.814 2.814h1.867c1.554 0 2.814-1.26 2.814-2.814v-2.502c0-1.554-1.26-2.814-2.814-2.814z"/><path d="m370.678 220.747h-1.867c-1.554 0-2.814 1.26-2.814 2.814v2.502c0 1.554 1.26 2.814 2.814 2.814h1.867c1.554 0 2.814-1.26 2.814-2.814v-2.502c0-1.554-1.26-2.814-2.814-2.814z"/></g></g><g><g><g><path d="m395.096 247.713c0 2.08-.501 4.043-1.389 5.774-2.1 4.095-6.363 6.897-11.282 6.897-6.998 0-12.671-5.673-12.671-12.671 0-4.195 2.037-7.912 5.177-10.216 2.098-1.543 4.69-2.455 7.494-2.455 6.999 0 12.671 5.672 12.671 12.671z" fill="#fff"/></g></g><path d="m395.096 246.573c-.776 0-1.405.629-1.405 1.405 0 2.718-2.212 4.93-4.93 4.93s-4.93-2.212-4.93-4.93c0-.776-.629-1.405-1.405-1.405s-1.405.629-1.405 1.405c0 2.718-2.212 4.93-4.93 4.93s-4.93-2.212-4.93-4.93c0-.776-.629-1.405-1.405-1.405s-1.405.629-1.405 1.405c0 4.268 3.473 7.74 7.741 7.74 2.619 0 4.934-1.311 6.336-3.307 1.401 1.997 3.717 3.307 6.336 3.307 4.268 0 7.741-3.472 7.741-7.74-.003-.776-.633-1.405-1.409-1.405z" fill="#c2aacf"/><path d="m380.471 247.374c0 .976.693 1.846 1.659 1.988 1.211.178 2.25-.756 2.25-1.933v-.055c0-.873.708-1.581 1.581-1.581h.553c1.079 0 1.955-.875 1.955-1.955 0-1.079-.875-1.955-1.955-1.955h-8.178c-1.079 0-1.955.875-1.955 1.955 0 1.079.875 1.955 1.955 1.955h.553c.874 0 1.582.708 1.582 1.581z" fill="#ee6781"/></g><g><path d="m400.691 232.931c0 .829-.33 1.574-.871 2.115-.499.499-1.166.815-1.911.864-.063.007-.126.007-.197.007h-5.206c-1.651 0-2.986-1.335-2.986-2.986 0-1.644 1.335-2.979 2.986-2.979h5.206c.07 0 .133 0 .197.007 1.552.105 2.782 1.398 2.782 2.972z" fill="#334353"/><path d="m375.333 232.931c0 .829-.337 1.574-.871 2.115-.499.499-1.173.815-1.918.864-.063.007-.126.007-.197.007h-5.206c-1.644 0-2.979-1.335-2.979-2.986 0-1.644 1.335-2.979 2.979-2.979h5.206c.07 0 .134 0 .197.007 1.559.105 2.789 1.398 2.789 2.972z" fill="#334353"/><g fill="#3f5d77"><path d="m400.691 232.931c0 .829-.33 1.574-.871 2.115-.499.499-1.166.815-1.911.864-1.56-.098-2.789-1.391-2.789-2.979 0-1.581 1.23-2.874 2.789-2.972 1.552.105 2.782 1.398 2.782 2.972z"/><path d="m375.333 232.931c0 .829-.337 1.574-.871 2.115-.499.499-1.173.815-1.918.864-1.56-.105-2.789-1.398-2.789-2.979 0-1.574 1.23-2.867 2.789-2.972 1.559.105 2.789 1.398 2.789 2.972z"/></g></g></g></g><g><g><path d="m192.848 186.825v90.015c0 2.454-.729 4.748-1.992 6.668-1.583 2.454-4.019 4.285-6.9 5.086-1.049.302-2.169.462-3.308.462h-137.972c-1.156 0-2.258-.16-3.308-.462-2.881-.8-5.317-2.632-6.9-5.086-1.263-1.921-1.992-4.214-1.992-6.668v-90.015c0-1.138.16-2.258.462-3.307 1.138-4.072 4.339-7.291 8.429-8.429 1.049-.302 2.169-.462 3.308-.462h137.974c1.156 0 2.258.16 3.308.462 4.072 1.138 7.291 4.339 8.429 8.429.302 1.049.462 2.169.462 3.307z" fill="#c2aacf"/><path d="m190.856 283.508c-2.17 3.343-5.922 5.548-10.207 5.548h-137.973c-4.286 0-8.038-2.205-10.207-5.548 4.819-13.764 17.925-23.615 33.306-23.615h91.757c15.4 0 28.505 9.852 33.324 23.615z" fill="#9175a7"/><path d="m48.259 186.825v90.015c0 2.454-.729 4.748-1.992 6.668-1.583 2.454-4.019 4.285-6.9 5.086-2.881-.8-5.317-2.632-6.9-5.086-1.263-1.921-1.992-4.214-1.992-6.668v-90.015c0-5.584 3.752-10.296 8.891-11.736 5.141 1.44 8.893 6.153 8.893 11.736z" fill="#a583bb"/><path d="m192.848 186.825v90.015c0 2.454-.729 4.748-1.992 6.668-1.583 2.454-4.019 4.285-6.9 5.086-2.881-.8-5.317-2.632-6.9-5.086-1.263-1.921-1.992-4.214-1.992-6.668v-90.015c0-5.602 3.77-10.314 8.891-11.736 5.123 1.423 8.893 6.135 8.893 11.736z" fill="#decee5"/><path d="m77.022 191.227h69.281c4.456 0 8.069-3.613 8.069-8.069s-3.612-8.069-8.069-8.069h-69.281c-4.456 0-8.069 3.613-8.069 8.069s3.613 8.069 8.069 8.069z" fill="#ebd9ea"/></g><path d="m123.135 273.626h-22.945c-4.063 0-7.356 3.293-7.356 7.356v30.302h37.658v-30.302c-.001-4.063-3.294-7.356-7.357-7.356z" fill="#a583bb"/><g><path d="m154.805 311.284h-86.285c-4.406 0-7.978 3.572-7.978 7.978s3.572 7.978 7.978 7.978h86.285c4.406 0 7.978-3.572 7.978-7.978 0-4.407-3.572-7.978-7.978-7.978z" fill="#c2aacf"/><path d="m138.263 311.284h-53.201c-2.717 0-4.919 2.202-4.919 4.919s2.202 4.919 4.919 4.919h53.202c2.717 0 4.919-2.202 4.919-4.919-.001-2.717-2.203-4.919-4.92-4.919z" fill="#decee5"/></g></g></g></g></svg>