<svg id="Capa_1" enable-background="new 0 0 512 512" height="512" viewBox="0 0 512 512" width="512" xmlns="http://www.w3.org/2000/svg"><g><g><g><path d="m10.093 474.388h449.759c7.287 0 13.567-5.589 13.926-12.867.119-2.421-.4-4.713-1.405-6.723-2.224-4.448-6.548-10.587-11.851-10.587l-181.962.077c-19.402 0-35.13-15.728-35.13-35.13v-24.177c0-8.107 4.23-15.082 12.328-15.464 8.646-.407 15.784 6.482 15.784 15.039v27.602c0 2.772 2.247 5.019 5.019 5.019h182.91c23.102 0 42.614 17.876 44.315 40.475.098 1.3-.635 2.515-.658 3.844-.406 23.727-19.554 40.844-43.376 40.844l-448.659 1.16c-1.105 0-2-.895-2-2l-1-9v-16.112c0-1.104.895-2 2-2z" fill="#f8f7f7"/></g><path d="m460.25 435.29h-183.69c-.077 0-.154 0-.231-.001-11.065-.071-19.899-9.294-19.899-20.359v-29.95c0-5.65 3.02-10.75 7.6-13.45-2.41-1.4-5.25-2.15-8.27-2.01-8.1.38-14.33 7.35-14.33 15.46v27.18c.023 11.055 5.783 22.411 15 28.79v-.005c5.702 3.995 12.64 6.345 20.13 6.345h183.69c5.422-.043 9.507 3.133 11.68 6.7.16.27.3.54.44.81.82 1.62 1.32 3.43 1.41 5.34v-10.62c.38-7.78-5.84-14.23-13.53-14.23z" fill="#e8e8e8"/><path d="m227.596 383.718-10.458-36.017 39.915-2.573 37.809 2.573-8.125 31.8-2.333 4.216c-1.471 5.755-6.655 9.782-12.595 9.782h-31.617c-5.941.001-11.125-4.025-12.596-9.781z" fill="#b6c4cf"/><path d="m286.73 379.5-1.33 5.22c-1.47 5.75-6.65 9.78-12.59 9.78h-33.62c-5.94 0-11.12-4.03-12.59-9.78l-9.46-37.02 7.786-3.672 7.694 3.672 7.351 28.79c.452 1.771 2.048 3.01 3.876 3.01z" fill="#9facba"/><path d="m204.685 335.701-1-38.201 52.815-2.794 51.815 2.794v35.2l-1 3.001c0 6.075-4.925 11-11 11h-80.629c-6.076 0-11.001-4.925-11.001-11z" fill="#b6c4cf"/><path d="m308.31 332.7v4c0 6.075-4.925 11-11 11h-82.62c-6.075 0-11-4.925-11-11v-39.2l7.145-2.794 7.855 2.794v29.2c0 3.314 2.686 6 6 6z" fill="#9facba"/><path d="m189.669 286.5v-18l73.789-3.959 59.872 3.959v16l-1 2c0 5.523-4.477 10-10 10h-112.661c-5.523 0-10-4.477-10-10z" fill="#f8f7f7"/><path d="m323.33 284.5v3c0 5.52-4.48 10-10 10h-114.66c-5.52 0-10-4.48-10-10v-19l6.532-2.638 7.468 2.638v10c0 3.31 2.69 6 6 6z" fill="#e8e8e8"/><path d="m351.752 265.642-193.982.44c-16.569 0-30-13.431-30-30l-.165-196.128c0-11.511 4.377-23.961 13.89-28.992 4.18-2.211 8.946-3.462 14.004-3.462h201c16.569 0 30 13.431 30 30v201c0 5.058-1.252 9.824-3.462 14.004-5.03 9.513-19.774 13.138-31.285 13.138z" fill="#df646e"/><path d="m383.03 252.5c-5.02 9.52-15.02 16-26.53 16h-201c-16.57 0-30-13.43-30-30v-201c0-11.51 6.48-21.51 16-26.53v226.53c0 8.27 6.73 15 15 15z" fill="#dc4955"/><path d="m503.9 461.6c-.41 23.72-19.83 42.9-43.65 42.9h-450.16c-1.1 0-2-.9-2-2v-10h452.16c22.02 0 40.29-16.4 43.24-37.62.31 2.19.45 4.44.41 6.72z" fill="#e8e8e8"/><path d="m217.907 65.097 2.023.753 112.128 65.025c5.289 3.067 5.301 10.701.021 13.784l-112.151 65.498-2 .752c-5.316 3.105-11.996-.73-11.996-6.886v-132.028c.001-6.145 6.659-9.981 11.975-6.898z" fill="#f8f7f7"/><path d="m219.93 65.85v144.31l-3 1.75c-5.32 3.1-12-.73-12-6.89v-134.02c0-6.15 6.66-9.99 11.98-6.9z" fill="#e8e8e8"/></g><g><path d="m460.245 409.677h-181.202v-8.66c6.592-2.104 11.842-7.456 13.628-14.442l8.102-31.709c8.552-1.625 15.042-9.146 15.042-18.164v-31.898c8.474-1.212 15.017-8.499 15.017-17.303v-11.501h25.668c20.678 0 37.5-16.822 37.5-37.5v-201c0-20.678-16.822-37.5-37.5-37.5h-201c-20.678 0-37.5 16.822-37.5 37.5v102.5c0 4.142 3.357 7.5 7.5 7.5s7.5-3.358 7.5-7.5v-102.5c0-12.407 10.094-22.5 22.5-22.5h201c12.406 0 22.5 10.093 22.5 22.5v201c0 12.407-10.094 22.5-22.5 22.5h-201c-12.406 0-22.5-10.093-22.5-22.5v-63.5c0-4.142-3.357-7.5-7.5-7.5s-7.5 3.358-7.5 7.5v63.5c0 20.678 16.822 37.5 37.5 37.5h25.669v11.5c0 8.804 6.542 16.09 15.017 17.303v31.898c0 9.018 6.49 16.539 15.042 18.164l8.102 31.71c1.873 7.328 7.554 12.868 14.603 14.736v10.847c0 23.506 19.124 42.63 42.63 42.63h108.437c4.143 0 7.5-3.358 7.5-7.5s-3.357-7.5-7.5-7.5h-108.438c-15.235 0-27.63-12.395-27.63-27.63v-10.158h15.111v10.158c0 6.903 5.616 12.519 12.519 12.519h183.684c19.939 0 36.162 16.222 36.162 36.162s-16.223 36.161-36.163 36.161h-452.152c-4.143 0-7.5 3.358-7.5 7.5s3.357 7.5 7.5 7.5h452.152c28.211 0 51.162-22.951 51.162-51.162s-22.951-51.161-51.162-51.161zm-264.076-133.677h119.662v11.5c0 1.378-1.121 2.5-2.5 2.5h-114.662c-1.379 0-2.5-1.122-2.5-2.5zm30.626 79.201h12.205c4.143 0 7.5-3.358 7.5-7.5s-3.357-7.5-7.5-7.5h-24.314c-1.93 0-3.5-1.57-3.5-3.5v-31.701h89.629v31.701c0 1.93-1.57 3.5-3.5 3.5h-23.315c-4.143 0-7.5 3.358-7.5 7.5s3.357 7.5 7.5 7.5h11.205l-7.067 27.66c-.623 2.437-2.814 4.139-5.329 4.139h-33.617c-2.515 0-4.706-1.702-5.329-4.138z"/><path d="m8.093 481.889h452.152c11.607 0 21.051-9.443 21.051-21.05s-9.443-21.05-21.051-21.05h-40.245c-4.143 0-7.5 3.358-7.5 7.5s3.357 7.5 7.5 7.5h40.245c3.337 0 6.051 2.714 6.051 6.05s-2.714 6.05-6.051 6.05h-452.152c-4.143 0-7.5 3.358-7.5 7.5s3.357 7.5 7.5 7.5z"/><path d="m212.67 70.584c.234-.135.372-.058.475 0l51.794 30.036c3.585 2.079 8.173.858 10.251-2.725 2.077-3.583.857-8.173-2.726-10.25l-51.794-30.036c-4.847-2.81-10.637-2.819-15.487-.022-4.853 2.795-7.75 7.808-7.75 13.408v134.028c0 5.61 2.905 10.627 7.771 13.42 3.885 2.062 9.326 3.231 15.508-.058l115.15-67.25c4.812-2.81 7.679-7.814 7.67-13.386s-2.891-10.567-7.711-13.362l-32.984-19.128c-3.582-2.077-8.172-.858-10.251 2.725-2.078 3.583-.857 8.173 2.726 10.25l32.984 19.128c.094.055.236.137.236.41.001.273-.141.355-.234.41l-115.15 67.25c-.1.059-.235.14-.476.002-.238-.137-.238-.295-.238-.411v-134.028c-.001-.116-.001-.274.236-.411z"/></g></g></svg>