<svg id="Layer_1" height="512" viewBox="0 0 512 512" width="512" xmlns="http://www.w3.org/2000/svg" data-name="Layer 1"><path d="m301 446v-.28c0 .09-.006.179-.007.27z" fill="#88ced8"/><path d="m17 96.78v348.94a28.287 28.287 0 0 0 28.35 28.28h226.81c15.56 0 28.682-12.476 28.833-28.01l-255.521-377.36a28.281 28.281 0 0 0 -28.472 28.15z" fill="#7db7b4"/><path d="m250.89 38h-177.19c-15.66 0-28.7 12.62-28.7 28.28v350.97a28.991 28.991 0 0 0 28.7 28.75h225.79c.34 0 .755-.2 1.095-.225a28.585 28.585 0 0 0 27.415-28.525v-301.04z" fill="#a0eaea"/><path d="m250.89 37.92 76.96 78.29h-56.71a20.257 20.257 0 0 1 -20.25-20.26z" fill="#55d8d8"/><path d="m386.8 193h-37.42a91.423 91.423 0 0 0 -21.58 2.67 90.338 90.338 0 0 0 -68.8 87.58v32.75h218v-32.77a90.346 90.346 0 0 0 -90.2-90.23z" fill="#fcca3d"/><path d="m478.18 316h-220.1a15.366 15.366 0 0 0 -11.043 4.83 16.512 16.512 0 0 0 11.963 28.17h220.19a16.571 16.571 0 0 0 11.89-4.71 16.281 16.281 0 0 0 4.92-11.68c0-9.29-7.53-16.61-17.82-16.61z" fill="#edb740"/><path d="m75 417.25v-350.97c0-15.66 13.04-28.28 28.7-28.28h-30c-15.66 0-28.7 12.62-28.7 28.28v350.97a28.991 28.991 0 0 0 28.7 28.75h30a28.991 28.991 0 0 1 -28.7-28.75z" fill="#8cd1cf"/><path d="m289 283.25a90.338 90.338 0 0 1 68.8-87.58 91.423 91.423 0 0 1 21.58-2.67h-30a91.423 91.423 0 0 0 -21.58 2.67 90.338 90.338 0 0 0 -68.8 87.58v32.75h30z" fill="#ddad37"/><path d="m272.211 332.45a16.551 16.551 0 0 1 4.821-11.62 15.366 15.366 0 0 1 11.043-4.83h-30a15.366 15.366 0 0 0 -11.043 4.83 16.512 16.512 0 0 0 11.968 28.17h30a16.571 16.571 0 0 1 -16.789-16.55z" fill="#ce9c38"/><path d="m388.15 285h-40.11a8.864 8.864 0 0 0 -9.04 8.99v22.01h58v-22.01a8.707 8.707 0 0 0 -8.85-8.99z" fill="#fff655"/><path d="m381.365 179.61a18.36 18.36 0 0 0 -31.365 13.04v92.35h37v-92.35a18.59 18.59 0 0 0 -5.635-13.04z" fill="#fadf4a"/><g fill="#284268"><path d="m91.449 156h-2.708a6 6 0 1 0 0 12h2.708a6 6 0 1 0 0-12z"/><path d="m127.79 156h-9.321a6 6 0 0 0 0 12h9.321a6 6 0 0 0 0-12z"/><path d="m155.248 168h129.437a6 6 0 0 0 0-12h-129.437a6 6 0 0 0 0 12z"/><path d="m91.449 207h-2.708a6 6 0 1 0 0 12h2.708a6 6 0 1 0 0-12z"/><path d="m127.79 207h-9.321a6 6 0 0 0 0 12h9.321a6 6 0 0 0 0-12z"/><path d="m91.449 258h-2.708a6 6 0 1 0 0 12h2.708a6 6 0 1 0 0-12z"/><path d="m127.79 258h-9.321a6 6 0 0 0 0 12h9.321a6 6 0 0 0 0-12z"/><path d="m91.449 308h-2.708a6 6 0 1 0 0 12h2.708a6 6 0 1 0 0-12z"/><path d="m127.79 308h-9.321a6 6 0 0 0 0 12h9.321a6 6 0 0 0 0-12z"/><path d="m91.449 359h-2.708a6 6 0 1 0 0 12h2.708a6 6 0 1 0 0-12z"/><path d="m127.79 359h-9.321a6 6 0 0 0 0 12h9.321a6 6 0 0 0 0-12z"/><path d="m149.248 365a6 6 0 0 0 6 6h129.437a6 6 0 0 0 0-12h-129.437a6 6 0 0 0 -6 6z"/><path d="m68 86.425a6 6 0 0 0 -6 6v91.756a6 6 0 0 0 12 0v-91.756a6 6 0 0 0 -6-6z"/><path d="m68 62.857a6 6 0 0 0 -6 6v4.884a6 6 0 0 0 12 0v-4.884a6 6 0 0 0 -6-6z"/><path d="m483 310.609v-27.356a96.236 96.236 0 0 0 -90.972-95.919 24.584 24.584 0 0 0 -47.941 0 95.683 95.683 0 0 0 -10.087 1.076v-72.2a6.077 6.077 0 0 0 -1.8-4.21l-76.989-78.245a6.052 6.052 0 0 0 -4.318-1.755h-177.193a34.821 34.821 0 0 0 -34.5 30.984 34.407 34.407 0 0 0 -28.2 33.799v348.935a34.328 34.328 0 0 0 34.351 34.282h226.805a34.37 34.37 0 0 0 33.879-28.673 34.59 34.59 0 0 0 27.965-33.827v-62.5h143.964c12.543 0 23.159-10.031 23.12-22.574-.034-10.886-8.084-19.517-18.084-21.817zm-90-111.2c43 2.958 78 39.419 78 83.84v26.751h-68v-16.015c0-6.874-4-12.694-10-14.582zm-37-6.76a12.5 12.5 0 0 1 25 0v86.351h-25zm-11 101.336a2.873 2.873 0 0 1 3.037-2.985h40.115a2.726 2.726 0 0 1 2.848 2.985v16.015h-46zm-88-241.349 56.663 57.364h-42.519a14 14 0 0 1 -14.144-14.051zm65 364.614a22.816 22.816 0 0 1 -22.75 22.75h-225.55a22.768 22.768 0 0 1 -22.7-22.7v-246.3a6 6 0 0 0 -12 0v246.25a34.852 34.852 0 0 0 34.75 34.75h219.85a22.319 22.319 0 0 1 -21.447 16h-226.802a22.314 22.314 0 0 1 -22.351-22.282v-348.935a22.4 22.4 0 0 1 16-21.436v53.653a6 6 0 0 0 12 0v-62.718a22.282 22.282 0 0 1 22.282-22.282h171.718v51.949a26.017 26.017 0 0 0 26.144 26.051h50.856v69.132a96.263 96.263 0 0 0 -33.224 17.487 5.977 5.977 0 0 0 -4.091-1.619h-129.437a6 6 0 0 0 0 12h122.557a95.973 95.973 0 0 0 -21.42 39h-101.137a6 6 0 0 0 0 12h98.674a95.959 95.959 0 0 0 -.922 13.253v24.747h-97.752a6 6 0 0 0 0 12h83.591a22.586 22.586 0 0 0 -3.808 13.477c.514 12.13 11.059 21.523 23.2 21.523h63.769zm156.188-74.25h-220.167a10.717 10.717 0 0 1 -10.828-10.195c-.165-5.9 4.484-10.805 9.8-10.805h13.007a6 6 0 0 0 0-12h-5v-26.747c0-44.421 35-80.882 79-83.84v79.987a14.555 14.555 0 0 0 -11 14.582v16.018h-21a6 6 0 0 0 0 12h165.175c6.8 0 11.908 4.4 11.824 10.651a10.7 10.7 0 0 1 -10.811 10.349z"/></g></svg>