<svg id="Layer_1" height="512" viewBox="0 0 512 512" width="512" xmlns="http://www.w3.org/2000/svg" data-name="Layer 1"><path d="m127.08 449h-67.87a30.256 30.256 0 0 0 -30.21 30v4h128v-4a30.007 30.007 0 0 0 -29.92-30z" fill="#4689d3"/><path d="m66 58h54v391h-54z" fill="#c79a83"/><path d="m65.96 28.82h54.37v28.91h-54.37z" fill="#e1b7a3"/><path d="m89.21 449h-30a30.256 30.256 0 0 0 -30.21 30v4h30v-4a30.256 30.256 0 0 1 30.21-30z" fill="#3c7cb5"/><path d="m66 58h30v391h-30z" fill="#a87c69"/><path d="m65.96 28.82h30v28.91h-30z" fill="#cc9e8b"/><path d="m452.79 449h-67.87a30.007 30.007 0 0 0 -29.92 30v4h128v-4a30.256 30.256 0 0 0 -30.21-30z" fill="#4689d3"/><path d="m391.67 28.82h54.37v28.91h-54.37z" fill="#e1b7a3"/><path d="m392 58h54v391h-54z" fill="#c79a83"/><path d="m490.78 258.64h-37.89l-61.04 86.3h98.93a4.229 4.229 0 0 0 4.22-4.23v-77.84a4.229 4.229 0 0 0 -4.22-4.23z" fill="#6d7486"/><path d="m490.78 104.27h-37.89l-61.04 86.29h98.93a4.223 4.223 0 0 0 4.22-4.23v-77.83a4.229 4.229 0 0 0 -4.22-4.23z" fill="#6d7486"/><path d="m369.7 104.27-61.03 86.29h83 .18l61.04-86.29z" fill="#eadf53"/><path d="m369.7 258.64-61.03 86.3h83 .18l61.04-86.3z" fill="#eadf53"/><path d="m369.7 104.27-61.03 86.29h-83.19l61.04-86.29z" fill="#6d7486"/><path d="m369.7 258.64-61.03 86.3h-83.19l61.04-86.3z" fill="#6d7486"/><path d="m286.52 104.27-61.04 86.29h-83.18l61.03-86.29z" fill="#eadf53"/><path d="m286.52 258.64-61.04 86.3h-83.18l61.03-86.3z" fill="#eadf53"/><path d="m120.33 104.27h-.18l-61.04 86.29h.56 82.63l61.03-86.29z" fill="#6d7486"/><path d="m120.33 258.64h-.18l-61.04 86.3h.56 82.63l61.03-86.3z" fill="#6d7486"/><path d="m21.22 104.27a4.229 4.229 0 0 0 -4.22 4.23v77.83a4.223 4.223 0 0 0 4.22 4.23h37.89l61.04-86.29z" fill="#eadf53"/><path d="m21.22 258.64a4.229 4.229 0 0 0 -4.22 4.23v77.84a4.229 4.229 0 0 0 4.22 4.23h37.89l61.04-86.3z" fill="#eadf53"/><path d="m21.22 190.56h30a4.223 4.223 0 0 1 -4.22-4.23v-77.83a4.229 4.229 0 0 1 4.22-4.23h-30a4.229 4.229 0 0 0 -4.22 4.23v77.83a4.223 4.223 0 0 0 4.22 4.23z" fill="#c6ba46"/><path d="m47 340.71v-77.84a4.229 4.229 0 0 1 4.22-4.23h-30a4.229 4.229 0 0 0 -4.22 4.23v77.84a4.229 4.229 0 0 0 4.22 4.23h30a4.229 4.229 0 0 1 -4.22-4.23z" fill="#c6ba46"/><g fill="#284268"><path d="m265.829 367a6 6 0 0 0 -6-6h-91.756a6 6 0 1 0 0 12h91.756a6 6 0 0 0 6-6z"/><path d="m144.505 361a6 6 0 0 0 0 12h4.884a6 6 0 0 0 0-12z"/><path d="m490.5 98h-38.5v-69.179a5.815 5.815 0 0 0 -5.96-5.821h-54.374a5.573 5.573 0 0 0 -5.666 5.821v69.179h-260v-69.179a5.573 5.573 0 0 0 -5.666-5.821h-54.374a5.815 5.815 0 0 0 -5.96 5.821v69.179h-38.777a10.223 10.223 0 0 0 -10.223 10.223v11.777a6 6 0 0 0 12 0v-10h85.745l-53.045 75h-32.7v-23a6 6 0 0 0 -12 0v24.777a10.223 10.223 0 0 0 10.223 10.223h38.777v56h-38.777a9.939 9.939 0 0 0 -10.223 9.873v77.833a10.294 10.294 0 0 0 10.223 10.294h38.777v92h-.788a36.3 36.3 0 0 0 -36.212 36v4.18c0 3.314 3.025 5.821 6.339 5.821h127.616a5.888 5.888 0 0 0 6.045-5.822v-4.179a36.043 36.043 0 0 0 -35.918-36h-1.082v-92h260v92h-1.082a36.043 36.043 0 0 0 -35.918 36v4.18a5.888 5.888 0 0 0 6.045 5.82h127.616c3.314 0 6.339-2.507 6.339-5.821v-4.179a36.3 36.3 0 0 0 -36.212-36h-.788v-92h38.777a10.294 10.294 0 0 0 10.223-10.294v-77.833a9.939 9.939 0 0 0 -10.223-9.873h-38.777v-56h38.777a10.223 10.223 0 0 0 10.223-10.223v-78.277a10.533 10.533 0 0 0 -10.5-10.5zm-92.5-63h42v17h-42zm0 29h42v34h-42zm43.489 46-53.049 75h-68.488l53.048-75zm-315.489 143v-56h260v56zm232.3-143-53.049 75h-68.485l53.05-75zm-83.186 0-53.049 75h-68.484l53.049-75zm-203.114-75h42v17h-42zm0 63v-34h42v34zm51.444 12h68.487l-53.049 75h-68.488zm-51.444 87h42v56h-42zm-49 142v-74h85.553l-52.548 74zm104.082 116a24.1 24.1 0 0 1 23.805 22h-115.48a24.1 24.1 0 0 1 23.805-22zm-13.082-12h-42v-92h42zm-43.3-104 52.548-74h68.488l-52.548 74zm83.186 0 52.548-74h68.488l-52.548 74zm83.186 0 52.548-74h68.488l-52.548 74zm135.734-74h68.494l-52.548 74h-68.491zm79.979 190a24.1 24.1 0 0 1 23.805 22h-115.477a24.1 24.1 0 0 1 23.805-22zm-12.785-12h-42v-92h42zm49-178v74h-85.553l52.553-74zm-49-12h-42v-56h42zm49-68h-85.862l53.05-75h32.812z"/></g></svg>