<svg id="Icons" enable-background="new 0 0 512 512" height="512" viewBox="0 0 512 512" width="512" xmlns="http://www.w3.org/2000/svg"><g><circle cx="256" cy="256" fill="#f39e22" r="256"/><g><g><path d="m462.93 406.75c-46.56 63.8-121.91 105.25-206.93 105.25s-160.37-41.45-206.93-105.25z" fill="#c17e62"/><g fill="#d48d77"><path d="m380.58 406.75v72.95c-6.668 3.708-13.507 7.145-20.48 10.25v-83.2z"/><path d="m462.92 406.75c-4.978 6.838-10.303 13.422-15.94 19.73v-19.73z"/><path d="m200.532 406.75v42.24c0 5.66-4.59 10.25-10.25 10.25-5.65 0-10.24-4.59-10.24-10.25v-42.24z"/><path d="m305.71 457.94v49.23c-6.74 1.33-13.57 2.39-20.49 3.17v-52.4c0-5.65 4.59-10.24 10.24-10.24 5.656.004 10.249 4.576 10.25 10.24z"/><path d="m427.21 434.63v11.68c-6.53 5.9-13.37 11.45-20.49 16.63v-28.31c.528-13.576 19.964-13.571 20.49 0z"/><path d="m248.63 406.75v105.14c-6.849-.186-13.674-.653-20.48-1.39v-103.75z"/><path d="m163.68 460.62v34.23c-6.98-2.7-13.81-5.7-20.48-8.98v-25.25c.518-13.58 19.966-13.573 20.48 0z"/><path d="m95.83 407.27v48.44c-7.145-5.736-13.984-11.856-20.48-18.32v-30.12c0-.17 0-.35.01-.52h20.46c.01.18.01.35.01.52z"/></g></g><g><g><path d="m279.919 317.265h-47.837c-8.47 0-15.336 6.866-15.336 15.336v63.173h78.509v-63.173c-.001-8.47-6.867-15.336-15.336-15.336z" fill="#9175a7"/><path d="m345.944 395.774h-179.888c-9.186 0-16.632 7.447-16.632 16.632 0 9.186 7.446 16.632 16.632 16.632h179.887c9.186 0 16.632-7.446 16.632-16.632.001-9.185-7.446-16.632-16.631-16.632z" fill="#9175a7"/><path d="m311.458 395.774h-110.916c-5.664 0-10.255 4.591-10.255 10.255s4.591 10.255 10.255 10.255h110.915c5.664 0 10.255-4.591 10.255-10.255.001-5.664-4.591-10.255-10.254-10.255z" fill="#a583bb"/><path d="m425.253 136.298v187.669c0 5.117-1.521 9.9-4.149 13.899-3.296 5.117-8.379 8.932-14.383 10.603-2.19.634-4.529.968-6.892.968h-287.658c-2.409 0-4.702-.334-6.892-.968-6.004-1.671-11.087-5.486-14.383-10.603-2.628-3.999-4.149-8.782-4.149-13.899v-187.669c0-2.363.334-4.702.956-6.892 2.374-8.494 9.047-15.201 17.575-17.575 2.19-.622 4.529-.957 6.892-.957h287.659c2.409 0 4.702.334 6.892.957 8.494 2.374 15.201 9.047 17.575 17.575.623 2.19.957 4.53.957 6.892z" fill="#c2aacf"/><path d="m123.822 136.298v187.669c0 5.117-1.521 9.9-4.161 13.899-3.296 5.117-8.379 8.932-14.383 10.603-6.004-1.671-11.087-5.486-14.383-10.603-2.628-3.999-4.149-8.782-4.149-13.899v-187.669c0-11.64 7.814-21.459 18.532-24.467 10.719 3.008 18.544 12.827 18.544 24.467z" fill="#a583bb"/><path d="m425.253 136.298v187.669c0 5.117-1.521 9.9-4.149 13.899-3.296 5.117-8.379 8.932-14.383 10.603-6.004-1.671-11.087-5.486-14.383-10.603-2.639-3.999-4.161-8.782-4.161-13.899v-187.669c0-11.675 7.86-21.494 18.543-24.467 10.673 2.974 18.533 12.793 18.533 24.467z" fill="#decee5"/><path d="m425.253 296.977v26.991c0 5.117-1.521 9.9-4.149 13.899-3.296 5.117-8.379 8.932-14.383 10.603-2.19.634-4.529.968-6.892.968h-287.658c-2.409 0-4.702-.334-6.892-.968-6.004-1.671-11.087-5.486-14.383-10.603-2.628-3.999-4.149-8.782-4.149-13.899v-26.991z" fill="#a583bb"/><path d="m123.822 296.977v26.991c0 5.117-1.521 9.9-4.161 13.899-3.296 5.117-8.379 8.932-14.383 10.603-6.004-1.671-11.087-5.486-14.383-10.603-2.628-3.999-4.149-8.782-4.149-13.899v-26.991z" fill="#9175a7"/><path d="m425.253 296.977v26.991c0 5.117-1.521 9.9-4.149 13.899-3.296 5.117-8.379 8.932-14.383 10.603-6.004-1.671-11.087-5.486-14.383-10.603-2.639-3.999-4.161-8.782-4.161-13.899v-26.991z" fill="#c2aacf"/><path d="m276.247 323.207h-40.494c-5.217 0-9.446 4.229-9.446 9.446s4.229 9.446 9.446 9.446h40.494c5.217 0 9.446-4.229 9.446-9.446s-4.229-9.446-9.446-9.446z" fill="#9175a7"/><path d="m353.862 136.298h-165.23c-7.021 0-12.712-5.691-12.712-12.712s5.691-12.712 12.712-12.712h165.23c7.021 0 12.712 5.691 12.712 12.712s-5.692 12.712-12.712 12.712z" fill="#decee5"/></g><g><path d="m390.661 316.35h-269.322c-8.867 0-16.054-7.188-16.054-16.054v-147.943c0-8.867 7.188-16.054 16.054-16.054h269.321c8.867 0 16.054 7.188 16.054 16.054v147.943c.001 8.867-7.187 16.054-16.053 16.054z" fill="#334353"/><g><g><circle cx="279.541" cy="295.644" fill="#53b976" r="12.436"/><circle cx="312.138" cy="295.644" fill="#e9465e" r="12.436"/><path d="m193.102 289.968h57.537c3.135 0 5.676 2.541 5.676 5.677 0 3.135-2.541 5.677-5.676 5.677h-57.537c-3.135 0-5.677-2.541-5.677-5.677.001-3.136 2.542-5.677 5.677-5.677z" fill="#3f5d77"/></g><g><path d="m312.364 147.138h-112.728c-6.743 0-12.21 5.466-12.21 12.21v103.155c0 6.743 5.466 12.21 12.21 12.21h112.729c6.743 0 12.21-5.466 12.21-12.21v-103.155c-.001-6.743-5.467-12.21-12.211-12.21z" fill="#3f5d77"/><g><g><g><circle cx="223.943" cy="180.149" fill="#334353" r="28.401"/></g><path d="m227.793 191.631c3.662-.877 6.773-3.615 8.189-7.094h2.327c4.587-.078 4.595-7.172 0-7.249 0 0-.727 0-1.455 0-.044-1.582.142-6.031-.194-7.509-.596-3.452-2.828-6.562-5.882-8.272-8.308-4.395-19.759.183-19.76 10.384v5.397c-.727 0-1.454 0-1.454 0-4.592.078-4.591 7.171 0 7.249h2.335c1.446 3.643 4.566 6.191 8.414 7.116v1.4c-5.058 1.218-9.565 5.001-11.148 11.353 8.79 5.493 20.749 5.494 29.524.015-1.177-5.595-5.729-10.176-11.126-11.405v-1.325c.076-.019.153-.041.23-.06z" fill="#decee5"/></g><g><g><circle cx="223.943" cy="241.702" fill="#334353" r="28.401"/></g><path d="m227.793 253.183c3.662-.877 6.773-3.615 8.189-7.094h2.327c4.587-.078 4.595-7.172 0-7.249 0 0-.727 0-1.455 0-.044-1.582.142-6.031-.194-7.509-.596-3.452-2.828-6.562-5.882-8.272-8.308-4.395-19.759.183-19.76 10.384v5.397c-.727 0-1.454 0-1.454 0-4.592.078-4.591 7.171 0 7.249h2.335c1.446 3.643 4.566 6.191 8.414 7.116v1.4c-5.058 1.218-9.565 5.001-11.148 11.353 8.79 5.493 20.749 5.494 29.524.015-1.177-5.595-5.729-10.176-11.126-11.405v-1.325c.076-.018.153-.041.23-.06z" fill="#decee5"/></g><g><g><circle cx="288.057" cy="180.149" fill="#334353" r="28.401"/></g><path d="m291.908 191.631c3.662-.877 6.773-3.615 8.189-7.094h2.327c4.587-.078 4.595-7.172 0-7.249 0 0-.727 0-1.455 0-.044-1.582.142-6.031-.194-7.509-.596-3.452-2.828-6.562-5.882-8.272-8.307-4.395-19.759.183-19.76 10.384v5.397c-.727 0-1.454 0-1.454 0-4.592.078-4.591 7.171 0 7.249h2.335c1.446 3.643 4.566 6.191 8.414 7.116v1.4c-5.058 1.218-9.565 5.001-11.148 11.353 8.79 5.493 20.749 5.494 29.524.015-1.177-5.595-5.729-10.176-11.126-11.405v-1.325c.076-.019.153-.041.23-.06z" fill="#decee5"/></g><g><g><circle cx="288.057" cy="241.702" fill="#334353" r="28.401"/></g><path d="m291.908 253.183c3.662-.877 6.773-3.615 8.189-7.094h2.327c4.587-.078 4.595-7.172 0-7.249 0 0-.727 0-1.455 0-.044-1.582.142-6.031-.194-7.509-.596-3.452-2.828-6.562-5.882-8.272-8.307-4.395-19.759.183-19.76 10.384v5.397c-.727 0-1.454 0-1.454 0-4.592.078-4.591 7.171 0 7.249h2.335c1.446 3.643 4.566 6.191 8.414 7.116v1.4c-5.058 1.218-9.565 5.001-11.148 11.353 8.79 5.493 20.749 5.494 29.524.015-1.177-5.595-5.729-10.176-11.126-11.405v-1.325c.076-.018.153-.041.23-.06z" fill="#decee5"/></g></g></g></g></g></g></g></g></svg>