<svg id="Layer_1" height="512" viewBox="0 0 512 512" width="512" xmlns="http://www.w3.org/2000/svg" data-name="Layer 1"><path d="m386.81 17h-289.81v478h289.81a40.164 40.164 0 0 0 40.19-40v-398a40.164 40.164 0 0 0 -40.19-40z" fill="#71c2ff"/><path d="m96.51 17v478h-4.28a40 40 0 0 1 -40-40v-398a40 40 0 0 1 40-40z" fill="#5a5a84"/><path d="m459.77 352.12v44.81a14.963 14.963 0 0 1 -14.98 14.94h-17.98v-74.69h17.98a14.963 14.963 0 0 1 14.98 14.94z" fill="#eadf53"/><path d="m459.77 260.02v44.81a14.963 14.963 0 0 1 -14.98 14.94h-17.98v-74.69h17.98a14.963 14.963 0 0 1 14.98 14.94z" fill="#adf8d1"/><path d="m459.77 167.67v44.81a14.963 14.963 0 0 1 -14.98 14.94h-17.98v-74.69h17.98a14.963 14.963 0 0 1 14.98 14.94z" fill="#eb7288"/><path d="m351.17 226h-183a12.758 12.758 0 0 0 -9.15 4 14.511 14.511 0 0 0 -3.98 9.965 14.039 14.039 0 0 0 13.97 14.035h183a14.1 14.1 0 0 0 9.88-4.225 13.849 13.849 0 0 0 4.09-9.843c0-7.7-6.26-13.932-14.81-13.932z" fill="#e75163"/><path d="m276.06 124.25h-31.1a74.716 74.716 0 0 0 -74.82 74.62v26.97h180.74v-26.97a74.722 74.722 0 0 0 -74.82-74.62z" fill="#ff5576"/><path d="m76.23 455v-398a39.979 39.979 0 0 1 20.28-34.8v-5.2h-4.28a40 40 0 0 0 -40 40v398a40 40 0 0 0 40 40h4.28v-5.2a39.979 39.979 0 0 1 -20.28-34.8z" fill="#8282ad"/><path d="m179.04 239.965a14.511 14.511 0 0 1 3.98-9.965 12.758 12.758 0 0 1 9.15-4h-24a12.758 12.758 0 0 0 -9.15 4 14.511 14.511 0 0 0 -3.98 9.965 14.039 14.039 0 0 0 13.97 14.035h24a14.039 14.039 0 0 1 -13.97-14.035z" fill="#cc445b"/><path d="m268.96 124.25h-24a74.716 74.716 0 0 0 -74.82 74.62v26.97h24v-26.97a74.716 74.716 0 0 1 74.82-74.62z" fill="#e55577"/><path d="m277.18 201.83h-33.34a7.654 7.654 0 0 0 -7.67 7.65v16.36h48.68v-16.36a7.661 7.661 0 0 0 -7.67-7.65z" fill="#ad2a34"/><path d="m275.83 124.25v77.58h-30.65v-78.03a15.325 15.325 0 0 1 30.65 0z" fill="#de3c44"/><g fill="#284268"><path d="m92.228 501h294.581a46.216 46.216 0 0 0 46.191-46v-37h11.789a21.3 21.3 0 0 0 21.211-21.072v-44.813a21.333 21.333 0 0 0 -21.211-21.115h-11.789v-5h11.789a21.382 21.382 0 0 0 21.211-21.172v-44.813a21.247 21.247 0 0 0 -21.211-21.015h-11.789v-6h11.789c11.57 0 21.211-8.977 21.211-20.522v-44.812c0-11.545-9.641-20.666-21.211-20.666h-11.789v-90a46.216 46.216 0 0 0 -46.191-46h-294.581a46.248 46.248 0 0 0 -46.228 46v398a46.248 46.248 0 0 0 46.228 46zm340.772-342h11.789c4.953 0 9.211 3.737 9.211 8.666v44.812c0 4.928-4.258 8.522-9.211 8.522h-11.789zm0 92h11.789a9.235 9.235 0 0 1 9.211 9.015v44.813a9.371 9.371 0 0 1 -9.211 9.172h-11.789zm0 92h11.789a9.322 9.322 0 0 1 9.211 9.115v44.813a9.284 9.284 0 0 1 -9.211 9.072h-11.789zm-375-286a34.232 34.232 0 0 1 33-33.969v49.969a6 6 0 0 0 12 0v-50h283.809a34.2 34.2 0 0 1 34.191 34v398a34.2 34.2 0 0 1 -34.191 34h-283.809v-374a6 6 0 0 0 -12 0v373.969a34.232 34.232 0 0 1 -33-33.969z"/><path d="m124 193.181a6 6 0 0 0 6-6v-121.756a6 6 0 0 0 -12 0v121.756a6 6 0 0 0 6 6z"/><path d="m124 52.741a6 6 0 0 0 6-6v-4.884a6 6 0 0 0 -12 0v4.884a6 6 0 0 0 6 6z"/><path d="m169.009 260h183a20.152 20.152 0 0 0 20.033-20.079 19.718 19.718 0 0 0 -15.042-19.327v-21.723c0-42.757-33.608-77.83-75.823-80.445a21.377 21.377 0 0 0 -41.331 0c-42.216 2.615-75.846 37.688-75.846 80.445v21.449c-8 1.99-15.032 10.232-15.032 19.6a20.159 20.159 0 0 0 20.041 20.08zm112.991-129.488c35 2.936 63 32.463 63 68.359v21.129h-54v-10.522a14 14 0 0 0 -9-12.817zm-31-6.712a9.5 9.5 0 0 1 19 0v72.2h-19zm-9 85.675a1.68 1.68 0 0 1 1.838-1.475h33.34a1.665 1.665 0 0 1 1.822 1.478v10.522h-37zm-66-10.607c0-35.9 28-65.423 63-68.359v66.149a14 14 0 0 0 -9 12.817v10.525h-54zm-7.833 33.132h183c5.025 0 8.814 3.476 8.814 8a8.018 8.018 0 0 1 -7.972 8h-183a8.019 8.019 0 0 1 -7.973-8c0-4.542 3.764-8 7.131-8z"/><path d="m152.051 334h3a6 6 0 0 0 0-12h-3a6 6 0 0 0 0 12z"/><path d="m195.279 322h-10.319a6 6 0 0 0 0 12h10.319a6 6 0 0 0 0-12z"/><path d="m225.676 322a6 6 0 1 0 0 12h143.289a6 6 0 0 0 0-12z"/><path d="m152.051 372h3a6 6 0 0 0 0-12h-3a6 6 0 1 0 0 12z"/><path d="m195.279 360h-10.319a6 6 0 0 0 0 12h10.319a6 6 0 0 0 0-12z"/><path d="m368.965 360h-143.289a6 6 0 1 0 0 12h143.289a6 6 0 0 0 0-12z"/><path d="m152.051 409h3a6 6 0 0 0 0-12h-3a6 6 0 1 0 0 12z"/><path d="m195.279 397h-10.319a6 6 0 0 0 0 12h10.319a6 6 0 0 0 0-12z"/><path d="m368.965 397h-143.289a6 6 0 1 0 0 12h143.289a6 6 0 0 0 0-12z"/></g></svg>