<svg id="Icons" enable-background="new 0 0 512 512" height="512" viewBox="0 0 512 512" width="512" xmlns="http://www.w3.org/2000/svg"><g><circle cx="256" cy="256" fill="#f39e22" r="256"/><g><path d="m255.76 470.933c-3.955 0-7.954-.11-11.886-.328-2.757-.152-4.869-2.511-4.716-5.269.152-2.757 2.521-4.873 5.269-4.716 6.445.356 13.029.407 19.501.151 2.759-.11 5.084 2.039 5.194 4.798.109 2.759-2.039 5.084-4.798 5.194-2.839.112-5.72.17-8.564.17zm47.907-5.47c-2.274 0-4.331-1.562-4.866-3.872-.624-2.69 1.051-5.376 3.741-6 6.312-1.463 12.624-3.248 18.759-5.304 2.624-.877 5.453.534 6.33 3.152.877 2.619-.534 5.452-3.152 6.33-6.436 2.157-13.057 4.029-19.678 5.563-.38.089-.76.131-1.134.131zm-98.959-.846c-.404 0-.815-.049-1.225-.152-6.586-1.66-13.17-3.658-19.57-5.94-2.601-.927-3.958-3.788-3.03-6.389.928-2.602 3.787-3.958 6.389-3.03 6.101 2.175 12.377 4.081 18.655 5.662 2.678.675 4.301 3.393 3.627 6.07-.572 2.267-2.609 3.779-4.846 3.779zm154.631-20.832c-1.743 0-3.436-.913-4.355-2.538-1.36-2.403-.515-5.454 1.888-6.814 5.632-3.189 11.18-6.69 16.489-10.406 2.262-1.583 5.379-1.034 6.963 1.229 1.583 2.262 1.033 5.38-1.229 6.963-5.569 3.898-11.388 7.57-17.297 10.916-.777.44-1.624.65-2.459.65zm-209.883-1.89c-.863 0-1.738-.224-2.536-.695-5.844-3.448-11.597-7.221-17.098-11.214-2.235-1.622-2.731-4.749-1.109-6.983s4.748-2.731 6.983-1.109c5.246 3.808 10.732 7.406 16.306 10.694 2.378 1.403 3.168 4.469 1.765 6.847-.933 1.58-2.6 2.46-4.311 2.46zm257.146-34.653c-1.254 0-2.51-.469-3.481-1.412-1.982-1.923-2.03-5.088-.107-7.07 4.507-4.646 8.849-9.566 12.903-14.624 1.727-2.154 4.873-2.501 7.029-.774 2.154 1.728 2.501 4.874.774 7.029-4.251 5.302-8.803 10.461-13.528 15.332-.981 1.011-2.285 1.519-3.59 1.519zm-303.776-2.689c-1.333 0-2.663-.53-3.647-1.578-4.651-4.957-9.117-10.191-13.271-15.559-1.69-2.184-1.29-5.324.894-7.015 2.184-1.689 5.324-1.29 7.015.894 3.961 5.119 8.219 10.11 12.655 14.837 1.89 2.013 1.789 5.178-.225 7.067-.966.905-2.195 1.354-3.421 1.354zm338.887-45.643c-.788 0-1.586-.187-2.332-.58-2.441-1.29-3.375-4.315-2.085-6.757 3.026-5.727 5.812-11.666 8.278-17.652 1.053-2.553 3.974-3.769 6.528-2.718 2.553 1.052 3.77 3.975 2.718 6.528-2.587 6.278-5.508 12.506-8.682 18.513-.896 1.698-2.631 2.666-4.425 2.666zm-373.159-3.291c-1.827 0-3.587-1.004-4.467-2.747-3.064-6.067-5.87-12.352-8.336-18.678-1.003-2.573.269-5.472 2.842-6.475 2.572-1.004 5.471.269 6.475 2.842 2.352 6.03 5.025 12.02 7.946 17.802 1.245 2.465.256 5.472-2.208 6.717-.724.366-1.494.539-2.252.539zm393.254-52.967c-.328 0-.661-.032-.995-.1-2.707-.546-4.458-3.184-3.911-5.891 1.281-6.345 2.27-12.828 2.938-19.27.285-2.747 2.744-4.746 5.489-4.457 2.747.285 4.742 2.743 4.457 5.489-.701 6.758-1.738 13.56-3.083 20.217-.478 2.374-2.564 4.012-4.895 4.012zm-412.282-3.66c-2.368 0-4.472-1.689-4.913-4.102-1.205-6.593-2.116-13.338-2.706-20.049l-.019-.212c-.238-2.751 1.8-5.174 4.551-5.412 2.762-.233 5.174 1.8 5.412 4.551l.015.172c.565 6.427 1.434 12.862 2.583 19.151.497 2.716-1.303 5.321-4.02 5.817-.302.057-.605.084-.903.084zm415.615-55.986c-2.567 0-4.751-1.966-4.976-4.572l-.035-.407c-.569-6.464-1.45-12.966-2.617-19.316-.5-2.716 1.298-5.322 4.014-5.821 2.707-.499 5.322 1.297 5.821 4.014 1.224 6.657 2.147 13.472 2.744 20.255l.036.418c.237 2.751-1.802 5.174-4.553 5.41-.145.013-.29.019-.434.019zm-417.969-3.71c-.171 0-.344-.009-.518-.027-2.747-.282-4.745-2.738-4.462-5.485.695-6.759 1.725-13.562 3.063-20.22.544-2.708 3.182-4.461 5.887-3.917 2.708.544 4.461 3.18 3.917 5.887-1.275 6.346-2.257 12.83-2.919 19.272-.265 2.574-2.436 4.49-4.968 4.49zm404.346-54.863c-1.999 0-3.886-1.207-4.658-3.18-2.357-6.028-5.037-12.016-7.963-17.794-1.247-2.464-.261-5.472 2.202-6.72 2.463-1.245 5.472-.262 6.72 2.202 3.07 6.063 5.881 12.344 8.354 18.669 1.006 2.572-.263 5.472-2.835 6.478-.599.234-1.215.345-1.82.345zm-389.794-3.069c-.633 0-1.276-.121-1.898-.376-2.554-1.05-3.774-3.971-2.725-6.525 2.58-6.278 5.495-12.51 8.664-18.521 1.289-2.443 4.313-3.377 6.755-2.092 2.443 1.288 3.379 4.312 2.091 6.755-3.021 5.732-5.8 11.673-8.26 17.659-.795 1.931-2.66 3.1-4.627 3.1zm360.293-48.882c-1.492 0-2.969-.665-3.954-1.936-3.969-5.117-8.232-10.104-12.67-14.824-1.892-2.012-1.794-5.176.217-7.068s5.176-1.794 7.068.217c4.654 4.949 9.125 10.18 13.287 15.546 1.692 2.182 1.296 5.323-.886 7.015-.912.708-1.991 1.05-3.062 1.05zm-329.967-2.586c-1.095 0-2.198-.358-3.12-1.095-2.157-1.725-2.506-4.872-.782-7.028 4.243-5.305 8.79-10.468 13.514-15.346 1.92-1.985 5.086-2.036 7.07-.114 1.983 1.921 2.034 5.086.113 7.07-4.505 4.652-8.842 9.577-12.888 14.636-.986 1.234-2.44 1.877-3.907 1.877zm287.021-38.956c-1.017 0-2.043-.309-2.929-.951-5.25-3.803-10.739-7.396-16.316-10.679-2.38-1.401-3.173-4.466-1.772-6.845 1.4-2.38 4.466-3.174 6.845-1.772 5.849 3.443 11.604 7.21 17.109 11.198 2.236 1.62 2.736 4.746 1.116 6.982-.978 1.35-2.505 2.067-4.053 2.067zm-243.463-1.945c-1.575 0-3.125-.742-4.098-2.129-1.586-2.261-1.039-5.379 1.222-6.964 5.564-3.903 11.38-7.581 17.286-10.932 2.402-1.364 5.454-.521 6.816 1.881 1.363 2.401.521 5.453-1.881 6.816-5.63 3.195-11.174 6.701-16.479 10.421-.872.612-1.874.907-2.866.907zm190.606-25.876c-.556 0-1.121-.093-1.675-.291-6.103-2.169-12.38-4.068-18.66-5.644-2.679-.672-4.305-3.388-3.633-6.066.671-2.679 3.388-4.306 6.066-3.633 6.588 1.652 13.175 3.645 19.577 5.921 2.602.925 3.961 3.784 3.036 6.386-.728 2.048-2.655 3.327-4.711 3.327zm-137.298-1.081c-2.089 0-4.037-1.319-4.739-3.408-.88-2.617.528-5.453 3.146-6.333 6.435-2.163 13.053-4.042 19.672-5.583 2.689-.625 5.377 1.047 6.004 3.735.626 2.689-1.046 5.378-3.736 6.004-6.31 1.47-12.619 3.26-18.753 5.322-.529.179-1.067.263-1.594.263zm78.734-10.661c-.091 0-.183-.002-.275-.007-6.447-.35-13.001-.395-19.502-.133-2.761.107-5.086-2.036-5.198-4.794-.111-2.759 2.035-5.086 4.794-5.198 6.814-.275 13.688-.228 20.448.14 2.757.149 4.871 2.506 4.722 5.264-.145 2.664-2.352 4.728-4.989 4.728z" fill="#f9c744"/></g><g><g><g><path d="m297.761 384.925v34.452h83.996v-34.452c0-17.26-13.988-31.257-31.257-31.257h-21.481c-17.27 0-31.258 13.998-31.258 31.257z" fill="#57409b"/><path d="m297.761 384.925v34.452h63.992v-34.452c0-17.26-13.988-31.257-31.257-31.257h-1.478c-17.269 0-31.257 13.998-31.257 31.257z" fill="#6052a3"/></g><g><path d="m325.881 340.543v15.072c0 7.666 6.217 13.873 13.883 13.873 2.571 0 4.979-.7 7.042-1.919 4.087-2.408 6.831-6.86 6.831-11.954v-15.072z" fill="#f5b890"/><path d="m353.636 340.543v15.072c0 5.094-2.744 9.546-6.831 11.954v-16.108c-4.826 2.015-10.131 3.128-15.696 3.128-1.775 0-3.521-.115-5.229-.326v-13.719h27.756z" fill="#d48d77"/></g><g><g><path d="m290.277 249.774v56.72c0 11.273 4.567 21.481 11.954 28.868 5.334 5.325 12.127 9.181 19.725 10.928 2.945.672 6.006 1.027 9.153 1.027 22.546 0 40.832-18.277 40.832-40.823v-56.72c0-12.357-10.026-22.373-22.383-22.373h-36.908c-2.168 0-4.26.307-6.245.892-9.316 2.696-16.128 11.292-16.128 21.481z" fill="#d48d77"/><path d="m290.277 249.774v56.72c0 11.273 4.567 21.481 11.954 28.868 5.334 5.325 12.127 9.181 19.725 10.928 18.152-4.154 31.68-20.397 31.68-39.796v-21.702c0-28.235-20.378-51.702-47.231-56.499-9.316 2.696-16.128 11.292-16.128 21.481z" fill="#f5b890"/><g fill="#d48d77"><path d="m319.563 287.36h8.324c3.419 0 6.19 2.771 6.19 6.19s-2.771 6.19-6.19 6.19h-8.324c-3.419 0-6.19-2.771-6.19-6.19 0-3.418 2.771-6.19 6.19-6.19z"/><path d="m320.665 227.4h10.442v64.162h-10.442z" transform="matrix(-1 0 0 -1 651.773 518.962)"/></g><g fill="#334353"><path d="m342.189 263.147c3.124 0 5.657 2.533 5.657 5.657v9.874c0 3.124-2.533 5.657-5.657 5.657s-5.657-2.533-5.657-5.657v-9.874c0-3.124 2.533-5.657 5.657-5.657z"/><path d="m309.584 263.147c3.124 0 5.657 2.533 5.657 5.657v9.874c0 3.124-2.533 5.657-5.657 5.657s-5.657-2.533-5.657-5.657v-9.874c.001-3.124 2.533-5.657 5.657-5.657z"/></g><g><path d="m329.63 322.555c9.8 0 17.773-7.973 17.773-17.772 0-1.855-1.503-3.358-3.358-3.358s-3.358 1.503-3.358 3.358c0 6.096-4.96 11.057-11.057 11.057-1.855 0-3.358 1.503-3.358 3.358 0 1.854 1.503 3.357 3.358 3.357z" fill="#c17e62"/></g></g><g><path d="m284.617 253.833c0-14.012 5.684-26.703 14.865-35.884 6.55-6.549 14.89-11.32 24.215-13.52 3.749-.877 7.655-1.346 11.669-1.346 28.037 0 50.75 22.713 50.75 50.75l-.09 55.52c-.023 14.33-11.646 25.934-25.976 25.934 7.348-7.382 11.892-17.556 11.892-28.793v-47.013h-39.902c-9.603 0-17.389-7.785-17.389-17.389 0 9.604-7.785 17.389-17.389 17.389h-6.985v47.013c0 11.235 4.538 21.411 11.882 28.793-9.688 0-17.542-7.854-17.542-17.542z" fill="#334353"/><path d="m284.617 253.833c0-14.012 5.684-26.703 14.865-35.884 6.55-6.549 14.89-11.32 24.215-13.52 22.4 5.276 39.081 25.381 39.081 49.404v5.648h-30.738c-9.603 0-17.389-7.785-17.389-17.389 0 9.604-7.785 17.389-17.389 17.389h-6.985v47.013c0 11.235 4.538 21.411 11.882 28.793-9.688 0-17.542-7.854-17.542-17.542z" fill="#3e4e60"/></g><g><g><path d="m378.819 295.276h-6.882v-21.535h6.882c5.947 0 10.768 4.821 10.768 10.768 0 5.946-4.821 10.767-10.768 10.767z" fill="#d48d77"/><path d="m379.167 289.129h-7.229v-9.241h7.229c2.552 0 4.621 2.069 4.621 4.621-.001 2.551-2.07 4.62-4.621 4.62z" fill="#c17e62"/></g><g><path d="m287.265 273.741h3.014v21.535h-3.014c-5.947 0-10.768-4.821-10.768-10.768 0-5.946 4.821-10.767 10.768-10.767z" fill="#d48d77"/><path d="m286.917 279.888h3.361v9.241h-3.361c-2.552 0-4.621-2.069-4.621-4.621.001-2.551 2.069-4.62 4.621-4.62z" fill="#c17e62"/></g></g></g></g><g><g><g><path d="m436.55 409.4c0 2.1-.35 4.13-1.02 6.02-.91 2.6-2.4 4.93-4.3 6.84-3.29 3.29-7.84 5.32-12.86 5.32h-352.36c-3.52-3.89-6.92-7.9-10.2-12.01-6.19-7.76-11.94-15.88-17.22-24.34h379.78c10.04 0 18.18 8.13 18.18 18.17z" fill="#a26d5a"/><path d="m436.55 409.4c0 2.1-.35 4.13-1.02 6.02-.76.1-1.53.15-2.32.15h-377.4c-6.19-7.76-11.94-15.88-17.22-24.34h379.78c10.04 0 18.18 8.13 18.18 18.17z" fill="#c17e62"/><path d="m370.299 415.57h-236.317c-6.721 0-12.17-5.449-12.17-12.17s5.449-12.17 12.17-12.17h236.317c6.721 0 12.17 5.449 12.17 12.17 0 6.722-5.449 12.17-12.17 12.17z" fill="#d48d77"/></g><g><path d="m390.62 427.58v46.2c-7.24 4.49-14.72 8.62-22.41 12.37-33.88 16.56-71.96 25.85-112.21 25.85-63.53 0-121.66-23.15-166.41-61.47-8.34-7.14-16.22-14.81-23.58-22.95z" fill="#a26d5a"/><path d="m368.21 464.37v21.78c-33.88 16.56-71.96 25.85-112.21 25.85-63.53 0-121.66-23.15-166.41-61.47.79-.14 1.61-.21 2.44-.21h262.13c7.77 0 14.05 6.29 14.05 14.05z" fill="#c17e62"/><path d="m336.872 488.239h-181.799c-10.472 0-18.961-8.489-18.961-18.961s8.489-18.961 18.961-18.961h181.799c10.472 0 18.961 8.489 18.961 18.961s-8.489 18.961-18.961 18.961z" fill="#d48d77"/></g></g><g><g><path d="m251.13 241.565v95.945c0 2.616-.777 5.061-2.123 7.108-1.687 2.616-4.284 4.568-7.354 5.421-1.118.322-2.312.493-3.525.493h-147.065c-1.232 0-2.407-.171-3.525-.493-3.071-.853-5.667-2.805-7.354-5.421-1.346-2.047-2.123-4.492-2.123-7.108v-95.945c0-1.213.171-2.407.493-3.525 1.213-4.341 4.625-7.771 8.984-8.984 1.118-.322 2.312-.493 3.525-.493h147.064c1.232 0 2.407.171 3.525.493 4.34 1.213 7.771 4.625 8.984 8.984.323 1.118.494 2.312.494 3.525z" fill="#c2aacf"/><path d="m249.007 344.618c-2.312 3.563-6.312 5.914-10.88 5.914h-147.064c-4.568 0-8.567-2.35-10.88-5.914 5.137-14.67 19.106-25.171 35.501-25.171h97.803c16.414 0 30.383 10.5 35.52 25.171z" fill="#9175a7"/><path d="m97.014 241.565v95.945c0 2.616-.777 5.061-2.123 7.108-1.687 2.616-4.284 4.568-7.354 5.421-3.071-.853-5.667-2.805-7.354-5.421-1.346-2.047-2.123-4.492-2.123-7.108v-95.945c0-5.952 3.999-10.974 9.477-12.51 5.478 1.535 9.477 6.558 9.477 12.51z" fill="#a583bb"/><path d="m251.13 241.565v95.945c0 2.616-.777 5.061-2.123 7.108-1.687 2.616-4.284 4.568-7.354 5.421-3.071-.853-5.667-2.805-7.354-5.421-1.346-2.047-2.123-4.492-2.123-7.108v-95.945c0-5.971 4.018-10.993 9.477-12.51 5.458 1.516 9.477 6.539 9.477 12.51z" fill="#decee5"/><path d="m127.672 246.256h73.845c4.75 0 8.6-3.851 8.6-8.6 0-4.75-3.851-8.6-8.6-8.6h-73.845c-4.75 0-8.6 3.851-8.6 8.6s3.85 8.6 8.6 8.6z" fill="#ebd9ea"/></g><path d="m176.824 334.084h-24.458c-4.33 0-7.841 3.51-7.841 7.841v32.298h40.139v-32.298c0-4.33-3.51-7.841-7.84-7.841z" fill="#a583bb"/><g><path d="m210.58 374.223h-91.97c-4.696 0-8.503 3.807-8.503 8.503s3.807 8.503 8.503 8.503h91.97c4.696 0 8.503-3.807 8.503-8.503s-3.807-8.503-8.503-8.503z" fill="#c2aacf"/><path d="m192.948 374.223h-56.707c-2.896 0-5.243 2.347-5.243 5.243s2.347 5.243 5.243 5.243h56.707c2.896 0 5.243-2.347 5.243-5.243s-2.347-5.243-5.243-5.243z" fill="#decee5"/></g></g></g></g><g><g><path d="m308.382 119.987c0 17.457-5.084 33.731-13.844 47.421-15.647 24.421-43.019 40.604-74.18 40.604-48.611 0-88.024-39.407-88.024-88.024 0-30.696 15.718-57.723 39.541-73.476 13.901-9.197 30.569-14.549 48.484-14.549 48.616-.001 88.023 39.413 88.023 88.024z" fill="#4fcae8"/><path d="m293.009 135.359c0 17.457-5.084 33.731-13.844 47.421-1.465 2.289-3.035 4.507-4.704 6.648 0 0-.007.007-.007.014-14.922 11.633-33.696 18.57-54.096 18.57-48.611 0-88.024-39.407-88.024-88.024 0-20.386 6.929-39.153 18.57-54.075 1.81-1.415 3.676-2.76 5.598-4.028 13.901-9.197 30.569-14.549 48.484-14.549 48.616-.001 88.023 39.413 88.023 88.023z" fill="#22a8b9"/><path d="m204.985 47.335c-13.793 0-26.841 3.183-38.462 8.841-5.443 11.445-8.5 24.243-8.5 37.756 0 48.611 39.407 88.024 88.024 88.024 13.797 0 26.844-3.182 38.465-8.838 5.44-11.446 8.498-24.244 8.498-37.758-.001-48.611-39.408-88.025-88.025-88.025z" fill="#22bce0"/><path d="m308.361 121.747c.014-.584.021-1.176.021-1.76s-.007-1.176-.021-1.76h-45.392c-.12-13.274-1.676-25.83-4.359-37.041 11.605-4.718 21.168-11.514 27.59-19.626-.789-.887-1.591-1.753-2.415-2.606-3.246 4.211-7.479 8.126-12.605 11.612-4.098 2.782-8.605 5.183-13.436 7.183-7.239-27.21-21.26-45.681-37.386-45.787h-.211c-16.154.056-30.203 18.541-37.449 45.787-4.831-2-9.338-4.401-13.436-7.183-5.077-3.443-9.26-7.303-12.485-11.457-.817.852-1.62 1.725-2.401 2.62 6.415 8.042 15.929 14.774 27.457 19.457-2.683 11.211-4.239 23.767-4.359 37.041h-45.118c-.014.584-.021 1.176-.021 1.76s.007 1.176.021 1.76h45.118c.113 12.781 1.563 24.893 4.063 35.78-11.739 4.824-21.372 11.767-27.738 20.063.782.901 1.577 1.789 2.394 2.655 3.303-4.443 7.69-8.563 13.07-12.218 4.007-2.718 8.401-5.077 13.112-7.049 7.148 27.928 21.372 46.977 37.773 47.033h.211c16.373-.113 30.576-19.14 37.71-47.033 4.711 1.972 9.105 4.331 13.112 7.049 5.443 3.697 9.873 7.88 13.19 12.387.817-.866 1.62-1.753 2.401-2.655-6.366-8.366-16.049-15.373-27.865-20.232 2.5-10.887 3.951-22.999 4.063-35.78zm-115.214-62.462c7.457-15.344 17.07-23.802 27.069-23.802s19.612 8.457 27.069 23.802c2.88 5.922 5.281 12.57 7.169 19.746-10.38 3.803-22.069 5.824-34.238 5.824-12.168 0-23.858-2.021-34.238-5.824 1.888-7.176 4.289-13.823 7.169-19.746zm54.139 121.411c-7.457 15.344-17.07 23.795-27.069 23.795s-19.612-8.45-27.069-23.795c-3.049-6.267-5.563-13.352-7.493-21.013 10.457-3.88 22.267-5.943 34.562-5.943 12.302 0 24.112 2.063 34.569 5.943-1.937 7.661-4.451 14.745-7.5 21.013zm8.323-24.443c-10.535-3.852-22.591-6.035-35.393-6.035s-24.851 2.183-35.386 6.035c-2.408-10.683-3.725-22.379-3.838-34.506h78.454c-.111 12.127-1.428 23.823-3.837 34.506zm-74.616-38.027c.113-12.612 1.542-24.759 4.134-35.78 10.464 3.789 22.407 5.929 35.09 5.929s24.633-2.141 35.097-5.929c2.591 11.021 4.021 23.168 4.134 35.78z" fill="#cde6f6"/></g><g><g><g><path d="m306.006 61.797v67.975c0 2.719-1.64 5.051-3.984 6.068h-.003c-.804.347-1.69.541-2.622.541h-78.402c-.933 0-1.818-.194-2.622-.541-2.344-1.014-3.987-3.348-3.987-6.068v-67.975l45.81-45.95z" fill="#fbcb74"/><path d="m306.006 61.797v67.975c0 2.719-1.64 5.051-3.984 6.068h-.003c-2.341-1.017-3.984-3.348-3.984-6.068v-67.975c0-2.716 1.643-5.048 3.984-6.068h.003c2.345 1.018 3.984 3.352 3.984 6.068z" fill="#faefdc"/><path d="m222.356 61.797v67.975c0 2.719-1.64 5.054-3.984 6.068-2.344-1.014-3.987-3.348-3.987-6.068v-67.975c0-2.716 1.643-5.051 3.987-6.068 2.344 1.018 3.984 3.352 3.984 6.068z" fill="#deb36f"/><path d="m288.076 58.266c0 2.201-1.784 3.985-3.985 3.985h-47.79c-2.201 0-3.985-1.784-3.985-3.985s1.784-3.985 3.985-3.985h47.79c2.201 0 3.985 1.784 3.985 3.985z" fill="#fbd9a3"/></g><g><path d="m278.133 117h-35.872c-4.123 0-7.466-3.343-7.466-7.466v-35.872c0-4.123 3.343-7.466 7.466-7.466h35.872c4.123 0 7.466 3.343 7.466 7.466v35.872c0 4.124-3.343 7.466-7.466 7.466z" fill="#c4983d"/><g><g><path d="m258.717 74.792v11.105c0 .024 0 .053-.006.077-.036 2.297-1.906 4.144-4.215 4.144h-11.105c-2.332 0-4.227-1.888-4.227-4.221v-11.105c0-2.309 1.853-4.185 4.15-4.221.024-.006.053-.006.077-.006h11.105c2.333 0 4.221 1.895 4.221 4.227z" fill="#6052a3"/><path d="m258.717 74.792v11.105c0 .024 0 .053-.006.077-.024.006-.053.006-.077.006h-5.363c-5.505 0-9.963-4.463-9.963-9.963v-5.369c0-.024 0-.053.006-.077.024-.006.053-.006.077-.006h11.105c2.333 0 4.221 1.895 4.221 4.227z" fill="#57409b"/><path d="m253.577 84.073c-1.416 0-2.564-1.148-2.564-2.564v-6.336c0-1.416 1.148-2.564 2.564-2.564s2.564 1.148 2.564 2.564v6.336c0 1.416-1.148 2.564-2.564 2.564z" fill="#9175a7"/></g><g><path d="m281.23 74.792v11.105c0 .024 0 .053-.006.077-.036 2.297-1.906 4.144-4.215 4.144h-11.105c-2.332 0-4.227-1.888-4.227-4.221v-11.105c0-2.309 1.853-4.185 4.15-4.221.024-.006.053-.006.077-.006h11.105c2.332 0 4.221 1.895 4.221 4.227z" fill="#6052a3"/><path d="m281.23 74.792v11.105c0 .024 0 .053-.006.077-.024.006-.053.006-.077.006h-5.363c-5.505 0-9.963-4.463-9.963-9.963v-5.369c0-.024 0-.053.006-.077.024-.006.053-.006.077-.006h11.105c2.332 0 4.221 1.895 4.221 4.227z" fill="#57409b"/><path d="m276.09 84.073c-1.416 0-2.564-1.148-2.564-2.564v-6.336c0-1.416 1.148-2.564 2.564-2.564s2.564 1.148 2.564 2.564v6.336c0 1.416-1.148 2.564-2.564 2.564z" fill="#9175a7"/></g><g><path d="m258.717 97.305v11.105c0 .024 0 .053-.006.077-.036 2.297-1.906 4.144-4.215 4.144h-11.105c-2.332 0-4.227-1.888-4.227-4.221v-11.105c0-2.309 1.853-4.185 4.15-4.221.024-.006.053-.006.077-.006h11.105c2.333 0 4.221 1.894 4.221 4.227z" fill="#6052a3"/><path d="m258.717 97.305v11.105c0 .024 0 .053-.006.077-.024.006-.053.006-.077.006h-5.363c-5.505 0-9.963-4.463-9.963-9.963v-5.369c0-.024 0-.053.006-.077.024-.006.053-.006.077-.006h11.105c2.333 0 4.221 1.894 4.221 4.227z" fill="#57409b"/><path d="m253.577 106.586c-1.416 0-2.564-1.148-2.564-2.564v-6.336c0-1.416 1.148-2.564 2.564-2.564s2.564 1.148 2.564 2.564v6.336c0 1.416-1.148 2.564-2.564 2.564z" fill="#9175a7"/></g><g><path d="m281.23 97.305v11.105c0 .024 0 .053-.006.077-.036 2.297-1.906 4.144-4.215 4.144h-11.105c-2.332 0-4.227-1.888-4.227-4.221v-11.105c0-2.309 1.853-4.185 4.15-4.221.024-.006.053-.006.077-.006h11.105c2.332 0 4.221 1.894 4.221 4.227z" fill="#6052a3"/><path d="m281.23 97.305v11.105c0 .024 0 .053-.006.077-.024.006-.053.006-.077.006h-5.363c-5.505 0-9.963-4.463-9.963-9.963v-5.369c0-.024 0-.053.006-.077.024-.006.053-.006.077-.006h11.105c2.332 0 4.221 1.894 4.221 4.227z" fill="#57409b"/><path d="m276.09 106.586c-1.416 0-2.564-1.148-2.564-2.564v-6.336c0-1.416 1.148-2.564 2.564-2.564s2.564 1.148 2.564 2.564v6.336c0 1.416-1.148 2.564-2.564 2.564z" fill="#9175a7"/></g></g></g><g><path d="m322.708 71.746c0 1.418-.541 2.832-1.621 3.912-2.172 2.172-5.699 2.159-7.855-.028l-49.096-49.832c-2.166-2.2-5.714-2.2-7.88 0l-49.096 49.831c-1.083 1.098-2.513 1.649-3.94 1.649-1.418 0-2.835-.541-3.915-1.621-1.824-1.824-2.106-4.606-.851-6.728.232-.391.516-.76.851-1.095l56.988-56.985c2.159-2.162 5.664-2.159 7.823 0l56.97 56.985c.335.335.62.704.851 1.095.514.867.771 1.84.771 2.817z" fill="#e9465e"/><path d="m321.938 68.929c-.232.391-.516.76-.851 1.095v.003c-2.172 2.172-5.699 2.156-7.855-.031l-49.096-49.832c-2.166-2.2-5.714-2.2-7.88 0l-49.096 49.832c-1.083 1.098-2.513 1.649-3.943 1.649-1.418 0-2.832-.538-3.912-1.618-.338-.338-.62-.707-.851-1.098.232-.391.516-.76.851-1.095l56.988-56.985c2.159-2.162 5.664-2.159 7.823 0l56.97 56.985c.335.335.62.704.852 1.095z" fill="#ee6781"/><g fill="#f789a1"><path d="m221.353 50.859-.162-.159c-1.32-1.296-1.33-3.42-.022-4.728l21.476-21.475c1.291-1.291 3.382-1.301 4.685-.021 1.312 1.289 1.329 3.399.038 4.709l-21.315 21.634c-1.287 1.308-3.39 1.325-4.7.04z"/><path d="m299.043 50.858.158-.155c1.324-1.297 1.335-3.426.024-4.737l-21.463-21.469c-1.292-1.292-3.384-1.303-4.689-.025-1.318 1.291-1.337 3.406-.042 4.72l21.305 21.624c1.289 1.31 3.395 1.328 4.707.042z"/></g></g></g><g><path d="m297.939 18.497v26.183l-10.511-10.515v-15.668c0-1.465 1.186-2.651 2.647-2.651h5.217c1.461 0 2.647 1.186 2.647 2.651z" fill="#c0405c"/><path d="m297.939 18.497v22.297l-4.234-4.237c-1.533-1.53-2.391-3.608-2.391-5.77v-12.29c0-1.465 1.186-2.651 2.647-2.651h1.33c1.462 0 2.648 1.186 2.648 2.651z" fill="#e9465e"/></g></g><g><path d="m321.423 87.059c-2.211 0-4.366.214-6.442.643-5.821 1.151-11.078 3.858-15.343 7.66-6.712 5.991-10.932 14.7-10.932 24.402 0 13.515 18.287 46.232 27.516 61.89 2.335 3.96 8.055 3.96 10.39 0 2.065-3.508 4.603-7.886 7.265-12.703.226-.384.44-.779.654-1.173 9.104-16.516 19.596-37.77 19.596-48.014.001-18.061-14.642-32.705-32.704-32.705zm0 45.747c-.891 0-1.76-.09-2.595-.248-5.968-1.218-10.447-6.487-10.447-12.793 0-4.84 2.64-9.07 6.566-11.315 1.907-1.094 4.118-1.715 6.476-1.715 7.198 0 13.03 5.832 13.03 13.03 0 7.197-5.832 13.041-13.03 13.041z" fill="#e9465e"/><path d="m354.128 119.764c0 10.244-10.492 31.498-19.596 48.014-.214.395-.429.79-.654 1.173-6.645-11.203-11.755-23.432-15.05-36.394.835.158 1.704.248 2.595.248 7.198 0 13.03-5.844 13.03-13.041 0-7.198-5.833-13.03-13.03-13.03-2.358 0-4.569.621-6.476 1.715-.248-3.339-.372-6.712-.372-10.108 0-3.576.135-7.13.406-10.639 2.076-.429 4.231-.643 6.442-.643 18.062 0 32.705 14.644 32.705 32.705z" fill="#ee6781"/></g></g></g></svg>