<svg id="Capa_1" enable-background="new 0 0 512 512" height="512" viewBox="0 0 512 512" width="512" xmlns="http://www.w3.org/2000/svg"><g><g><g><path d="m66.009 83.5h50.991l-2.11-6c0-.328 2.104-8.654 2.092-8.979-.515-13.906-11.95-25.021-25.982-25.021-3.932 0-7.661.873-11.002 2.436-4.727 2.211-7.697 7.254-10.356 11.707-2.325 3.894-3.633 7.686-3.633 12.55z" fill="#7dc3ee"/><path d="m117 68.52v14.98l-26 2.711-26-2.711v-14c0-7.18 2.91-13.68 7.62-18.38 2.13-2.13 4.62-3.89 7.38-5.18v18.56c0 2.209 1.791 4 4 4h32.98c.008.008.012.012.02.02z" fill="#64acdc"/><path d="m124 83.5h-59l-6 1c-3.866 0-7 3.134-7 7v25h77.092l1.908-14v-12c0-3.866-3.134-7-7-7z" fill="#f8f7f7"/><path d="m131 102.5v14l-42.862 4.39-37.138-4.39v-26c0-3.866 3.134-7 7-7h7v17c0 1.105.895 2 2 2z" fill="#e8e8e8"/></g><g><path d="m396.009 83.5h50.991l-2.11-6c0-.328 2.104-8.654 2.092-8.979-.515-13.906-11.95-25.021-25.982-25.021-3.932 0-7.661.873-11.002 2.436-4.727 2.211-7.697 7.254-10.356 11.707-2.325 3.894-3.633 7.686-3.633 12.55z" fill="#df646e"/><path d="m447 68.52v14.98l-26 2.711-26-2.711v-14c0-7.18 2.91-13.68 7.62-18.38 2.13-2.13 4.62-3.89 7.38-5.18v18.56c0 2.209 1.791 4 4 4h32.98c.008.008.012.012.02.02z" fill="#dc4955"/><path d="m454 83.5h-59l-6 1c-3.866 0-7 3.134-7 7v25h77.092l1.908-14v-12c0-3.866-3.134-7-7-7z" fill="#f8f7f7"/><path d="m461 102.5v14l-42.862 4.39-37.138-4.39v-26c0-3.866 3.134-7 7-7h7v17c0 1.105.895 2 2 2z" fill="#e8e8e8"/></g><g><path d="m341 131.5c-8.284 0-13.908-6.716-13.908-15v-73.885c0-1.633-1.879-3.201-3.094-4.114-.836-.628-1.874-1.001-2.998-1.001h-130c-2.757 0-5 2.243-5 5v74c0 8.284-6.716 15-15 15s-13.67-5.716-13.67-14v-74c0-12.299 5.047-24.138 14.669-30.381 5.476-3.554 12.002-5.619 19.001-5.619h130c19.299 0 35 15.701 35 35v74c0 8.284-6.716 15-15 15z" fill="#f8f7f7"/></g><g fill="#e8e8e8"><path d="m179 129.18c-2.31 1.47-5.06 2.32-8 2.32-8.28 0-15-6.72-15-15v-74c0-12.3 6.38-23.14 16-29.38v103.38c0 5.34 2.79 10.03 7 12.68z"/><path d="m349 129.18c-2.31 1.47-5.06 2.32-8 2.32-8.28 0-15-6.72-15-15v-74c0-2.76-2.24-5-5-5h16c2.76 0 5 2.24 5 5v74c0 5.34 2.79 10.03 7 12.68z"/></g><path d="m469 116.5h-426c-8.284 0-14.5 8.856-14.5 17.14l.849 22.86h452.312l2.339-15v-10c0-8.284-6.716-15-15-15z" fill="#ffd163"/><path d="m484 141.5v15l-231 4.849-225-4.849v-25c0-8.28 6.72-15 15-15v21c0 2.209 1.791 4 4 4z" fill="#ffb65f"/><path d="m33.037 464.5h448.458l3.005-15v-14l-7.133-38.225 7.133-41.775v-164.926h-451.463z" fill="#b6c4cf"/><g><g><path d="m412.083 288.395h-67.927c-9.029 0-18.156-5.938-18.156-14.222s7.32-15 16.349-15h70.302c9.029 0 16.349 6.716 16.349 15s-7.888 14.222-16.917 14.222z" fill="#f8f7f7"/></g><g><path d="m429 274.172c0 8.28-7.32 15-16.35 15h-70.3c-9.03 0-16.35-6.72-16.35-15z" fill="#e8e8e8"/></g></g><path d="m484.5 449.5v15l-231.5 6.977-224.5-6.977v-29l4.096-34.261-4.096-45.739v-164.93h15v254.93c0 2.209 1.791 4 4 4z" fill="#9facba"/><path d="m494.5 464.5h-472l-4 1c-5.523 0-10 4.477-10 10v18c0 5.523 4.477 10 10 10h475c5.523 0 10-4.477 10-10l1-4v-15c0-5.523-4.477-10-10-10z" fill="#b6c4cf"/><path d="m504.5 489.5v5c0 5.523-4.477 10-10 10h-477c-5.523 0-10-4.477-10-10v-20c0-5.523 4.477-10 10-10h5v20c0 2.761 2.239 5 5 5z" fill="#9facba"/><path d="m494.5 156.5h-472l-4 2c-5.523 0-10 4.477-10 10v17c0 5.523 4.477 10 10 10h475c5.523 0 10-4.477 10-10l1-4v-15c0-5.523-4.477-10-10-10z" fill="#b6c4cf"/><path d="m504.5 181.5v5c0 5.523-4.477 10-10 10h-477c-5.523 0-10-4.477-10-10v-20c0-5.523 4.477-10 10-10h5v20c0 2.761 2.239 5 5 5z" fill="#9facba"/><path d="m481.991 432.505-50.711 2.995h-86.28l-36.734-3.986-49.266 3.986h-86l-40.275-3.986-45.725 3.986h-58.5l6.298-40-5.119-37.472 51.591-2.528h85.73l36.073 2.693 49.927-2.693h86l40.44 2.693 45.56-2.693h59.5v26.77z" fill="#f8f7f7"/><path d="m42.284 356.651 1.216 36.609v42.24h-15v-27.24l1.014-51.499z" fill="#e8e8e8"/><g fill="#ffd163"><path d="m253 355.5-80 80h-86l80-80z"/><path d="m425 355.5-80 80h-86l80-80z"/><path d="m81.27 355.5-52.77 52.76 2.335-30.471-2.214-21.138 14.879-1.151z"/></g><path d="m43.5 355.5v37.76l-15 15v-52.76z" fill="#ffb65f"/><g><path d="m171.508 259.746h-20.029c-.531 0-.962-.431-.962-.962v-20.029c0-7.768-5.969-14.451-13.728-14.817-.234-.011-.466-.016-.698-.016-7.967 0-13.687 7.404-13.687 15.371l-.165 19.486c0 .221-.648.43-.774.592-.176.228-.452.374-.762.374h-20.029c-7.768 0-14.451 5.969-14.817 13.728-.011.234-.016.466-.016.698 0 7.967 8.036 12.901 16.003 12.901l20.066.469c.531 0 .962.431.962.962l-.55 19.706c0 7.768 5.313 15.829 13.072 16.195 8.284.39 15.123-6.211 15.123-14.409v-20.435c0-.531.431-.962.962-.962h20.437c8.198 0 14.8-6.839 14.409-15.123-.366-7.759-7.05-13.729-14.817-13.729z" fill="#f8f7f7"/><g fill="#e8e8e8"><path d="m136.091 223.922v34.834c0 .529-.433.962-.962.962h-14.205c.423-.096.741-.481.741-.933v-20.437c0-7.963 6.453-14.426 14.426-14.426z"/><path d="m136.091 278.019v46.403c-.231 0-.462-.01-.702-.019-7.752-.365-13.724-7.049-13.724-14.81v-20.033c0-.529-.433-.962-.962-.962h-20.437c-7.963 0-14.426-6.453-14.426-14.426h46.403c2.126 0 3.848 1.722 3.848 3.847z"/></g></g><path d="m484.5 382.27v53.23h-53.22z" fill="#ffd163"/></g><g><path d="m484.5 279.172c4.142 0 7.5-3.358 7.5-7.5v-67.672h2.5c9.649 0 17.5-7.851 17.5-17.5v-20c0-9.649-7.851-17.5-17.5-17.5h-3v-17.5c0-12.407-10.093-22.5-22.5-22.5h-.5v-18.5c0-7.826-6.237-14.208-14-14.475v-6.525c0-18.472-15.028-33.5-33.5-33.5s-33.5 15.028-33.5 33.5v6.525c-7.763.267-14 6.648-14 14.475v18.5h-10v-66.5c0-23.435-19.065-42.5-42.5-42.5h-130c-23.435 0-42.5 19.065-42.5 42.5v66.5h-10v-18.5c0-7.826-6.237-14.208-14-14.475v-6.525c0-18.472-15.028-33.5-33.5-33.5s-33.5 15.028-33.5 33.5v6.525c-7.763.267-14 6.648-14 14.475v18.5h-.5c-12.407 0-22.5 10.093-22.5 22.5v17.5h-3c-9.649 0-17.5 7.851-17.5 17.5v20c0 9.649 7.851 17.5 17.5 17.5h3.5v253h-3.5c-9.649 0-17.5 7.851-17.5 17.5v20c0 9.649 7.851 17.5 17.5 17.5h477c9.649 0 17.5-7.851 17.5-17.5v-20c0-9.649-7.851-17.5-17.5-17.5h-2.5v-150.328c0-4.142-3.358-7.5-7.5-7.5s-7.5 3.358-7.5 7.5v41.328h-441v-144h441v67.672c0 4.142 3.358 7.5 7.5 7.5zm-335.606 83.828c-3.303 3.803-61.375 60.433-64.528 65h-48.366v-16.395l48.163-48.605zm172 0c-.917.959-64.188 64.108-64.959 65h-64.829l65-65zm21.019 65h-64.807c1.051-1.106 64.009-63.904 64.946-65h64.841c-.153.173-64.759 64.723-64.98 65zm-171.627 0h-65.18c-.008-.002 64.909-64.889 64.99-65h64.797zm250.714 29c-4.142 0-7.5 3.358-7.5 7.5s3.358 7.5 7.5 7.5h73.5c1.378 0 2.5 1.122 2.5 2.5v20c0 1.378-1.122 2.5-2.5 2.5h-477c-1.378 0-2.5-1.122-2.5-2.5v-20c0-1.378 1.122-2.5 2.5-2.5h368.5c4.142 0 7.5-3.358 7.5-7.5s-3.358-7.5-7.5-7.5h-350v-14h441v14zm56-29h-27.746l27.746-27.505zm0-48.626-49.052 48.626h-64.841c3.303-3.803 61.375-60.433 64.528-65h49.365zm-413.954-16.374-27.046 27.294v-27.294zm357.954-312c10.201 0 18.5 8.299 18.5 18.5v6.5h-37v-6.5c0-10.201 8.299-18.5 18.5-18.5zm-32.5 40h65v18h-65zm-225-48.5c0-15.164 12.336-27.5 27.5-27.5h130c15.164 0 27.5 12.336 27.5 27.5v66.5h-15v-66.5c0-6.893-5.607-12.5-12.5-12.5h-74.5c-4.142 0-7.5 3.358-7.5 7.5s3.358 7.5 7.5 7.5h72v64h-125v-64h18c4.142 0 7.5-3.358 7.5-7.5s-3.358-7.5-7.5-7.5h-20.5c-6.893 0-12.5 5.607-12.5 12.5v66.5h-15zm-72.5 8.5c10.201 0 18.5 8.299 18.5 18.5v6.5h-37v-6.5c0-10.201 8.299-18.5 18.5-18.5zm-32.5 40h65v18h-65zm-43.5 95.5v-20c0-1.378 1.122-2.5 2.5-2.5h43.63c4.142 0 7.5-3.358 7.5-7.5s-3.358-7.5-7.5-7.5h-25.63v-17.5c0-4.136 3.364-7.5 7.5-7.5h426c4.136 0 7.5 3.364 7.5 7.5v17.5h-380.37c-4.142 0-7.5 3.358-7.5 7.5s3.358 7.5 7.5 7.5h398.37c1.378 0 2.5 1.122 2.5 2.5v20c0 1.378-1.122 2.5-2.5 2.5h-477c-1.378 0-2.5-1.122-2.5-2.5z"/><path d="m136.091 331.922c12.407 0 22.5-10.093 22.5-22.5v-12.75h12.75c12.407 0 22.5-10.093 22.5-22.5s-10.093-22.5-22.5-22.5h-12.75v-12.75c0-12.407-10.093-22.5-22.5-22.5s-22.5 10.093-22.5 22.5v12.75h-12.75c-12.407 0-22.5 10.093-22.5 22.5s10.093 22.5 22.5 22.5h12.75v12.75c0 12.407 10.093 22.5 22.5 22.5zm-35.25-50.25c-4.136 0-7.5-3.364-7.5-7.5s3.364-7.5 7.5-7.5h20.25c4.142 0 7.5-3.358 7.5-7.5v-20.25c0-4.136 3.364-7.5 7.5-7.5s7.5 3.364 7.5 7.5v20.25c0 4.142 3.358 7.5 7.5 7.5h20.25c4.136 0 7.5 3.364 7.5 7.5s-3.364 7.5-7.5 7.5h-20.25c-4.142 0-7.5 3.358-7.5 7.5v20.25c0 4.136-3.364 7.5-7.5 7.5s-7.5-3.364-7.5-7.5v-20.25c0-4.142-3.358-7.5-7.5-7.5z"/><path d="m342.349 251.672c-13.15 0-23.849 10.093-23.849 22.5s10.699 22.5 23.849 22.5h70.302c13.15 0 23.849-10.093 23.849-22.5s-10.699-22.5-23.849-22.5zm79.151 22.5c0 4.136-3.97 7.5-8.849 7.5h-70.302c-4.879 0-8.849-3.364-8.849-7.5s3.97-7.5 8.849-7.5h70.302c4.879 0 8.849 3.365 8.849 7.5z"/></g></g></svg>