<svg id="Icons" enable-background="new 0 0 512 512" height="512" viewBox="0 0 512 512" width="512" xmlns="http://www.w3.org/2000/svg"><g><g><circle cx="256" cy="256" fill="#c0405c" r="256"/><circle cx="256" cy="256" fill="#e9465e" r="187.684"/></g><g><g id="Laptop_2_"><g><g><path d="m278.871 226.173v122.254c0 10.032-8.13 18.161-18.154 18.161h-195.241c-10.032 0-18.161-8.13-18.161-18.161v-122.254c0-1.064.093-2.112.28-3.129 1.468-8.541 8.914-15.032 17.882-15.032h195.242c10.023-.001 18.152 8.129 18.152 18.161z" fill="#a583bb"/><path d="m191.659 366.589h-126.183c-10.032 0-18.161-8.13-18.161-18.161v-122.255c0-1.064.093-2.112.28-3.129 76.643 5.947 137.852 66.97 144.064 143.545z" fill="#9175a7"/><path d="m278.871 226.173v93.758c-7.33 1.693-14.962 2.593-22.805 2.593-55.572 0-100.622-45.05-100.622-100.622 0-4.713.326-9.349.955-13.891h104.318c10.025 0 18.154 8.13 18.154 18.162z" fill="#c2aacf"/></g><g><g><path d="m356.673 428.582v11.663c.008.124.008.248 0 .365v.031c-.163 1.926-2.492 3.145-6.856 3.145h-202.285c-8.083 0-20.079-4.154-26.796-9.279l-61.263-46.759c-3.106-2.368-4.535-4.527-4.379-6.165v-11.88h13.907v8.766h195.234c8.083 0 20.079 4.154 26.796 9.279l54.935 41.921v-1.087z" fill="#9175a7"/><path d="m160.577 411.127c0 11.406-1.817 22.378-5.187 32.658h-7.858c-8.083 0-20.079-4.154-26.796-9.279l-61.263-46.759c-3.106-2.368-4.535-4.527-4.379-6.165v-11.88h13.907v8.766h86.389c3.37 10.281 5.187 21.252 5.187 32.659z" fill="#6c53a2"/><path d="m356.673 428.582v11.663c.008.124.008.248 0 .365v.031c-.163 1.926-2.492 3.145-6.856 3.145h-115.041c-21.236-15.389-36.471-38.551-41.541-65.316h71c8.083 0 20.079 4.154 26.796 9.279l54.935 41.921v-1.087h10.707z" fill="#a583bb"/></g><g><path d="m349.817 431.905h-202.285c-8.083 0-20.079-4.154-26.796-9.279l-61.263-46.759c-6.716-5.125-5.606-9.279 2.477-9.279h202.285c8.083 0 20.079 4.154 26.796 9.279l17.315 13.215 43.948 33.543c6.716 5.126 5.606 9.28-2.477 9.28z" fill="#c2aacf"/><path d="m352.294 422.626-43.948-33.543-17.315-13.215c-6.716-5.125-18.713-9.279-26.796-9.279h-72.561c1.856 25.336 12.711 48.164 29.374 65.316h128.769c8.083 0 9.193-4.154 2.477-9.279z" fill="#decee5"/><path d="m160.577 411.127c0 7.112-.707 14.062-2.058 20.778h-10.987c-8.083 0-20.079-4.154-26.796-9.279l-61.263-46.759c-6.716-5.125-5.606-9.279 2.477-9.279h88.727c6.351 13.519 9.9 28.613 9.9 44.539z" fill="#a583bb"/><path d="m308.346 389.083c-10.762 3.378-24.032 5.358-38.388 5.358-35.966 0-65.13-12.47-65.13-27.852h59.407c8.083 0 20.079 4.154 26.796 9.279z" fill="#fff"/></g></g><g><path d="m271.107 232.284v102.268c0 9.116-7.392 16.508-16.508 16.508h-183.013c-9.116 0-16.508-7.392-16.508-16.508v-102.268c0-2.982.792-5.777 2.182-8.192 2.834-4.969 8.192-8.316 14.326-8.316h183.013c9.116 0 16.508 7.392 16.508 16.508z" fill="#334353"/></g><path d="m170.336 353.387h-14.484c-3.002 0-5.435 2.433-5.435 5.435s2.433 5.435 5.435 5.435h14.484c3.002 0 5.435-2.433 5.435-5.435 0-3.001-2.433-5.435-5.435-5.435z" fill="#6c53a2"/><g><g><g fill="#3e4e60"><path d="m139.558 379.47h-20.079l-.311-.241-5.086-3.882c-.893-.676-.412-2.096.707-2.096h20.072l.311.241 3.766 2.873h.008l1.32 1.009c.884.675.402 2.096-.708 2.096z"/><path d="m124.541 392.802h-19.249l-.303-.233c-.008 0-.008-.008-.016-.008l-7.283-5.56c-.893-.676-.411-2.096.707-2.096h19.249l.311.241 5.971 4.55 1.32 1.009c.885.684.404 2.097-.707 2.097z"/><path d="m172.038 379.47h-20.072l-.311-.241-5.086-3.882c-.893-.676-.411-2.096.707-2.096h20.072l.311.241 3.766 2.873 1.328 1.009c.039.031.078.062.109.093.728.706.247 2.003-.824 2.003z"/><path d="m237.012 379.47h-20.072l-.311-.241-5.094-3.882c-.885-.676-.404-2.096.707-2.096h20.079l.311.241 3.766 2.873 1.32 1.009c.894.675.412 2.096-.706 2.096z"/><path d="m204.525 379.47h-20.072l-.311-.241-5.094-3.882c-.039-.031-.078-.062-.109-.093-.73-.707-.248-2.003.823-2.003h20.072l.311.241 3.766 2.873 1.32 1.009c.893.675.412 2.096-.706 2.096z"/><path d="m176.564 407.718h-20.072l-.28-.217c-.016 0-.023-.008-.031-.016l-9.364-7.151c-.885-.675-.404-2.096.714-2.096h20.072l.311.241 8.036 6.134h.008l1.32 1.009c.039.031.078.062.109.093.73.714.249 2.003-.823 2.003z"/><path d="m274.026 407.718h-20.072l-.233-.179c-.008 0-.008-.008-.016-.008-.023-.016-.047-.031-.07-.047l-8.331-6.367-.07-.054-.955-.73c-.893-.675-.412-2.096.707-2.096h20.072l.303.233c.008 0 .008.008.016.008l8.036 6.134 1.32 1.009c.893.684.411 2.097-.707 2.097z"/><path d="m209.052 407.718h-20.072l-.28-.217c-.016 0-.023-.008-.031-.016l-9.364-7.151c-.885-.675-.412-2.096.707-2.096h20.072l.303.233c.008 0 .008.008.016.008l8.036 6.134 1.32 1.009c.892.683.411 2.096-.707 2.096z"/><path d="m241.539 407.718h-20.072l-.28-.217c-.016 0-.023-.008-.031-.016l-9.364-7.151c-.885-.675-.411-2.096.707-2.096h20.072l.303.233c.008 0 .008.008.016.008l8.036 6.134 1.32 1.009c.892.683.411 2.096-.707 2.096z"/><path d="m107.071 379.47h-19.093c-.116-.109-.225-.217-.326-.326-.008 0-.008 0-.015-.008-.148-.148-.287-.303-.419-.45-.124-.14-.241-.287-.357-.427v-.008c-.054-.07-.109-.14-.163-.217-.101-.14-.186-.279-.272-.419-.039-.062-.078-.132-.116-.202-.016-.023-.031-.047-.039-.07-.062-.109-.109-.217-.155-.326-.047-.109-.085-.21-.116-.311-.008-.039-.023-.07-.031-.101-.07-.241-.101-.474-.101-.691 0-.505.179-.955.544-1.335.21-.225.489-.435.831-.606.481-.248 1.087-.435 1.817-.551.652-.116 1.413-.171 2.267-.171h11.049l.303.233c.008 0 .008.008.016.008l3.766 2.873 1.32 1.009c.881.675.408 2.096-.71 2.096z"/><path d="m144.085 407.718h-7.602c-1.607 0-3.409-.21-5.296-.582-.939-.186-1.902-.411-2.865-.675-.489-.132-.971-.272-1.46-.427-.481-.147-.971-.311-1.452-.474s-.963-.342-1.436-.528c-.474-.179-.947-.373-1.413-.567s-.932-.396-1.382-.606-.901-.427-1.335-.644c-.217-.109-.435-.225-.644-.342-.194-.101-.388-.202-.575-.311-.225-.124-.458-.249-.676-.38-.404-.233-.8-.474-1.18-.722-.38-.241-.745-.497-1.095-.745-.171-.124-.342-.256-.512-.381-.893-.675-.411-2.096.707-2.096h19.249l.311.241 8.044 6.134 1.32 1.009c.884.683.402 2.096-.708 2.096z"/><path d="m267.403 379.47h-17.975l-.303-.233c-.008 0-.008-.008-.016-.008l-5.086-3.882c-.885-.676-.412-2.096.707-2.096h7.594c.21 0 .427 0 .644.008.132.008.264.016.396.023.101 0 .194.008.295.015.101 0 .202.016.303.023.21.016.419.031.637.054.031 0 .07.008.101.008.171.016.342.039.512.062.311.039.629.078.955.132.241.039.497.078.745.124.264.047.528.093.792.148.085.016.179.039.272.054.039.008.07.016.109.023.28.062.567.124.854.194.233.054.466.109.699.171.085.023.179.047.264.07 1.017.256 2.034.559 3.044.909.342.109.676.233 1.009.349.66.233 1.305.481 1.941.745.14.054.287.116.427.186.155.062.303.124.45.186.054.023.101.047.155.07.318.14.637.287.955.435 1.143.53.778 2.23-.48 2.23z"/><path d="m302.949 405.233-.023.186c-.023.124-.062.241-.101.349-.023.062-.054.117-.078.171-.07.132-.155.256-.256.373l-.008.008c-.023.031-.047.047-.07.078-.047.054-.101.101-.155.147-.054.047-.116.093-.171.14-.016.008-.023.016-.031.023 0 0-.008 0-.008.008-.031.016-.054.031-.085.054-.031.016-.054.039-.085.054-.07.047-.148.085-.217.124-.054.031-.116.062-.171.085-.116.062-.241.116-.373.163-.023.008-.047.016-.07.023-.008 0-.016.008-.023.008h-.008c-.14.054-.28.093-.435.14-.202.062-.419.109-.652.147-.078.016-.163.031-.241.039-.155.031-.326.054-.497.07-.101.008-.21.023-.311.031-.054.008-.109.008-.163.016-.062.008-.116.008-.171.008-.132.016-.264.023-.396.023-.217.008-.435.015-.66.015h-11.049l-.233-.179c-.008 0-.008-.008-.016-.008-.023-.016-.047-.031-.07-.047l-8.332-6.367-.07-.054-.955-.73c-.893-.675-.411-2.096.707-2.096h19.249l.311.241 2.43 1.856c1.996 1.522 3.121 2.935 3.416 4.108.023.093.039.186.054.28.008.016.008.031.008.047.025.163.025.319.009.466z"/><path d="m157.021 392.802h-20.072l-.311-.241-7.291-5.56c-.039-.031-.078-.062-.109-.093-.73-.707-.248-2.003.823-2.003h20.072l.311.241 5.963 4.55h.008l1.32 1.009c.039.031.078.062.109.093.73.715.248 2.004-.823 2.004z"/><path d="m254.483 392.802h-20.072l-.303-.233c-.008 0-.008-.008-.016-.008l-7.283-5.56c-.893-.676-.412-2.096.707-2.096h20.072l.303.233c.008 0 .008.008.016.008l5.963 4.55 1.32 1.009c.892.684.411 2.097-.707 2.097z"/><path d="m189.508 392.802h-20.072l-.311-.241-7.291-5.56c-.885-.676-.404-2.096.714-2.096h20.072l.311.241 5.963 4.55 1.32 1.009c.894.684.412 2.097-.706 2.097z"/><path d="m221.995 392.802h-20.072l-.311-.241-7.291-5.56c-.885-.676-.412-2.096.707-2.096h20.072l.303.233c.008 0 .008.008.016.008l5.963 4.55 1.32 1.009c.893.684.411 2.097-.707 2.097z"/><path d="m286.139 392.802h-19.241l-.303-.233c-.008 0-.008-.008-.016-.008l-7.283-5.56c-.893-.676-.411-2.096.707-2.096h19.249l.311.241 5.971 4.55 1.32 1.009c.884.684.403 2.097-.715 2.097z"/></g><g fill="#3f5d77"><path d="m138.937 376.364h-15.957c-.256 0-.505-.085-.707-.241l-3.766-2.873h16.352l.311.241z"/><path d="m123.928 389.696h-15.133c-.256 0-.505-.085-.714-.241l-5.963-4.55h15.529l.311.241z"/><path d="m171.424 376.364h-15.956c-.256 0-.505-.085-.707-.241l-3.766-2.873h16.352l.311.241z"/><path d="m236.399 376.364h-15.956c-.256 0-.505-.085-.707-.241l-3.766-2.873h16.352l.311.241z"/><path d="m203.911 376.364h-15.956c-.256 0-.505-.085-.707-.241l-3.766-2.873h16.352l.311.241z"/><path d="m175.951 404.612h-15.956c-.256 0-.505-.078-.707-.233l-8.044-6.142h16.36l.311.241z"/><path d="m273.413 404.612h-15.956c-.256 0-.505-.078-.714-.233l-8.036-6.142h16.352l.303.233c.008 0 .008.008.016.008z"/><path d="m208.438 404.612h-15.956c-.256 0-.505-.078-.707-.233l-8.044-6.142h16.352l.303.233c.008 0 .008.008.016.008z"/><path d="m240.925 404.612h-15.956c-.256 0-.505-.078-.707-.233l-8.044-6.142h16.352l.303.233c.008 0 .008.008.016.008z"/><path d="m106.457 376.364h-14.892c-.303 0-.606-.116-.823-.334-.932-.955-1.491-1.832-1.685-2.609.652-.116 1.413-.171 2.267-.171h11.049l.303.233c.008 0 .008.008.016.008z"/><path d="m143.471 404.612h-3.882c-3.215 0-7.206-.823-11.072-2.158-3.199-1.11-6.32-2.578-8.813-4.216h15.413l.311.241z"/><path d="m265.897 376.364h-12.967c-.256 0-.505-.085-.714-.241l-3.766-2.873h3.875c.21 0 .427 0 .644.008.132.008.264.016.396.023.101 0 .194.008.295.015.101 0 .202.016.303.023.21.016.419.031.637.054.031 0 .07.008.101.008.171.016.342.039.512.062.311.039.629.078.955.132.241.039.497.078.745.124.264.047.528.093.792.148.085.016.179.039.272.054.039.008.07.016.109.023.28.062.567.124.854.194.233.054.466.109.699.171.085.023.179.047.264.07 1.017.256 2.034.559 3.044.909.342.109.676.233 1.009.349.659.235 1.304.483 1.941.747z"/><path d="m302.88 404.441c-.66.109-1.421.171-2.283.171h-10.653c-.256 0-.505-.078-.714-.233l-8.036-6.142h15.529l.311.241 2.43 1.856c1.995 1.522 3.12 2.935 3.416 4.107z"/><path d="m156.407 389.696h-15.956c-.256 0-.505-.085-.707-.241l-5.971-4.55h16.36l.311.241z"/><path d="m253.869 389.696h-15.956c-.256 0-.505-.085-.714-.241l-5.963-4.55h16.352l.303.233c.008 0 .008.008.016.008z"/><path d="m188.895 389.696h-15.956c-.256 0-.505-.085-.707-.241l-5.971-4.55h16.36l.311.241z"/><path d="m221.382 389.696h-15.956c-.256 0-.505-.085-.707-.241l-5.971-4.55h16.352l.303.233c.008 0 .008.008.016.008z"/><path d="m285.533 389.696h-15.133c-.256 0-.505-.085-.714-.241l-5.963-4.55h15.529l.311.241z"/></g></g><g><path d="m267.644 425.701h-68.073c-2.718 0-6.755-1.398-9.015-3.129l-3.362-2.562-7.547-5.761c-2.26-1.724-1.887-3.121.831-3.121h68.073c2.718 0 6.755 1.398 9.015 3.121l10.917 8.324c.722.551 1.172 1.071 1.359 1.522.418.954-.35 1.606-2.198 1.606z" fill="#3f5d77"/><path d="m267.644 425.701h-68.073c-2.718 0-6.755-1.398-9.015-3.129l-3.362-2.562c-.411-.955.349-1.6 2.205-1.6h68.065c2.725 0 6.763 1.398 9.022 3.121l3.354 2.562c.42.956-.348 1.608-2.196 1.608z" fill="#3e4e60"/></g></g><g fill="#fff"><path d="m240.645 215.777h-50.12c-2.144 0-3.882-1.738-3.882-3.882s1.738-3.882 3.882-3.882h50.12c2.144 0 3.882 1.738 3.882 3.882s-1.738 3.882-3.882 3.882z"/><path d="m334.586 422.09h-49.068c-2.71 0-4.907 2.197-4.907 4.907s2.197 4.907 4.907 4.907h49.068c2.71 0 4.907-2.197 4.907-4.907s-2.197-4.907-4.907-4.907z"/></g></g></g><g><g><path d="m237.705 235.608h-149.225c-6.166 0-11.164 4.998-11.164 11.164v62.941c0 6.166 4.998 11.164 11.164 11.164h149.225c6.166 0 11.164-4.998 11.164-11.164v-62.941c0-6.166-4.998-11.164-11.164-11.164z" fill="#3f5d77"/><g><circle cx="163.093" cy="278.242" fill="#334353" r="35.655"/><g><g><path d="m174.84 309.692v2.217c-3.682 1.294-7.63 1.988-11.749 1.988-3.672 0-7.221-.561-10.56-1.589-2.445-.761-4.776-1.77-6.964-3.016.209-5.841 5.004-10.503 10.893-10.503h7.487c6.022.001 10.893 4.881 10.893 10.903z" fill="#dd5e26"/><path d="m174.84 309.692v2.217c-3.682 1.294-7.63 1.988-11.749 1.988-3.672 0-7.221-.561-10.56-1.589v-2.616c0-6.022 4.881-10.903 10.903-10.903h.514c6.021.001 10.892 4.881 10.892 10.903z" fill="#ea792e"/></g><g><path d="m165.038 294.218v5.255c0 2.673-2.168 4.837-4.84 4.837-.896 0-1.736-.244-2.455-.669-1.425-.84-2.382-2.392-2.382-4.168v-5.255z" fill="#f5b890"/><path d="m155.361 294.218v5.255c0 1.776.957 3.328 2.382 4.168v-5.616c1.683.702 3.532 1.09 5.472 1.09.619 0 1.228-.04 1.823-.114v-4.783z" fill="#d48d77"/></g><g><g><g><path d="m146.581 278.436h2.399v-7.508h-2.399c-2.073 0-3.754 1.681-3.754 3.754s1.681 3.754 3.754 3.754z" fill="#d48d77"/><path d="m146.46 276.293h2.52v-3.222h-2.52c-.89 0-1.611.721-1.611 1.611s.721 1.611 1.611 1.611z" fill="#c17e62"/></g><g><path d="m178.501 270.928h-1.051v7.508h1.051c2.073 0 3.754-1.681 3.754-3.754.001-2.073-1.68-3.754-3.754-3.754z" fill="#d48d77"/><path d="m178.623 273.071h-1.172v3.222h1.172c.89 0 1.611-.721 1.611-1.611-.001-.89-.722-1.611-1.611-1.611z" fill="#c17e62"/></g></g><g><path d="m177.451 262.572v19.775c0 3.93-1.592 7.489-4.168 10.065-1.86 1.856-4.228 3.201-6.877 3.81-1.027.234-2.094.358-3.191.358-7.861 0-14.236-6.372-14.236-14.233v-19.775c0-4.308 3.495-7.8 7.804-7.8h12.868c.756 0 1.485.107 2.177.311 3.248.939 5.623 3.937 5.623 7.489z" fill="#d48d77"/><path d="m177.451 262.572v19.775c0 3.93-1.592 7.489-4.168 10.065-1.86 1.856-4.228 3.201-6.877 3.81-6.329-1.448-11.045-7.111-11.045-13.875v-7.566c0-9.844 7.105-18.026 16.467-19.698 3.248.939 5.623 3.937 5.623 7.489z" fill="#f5b890"/><g fill="#eea47d"><path d="m167.241 275.676h-2.902c-1.192 0-2.158.966-2.158 2.158s.966 2.158 2.158 2.158h2.902c1.192 0 2.158-.966 2.158-2.158s-.966-2.158-2.158-2.158z"/><path d="m163.216 254.771h3.641v22.37h-3.641z"/></g><g fill="#334353"><path d="m159.352 267.234c-1.089 0-1.972.883-1.972 1.972v3.443c0 1.089.883 1.972 1.972 1.972s1.972-.883 1.972-1.972v-3.443c.001-1.089-.883-1.972-1.972-1.972z"/><path d="m170.72 267.234c-1.089 0-1.972.883-1.972 1.972v3.443c0 1.089.883 1.972 1.972 1.972s1.972-.883 1.972-1.972v-3.443c0-1.089-.883-1.972-1.972-1.972z"/></g><g><path d="m163.731 287.947c-3.417 0-6.196-2.78-6.196-6.196 0-.647.524-1.171 1.171-1.171s1.171.524 1.171 1.171c0 2.126 1.729 3.855 3.855 3.855.647 0 1.171.524 1.171 1.171-.001.646-.525 1.17-1.172 1.17z" fill="#c17e62"/></g></g><g><path d="m148.981 278.436h-2.399c-.42 0-.822-.072-1.198-.199v1.001c0 1.991 1.614 3.605 3.605 3.605z" fill="#3e4e60"/><path d="m148.98 270.928h-2.399c-.399 0-.777.079-1.138.195l-.06.003v-9.821c0-4.557 3.694-8.251 8.251-8.251h9.577v2.061c0 2.69-2.18 4.87-4.87 4.87-1.647 0-2.982 1.335-2.982 2.982v1.751c0 3.43-2.78 6.21-6.21 6.21l-.169.009z" fill="#3e4e60"/><path d="m179.111 256.963c0 1.025.831 1.855 1.855 1.855.441 0 .868-.157 1.204-.444l2.217-1.891c.789-.673 2.003-.112 2.003.924v2.616c0 3.661-2.968 6.63-6.63 6.63-1.522 0-2.981-.605-4.057-1.681l-2.352-2.352c-1.688-1.688-3.977-2.636-6.364-2.636h-10.109c-1.914 0-3.465-1.552-3.465-3.465 0-1.914 1.552-3.465 3.465-3.465h18.323c2.159-.001 3.91 1.75 3.91 3.909z" fill="#3f5d77"/></g></g></g></g></g><g><circle cx="163.093" cy="335.873" fill="#53b976" r="8.935"/><circle cx="186.513" cy="335.873" fill="#e9465e" r="8.935"/><path d="m81.395 331.794h57.008c2.252 0 4.078 1.826 4.078 4.078s-1.826 4.078-4.078 4.078h-57.008c-2.252 0-4.078-1.826-4.078-4.078-.001-2.252 1.825-4.078 4.078-4.078z" fill="#3f5d77"/></g></g></g><g><g><g id="Speech-bubble_13_"><path d="m197.897 180.759c2.717 0 5.379-1.327 6.977-3.769l26.864-41.056c2.519-3.849 1.44-9.011-2.41-11.53-3.849-2.519-9.01-1.44-11.53 2.409l-26.864 41.056c-2.518 3.849-1.44 9.011 2.41 11.53 1.406.919 2.989 1.36 4.553 1.36z" fill="#ebd9ea"/><path d="m290.496 65.589v52.018c0 7.338-2.486 14.087-6.66 19.468-5.81 7.48-14.89 12.291-25.093 12.291h-80.448c-10.204 0-19.284-4.811-25.087-12.291-4.18-5.381-6.666-12.13-6.666-19.468v-52.018c0-7.338 2.486-14.087 6.666-19.462 5.804-7.48 14.884-12.291 25.087-12.291h80.448c10.204 0 19.284 4.811 25.093 12.291 4.175 5.376 6.66 12.125 6.66 19.462z" fill="#ebd9ea"/><path d="m290.496 65.589v52.018c0 7.338-2.486 14.087-6.66 19.468-4.18-5.381-6.666-12.13-6.666-19.468v-52.018c0-7.338 2.486-14.087 6.666-19.462 4.175 5.376 6.66 12.125 6.66 19.462z" fill="#fff"/><path d="m159.868 65.589v52.018c0 7.338-2.486 14.087-6.66 19.468-4.18-5.381-6.666-12.13-6.666-19.468v-52.018c0-7.338 2.486-14.087 6.666-19.462 4.174 5.376 6.66 12.125 6.66 19.462z" fill="#c1b7d3"/></g><g><g><path d="m262.456 70.76v48.196c0 1.628-.436 3.155-1.197 4.469-.99 1.717-2.539 3.076-4.396 3.82-1.029.419-2.159.649-3.339.649h-70.004c-1.186 0-2.316-.229-3.345-.649-1.857-.749-3.406-2.103-4.396-3.82-.761-1.314-1.197-2.841-1.197-4.469v-48.196c0-3.753 2.31-6.969 5.593-8.289 1.029-.419 2.159-.649 3.345-.649h70.004c1.18 0 2.31.229 3.339.649 3.277 1.32 5.593 4.53 5.593 8.289z" fill="#d48d77"/><path d="m185.768 70.76v48.196c0 3.759-2.316 6.969-5.593 8.289-3.283-1.32-5.593-4.536-5.593-8.289v-48.196c0-3.753 2.31-6.969 5.593-8.289 3.278 1.32 5.593 4.53 5.593 8.289z" fill="#c17e62"/><path d="m262.456 70.76v48.196c0 1.628-.436 3.155-1.197 4.469-.99 1.717-2.539 3.076-4.396 3.82-1.857-.749-3.406-2.103-4.396-3.82-.761-1.314-1.197-2.841-1.197-4.469v-48.196c0-3.753 2.31-6.969 5.593-8.289 3.277 1.32 5.593 4.53 5.593 8.289z" fill="#eea47d"/><path d="m261.259 123.425c-1.544 2.674-4.43 4.469-7.735 4.469h-70.004c-1.186 0-2.316-.229-3.345-.649-1.857-.749-3.406-2.103-4.396-3.82.99-1.717 2.539-3.071 4.396-3.82 1.029-.419 2.159-.649 3.345-.649h70.004c3.305 0 6.191 1.795 7.735 4.469z" fill="#a26d5a"/></g><g><path d="m251.673 98.744h-66.308c-5.955 0-10.783-4.828-10.783-10.783v-4.941h87.874v4.941c0 5.955-4.828 10.783-10.783 10.783z" fill="#a26d5a"/><path d="m262.456 70.76v14.799c0 3.887-3.155 7.042-7.042 7.042h-73.79c-3.887 0-7.042-3.155-7.042-7.042v-14.799c0-3.753 2.31-6.969 5.593-8.289 1.029-.419 2.159-.649 3.345-.649h70.004c1.18 0 2.31.229 3.339.649 3.277 1.32 5.593 4.53 5.593 8.289z" fill="#c17e62"/><path d="m185.768 70.76v21.841h-4.145c-3.887 0-7.042-3.155-7.042-7.042v-14.799c0-3.753 2.31-6.969 5.593-8.289 3.279 1.32 5.594 4.53 5.594 8.289z" fill="#a26d5a"/><path d="m262.456 70.76v14.799c0 3.887-3.155 7.042-7.042 7.042h-4.145v-21.841c0-3.753 2.31-6.969 5.593-8.289 3.278 1.32 5.594 4.53 5.594 8.289z" fill="#d48d77"/><path d="m241.868 66.529h-46.698c-2.706 0-4.899 2.194-4.899 4.899 0 2.706 2.194 4.899 4.899 4.899h46.699c2.706 0 4.9-2.194 4.9-4.899-.001-2.705-2.195-4.899-4.901-4.899z" fill="#d48d77"/><path d="m239.251 72.822h-29.577c-1.738 0-3.146-1.409-3.146-3.146 0-1.738 1.409-3.146 3.146-3.146h29.577c1.738 0 3.146 1.409 3.146 3.146.001 1.737-1.408 3.146-3.146 3.146z" fill="#eea47d"/></g><g><g><path d="m197.497 83.764c-.632-.47-1.415-.744-2.265-.744h-5.638c-.845 0-1.628.274-2.26.744-.951.688-1.566 1.812-1.566 3.082v11.511c0 1.27.615 2.394 1.566 3.082.632.47 1.415.744 2.26.744h5.638c.85 0 1.633-.274 2.265-.744.945-.694 1.561-1.818 1.561-3.082v-11.511c0-1.264-.616-2.388-1.561-3.082zm-1.564 12.751c0 1.231-.998 2.229-2.229 2.229h-2.578c-1.231 0-2.229-.998-2.229-2.229v-7.828c0-1.231.998-2.229 2.229-2.229h2.578c1.231 0 2.229.998 2.229 2.229z" fill="#f9c744"/><path d="m199.058 86.846v11.511c0 1.264-.615 2.388-1.561 3.082-.951-.694-1.566-1.818-1.566-3.082v-11.511c0-1.264.615-2.388 1.566-3.082.945.694 1.561 1.818 1.561 3.082z" fill="#fad98f"/><path d="m188.895 86.846v11.511c0 1.264-.615 2.388-1.56 3.082-.951-.688-1.566-1.812-1.566-3.082v-11.511c0-1.27.615-2.394 1.566-3.082.945.694 1.56 1.818 1.56 3.082z" fill="#f39e22"/><path d="m197.497 83.764c-.632-.47-1.415-.744-2.265-.744h-3.596c.205 1.259.687 2.424 1.374 3.438h.694c1.231 0 2.229.998 2.229 2.229v.466c.946.533 2 .898 3.125 1.042v-3.35c0-1.263-.616-2.387-1.561-3.081z" fill="#faefdc"/></g><g><path d="m249.709 83.764c-.632-.47-1.415-.744-2.265-.744h-5.638c-.845 0-1.628.274-2.26.744-.951.688-1.566 1.812-1.566 3.082v11.511c0 1.27.615 2.394 1.566 3.082.632.47 1.415.744 2.26.744h5.638c.85 0 1.633-.274 2.265-.744.945-.694 1.561-1.818 1.561-3.082v-11.511c0-1.264-.616-2.388-1.561-3.082zm-1.565 12.751c0 1.231-.998 2.229-2.229 2.229h-2.578c-1.231 0-2.229-.998-2.229-2.229v-7.828c0-1.231.998-2.229 2.229-2.229h2.578c1.231 0 2.229.998 2.229 2.229z" fill="#f9c744"/><path d="m251.27 86.846v11.511c0 1.264-.615 2.388-1.561 3.082-.951-.694-1.566-1.818-1.566-3.082v-11.511c0-1.264.615-2.388 1.566-3.082.945.694 1.561 1.818 1.561 3.082z" fill="#fad98f"/><path d="m241.107 86.846v11.511c0 1.264-.615 2.388-1.56 3.082-.951-.688-1.566-1.812-1.566-3.082v-11.511c0-1.27.615-2.394 1.566-3.082.945.694 1.56 1.818 1.56 3.082z" fill="#f39e22"/><path d="m249.709 83.764c-.632-.47-1.415-.744-2.265-.744h-3.596c.205 1.259.687 2.424 1.374 3.438h.694c1.231 0 2.229.998 2.229 2.229v.466c.946.533 2 .898 3.125 1.042v-3.35c0-1.263-.616-2.387-1.561-3.081z" fill="#faefdc"/></g></g><g><path d="m237.98 53.472v8.351h-6.706v-5.313c0-2.942-2.388-5.33-5.336-5.33h-14.833c-2.948 0-5.336 2.388-5.336 5.33v5.313h-6.706v-8.351c0-.878.14-1.723.391-2.511 1.063-3.311 4.167-5.711 7.83-5.711h22.473c3.663 0 6.768 2.399 7.83 5.711.253.788.393 1.632.393 2.511z" fill="#a26d5a"/><path d="m237.589 50.96c-.895 3.188-3.255 5.755-6.315 6.935v-1.387c0-2.942-2.388-5.33-5.336-5.33h-14.833c-2.948 0-5.336 2.388-5.336 5.33v1.387c-1.376-.531-2.612-1.342-3.636-2.366-1.253-1.253-2.187-2.819-2.679-4.57 1.063-3.311 4.167-5.711 7.83-5.711h22.473c3.665.002 6.769 2.401 7.832 5.712z" fill="#c17e62"/><path d="m229.621 51.178h-17.243c-1.602 0-2.901-1.299-2.901-2.901v-.126c0-1.602 1.299-2.901 2.901-2.901h17.243c1.602 0 2.901 1.299 2.901 2.901v.126c0 1.603-1.299 2.901-2.901 2.901z" fill="#d48d77"/></g></g></g><g><g id="Speech-bubble_14_"><path d="m296.195 232.121c2.353 1.358 5.321 1.54 7.927.224l43.793-22.124c4.106-2.074 5.753-7.084 3.678-11.19-2.074-4.106-7.083-5.752-11.19-3.678l-43.793 22.124c-4.105 2.074-5.753 7.084-3.678 11.19.759 1.5 1.909 2.673 3.263 3.454z" fill="#ebd9ea"/><path d="m448.64 127.538v52.018c0 7.338-2.486 14.087-6.66 19.468-5.81 7.48-14.89 12.291-25.093 12.291h-80.448c-10.204 0-19.284-4.811-25.087-12.291-4.18-5.381-6.666-12.13-6.666-19.468v-52.018c0-7.338 2.486-14.087 6.666-19.462 5.804-7.48 14.884-12.291 25.087-12.291h80.448c10.204 0 19.284 4.811 25.093 12.291 4.174 5.376 6.66 12.125 6.66 19.462z" fill="#ebd9ea"/><path d="m448.64 127.538v52.018c0 7.338-2.486 14.087-6.66 19.468-4.18-5.381-6.666-12.13-6.666-19.468v-52.018c0-7.338 2.486-14.087 6.666-19.462 4.174 5.376 6.66 12.125 6.66 19.462z" fill="#fff"/><path d="m318.011 127.538v52.018c0 7.338-2.486 14.087-6.66 19.468-4.18-5.381-6.666-12.13-6.666-19.468v-52.018c0-7.338 2.486-14.087 6.666-19.462 4.174 5.376 6.66 12.125 6.66 19.462z" fill="#c1b7d3"/></g><g><g><g><path d="m410.209 141.49v49.779c0 1.991-1.201 3.699-2.917 4.444h-.002c-.589.254-1.237.396-1.92.396h-57.415c-.683 0-1.331-.142-1.92-.396-1.716-.742-2.92-2.452-2.92-4.444v-49.779l33.548-33.65z" fill="#fbcb74"/><path d="m410.209 141.49v49.779c0 1.991-1.201 3.699-2.917 4.444h-.002c-1.714-.745-2.917-2.452-2.917-4.444v-49.779c0-1.989 1.203-3.696 2.917-4.444h.002c1.717.745 2.917 2.454 2.917 4.444z" fill="#faefdc"/><path d="m348.951 141.49v49.779c0 1.991-1.201 3.701-2.917 4.444-1.716-.742-2.92-2.452-2.92-4.444v-49.779c0-1.989 1.203-3.699 2.92-4.444 1.716.745 2.917 2.454 2.917 4.444z" fill="#deb36f"/><path d="m397.079 138.904c0 1.612-1.307 2.918-2.918 2.918h-34.997c-1.612 0-2.918-1.307-2.918-2.918 0-1.612 1.307-2.918 2.918-2.918h34.997c1.611-.001 2.918 1.306 2.918 2.918z" fill="#fbd9a3"/></g><g><path d="m389.797 181.915h-26.269c-3.02 0-5.468-2.448-5.468-5.468v-26.269c0-3.02 2.448-5.468 5.468-5.468h26.269c3.02 0 5.468 2.448 5.468 5.468v26.269c0 3.02-2.448 5.468-5.468 5.468z" fill="#c4983d"/><g><g><path d="m375.579 151.006v8.133c0 .017 0 .039-.004.056-.026 1.682-1.396 3.035-3.087 3.035h-8.133c-1.708 0-3.095-1.383-3.095-3.091v-8.133c0-1.691 1.357-3.065 3.039-3.091.017-.004.039-.004.056-.004h8.133c1.708-.001 3.091 1.387 3.091 3.095z" fill="#6052a3"/><path d="m375.579 151.006v8.133c0 .017 0 .039-.004.056-.017.004-.039.004-.056.004h-3.928c-4.032 0-7.296-3.269-7.296-7.296v-3.932c0-.017 0-.039.004-.056.017-.004.039-.004.056-.004h8.133c1.708-.001 3.091 1.387 3.091 3.095z" fill="#57409b"/><path d="m371.814 157.802c-1.037 0-1.878-.841-1.878-1.878v-4.64c0-1.037.841-1.878 1.878-1.878s1.878.841 1.878 1.878v4.64c0 1.038-.84 1.878-1.878 1.878z" fill="#9175a7"/></g><g><path d="m392.065 151.006v8.133c0 .017 0 .039-.004.056-.026 1.682-1.396 3.035-3.087 3.035h-8.133c-1.708 0-3.095-1.383-3.095-3.091v-8.133c0-1.691 1.357-3.065 3.039-3.091.017-.004.039-.004.056-.004h8.133c1.708-.001 3.091 1.387 3.091 3.095z" fill="#6052a3"/><path d="m392.065 151.006v8.133c0 .017 0 .039-.004.056-.017.004-.039.004-.056.004h-3.928c-4.032 0-7.296-3.269-7.296-7.296v-3.932c0-.017 0-.039.004-.056.017-.004.039-.004.056-.004h8.133c1.708-.001 3.091 1.387 3.091 3.095z" fill="#57409b"/><path d="m388.301 157.802c-1.037 0-1.878-.841-1.878-1.878v-4.64c0-1.037.841-1.878 1.878-1.878s1.878.841 1.878 1.878v4.64c0 1.038-.841 1.878-1.878 1.878z" fill="#9175a7"/></g><g><path d="m375.579 167.492v8.133c0 .017 0 .039-.004.056-.026 1.682-1.396 3.035-3.087 3.035h-8.133c-1.708 0-3.095-1.383-3.095-3.091v-8.133c0-1.691 1.357-3.065 3.039-3.091.017-.004.039-.004.056-.004h8.133c1.708 0 3.091 1.387 3.091 3.095z" fill="#6052a3"/><path d="m375.579 167.492v8.133c0 .017 0 .039-.004.056-.017.004-.039.004-.056.004h-3.928c-4.032 0-7.296-3.269-7.296-7.296v-3.932c0-.017 0-.039.004-.056.017-.004.039-.004.056-.004h8.133c1.708 0 3.091 1.387 3.091 3.095z" fill="#57409b"/><path d="m371.814 174.289c-1.037 0-1.878-.841-1.878-1.878v-4.64c0-1.037.841-1.878 1.878-1.878s1.878.841 1.878 1.878v4.64c0 1.037-.84 1.878-1.878 1.878z" fill="#9175a7"/></g><g><path d="m392.065 167.492v8.133c0 .017 0 .039-.004.056-.026 1.682-1.396 3.035-3.087 3.035h-8.133c-1.708 0-3.095-1.383-3.095-3.091v-8.133c0-1.691 1.357-3.065 3.039-3.091.017-.004.039-.004.056-.004h8.133c1.708 0 3.091 1.387 3.091 3.095z" fill="#6052a3"/><path d="m392.065 167.492v8.133c0 .017 0 .039-.004.056-.017.004-.039.004-.056.004h-3.928c-4.032 0-7.296-3.269-7.296-7.296v-3.932c0-.017 0-.039.004-.056.017-.004.039-.004.056-.004h8.133c1.708 0 3.091 1.387 3.091 3.095z" fill="#57409b"/><path d="m388.301 174.289c-1.037 0-1.878-.841-1.878-1.878v-4.64c0-1.037.841-1.878 1.878-1.878s1.878.841 1.878 1.878v4.64c0 1.037-.841 1.878-1.878 1.878z" fill="#9175a7"/></g></g></g><g><path d="m422.44 148.775c0 1.038-.396 2.074-1.187 2.865-1.59 1.59-4.173 1.581-5.752-.021l-35.954-36.492c-1.586-1.611-4.185-1.611-5.77 0l-35.954 36.492c-.793.804-1.84 1.208-2.885 1.208-1.038 0-2.076-.396-2.867-1.187-1.336-1.336-1.542-3.373-.623-4.927.17-.286.378-.557.623-.802l41.733-41.731c1.581-1.584 4.148-1.581 5.729 0l41.72 41.731c.245.245.454.516.623.802.376.634.564 1.347.564 2.062z" fill="#e9465e"/><path d="m421.876 146.712c-.17.286-.378.557-.623.802v.002c-1.59 1.59-4.173 1.579-5.752-.023l-35.954-36.492c-1.586-1.611-4.185-1.611-5.77 0l-35.954 36.492c-.793.804-1.84 1.208-2.888 1.208-1.038 0-2.074-.394-2.865-1.185-.247-.247-.454-.518-.623-.804.17-.286.378-.557.623-.802l41.733-41.731c1.581-1.584 4.148-1.581 5.729 0l41.72 41.731c.246.245.455.516.624.802z" fill="#ee6781"/><g fill="#f789a1"><path d="m348.216 133.479-.118-.116c-.967-.949-.974-2.505-.016-3.463l15.727-15.727c.946-.946 2.477-.952 3.431-.015.961.944.974 2.489.028 3.449l-15.609 15.843c-.943.957-2.483.97-3.443.029z"/><path d="m405.11 133.478.116-.114c.969-.95.977-2.509.018-3.469l-15.718-15.722c-.946-.946-2.478-.954-3.434-.018-.965.945-.979 2.494-.031 3.457l15.602 15.836c.944.959 2.486.972 3.447.03z"/></g></g></g><g><path d="m404.302 109.78v19.174l-7.698-7.7v-11.474c0-1.073.869-1.941 1.939-1.941h3.82c1.07 0 1.939.868 1.939 1.941z" fill="#c0405c"/><path d="m404.302 109.78v16.328l-3.101-3.103c-1.123-1.121-1.751-2.642-1.751-4.226v-8.999c0-1.073.869-1.941 1.939-1.941h.974c1.07 0 1.939.868 1.939 1.941z" fill="#e9465e"/></g></g></g><g><g id="Speech-bubble_15_"><path d="m302.173 348.219c1.488 2.273 4.056 3.773 6.976 3.773l59.064-.015c4.6-.002 8.328-3.732 8.326-8.332-.001-4.6-3.731-8.327-8.331-8.326l-59.064.015c-4.6.002-8.328 3.732-8.326 8.332 0 1.679.498 3.244 1.355 4.553z" fill="#ebd9ea"/><path d="m480.97 268.199v52.018c0 7.338-2.486 14.087-6.66 19.468-5.81 7.48-14.89 12.291-25.093 12.291h-80.448c-10.204 0-19.284-4.811-25.087-12.291-4.18-5.381-6.666-12.13-6.666-19.468v-52.018c0-7.338 2.486-14.087 6.666-19.462 5.804-7.48 14.884-12.291 25.087-12.291h80.448c10.204 0 19.284 4.811 25.093 12.291 4.174 5.375 6.66 12.124 6.66 19.462z" fill="#ebd9ea"/><path d="m480.97 268.199v52.018c0 7.338-2.486 14.087-6.66 19.468-4.18-5.381-6.666-12.13-6.666-19.468v-52.018c0-7.338 2.486-14.087 6.666-19.462 4.174 5.375 6.66 12.124 6.66 19.462z" fill="#fff"/><path d="m350.341 268.199v52.018c0 7.338-2.486 14.087-6.66 19.468-4.18-5.381-6.666-12.13-6.666-19.468v-52.018c0-7.338 2.486-14.087 6.666-19.462 4.175 5.375 6.66 12.124 6.66 19.462z" fill="#c1b7d3"/></g><g><path d="m447.712 277.901v40.273c0 2.605-2.112 4.717-4.717 4.717h-79.598c-2.605 0-4.717-2.112-4.717-4.717v-40.273c0-2.605 2.112-4.717 4.717-4.717h79.598c2.605-.001 4.717 2.111 4.717 4.717z" fill="#50755c"/><path d="m453.53 272.083v40.273c0 2.605-2.112 4.717-4.717 4.717h-79.598c-2.605 0-4.717-2.112-4.717-4.717v-40.273c0-2.605 2.112-4.717 4.717-4.717h79.598c2.605-.001 4.717 2.111 4.717 4.717z" fill="#528f66"/><g><g><path d="m459.348 266.267v40.269c0 2.609-2.112 4.721-4.717 4.721h-79.599c-2.605 0-4.717-2.112-4.717-4.721v-40.269c0-2.609 2.112-4.722 4.717-4.722h79.599c2.604 0 4.717 2.113 4.717 4.722z" fill="#50755c"/><path d="m459.348 266.267v40.269c0 2.609-2.112 4.721-4.717 4.721h-17.36c-.537-.17-1.074-.349-1.602-.537-21.408-7.371-37.896-26.515-41.715-49.175h60.677c2.604 0 4.717 2.113 4.717 4.722z" fill="#528f66"/></g><g><path d="m454.63 261.545h-79.599c-2.605 0-4.717 2.112-4.717 4.722v40.269c0 2.609 2.112 4.721 4.717 4.721h79.599c2.605 0 4.717-2.112 4.717-4.721v-40.269c.001-2.609-2.112-4.722-4.717-4.722zm-.062 31.56c-6.521 1.714-11.658 6.847-13.368 13.372h-52.733c-1.714-6.525-6.852-11.658-13.372-13.372v-13.408c6.521-1.714 11.663-6.852 13.372-13.372h52.729c1.71 6.521 6.852 11.658 13.372 13.372z" fill="#53b976"/><path d="m429.936 286.401c0 7.256-5.12 13.32-11.949 14.768-1.018.221-2.073.334-3.157.334-8.34 0-15.103-6.763-15.103-15.103 0-1.904.353-3.727.996-5.403 2.172-5.675 7.671-9.704 14.107-9.704 8.343.002 15.106 6.765 15.106 15.108z" fill="#53b976"/><g fill="#78c795"><path d="m429.936 286.401c0 7.256-5.12 13.32-11.949 14.768-7.075-5.421-12.978-12.295-17.264-20.172 2.172-5.675 7.671-9.704 14.107-9.704 8.343.002 15.106 6.765 15.106 15.108z"/><path d="m459.348 266.267v40.269c0 2.609-2.112 4.721-4.717 4.721h-17.36c-3.853-1.233-7.59-2.833-11.135-4.78h15.064c1.71-6.525 6.847-11.658 13.368-13.372v-13.408c-6.521-1.714-11.663-6.852-13.372-13.372h-46.226c-.397-1.58-.736-3.172-1.016-4.78h60.677c2.604 0 4.717 2.113 4.717 4.722z"/></g></g><g><path d="m420.509 294.203c-1.016 1.017-2.386 1.672-4.108 1.965v1.566c.013.976-.672 1.662-1.649 1.649-.948.012-1.667-.684-1.648-1.649v-1.484c-1.889-.167-3.917-.819-5.413-1.896-.972-.53-1.022-1.892-.371-2.693.674-.793 1.355-.576 2.267-.082.842.495 1.644.856 2.404 1.085 2.014.595 5.733.717 5.784-2.019-.095-1.762-2.315-1.91-3.902-2.446-2.388-.701-4.087-.916-5.619-2.693-.632-.751-.948-1.758-.948-3.022-.02-3.174 2.614-5.353 5.715-5.852v-1.566c-.019-.964.7-1.66 1.648-1.649.976-.013 1.662.672 1.648 1.649v1.511c1.649.22 3.197.843 4.644 1.868.555.372.765.822.769 1.484.03.786-.599 1.74-1.401 1.731-.536-.012-.747-.132-1.292-.44-.751-.476-1.424-.833-2.02-1.072-1.806-.725-5.459-.517-5.454 2.061.09 1.944 2.354 2.114 4.066 2.638 1.337.33 2.432.664 3.284 1.003.851.339 1.584.879 2.198 1.621 1.455 1.755 1.154 5.146-.602 6.732z" fill="#50755c"/></g></g></g></g></g></g></svg>