<svg id="Layer_1" height="512" viewBox="0 0 512 512" width="512" xmlns="http://www.w3.org/2000/svg" data-name="Layer 1"><g fill="#4a5160"><path d="m181.34 42.42 12.25 22.6a200.082 200.082 0 0 0 -31.57 13.35l-7.72-24.48a14.715 14.715 0 0 1 8.31-17.99l.06-.02a14.719 14.719 0 0 1 18.67 6.54z"/><path d="m106.37 86.02 19.91 16.4a202.128 202.128 0 0 0 -24.24 24.19l-16.4-19.81a14.722 14.722 0 0 1 .94-19.81l.03-.03a14.742 14.742 0 0 1 19.76-.94z"/><path d="m51.79 157.63 24.71 7.36a199.673 199.673 0 0 0 -12.89 31.68l-22.81-11.86a14.718 14.718 0 0 1 -6.85-18.6v-.01a14.73 14.73 0 0 1 17.84-8.57z"/><path d="m29.72 241.35 25.69-2.45q-.735 8.46-.73 17.1t.73 17.1l-25.69-2.45a14.717 14.717 0 0 1 0-29.3z"/><path d="m77.92 349.74-24.6 7.72a14.725 14.725 0 0 1 -11.4-27.01l22.62-12.19a199.222 199.222 0 0 0 13.38 31.48z"/><path d="m126.28 409.58-19.91 16.39a14.721 14.721 0 0 1 -19.76-.94l-.02-.02a14.723 14.723 0 0 1 -.95-19.81l16.4-19.81a202.128 202.128 0 0 0 24.24 24.19z"/><path d="m196.52 447.9-11.9 22.78a14.724 14.724 0 0 1 -18.57 6.84l-.05-.02a14.719 14.719 0 0 1 -8.59-17.87l7.34-24.58a199.743 199.743 0 0 0 31.77 12.85z"/><path d="m273.14 456.08-2.45 25.6a14.726 14.726 0 0 1 -14.66 13.32h-.06a14.726 14.726 0 0 1 -14.66-13.32l-2.45-25.6q8.475.735 17.14.73t17.14-.73z"/><path d="m357.7 458.1a14.714 14.714 0 0 1 -8.32 18l-.05.02a14.713 14.713 0 0 1 -18.67-6.55l-12.25-22.59a200.082 200.082 0 0 0 31.57-13.35z"/><path d="m426.36 405.2a14.723 14.723 0 0 1 -.95 19.81l-.02.02a14.721 14.721 0 0 1 -19.76.94l-19.91-16.39a202.128 202.128 0 0 0 24.24-24.19z"/><path d="m471.2 327.19a14.718 14.718 0 0 1 6.85 18.6v.01a14.73 14.73 0 0 1 -17.84 8.57l-24.71-7.36a199.673 199.673 0 0 0 12.89-31.68z"/><path d="m482.28 241.35a14.717 14.717 0 0 1 0 29.3l-25.69 2.45q.735-8.46.73-17.1t-.73-17.1z"/><path d="m476.65 162.84a14.717 14.717 0 0 1 -6.56 18.7l-22.63 12.2a199.222 199.222 0 0 0 -13.38-31.48l24.6-7.73a14.73 14.73 0 0 1 17.97 8.3z"/><path d="m425.42 86.99a14.722 14.722 0 0 1 .94 19.81l-16.4 19.81a202.128 202.128 0 0 0 -24.24-24.19l19.91-16.4a14.742 14.742 0 0 1 19.76.94z"/><path d="m346.01 34.51a14.722 14.722 0 0 1 8.59 17.86l-7.35 24.58a199.743 199.743 0 0 0 -31.77-12.85l11.9-22.79a14.73 14.73 0 0 1 18.57-6.83z"/><path d="m270.69 30.32 2.45 25.6q-8.475-.735-17.14-.73t-17.14.73l2.45-25.6a14.716 14.716 0 0 1 14.65-13.32h.08a14.716 14.716 0 0 1 14.65 13.32z"/></g><circle cx="256" cy="256" fill="#6d7486" r="201.32"/><path d="m256 82.58c96.16 0 174.11 77.65 174.11 173.42s-77.95 173.42-174.11 173.42-174.11-77.65-174.11-173.42 77.95-173.42 174.11-173.42z" fill="#4a5160"/><path d="m256 111.62c80.06 0 144.96 64.64 144.96 144.38s-64.9 144.38-144.96 144.38-144.96-64.64-144.96-144.38 64.9-144.38 144.96-144.38z" fill="#67679b"/><path d="m163.33 263.17a21.934 21.934 0 0 1 5.09-39.95 30.679 30.679 0 0 1 43.12-38.3l.19-.34a19.173 19.173 0 1 1 35.83-9.49v157.99a23 23 0 0 1 -40.04 15.46 23.009 23.009 0 0 1 -36.65-18.53v-11.14a30.691 30.691 0 0 1 -7.54-55.7z" fill="#fc8193"/><path d="m304.48 348.54a23 23 0 0 1 -40.04-15.46v-157.99a19.17 19.17 0 1 1 35.83 9.49l.19.34a30.7 30.7 0 0 1 43.12 38.3 21.943 21.943 0 0 1 5.09 39.95 30.691 30.691 0 0 1 -7.54 55.7v11.14a23.009 23.009 0 0 1 -36.65 18.53z" fill="#fc8193"/><path d="m141.04 256c0-74.695 56.948-136.138 129.96-143.614a147.194 147.194 0 0 0 -15-.766c-80.06 0-144.96 64.64-144.96 144.38s64.9 144.38 144.96 144.38a147.194 147.194 0 0 0 15-.766c-73.012-7.476-129.96-68.914-129.96-143.614z" fill="#7d7daf"/><path d="m482.849 235.374-20.774-1.98a204.826 204.826 0 0 0 -7.456-36.694l18.314-9.875a20.726 20.726 0 0 0 -16.048-38.016l-19.985 6.277a207.641 207.641 0 0 0 -19.224-28.386l13.305-16.076a20.742 20.742 0 0 0 -29.162-29.234l-16.194 13.337a208.034 208.034 0 0 0 -31.235-20.727l5.954-19.915a20.758 20.758 0 0 0 -38.282-15.553l-9.632 18.445a206.322 206.322 0 0 0 -33.784-6.55l-1.98-20.682a20.764 20.764 0 0 0 -41.332 0l-1.98 20.682a206.253 206.253 0 0 0 -36.817 7.445l-9.922-18.308a20.757 20.757 0 0 0 -38.038 16.136l6.263 19.837a208.109 208.109 0 0 0 -28.465 19.189l-16.194-13.335a20.742 20.742 0 0 0 -29.162 29.234l13.3 16.076a207.523 207.523 0 0 0 -20.767 31.148l-20.052-5.967a20.643 20.643 0 0 0 -25.1 12.06l-.02.05a20.632 20.632 0 0 0 9.657 26.146l18.453 9.589a204.983 204.983 0 0 0 -6.559 33.667l-20.773 1.98a20.719 20.719 0 0 0 0 41.252l20.774 1.98a204.826 204.826 0 0 0 7.449 36.694l-18.309 9.872a20.737 20.737 0 0 0 9.78 38.985 20.913 20.913 0 0 0 6.269-.968l19.979-6.275a207.8 207.8 0 0 0 19.224 28.386l-13.3 16.072a20.737 20.737 0 0 0 29.163 29.234l16.19-13.332a208.034 208.034 0 0 0 31.233 20.726l-5.952 19.909a20.755 20.755 0 0 0 38.282 15.554l9.63-18.438a206.322 206.322 0 0 0 33.784 6.55l1.98 20.676a20.764 20.764 0 0 0 41.332 0l1.98-20.677a206.253 206.253 0 0 0 36.817-7.445l9.919 18.3a20.63 20.63 0 0 0 18.176 10.861 20.96 20.96 0 0 0 8.159-1.663 20.64 20.64 0 0 0 11.7-25.336l-6.261-19.831a208.109 208.109 0 0 0 28.465-19.189l16.19 13.332a20.742 20.742 0 0 0 29.163-29.234l-13.3-16.072a207.523 207.523 0 0 0 20.767-31.148l20.059 5.967a20.9 20.9 0 0 0 5.967.874 20.637 20.637 0 0 0 19.137-12.934l.02-.05a20.632 20.632 0 0 0 -9.657-26.146l-18.453-9.589a204.983 204.983 0 0 0 6.559-33.667l20.773-1.98a20.719 20.719 0 0 0 0-41.252zm-433.9 31.084-18.659-1.778a8.719 8.719 0 0 1 0-17.36l18.655-1.778q-.261 5.2-.263 10.458t.263 10.458zm411.536-106.2a8.727 8.727 0 0 1 6.757 16.006l-16.459 8.875a205.468 205.468 0 0 0 -8.2-19.256zm-51.033-69.6a8.742 8.742 0 0 1 12.289 12.32l-11.969 14.461a208.806 208.806 0 0 0 -14.85-14.815zm-76.752-46.569a8.758 8.758 0 0 1 16.148 6.56l-5.348 17.89a206.487 206.487 0 0 0 -19.447-7.893zm-85.419-13.2a8.764 8.764 0 0 1 17.44 0l1.779 18.563q-5.217-.261-10.5-.264t-10.5.264zm-82.274 10.511a8.689 8.689 0 0 1 11.057 3.879l8.9 16.416a206.456 206.456 0 0 0 -19.32 8.192l-5.62-17.8a8.7 8.7 0 0 1 4.983-10.687zm-74.744 61.574a8.742 8.742 0 0 1 12.289-12.32l14.53 11.966a208.806 208.806 0 0 0 -14.85 14.815zm-46.7 76.516a8.683 8.683 0 0 1 -4.058-11.02l.016-.039a8.685 8.685 0 0 1 10.553-5.047l17.994 5.352a205.282 205.282 0 0 0 -7.9 19.381zm7.959 172.251a8.727 8.727 0 0 1 -6.757-16.007l16.454-8.872a205.468 205.468 0 0 0 8.2 19.256zm51.033 69.6a8.742 8.742 0 0 1 -12.29-12.32l11.965-14.457a208.806 208.806 0 0 0 14.85 14.815zm76.745 46.564a8.758 8.758 0 0 1 -16.149-6.56l5.346-17.884a206.237 206.237 0 0 0 19.448 7.893zm85.417 13.2a8.764 8.764 0 0 1 -17.442 0l-1.775-18.557q5.217.261 10.5.264t10.5-.264zm82.283-10.505a8.7 8.7 0 0 1 -11.066-3.882l-8.895-16.418a206.456 206.456 0 0 0 19.32-8.192l5.619 17.8a8.7 8.7 0 0 1 -4.978 10.692zm74.734-61.573a8.742 8.742 0 0 1 -12.289 12.32l-14.527-11.967a208.806 208.806 0 0 0 14.85-14.815zm-165.734 41.785c-107.7 0-195.318-87.393-195.318-194.812s87.618-194.812 195.318-194.812 195.318 87.393 195.318 194.812-87.618 194.812-195.318 194.812zm212.435-118.3a8.683 8.683 0 0 1 4.058 11.02l-.016.039a8.686 8.686 0 0 1 -10.553 5.047l-17.994-5.352a205.282 205.282 0 0 0 7.9-19.381zm13.275-67.83-18.655 1.778q.261-5.2.263-10.458t-.263-10.458l18.655 1.778a8.719 8.719 0 0 1 0 17.36z" fill="#284268"/><path d="m256 76.584c-99.313 0-180.111 80.486-180.111 179.416s80.798 179.416 180.111 179.416 180.111-80.486 180.111-179.416-80.798-179.416-180.111-179.416zm0 346.832c-92.7 0-168.111-75.1-168.111-167.416s75.411-167.416 168.111-167.416 168.111 75.103 168.111 167.416-75.411 167.416-168.111 167.416z" fill="#284268"/><path d="m256 105.477a151.2 151.2 0 0 0 -147.034 116.123 6.015 6.015 0 0 0 5.843 7.4h.012a6 6 0 0 0 5.836-4.637c14.316-60.728 69.561-106.886 135.343-106.886 76.622 0 138.959 62.149 138.959 138.451s-62.337 138.272-138.959 138.272c-73.609 0-134.031-57.2-138.669-129.54a6 6 0 1 0 -11.975.769c5.022 78.955 70.666 140.808 150.644 140.808 83.239 0 150.959-67.46 150.959-150.38s-67.72-150.38-150.959-150.38z" fill="#284268"/><path d="m283.393 149.911a25.39 25.39 0 0 0 -25.393 25.174v157.995a29.24 29.24 0 0 0 47.118 22.906 28.973 28.973 0 0 0 41.882-25.974v-6.936a36.9 36.9 0 0 0 22.309-33.713 36.5 36.5 0 0 0 -11.109-26.327 28.375 28.375 0 0 0 2.558-3.282 27.966 27.966 0 0 0 -7.805-38.726c-.678-.45-1.376-.861-2.086-1.249a36.68 36.68 0 0 0 -42.1-44.017c.006-.226.022-.451.022-.677a25.39 25.39 0 0 0 -25.396-25.174zm31.66 37.31a24.688 24.688 0 0 1 21.381 37.017 5.97 5.97 0 0 0 -.484 1.069 6 6 0 0 0 -11.578.144 17.529 17.529 0 0 0 1.508 12.549 5.535 5.535 0 0 1 -1.27 1.954 6 6 0 0 0 8.39 8.58 17.645 17.645 0 0 0 2.1-2.474 5.919 5.919 0 0 0 1.195.127 6 6 0 0 0 2.632-11.4 5.543 5.543 0 0 1 -3.024-5.787 5.988 5.988 0 0 0 10.39 2l.017.011a15.9 15.9 0 0 1 1.851 25.092 36.455 36.455 0 0 0 -15.462-3.429 6 6 0 0 0 0 12 24.679 24.679 0 1 1 0 49.357 6 6 0 0 0 -.066 12c.819 0 1.37-.037 2.37-.09v4.06a16.959 16.959 0 1 1 -33.918 0 5.988 5.988 0 1 0 -11.975 0 28.866 28.866 0 0 0 6.331 18.054 17.868 17.868 0 0 1 -8.213 2.023 17.215 17.215 0 0 1 -17.228-16.998v-157.995a13.339 13.339 0 0 1 26.676 0 13.116 13.116 0 0 1 -1.346 5.858c-.714.455-1.389.931-2.075 1.438a6.006 6.006 0 0 0 7.15 9.652 24.485 24.485 0 0 1 14.648-4.812z" fill="#284268"/><path d="m296.977 274.142a8.751 8.751 0 0 1 .376 3.913 6 6 0 1 0 11.9 1.563 20.817 20.817 0 0 0 -11.105-21.2 8.807 8.807 0 0 1 1.564-8.01 6 6 0 1 0 -9.359-7.51 20.648 20.648 0 0 0 -4.552 13.388 20.743 20.743 0 0 0 -9.381 3.732 6 6 0 0 0 7.015 9.736 8.831 8.831 0 0 1 13.545 4.391z" fill="#284268"/><path d="m292.714 202.839a5.457 5.457 0 0 1 -4.388-1.624 6 6 0 0 0 -8.579 8.39 17.4 17.4 0 0 0 6.582 4.228 17.616 17.616 0 0 0 3.021.792 17.179 17.179 0 0 0 2.11 7.063 6 6 0 0 0 10.509-5.793 5.549 5.549 0 0 1 6.226-8.054 6 6 0 1 0 2.985-11.623 17.487 17.487 0 0 0 -18.466 6.621z" fill="#284268"/><path d="m305.15 303.279a11.864 11.864 0 0 1 -4.948-2 6 6 0 0 0 -6.883 9.83 23.762 23.762 0 0 0 9.91 4.018 23.623 23.623 0 0 0 6.965.1 24.033 24.033 0 0 0 5.2 11.626 6 6 0 1 0 9.258-7.634 12.024 12.024 0 0 1 -2.335-10.712c.033-.1.061-.206.088-.31a11.967 11.967 0 0 1 3.028-5.094 6 6 0 0 0 -8.48-8.491 23.982 23.982 0 0 0 -5.239 7.879 11.95 11.95 0 0 1 -6.564.788z" fill="#284268"/><path d="m226.174 268.534a8.817 8.817 0 0 1 2.394 1.217 6 6 0 0 0 7.015-9.736 20.842 20.842 0 0 0 -5.64-2.874 21.149 21.149 0 0 0 -3.741-.859 20.64 20.64 0 0 0 -4.552-13.382 6 6 0 1 0 -9.359 7.51 8.811 8.811 0 0 1 1.564 8.01 20.817 20.817 0 0 0 -11.1 21.2 6 6 0 0 0 11.9-1.563 8.829 8.829 0 0 1 11.527-9.521z" fill="#284268"/><path d="m210.031 215.9a6 6 0 1 0 10.509 5.793 17.169 17.169 0 0 0 2.11-7.063 17.616 17.616 0 0 0 3.021-.792 17.4 17.4 0 0 0 6.582-4.228 6 6 0 0 0 -8.579-8.39 5.461 5.461 0 0 1 -4.388 1.624 17.488 17.488 0 0 0 -18.466-6.621 6 6 0 0 0 2.985 11.623 5.553 5.553 0 0 1 6.226 8.054z" fill="#284268"/><path d="m187.349 319.216a6 6 0 1 0 9.258 7.634 24.007 24.007 0 0 0 5.2-11.626 23.958 23.958 0 0 0 16.876-4.117 6 6 0 0 0 -6.883-9.83 11.973 11.973 0 0 1 -11.511 1.211 23.982 23.982 0 0 0 -5.239-7.879 6 6 0 0 0 -8.48 8.491 11.977 11.977 0 0 1 3.029 5.1c.026.1.054.2.086.305a12.028 12.028 0 0 1 -2.334 10.714z" fill="#284268"/><path d="m165 323.076v6.936a28.985 28.985 0 0 0 28.942 29.009 28.693 28.693 0 0 0 12.894-3.05 29.661 29.661 0 0 0 17.967 6.118 29.2 29.2 0 0 0 29.197-29.009v-91.08a6 6 0 0 0 -12 0v91.08a17.213 17.213 0 0 1 -25.4 14.935 28.86 28.86 0 0 0 6.288-18 6 6 0 1 0 -12 0 16.943 16.943 0 1 1 -33.885 0v-4.06c1 .053 1.551.09 2.37.09a6 6 0 0 0 -.05-12 24.679 24.679 0 1 1 -.012-49.357 6 6 0 0 0 0-12 36.452 36.452 0 0 0 -15.462 3.429 15.894 15.894 0 0 1 1.85-25.092l.017-.01a5.989 5.989 0 0 0 10.39-2 5.543 5.543 0 0 1 -3.024 5.787 6 6 0 0 0 2.632 11.4 5.919 5.919 0 0 0 1.195-.127 17.645 17.645 0 0 0 2.1 2.474 6 6 0 0 0 8.39-8.58 5.535 5.535 0 0 1 -1.279-1.969 17.529 17.529 0 0 0 1.508-12.552 6 6 0 0 0 -11.578-.144 6.046 6.046 0 0 0 -.485-1.069 24.683 24.683 0 0 1 36.023-32.205 6 6 0 1 0 7.13-9.652c-.7-.516-1.413-1-2.138-1.461a13.215 13.215 0 0 1 1-13.377 12.913 12.913 0 0 1 5.986-4.672 13.426 13.426 0 0 1 18.434 12.217v24.915a6 6 0 0 0 12 0v-24.112c0-14.08-11.518-26.089-25.6-25.976a25.3 25.3 0 0 0 -25.078 25.173c0 .233.016.464.022.7a36.695 36.695 0 0 0 -43.079 36.115 36.685 36.685 0 0 0 .872 7.88c-.71.388-1.408.8-2.086 1.249a27.908 27.908 0 0 0 -5.247 42.008 36.5 36.5 0 0 0 -11.113 26.327 36.9 36.9 0 0 0 22.309 33.712z" fill="#284268"/></svg>