<svg id="Capa_1" enable-background="new 0 0 512 512" height="512" viewBox="0 0 512 512" width="512" xmlns="http://www.w3.org/2000/svg"><g><g><path d="m504.5 284.311v-56.622c0-11.1-8.998-20.098-20.098-20.098h-21.656c-8.659 0-16.342-5.548-19.064-13.768-3.032-9.157-6.716-18.017-10.996-26.525-3.898-7.749-2.406-17.117 3.727-23.251l15.322-15.322c7.849-7.849 7.849-20.574 0-28.423l-40.038-40.038c-7.849-7.849-20.574-7.849-28.423 0l-15.322 15.322c-6.134 6.134-15.502 7.625-23.251 3.727-8.508-4.28-17.368-7.964-26.525-10.996-8.22-2.722-13.768-10.405-13.768-19.064v-21.655c0-11.1-8.998-20.098-20.098-20.098h-56.622c-11.1 0-20.098 8.998-20.098 20.098v21.656c0 8.659-5.548 16.342-13.768 19.064-9.157 3.032-18.017 6.716-26.525 10.996-7.749 3.898-17.117 2.406-23.251-3.727l-15.322-15.322c-7.849-7.849-20.574-7.849-28.423 0l-40.038 40.038c-7.849 7.849-7.849 20.574 0 28.423l15.322 15.322c6.133 6.134 7.625 15.502 3.727 23.251-4.28 8.508-7.964 17.368-10.996 26.525-1.924 5.809-6.325 10.283-11.797 12.408-2.271.882-3.727 2.359-6.267 2.359h-21.656c-11.1 0-20.098 8.998-20.098 20.098v54.622c0 11.1 8.998 20.098 20.098 20.098h21.656c8.659 0 16.342 6.548 19.064 14.768 3.032 9.157 6.716 18.016 10.996 26.525 3.898 7.749 2.406 17.117-3.727 23.251l-14.322 15.322c-7.849 7.849-7.849 20.574 0 28.423l38.038 38.038c7.849 7.849 20.574 7.849 28.423 0l15.322-15.322c6.133-6.134 15.502-7.625 23.251-3.727 8.508 4.28 19.368 8.964 28.525 11.996 8.22 2.722 13.768 10.405 13.768 19.064v21.656c0 11.1 8.998 20.098 20.098 20.098h53.622c11.1 0 20.098-8.998 20.098-20.098v-21.656c0-2.54 1.477-3.996 2.359-6.267 2.125-5.472 6.6-9.873 12.408-11.797 9.157-3.032 18.017-6.716 26.525-10.996 7.749-3.898 17.117-2.406 23.251 3.727l15.322 15.322c7.849 7.849 20.574 7.849 28.423 0l40.038-40.038c7.849-7.849 7.849-20.574 0-28.423l-15.322-15.322c-6.133-6.134-7.625-15.502-3.727-23.251 4.28-8.508 7.964-17.368 10.996-26.525 2.722-8.22 10.405-13.768 19.064-13.768h21.656c11.101 0 20.099-8.998 20.099-20.098z" fill="#b6c4cf"/><path d="m305.77 455.48c-.88 2.27-1.36 4.73-1.36 7.27v21.65c0 11.1-9 20.1-20.1 20.1h-56.62c-11.1 0-20.1-9-20.1-20.1v-21.65c0-8.66-5.55-16.35-13.77-19.07-9.15-3.03-18.01-6.71-26.52-10.99-7.75-3.9-17.12-2.41-23.25 3.72l-15.32 15.32c-7.85 7.85-20.58 7.85-28.43 0l-40.04-40.03c-7.84-7.85-7.84-20.58 0-28.43l15.33-15.32c6.13-6.13 7.62-15.5 3.72-23.25-4.28-8.51-7.96-17.37-10.99-26.52-2.72-8.22-10.41-13.77-19.07-13.77h-21.65c-11.1 0-20.1-9-20.1-20.1v-56.62c0-11.1 9-20.1 20.1-20.1h21.65c2.54 0 5-.48 7.27-1.36-.02 1.25-.03 2.51-.03 3.77 0 135.59 109.92 245.51 245.51 245.51 1.26 0 2.52-.01 3.77-.03z" fill="#9facba"/><circle cx="256" cy="256" fill="#9facba" r="165"/><circle cx="256" cy="256" fill="#f8f7f7" r="130"/><path d="m194.578 260.101c-4.046 5.392-1.163 13.454 5.462 13.755.134.006.269.009.405.009h45.087c.687 0 1.267.336 1.623.831.389.541 2.217 1.009 1.919 1.698l-25.101 57.028c-3.227 7.465-.613 16.091 6.408 18.716 1.483.555 3.103.862 4.822.862 4.309 0 8.367-2.028 10.953-5.475l72.073-96.038c4.128-5.5.203-13.353-6.674-13.353h-45.087c-1.439 0-2.407-1.473-1.836-2.794l24.735-57.212c2.8-6.476.194-13.488-5.13-16.947-2.109-1.37-4.517-1.015-7.312-1.015-4.309 0-8.367 2.028-10.953 5.475z" fill="#ffd163"/><g fill="#ffb65f"><path d="m263.37 276.66-32.99 75.48c-7.02-2.63-10.98-10.81-7.75-18.27l24.74-57.21c.57-1.32-.4-2.8-1.84-2.8h16c1.44 0 2.41 1.48 1.84 2.8z"/><path d="m284.24 161.18-84.2 112.67c-6.62-.3-10.32-7.95-6.27-13.34l72.07-96.04c1.3-1.72 2.96-3.09 4.84-4.03 1.87-.93 3.96-1.44 6.12-1.44 2.8 0 5.33.81 7.44 2.18z"/></g></g><g><path d="m484.402 200.091h-21.656c-5.436 0-10.235-3.466-11.943-8.625-3.115-9.408-6.957-18.673-11.416-27.538-2.452-4.873-1.516-10.731 2.33-14.577l15.322-15.322c10.76-10.76 10.76-28.269 0-39.029l-40.038-40.038c-5.213-5.213-12.144-8.083-19.516-8.083-7.371 0-14.302 2.871-19.515 8.083l-15.321 15.321c-3.844 3.845-9.704 4.783-14.577 2.331-8.868-4.461-18.134-8.302-27.538-11.416-5.158-1.708-8.625-6.508-8.625-11.944v-21.656c0-15.218-12.38-27.598-27.597-27.598h-56.623c-15.218 0-27.598 12.38-27.598 27.598v21.656c0 5.436-3.467 10.235-8.625 11.944-9.404 3.114-18.67 6.955-27.538 11.417-4.875 2.45-10.732 1.515-14.576-2.331l-15.322-15.322c-10.762-10.761-28.269-10.76-39.03 0l-40.039 40.038c-10.76 10.76-10.76 28.269 0 39.029l15.322 15.321c3.846 3.846 4.782 9.705 2.33 14.578-4.459 8.865-8.301 18.13-11.416 27.538-1.708 5.159-6.508 8.625-11.943 8.625h-21.656c-15.218 0-27.598 12.38-27.598 27.597v56.623c0 15.218 12.38 27.598 27.598 27.598h21.656c5.436 0 10.235 3.466 11.943 8.625 3.115 9.408 6.957 18.673 11.416 27.538 2.452 4.873 1.516 10.731-2.33 14.577l-15.322 15.322c-10.76 10.76-10.76 28.269 0 39.029l40.038 40.038c10.763 10.762 28.27 10.76 39.03 0l15.32-15.321c3.846-3.846 9.704-4.783 14.578-2.331 8.868 4.461 18.134 8.302 27.538 11.416 5.158 1.708 8.625 6.508 8.625 11.944v21.656c0 15.218 12.38 27.598 27.598 27.598h56.623c15.218 0 27.598-12.38 27.598-27.598v-21.656c0-5.436 3.467-10.235 8.625-11.944 9.404-3.114 18.67-6.955 27.538-11.417 4.875-2.451 10.731-1.515 14.577 2.332l15.321 15.321c10.76 10.76 28.269 10.761 39.03 0l7.995-7.996c2.929-2.929 2.929-7.678-.001-10.607-2.929-2.93-7.678-2.928-10.606 0l-7.994 7.996c-4.913 4.913-12.906 4.911-17.817 0l-15.321-15.321c-8.43-8.432-21.259-10.49-31.924-5.125-8.217 4.134-16.801 7.692-25.513 10.577-11.311 3.746-18.91 14.268-18.91 26.183v21.656c0 6.946-5.651 12.598-12.598 12.598h-56.623c-6.946 0-12.598-5.651-12.598-12.598v-21.656c0-11.915-7.6-22.438-18.91-26.183-8.712-2.885-17.296-6.443-25.513-10.577-10.663-5.364-23.494-3.305-31.925 5.124l-15.321 15.322c-4.912 4.911-12.905 4.913-17.815 0l-40.038-40.038c-4.912-4.912-4.912-12.904-.001-17.816l15.323-15.322c8.43-8.431 10.488-21.26 5.123-31.924-4.132-8.213-7.69-16.797-10.576-25.512-3.745-11.311-14.268-18.91-26.184-18.91h-21.655c-6.946 0-12.598-5.651-12.598-12.598v-56.623c0-6.946 5.651-12.598 12.598-12.598h21.656c11.916 0 22.438-7.6 26.184-18.91 2.886-8.715 6.444-17.299 10.576-25.512 5.365-10.665 3.307-23.494-5.123-31.925l-15.322-15.322c-4.912-4.912-4.912-12.904 0-17.816l40.038-40.038c4.911-4.913 12.906-4.912 17.815 0l15.322 15.321c8.43 8.431 21.26 10.49 31.924 5.125 8.217-4.134 16.801-7.692 25.513-10.577 11.311-3.746 18.91-14.268 18.91-26.183v-21.655c0-6.946 5.651-12.598 12.598-12.598h56.623c6.946 0 12.598 5.651 12.598 12.598v21.656c0 11.915 7.6 22.438 18.91 26.183 8.712 2.885 17.296 6.443 25.513 10.577 10.666 5.365 23.495 3.306 31.925-5.125l15.321-15.321c2.379-2.379 5.543-3.69 8.908-3.69 3.364 0 6.528 1.311 8.907 3.69l40.038 40.038c4.912 4.912 4.912 12.904 0 17.816l-15.322 15.322c-8.43 8.431-10.488 21.26-5.123 31.924 4.132 8.213 7.69 16.797 10.576 25.512 3.745 11.311 14.268 18.91 26.184 18.91h21.656c6.946 0 12.598 5.651 12.598 12.598v56.623c0 6.946-5.651 12.598-12.598 12.598h-21.656c-11.916 0-22.438 7.6-26.184 18.91-2.886 8.715-6.444 17.299-10.576 25.512-5.365 10.665-3.307 23.494 5.123 31.925l15.322 15.322c4.912 4.912 4.912 12.904.001 17.816l-7.272 7.271c-2.93 2.929-2.93 7.678-.001 10.607 2.929 2.928 7.678 2.929 10.606 0l7.273-7.272c10.76-10.76 10.76-28.269 0-39.029l-15.322-15.321c-3.846-3.846-4.782-9.705-2.33-14.578 4.459-8.865 8.301-18.13 11.416-27.538 1.708-5.159 6.508-8.625 11.943-8.625h21.656c15.218 0 27.598-12.38 27.598-27.598v-56.623c0-15.217-12.38-27.597-27.598-27.597z"/><path d="m176.691 102.774c-57.482 29.81-93.191 88.523-93.191 153.226 0 95.117 77.383 172.5 172.5 172.5s172.5-77.383 172.5-172.5-77.383-172.5-172.5-172.5c-15.184 0-30.251 1.976-44.783 5.872-4.001 1.073-6.374 5.186-5.302 9.187 1.073 4.001 5.192 6.375 9.187 5.302 13.266-3.557 27.026-5.36 40.898-5.36 86.846 0 157.5 70.654 157.5 157.5s-70.654 157.499-157.5 157.499-157.5-70.654-157.5-157.5c0-59.079 32.607-112.689 85.098-139.91 3.677-1.907 5.111-6.434 3.205-10.11-1.907-3.679-6.436-5.114-10.112-3.206z"/><path d="m208.205 384.933c15.288 5.685 31.368 8.567 47.795 8.567 75.817 0 137.5-61.682 137.5-137.5s-61.683-137.5-137.5-137.5-137.5 61.682-137.5 137.5c0 43.627 21.093 85.12 56.422 110.994 3.342 2.448 8.035 1.723 10.482-1.62 2.447-3.342 1.723-8.035-1.619-10.482-31.487-23.059-50.285-60.028-50.285-98.892 0-67.547 54.953-122.5 122.5-122.5s122.5 54.953 122.5 122.5-54.953 122.5-122.5 122.5c-14.636 0-28.957-2.566-42.566-7.626-3.886-1.443-8.2.534-9.644 4.416s.533 8.199 4.415 9.643z"/><path d="m294.511 161.056c-3.932-5.983-10.554-9.556-17.713-9.556-6.634 0-12.971 3.167-16.952 8.473l-72.074 96.038c-3.626 4.832-4.2 11.19-1.5 16.594 2.701 5.404 8.132 8.761 14.173 8.761h36.718l-21.414 49.529c-2.842 6.572-2.19 14.067 1.741 20.05s10.554 9.556 17.713 9.556c6.634 0 12.971-3.167 16.952-8.473l29.634-39.487c2.486-3.313 1.815-8.014-1.497-10.5-3.313-2.486-8.015-1.816-10.501 1.497l-29.634 39.487c-1.163 1.55-3.016 2.476-4.954 2.476-3.017 0-4.625-1.953-5.177-2.793-.553-.84-1.706-3.092-.51-5.86l25.943-60.006c1.003-2.318.771-4.985-.616-7.095s-3.742-3.381-6.268-3.381h-48.131c-.169 0-.521 0-.755-.467s-.021-.749.08-.884l72.074-96.038c1.163-1.55 3.016-2.476 4.954-2.476 3.017 0 4.625 1.953 5.177 2.793.553.84 1.706 3.092.51 5.86l-25.943 60.006c-1.003 2.318-.771 4.985.616 7.095s3.742 3.381 6.268 3.381h48.131c.169 0 .521 0 .755.467s.021.749-.08.884l-20.647 27.512c-2.486 3.313-1.815 8.014 1.497 10.5 3.313 2.486 8.014 1.816 10.501-1.497l20.647-27.512c3.626-4.832 4.2-11.19 1.5-16.594-2.701-5.404-8.132-8.761-14.173-8.761h-36.718l21.414-49.529c2.842-6.572 2.19-14.067-1.741-20.05z"/></g></g></svg>