<svg id="Icons" enable-background="new 0 0 512 512" height="512" viewBox="0 0 512 512" width="512" xmlns="http://www.w3.org/2000/svg"><g><g><circle cx="256" cy="256" fill="#57409b" r="256"/><circle cx="256" cy="256" fill="#6052a3" r="176.028"/></g><g><g><g><path d="m468.151 253.188v82.078c0 3.284-1.98 6.099-4.81 7.327h-.004c-.971.419-2.04.654-3.166.654h-94.668c-1.126 0-2.195-.234-3.166-.654-2.83-1.224-4.814-4.043-4.814-7.327v-82.078l55.314-55.483z" fill="#fbcb74"/><path d="m468.151 253.188v82.078c0 3.284-1.98 6.099-4.81 7.327h-.004c-2.826-1.228-4.81-4.043-4.81-7.327v-82.078c0-3.28 1.984-6.095 4.81-7.327h.004c2.83 1.228 4.81 4.047 4.81 7.327z" fill="#faefdc"/><path d="m367.146 253.188v82.078c0 3.284-1.98 6.102-4.81 7.327-2.83-1.224-4.814-4.043-4.814-7.327v-82.078c0-3.28 1.984-6.099 4.814-7.327 2.831 1.228 4.81 4.047 4.81 7.327z" fill="#deb36f"/><path d="m446.501 248.924c0 2.658-2.154 4.812-4.812 4.812h-57.704c-2.658 0-4.812-2.154-4.812-4.812s2.154-4.812 4.812-4.812h57.704c2.658 0 4.812 2.155 4.812 4.812z" fill="#fbd9a3"/></g><g><path d="m434.495 319.843h-43.314c-4.979 0-9.015-4.036-9.015-9.015v-43.314c0-4.979 4.036-9.015 9.015-9.015h43.314c4.979 0 9.015 4.036 9.015 9.015v43.314c0 4.979-4.036 9.015-9.015 9.015z" fill="#c4983d"/><g><g><path d="m411.051 268.878v13.409c0 .029 0 .064-.007.093-.043 2.773-2.302 5.004-5.089 5.004h-13.409c-2.816 0-5.104-2.28-5.104-5.096v-13.409c0-2.788 2.237-5.054 5.011-5.096.029-.007.064-.007.093-.007h13.409c2.816-.001 5.096 2.286 5.096 5.102z" fill="#6052a3"/><path d="m411.051 268.878v13.409c0 .029 0 .064-.007.093-.029.007-.064.007-.093.007h-6.476c-6.648 0-12.03-5.389-12.03-12.03v-6.483c0-.029 0-.064.007-.093.029-.007.064-.007.093-.007h13.409c2.817.001 5.097 2.288 5.097 5.104z" fill="#57409b"/><path d="m404.844 280.085c-1.71 0-3.096-1.386-3.096-3.096v-7.65c0-1.71 1.386-3.096 3.096-3.096s3.096 1.386 3.096 3.096v7.65c.001 1.71-1.386 3.096-3.096 3.096z" fill="#9175a7"/></g><g><path d="m438.234 268.878v13.409c0 .029 0 .064-.007.093-.043 2.773-2.302 5.004-5.089 5.004h-13.409c-2.816 0-5.104-2.28-5.104-5.096v-13.409c0-2.788 2.237-5.054 5.011-5.096.029-.007.064-.007.093-.007h13.409c2.816-.001 5.096 2.286 5.096 5.102z" fill="#6052a3"/><path d="m438.234 268.878v13.409c0 .029 0 .064-.007.093-.029.007-.064.007-.093.007h-6.476c-6.648 0-12.03-5.389-12.03-12.03v-6.483c0-.029 0-.064.007-.093.029-.007.064-.007.093-.007h13.409c2.817.001 5.097 2.288 5.097 5.104z" fill="#57409b"/><path d="m432.028 280.085c-1.71 0-3.096-1.386-3.096-3.096v-7.65c0-1.71 1.386-3.096 3.096-3.096s3.096 1.386 3.096 3.096v7.65c0 1.71-1.386 3.096-3.096 3.096z" fill="#9175a7"/></g><g><path d="m411.051 296.062v13.409c0 .029 0 .064-.007.093-.043 2.773-2.302 5.004-5.089 5.004h-13.409c-2.816 0-5.104-2.28-5.104-5.096v-13.409c0-2.788 2.237-5.054 5.011-5.096.029-.007.064-.007.093-.007h13.409c2.816-.002 5.096 2.286 5.096 5.102z" fill="#6052a3"/><path d="m411.051 296.062v13.409c0 .029 0 .064-.007.093-.029.007-.064.007-.093.007h-6.476c-6.648 0-12.03-5.389-12.03-12.03v-6.483c0-.029 0-.064.007-.093.029-.007.064-.007.093-.007h13.409c2.817 0 5.097 2.288 5.097 5.104z" fill="#57409b"/><path d="m404.844 307.269c-1.71 0-3.096-1.386-3.096-3.096v-7.65c0-1.71 1.386-3.096 3.096-3.096s3.096 1.386 3.096 3.096v7.65c.001 1.709-1.386 3.096-3.096 3.096z" fill="#9175a7"/></g><g><path d="m438.234 296.062v13.409c0 .029 0 .064-.007.093-.043 2.773-2.302 5.004-5.089 5.004h-13.409c-2.816 0-5.104-2.28-5.104-5.096v-13.409c0-2.788 2.237-5.054 5.011-5.096.029-.007.064-.007.093-.007h13.409c2.816-.002 5.096 2.286 5.096 5.102z" fill="#6052a3"/><path d="m438.234 296.062v13.409c0 .029 0 .064-.007.093-.029.007-.064.007-.093.007h-6.476c-6.648 0-12.03-5.389-12.03-12.03v-6.483c0-.029 0-.064.007-.093.029-.007.064-.007.093-.007h13.409c2.817 0 5.097 2.288 5.097 5.104z" fill="#57409b"/><path d="m432.028 307.269c-1.71 0-3.096-1.386-3.096-3.096v-7.65c0-1.71 1.386-3.096 3.096-3.096s3.096 1.386 3.096 3.096v7.65c0 1.709-1.386 3.096-3.096 3.096z" fill="#9175a7"/></g></g></g><g><path d="m488.317 265.2c0 1.712-.654 3.42-1.957 4.723-2.622 2.622-6.881 2.607-9.484-.034l-59.282-60.17c-2.615-2.656-6.9-2.656-9.514 0l-59.282 60.17c-1.307 1.326-3.034 1.991-4.757 1.991-1.712 0-3.423-.654-4.727-1.957-2.203-2.203-2.543-5.562-1.028-8.124.28-.472.623-.918 1.028-1.323l68.811-68.808c2.607-2.611 6.839-2.607 9.446 0l68.789 68.808c.404.404.748.85 1.028 1.323.619 1.047.929 2.222.929 3.401z" fill="#e9465e"/><path d="m487.388 261.799c-.28.472-.623.918-1.028 1.323v.004c-2.622 2.622-6.881 2.603-9.484-.038l-59.282-60.17c-2.615-2.656-6.9-2.656-9.514 0l-59.282 60.17c-1.307 1.326-3.034 1.991-4.761 1.991-1.712 0-3.42-.65-4.723-1.954-.408-.408-.748-.854-1.028-1.326.28-.472.623-.918 1.028-1.323l68.811-68.808c2.607-2.611 6.839-2.607 9.446 0l68.789 68.808c.404.405.748.851 1.028 1.323z" fill="#ee6781"/><g fill="#f789a1"><path d="m365.935 239.98-.195-.192c-1.594-1.565-1.606-4.13-.027-5.709l25.932-25.931c1.559-1.559 4.084-1.57 5.657-.025 1.585 1.557 1.605 4.104.046 5.686l-25.737 26.122c-1.555 1.58-4.094 1.601-5.676.049z"/><path d="m459.743 239.979.191-.187c1.598-1.567 1.611-4.136.029-5.719l-25.916-25.923c-1.56-1.56-4.086-1.574-5.662-.03-1.591 1.558-1.614 4.113-.051 5.7l25.725 26.111c1.557 1.579 4.1 1.601 5.684.048z"/></g></g></g><g><path d="m458.41 200.904v31.615l-12.692-12.696v-18.919c0-1.768 1.432-3.2 3.197-3.2h6.299c1.764 0 3.196 1.432 3.196 3.2z" fill="#c0405c"/><path d="m458.41 200.904v26.922l-5.112-5.116c-1.852-1.848-2.887-4.357-2.887-6.968v-14.838c0-1.768 1.432-3.2 3.197-3.2h1.606c1.764 0 3.196 1.432 3.196 3.2z" fill="#e9465e"/></g></g><g><g><path d="m156.057 148.514v184.368c0 3.941-2.192 7.358-5.417 9.113h-.007c-1.47.801-3.152 1.252-4.941 1.252h-77.547c-1.788 0-3.47-.45-4.941-1.252-3.232-1.755-5.424-5.172-5.424-9.113v-184.368c0-1.854.49-3.596 1.351-5.1.947-1.695 2.364-3.086 4.073-4.014 1.47-.801 3.152-1.252 4.941-1.252h77.547c1.788 0 3.47.45 4.941 1.252h.007c1.702.927 3.119 2.318 4.073 4.007.854 1.504 1.344 3.246 1.344 5.107z" fill="#ebd9ea"/><path d="m156.057 148.514v184.368c0 3.941-2.192 7.358-5.417 9.113h-.007c-3.232-1.755-5.424-5.172-5.424-9.113v-184.368c0-3.934 2.192-7.358 5.424-9.113h.007c3.224 1.755 5.417 5.179 5.417 9.113z" fill="#f9eaf9"/><path d="m68.628 148.514v184.368c0 3.941-2.192 7.358-5.424 9.113-3.232-1.755-5.424-5.172-5.424-9.113v-184.368c0-3.934 2.192-7.358 5.424-9.113 3.232 1.755 5.424 5.179 5.424 9.113z" fill="#c2aacf"/><path d="m98.246 138.148h17.347v159.453h-17.347z" fill="#decee5"/><g fill="#fff"><path d="m154.712 143.407c-1.861 3.378-5.457 5.669-9.583 5.669h-76.421c-3.013 0-5.749-1.225-7.729-3.199-.728-.729-1.351-1.556-1.848-2.464.947-1.695 2.364-3.086 4.073-4.014 1.47-.801 3.152-1.252 4.941-1.252h77.547c1.788 0 3.47.45 4.941 1.252h.007c1.701.929 3.119 2.32 4.072 4.008z"/><path d="m150.633 276.022c-2.996 0-5.424-2.428-5.424-5.424v-96.159c0-2.996 2.428-5.424 5.424-5.424s5.424 2.428 5.424 5.424v96.159c0 2.995-2.429 5.424-5.424 5.424z"/></g></g><g><g><g><path d="m98.246 161.491v16.821c0 .036 0 .081-.009.117-.054 3.479-2.887 6.276-6.384 6.276h-16.821c-3.533 0-6.402-2.86-6.402-6.393v-16.821c0-3.497 2.806-6.339 6.285-6.393.036-.009.081-.009.117-.009h16.821c3.533 0 6.393 2.869 6.393 6.402z" fill="#c2aacf"/><path d="m93.572 164.144v11.511c0 .025 0 .055-.006.08-.037 2.381-1.976 4.295-4.369 4.295h-11.512c-2.418 0-4.381-1.957-4.381-4.375v-11.511c0-2.393 1.921-4.338 4.301-4.375.025-.006.055-.006.08-.006h11.511c2.419 0 4.376 1.964 4.376 4.381z" fill="#6052a3"/><path d="m93.572 164.144v11.511c0 .025 0 .055-.006.08-.025.006-.055.006-.08.006h-5.559c-5.707 0-10.327-4.627-10.327-10.327v-5.565c0-.025 0-.055.006-.08.025-.006.055-.006.08-.006h11.511c2.418 0 4.375 1.964 4.375 4.381z" fill="#57409b"/><path d="m88.244 173.765c-1.468 0-2.658-1.19-2.658-2.658v-6.567c0-1.468 1.19-2.658 2.658-2.658s2.658 1.19 2.658 2.658v6.567c0 1.468-1.19 2.658-2.658 2.658z" fill="#9175a7"/></g><g><path d="m145.208 161.491v16.821c0 .036 0 .081-.009.117-.054 3.479-2.887 6.276-6.384 6.276h-16.821c-3.533 0-6.402-2.86-6.402-6.393v-16.821c0-3.497 2.806-6.339 6.285-6.393.036-.009.081-.009.117-.009h16.821c3.533 0 6.393 2.869 6.393 6.402z" fill="#c2aacf"/><path d="m140.534 164.144v11.511c0 .025 0 .055-.006.08-.037 2.381-1.976 4.295-4.369 4.295h-11.511c-2.418 0-4.381-1.957-4.381-4.375v-11.511c0-2.393 1.921-4.338 4.301-4.375.025-.006.055-.006.08-.006h11.511c2.418 0 4.375 1.964 4.375 4.381z" fill="#6052a3"/><path d="m140.534 164.144v11.511c0 .025 0 .055-.006.08-.025.006-.055.006-.08.006h-5.559c-5.707 0-10.327-4.627-10.327-10.327v-5.565c0-.025 0-.055.006-.08.025-.006.055-.006.08-.006h11.511c2.418 0 4.375 1.964 4.375 4.381z" fill="#57409b"/><path d="m135.206 173.765c-1.468 0-2.658-1.19-2.658-2.658v-6.567c0-1.468 1.19-2.658 2.658-2.658s2.658 1.19 2.658 2.658v6.567c0 1.468-1.19 2.658-2.658 2.658z" fill="#9175a7"/></g></g><g><g><path d="m98.246 197.119v16.821c0 .036 0 .081-.009.117-.054 3.479-2.887 6.276-6.384 6.276h-16.821c-3.533 0-6.402-2.86-6.402-6.393v-16.821c0-3.497 2.806-6.339 6.285-6.393.036-.009.081-.009.117-.009h16.821c3.533 0 6.393 2.869 6.393 6.402z" fill="#c2aacf"/><path d="m93.572 199.772v11.511c0 .025 0 .055-.006.08-.037 2.381-1.976 4.295-4.369 4.295h-11.512c-2.418 0-4.381-1.957-4.381-4.375v-11.511c0-2.393 1.921-4.338 4.301-4.375.025-.006.055-.006.08-.006h11.511c2.419 0 4.376 1.963 4.376 4.381z" fill="#6052a3"/><path d="m93.572 199.772v11.511c0 .025 0 .055-.006.08-.025.006-.055.006-.08.006h-5.559c-5.707 0-10.327-4.627-10.327-10.327v-5.565c0-.025 0-.055.006-.08.025-.006.055-.006.08-.006h11.511c2.418 0 4.375 1.963 4.375 4.381z" fill="#57409b"/><path d="m88.244 209.393c-1.468 0-2.658-1.19-2.658-2.658v-6.567c0-1.468 1.19-2.658 2.658-2.658s2.658 1.19 2.658 2.658v6.567c0 1.468-1.19 2.658-2.658 2.658z" fill="#9175a7"/></g><g><path d="m145.208 197.119v16.821c0 .036 0 .081-.009.117-.054 3.479-2.887 6.276-6.384 6.276h-16.821c-3.533 0-6.402-2.86-6.402-6.393v-16.821c0-3.497 2.806-6.339 6.285-6.393.036-.009.081-.009.117-.009h16.821c3.533 0 6.393 2.869 6.393 6.402z" fill="#c2aacf"/><path d="m140.534 199.772v11.511c0 .025 0 .055-.006.08-.037 2.381-1.976 4.295-4.369 4.295h-11.511c-2.418 0-4.381-1.957-4.381-4.375v-11.511c0-2.393 1.921-4.338 4.301-4.375.025-.006.055-.006.08-.006h11.511c2.418 0 4.375 1.963 4.375 4.381z" fill="#6052a3"/><path d="m140.534 199.772v11.511c0 .025 0 .055-.006.08-.025.006-.055.006-.08.006h-5.559c-5.707 0-10.327-4.627-10.327-10.327v-5.565c0-.025 0-.055.006-.08.025-.006.055-.006.08-.006h11.511c2.418 0 4.375 1.963 4.375 4.381z" fill="#57409b"/><path d="m135.206 209.393c-1.468 0-2.658-1.19-2.658-2.658v-6.567c0-1.468 1.19-2.658 2.658-2.658s2.658 1.19 2.658 2.658v6.567c0 1.468-1.19 2.658-2.658 2.658z" fill="#9175a7"/></g></g><g><g><path d="m98.246 232.747v16.821c0 .036 0 .081-.009.117-.054 3.479-2.887 6.276-6.384 6.276h-16.821c-3.533 0-6.402-2.86-6.402-6.393v-16.821c0-3.497 2.806-6.339 6.285-6.393.036-.009.081-.009.117-.009h16.821c3.533 0 6.393 2.869 6.393 6.402z" fill="#c2aacf"/><path d="m93.572 235.4v11.511c0 .025 0 .055-.006.08-.037 2.381-1.976 4.295-4.369 4.295h-11.512c-2.418 0-4.381-1.957-4.381-4.375v-11.511c0-2.393 1.921-4.338 4.301-4.375.025-.006.055-.006.08-.006h11.511c2.419 0 4.376 1.963 4.376 4.381z" fill="#6052a3"/><path d="m93.572 235.4v11.511c0 .025 0 .055-.006.08-.025.006-.055.006-.08.006h-5.559c-5.707 0-10.327-4.627-10.327-10.327v-5.565c0-.025 0-.055.006-.08.025-.006.055-.006.08-.006h11.511c2.418 0 4.375 1.963 4.375 4.381z" fill="#57409b"/><path d="m88.244 245.021c-1.468 0-2.658-1.19-2.658-2.658v-6.567c0-1.468 1.19-2.658 2.658-2.658s2.658 1.19 2.658 2.658v6.567c0 1.468-1.19 2.658-2.658 2.658z" fill="#9175a7"/></g><g><path d="m145.208 232.747v16.821c0 .036 0 .081-.009.117-.054 3.479-2.887 6.276-6.384 6.276h-16.821c-3.533 0-6.402-2.86-6.402-6.393v-16.821c0-3.497 2.806-6.339 6.285-6.393.036-.009.081-.009.117-.009h16.821c3.533 0 6.393 2.869 6.393 6.402z" fill="#c2aacf"/><path d="m140.534 235.4v11.511c0 .025 0 .055-.006.08-.037 2.381-1.976 4.295-4.369 4.295h-11.511c-2.418 0-4.381-1.957-4.381-4.375v-11.511c0-2.393 1.921-4.338 4.301-4.375.025-.006.055-.006.08-.006h11.511c2.418 0 4.375 1.963 4.375 4.381z" fill="#6052a3"/><path d="m140.534 235.4v11.511c0 .025 0 .055-.006.08-.025.006-.055.006-.08.006h-5.559c-5.707 0-10.327-4.627-10.327-10.327v-5.565c0-.025 0-.055.006-.08.025-.006.055-.006.08-.006h11.511c2.418 0 4.375 1.963 4.375 4.381z" fill="#57409b"/><path d="m135.206 245.021c-1.468 0-2.658-1.19-2.658-2.658v-6.567c0-1.468 1.19-2.658 2.658-2.658s2.658 1.19 2.658 2.658v6.567c0 1.468-1.19 2.658-2.658 2.658z" fill="#9175a7"/></g></g><g><g><path d="m98.246 268.375v16.821c0 .036 0 .081-.009.117-.054 3.479-2.887 6.276-6.384 6.276h-16.821c-3.533 0-6.402-2.86-6.402-6.393v-16.821c0-3.497 2.806-6.339 6.285-6.393.036-.009.081-.009.117-.009h16.821c3.533 0 6.393 2.869 6.393 6.402z" fill="#c2aacf"/><path d="m93.572 271.028v11.511c0 .025 0 .055-.006.08-.037 2.381-1.976 4.295-4.369 4.295h-11.512c-2.418 0-4.381-1.957-4.381-4.375v-11.511c0-2.393 1.921-4.338 4.301-4.375.025-.006.055-.006.08-.006h11.511c2.419 0 4.376 1.963 4.376 4.381z" fill="#6052a3"/><path d="m93.572 271.028v11.511c0 .025 0 .055-.006.08-.025.006-.055.006-.08.006h-5.559c-5.707 0-10.327-4.627-10.327-10.327v-5.565c0-.025 0-.055.006-.08.025-.006.055-.006.08-.006h11.511c2.418 0 4.375 1.963 4.375 4.381z" fill="#57409b"/><path d="m88.244 280.649c-1.468 0-2.658-1.19-2.658-2.658v-6.567c0-1.468 1.19-2.658 2.658-2.658s2.658 1.19 2.658 2.658v6.567c0 1.467-1.19 2.658-2.658 2.658z" fill="#9175a7"/></g><g><path d="m145.208 268.375v16.821c0 .036 0 .081-.009.117-.054 3.479-2.887 6.276-6.384 6.276h-16.821c-3.533 0-6.402-2.86-6.402-6.393v-16.821c0-3.497 2.806-6.339 6.285-6.393.036-.009.081-.009.117-.009h16.821c3.533 0 6.393 2.869 6.393 6.402z" fill="#c2aacf"/><path d="m140.534 271.028v11.511c0 .025 0 .055-.006.08-.037 2.381-1.976 4.295-4.369 4.295h-11.511c-2.418 0-4.381-1.957-4.381-4.375v-11.511c0-2.393 1.921-4.338 4.301-4.375.025-.006.055-.006.08-.006h11.511c2.418 0 4.375 1.963 4.375 4.381z" fill="#6052a3"/><path d="m140.534 271.028v11.511c0 .025 0 .055-.006.08-.025.006-.055.006-.08.006h-5.559c-5.707 0-10.327-4.627-10.327-10.327v-5.565c0-.025 0-.055.006-.08.025-.006.055-.006.08-.006h11.511c2.418 0 4.375 1.963 4.375 4.381z" fill="#57409b"/><path d="m135.206 280.649c-1.468 0-2.658-1.19-2.658-2.658v-6.567c0-1.468 1.19-2.658 2.658-2.658s2.658 1.19 2.658 2.658v6.567c0 1.467-1.19 2.658-2.658 2.658z" fill="#9175a7"/></g></g></g><g><g><path d="m134.72 340.233h-55.606c-1.664 0-3.014 1.349-3.014 3.014 0 1.664 1.349 3.014 3.014 3.014h55.606c1.664 0 3.014-1.349 3.014-3.014s-1.349-3.014-3.014-3.014z" fill="#f9eaf9"/><path d="m124.749 334.205h-35.66c-1.664 0-3.014 1.349-3.014 3.014 0 1.664 1.349 3.014 3.014 3.014h35.66c1.664 0 3.014-1.349 3.014-3.014s-1.349-3.014-3.014-3.014z" fill="#fff"/></g><g><path d="m93.572 302.19h26.694v32.015h-26.694z" fill="#c2aacf"/><path d="m98.246 302.19h17.347v32.015h-17.347z" fill="#6052a3"/><path d="m105.926 302.19h1.985v32.015h-1.985z" fill="#57409b"/></g><g><g><g><path d="m130.075 302.191h4.643v38.042h-4.643z" fill="#9175a7"/><path d="m134.718 302.191v35.711c-1.662-.093-2.974-1.464-2.974-3.152v-32.558h2.974z" fill="#a583bb"/><path d="m133.231 330.542c-.821 0-1.487-.666-1.487-1.487v-13.929c0-.821.666-1.487 1.487-1.487s1.487.666 1.487 1.487v13.929c0 .822-.666 1.487-1.487 1.487z" fill="#c2aacf"/></g><g><path d="m79.114 302.191h4.643v38.042h-4.643z" fill="#9175a7"/><path d="m83.756 302.191v35.711c-1.662-.093-2.974-1.464-2.974-3.152v-32.558h2.974z" fill="#a583bb"/><path d="m82.27 330.542c-.821 0-1.487-.666-1.487-1.487v-13.929c0-.821.666-1.487 1.487-1.487s1.487.666 1.487 1.487v13.929c-.001.822-.666 1.487-1.487 1.487z" fill="#c2aacf"/></g></g><g><path d="m137.546 301.019v5.927c0 2.04-2.616 2.888-3.808 1.239-.967-1.338-1.921-2.682-3.855-2.682-3.828 0-3.828 5.298-7.656 5.298s-3.828-5.298-7.656-5.298-3.828 5.298-7.656 5.298-3.828-5.298-7.656-5.298-3.828 5.298-7.656 5.298-3.828-5.298-7.656-5.298c-1.927 0-2.888 1.344-3.848 2.676-1.199 1.656-3.808.801-3.808-1.239v-5.921c0-1.888 1.53-3.417 3.417-3.417h54.42c1.888-.001 3.418 1.529 3.418 3.417z" fill="#c0405c"/><path d="m137.546 301.019v3.139c0 2.04-2.616 2.894-3.808 1.238-.967-1.331-1.921-2.682-3.855-2.682-3.828 0-3.828 5.298-7.656 5.298s-3.828-5.298-7.656-5.298-3.828 5.298-7.656 5.298-3.828-5.298-7.656-5.298-3.828 5.298-7.656 5.298-3.828-5.298-7.656-5.298c-1.927 0-2.888 1.344-3.848 2.676-1.199 1.656-3.808.801-3.808-1.238v-3.133c0-1.888 1.53-3.417 3.417-3.417h54.42c1.888-.001 3.418 1.529 3.418 3.417z" fill="#e9465e"/><path d="m133.659 297.601h-53.48c-.746 0-1.351.605-1.351 1.351s.605 1.351 1.351 1.351h53.48c.746 0 1.351-.605 1.351-1.351s-.605-1.351-1.351-1.351z" fill="#ee6781"/></g></g></g></g><g><g id="Arrow_5_"><path d="m272.92 264.708 41.186 23.211c2.059 1.161 3.333 3.341 3.333 5.705s-1.272 4.544-3.334 5.706l-41.185 23.211c-2.027 1.143-4.509 1.124-6.518-.05-2.011-1.175-3.245-3.327-3.245-5.654l-.001-16.662-69.047.001c-3.617 0-6.549-2.932-6.549-6.549s2.932-6.549 6.549-6.549l69.047.001-.001-16.661c0-1.76.706-3.419 1.918-4.631.392-.392.836-.738 1.327-1.024 2.01-1.179 4.493-1.198 6.52-.055z" fill="#53b976"/><path d="m274.294 272.816c-1.808 3.132-.735 7.138 2.397 8.946l19.747 11.401c3.132 1.808 7.138.735 8.946-2.397s.735-7.138-2.397-8.946l-19.747-11.401c-3.132-1.809-7.138-.736-8.946 2.397z" fill="#9acdae"/></g><g><g><path d="m303.555 180.259v56.004c0 1.891-.507 3.666-1.391 5.193-1.15 1.995-2.951 3.575-5.108 4.439-1.196.487-2.509.754-3.88.754h-81.344c-1.378 0-2.691-.266-3.887-.754-2.158-.871-3.958-2.444-5.108-4.439-.884-1.527-1.391-3.302-1.391-5.193v-56.004c0-4.361 2.684-8.098 6.499-9.632 1.196-.487 2.509-.754 3.887-.754h81.344c1.371 0 2.684.266 3.88.754 3.808 1.534 6.499 5.265 6.499 9.632z" fill="#d48d77"/><path d="m214.444 180.259v56.004c0 4.367-2.691 8.098-6.499 9.632-3.815-1.534-6.499-5.271-6.499-9.632v-56.004c0-4.361 2.684-8.098 6.499-9.632 3.808 1.534 6.499 5.265 6.499 9.632z" fill="#c17e62"/><path d="m303.555 180.259v56.004c0 1.891-.507 3.666-1.391 5.193-1.15 1.995-2.951 3.575-5.108 4.439-2.158-.871-3.958-2.444-5.108-4.439-.884-1.527-1.391-3.302-1.391-5.193v-56.004c0-4.361 2.684-8.098 6.499-9.632 3.808 1.534 6.499 5.265 6.499 9.632z" fill="#eea47d"/><path d="m302.164 241.456c-1.794 3.107-5.147 5.193-8.988 5.193h-81.344c-1.378 0-2.691-.266-3.887-.754-2.158-.871-3.958-2.444-5.108-4.439 1.15-1.995 2.951-3.568 5.108-4.439 1.196-.487 2.509-.754 3.887-.754h81.344c3.841 0 7.194 2.086 8.988 5.193z" fill="#a26d5a"/></g><g><path d="m291.025 212.777h-77.05c-6.92 0-12.53-5.61-12.53-12.53v-5.741h102.109v5.741c.001 6.92-5.609 12.53-12.529 12.53z" fill="#a26d5a"/><path d="m303.555 180.259v17.197c0 4.517-3.666 8.183-8.183 8.183h-85.744c-4.517 0-8.183-3.666-8.183-8.183v-17.197c0-4.361 2.684-8.098 6.499-9.632 1.196-.487 2.509-.754 3.887-.754h81.344c1.371 0 2.684.266 3.88.754 3.809 1.534 6.5 5.265 6.5 9.632z" fill="#c17e62"/><path d="m214.444 180.259v25.38h-4.816c-4.517 0-8.183-3.666-8.183-8.183v-17.197c0-4.361 2.684-8.098 6.499-9.632 3.809 1.534 6.5 5.265 6.5 9.632z" fill="#a26d5a"/><path d="m303.555 180.259v17.197c0 4.517-3.666 8.183-8.183 8.183h-4.816v-25.38c0-4.361 2.684-8.098 6.499-9.632 3.809 1.534 6.5 5.265 6.5 9.632z" fill="#d48d77"/><path d="m279.632 175.343h-54.264c-3.144 0-5.693 2.549-5.693 5.693s2.549 5.693 5.693 5.693h54.264c3.144 0 5.693-2.549 5.693-5.693s-2.549-5.693-5.693-5.693z" fill="#d48d77"/><path d="m276.591 182.655h-34.368c-2.019 0-3.656-1.637-3.656-3.656s1.637-3.656 3.656-3.656h34.368c2.019 0 3.656 1.637 3.656 3.656 0 2.02-1.637 3.656-3.656 3.656z" fill="#eea47d"/></g><g><g><path d="m228.073 195.37c-.734-.546-1.644-.864-2.632-.864h-6.551c-.981 0-1.891.318-2.626.864-1.105.799-1.82 2.106-1.82 3.581v13.375c0 1.475.715 2.782 1.82 3.581.734.546 1.644.864 2.626.864h6.551c.988 0 1.898-.318 2.632-.864 1.098-.806 1.813-2.112 1.813-3.581v-13.375c0-1.469-.715-2.775-1.813-3.581zm-1.819 14.817c0 1.43-1.16 2.59-2.59 2.59h-2.996c-1.43 0-2.59-1.16-2.59-2.59v-9.096c0-1.43 1.16-2.59 2.59-2.59h2.996c1.43 0 2.59 1.16 2.59 2.59z" fill="#f9c744"/><path d="m229.886 198.951v13.375c0 1.469-.715 2.775-1.813 3.581-1.105-.806-1.82-2.112-1.82-3.581v-13.375c0-1.469.715-2.775 1.82-3.581 1.098.806 1.813 2.112 1.813 3.581z" fill="#fad98f"/><path d="m218.077 198.951v13.375c0 1.469-.715 2.775-1.813 3.581-1.105-.799-1.82-2.106-1.82-3.581v-13.375c0-1.475.715-2.782 1.82-3.581 1.098.806 1.813 2.112 1.813 3.581z" fill="#f39e22"/><path d="m228.073 195.37c-.734-.546-1.644-.864-2.632-.864h-4.179c.238 1.463.798 2.816 1.597 3.995h.807c1.43 0 2.59 1.16 2.59 2.59v.542c1.1.62 2.324 1.044 3.631 1.211v-3.893c-.001-1.469-.716-2.775-1.814-3.581z" fill="#faefdc"/></g><g><path d="m288.743 195.37c-.734-.546-1.644-.864-2.632-.864h-6.551c-.981 0-1.891.318-2.626.864-1.105.799-1.82 2.106-1.82 3.581v13.375c0 1.475.715 2.782 1.82 3.581.734.546 1.644.864 2.626.864h6.551c.988 0 1.898-.318 2.632-.864 1.098-.806 1.813-2.112 1.813-3.581v-13.375c0-1.469-.715-2.775-1.813-3.581zm-1.818 14.817c0 1.43-1.159 2.59-2.59 2.59h-2.996c-1.43 0-2.59-1.16-2.59-2.59v-9.096c0-1.43 1.16-2.59 2.59-2.59h2.996c1.43 0 2.59 1.16 2.59 2.59z" fill="#f9c744"/><path d="m290.556 198.951v13.375c0 1.469-.715 2.775-1.813 3.581-1.105-.806-1.82-2.112-1.82-3.581v-13.375c0-1.469.715-2.775 1.82-3.581 1.098.806 1.813 2.112 1.813 3.581z" fill="#fad98f"/><path d="m278.747 198.951v13.375c0 1.469-.715 2.775-1.813 3.581-1.105-.799-1.82-2.106-1.82-3.581v-13.375c0-1.475.715-2.782 1.82-3.581 1.098.806 1.813 2.112 1.813 3.581z" fill="#f39e22"/><path d="m288.743 195.37c-.734-.546-1.644-.864-2.632-.864h-4.179c.238 1.463.798 2.816 1.597 3.995h.807c1.43 0 2.59 1.16 2.59 2.59v.542c1.1.62 2.324 1.044 3.631 1.211v-3.893c-.001-1.469-.716-2.775-1.814-3.581z" fill="#faefdc"/></g></g><g><path d="m275.114 160.17v9.703h-7.793v-6.174c0-3.419-2.775-6.194-6.2-6.194h-17.236c-3.425 0-6.2 2.775-6.2 6.194v6.174h-7.793v-9.703c0-1.02.162-2.002.455-2.918 1.235-3.848 4.842-6.636 9.099-6.636h26.114c4.257 0 7.864 2.788 9.099 6.636.293.916.455 1.898.455 2.918z" fill="#a26d5a"/><path d="m274.659 157.252c-1.04 3.705-3.783 6.688-7.338 8.059v-1.612c0-3.419-2.775-6.194-6.2-6.194h-17.236c-3.425 0-6.2 2.775-6.2 6.194v1.612c-1.599-.617-3.035-1.56-4.225-2.749-1.456-1.456-2.541-3.276-3.113-5.31 1.235-3.848 4.842-6.636 9.099-6.636h26.114c4.257 0 7.864 2.788 9.099 6.636z" fill="#c17e62"/><path d="m265.401 157.505h-20.037c-1.862 0-3.371-1.509-3.371-3.371v-.147c0-1.862 1.509-3.371 3.371-3.371h20.037c1.862 0 3.371 1.509 3.371 3.371v.147c0 1.862-1.509 3.371-3.371 3.371z" fill="#d48d77"/></g></g></g></g></svg>