<svg id="Layer_1" height="512" viewBox="0 0 512 512" width="512" xmlns="http://www.w3.org/2000/svg" data-name="Layer 1"><path d="m169.17 250.23h-42.27l10.49-31.36.47.16z" fill="#6d7486"/><path d="m212.63 250.23h-43.46l-31.31-31.2-.47-.16 10.91-32.6.18.06z" fill="#eadf53"/><path d="m256 250.15v.08h-43.37l-64.15-63.9-.18-.06 10.89-32.56z" fill="#6d7486"/><path d="m299.53 250.23h-43.53v-.08l-96.81-96.44 10.87-32.46z" fill="#eadf53"/><path d="m342.99 250.23h-43.46l-129.47-128.98 10.84-32.4.14.05z" fill="#6d7486"/><path d="m384.43 248.32-164.28-163.32h-37.82l-1.43 4.065.14-.173 161.95 161.108h42.11z" fill="#eadf53"/><path d="m362.7 183.28 21.73 64.94-164.28-163.65h43.45z" fill="#6d7486"/><path d="m340.84 117.96 21.86 65.32-99.1-98.71h43.46l33.58 33.46z" fill="#eadf53"/><path d="m329.67 85h-22.61l33.58 33.245.2.037z" fill="#6d7486"/><path d="m175 17h162v41h-162z" fill="#71c2ff"/><path d="m208 315h96v35h-96z" fill="#b0b5ca"/><path d="m308.81 453.99a12.424 12.424 0 0 1 -.63 3.9 53.834 53.834 0 0 1 -14.43 22.55 54.412 54.412 0 0 1 -40.71 14.43c-28-1.91-49.89-25.56-49.85-53.83a52.711 52.711 0 0 1 38.81-51.26 4.067 4.067 0 0 0 2.74-4l-.22-35.61v-.09h25.53v.15l.23 35.61a29.434 29.434 0 0 1 -21.32 28.45c-12.27 3.41-20.21 13.97-20.23 26.9-.03 15.12 11.13 27.29 25.95 28.31a28.485 28.485 0 0 0 21.59-7.67 28.191 28.191 0 0 0 7.67-11.92 12.6 12.6 0 0 1 12.05-8.63 12.835 12.835 0 0 1 12.82 12.71z" fill="#d4e1f4"/><path d="m126.9 250 61.95 65h134.3l61.95-65z" fill="#ccd3df"/><path d="m198.53 57.8h114.94v26.77h-114.94z" fill="#4689d3"/><path d="m181.035 88.898.005.002 22.382 22.297.01-.029-22.392-22.276z" fill="none"/><path d="m156.977 250 2.991-8.939-22.108-22.031-.47-.16-10.413 31.13h29.923z" fill="#575e6d"/><path d="m126.9 250.23h.219l-.162-.17z" fill="#6d7486"/><path d="m159.968 241.061 10.864-32.466-22.352-22.265-.18-.06-10.91 32.6.47.16z" fill="#cec146"/><path d="m170.832 208.595 10.863-32.466-22.505-22.419-10.89 32.56.18.06z" fill="#575e6d"/><path d="m192.559 143.664-22.499-22.414-10.87 32.46 22.505 22.419z" fill="#cec146"/><path d="m203.422 111.197-22.382-22.297-.005-.002-.135.167.067-.191-.067-.024-10.84 32.4 22.499 22.414z" fill="#575e6d"/><path d="m181.035 88.898.005-.006 22.392 22.276 7.468-22.318.067.024 1.083-3.874h-29.72l-1.363 3.874-.067.191z" fill="#cec146"/><path d="m175 17v41l30-.2v-40.8z" fill="#5bacdd"/><path d="m208 315h30v35h-30z" fill="#9ea3b2"/><path d="m157.119 250.23h-.219l.057-.17-.057-.06h-29.923-.077l.057.06.162.17 61.731 64.77h30z" fill="#b3bcc9"/><path d="m198.53 57.8v.2 26.57h30v-26.57z" fill="#3c7cb5"/><g fill="#284268"><path d="m206.073 279h71.756a6 6 0 0 0 0-12h-71.756a6 6 0 1 0 0 12z"/><path d="m182.505 279h4.884a6 6 0 0 0 0-12h-4.884a6 6 0 0 0 0 12z"/><path d="m184.5 319.3a5.86 5.86 0 0 0 4.345 1.7h13.155v29.076a6.138 6.138 0 0 0 6.232 5.924h30.325l.178 28.489a58.623 58.623 0 0 0 -41.541 56.541c-.047 31.418 24.3 57.7 55.432 59.83q2.043.141 4.078.14a60.52 60.52 0 0 0 41.14-16.169 59.9 59.9 0 0 0 16.033-25.07 18.661 18.661 0 0 0 -2.618-16.8 19.031 19.031 0 0 0 -15.259-7.961h-.039a18.671 18.671 0 0 0 -17.733 12.914 22.279 22.279 0 0 1 -6.051 9.457 22.619 22.619 0 0 1 -17.092 6.107c-11.626-.8-20.379-10.374-20.361-22.3a21.371 21.371 0 0 1 15.839-21.119 35.433 35.433 0 0 0 25.71-34.263l-.183-29.796h27.678a6.138 6.138 0 0 0 6.232-5.924v-29.076h13.152a5.882 5.882 0 0 0 4.345-1.731l61.951-64.969a5.885 5.885 0 0 0 1.345-5.977l-55.433-165.441a5.812 5.812 0 0 0 -5.69-3.882h-10.67v-15h17.866a6.29 6.29 0 0 0 6.134-6.2v-40.8a6.116 6.116 0 0 0 -6.134-6h-161.732a6.116 6.116 0 0 0 -6.134 6v40.8a6.29 6.29 0 0 0 6.134 6.2h17.866v15h-10.67a5.812 5.812 0 0 0 -5.69 3.882l-55.433 165.548a5.9 5.9 0 0 0 1.345 5.988zm79.773 66.555a23.4 23.4 0 0 1 -16.924 22.656c-14.935 4.15-24.6 16.975-24.625 32.671-.028 18.325 13.532 33.074 31.543 34.308a34.443 34.443 0 0 0 26.09-9.264 34.83 34.83 0 0 0 9.283-14.6 6.7 6.7 0 0 1 6.324-4.626h.015a6.925 6.925 0 0 1 5.553 2.993 6.638 6.638 0 0 1 .944 5.953 48 48 0 0 1 -12.812 20.07 48.5 48.5 0 0 1 -36.218 12.855c-24.852-1.7-44.29-22.708-44.252-47.832a46.742 46.742 0 0 1 34.41-45.478 10.039 10.039 0 0 0 7.14-9.818l-.187-29.743h13.532zm56.308-76.855h-61.581a6 6 0 0 0 0 12h39v23h-84v-23h3a6 6 0 0 0 0-12h-25.581l-50.559-53h230.28zm50.045-83-135.521-135h26.45l95.8 95.435zm-165.626-147v-15h102v15zm120.351 12 1.675 4.993-5.013-4.993zm10.2 30.43 13.275 39.57-70.267-70h26.45zm-154.551-69.43v-29h150v29zm37.1 39 153.816 153h-26.45l-153.815-153zm-34.458 8.792 144.82 144.208h-26.451l-124.991-124.4zm-10.882 32.447 112.248 111.761h-26.45l-92.42-91.953zm-10.88 32.448 79.674 79.313h-26.454l-59.847-59.506zm-10.88 32.448 47.1 46.865h-26.45l-27.275-27.058zm-10.882 32.391 14.528 14.474h-19.383z"/></g></svg>