<svg id="Icons" enable-background="new 0 0 512 512" height="512" viewBox="0 0 512 512" width="512" xmlns="http://www.w3.org/2000/svg"><g><circle cx="256" cy="256" fill="#53b976" r="256"/><g><g><g><g><g><path d="m460.526 224.816v119.943c0 4.798-2.893 8.912-7.029 10.707h-.005c-1.419.613-2.982.955-4.627.955h-138.342c-1.645 0-3.208-.342-4.627-.955-4.136-1.789-7.035-5.908-7.035-10.707v-119.943l80.832-81.078z" fill="#fbcb74"/><path d="m460.526 224.816v119.943c0 4.798-2.893 8.912-7.029 10.707h-.005c-4.13-1.795-7.029-5.908-7.029-10.707v-119.943c0-4.793 2.899-8.907 7.029-10.707h.005c4.136 1.794 7.029 5.914 7.029 10.707z" fill="#faefdc"/><path d="m312.925 224.816v119.943c0 4.798-2.893 8.918-7.029 10.707-4.136-1.789-7.035-5.908-7.035-10.707v-119.943c0-4.793 2.899-8.912 7.035-10.707 4.136 1.794 7.029 5.914 7.029 10.707z" fill="#deb36f"/><path d="m428.889 218.585c0 3.884-3.148 7.032-7.032 7.032h-84.325c-3.884 0-7.032-3.148-7.032-7.032s3.148-7.032 7.032-7.032h84.325c3.883 0 7.032 3.148 7.032 7.032z" fill="#fbd9a3"/></g><g><path d="m411.343 322.221h-63.296c-7.276 0-13.174-5.898-13.174-13.174v-63.296c0-7.276 5.898-13.174 13.174-13.174h63.296c7.276 0 13.174 5.898 13.174 13.174v63.296c0 7.276-5.898 13.174-13.174 13.174z" fill="#c4983d"/><g><g><path d="m377.084 247.744v19.596c0 .042 0 .094-.01.136-.063 4.053-3.363 7.312-7.437 7.312h-19.596c-4.116 0-7.458-3.332-7.458-7.448v-19.596c0-4.074 3.269-7.385 7.322-7.448.042-.01.094-.01.136-.01h19.596c4.115 0 7.447 3.343 7.447 7.458z" fill="#6052a3"/><path d="m377.084 247.744v19.596c0 .042 0 .094-.01.136-.042.01-.094.01-.136.01h-9.464c-9.714 0-17.58-7.876-17.58-17.58v-9.474c0-.042 0-.094.01-.136.042-.01.094-.01.136-.01h19.596c4.116 0 7.448 3.343 7.448 7.458z" fill="#57409b"/><path d="m368.014 264.121c-2.499 0-4.525-2.026-4.525-4.525v-11.18c0-2.499 2.026-4.525 4.525-4.525s4.525 2.026 4.525 4.525v11.18c0 2.499-2.026 4.525-4.525 4.525z" fill="#9175a7"/></g><g><path d="m416.808 247.744v19.596c0 .042 0 .094-.01.136-.063 4.053-3.363 7.312-7.437 7.312h-19.596c-4.116 0-7.458-3.332-7.458-7.448v-19.596c0-4.074 3.269-7.385 7.322-7.448.042-.01.094-.01.136-.01h19.596c4.115 0 7.447 3.343 7.447 7.458z" fill="#6052a3"/><path d="m416.808 247.744v19.596c0 .042 0 .094-.01.136-.042.01-.094.01-.136.01h-9.464c-9.714 0-17.58-7.876-17.58-17.58v-9.474c0-.042 0-.094.01-.136.042-.01.094-.01.136-.01h19.596c4.116 0 7.448 3.343 7.448 7.458z" fill="#57409b"/><path d="m407.738 264.121c-2.499 0-4.525-2.026-4.525-4.525v-11.18c0-2.499 2.026-4.525 4.525-4.525s4.525 2.026 4.525 4.525v11.18c0 2.499-2.026 4.525-4.525 4.525z" fill="#9175a7"/></g><g><path d="m377.084 287.468v19.596c0 .042 0 .094-.01.136-.063 4.053-3.363 7.312-7.437 7.312h-19.596c-4.116 0-7.458-3.332-7.458-7.448v-19.596c0-4.074 3.269-7.385 7.322-7.448.042-.01.094-.01.136-.01h19.596c4.115 0 7.447 3.343 7.447 7.458z" fill="#6052a3"/><path d="m377.084 287.468v19.596c0 .042 0 .094-.01.136-.042.01-.094.01-.136.01h-9.464c-9.714 0-17.58-7.876-17.58-17.58v-9.474c0-.042 0-.094.01-.136.042-.01.094-.01.136-.01h19.596c4.116 0 7.448 3.343 7.448 7.458z" fill="#57409b"/><path d="m368.014 303.845c-2.499 0-4.525-2.026-4.525-4.525v-11.18c0-2.499 2.026-4.525 4.525-4.525s4.525 2.026 4.525 4.525v11.18c0 2.499-2.026 4.525-4.525 4.525z" fill="#9175a7"/></g><g><path d="m416.808 287.468v19.596c0 .042 0 .094-.01.136-.063 4.053-3.363 7.312-7.437 7.312h-19.596c-4.116 0-7.458-3.332-7.458-7.448v-19.596c0-4.074 3.269-7.385 7.322-7.448.042-.01.094-.01.136-.01h19.596c4.115 0 7.447 3.343 7.447 7.458z" fill="#6052a3"/><path d="m416.808 287.468v19.596c0 .042 0 .094-.01.136-.042.01-.094.01-.136.01h-9.464c-9.714 0-17.58-7.876-17.58-17.58v-9.474c0-.042 0-.094.01-.136.042-.01.094-.01.136-.01h19.596c4.116 0 7.448 3.343 7.448 7.458z" fill="#57409b"/><path d="m407.738 303.845c-2.499 0-4.525-2.026-4.525-4.525v-11.18c0-2.499 2.026-4.525 4.525-4.525s4.525 2.026 4.525 4.525v11.18c0 2.499-2.026 4.525-4.525 4.525z" fill="#9175a7"/></g></g></g><g><path d="m489.996 242.369c0 2.501-.955 4.997-2.86 6.902-3.832 3.832-10.055 3.81-13.86-.05l-86.63-87.928c-3.821-3.882-10.083-3.882-13.904 0l-86.63 87.928c-1.911 1.938-4.434 2.91-6.952 2.91-2.501 0-5.003-.955-6.908-2.86-3.219-3.219-3.716-8.128-1.502-11.872.409-.69.911-1.342 1.502-1.933l100.556-100.55c3.81-3.816 9.994-3.81 13.804 0l100.523 100.55c.591.591 1.093 1.242 1.502 1.933.906 1.53 1.359 3.247 1.359 4.97z" fill="#e9465e"/><path d="m488.638 237.399c-.409.69-.911 1.342-1.502 1.933v.006c-3.832 3.832-10.055 3.804-13.86-.055l-86.63-87.928c-3.821-3.882-10.083-3.882-13.904 0l-86.63 87.928c-1.911 1.938-4.434 2.91-6.957 2.91-2.501 0-4.997-.95-6.902-2.855-.596-.596-1.093-1.248-1.502-1.938.409-.69.911-1.342 1.502-1.933l100.556-100.55c3.81-3.816 9.994-3.81 13.804 0l100.523 100.55c.59.591 1.093 1.242 1.502 1.932z" fill="#ee6781"/><g fill="#f789a1"><path d="m311.155 205.514-.285-.28c-2.33-2.287-2.347-6.035-.039-8.343l37.895-37.893c2.279-2.279 5.968-2.295 8.267-.036 2.316 2.275 2.346 5.997.068 8.31l-37.61 38.173c-2.273 2.306-5.985 2.337-8.296.069z"/><path d="m448.24 205.513.279-.274c2.336-2.289 2.355-6.045.042-8.358l-37.872-37.883c-2.28-2.28-5.97-2.3-8.274-.044-2.325 2.277-2.359 6.01-.074 8.329l37.593 38.156c2.275 2.311 5.99 2.343 8.306.074z"/></g></g></g><g><path d="m446.291 148.411v46.2l-18.547-18.553v-27.647c0-2.584 2.093-4.677 4.671-4.677h9.205c2.579.001 4.671 2.093 4.671 4.677z" fill="#c0405c"/><path d="m446.291 148.411v39.342l-7.471-7.476c-2.706-2.7-4.219-6.367-4.219-10.182v-21.684c0-2.584 2.093-4.677 4.671-4.677h2.347c2.58.001 4.672 2.093 4.672 4.677z" fill="#e9465e"/></g></g><g><g><path d="m177.927 144.118v220.165c0 4.706-2.618 8.787-6.469 10.883h-.008c-1.756.957-3.765 1.495-5.9 1.495h-92.605c-2.135 0-4.144-.538-5.9-1.495-3.86-2.096-6.477-6.177-6.477-10.883v-220.165c0-2.215.585-4.294 1.613-6.09 1.131-2.025 2.823-3.686 4.864-4.793 1.756-.957 3.765-1.495 5.9-1.495h92.604c2.135 0 4.144.538 5.9 1.495h.008c2.033 1.107 3.725 2.768 4.864 4.785 1.02 1.796 1.606 3.876 1.606 6.098z" fill="#ebd9ea"/><path d="m177.927 144.118v220.165c0 4.706-2.618 8.787-6.469 10.883h-.008c-3.86-2.096-6.477-6.177-6.477-10.883v-220.165c0-4.698 2.618-8.787 6.477-10.883h.008c3.851 2.097 6.469 6.186 6.469 10.883z" fill="#f9eaf9"/><path d="m73.522 144.118v220.165c0 4.706-2.618 8.787-6.477 10.883-3.86-2.096-6.477-6.177-6.477-10.883v-220.165c0-4.698 2.618-8.787 6.477-10.883 3.86 2.097 6.477 6.186 6.477 10.883z" fill="#c2aacf"/><path d="m108.891 131.74h20.715v190.413h-20.715z" fill="#decee5"/><g fill="#fff"><path d="m176.321 138.021c-2.222 4.033-6.517 6.77-11.444 6.77h-91.26c-3.598 0-6.865-1.463-9.23-3.82-.87-.87-1.613-1.859-2.206-2.942 1.131-2.025 2.823-3.686 4.864-4.793 1.756-.957 3.765-1.495 5.9-1.495h92.604c2.135 0 4.144.538 5.9 1.495h.008c2.033 1.107 3.725 2.768 4.864 4.785z"/><path d="m171.449 296.384c-3.577 0-6.477-2.9-6.477-6.477v-114.83c0-3.577 2.9-6.477 6.477-6.477s6.477 2.9 6.477 6.477v114.83c.001 3.577-2.899 6.477-6.477 6.477z"/></g></g><g><g><g><path d="m108.891 159.615v20.087c0 .043 0 .096-.011.139-.064 4.154-3.448 7.495-7.624 7.495h-20.086c-4.219 0-7.645-3.416-7.645-7.634v-20.087c0-4.176 3.351-7.57 7.506-7.634.043-.011.096-.011.139-.011h20.087c4.218.001 7.634 3.427 7.634 7.645z" fill="#c2aacf"/><path d="m103.31 162.784v13.747c0 .029 0 .066-.007.095-.044 2.843-2.359 5.129-5.217 5.129h-13.748c-2.887 0-5.232-2.337-5.232-5.225v-13.747c0-2.858 2.294-5.181 5.137-5.225.029-.007.066-.007.095-.007h13.747c2.887.001 5.225 2.346 5.225 5.233z" fill="#6052a3"/><path d="m103.31 162.784v13.747c0 .029 0 .066-.007.095-.029.007-.066.007-.095.007h-6.639c-6.815 0-12.332-5.525-12.332-12.332v-6.646c0-.029 0-.066.007-.095.029-.007.066-.007.095-.007h13.747c2.886-.001 5.224 2.344 5.224 5.231z" fill="#57409b"/><path d="m96.947 174.272c-1.753 0-3.174-1.421-3.174-3.174v-7.843c0-1.753 1.421-3.174 3.174-3.174s3.174 1.421 3.174 3.174v7.843c0 1.753-1.421 3.174-3.174 3.174z" fill="#9175a7"/></g><g><path d="m164.971 159.615v20.087c0 .043 0 .096-.011.139-.064 4.154-3.448 7.495-7.624 7.495h-20.086c-4.219 0-7.645-3.416-7.645-7.634v-20.087c0-4.176 3.351-7.57 7.506-7.634.043-.011.096-.011.139-.011h20.087c4.219.001 7.634 3.427 7.634 7.645z" fill="#c2aacf"/><path d="m159.39 162.784v13.747c0 .029 0 .066-.007.095-.044 2.843-2.359 5.129-5.217 5.129h-13.747c-2.887 0-5.232-2.337-5.232-5.225v-13.747c0-2.858 2.294-5.181 5.137-5.225.029-.007.066-.007.095-.007h13.747c2.886.001 5.224 2.346 5.224 5.233z" fill="#6052a3"/><path d="m159.39 162.784v13.747c0 .029 0 .066-.007.095-.029.007-.066.007-.095.007h-6.639c-6.815 0-12.332-5.525-12.332-12.332v-6.646c0-.029 0-.066.007-.095.029-.007.066-.007.095-.007h13.747c2.886-.001 5.224 2.344 5.224 5.231z" fill="#57409b"/><path d="m153.027 174.272c-1.753 0-3.174-1.421-3.174-3.174v-7.843c0-1.753 1.421-3.174 3.174-3.174s3.174 1.421 3.174 3.174v7.843c.001 1.753-1.421 3.174-3.174 3.174z" fill="#9175a7"/></g></g><g><g><path d="m108.891 202.161v20.087c0 .043 0 .096-.011.139-.064 4.154-3.448 7.495-7.624 7.495h-20.086c-4.219 0-7.645-3.416-7.645-7.634v-20.087c0-4.176 3.351-7.57 7.506-7.634.043-.011.096-.011.139-.011h20.087c4.218 0 7.634 3.426 7.634 7.645z" fill="#c2aacf"/><path d="m103.31 205.329v13.747c0 .029 0 .066-.007.095-.044 2.843-2.359 5.129-5.217 5.129h-13.748c-2.887 0-5.232-2.337-5.232-5.225v-13.747c0-2.858 2.294-5.181 5.137-5.225.029-.007.066-.007.095-.007h13.747c2.887.002 5.225 2.346 5.225 5.233z" fill="#6052a3"/><path d="m103.31 205.329v13.747c0 .029 0 .066-.007.095-.029.007-.066.007-.095.007h-6.639c-6.815 0-12.332-5.525-12.332-12.332v-6.646c0-.029 0-.066.007-.095.029-.007.066-.007.095-.007h13.747c2.886 0 5.224 2.344 5.224 5.231z" fill="#57409b"/><path d="m96.947 216.818c-1.753 0-3.174-1.421-3.174-3.174v-7.843c0-1.753 1.421-3.174 3.174-3.174s3.174 1.421 3.174 3.174v7.843c0 1.753-1.421 3.174-3.174 3.174z" fill="#9175a7"/></g><g><path d="m164.971 202.161v20.087c0 .043 0 .096-.011.139-.064 4.154-3.448 7.495-7.624 7.495h-20.086c-4.219 0-7.645-3.416-7.645-7.634v-20.087c0-4.176 3.351-7.57 7.506-7.634.043-.011.096-.011.139-.011h20.087c4.219 0 7.634 3.426 7.634 7.645z" fill="#c2aacf"/><path d="m159.39 205.329v13.747c0 .029 0 .066-.007.095-.044 2.843-2.359 5.129-5.217 5.129h-13.747c-2.887 0-5.232-2.337-5.232-5.225v-13.747c0-2.858 2.294-5.181 5.137-5.225.029-.007.066-.007.095-.007h13.747c2.886.002 5.224 2.346 5.224 5.233z" fill="#6052a3"/><path d="m159.39 205.329v13.747c0 .029 0 .066-.007.095-.029.007-.066.007-.095.007h-6.639c-6.815 0-12.332-5.525-12.332-12.332v-6.646c0-.029 0-.066.007-.095.029-.007.066-.007.095-.007h13.747c2.886 0 5.224 2.344 5.224 5.231z" fill="#57409b"/><path d="m153.027 216.818c-1.753 0-3.174-1.421-3.174-3.174v-7.843c0-1.753 1.421-3.174 3.174-3.174s3.174 1.421 3.174 3.174v7.843c.001 1.753-1.421 3.174-3.174 3.174z" fill="#9175a7"/></g></g><g><g><path d="m108.891 244.707v20.087c0 .043 0 .096-.011.139-.064 4.154-3.448 7.495-7.624 7.495h-20.086c-4.219 0-7.645-3.416-7.645-7.634v-20.087c0-4.176 3.351-7.57 7.506-7.634.043-.011.096-.011.139-.011h20.087c4.218 0 7.634 3.426 7.634 7.645z" fill="#c2aacf"/><path d="m103.31 247.875v13.747c0 .029 0 .066-.007.095-.044 2.843-2.359 5.129-5.217 5.129h-13.748c-2.887 0-5.232-2.337-5.232-5.225v-13.747c0-2.858 2.294-5.181 5.137-5.225.029-.007.066-.007.095-.007h13.747c2.887.001 5.225 2.346 5.225 5.233z" fill="#6052a3"/><path d="m103.31 247.875v13.747c0 .029 0 .066-.007.095-.029.007-.066.007-.095.007h-6.639c-6.815 0-12.332-5.525-12.332-12.332v-6.646c0-.029 0-.066.007-.095.029-.007.066-.007.095-.007h13.747c2.886-.001 5.224 2.344 5.224 5.231z" fill="#57409b"/><path d="m96.947 259.364c-1.753 0-3.174-1.421-3.174-3.174v-7.843c0-1.753 1.421-3.174 3.174-3.174s3.174 1.421 3.174 3.174v7.843c0 1.752-1.421 3.174-3.174 3.174z" fill="#9175a7"/></g><g><path d="m164.971 244.707v20.087c0 .043 0 .096-.011.139-.064 4.154-3.448 7.495-7.624 7.495h-20.086c-4.219 0-7.645-3.416-7.645-7.634v-20.087c0-4.176 3.351-7.57 7.506-7.634.043-.011.096-.011.139-.011h20.087c4.219 0 7.634 3.426 7.634 7.645z" fill="#c2aacf"/><path d="m159.39 247.875v13.747c0 .029 0 .066-.007.095-.044 2.843-2.359 5.129-5.217 5.129h-13.747c-2.887 0-5.232-2.337-5.232-5.225v-13.747c0-2.858 2.294-5.181 5.137-5.225.029-.007.066-.007.095-.007h13.747c2.886.001 5.224 2.346 5.224 5.233z" fill="#6052a3"/><path d="m159.39 247.875v13.747c0 .029 0 .066-.007.095-.029.007-.066.007-.095.007h-6.639c-6.815 0-12.332-5.525-12.332-12.332v-6.646c0-.029 0-.066.007-.095.029-.007.066-.007.095-.007h13.747c2.886-.001 5.224 2.344 5.224 5.231z" fill="#57409b"/><path d="m153.027 259.364c-1.753 0-3.174-1.421-3.174-3.174v-7.843c0-1.753 1.421-3.174 3.174-3.174s3.174 1.421 3.174 3.174v7.843c.001 1.752-1.421 3.174-3.174 3.174z" fill="#9175a7"/></g></g><g><g><path d="m108.891 287.252v20.087c0 .043 0 .096-.011.139-.064 4.154-3.448 7.495-7.624 7.495h-20.086c-4.219 0-7.645-3.416-7.645-7.634v-20.087c0-4.176 3.351-7.57 7.506-7.634.043-.011.096-.011.139-.011h20.087c4.218 0 7.634 3.427 7.634 7.645z" fill="#c2aacf"/><path d="m103.31 290.421v13.747c0 .029 0 .066-.007.095-.044 2.843-2.359 5.129-5.217 5.129h-13.748c-2.887 0-5.232-2.337-5.232-5.225v-13.747c0-2.858 2.294-5.181 5.137-5.225.029-.007.066-.007.095-.007h13.747c2.887.001 5.225 2.346 5.225 5.233z" fill="#6052a3"/><path d="m103.31 290.421v13.747c0 .029 0 .066-.007.095-.029.007-.066.007-.095.007h-6.639c-6.815 0-12.332-5.525-12.332-12.332v-6.646c0-.029 0-.066.007-.095.029-.007.066-.007.095-.007h13.747c2.886-.001 5.224 2.344 5.224 5.231z" fill="#57409b"/><path d="m96.947 301.909c-1.753 0-3.174-1.421-3.174-3.174v-7.843c0-1.753 1.421-3.174 3.174-3.174s3.174 1.421 3.174 3.174v7.843c0 1.753-1.421 3.174-3.174 3.174z" fill="#9175a7"/></g><g><path d="m164.971 287.252v20.087c0 .043 0 .096-.011.139-.064 4.154-3.448 7.495-7.624 7.495h-20.086c-4.219 0-7.645-3.416-7.645-7.634v-20.087c0-4.176 3.351-7.57 7.506-7.634.043-.011.096-.011.139-.011h20.087c4.219 0 7.634 3.427 7.634 7.645z" fill="#c2aacf"/><path d="m159.39 290.421v13.747c0 .029 0 .066-.007.095-.044 2.843-2.359 5.129-5.217 5.129h-13.747c-2.887 0-5.232-2.337-5.232-5.225v-13.747c0-2.858 2.294-5.181 5.137-5.225.029-.007.066-.007.095-.007h13.747c2.886.001 5.224 2.346 5.224 5.233z" fill="#6052a3"/><path d="m159.39 290.421v13.747c0 .029 0 .066-.007.095-.029.007-.066.007-.095.007h-6.639c-6.815 0-12.332-5.525-12.332-12.332v-6.646c0-.029 0-.066.007-.095.029-.007.066-.007.095-.007h13.747c2.886-.001 5.224 2.344 5.224 5.231z" fill="#57409b"/><path d="m153.027 301.909c-1.753 0-3.174-1.421-3.174-3.174v-7.843c0-1.753 1.421-3.174 3.174-3.174s3.174 1.421 3.174 3.174v7.843c.001 1.753-1.421 3.174-3.174 3.174z" fill="#9175a7"/></g></g></g><g><g><path d="m152.447 373.062h-66.403c-1.988 0-3.599 1.611-3.599 3.599s1.611 3.599 3.599 3.599h66.403c1.988 0 3.599-1.611 3.599-3.599s-1.611-3.599-3.599-3.599z" fill="#f9eaf9"/><path d="m140.54 365.865h-42.584c-1.988 0-3.599 1.611-3.599 3.599s1.611 3.599 3.599 3.599h42.584c1.988 0 3.599-1.611 3.599-3.599s-1.611-3.599-3.599-3.599z" fill="#fff"/></g><g><path d="m103.31 327.633h31.877v38.232h-31.877z" fill="#c2aacf"/><path d="m108.891 327.633h20.715v38.232h-20.715z" fill="#6052a3"/><path d="m118.063 327.633h2.371v38.232h-2.371z" fill="#57409b"/></g><g><g><g><path d="m146.9 327.634h5.544v45.428h-5.544z" fill="#9175a7"/><path d="m152.444 327.634v42.644c-1.985-.111-3.551-1.748-3.551-3.765v-38.88h3.551z" fill="#a583bb"/><path d="m150.669 361.49c-.981 0-1.776-.795-1.776-1.776v-16.633c0-.981.795-1.776 1.776-1.776s1.776.795 1.776 1.776v16.633c-.001.981-.796 1.776-1.776 1.776z" fill="#c2aacf"/></g><g><path d="m86.044 327.634h5.544v45.428h-5.544z" fill="#9175a7"/><path d="m91.588 327.634v42.644c-1.985-.111-3.551-1.748-3.551-3.765v-38.88h3.551z" fill="#a583bb"/><path d="m89.813 361.49c-.981 0-1.776-.795-1.776-1.776v-16.633c0-.981.795-1.776 1.776-1.776s1.776.795 1.776 1.776v16.633c-.001.981-.796 1.776-1.776 1.776z" fill="#c2aacf"/></g></g><g><path d="m155.821 326.234v7.078c0 2.436-3.124 3.448-4.548 1.479-1.155-1.598-2.294-3.203-4.603-3.203-4.571 0-4.571 6.327-9.143 6.327-4.571 0-4.571-6.327-9.143-6.327-4.571 0-4.571 6.327-9.143 6.327s-4.571-6.327-9.143-6.327-4.571 6.327-9.143 6.327c-4.571 0-4.571-6.327-9.143-6.327-2.301 0-3.448 1.605-4.595 3.195-1.432 1.977-4.548.957-4.548-1.479v-7.07c0-2.254 1.827-4.081 4.081-4.081h64.987c2.258.001 4.084 1.827 4.084 4.081z" fill="#c0405c"/><path d="m155.821 326.234v3.749c0 2.436-3.124 3.456-4.548 1.479-1.155-1.59-2.294-3.203-4.603-3.203-4.571 0-4.571 6.327-9.143 6.327-4.571 0-4.571-6.327-9.143-6.327-4.571 0-4.571 6.327-9.143 6.327s-4.571-6.327-9.143-6.327-4.571 6.327-9.143 6.327c-4.571 0-4.571-6.327-9.143-6.327-2.301 0-3.448 1.605-4.595 3.195-1.432 1.977-4.548.957-4.548-1.479v-3.741c0-2.254 1.827-4.081 4.081-4.081h64.987c2.258.001 4.084 1.827 4.084 4.081z" fill="#e9465e"/><path d="m151.18 322.154h-63.863c-.891 0-1.613.722-1.613 1.613s.722 1.613 1.613 1.613h63.863c.891 0 1.613-.722 1.613-1.613s-.722-1.613-1.613-1.613z" fill="#ee6781"/></g></g></g></g></g><g><g><path d="m212.562 466.105c.491-.286.935-.632 1.327-1.024 1.212-1.213 1.918-2.871 1.918-4.631l-.001-16.661v-.049h100.794c18.679 0 33.876-15.196 33.876-33.876 0-3.59-2.91-6.5-6.5-6.5s-6.5 2.91-6.5 6.5c0 11.511-9.365 20.876-20.876 20.876h-100.793v-.049-16.662c0-2.328-1.235-4.48-3.245-5.654-2.009-1.174-4.491-1.193-6.518-.05l-41.185 23.211c-2.062 1.162-3.334 3.342-3.334 5.706s1.274 4.544 3.333 5.705l41.186 23.211c2.027 1.141 4.509 1.122 6.518-.053z" fill="#9acdae"/><g><path d="m204.81 458.157c1.808-3.132.735-7.138-2.397-8.946l-19.747-11.401c-3.132-1.808-7.138-.735-8.946 2.397s-.735 7.138 2.397 8.946l19.747 11.401c3.132 1.808 7.138.735 8.946-2.397z" fill="#faefdc"/></g></g><g><path d="m174.524 102.136c0-11.511 9.365-20.876 20.876-20.876h100.793v.049 16.661c0 1.76.706 3.419 1.918 4.631.392.392.836.738 1.327 1.024 2.009 1.175 4.492 1.193 6.519.051l41.186-23.211c2.059-1.161 3.333-3.341 3.333-5.705s-1.272-4.544-3.334-5.706l-41.185-23.211c-2.027-1.143-4.509-1.124-6.518.05-2.011 1.175-3.245 3.327-3.245 5.654l-.001 16.662v.049h-100.793c-18.68 0-33.876 15.197-33.876 33.876 0 3.59 2.91 6.5 6.5 6.5s6.5-2.908 6.5-6.498z" fill="#9acdae"/><g><path d="m307.19 95.676c-1.808-3.132-.735-7.138 2.397-8.946l19.747-11.401c3.132-1.808 7.138-.735 8.946 2.397s.735 7.138-2.397 8.946l-19.747 11.401c-3.132 1.809-7.138.735-8.946-2.397z" fill="#faefdc"/></g></g></g></g></g></svg>