<svg id="Layer_1" height="512" viewBox="0 0 512 512" width="512" xmlns="http://www.w3.org/2000/svg" data-name="Layer 1"><path d="m489.94 365.55v82.61a41.869 41.869 0 0 1 -41.9 41.84h-82.7z" fill="#8aafc4"/><path d="m22 142v306.16a41.92 41.92 0 0 0 41.96 41.84h301.38l124.66-124.45v-223.55z" fill="#d4e1f4"/><path d="m427.77 83.65a17.58 17.58 0 1 0 6.28-1.16 17.556 17.556 0 0 0 -6.28 1.16zm-146.62 0a17.58 17.58 0 1 0 6.27-1.16 17.555 17.555 0 0 0 -6.27 1.16zm73.31 0a17.58 17.58 0 1 0 6.27-1.16 17.565 17.565 0 0 0 -6.27 1.16zm-293.25 0a17.58 17.58 0 1 0 6.27-1.16 17.555 17.555 0 0 0 -6.27 1.16zm73.31 0a17.58 17.58 0 1 0 6.27-1.16 17.565 17.565 0 0 0 -6.27 1.16zm60.79-27.07h294.63v85.63h-467.88v-85.63zm12.52 27.07a17.588 17.588 0 1 0 6.28-1.16 17.556 17.556 0 0 0 -6.28 1.16z" fill="#5fa8ed"/><path d="m489.94 365.55-124.6 124.45v-93.34a31.127 31.127 0 0 1 31.15-31.11z" fill="#b3d1e7"/><path d="m354 355.58v-17.58h-197v17.58l22.73 3.95a78.883 78.883 0 0 0 7.06 17.5l-13.7 19.12 24.96 24.92 19.18-13.54c5.49 3.08 11.37 4.59 17.56 6.32l3.95 22.15h35.39l3.97-22.15a78.523 78.523 0 0 0 17.57-6.79l19.21 13.77 25.02-24.8-13.59-19.06c3.09-5.47 4.16-11.3 5.89-17.47z" fill="#5fcda4"/><path d="m316.42 337.76v.2a60.016 60.016 0 0 1 -120.03 0v-.2h27.61v.2a32.405 32.405 0 0 0 64.81 0v-.2z" fill="#4ca987"/><path d="m357.85 306.75h-203.7a15.505 15.505 0 1 0 0 31.01h203.7a15.558 15.558 0 0 0 11-4.54 15.493 15.493 0 0 0 -11-26.47z" fill="#e75163"/><path d="m273.31 193.72h-34.62a83.156 83.156 0 0 0 -83.29 83.02v30.01h201.2v-30.01a83.156 83.156 0 0 0 -83.29-83.02z" fill="#ff5576"/><path d="m274.56 278.91h-37.12a8.521 8.521 0 0 0 -8.53 8.51v19.33h54.18v-19.33a8.521 8.521 0 0 0 -8.53-8.51z" fill="#ad2a34"/><path d="m54 448.16v-306.16h-32v306.16a41.92 41.92 0 0 0 41.96 41.84h32a41.92 41.92 0 0 1 -41.96-41.84z" fill="#bdc9d6"/><path d="m54.06 111.4v-22.683a17.51 17.51 0 0 0 0 22.684z" fill="none"/><path d="m49.89 100.06a17.479 17.479 0 0 1 4.17-11.343v-32.137h-32v85.63h32v-30.81a17.472 17.472 0 0 1 -4.17-11.34z" fill="#599bd1"/><path d="m170.59 322.26a15.535 15.535 0 0 1 15.56-15.51h-32a15.505 15.505 0 1 0 0 31.01h32a15.533 15.533 0 0 1 -15.56-15.5z" fill="#cc465c"/><path d="m270.69 193.72h-32a83.156 83.156 0 0 0 -83.29 83.02v30.01h32v-30.01a83.156 83.156 0 0 1 83.29-83.02z" fill="#e04c70"/><path d="m273.06 193.72v85.19h-34.12v-85.69a17.06 17.06 0 0 1 34.12 0z" fill="#de3c44"/><g fill="#284268"><path d="m489.937 51h-20.774c-1.641-20-14.413-34.584-29.881-34.584s-28.24 14.584-29.882 34.584h-13.55c-1.641-20-14.413-34.584-29.881-34.584s-28.24 14.584-29.88 34.584h-13.552c-1.641-20-14.413-34.584-29.881-34.584s-28.24 14.584-29.881 34.584h-13.55c-1.641-20-14.413-34.584-29.881-34.584s-28.244 14.584-29.881 34.584h-13.552c-1.64-20-14.413-34.584-29.881-34.584s-28.24 14.584-29.881 34.584h-13.549c-1.641-20-14.413-34.584-29.881-34.584s-28.241 14.584-29.882 34.584h-20.774c-3.313 0-6.063 2.271-6.063 5.584v391.572a47.977 47.977 0 0 0 47.956 47.844h384.088a47.977 47.977 0 0 0 47.956-47.844v-391.572c0-3.313-2.75-5.584-6.063-5.584zm-50.655-22.584c8.818 0 16.409 9.584 17.824 22.584h-35.648c1.415-13 9.002-22.584 17.824-22.584zm-73.312 0c8.822 0 16.409 9.584 17.824 22.584h-35.648c1.415-13 9.001-22.584 17.824-22.584zm-73.314 0c8.823 0 16.409 9.584 17.824 22.584h-35.648c1.415-13 9.002-22.584 17.824-22.584zm-73.312 0c8.822 0 16.409 9.584 17.824 22.584h-35.648c1.415-13 9.001-22.584 17.824-22.584zm-73.314 0c8.823 0 16.409 9.584 17.824 22.584h-35.648c1.415-13 9.002-22.584 17.824-22.584zm-73.312 0c8.822 0 16.409 9.584 17.824 22.584h-35.648c1.415-13 9.006-22.584 17.824-22.584zm411.282 419.74a35.964 35.964 0 0 1 -35.956 35.844h-68.21l104.166-103.98zm-113 27.371v-78.867c0-13.848 11.619-24.66 25.486-24.66h78.953zm113-339.527h-364a6 6 0 0 0 0 12h364v212h-87.514c-20.486 0-37.486 16.2-37.486 36.66v87.34h-295.044a35.964 35.964 0 0 1 -35.956-35.844v-300.156h50a6 6 0 0 0 0-12h-50v-73h15.259a45.773 45.773 0 0 0 8.449 19.762 23.276 23.276 0 0 0 -7.816 17.4 23.589 23.589 0 1 0 23.588-23.655 23.708 23.708 0 0 0 -4.789.69c-3.386-3.435-5.991-9.197-7.231-14.197h61.111a45.79 45.79 0 0 0 8.45 19.763 23.276 23.276 0 0 0 -7.816 17.4 24.726 24.726 0 1 0 18.8-22.968c-3.388-3.435-5.989-9.2-7.233-14.2h61.113a45.773 45.773 0 0 0 8.449 19.762 23.28 23.28 0 0 0 -7.816 17.4 24.726 24.726 0 1 0 18.8-22.968c-3.387-3.435-5.989-9.2-7.232-14.2h61.114a45.79 45.79 0 0 0 8.45 19.763 23.276 23.276 0 0 0 -7.816 17.4 24.726 24.726 0 1 0 18.8-22.968c-3.388-3.435-5.989-9.2-7.233-14.2h61.113a45.773 45.773 0 0 0 8.449 19.762 23.276 23.276 0 0 0 -7.816 17.4 24.726 24.726 0 1 0 18.8-22.968c-3.387-3.435-5.989-9.2-7.232-14.2h61.111a45.79 45.79 0 0 0 8.45 19.763 23.276 23.276 0 0 0 -7.816 17.4 24.726 24.726 0 1 0 18.8-22.968c-3.388-3.435-5.989-9.2-7.233-14.2h61.973zm-428.108-35.938a11.556 11.556 0 0 1 5.036-9.532 24.233 24.233 0 0 0 11.79 3.114 23.958 23.958 0 0 0 4.132-.363 11.574 11.574 0 1 1 -20.958 6.781zm73.313 0a11.554 11.554 0 0 1 5.035-9.531 24.249 24.249 0 0 0 11.79 3.113 23.952 23.952 0 0 0 4.133-.363 11.477 11.477 0 0 1 2.22 6.781 11.589 11.589 0 0 1 -23.178 0zm73.313 0a11.556 11.556 0 0 1 5.036-9.532 24.233 24.233 0 0 0 11.79 3.114 23.969 23.969 0 0 0 4.133-.363 11.574 11.574 0 1 1 -20.959 6.781zm73.313 0a11.554 11.554 0 0 1 5.035-9.531 24.249 24.249 0 0 0 11.79 3.113 23.952 23.952 0 0 0 4.133-.363 11.477 11.477 0 0 1 2.22 6.781 11.589 11.589 0 0 1 -23.178 0zm73.313 0a11.556 11.556 0 0 1 5.036-9.532 24.233 24.233 0 0 0 11.79 3.114 23.969 23.969 0 0 0 4.133-.363 11.574 11.574 0 1 1 -20.959 6.781zm73.313 0a11.554 11.554 0 0 1 5.035-9.531 24.249 24.249 0 0 0 11.79 3.113 23.952 23.952 0 0 0 4.133-.363 11.477 11.477 0 0 1 2.22 6.781 11.589 11.589 0 0 1 -23.178 0z"/><path d="m55 168.352a6 6 0 0 0 -6 6v5a6 6 0 0 0 12 0v-5a6 6 0 0 0 -6-6z"/><path d="m55 194.945a6 6 0 0 0 -6 6v85.274a6 6 0 0 0 12 0v-85.274a6 6 0 0 0 -6-6z"/><path d="m151 343.505v12.073a6 6 0 0 0 4.974 5.911l19.079 3.314a84.109 84.109 0 0 0 4.7 11.744l-11.543 16.107a6 6 0 0 0 .639 7.743l24.966 24.917a6 6 0 0 0 7.7.655l16.234-11.46a81.362 81.362 0 0 0 11.8 4.108l3.29 18.437a6 6 0 0 0 5.904 4.946h35.389a6 6 0 0 0 5.906-4.942l3.31-18.485a83.613 83.613 0 0 0 11.814-4.493l16.22 11.629a6 6 0 0 0 7.72-.614l25.023-24.8a6 6 0 0 0 .661-7.745l-11.508-16.138a75.529 75.529 0 0 0 3.684-11.486c.017-.066.033-.131.051-.2l18.049-3.246a6 6 0 0 0 4.938-5.902v-11.926a21.726 21.726 0 0 0 19.607-21.4 22.019 22.019 0 0 0 -16.607-20.958v-24.552c0-47.377-37.512-86.224-84.377-88.875a23.29 23.29 0 0 0 -45.2 0c-46.861 2.651-84.423 41.498-84.423 88.875v24.552a22.019 22.019 0 0 0 -16.607 20.962 21.711 21.711 0 0 0 18.607 21.249zm197 7.056-16.857 3.031a6 6 0 0 0 -4.713 4.281c-.382 1.354-.732 2.693-1.078 4.016-1.194 4.565-2.224 8.507-4.27 12.126a6 6 0 0 0 .339 6.435l10.633 14.912-17.799 17.638-15.088-10.817a6 6 0 0 0 -6.43-.358 73.591 73.591 0 0 1 -16.252 6.243 6 6 0 0 0 -4.294 4.722l-3.081 17.21h-25.342l-3.068-17.2a6 6 0 0 0 -4.294-4.726l-1.278-.355c-5.389-1.5-10.479-2.909-14.961-5.421a6 6 0 0 0 -6.393.333l-15.052 10.625-17.789-17.756 10.739-14.982a6 6 0 0 0 .347-6.448 72.349 72.349 0 0 1 -6.511-16.172 6 6 0 0 0 -4.748-4.286l-17.76-3.082v-6.53h27.659c2.958 33 31.306 60 65.744 60s62.786-27 65.744-60h25.853zm-91.6 25.939a38.772 38.772 0 0 0 37.968-32.5h15.744a54.049 54.049 0 0 1 -107.418 0h15.744a38.772 38.772 0 0 0 37.962 32.5zm-25.717-32.5h51.441c-2.7 11-13.205 20.5-25.721 20.5s-23.017-9.5-25.72-20.5zm48.317-144.047c40 2.944 72 36.247 72 76.789v24.258h-62v-13.58a14.271 14.271 0 0 0 -10-13.789zm-34-6.736a11 11 0 1 1 22 0v79.783h-22zm-10 94.2a2.372 2.372 0 0 1 2.443-2.42h37.114a2.372 2.372 0 0 1 2.443 2.423v13.58h-42zm-74-10.678c0-40.542 32-73.845 72-76.789v73.678a14.271 14.271 0 0 0 -10 13.789v13.583h-62zm-6.853 36.261h203.706a9.5 9.5 0 1 1 0 19h-203.706a9.5 9.5 0 1 1 0-19z"/></g></svg>