<svg id="Icons" enable-background="new 0 0 512 512" height="512" viewBox="0 0 512 512" width="512" xmlns="http://www.w3.org/2000/svg"><g><circle cx="256" cy="256" fill="#e9465e" r="256"/><g id="Speech-bubble_2_"><path d="m301.724 306.068c4.569 0 9.045-2.231 11.734-6.339l45.178-69.045c4.235-6.473 2.422-15.155-4.052-19.39-6.473-4.236-15.153-2.421-19.39 4.052l-45.178 69.045c-4.235 6.473-2.422 15.155 4.052 19.39 2.365 1.547 5.026 2.287 7.656 2.287z" fill="#ebd9ea"/><path d="m480.76 133.36v57.7c0 12.34-4.18 23.69-11.2 32.74-9.77 12.58-25.04 20.67-42.2 20.67h-135.29c-17.16 0-32.43-8.09-42.19-20.67-7.03-9.05-11.21-20.4-11.21-32.74v-87.48c0-12.34 4.18-23.69 11.21-32.73 9.76-12.58 25.03-20.67 42.19-20.67h116.18c18.93 14.02 35.85 30.59 50.26 49.21 8.28 10.68 15.73 22.04 22.25 33.97z" fill="#ebd9ea"/><path d="m480.76 133.36v57.7c0 12.34-4.18 23.69-11.2 32.74-7.03-9.05-11.21-20.4-11.21-32.74v-87.48c0-1.41.05-2.81.16-4.19 8.28 10.68 15.73 22.04 22.25 33.97z" fill="#fff"/><path d="m261.083 103.579v87.48c0 12.34-4.18 23.69-11.2 32.74-7.03-9.05-11.21-20.4-11.21-32.74v-87.48c0-12.34 4.18-23.69 11.21-32.73 7.02 9.04 11.2 20.39 11.2 32.73z" fill="#c1b7d3"/></g><g><g><path d="m422.613 118.591v68.992c0 2.33-.624 4.516-1.713 6.397-1.417 2.458-3.635 4.404-6.293 5.468-1.473.6-3.091.929-4.78.929h-100.21c-1.697 0-3.315-.328-4.788-.929-2.658-1.073-4.876-3.01-6.293-5.468-1.089-1.882-1.713-4.067-1.713-6.397v-68.992c0-5.372 3.307-9.976 8.007-11.866 1.473-.6 3.091-.929 4.788-.929h100.21c1.689 0 3.307.328 4.78.929 4.69 1.889 8.005 6.485 8.005 11.866z" fill="#d48d77"/><path d="m312.835 118.591v68.992c0 5.38-3.315 9.976-8.007 11.866-4.7-1.89-8.007-6.493-8.007-11.866v-68.992c0-5.372 3.307-9.976 8.007-11.866 4.693 1.889 8.007 6.485 8.007 11.866z" fill="#c17e62"/><path d="m422.613 118.591v68.992c0 2.33-.624 4.516-1.713 6.397-1.417 2.458-3.635 4.404-6.293 5.468-2.658-1.073-4.876-3.01-6.293-5.468-1.089-1.882-1.713-4.067-1.713-6.397v-68.992c0-5.372 3.307-9.976 8.007-11.866 4.69 1.889 8.005 6.485 8.005 11.866z" fill="#eea47d"/><path d="m420.9 193.98c-2.21 3.827-6.341 6.397-11.073 6.397h-100.21c-1.697 0-3.315-.328-4.788-.929-2.658-1.073-4.876-3.01-6.293-5.468 1.417-2.458 3.635-4.396 6.293-5.468 1.473-.6 3.091-.929 4.788-.929h100.21c4.731 0 8.863 2.57 11.073 6.397z" fill="#a26d5a"/></g><g><path d="m407.178 158.649h-94.92c-8.525 0-15.435-6.911-15.435-15.435v-7.073h125.791v7.073c-.001 8.525-6.912 15.435-15.436 15.435z" fill="#a26d5a"/><path d="m422.613 118.591v21.185c0 5.565-4.516 10.08-10.08 10.08h-105.63c-5.565 0-10.08-4.516-10.08-10.08v-21.185c0-5.372 3.307-9.976 8.007-11.866 1.473-.6 3.091-.929 4.788-.929h100.21c1.689 0 3.307.328 4.78.929 4.69 1.889 8.005 6.485 8.005 11.866z" fill="#c17e62"/><path d="m312.835 118.591v31.266h-5.933c-5.565 0-10.08-4.516-10.08-10.08v-21.185c0-5.372 3.307-9.976 8.007-11.866 4.692 1.888 8.006 6.484 8.006 11.865z" fill="#a26d5a"/><path d="m422.613 118.591v21.185c0 5.565-4.516 10.08-10.08 10.08h-5.933v-31.266c0-5.372 3.307-9.976 8.007-11.866 4.691 1.89 8.006 6.486 8.006 11.867z" fill="#d48d77"/><path d="m393.142 112.534h-66.849c-3.874 0-7.014 3.14-7.014 7.014s3.14 7.014 7.014 7.014h66.849c3.874 0 7.014-3.14 7.014-7.014s-3.14-7.014-7.014-7.014z" fill="#d48d77"/><path d="m389.396 121.542h-42.339c-2.488 0-4.504-2.017-4.504-4.504 0-2.488 2.017-4.504 4.504-4.504h42.339c2.488 0 4.504 2.017 4.504 4.504 0 2.488-2.016 4.504-4.504 4.504z" fill="#eea47d"/></g><g><g><path d="m329.625 137.206c-.905-.673-2.026-1.065-3.243-1.065h-8.071c-1.209 0-2.33.392-3.235 1.065-1.361.985-2.242 2.594-2.242 4.412v16.477c0 1.818.881 3.427 2.242 4.412.905.673 2.026 1.065 3.235 1.065h8.071c1.217 0 2.338-.392 3.243-1.065 1.353-.993 2.234-2.602 2.234-4.412v-16.477c0-1.81-.881-3.419-2.234-4.412zm-2.24 18.253c0 1.762-1.428 3.191-3.19 3.191h-3.691c-1.762 0-3.19-1.428-3.19-3.191v-11.205c0-1.762 1.428-3.19 3.19-3.19h3.691c1.762 0 3.19 1.428 3.19 3.19z" fill="#f9c744"/><path d="m331.859 141.617v16.477c0 1.809-.881 3.419-2.234 4.412-1.361-.993-2.242-2.602-2.242-4.412v-16.477c0-1.809.881-3.419 2.242-4.412 1.353.994 2.234 2.603 2.234 4.412z" fill="#fad98f"/><path d="m317.311 141.617v16.477c0 1.809-.881 3.419-2.234 4.412-1.361-.985-2.242-2.594-2.242-4.412v-16.477c0-1.818.881-3.427 2.242-4.412 1.353.994 2.234 2.603 2.234 4.412z" fill="#f39e22"/><path d="m329.625 137.206c-.905-.673-2.026-1.065-3.243-1.065h-5.148c.293 1.803.983 3.47 1.967 4.922h.994c1.762 0 3.19 1.428 3.19 3.19v.668c1.355.763 2.864 1.286 4.474 1.492v-4.796c0-1.809-.881-3.418-2.234-4.411z" fill="#faefdc"/></g><g><path d="m404.366 137.206c-.905-.673-2.026-1.065-3.243-1.065h-8.071c-1.209 0-2.33.392-3.235 1.065-1.361.985-2.242 2.594-2.242 4.412v16.477c0 1.818.881 3.427 2.242 4.412.905.673 2.026 1.065 3.235 1.065h8.071c1.217 0 2.338-.392 3.243-1.065 1.353-.993 2.234-2.602 2.234-4.412v-16.477c0-1.81-.881-3.419-2.234-4.412zm-2.24 18.253c0 1.762-1.428 3.191-3.191 3.191h-3.691c-1.762 0-3.19-1.428-3.19-3.191v-11.205c0-1.762 1.428-3.19 3.19-3.19h3.691c1.762 0 3.191 1.428 3.191 3.19z" fill="#f9c744"/><path d="m406.6 141.617v16.477c0 1.809-.881 3.419-2.234 4.412-1.361-.993-2.242-2.602-2.242-4.412v-16.477c0-1.809.881-3.419 2.242-4.412 1.353.994 2.234 2.603 2.234 4.412z" fill="#fad98f"/><path d="m392.052 141.617v16.477c0 1.809-.881 3.419-2.234 4.412-1.361-.985-2.242-2.594-2.242-4.412v-16.477c0-1.818.881-3.427 2.242-4.412 1.353.994 2.234 2.603 2.234 4.412z" fill="#f39e22"/><path d="m404.366 137.206c-.905-.673-2.026-1.065-3.243-1.065h-5.148c.293 1.803.983 3.47 1.967 4.922h.994c1.762 0 3.191 1.428 3.191 3.19v.668c1.355.763 2.864 1.286 4.474 1.492v-4.796c-.001-1.809-.882-3.418-2.235-4.411z" fill="#faefdc"/></g></g><g><path d="m387.576 93.842v11.954h-9.6v-7.606c0-4.211-3.419-7.63-7.638-7.63h-21.233c-4.219 0-7.638 3.419-7.638 7.63v7.606h-9.6v-11.954c0-1.257.2-2.466.56-3.595 1.521-4.74 5.965-8.175 11.209-8.175h32.17c5.244 0 9.688 3.435 11.209 8.175.361 1.129.561 2.338.561 3.595z" fill="#a26d5a"/><path d="m387.016 90.247c-1.281 4.564-4.66 8.239-9.039 9.928v-1.985c0-4.211-3.419-7.63-7.638-7.63h-21.233c-4.219 0-7.638 3.419-7.638 7.63v1.986c-1.97-.761-3.739-1.922-5.204-3.387-1.793-1.793-3.131-4.035-3.835-6.541 1.521-4.74 5.965-8.175 11.209-8.175h32.17c5.243 0 9.687 3.435 11.208 8.174z" fill="#c17e62"/><path d="m375.61 90.56h-24.684c-2.294 0-4.153-1.859-4.153-4.153v-.181c0-2.294 1.859-4.153 4.153-4.153h24.684c2.294 0 4.153 1.859 4.153 4.153v.181c0 2.293-1.859 4.153-4.153 4.153z" fill="#d48d77"/></g></g><g><g><g><path d="m170.94 160.323 125.95 218.152c6.34 10.981 2.581 25.01-8.392 31.345l-104.971 60.605c-2.685 1.55-5.558 2.493-8.443 2.877-8.934 1.186-18.109-2.985-22.899-11.282l-125.949-218.152c-4.785-8.288-3.81-18.319 1.684-25.463 1.775-2.306 4.028-4.323 6.713-5.873l104.971-60.605c10.972-6.335 25.001-2.576 31.336 8.396z" fill="#334353"/><path d="m170.94 160.323 114.965 199.125c-87.858-14.735-168.709-67.152-216.734-150.334-2.4-4.157-4.69-8.343-6.869-12.558l77.301-44.63c10.973-6.334 25.002-2.575 31.337 8.397z" fill="#3e4e60"/><path d="m42.611 226.353 132.93 230.242c3.11 5.387 2.736 11.838-.458 16.707-8.934 1.186-18.109-2.986-22.899-11.282l-125.949-218.152c-4.785-8.288-3.81-18.319 1.684-25.463 5.813-.331 11.582 2.561 14.692 7.948z" fill="#2e3140"/><g fill="#3f5d77"><circle cx="235.843" cy="416.89" r="15.001"/><path d="m145.368 170.619-59.473 34.337c-4.561 2.633-10.392 1.07-13.025-3.49-2.633-4.561-1.07-10.392 3.49-13.025l59.473-34.337c4.561-2.633 10.392-1.07 13.025 3.49 2.634 4.56 1.071 10.392-3.49 13.025z"/></g></g><g><g><path d="m52.769 270.886 26.97 46.714c.869 1.504.352 3.433-1.153 4.302l-3.661 2.114c-4.343 2.507-9.884 1.023-12.387-3.313l-21.057-36.471c-2.503-4.336-1.023-9.884 3.32-12.392l3.661-2.114c1.506-.869 3.435-.352 4.307 1.16z" fill="#334353"/><path d="m52.769 270.886 17.081 29.586c.873 1.512.356 3.441-1.149 4.309l-3.661 2.114c-4.343 2.507-9.888 1.015-12.392-3.32l-11.168-19.343c-2.503-4.336-1.023-9.884 3.32-12.392l3.661-2.114c1.507-.869 3.436-.352 4.308 1.16z" fill="#3e4e60"/></g><g><path d="m183.883 195.187 11.97 20.733c.869 1.504 2.798 2.021 4.302 1.153l3.661-2.114c4.343-2.507 5.828-8.049 3.325-12.384l-6.057-10.49c-2.503-4.336-8.049-5.828-12.392-3.32l-3.661 2.114c-1.504.867-2.021 2.796-1.148 4.308z" fill="#334353"/><path d="m183.883 195.187 7.081 12.265c.873 1.512 2.802 2.029 4.306 1.16l3.661-2.114c4.343-2.507 5.824-8.056 3.32-12.392l-1.168-2.023c-2.503-4.336-8.049-5.828-12.392-3.32l-3.661 2.114c-1.503.869-2.02 2.798-1.147 4.31z" fill="#3e4e60"/></g><g><path d="m206.445 234.265 11.97 20.733c.869 1.504 2.798 2.021 4.302 1.153l3.661-2.114c4.343-2.507 5.828-8.049 3.325-12.384l-6.057-10.49c-2.503-4.336-8.049-5.828-12.392-3.32l-3.661 2.114c-1.504.868-2.021 2.797-1.148 4.308z" fill="#334353"/><path d="m206.445 234.265 7.081 12.265c.873 1.512 2.802 2.029 4.306 1.16l3.661-2.114c4.343-2.507 5.824-8.056 3.32-12.392l-1.168-2.023c-2.503-4.336-8.049-5.828-12.392-3.32l-3.661 2.114c-1.503.87-2.02 2.799-1.147 4.31z" fill="#3e4e60"/></g></g><g><path d="m96.282 185.658h144.15v228.68h-144.15z" fill="#22bce0" transform="matrix(.866 -.5 .5 .866 -127.444 124.37)"/><path d="m173.605 164.939 112.3 194.509c-83.586-14.015-160.814-62.138-209.477-138.404z" fill="#4fcae8"/></g></g><g><g><g><path d="m169.289 324.235c-7.181-2.02-13.157-5.308-18.671-9.463-8.531-6.427-15.684-14.114-20.752-23.568-6.109-11.396-9.23-23.576-8.873-36.552.179-6.51 1.475-12.78 4.831-18.472 2.114-3.586 4.926-6.503 8.586-8.554 3.835-2.148 8.431-.921 10.639 2.869 2.527 4.337 5.04 8.683 7.542 13.035 2.209 3.842 1.036 8.47-2.753 10.765-2.339 1.417-4.746 2.723-7.084 4.142-3.789 2.299-4.976 6.94-2.773 10.763 5.254 9.115 10.514 18.226 15.789 27.329 2.239 3.864 6.876 5.136 10.779 2.963 2.258-1.257 4.479-2.583 6.726-3.862 4.227-2.407 8.779-1.124 11.194 3.111 2.383 4.178 4.825 8.322 7.194 12.507 2.4 4.241 1.079 8.821-3.164 11.178-4.911 2.727-10.173 3.29-15.64 2.505-1.365-.195-2.712-.526-3.57-.696z" fill="#fff"/></g></g><g><circle cx="181.059" cy="376.441" fill="#528f66" r="20.029"/><circle cx="228.205" cy="349.221" fill="#e9465e" r="20.029"/></g></g></g></g></svg>