<svg id="Icons" enable-background="new 0 0 512 512" height="512" viewBox="0 0 512 512" width="512" xmlns="http://www.w3.org/2000/svg"><g><circle cx="256" cy="256" fill="#ea792e" r="256"/><g><path d="m433.7 440.28c-46.05 44.4-108.68 71.72-177.7 71.72s-131.65-27.32-177.7-71.72z" fill="#4fcae8"/><g fill="#22bce0"><path d="m283.32 466.184h-56.344c-4.284 0-7.757 3.473-7.757 7.757v5.391c0 4.284 3.473 7.757 7.757 7.757h56.344c4.284 0 7.757-3.473 7.757-7.757v-5.391c0-4.284-3.473-7.757-7.757-7.757z"/><path d="m291.08 499.85v5.39c0 1.71-.55 3.29-1.5 4.57-10.99 1.45-22.2 2.19-33.58 2.19-12.04 0-23.88-.83-35.47-2.44-.82-1.23-1.31-2.72-1.31-4.32v-5.39c0-4.29 3.47-7.76 7.76-7.76h56.34c4.28 0 7.76 3.47 7.76 7.76z"/><path d="m283.32 440.279h-56.344c-4.284 0-7.757 3.473-7.757 7.757v5.391c0 4.284 3.473 7.757 7.757 7.757h56.344c4.284 0 7.757-3.473 7.757-7.757v-5.391c0-4.285-3.473-7.757-7.757-7.757z"/><path d="m360.178 466.184h-56.344c-4.284 0-7.757 3.473-7.757 7.757v5.391c0 4.284 3.473 7.757 7.757 7.757h56.344c4.284 0 7.757-3.473 7.757-7.757v-5.391c0-4.284-3.473-7.757-7.757-7.757z"/><path d="m355.13 492.09c-18.4 7.74-37.91 13.39-58.21 16.65-.54-1.05-.84-2.24-.84-3.5v-5.39c0-4.29 3.47-7.76 7.75-7.76z"/><path d="m360.178 440.279h-56.344c-4.284 0-7.757 3.473-7.757 7.757v5.391c0 4.284 3.473 7.757 7.757 7.757h56.344c4.284 0 7.757-3.473 7.757-7.757v-5.391c0-4.285-3.473-7.757-7.757-7.757z"/><path d="m402.18 466.18c-8.99 6.27-18.4 11.97-28.19 17.05-.67-1.14-1.05-2.47-1.05-3.9v-5.39c0-4.28 3.47-7.76 7.75-7.76z"/><path d="m433.7 440.28c-7.74 7.47-15.96 14.45-24.59 20.9h-28.42c-4.28 0-7.75-3.47-7.75-7.75v-5.39c0-4.29 3.47-7.76 7.75-7.76z"/><path d="m206.462 466.184h-56.344c-4.284 0-7.757 3.473-7.757 7.757v5.391c0 4.284 3.473 7.757 7.757 7.757h56.344c4.284 0 7.757-3.473 7.757-7.757v-5.391c0-4.284-3.473-7.757-7.757-7.757z"/><path d="m214.22 499.85v5.39c0 1.16-.25 2.25-.71 3.24-19.74-3.29-38.71-8.85-56.64-16.39h49.59c4.29 0 7.76 3.47 7.76 7.76z"/><path d="m206.462 440.279h-56.344c-4.284 0-7.757 3.473-7.757 7.757v5.391c0 4.284 3.473 7.757 7.757 7.757h56.344c4.284 0 7.757-3.473 7.757-7.757v-5.391c0-4.285-3.473-7.757-7.757-7.757z"/><path d="m137.36 473.94v5.39c0 1.14-.25 2.23-.69 3.2-9.31-4.9-18.27-10.37-26.85-16.35h19.78c4.29 0 7.76 3.48 7.76 7.76z"/><path d="m137.36 448.04v5.39c0 4.28-3.47 7.75-7.76 7.75h-26.71c-8.63-6.45-16.85-13.43-24.59-20.9h51.3c4.29 0 7.76 3.47 7.76 7.76z"/></g></g><g><g><g id="Plant_3_"><g><g id="Leaf_14_"><g><path d="m78.073 353.78c9.292 4.479 24.569 11.844 12.018 24.394s-19.915-2.726-24.394-12.018c-2.52-5.227-2.037-9.877.231-12.145 2.268-2.267 6.918-2.75 12.145-.231z" fill="#53b976"/></g><g><path d="m88.097 376.181-20.176-20.176c.551-.551.551-1.443 0-1.994s-1.443-.551-1.994 0c-2.268 2.268-2.751 6.918-.231 12.145 4.479 9.292 11.844 24.569 24.394 12.018.551-.551.551-1.443 0-1.994-.55-.55-1.442-.55-1.993.001z" fill="#528f66"/></g><g><path d="m78.062 355.812c7.758 3.74 20.515 9.889 10.035 20.369s-16.629-2.277-20.369-10.035c-2.104-4.364-1.7-8.247.193-10.141 1.894-1.894 5.777-2.297 10.141-.193z" fill="#53b976"/></g><g><path d="m76.776 369.02c-.41.41-1.075.41-1.485 0l-1.308-1.308c-.41-.41-.41-1.075 0-1.485s1.075-.41 1.485 0l1.308 1.308c.41.411.41 1.076 0 1.485z" fill="#78c795"/></g><g><path d="m70.317 362.561c-.41.41-1.075.41-1.485 0l-1.308-1.308c-.41-.41-.41-1.075 0-1.485s1.075-.41 1.485 0l1.308 1.308c.41.41.41 1.075 0 1.485z" fill="#78c795"/></g><g><path d="m84.196 376.441c-.41.41-1.075.41-1.485 0l-1.308-1.308c-.41-.41-.41-1.075 0-1.485s1.075-.41 1.485 0l1.308 1.308c.41.41.41 1.075 0 1.485z" fill="#78c795"/></g><g><path d="m91.146 374.167c-.347.347-.901.413-1.325.13-.482-.322-.612-.974-.29-1.456 1.968-2.948 1.983-5.528.048-8.12-.347-.465-.25-1.123.213-1.469.465-.347 1.122-.251 1.469.213 2.472 3.309 2.477 6.856.016 10.542-.039.058-.083.111-.131.16z" fill="#9acdae"/></g><g><path d="m86.233 360.532c-.342.342-.888.412-1.311.139-1.073-.692-2.304-1.397-3.763-2.155-.514-.267-.715-.901-.448-1.415.267-.515.901-.715 1.416-.448 1.518.788 2.804 1.526 3.933 2.254.487.314.627.964.313 1.451-.041.064-.088.122-.14.174z" fill="#9acdae"/></g><g><path d="m76.737 355.727c-.268.268-.673.381-1.06.259-1.757-.556-3.425-.683-4.824-.364-.565.129-1.128-.226-1.256-.791-.129-.565.226-1.128.791-1.256 1.763-.401 3.811-.259 5.923.41.553.175.859.765.684 1.318-.053.165-.143.309-.258.424z" fill="#9acdae"/></g><g><path d="m87.64 361.319c-.448-.356-1.107-.237-1.415.244l-3.252 5.082c-.622.972-1.771 1.114-2.568.317l-2.576-2.576c-.797-.797-.939-2.23-.317-3.202l2.162-3.379c.314-.49.129-1.144-.394-1.398l-.611-.297c-.443-.215-.978-.065-1.244.351l-1.809 2.828c-.622.972-1.771 1.114-2.568.317l-2.384-2.384s-.144-.144-.192-.192c-1.522-1.522-2.438-2.891-2.438-2.891-.371-.371-.806.238-1.189.597-.033.031-.066.063-.098.095-.007.007-.014.014-.021.021-.369.375-.352.984.02 1.356l2.274 2.274.116.116 2.46 2.46c.797.797.655 1.946-.317 2.568l-2.911 1.863c-.415.266-.566.8-.351 1.244l.297.612c.254.524.908.708 1.399.394l3.463-2.216c.972-.622 2.405-.48 3.202.317l2.576 2.576c.797.797.655 1.946-.317 2.568l-5.17 3.308c-.481.308-.6.967-.245 1.414.152.192.307.38.463.564.314.369.854.445 1.262.184l5.586-3.574c.972-.622 2.405-.48 3.202.317l2.114 2.114 2.012 2.012.41.41c.378.378.992.383 1.37.005.002-.002.005-.005.007-.007.028-.028.055-.055.082-.083.375-.379.37-.991-.007-1.369l.173-.261s-1.566-1.131-2.595-2.161c-.529-.529-2.114-2.114-2.114-2.114-.797-.797-.939-2.23-.317-3.202l3.517-5.497c.261-.408.185-.947-.183-1.262-.184-.156-.372-.31-.564-.463z" fill="#528f66"/></g></g><g id="Leaf_13_"><g><path d="m116.537 353.78c-9.292 4.479-24.569 11.844-12.018 24.394s19.915-2.726 24.394-12.018c2.52-5.227 2.037-9.877-.231-12.145-2.269-2.267-6.919-2.75-12.145-.231z" fill="#53b976"/></g><g><path d="m106.512 376.181 20.176-20.176c-.551-.551-.551-1.443 0-1.994s1.443-.551 1.994 0c2.268 2.268 2.751 6.918.231 12.145-4.479 9.292-11.844 24.569-24.394 12.018-.551-.551-.551-1.443 0-1.994.55-.55 1.443-.55 1.993.001z" fill="#528f66"/></g><g><path d="m116.547 355.812c-7.758 3.74-20.515 9.889-10.035 20.369s16.629-2.277 20.369-10.035c2.104-4.364 1.7-8.247-.193-10.141-1.894-1.894-5.777-2.297-10.141-.193z" fill="#53b976"/></g><g><path d="m117.833 369.02c.41.41 1.075.41 1.485 0l1.308-1.308c.41-.41.41-1.075 0-1.485s-1.075-.41-1.485 0l-1.308 1.308c-.409.411-.409 1.076 0 1.485z" fill="#78c795"/></g><g><path d="m124.293 362.561c.41.41 1.075.41 1.485 0l1.308-1.308c.41-.41.41-1.075 0-1.485s-1.075-.41-1.485 0l-1.308 1.308c-.41.41-.41 1.075 0 1.485z" fill="#78c795"/></g><g><path d="m110.413 376.441c.41.41 1.075.41 1.485 0l1.308-1.308c.41-.41.41-1.075 0-1.485s-1.075-.41-1.485 0l-1.308 1.308c-.41.41-.41 1.075 0 1.485z" fill="#78c795"/></g><g><path d="m103.464 374.167c.347.347.901.413 1.325.13.482-.322.612-.974.29-1.456-1.968-2.948-1.983-5.528-.048-8.12.347-.465.25-1.123-.213-1.469-.465-.347-1.122-.251-1.469.213-2.472 3.309-2.477 6.856-.016 10.542.038.058.082.111.131.16z" fill="#9acdae"/></g><g><path d="m108.376 360.532c.342.342.888.412 1.311.139 1.073-.692 2.304-1.397 3.763-2.155.514-.267.715-.901.448-1.415-.267-.515-.901-.715-1.416-.448-1.518.788-2.804 1.526-3.933 2.254-.487.314-.627.964-.313 1.451.041.064.088.122.14.174z" fill="#9acdae"/></g><g><path d="m117.872 355.727c.268.268.673.381 1.06.259 1.757-.556 3.425-.683 4.824-.364.565.129 1.128-.226 1.256-.791.129-.565-.226-1.128-.791-1.256-1.763-.401-3.811-.259-5.923.41-.553.175-.859.765-.684 1.318.053.165.143.309.258.424z" fill="#9acdae"/></g><g><path d="m106.969 361.319c.448-.356 1.107-.237 1.415.244l3.252 5.082c.622.972 1.771 1.114 2.568.317l2.576-2.576c.797-.797.939-2.23.317-3.202l-2.162-3.379c-.314-.49-.129-1.144.394-1.398l.611-.297c.443-.215.978-.065 1.244.351l1.809 2.828c.622.972 1.771 1.114 2.568.317l2.384-2.384s.144-.144.192-.192c1.522-1.522 2.438-2.891 2.438-2.891.371-.371.806.238 1.189.597.033.031.066.063.098.095l.021.021c.369.375.352.984-.02 1.356l-2.274 2.274-.116.116-2.46 2.46c-.797.797-.655 1.946.317 2.568l2.911 1.863c.415.266.566.8.351 1.244l-.297.612c-.254.524-.908.708-1.399.394l-3.463-2.216c-.972-.622-2.405-.48-3.202.317l-2.576 2.576c-.797.797-.655 1.946.317 2.568l5.17 3.308c.481.308.6.967.245 1.414-.152.192-.307.38-.463.564-.314.369-.854.445-1.262.184l-5.586-3.574c-.972-.622-2.405-.48-3.202.317l-2.114 2.114-2.012 2.012-.41.41c-.378.378-.992.383-1.37.005-.002-.002-.005-.005-.007-.007-.028-.028-.055-.055-.082-.083-.375-.379-.37-.991.007-1.369l-.173-.261s1.566-1.131 2.595-2.161c.529-.529 2.114-2.114 2.114-2.114.797-.797.939-2.23.317-3.202l-3.517-5.497c-.261-.408-.185-.947.183-1.262.184-.156.372-.31.564-.463z" fill="#528f66"/></g></g></g><g><g id="Leaf_12_"><g><path d="m78.073 321.929c9.292 4.479 24.569 11.844 12.018 24.394-12.551 12.551-19.915-2.726-24.394-12.018-2.52-5.227-2.037-9.877.231-12.145s6.918-2.751 12.145-.231z" fill="#53b976"/></g><g><path d="m88.097 344.33-20.176-20.176c.551-.551.551-1.443 0-1.994s-1.443-.551-1.994 0c-2.268 2.268-2.751 6.918-.231 12.145 4.479 9.292 11.844 24.569 24.394 12.018.551-.551.551-1.443 0-1.994-.55-.55-1.442-.55-1.993.001z" fill="#528f66"/></g><g><path d="m78.062 323.961c7.758 3.74 20.515 9.889 10.035 20.369s-16.629-2.277-20.369-10.035c-2.104-4.364-1.7-8.247.193-10.141s5.777-2.297 10.141-.193z" fill="#53b976"/></g><g><path d="m76.776 337.169c-.41.41-1.075.41-1.485 0l-1.308-1.308c-.41-.41-.41-1.075 0-1.485s1.075-.41 1.485 0l1.308 1.308c.41.411.41 1.075 0 1.485z" fill="#78c795"/></g><g><path d="m70.317 330.71c-.41.41-1.075.41-1.485 0l-1.308-1.308c-.41-.41-.41-1.075 0-1.485s1.075-.41 1.485 0l1.308 1.308c.41.41.41 1.075 0 1.485z" fill="#78c795"/></g><g><path d="m84.196 344.589c-.41.41-1.075.41-1.485 0l-1.308-1.308c-.41-.41-.41-1.075 0-1.485s1.075-.41 1.485 0l1.308 1.308c.41.411.41 1.075 0 1.485z" fill="#78c795"/></g><g><path d="m91.146 342.315c-.347.347-.901.413-1.325.13-.482-.322-.612-.974-.29-1.456 1.968-2.948 1.983-5.528.048-8.12-.347-.465-.25-1.123.213-1.469.465-.347 1.122-.251 1.469.213 2.472 3.309 2.477 6.856.016 10.542-.039.059-.083.112-.131.16z" fill="#9acdae"/></g><g><path d="m86.233 328.681c-.342.342-.888.412-1.311.139-1.073-.692-2.304-1.397-3.763-2.155-.514-.267-.715-.901-.448-1.416s.901-.715 1.416-.448c1.518.788 2.804 1.526 3.933 2.254.487.314.627.964.313 1.451-.041.065-.088.123-.14.175z" fill="#9acdae"/></g><g><path d="m76.737 323.876c-.268.268-.673.381-1.06.259-1.757-.556-3.425-.683-4.824-.364-.565.129-1.128-.225-1.256-.791-.129-.565.226-1.128.791-1.256 1.763-.401 3.811-.259 5.923.41.553.175.859.765.684 1.318-.053.165-.143.309-.258.424z" fill="#9acdae"/></g><g><path d="m87.64 329.468c-.448-.356-1.107-.237-1.415.244l-3.252 5.082c-.622.972-1.771 1.114-2.568.317l-2.576-2.576c-.797-.797-.939-2.23-.317-3.202l2.162-3.379c.314-.49.129-1.144-.394-1.398l-.611-.297c-.443-.215-.978-.065-1.244.351l-1.809 2.828c-.622.972-1.771 1.114-2.568.317l-2.384-2.384s-.144-.144-.192-.192c-1.522-1.522-2.438-2.891-2.438-2.891-.371-.371-.806.238-1.189.597-.033.031-.066.063-.098.095-.007.007-.014.014-.021.021-.369.375-.352.984.02 1.356l2.274 2.274.116.116 2.46 2.46c.797.797.655 1.946-.317 2.568l-2.911 1.863c-.415.266-.566.8-.351 1.244l.297.612c.254.524.908.708 1.399.394l3.463-2.216c.972-.622 2.405-.48 3.202.317l2.576 2.576c.797.797.655 1.946-.317 2.568l-5.17 3.308c-.481.308-.6.967-.245 1.414.152.192.307.38.463.564.314.369.854.445 1.262.184l5.586-3.574c.972-.622 2.405-.48 3.202.317l2.114 2.114 2.012 2.012.41.41c.378.378.992.383 1.37.005.002-.002.005-.005.007-.007.028-.028.055-.055.082-.083.375-.379.37-.991-.007-1.369l.173-.261s-1.566-1.131-2.595-2.16c-.529-.529-2.114-2.114-2.114-2.114-.797-.797-.939-2.23-.317-3.202l3.517-5.497c.261-.408.185-.947-.183-1.262-.184-.157-.372-.312-.564-.464z" fill="#528f66"/></g></g><g id="Leaf_11_"><g><path d="m116.537 321.929c-9.292 4.479-24.569 11.844-12.018 24.394 12.551 12.551 19.915-2.726 24.394-12.018 2.52-5.227 2.037-9.877-.231-12.145-2.269-2.268-6.919-2.751-12.145-.231z" fill="#53b976"/></g><g><path d="m106.512 344.33 20.176-20.176c-.551-.551-.551-1.443 0-1.994s1.443-.551 1.994 0c2.268 2.268 2.751 6.918.231 12.145-4.479 9.292-11.844 24.569-24.394 12.018-.551-.551-.551-1.443 0-1.994.55-.55 1.443-.55 1.993.001z" fill="#528f66"/></g><g><path d="m116.547 323.961c-7.758 3.74-20.515 9.889-10.035 20.369s16.629-2.277 20.369-10.035c2.104-4.364 1.7-8.247-.193-10.141-1.894-1.894-5.777-2.297-10.141-.193z" fill="#53b976"/></g><g><path d="m117.833 337.169c.41.41 1.075.41 1.485 0l1.308-1.308c.41-.41.41-1.075 0-1.485s-1.075-.41-1.485 0l-1.308 1.308c-.409.411-.409 1.075 0 1.485z" fill="#78c795"/></g><g><path d="m124.293 330.71c.41.41 1.075.41 1.485 0l1.308-1.308c.41-.41.41-1.075 0-1.485s-1.075-.41-1.485 0l-1.308 1.308c-.41.41-.41 1.075 0 1.485z" fill="#78c795"/></g><g><path d="m110.413 344.589c.41.41 1.075.41 1.485 0l1.308-1.308c.41-.41.41-1.075 0-1.485s-1.075-.41-1.485 0l-1.308 1.308c-.41.411-.41 1.075 0 1.485z" fill="#78c795"/></g><g><path d="m103.464 342.315c.347.347.901.413 1.325.13.482-.322.612-.974.29-1.456-1.968-2.948-1.983-5.528-.048-8.12.347-.465.25-1.123-.213-1.469-.465-.347-1.122-.251-1.469.213-2.472 3.309-2.477 6.856-.016 10.542.038.059.082.112.131.16z" fill="#9acdae"/></g><g><path d="m108.376 328.681c.342.342.888.412 1.311.139 1.073-.692 2.304-1.397 3.763-2.155.514-.267.715-.901.448-1.416s-.901-.715-1.416-.448c-1.518.788-2.804 1.526-3.933 2.254-.487.314-.627.964-.313 1.451.041.065.088.123.14.175z" fill="#9acdae"/></g><g><path d="m117.872 323.876c.268.268.673.381 1.06.259 1.757-.556 3.425-.683 4.824-.364.565.129 1.128-.225 1.256-.791.129-.565-.226-1.128-.791-1.256-1.763-.401-3.811-.259-5.923.41-.553.175-.859.765-.684 1.318.053.165.143.309.258.424z" fill="#9acdae"/></g><g><path d="m106.969 329.468c.448-.356 1.107-.237 1.415.244l3.252 5.082c.622.972 1.771 1.114 2.568.317l2.576-2.576c.797-.797.939-2.23.317-3.202l-2.162-3.379c-.314-.49-.129-1.144.394-1.398l.611-.297c.443-.215.978-.065 1.244.351l1.809 2.828c.622.972 1.771 1.114 2.568.317l2.384-2.384s.144-.144.192-.192c1.522-1.522 2.438-2.891 2.438-2.891.371-.371.806.238 1.189.597.033.031.066.063.098.095l.021.021c.369.375.352.984-.02 1.356l-2.274 2.274-.116.116-2.46 2.46c-.797.797-.655 1.946.317 2.568l2.911 1.863c.415.266.566.8.351 1.244l-.297.612c-.254.524-.908.708-1.399.394l-3.463-2.216c-.972-.622-2.405-.48-3.202.317l-2.576 2.576c-.797.797-.655 1.946.317 2.568l5.17 3.308c.481.308.6.967.245 1.414-.152.192-.307.38-.463.564-.314.369-.854.445-1.262.184l-5.586-3.574c-.972-.622-2.405-.48-3.202.317l-2.114 2.114-2.012 2.012-.41.41c-.378.378-.992.383-1.37.005-.002-.002-.005-.005-.007-.007-.028-.028-.055-.055-.082-.083-.375-.379-.37-.991.007-1.369l-.173-.261s1.566-1.131 2.595-2.16c.529-.529 2.114-2.114 2.114-2.114.797-.797.939-2.23.317-3.202l-3.517-5.497c-.261-.408-.185-.947.183-1.262.184-.157.372-.312.564-.464z" fill="#528f66"/></g></g></g><g><path d="m98.933 345.894v48.783h-3.451v-48.783c0-.478.193-.909.504-1.221.224-.224.504-.385.821-.458.129-.032.261-.049.4-.049.953 0 1.726.775 1.726 1.728z" fill="#53b976"/><path d="m97.207 344.166v50.511h-1.725v-48.783c0-.478.193-.909.504-1.221.224-.224.504-.385.821-.458.13-.032.261-.049.4-.049z" fill="#528f66"/></g></g><g><path d="m123.305 407.072h-52.001c-1.709 0-3.095-1.386-3.095-3.095v-6.204c0-1.71 1.386-3.095 3.095-3.095h52.001c1.71 0 3.095 1.386 3.095 3.095v6.204c.001 1.709-1.385 3.095-3.095 3.095z" fill="#f39e22"/><path d="m119.022 402.982h-37.37c-2.293 0-4.152-1.859-4.152-4.152s1.859-4.152 4.152-4.152h37.37c2.293 0 4.152 1.859 4.152 4.152.001 2.293-1.858 4.152-4.152 4.152z" fill="#f9c744"/><path d="m115.217 400.342h-24.029c-1.564 0-2.832-1.268-2.832-2.832s1.268-2.832 2.832-2.832h24.029c1.564 0 2.832 1.268 2.832 2.832s-1.268 2.832-2.832 2.832z" fill="#fad98f"/></g><g><path d="m118.981 407.074-5.323 28.868c-.006.037-.012.067-.025.104-.502 2.456-2.671 4.233-5.188 4.233h-22.277c-2.56 0-4.753-1.825-5.213-4.337l-5.329-28.868z" fill="#f9c744"/><path d="m118.981 407.074-5.323 28.868c-.006.037-.012.067-.025.104h-7.822c-10.462 0-18.939-8.477-18.939-18.939v-10.033z" fill="#fad98f"/><path d="m105.186 430.59c-2.505-.461-4.162-2.867-3.701-5.372l2.16-11.731c.461-2.505 2.867-4.162 5.372-3.701s4.162 2.867 3.701 5.372l-2.16 11.731c-.461 2.505-2.866 4.162-5.372 3.701z" fill="#faefdc"/></g></g><g><g id="Plant_4_"><g><g id="Leaf_18_"><g><path d="m150.872 353.78c9.292 4.479 24.569 11.844 12.018 24.394-12.551 12.551-19.915-2.726-24.394-12.018-2.52-5.227-2.037-9.877.231-12.145 2.268-2.267 6.919-2.75 12.145-.231z" fill="#53b976"/></g><g><path d="m160.897 376.181-20.176-20.176c.551-.551.551-1.443 0-1.994s-1.443-.551-1.994 0c-2.268 2.268-2.751 6.918-.231 12.145 4.479 9.292 11.844 24.569 24.394 12.018.551-.551.551-1.443 0-1.994-.55-.55-1.443-.55-1.993.001z" fill="#528f66"/></g><g><path d="m150.862 355.812c7.758 3.74 20.515 9.889 10.035 20.369s-16.629-2.277-20.369-10.035c-2.104-4.364-1.7-8.247.193-10.141 1.894-1.894 5.777-2.297 10.141-.193z" fill="#53b976"/></g><g><path d="m149.575 369.02c-.41.41-1.075.41-1.485 0l-1.308-1.308c-.41-.41-.41-1.075 0-1.485s1.075-.41 1.485 0l1.308 1.308c.41.411.41 1.076 0 1.485z" fill="#78c795"/></g><g><path d="m143.116 362.561c-.41.41-1.075.41-1.485 0l-1.308-1.308c-.41-.41-.41-1.075 0-1.485s1.075-.41 1.485 0l1.308 1.308c.41.41.41 1.075 0 1.485z" fill="#78c795"/></g><g><path d="m156.996 376.441c-.41.41-1.075.41-1.485 0l-1.308-1.308c-.41-.41-.41-1.075 0-1.485s1.075-.41 1.485 0l1.308 1.308c.41.41.41 1.075 0 1.485z" fill="#78c795"/></g><g><path d="m163.945 374.167c-.347.347-.901.413-1.325.13-.482-.322-.612-.974-.29-1.456 1.968-2.948 1.983-5.528.048-8.12-.347-.465-.25-1.123.213-1.469.465-.347 1.122-.251 1.469.213 2.472 3.309 2.477 6.856.016 10.542-.038.058-.083.111-.131.16z" fill="#9acdae"/></g><g><path d="m159.033 360.532c-.342.342-.888.412-1.311.139-1.073-.692-2.304-1.397-3.763-2.155-.514-.267-.715-.901-.448-1.415.267-.515.901-.715 1.416-.448 1.518.788 2.804 1.526 3.933 2.254.487.314.627.964.313 1.451-.041.064-.088.122-.14.174z" fill="#9acdae"/></g><g><path d="m149.537 355.727c-.268.268-.673.381-1.06.259-1.757-.556-3.425-.683-4.824-.364-.565.129-1.128-.226-1.256-.791-.129-.565.226-1.128.791-1.256 1.763-.401 3.811-.259 5.923.41.553.175.859.765.684 1.318-.053.165-.143.309-.258.424z" fill="#9acdae"/></g><g><path d="m160.44 361.319c-.448-.356-1.107-.237-1.415.244l-3.252 5.082c-.622.972-1.771 1.114-2.568.317l-2.576-2.576c-.797-.797-.939-2.23-.317-3.202l2.162-3.379c.314-.49.129-1.144-.394-1.398l-.611-.297c-.443-.215-.978-.065-1.244.351l-1.809 2.828c-.622.972-1.771 1.114-2.568.317l-2.384-2.384s-.144-.144-.192-.192c-1.522-1.522-2.438-2.891-2.438-2.891-.371-.371-.806.238-1.189.597-.033.031-.066.063-.098.095-.007.007-.014.014-.021.021-.369.375-.352.984.02 1.356l2.274 2.274.116.116 2.46 2.46c.797.797.655 1.946-.317 2.568l-2.911 1.863c-.415.266-.566.8-.351 1.244l.297.612c.254.524.908.708 1.399.394l3.463-2.216c.972-.622 2.405-.48 3.202.317l2.576 2.576c.797.797.655 1.946-.317 2.568l-5.17 3.308c-.481.308-.6.967-.245 1.414.152.192.307.38.463.564.314.369.854.445 1.262.184l5.586-3.574c.972-.622 2.405-.48 3.202.317l2.114 2.114 2.012 2.012.41.41c.378.378.992.383 1.37.005l.007-.007c.028-.028.055-.055.082-.083.375-.379.37-.991-.007-1.369l.173-.261s-1.566-1.131-2.595-2.161c-.529-.529-2.114-2.114-2.114-2.114-.797-.797-.939-2.23-.317-3.202l3.517-5.497c.261-.408.185-.947-.183-1.262-.184-.156-.372-.31-.564-.463z" fill="#528f66"/></g></g><g id="Leaf_17_"><g><path d="m189.336 353.78c-9.292 4.479-24.569 11.844-12.018 24.394 12.551 12.551 19.915-2.726 24.394-12.018 2.52-5.227 2.037-9.877-.231-12.145-2.268-2.267-6.918-2.75-12.145-.231z" fill="#53b976"/></g><g><path d="m179.312 376.181 20.176-20.176c-.551-.551-.551-1.443 0-1.994s1.443-.551 1.994 0c2.268 2.268 2.751 6.918.231 12.145-4.479 9.292-11.844 24.569-24.394 12.018-.551-.551-.551-1.443 0-1.994.549-.55 1.442-.55 1.993.001z" fill="#528f66"/></g><g><path d="m189.346 355.812c-7.758 3.74-20.515 9.889-10.035 20.369s16.629-2.277 20.369-10.035c2.104-4.364 1.7-8.247-.193-10.141s-5.776-2.297-10.141-.193z" fill="#53b976"/></g><g><path d="m190.633 369.02c.41.41 1.075.41 1.485 0l1.308-1.308c.41-.41.41-1.075 0-1.485s-1.075-.41-1.485 0l-1.308 1.308c-.41.411-.41 1.076 0 1.485z" fill="#78c795"/></g><g><path d="m197.092 362.561c.41.41 1.075.41 1.485 0l1.308-1.308c.41-.41.41-1.075 0-1.485s-1.075-.41-1.485 0l-1.308 1.308c-.41.41-.41 1.075 0 1.485z" fill="#78c795"/></g><g><path d="m183.213 376.441c.41.41 1.075.41 1.485 0l1.308-1.308c.41-.41.41-1.075 0-1.485s-1.075-.41-1.485 0l-1.308 1.308c-.41.41-.41 1.075 0 1.485z" fill="#78c795"/></g><g><path d="m176.263 374.167c.347.347.901.413 1.325.13.482-.322.612-.974.29-1.456-1.968-2.948-1.983-5.528-.048-8.12.347-.465.25-1.123-.213-1.469-.465-.347-1.122-.251-1.469.213-2.472 3.309-2.477 6.856-.016 10.542.039.058.083.111.131.16z" fill="#9acdae"/></g><g><path d="m181.176 360.532c.342.342.888.412 1.311.139 1.073-.692 2.304-1.397 3.763-2.155.514-.267.715-.901.448-1.415-.267-.515-.901-.715-1.416-.448-1.518.788-2.804 1.526-3.933 2.254-.487.314-.627.964-.313 1.451.041.064.088.122.14.174z" fill="#9acdae"/></g><g><path d="m190.672 355.727c.268.268.673.381 1.06.259 1.757-.556 3.425-.683 4.824-.364.565.129 1.128-.226 1.256-.791.129-.565-.226-1.128-.791-1.256-1.763-.401-3.811-.259-5.923.41-.553.175-.859.765-.684 1.318.053.165.142.309.258.424z" fill="#9acdae"/></g><g><path d="m179.769 361.319c.448-.356 1.107-.237 1.415.244l3.252 5.082c.622.972 1.771 1.114 2.568.317l2.576-2.576c.797-.797.939-2.23.317-3.202l-2.162-3.379c-.314-.49-.129-1.144.394-1.398l.611-.297c.443-.215.978-.065 1.244.351l1.809 2.828c.622.972 1.771 1.114 2.568.317l2.384-2.384s.144-.144.192-.192c1.522-1.522 2.438-2.891 2.438-2.891.371-.371.806.238 1.189.597.033.031.066.063.098.095l.021.021c.369.375.352.984-.02 1.356l-2.274 2.274-.116.116-2.46 2.46c-.797.797-.655 1.946.317 2.568l2.911 1.863c.415.266.566.8.351 1.244l-.297.612c-.254.524-.908.708-1.399.394l-3.463-2.216c-.972-.622-2.405-.48-3.202.317l-2.576 2.576c-.797.797-.655 1.946.317 2.568l5.17 3.308c.481.308.6.967.245 1.414-.152.192-.307.38-.463.564-.314.369-.854.445-1.262.184l-5.586-3.574c-.972-.622-2.405-.48-3.202.317l-2.114 2.114-2.012 2.012-.41.41c-.378.378-.992.383-1.37.005-.002-.002-.005-.005-.007-.007-.028-.028-.055-.055-.082-.083-.375-.379-.37-.991.007-1.369l-.173-.261s1.566-1.131 2.595-2.161c.529-.529 2.114-2.114 2.114-2.114.797-.797.939-2.23.317-3.202l-3.517-5.497c-.261-.408-.185-.947.183-1.262.184-.156.372-.31.564-.463z" fill="#528f66"/></g></g></g><g><g id="Leaf_16_"><g><path d="m150.872 321.929c9.292 4.479 24.569 11.844 12.018 24.394-12.551 12.551-19.915-2.726-24.394-12.018-2.52-5.227-2.037-9.877.231-12.145s6.919-2.751 12.145-.231z" fill="#53b976"/></g><g><path d="m160.897 344.33-20.176-20.176c.551-.551.551-1.443 0-1.994s-1.443-.551-1.994 0c-2.268 2.268-2.751 6.918-.231 12.145 4.479 9.292 11.844 24.569 24.394 12.018.551-.551.551-1.443 0-1.994-.55-.55-1.443-.55-1.993.001z" fill="#528f66"/></g><g><path d="m150.862 323.961c7.758 3.74 20.515 9.889 10.035 20.369s-16.629-2.277-20.369-10.035c-2.104-4.364-1.7-8.247.193-10.141 1.894-1.894 5.777-2.297 10.141-.193z" fill="#53b976"/></g><g><path d="m149.575 337.169c-.41.41-1.075.41-1.485 0l-1.308-1.308c-.41-.41-.41-1.075 0-1.485s1.075-.41 1.485 0l1.308 1.308c.41.411.41 1.075 0 1.485z" fill="#78c795"/></g><g><path d="m143.116 330.71c-.41.41-1.075.41-1.485 0l-1.308-1.308c-.41-.41-.41-1.075 0-1.485s1.075-.41 1.485 0l1.308 1.308c.41.41.41 1.075 0 1.485z" fill="#78c795"/></g><g><path d="m156.996 344.589c-.41.41-1.075.41-1.485 0l-1.308-1.308c-.41-.41-.41-1.075 0-1.485s1.075-.41 1.485 0l1.308 1.308c.41.411.41 1.075 0 1.485z" fill="#78c795"/></g><g><path d="m163.945 342.315c-.347.347-.901.413-1.325.13-.482-.322-.612-.974-.29-1.456 1.968-2.948 1.983-5.528.048-8.12-.347-.465-.25-1.123.213-1.469.465-.347 1.122-.251 1.469.213 2.472 3.309 2.477 6.856.016 10.542-.038.059-.083.112-.131.16z" fill="#9acdae"/></g><g><path d="m159.033 328.681c-.342.342-.888.412-1.311.139-1.073-.692-2.304-1.397-3.763-2.155-.514-.267-.715-.901-.448-1.416s.901-.715 1.416-.448c1.518.788 2.804 1.526 3.933 2.254.487.314.627.964.313 1.451-.041.065-.088.123-.14.175z" fill="#9acdae"/></g><g><path d="m149.537 323.876c-.268.268-.673.381-1.06.259-1.757-.556-3.425-.683-4.824-.364-.565.129-1.128-.225-1.256-.791-.129-.565.226-1.128.791-1.256 1.763-.401 3.811-.259 5.923.41.553.175.859.765.684 1.318-.053.165-.143.309-.258.424z" fill="#9acdae"/></g><g><path d="m160.44 329.468c-.448-.356-1.107-.237-1.415.244l-3.252 5.082c-.622.972-1.771 1.114-2.568.317l-2.576-2.576c-.797-.797-.939-2.23-.317-3.202l2.162-3.379c.314-.49.129-1.144-.394-1.398l-.611-.297c-.443-.215-.978-.065-1.244.351l-1.809 2.828c-.622.972-1.771 1.114-2.568.317l-2.384-2.384s-.144-.144-.192-.192c-1.522-1.522-2.438-2.891-2.438-2.891-.371-.371-.806.238-1.189.597-.033.031-.066.063-.098.095-.007.007-.014.014-.021.021-.369.375-.352.984.02 1.356l2.274 2.274.116.116 2.46 2.46c.797.797.655 1.946-.317 2.568l-2.911 1.863c-.415.266-.566.8-.351 1.244l.297.612c.254.524.908.708 1.399.394l3.463-2.216c.972-.622 2.405-.48 3.202.317l2.576 2.576c.797.797.655 1.946-.317 2.568l-5.17 3.308c-.481.308-.6.967-.245 1.414.152.192.307.38.463.564.314.369.854.445 1.262.184l5.586-3.574c.972-.622 2.405-.48 3.202.317l2.114 2.114 2.012 2.012.41.41c.378.378.992.383 1.37.005l.007-.007c.028-.028.055-.055.082-.083.375-.379.37-.991-.007-1.369l.173-.261s-1.566-1.131-2.595-2.16c-.529-.529-2.114-2.114-2.114-2.114-.797-.797-.939-2.23-.317-3.202l3.517-5.497c.261-.408.185-.947-.183-1.262-.184-.157-.372-.312-.564-.464z" fill="#528f66"/></g></g><g id="Leaf_15_"><g><path d="m189.336 321.929c-9.292 4.479-24.569 11.844-12.018 24.394 12.551 12.551 19.915-2.726 24.394-12.018 2.52-5.227 2.037-9.877-.231-12.145s-6.918-2.751-12.145-.231z" fill="#53b976"/></g><g><path d="m179.312 344.33 20.176-20.176c-.551-.551-.551-1.443 0-1.994s1.443-.551 1.994 0c2.268 2.268 2.751 6.918.231 12.145-4.479 9.292-11.844 24.569-24.394 12.018-.551-.551-.551-1.443 0-1.994.549-.55 1.442-.55 1.993.001z" fill="#528f66"/></g><g><path d="m189.346 323.961c-7.758 3.74-20.515 9.889-10.035 20.369s16.629-2.277 20.369-10.035c2.104-4.364 1.7-8.247-.193-10.141s-5.776-2.297-10.141-.193z" fill="#53b976"/></g><g><path d="m190.633 337.169c.41.41 1.075.41 1.485 0l1.308-1.308c.41-.41.41-1.075 0-1.485s-1.075-.41-1.485 0l-1.308 1.308c-.41.411-.41 1.075 0 1.485z" fill="#78c795"/></g><g><path d="m197.092 330.71c.41.41 1.075.41 1.485 0l1.308-1.308c.41-.41.41-1.075 0-1.485s-1.075-.41-1.485 0l-1.308 1.308c-.41.41-.41 1.075 0 1.485z" fill="#78c795"/></g><g><path d="m183.213 344.589c.41.41 1.075.41 1.485 0l1.308-1.308c.41-.41.41-1.075 0-1.485s-1.075-.41-1.485 0l-1.308 1.308c-.41.411-.41 1.075 0 1.485z" fill="#78c795"/></g><g><path d="m176.263 342.315c.347.347.901.413 1.325.13.482-.322.612-.974.29-1.456-1.968-2.948-1.983-5.528-.048-8.12.347-.465.25-1.123-.213-1.469-.465-.347-1.122-.251-1.469.213-2.472 3.309-2.477 6.856-.016 10.542.039.059.083.112.131.16z" fill="#9acdae"/></g><g><path d="m181.176 328.681c.342.342.888.412 1.311.139 1.073-.692 2.304-1.397 3.763-2.155.514-.267.715-.901.448-1.416s-.901-.715-1.416-.448c-1.518.788-2.804 1.526-3.933 2.254-.487.314-.627.964-.313 1.451.041.065.088.123.14.175z" fill="#9acdae"/></g><g><path d="m190.672 323.876c.268.268.673.381 1.06.259 1.757-.556 3.425-.683 4.824-.364.565.129 1.128-.225 1.256-.791.129-.565-.226-1.128-.791-1.256-1.763-.401-3.811-.259-5.923.41-.553.175-.859.765-.684 1.318.053.165.142.309.258.424z" fill="#9acdae"/></g><g><path d="m179.769 329.468c.448-.356 1.107-.237 1.415.244l3.252 5.082c.622.972 1.771 1.114 2.568.317l2.576-2.576c.797-.797.939-2.23.317-3.202l-2.162-3.379c-.314-.49-.129-1.144.394-1.398l.611-.297c.443-.215.978-.065 1.244.351l1.809 2.828c.622.972 1.771 1.114 2.568.317l2.384-2.384s.144-.144.192-.192c1.522-1.522 2.438-2.891 2.438-2.891.371-.371.806.238 1.189.597.033.031.066.063.098.095l.021.021c.369.375.352.984-.02 1.356l-2.274 2.274-.116.116-2.46 2.46c-.797.797-.655 1.946.317 2.568l2.911 1.863c.415.266.566.8.351 1.244l-.297.612c-.254.524-.908.708-1.399.394l-3.463-2.216c-.972-.622-2.405-.48-3.202.317l-2.576 2.576c-.797.797-.655 1.946.317 2.568l5.17 3.308c.481.308.6.967.245 1.414-.152.192-.307.38-.463.564-.314.369-.854.445-1.262.184l-5.586-3.574c-.972-.622-2.405-.48-3.202.317l-2.114 2.114-2.012 2.012-.41.41c-.378.378-.992.383-1.37.005-.002-.002-.005-.005-.007-.007-.028-.028-.055-.055-.082-.083-.375-.379-.37-.991.007-1.369l-.173-.261s1.566-1.131 2.595-2.16c.529-.529 2.114-2.114 2.114-2.114.797-.797.939-2.23.317-3.202l-3.517-5.497c-.261-.408-.185-.947.183-1.262.184-.157.372-.312.564-.464z" fill="#528f66"/></g></g></g><g><path d="m171.732 345.894v48.783h-3.451v-48.783c0-.478.193-.909.504-1.221.224-.224.504-.385.821-.458.129-.032.261-.049.4-.049.954 0 1.726.775 1.726 1.728z" fill="#53b976"/><path d="m170.007 344.166v50.511h-1.725v-48.783c0-.478.193-.909.504-1.221.224-.224.504-.385.821-.458.129-.032.261-.049.4-.049z" fill="#528f66"/></g></g><g><path d="m196.105 407.072h-52.001c-1.71 0-3.095-1.386-3.095-3.095v-6.204c0-1.71 1.386-3.095 3.095-3.095h52.001c1.71 0 3.095 1.386 3.095 3.095v6.204c0 1.709-1.386 3.095-3.095 3.095z" fill="#f39e22"/><path d="m191.822 402.982h-37.37c-2.293 0-4.152-1.859-4.152-4.152s1.859-4.152 4.152-4.152h37.37c2.293 0 4.152 1.859 4.152 4.152s-1.859 4.152-4.152 4.152z" fill="#f9c744"/><path d="m188.016 400.342h-24.029c-1.564 0-2.832-1.268-2.832-2.832s1.268-2.832 2.832-2.832h24.029c1.564 0 2.832 1.268 2.832 2.832s-1.268 2.832-2.832 2.832z" fill="#fad98f"/></g><g><path d="m191.78 407.074-5.323 28.868c-.006.037-.012.067-.025.104-.502 2.456-2.671 4.233-5.188 4.233h-22.277c-2.56 0-4.753-1.825-5.213-4.337l-5.329-28.868z" fill="#f9c744"/><path d="m191.78 407.074-5.323 28.868c-.006.037-.012.067-.025.104h-7.822c-10.462 0-18.939-8.477-18.939-18.939v-10.033z" fill="#fad98f"/><path d="m177.986 430.59c-2.505-.461-4.162-2.867-3.701-5.372l2.16-11.731c.461-2.505 2.867-4.162 5.372-3.701s4.162 2.867 3.701 5.372l-2.16 11.731c-.461 2.505-2.867 4.162-5.372 3.701z" fill="#faefdc"/></g></g><g><g id="Plant_5_"><g><g id="Leaf_22_"><g><path d="m223.672 353.78c9.292 4.479 24.569 11.844 12.018 24.394-12.551 12.551-19.915-2.726-24.394-12.018-2.52-5.227-2.037-9.877.231-12.145 2.268-2.267 6.918-2.75 12.145-.231z" fill="#53b976"/></g><g><path d="m233.696 376.181-20.176-20.176c.551-.551.551-1.443 0-1.994s-1.443-.551-1.994 0c-2.268 2.268-2.751 6.918-.231 12.145 4.479 9.292 11.844 24.569 24.394 12.018.551-.551.551-1.443 0-1.994-.55-.55-1.442-.55-1.993.001z" fill="#528f66"/></g><g><path d="m223.661 355.812c7.758 3.74 20.515 9.889 10.035 20.369s-16.629-2.277-20.369-10.035c-2.104-4.364-1.7-8.247.193-10.141 1.894-1.894 5.777-2.297 10.141-.193z" fill="#53b976"/></g><g><path d="m222.375 369.02c-.41.41-1.075.41-1.485 0l-1.308-1.308c-.41-.41-.41-1.075 0-1.485s1.075-.41 1.485 0l1.308 1.308c.41.411.41 1.076 0 1.485z" fill="#78c795"/></g><g><path d="m215.916 362.561c-.41.41-1.075.41-1.485 0l-1.308-1.308c-.41-.41-.41-1.075 0-1.485s1.075-.41 1.485 0l1.308 1.308c.41.41.41 1.075 0 1.485z" fill="#78c795"/></g><g><path d="m229.795 376.441c-.41.41-1.075.41-1.485 0l-1.308-1.308c-.41-.41-.41-1.075 0-1.485s1.075-.41 1.485 0l1.308 1.308c.41.41.41 1.075 0 1.485z" fill="#78c795"/></g><g><path d="m236.745 374.167c-.347.347-.901.413-1.325.13-.482-.322-.612-.974-.29-1.456 1.968-2.948 1.983-5.528.048-8.12-.347-.465-.25-1.123.213-1.469.465-.347 1.122-.251 1.469.213 2.472 3.309 2.477 6.856.016 10.542-.039.058-.083.111-.131.16z" fill="#9acdae"/></g><g><path d="m231.832 360.532c-.342.342-.888.412-1.311.139-1.073-.692-2.304-1.397-3.763-2.155-.514-.267-.715-.901-.448-1.415.267-.515.901-.715 1.416-.448 1.518.788 2.804 1.526 3.933 2.254.487.314.627.964.313 1.451-.041.064-.088.122-.14.174z" fill="#9acdae"/></g><g><path d="m222.336 355.727c-.268.268-.673.381-1.06.259-1.757-.556-3.425-.683-4.824-.364-.565.129-1.128-.226-1.256-.791-.129-.565.225-1.128.791-1.256 1.763-.401 3.811-.259 5.923.41.553.175.859.765.684 1.318-.053.165-.143.309-.258.424z" fill="#9acdae"/></g><g><path d="m233.239 361.319c-.448-.356-1.107-.237-1.415.244l-3.252 5.082c-.622.972-1.771 1.114-2.568.317l-2.576-2.576c-.797-.797-.939-2.23-.317-3.202l2.162-3.379c.314-.49.129-1.144-.394-1.398l-.611-.297c-.443-.215-.978-.065-1.244.351l-1.809 2.828c-.622.972-1.771 1.114-2.568.317l-2.384-2.384s-.144-.144-.192-.192c-1.522-1.522-2.438-2.891-2.438-2.891-.371-.371-.806.238-1.189.597-.033.031-.066.063-.098.095-.007.007-.014.014-.021.021-.369.375-.352.984.02 1.356l2.274 2.274.116.116 2.46 2.46c.797.797.655 1.946-.317 2.568l-2.911 1.863c-.415.266-.566.8-.351 1.244l.297.612c.254.524.908.708 1.398.394l3.463-2.216c.972-.622 2.405-.48 3.202.317l2.576 2.576c.797.797.655 1.946-.317 2.568l-5.17 3.308c-.481.308-.6.967-.245 1.414.152.192.307.38.463.564.314.369.854.445 1.262.184l5.586-3.574c.972-.622 2.405-.48 3.202.317l2.114 2.114 2.012 2.012.41.41c.378.378.992.383 1.37.005l.007-.007c.028-.028.055-.055.082-.083.375-.379.37-.991-.007-1.369l.173-.261s-1.566-1.131-2.595-2.161c-.529-.529-2.114-2.114-2.114-2.114-.797-.797-.939-2.23-.317-3.202l3.517-5.497c.261-.408.185-.947-.183-1.262-.183-.156-.371-.31-.563-.463z" fill="#528f66"/></g></g><g id="Leaf_21_"><g><path d="m262.135 353.78c-9.292 4.479-24.569 11.844-12.018 24.394 12.551 12.551 19.915-2.726 24.394-12.018 2.52-5.227 2.037-9.877-.231-12.145-2.268-2.267-6.918-2.75-12.145-.231z" fill="#53b976"/></g><g><path d="m252.111 376.181 20.176-20.176c-.551-.551-.551-1.443 0-1.994s1.443-.551 1.994 0c2.268 2.268 2.751 6.918.231 12.145-4.479 9.292-11.844 24.569-24.394 12.018-.551-.551-.551-1.443 0-1.994s1.443-.55 1.993.001z" fill="#528f66"/></g><g><path d="m262.146 355.812c-7.758 3.74-20.515 9.889-10.035 20.369s16.629-2.277 20.369-10.035c2.104-4.364 1.7-8.247-.193-10.141-1.894-1.894-5.777-2.297-10.141-.193z" fill="#53b976"/></g><g><path d="m263.432 369.02c.41.41 1.075.41 1.485 0l1.308-1.308c.41-.41.41-1.075 0-1.485s-1.075-.41-1.485 0l-1.308 1.308c-.409.411-.409 1.076 0 1.485z" fill="#78c795"/></g><g><path d="m269.892 362.561c.41.41 1.075.41 1.485 0l1.308-1.308c.41-.41.41-1.075 0-1.485s-1.075-.41-1.485 0l-1.308 1.308c-.41.41-.41 1.075 0 1.485z" fill="#78c795"/></g><g><path d="m256.012 376.441c.41.41 1.075.41 1.485 0l1.308-1.308c.41-.41.41-1.075 0-1.485s-1.075-.41-1.485 0l-1.308 1.308c-.41.41-.41 1.075 0 1.485z" fill="#78c795"/></g><g><path d="m249.063 374.167c.347.347.901.413 1.325.13.482-.322.612-.974.29-1.456-1.968-2.948-1.983-5.528-.048-8.12.347-.465.25-1.123-.213-1.469-.465-.347-1.122-.251-1.469.213-2.472 3.309-2.477 6.856-.016 10.542.038.058.082.111.131.16z" fill="#9acdae"/></g><g><path d="m253.975 360.532c.342.342.888.412 1.311.139 1.073-.692 2.304-1.397 3.763-2.155.514-.267.715-.901.448-1.415-.267-.515-.901-.715-1.416-.448-1.518.788-2.804 1.526-3.933 2.254-.487.314-.627.964-.313 1.451.041.064.088.122.14.174z" fill="#9acdae"/></g><g><path d="m263.471 355.727c.268.268.673.381 1.06.259 1.757-.556 3.425-.683 4.824-.364.565.129 1.128-.226 1.256-.791.129-.565-.225-1.128-.791-1.256-1.763-.401-3.811-.259-5.923.41-.553.175-.859.765-.684 1.318.053.165.143.309.258.424z" fill="#9acdae"/></g><g><path d="m252.568 361.319c.448-.356 1.107-.237 1.415.244l3.252 5.082c.622.972 1.771 1.114 2.568.317l2.576-2.576c.797-.797.939-2.23.317-3.202l-2.162-3.379c-.314-.49-.129-1.144.394-1.398l.611-.297c.443-.215.978-.065 1.244.351l1.809 2.828c.622.972 1.771 1.114 2.568.317l2.384-2.384s.144-.144.192-.192c1.522-1.522 2.438-2.891 2.438-2.891.371-.371.806.238 1.189.597.033.031.066.063.098.095l.021.021c.369.375.352.984-.02 1.356l-2.274 2.274-.116.116-2.46 2.46c-.797.797-.655 1.946.317 2.568l2.911 1.863c.415.266.566.8.351 1.244l-.297.612c-.254.524-.908.708-1.398.394l-3.463-2.216c-.972-.622-2.405-.48-3.202.317l-2.576 2.576c-.797.797-.655 1.946.317 2.568l5.17 3.308c.481.308.6.967.245 1.414-.152.192-.307.38-.463.564-.314.369-.854.445-1.262.184l-5.586-3.574c-.972-.622-2.405-.48-3.202.317l-2.114 2.114-2.012 2.012-.41.41c-.378.378-.992.383-1.37.005-.002-.002-.005-.005-.007-.007-.028-.028-.055-.055-.082-.083-.375-.379-.37-.991.007-1.369l-.173-.261s1.566-1.131 2.595-2.161c.529-.529 2.114-2.114 2.114-2.114.797-.797.939-2.23.317-3.202l-3.517-5.497c-.261-.408-.185-.947.183-1.262.183-.156.371-.31.563-.463z" fill="#528f66"/></g></g></g><g><g id="Leaf_20_"><g><path d="m223.672 321.929c9.292 4.479 24.569 11.844 12.018 24.394-12.551 12.551-19.915-2.726-24.394-12.018-2.52-5.227-2.037-9.877.231-12.145s6.918-2.751 12.145-.231z" fill="#53b976"/></g><g><path d="m233.696 344.33-20.176-20.176c.551-.551.551-1.443 0-1.994s-1.443-.551-1.994 0c-2.268 2.268-2.751 6.918-.231 12.145 4.479 9.292 11.844 24.569 24.394 12.018.551-.551.551-1.443 0-1.994-.55-.55-1.442-.55-1.993.001z" fill="#528f66"/></g><g><path d="m223.661 323.961c7.758 3.74 20.515 9.889 10.035 20.369s-16.629-2.277-20.369-10.035c-2.104-4.364-1.7-8.247.193-10.141 1.894-1.894 5.777-2.297 10.141-.193z" fill="#53b976"/></g><g><path d="m222.375 337.169c-.41.41-1.075.41-1.485 0l-1.308-1.308c-.41-.41-.41-1.075 0-1.485s1.075-.41 1.485 0l1.308 1.308c.41.411.41 1.075 0 1.485z" fill="#78c795"/></g><g><path d="m215.916 330.71c-.41.41-1.075.41-1.485 0l-1.308-1.308c-.41-.41-.41-1.075 0-1.485s1.075-.41 1.485 0l1.308 1.308c.41.41.41 1.075 0 1.485z" fill="#78c795"/></g><g><path d="m229.795 344.589c-.41.41-1.075.41-1.485 0l-1.308-1.308c-.41-.41-.41-1.075 0-1.485s1.075-.41 1.485 0l1.308 1.308c.41.411.41 1.075 0 1.485z" fill="#78c795"/></g><g><path d="m236.745 342.315c-.347.347-.901.413-1.325.13-.482-.322-.612-.974-.29-1.456 1.968-2.948 1.983-5.528.048-8.12-.347-.465-.25-1.123.213-1.469.465-.347 1.122-.251 1.469.213 2.472 3.309 2.477 6.856.016 10.542-.039.059-.083.112-.131.16z" fill="#9acdae"/></g><g><path d="m231.832 328.681c-.342.342-.888.412-1.311.139-1.073-.692-2.304-1.397-3.763-2.155-.514-.267-.715-.901-.448-1.416s.901-.715 1.416-.448c1.518.788 2.804 1.526 3.933 2.254.487.314.627.964.313 1.451-.041.065-.088.123-.14.175z" fill="#9acdae"/></g><g><path d="m222.336 323.876c-.268.268-.673.381-1.06.259-1.757-.556-3.425-.683-4.824-.364-.565.129-1.128-.225-1.256-.791-.129-.565.225-1.128.791-1.256 1.763-.401 3.811-.259 5.923.41.553.175.859.765.684 1.318-.053.165-.143.309-.258.424z" fill="#9acdae"/></g><g><path d="m233.239 329.468c-.448-.356-1.107-.237-1.415.244l-3.252 5.082c-.622.972-1.771 1.114-2.568.317l-2.576-2.576c-.797-.797-.939-2.23-.317-3.202l2.162-3.379c.314-.49.129-1.144-.394-1.398l-.611-.297c-.443-.215-.978-.065-1.244.351l-1.809 2.828c-.622.972-1.771 1.114-2.568.317l-2.384-2.384s-.144-.144-.192-.192c-1.522-1.522-2.438-2.891-2.438-2.891-.371-.371-.806.238-1.189.597-.033.031-.066.063-.098.095-.007.007-.014.014-.021.021-.369.375-.352.984.02 1.356l2.274 2.274.116.116 2.46 2.46c.797.797.655 1.946-.317 2.568l-2.911 1.863c-.415.266-.566.8-.351 1.244l.297.612c.254.524.908.708 1.398.394l3.463-2.216c.972-.622 2.405-.48 3.202.317l2.576 2.576c.797.797.655 1.946-.317 2.568l-5.17 3.308c-.481.308-.6.967-.245 1.414.152.192.307.38.463.564.314.369.854.445 1.262.184l5.586-3.574c.972-.622 2.405-.48 3.202.317l2.114 2.114 2.012 2.012.41.41c.378.378.992.383 1.37.005l.007-.007c.028-.028.055-.055.082-.083.375-.379.37-.991-.007-1.369l.173-.261s-1.566-1.131-2.595-2.16c-.529-.529-2.114-2.114-2.114-2.114-.797-.797-.939-2.23-.317-3.202l3.517-5.497c.261-.408.185-.947-.183-1.262-.183-.157-.371-.312-.563-.464z" fill="#528f66"/></g></g><g id="Leaf_19_"><g><path d="m262.135 321.929c-9.292 4.479-24.569 11.844-12.018 24.394 12.551 12.551 19.915-2.726 24.394-12.018 2.52-5.227 2.037-9.877-.231-12.145s-6.918-2.751-12.145-.231z" fill="#53b976"/></g><g><path d="m252.111 344.33 20.176-20.176c-.551-.551-.551-1.443 0-1.994s1.443-.551 1.994 0c2.268 2.268 2.751 6.918.231 12.145-4.479 9.292-11.844 24.569-24.394 12.018-.551-.551-.551-1.443 0-1.994s1.443-.55 1.993.001z" fill="#528f66"/></g><g><path d="m262.146 323.961c-7.758 3.74-20.515 9.889-10.035 20.369s16.629-2.277 20.369-10.035c2.104-4.364 1.7-8.247-.193-10.141s-5.777-2.297-10.141-.193z" fill="#53b976"/></g><g><path d="m263.432 337.169c.41.41 1.075.41 1.485 0l1.308-1.308c.41-.41.41-1.075 0-1.485s-1.075-.41-1.485 0l-1.308 1.308c-.409.411-.409 1.075 0 1.485z" fill="#78c795"/></g><g><path d="m269.892 330.71c.41.41 1.075.41 1.485 0l1.308-1.308c.41-.41.41-1.075 0-1.485s-1.075-.41-1.485 0l-1.308 1.308c-.41.41-.41 1.075 0 1.485z" fill="#78c795"/></g><g><path d="m256.012 344.589c.41.41 1.075.41 1.485 0l1.308-1.308c.41-.41.41-1.075 0-1.485s-1.075-.41-1.485 0l-1.308 1.308c-.41.411-.41 1.075 0 1.485z" fill="#78c795"/></g><g><path d="m249.063 342.315c.347.347.901.413 1.325.13.482-.322.612-.974.29-1.456-1.968-2.948-1.983-5.528-.048-8.12.347-.465.25-1.123-.213-1.469-.465-.347-1.122-.251-1.469.213-2.472 3.309-2.477 6.856-.016 10.542.038.059.082.112.131.16z" fill="#9acdae"/></g><g><path d="m253.975 328.681c.342.342.888.412 1.311.139 1.073-.692 2.304-1.397 3.763-2.155.514-.267.715-.901.448-1.416s-.901-.715-1.416-.448c-1.518.788-2.804 1.526-3.933 2.254-.487.314-.627.964-.313 1.451.041.065.088.123.14.175z" fill="#9acdae"/></g><g><path d="m263.471 323.876c.268.268.673.381 1.06.259 1.757-.556 3.425-.683 4.824-.364.565.129 1.128-.225 1.256-.791.129-.565-.225-1.128-.791-1.256-1.763-.401-3.811-.259-5.923.41-.553.175-.859.765-.684 1.318.053.165.143.309.258.424z" fill="#9acdae"/></g><g><path d="m252.568 329.468c.448-.356 1.107-.237 1.415.244l3.252 5.082c.622.972 1.771 1.114 2.568.317l2.576-2.576c.797-.797.939-2.23.317-3.202l-2.162-3.379c-.314-.49-.129-1.144.394-1.398l.611-.297c.443-.215.978-.065 1.244.351l1.809 2.828c.622.972 1.771 1.114 2.568.317l2.384-2.384s.144-.144.192-.192c1.522-1.522 2.438-2.891 2.438-2.891.371-.371.806.238 1.189.597.033.031.066.063.098.095l.021.021c.369.375.352.984-.02 1.356l-2.274 2.274-.116.116-2.46 2.46c-.797.797-.655 1.946.317 2.568l2.911 1.863c.415.266.566.8.351 1.244l-.297.612c-.254.524-.908.708-1.398.394l-3.463-2.216c-.972-.622-2.405-.48-3.202.317l-2.576 2.576c-.797.797-.655 1.946.317 2.568l5.17 3.308c.481.308.6.967.245 1.414-.152.192-.307.38-.463.564-.314.369-.854.445-1.262.184l-5.586-3.574c-.972-.622-2.405-.48-3.202.317l-2.114 2.114-2.012 2.012-.41.41c-.378.378-.992.383-1.37.005-.002-.002-.005-.005-.007-.007-.028-.028-.055-.055-.082-.083-.375-.379-.37-.991.007-1.369l-.173-.261s1.566-1.131 2.595-2.16c.529-.529 2.114-2.114 2.114-2.114.797-.797.939-2.23.317-3.202l-3.517-5.497c-.261-.408-.185-.947.183-1.262.183-.157.371-.312.563-.464z" fill="#528f66"/></g></g></g><g><path d="m244.532 345.894v48.783h-3.451v-48.783c0-.478.193-.909.504-1.221.224-.224.504-.385.821-.458.129-.032.261-.049.4-.049.953 0 1.726.775 1.726 1.728z" fill="#53b976"/><path d="m242.806 344.166v50.511h-1.725v-48.783c0-.478.193-.909.504-1.221.224-.224.504-.385.821-.458.13-.032.261-.049.4-.049z" fill="#528f66"/></g></g><g><path d="m268.904 407.072h-52.001c-1.709 0-3.095-1.386-3.095-3.095v-6.204c0-1.71 1.386-3.095 3.095-3.095h52.001c1.71 0 3.095 1.386 3.095 3.095v6.204c.001 1.709-1.385 3.095-3.095 3.095z" fill="#f39e22"/><path d="m264.621 402.982h-37.37c-2.293 0-4.152-1.859-4.152-4.152s1.859-4.152 4.152-4.152h37.37c2.293 0 4.152 1.859 4.152 4.152.001 2.293-1.858 4.152-4.152 4.152z" fill="#f9c744"/><path d="m260.816 400.342h-24.029c-1.564 0-2.832-1.268-2.832-2.832s1.268-2.832 2.832-2.832h24.029c1.564 0 2.832 1.268 2.832 2.832s-1.268 2.832-2.832 2.832z" fill="#fad98f"/></g><g><path d="m264.58 407.074-5.323 28.868c-.006.037-.012.067-.025.104-.502 2.456-2.671 4.233-5.188 4.233h-22.277c-2.56 0-4.753-1.825-5.213-4.337l-5.329-28.868z" fill="#f9c744"/><path d="m264.58 407.074-5.323 28.868c-.006.037-.012.067-.025.104h-7.822c-10.462 0-18.939-8.477-18.939-18.939v-10.033z" fill="#fad98f"/><path d="m250.785 430.59c-2.505-.461-4.162-2.867-3.701-5.372l2.16-11.731c.461-2.505 2.867-4.162 5.372-3.701s4.162 2.867 3.701 5.372l-2.16 11.731c-.461 2.505-2.866 4.162-5.372 3.701z" fill="#faefdc"/></g></g></g><g><g><g><g><path d="m348.802 220.318c20.532 28.052 35.909 40.596 50.215 40.596 24.562-.532 30.921-30.515 37.07-56.672l-7.653-1.756-14.845-3.407c-2.476 10.766-5.163 21.945-8.486 29.878-.999 2.381-1.916 4.129-2.71 5.41-1.543 2.488-4.787 3.3-7.314 1.822-4.645-2.718-13.374-10.008-27.64-29.505l-10.319 7.548z" fill="#f39e22"/><path d="m357.12 214.232c16.559 25.569 29.2 37.063 40.987 37.063 19.056-.483 25.387-24.855 30.326-48.808l-14.845-3.407c-2.476 10.766-5.163 21.945-8.486 29.878-.999 2.381-1.916 4.129-2.71 5.41-1.543 2.488-4.787 3.3-7.314 1.822-4.645-2.718-13.374-10.008-27.64-29.505z" fill="#f9c744"/></g><g><path d="m410.916 201.416c0 2.945 1.175 5.771 3.253 7.849l10.361 10.361c2.204 2.211 5.072 3.365 7.968 3.463.133.007.273.007.406.007 3.029 0 6.065-1.154 8.381-3.47l15.383-15.383c1.322-1.329 1.322-3.477 0-4.799l-1.273-1.273c-1.329-1.322-3.477-1.322-4.799 0l6.982-6.982c1.322-1.322 1.322-3.47 0-4.799l-1.273-1.273c-1.329-1.322-3.477-1.322-4.799 0l3.785-3.785c1.322-1.322 1.322-3.477 0-4.799l-1.273-1.273c-1.322-1.322-3.47-1.322-4.799 0l-3.421 3.421c1.322-1.322 1.322-3.47 0-4.799l-1.273-1.273c-1.322-1.322-3.47-1.322-4.799 0l-15.803 15.803v-7.233c0-2.84-2.295-5.135-5.135-5.135h-2.721c-2.84 0-5.135 2.295-5.135 5.135v20.231z" fill="#9b5b42"/><g><g><path d="m432.513 189.419.258-.258 11.751-11.752c1.325-1.325 1.325-3.473 0-4.798l1.273 1.273c1.325 1.325 1.325 3.473 0 4.798l-13.283 13.283c.001 0-.702-1.843.001-2.546z" fill="#8e4e3f"/></g><g><path d="m444.291 201.926.258-.258 11.751-11.752c1.325-1.325 1.325-3.473 0-4.798l1.273 1.273c1.325 1.325 1.325 3.473 0 4.798l-13.283 13.283c.001 0-.702-1.843.001-2.546z" fill="#8e4e3f"/></g><g><path d="m439.908 194.167.258-.258 13.85-13.851c1.325-1.325 1.325-3.473 0-4.798l1.273 1.273c1.325 1.325 1.325 3.473 0 4.798l-15.382 15.382c.001 0-.702-1.843.001-2.546z" fill="#8e4e3f"/></g><g fill="#8e4e3f"><path d="m423.923 181.176v7.237l-2.746 2.746v-10.004c0-2.825-2.29-5.115-5.115-5.115h2.725c2.837.001 5.136 2.3 5.136 5.136z"/><path d="m424.552 219.626c2.145 2.152 4.921 3.295 7.738 3.445.033.002.066.006.099.008.044.002.088.009.132.01l.003-.01c3.165.109 6.366-1.038 8.782-3.455l15.381-15.381c1.325-1.325 1.325-3.473 0-4.798l-1.273-1.273c1.325 1.325 1.325 3.473 0 4.798l-13.851 13.851c-.021.023-.043.045-.064.067-2.488 2.588-7.273 3.58-10.749 2.29-1.9-.705-3.992-.688-5.794.241z"/></g></g></g></g><g><g><g><g><path d="m331.254 417.623v15.662c0 3.865-3.128 6.993-6.993 6.993h-44.321c-1.927 0-3.683-.777-4.945-2.049-1.261-1.261-2.049-3.007-2.049-4.945 0-.464.02-.918.061-1.362.091-1.019.272-2.008.545-2.957 1.877-6.549 7.912-11.343 15.066-11.343h42.636z" fill="#a26d5a"/><path d="m319.931 417.623v4.349c0 3.855-3.128 6.993-6.993 6.993h-39.387c1.877-6.549 7.912-11.343 15.066-11.343h31.314z" fill="#c17e62"/><path d="m306.879 417.622h-18.603c-2.319 0-4.199 1.88-4.199 4.199s1.88 4.199 4.199 4.199h18.603c2.319 0 4.199-1.88 4.199-4.199s-1.88-4.199-4.199-4.199z" fill="#d48d77"/><path d="m300.974 426.019c-1.244 0-2.253-1.009-2.253-2.253v-6.143h4.505v6.143c0 1.244-1.008 2.253-2.252 2.253z" fill="#334353"/><path d="m291.963 426.019c-1.244 0-2.253-1.009-2.253-2.253v-6.143h4.505v6.143c0 1.244-1.008 2.253-2.252 2.253z" fill="#334353"/><g><path d="m331.446 435.344v2.876c0 1.13-.858 2.059-1.924 2.059h-54.844c-1.066 0-1.924-.928-1.924-2.059v-2.876c0-.101.009-.212.028-.313.132-.989.934-1.746 1.895-1.746h54.844c.962 0 1.763.757 1.905 1.746.01.101.02.212.02.313z" fill="#3e4e60"/><path d="m331.427 435.031c-.141.989-.943 1.746-1.905 1.746h-54.844c-.962 0-1.763-.757-1.895-1.746.132-.989.934-1.746 1.895-1.746h54.844c.962 0 1.763.757 1.905 1.746z" fill="#3f5d77"/></g></g><g><path d="m341.518 417.623v15.662c0 3.865 3.128 6.993 6.993 6.993h44.321c1.927 0 3.683-.777 4.945-2.049 1.261-1.261 2.048-3.007 2.048-4.945 0-.464-.02-.918-.061-1.362-.091-1.019-.272-2.008-.545-2.957-1.877-6.549-7.912-11.343-15.066-11.343h-42.635z" fill="#a26d5a"/><path d="m352.841 417.623v4.349c0 3.855 3.128 6.993 6.993 6.993h39.387c-1.877-6.549-7.912-11.343-15.066-11.343h-31.314z" fill="#c17e62"/><path d="m365.893 417.622h18.603c2.319 0 4.199 1.88 4.199 4.199s-1.88 4.199-4.199 4.199h-18.603c-2.319 0-4.199-1.88-4.199-4.199s1.88-4.199 4.199-4.199z" fill="#d48d77"/><path d="m371.799 426.019c1.244 0 2.253-1.009 2.253-2.253v-6.143h-4.505v6.143c-.001 1.244 1.008 2.253 2.252 2.253z" fill="#334353"/><path d="m380.81 426.019c1.244 0 2.253-1.009 2.253-2.253v-6.143h-4.505v6.143c-.001 1.244 1.008 2.253 2.252 2.253z" fill="#334353"/><g><path d="m341.327 435.344v2.876c0 1.13.858 2.059 1.924 2.059h54.844c1.066 0 1.924-.928 1.924-2.059v-2.876c0-.101-.009-.212-.028-.313-.132-.989-.934-1.746-1.895-1.746h-54.846c-.962 0-1.763.757-1.905 1.746-.009.101-.018.212-.018.313z" fill="#3e4e60"/><path d="m341.346 435.031c.141.989.943 1.746 1.905 1.746h54.844c.962 0 1.763-.757 1.895-1.746-.132-.989-.934-1.746-1.895-1.746h-54.845c-.961 0-1.763.757-1.904 1.746z" fill="#3f5d77"/></g></g></g><g><path d="m371.65 299.625v117.998h-30.133v-77.149c0-1.423-.575-2.705-1.504-3.633-.928-.928-2.22-1.504-3.633-1.504-2.836 0-5.126 2.301-5.126 5.137v77.149h-30.133v-117.998z" fill="#3e4e60"/><path d="m354.868 299.625v117.998h-13.351v-77.149c0-1.423-.575-2.705-1.504-3.633-.928-.928-2.22-1.504-3.633-1.504-2.836 0-5.126 2.301-5.126 5.137v77.149h-30.133v-117.998z" fill="#3f5d77"/><path d="m336.38 335.338c-2.836 0-5.126 2.301-5.126 5.137v77.149h-11.322v-65.836c-.001-9.085 7.364-16.45 16.448-16.45z" fill="#3e4e60"/></g></g><g><path d="m301.118 219.068v80.556h70.534v-80.556c0-14.493-11.746-26.248-26.248-26.248h-18.038c-14.502 0-26.248 11.755-26.248 26.248z" fill="#f39e22"/><path d="m301.118 219.068v80.556h53.736v-80.556c0-14.493-11.746-26.248-26.248-26.248h-1.241c-14.501 0-26.247 11.755-26.247 26.248z" fill="#f9c744"/></g><g><path d="m324.731 181.799v12.657c0 6.437 5.221 11.65 11.658 11.65 2.159 0 4.181-.588 5.913-1.611 3.432-2.022 5.736-5.76 5.736-10.038v-12.657h-23.307z" fill="#9b5b42"/><path d="m348.038 181.799v12.657c0 4.278-2.304 8.016-5.736 10.038v-13.527c-4.052 1.692-8.508 2.626-13.18 2.626-1.491 0-2.957-.097-4.391-.274v-11.521h23.307z" fill="#8e4e3f"/></g><g><g><path d="m294.834 105.578v47.629c0 9.466 3.835 18.038 10.038 24.242 4.479 4.471 10.183 7.71 16.564 9.176 2.473.564 5.043.862 7.686.862 18.932 0 34.288-15.347 34.288-34.28v-47.629c0-10.377-8.419-18.787-18.795-18.787h-30.993c-1.821 0-3.577.258-5.245.749-7.823 2.263-13.543 9.482-13.543 18.038z" fill="#8e4e3f"/><path d="m294.834 105.578v47.629c0 9.466 3.835 18.038 10.038 24.242 4.479 4.471 10.183 7.71 16.564 9.176 15.243-3.488 26.602-17.128 26.602-33.418v-18.224c0-23.71-17.112-43.416-39.662-47.444-7.822 2.264-13.542 9.483-13.542 18.039z" fill="#9b5b42"/><g fill="#8e4e3f"><path d="m319.426 137.14h6.99c2.871 0 5.198 2.327 5.198 5.198s-2.327 5.198-5.198 5.198h-6.99c-2.871 0-5.198-2.327-5.198-5.198s2.327-5.198 5.198-5.198z"/><path d="m320.352 86.789h8.769v53.879h-8.769z" transform="matrix(-1 0 0 -1 649.472 227.458)"/></g><g fill="#334353"><path d="m341.426 119.807c2.624 0 4.75 2.127 4.75 4.75v8.291c0 2.624-2.127 4.75-4.75 4.75-2.624 0-4.75-2.127-4.75-4.75v-8.291c-.001-2.623 2.126-4.75 4.75-4.75z"/><path d="m314.047 119.807c2.624 0 4.75 2.127 4.75 4.75v8.291c0 2.624-2.127 4.75-4.75 4.75s-4.75-2.127-4.75-4.75v-8.291c-.001-2.623 2.126-4.75 4.75-4.75z"/></g><g><path d="m327.879 166.694c8.229 0 14.924-6.695 14.924-14.924 0-1.557-1.262-2.82-2.82-2.82-1.557 0-2.82 1.262-2.82 2.82 0 5.119-4.165 9.285-9.285 9.285-1.557 0-2.82 1.262-2.82 2.82s1.264 2.819 2.821 2.819z" fill="#723e33"/></g></g><g><path d="m290.081 108.986c0-11.767 4.773-22.423 12.483-30.133 5.5-5.5 12.503-9.506 20.334-11.353 3.148-.737 6.428-1.13 9.799-1.13 23.543 0 42.616 19.073 42.616 42.616l-.076 46.622c-.02 12.033-9.78 21.777-21.813 21.777 6.17-6.199 9.986-14.743 9.986-24.178v-39.478h-33.506c-8.064 0-14.602-6.537-14.602-14.602 0 8.064-6.537 14.602-14.602 14.602h-5.866v39.478c0 9.435 3.811 17.98 9.978 24.178-8.136 0-14.731-6.595-14.731-14.731z" fill="#442a21"/><path d="m290.081 108.986c0-11.767 4.773-22.423 12.483-30.133 5.5-5.5 12.503-9.506 20.334-11.353 18.81 4.43 32.817 21.313 32.817 41.486v4.743h-25.812c-8.064 0-14.602-6.537-14.602-14.602 0 8.064-6.537 14.602-14.602 14.602h-5.866v39.478c0 9.435 3.811 17.98 9.978 24.178-8.136 0-14.731-6.595-14.731-14.731v-53.668z" fill="#543029"/></g><g><g><path d="m369.185 143.787h-5.779v-18.084h5.779c4.994 0 9.042 4.048 9.042 9.042s-4.048 9.042-9.042 9.042z" fill="#8e4e3f"/><path d="m369.477 138.625h-6.071v-7.76h6.071c2.143 0 3.88 1.737 3.88 3.88s-1.737 3.88-3.88 3.88z" fill="#723e33"/></g><g><path d="m292.304 125.703h2.531v18.084h-2.531c-4.994 0-9.042-4.048-9.042-9.042s4.048-9.042 9.042-9.042z" fill="#8e4e3f"/><path d="m292.012 130.865h2.822v7.76h-2.822c-2.143 0-3.88-1.737-3.88-3.88s1.738-3.88 3.88-3.88z" fill="#723e33"/></g></g></g></g><g><g><path d="m315.941 202.377c5.727.554 9.831 5.685 9.083 11.39-3.674 28-10.3 43.604-21.31 50.133-21.398 12.07-42.16-10.476-60.791-29.838l5.687-5.414 11.031-10.502c7.621 7.997 15.634 16.243 22.538 21.372 2.076 1.54 3.758 2.577 5.095 3.273 2.598 1.354 5.81.376 7.228-2.188 2.112-3.819 4.992-11.575 7.244-27.124.999-6.893 7.263-11.772 14.195-11.102z" fill="#f39e22"/><path d="m315.941 202.377c-1.201 30.439-6.212 46.773-16.351 52.785-16.637 9.304-34.514-8.431-50.98-26.515l11.031-10.502c7.621 7.997 15.634 16.243 22.538 21.372 2.076 1.54 3.758 2.577 5.095 3.273 2.602 1.355 5.813.374 7.232-2.195 2.109-3.818 4.983-11.56 7.233-27.067 1.003-6.909 7.251-11.823 14.202-11.151z" fill="#f9c744"/></g><g><path d="m245.312 214.239-21.653-5.533c-1.818-.459-3.665.636-4.128 2.448l-.446 1.744c-.459 1.818.636 3.665 2.448 4.128l-4.687-1.198c-1.818-.459-3.665.636-4.128 2.448l-.446 1.745c-.462 1.808.64 3.666 2.448 4.128l5.186 1.325c-1.812-.463-3.659.633-4.128 2.448l-.446 1.745c-.459 1.818.636 3.665 2.448 4.128l9.566 2.444c-1.812-.463-3.659.633-4.128 2.448l-.446 1.745c-.463 1.812.633 3.659 2.448 4.128l21.078 5.386c3.173.811 6.373.255 8.979-1.29.114-.068.235-.139.345-.213 2.441-1.561 4.32-4.017 5.087-7.043l3.627-14.196c.364-1.423.438-2.893.233-4.323-.341-2.384-2.186-4.279-4.519-4.875z" fill="#9b5b42"/><g><path d="m238.435 219.489-.354-.09-16.102-4.114c-1.816-.464-2.911-2.312-2.447-4.127l-.446 1.744c-.464 1.816.632 3.663 2.447 4.127l18.2 4.65c.001-.001-.334-1.944-1.298-2.19z" fill="#8e4e3f"/></g><g><path d="m234.684 236.254-.354-.09-16.102-4.114c-1.815-.464-2.911-2.312-2.447-4.127l-.446 1.744c-.464 1.816.632 3.663 2.447 4.127l18.2 4.65c.001 0-.334-1.944-1.298-2.19z" fill="#8e4e3f"/></g><g><path d="m234.496 227.344-.354-.09-18.978-4.849c-1.815-.464-2.911-2.312-2.447-4.127l-.446 1.744c-.464 1.816.632 3.663 2.447 4.127l21.076 5.385c.001 0-.334-1.944-1.298-2.19z" fill="#8e4e3f"/></g><path d="m260.69 241.41c-.748 2.945-2.552 5.344-4.899 6.91-.027.018-.053.039-.081.057-.037.024-.071.052-.108.076l-.008-.007c-2.667 1.708-6.005 2.354-9.316 1.507l-21.075-5.385c-1.816-.464-2.911-2.312-2.447-4.127l.446-1.744c-.464 1.815.632 3.663 2.447 4.127l18.978 4.849c.03.008.06.017.089.025 3.46.957 8.082-.63 10.414-3.513 1.275-1.576 3.083-2.628 5.107-2.748z" fill="#8e4e3f"/></g><g><g><g><g><path d="m215.67 226.8 24.975 17.51c4.7 3.295 7.346 8.427 7.65 13.747.222 3.902-.818 7.905-3.239 11.358l-20.056 28.606c-2.421 3.453-5.829 5.796-9.573 6.917-5.106 1.527-10.832.789-15.532-2.506l-24.975-17.51c-4.7-3.295-7.346-8.427-7.65-13.747-.222-3.902.818-7.905 3.239-11.357l20.056-28.606c2.421-3.453 5.829-5.796 9.573-6.917 5.105-1.528 10.832-.79 15.532 2.505z" fill="#f39e22"/><g><path d="m215.67 226.8 24.975 17.51c4.7 3.295 7.346 8.427 7.65 13.747-5.106 1.527-10.832.789-15.532-2.506l-24.975-17.51c-4.7-3.295-7.346-8.427-7.65-13.747 5.105-1.527 10.832-.789 15.532 2.506z" fill="#dd8c29"/><path d="m182.801 273.681 24.975 17.51c4.7 3.295 7.346 8.427 7.65 13.747-5.106 1.527-10.832.789-15.532-2.506l-24.975-17.51c-4.7-3.295-7.346-8.427-7.65-13.747 5.106-1.527 10.832-.789 15.532 2.506z" fill="#f9c744"/></g><path d="m186.018 257.311h43.527v14.612h-43.527z" fill="#dd8c29" transform="matrix(.574 -.819 .819 .574 -128.17 282.84)"/><path d="m217.351 233.87h13.729v14.612h-13.729z" fill="#c68132" transform="matrix(.574 -.819 .819 .574 -101.976 286.312)"/><path d="m184.483 280.751h13.729v14.612h-13.729z" fill="#f39e22" transform="matrix(.574 -.819 .819 .574 -154.362 279.367)"/></g><path d="m187.837 235.101-14.602 20.828c-2.089 2.98-1.367 7.089 1.613 9.179 2.98 2.089 7.089 1.367 9.179-1.613l14.602-20.828c2.089-2.98 1.367-7.089-1.613-9.179-2.98-2.089-7.089-1.367-9.179 1.613z" fill="#c68132"/><g><path d="m243.971 212.996.003.002c3.176 2.226 5.245 5.447 6.075 8.949.978 4.096.261 8.576-2.346 12.294l-7.06 10.07-6.504-4.56 7.06-10.07c.777-1.109 1.205-2.363 1.303-3.621.194-2.495-.895-5.019-3.089-6.558l-.003-.002c-3.303-2.316-7.86-1.515-10.178 1.791l-7.06 10.07-6.504-4.56 7.06-10.07c4.837-6.897 14.349-8.568 21.243-3.735z" fill="#c68132"/><path d="m243.971 212.996.003.002c.696.488 1.339 1.025 1.929 1.602 2.094 2.05 3.496 4.613 4.146 7.346-2.288 1.815-4.845 3.195-7.547 4.113.194-2.495-.895-5.019-3.089-6.558l-.003-.002c-.144-.101-.29-.195-.439-.282-2.941-1.769-6.707-1.231-9.042 1.222-.25.264-.481.545-.696.851l-3.305 4.714c-2.144-.75-4.223-1.807-6.175-3.175-.292-.204-.579-.415-.86-.629l3.836-5.471c4.836-6.895 14.348-8.566 21.242-3.733z" fill="#dd8c29"/><path d="m243.971 212.996.003.002c.696.488 1.339 1.025 1.929 1.602-1.988 2.068-4.363 3.619-6.932 4.618-2.941-1.769-6.707-1.231-9.042 1.222-2.745-.28-5.457-1.147-7.951-2.638l.751-1.071c4.836-6.897 14.348-8.568 21.242-3.735z" fill="#f39e22"/></g></g><g><g><path d="m142.445 284.125 34.393-6.043c1.448-.254 2.85.308 3.733 1.36.434.514.743 1.151.868 1.863.19 1.08-.076 2.136-.66 2.969s-1.486 1.442-2.566 1.632l-34.393 6.043z" fill="#dd8c29"/><path d="m142.445 284.125 34.393-6.043c1.448-.254 2.85.308 3.733 1.36-.118.329-.282.637-.479.918-.584.833-1.486 1.442-2.566 1.632l-34.393 6.043z" fill="#f39e22"/></g><g><path d="m129.748 271.325c5.598-.984 10.93 2.755 11.913 8.353l2.938 16.72c.492 2.799-.199 5.53-1.71 7.686s-3.843 3.736-6.642 4.228c-.903.159-1.793.107-2.62-.12-2.163-.594-3.902-2.386-4.316-4.74l-4.427-25.194c-.286-1.629.114-3.22.997-4.474.392-.559.882-1.053 1.445-1.453.701-.496 1.519-.848 2.422-1.006z" fill="#f39e22"/><path d="m127.326 272.33c4.2.68 7.706 3.944 8.484 8.375l2.938 16.72c.492 2.799-.199 5.53-1.71 7.686-.882 1.257-2.042 2.317-3.411 3.08-2.163-.594-3.902-2.386-4.316-4.74l-4.427-25.194c-.286-1.629.114-3.22.997-4.474.392-.559.882-1.053 1.445-1.453z" fill="#f9c744"/><g fill="#c68132"><ellipse cx="130.78" cy="300.542" rx=".939" ry="2.262" transform="matrix(.985 -.173 .173 .985 -50.036 27.166)"/><ellipse cx="129.605" cy="293.859" rx=".939" ry="2.262" transform="matrix(.985 -.173 .173 .985 -48.897 26.862)"/><ellipse cx="128.431" cy="287.175" rx=".939" ry="2.262" transform="matrix(.985 -.173 .173 .985 -47.758 26.558)"/><ellipse cx="127.257" cy="280.491" rx=".939" ry="2.262" transform="matrix(.985 -.173 .173 .985 -46.619 26.254)"/><ellipse cx="136.426" cy="299.55" rx=".939" ry="2.262" transform="matrix(.985 -.173 .173 .985 -49.779 28.128)"/><ellipse cx="135.251" cy="292.867" rx=".939" ry="2.262" transform="matrix(.985 -.173 .173 .985 -48.64 27.824)"/><ellipse cx="134.077" cy="286.183" rx=".939" ry="2.262" transform="matrix(.985 -.173 .173 .985 -47.501 27.52)"/><ellipse cx="132.903" cy="279.499" rx=".939" ry="2.262" transform="matrix(.985 -.173 .173 .985 -46.362 27.216)"/><ellipse cx="133.016" cy="296.705" rx=".939" ry="2.262" transform="matrix(.985 -.173 .173 .985 -49.338 27.495)"/><ellipse cx="134.19" cy="303.388" rx=".939" ry="2.262" transform="matrix(.985 -.173 .173 .985 -50.477 27.799)"/><ellipse cx="131.841" cy="290.021" rx=".939" ry="2.262" transform="matrix(.985 -.173 .173 .985 -48.199 27.191)"/><ellipse cx="130.667" cy="283.337" rx=".939" ry="2.262" transform="matrix(.985 -.173 .173 .985 -47.06 26.887)"/><ellipse cx="129.493" cy="276.654" rx=".939" ry="2.262" transform="matrix(.985 -.173 .173 .985 -45.921 26.583)"/></g></g></g></g><g fill="#cde6f6"><path d="m113.573 285.542c-1.126 0-2.149-.767-2.427-1.91-.326-1.342.497-2.693 1.839-3.02.843-.205 1.696-.391 2.557-.558 1.351-.262 2.667.622 2.93 1.978.263 1.355-.623 2.667-1.978 2.93-.784.152-1.561.322-2.329.508-.198.049-.397.072-.592.072z"/><path d="m81.083 309.208c-.446 0-.898-.12-1.306-.37-1.176-.723-1.544-2.262-.822-3.439.833-1.355 1.736-2.692 2.685-3.974.821-1.111 2.387-1.344 3.497-.522 1.11.821 1.344 2.387.522 3.497-.863 1.167-1.685 2.383-2.442 3.616-.473.768-1.294 1.192-2.134 1.192z"/><path d="m89.708 298.554c-.661 0-1.32-.26-1.812-.776-.952-1-.913-2.583.087-3.535 1.154-1.098 2.371-2.159 3.615-3.153 1.077-.862 2.651-.687 3.513.393.862 1.079.686 2.652-.393 3.513-1.132.904-2.238 1.87-3.288 2.869-.483.46-1.103.689-1.722.689z"/><path d="m100.783 290.478c-.886 0-1.744-.471-2.197-1.304-.661-1.212-.214-2.73.998-3.392 1.399-.763 2.85-1.474 4.311-2.111 1.265-.552 2.739.025 3.291 1.291.553 1.265-.025 2.739-1.291 3.291-1.328.58-2.646 1.226-3.917 1.919-.38.207-.79.306-1.195.306z"/><path d="m117.082 305.5c-1.091 0-2.093-.719-2.404-1.821-.375-1.329.397-2.71 1.727-3.085.865-.244 1.752-.455 2.637-.626 1.355-.263 2.667.623 2.93 1.979.263 1.355-.623 2.667-1.979 2.93-.748.146-1.498.324-2.229.53-.228.063-.457.093-.682.093z"/><path d="m96.464 326.796c-.2 0-.404-.024-.606-.075-1.34-.334-2.155-1.691-1.821-3.03.451-1.809 1.066-3.592 1.827-5.299.563-1.261 2.041-1.827 3.302-1.265s1.827 2.041 1.265 3.302c-.643 1.44-1.162 2.945-1.542 4.471-.284 1.136-1.304 1.896-2.425 1.896zm7.445-13.419c-.625 0-1.251-.233-1.736-.702-.993-.959-1.021-2.542-.062-3.535 1.298-1.344 2.722-2.581 4.233-3.676 1.119-.809 2.682-.561 3.491.557.811 1.118.561 2.681-.557 3.491-1.274.924-2.476 1.967-3.571 3.102-.49.508-1.144.763-1.798.763z"/><path d="m115.325 295.513c-1.115 0-2.131-.751-2.42-1.882-.342-1.337.466-2.699 1.804-3.041.848-.216 1.717-.412 2.583-.579 1.355-.267 2.667.623 2.93 1.979.263 1.355-.623 2.667-1.979 2.93-.77.149-1.543.323-2.297.516-.208.052-.416.077-.621.077z"/><path d="m89.466 315.044c-.428 0-.862-.11-1.258-.342-1.192-.696-1.594-2.227-.898-3.419.983-1.684 2.088-3.319 3.284-4.862.846-1.092 2.416-1.291 3.507-.444 1.091.846 1.29 2.417.444 3.507-1.062 1.371-2.044 2.824-2.918 4.32-.464.796-1.301 1.24-2.161 1.24z"/><path d="m100.435 302.68c-.757 0-1.504-.342-1.996-.992-.833-1.101-.616-2.669.485-3.502 1.56-1.18 3.21-2.265 4.907-3.225 1.202-.68 2.727-.257 3.407.945s.256 2.727-.945 3.407c-1.505.851-2.969 1.813-4.353 2.859-.45.343-.98.508-1.505.508z"/></g></g><g><path d="m260.062 226.671c.382 2.721-1.166 5.273-3.619 6.248-.418.166-.855.286-1.323.353l-16.778 2.404c-3.186.459-6.142-1.756-6.601-4.942-.029-.236-.055-.462-.052-.7-.056-2.442 1.435-4.648 3.675-5.538.418-.166.855-.286 1.323-.353l16.778-2.404c1.995-.287 3.9.473 5.154 1.869.756.818 1.271 1.872 1.443 3.063z" fill="#9b5b42"/><path d="m257.366 229.498c1.171.171 1.621 1.649.725 2.422-.483.417-1.038.757-1.648 1-.418.166-.855.286-1.323.353l-16.778 2.404c-3.186.459-6.142-1.756-6.601-4.942-.029-.236-.055-.462-.052-.7 1.254 1.396 3.159 2.156 5.158 1.878l16.774-2.414.014-.002c1.026-.149 2.705-.149 3.731.001z" fill="#8e4e3f"/></g></g></g><g><g><path d="m426.46 128.528-31.843 55.154c-1.603 2.776-.652 6.323 2.122 7.925l26.539 15.322c.679.392 1.405.63 2.135.727 2.259.3 4.578-.755 5.789-2.852l31.843-55.154c1.21-2.095.963-4.632-.426-6.438-.449-.583-1.018-1.093-1.697-1.485l-26.539-15.323c-2.774-1.601-6.321-.65-7.923 2.124z" fill="#334353"/><path d="m426.46 128.528-29.066 50.344c22.213-3.725 42.654-16.978 54.796-38.008.607-1.051 1.186-2.109 1.737-3.175l-19.544-11.284c-2.774-1.602-6.321-.651-7.923 2.123z" fill="#3e4e60"/><path d="m458.905 145.222-33.608 58.211c-.786 1.362-.692 2.993.116 4.224 2.259.3 4.578-.755 5.789-2.852l31.843-55.154c1.21-2.095.963-4.632-.426-6.438-1.469-.085-2.928.647-3.714 2.009z" fill="#2e3140"/><g fill="#3f5d77"><circle cx="410.051" cy="193.394" r="3.793"/><path d="m432.925 131.131 15.036 8.681c1.153.666 2.627.271 3.293-.882s.271-2.627-.882-3.293l-15.036-8.681c-1.153-.666-2.627-.271-3.293.882s-.271 2.627.882 3.293z"/></g></g><g><g><path d="m456.337 156.481-6.819 11.81c-.22.38-.089.868.291 1.088l.926.534c1.098.634 2.499.259 3.132-.838l5.324-9.221c.633-1.096.259-2.499-.839-3.133l-.926-.534c-.381-.219-.868-.089-1.089.294z" fill="#334353"/><path d="m456.337 156.481-4.319 7.48c-.221.382-.09.87.29 1.09l.926.534c1.098.634 2.5.257 3.133-.839l2.824-4.891c.633-1.096.259-2.499-.839-3.133l-.926-.534c-.381-.22-.868-.09-1.089.293z" fill="#3e4e60"/></g><g><path d="m423.188 137.342-3.026 5.242c-.22.38-.707.511-1.088.291l-.926-.534c-1.098-.634-1.473-2.035-.841-3.131l1.531-2.652c.633-1.096 2.035-1.473 3.133-.839l.926.534c.381.219.512.707.291 1.089z" fill="#334353"/><path d="m423.188 137.342-1.79 3.101c-.221.382-.708.513-1.089.293l-.926-.534c-1.098-.634-1.472-2.037-.839-3.133l.295-.511c.633-1.096 2.035-1.473 3.133-.839l.926.534c.38.219.511.707.29 1.089z" fill="#3e4e60"/></g><g><path d="m417.484 147.222-3.026 5.242c-.22.38-.707.511-1.088.291l-.926-.534c-1.098-.634-1.473-2.035-.841-3.131l1.531-2.652c.633-1.096 2.035-1.473 3.133-.839l.926.534c.381.219.511.707.291 1.089z" fill="#334353"/><path d="m417.484 147.222-1.79 3.101c-.221.382-.708.513-1.089.293l-.926-.534c-1.098-.634-1.472-2.037-.839-3.133l.295-.511c.633-1.096 2.035-1.473 3.133-.839l.926.534c.38.219.51.707.29 1.089z" fill="#3e4e60"/></g></g><g><path d="m398.205 145.619h57.816v36.445h-57.816z" fill="#22bce0" transform="matrix(.5 -.866 .866 .5 71.666 451.812)"/><path d="m425.786 129.695-28.392 49.177c21.133-3.543 40.658-15.71 52.961-34.992z" fill="#4fcae8"/></g></g></g><g><g id="Speech-bubble_3_"><path d="m247.624 172.611c-2.956 0-5.852-1.443-7.591-4.101l-29.227-44.668c-2.74-4.188-1.567-9.804 2.621-12.544 4.187-2.74 9.803-1.566 12.544 2.621l29.227 44.668c2.74 4.188 1.567 9.804-2.621 12.544-1.53 1.001-3.251 1.48-4.953 1.48z" fill="#ebd9ea"/><path d="m274.48 47.31v56.6c0 7.98-2.7 15.32-7.24 21.18-6.32 8.13-16.2 13.37-27.3 13.37h-87.53c-11.1 0-20.98-5.24-27.29-13.37-4.55-5.86-7.25-13.2-7.25-21.18v-56.6c0-2.53.27-5 .79-7.38 3.54-2.26 7.14-4.43 10.79-6.51 14.67-8.36 30.24-15.31 46.53-20.66h63.96c11.1 0 20.98 5.24 27.3 13.38 4.54 5.84 7.24 13.19 7.24 21.17z" fill="#ebd9ea"/><path d="m274.485 47.311v56.594c0 7.983-2.704 15.326-7.246 21.181-4.548-5.855-7.252-13.198-7.252-21.181v-56.594c0-7.983 2.704-15.326 7.252-21.174 4.541 5.848 7.246 13.191 7.246 21.174z" fill="#fff"/><path d="m132.36 47.31v56.6c0 7.98-2.7 15.32-7.24 21.18-4.55-5.86-7.25-13.2-7.25-21.18v-56.6c0-2.53.27-5 .79-7.38 3.54-2.26 7.14-4.43 10.79-6.51 1.87 4.25 2.91 8.95 2.91 13.89z" fill="#c1b7d3"/></g><g><g><path d="m238.688 56.312v46.633c0 1.575-.422 3.052-1.158 4.324-.958 1.661-2.457 2.976-4.254 3.696-.996.406-2.089.628-3.231.628h-67.733c-1.147 0-2.24-.222-3.236-.628-1.797-.725-3.296-2.035-4.254-3.696-.736-1.272-1.158-2.749-1.158-4.324v-46.633c0-3.631 2.235-6.743 5.412-8.02.996-.406 2.089-.628 3.236-.628h67.733c1.142 0 2.235.222 3.231.628 3.171 1.277 5.412 4.384 5.412 8.02z" fill="#d48d77"/><path d="m164.487 56.312v46.633c0 3.637-2.24 6.743-5.412 8.02-3.177-1.277-5.412-4.389-5.412-8.02v-46.633c0-3.631 2.235-6.743 5.412-8.02 3.172 1.277 5.412 4.384 5.412 8.02z" fill="#c17e62"/><path d="m238.688 56.312v46.633c0 1.575-.422 3.052-1.158 4.324-.958 1.661-2.457 2.976-4.254 3.696-1.797-.725-3.296-2.035-4.254-3.696-.736-1.272-1.158-2.749-1.158-4.324v-46.633c0-3.631 2.235-6.743 5.412-8.02 3.171 1.277 5.412 4.384 5.412 8.02z" fill="#eea47d"/><path d="m237.529 107.269c-1.494 2.587-4.286 4.324-7.484 4.324h-67.733c-1.147 0-2.24-.222-3.236-.628-1.797-.725-3.296-2.035-4.254-3.696.958-1.661 2.457-2.971 4.254-3.696.996-.406 2.089-.628 3.236-.628h67.733c3.198 0 5.991 1.737 7.484 4.324z" fill="#a26d5a"/></g><g><path d="m228.255 83.389h-64.158c-5.762 0-10.433-4.671-10.433-10.433v-4.781h85.024v4.781c0 5.762-4.671 10.433-10.433 10.433z" fill="#a26d5a"/><path d="m238.688 56.312v14.319c0 3.761-3.052 6.813-6.813 6.813h-71.397c-3.761 0-6.813-3.052-6.813-6.813v-14.319c0-3.631 2.235-6.743 5.412-8.02.996-.406 2.089-.628 3.236-.628h67.733c1.142 0 2.235.222 3.231.628 3.17 1.277 5.411 4.384 5.411 8.02z" fill="#c17e62"/><path d="m164.487 56.312v21.133h-4.01c-3.761 0-6.813-3.052-6.813-6.813v-14.32c0-3.631 2.235-6.743 5.412-8.02 3.171 1.277 5.411 4.384 5.411 8.02z" fill="#a26d5a"/><path d="m238.688 56.312v14.319c0 3.761-3.052 6.813-6.813 6.813h-4.01v-21.132c0-3.631 2.235-6.743 5.412-8.02 3.17 1.277 5.411 4.384 5.411 8.02z" fill="#d48d77"/><path d="m218.768 52.219h-45.184c-2.618 0-4.741 2.122-4.741 4.741 0 2.618 2.122 4.741 4.741 4.741h45.184c2.618 0 4.741-2.122 4.741-4.741-.001-2.619-2.123-4.741-4.741-4.741z" fill="#d48d77"/><path d="m216.236 58.308h-28.617c-1.681 0-3.044-1.363-3.044-3.044s1.363-3.044 3.044-3.044h28.617c1.681 0 3.044 1.363 3.044 3.044s-1.363 3.044-3.044 3.044z" fill="#eea47d"/></g><g><g><path d="m175.836 68.895c-.612-.455-1.369-.72-2.192-.72h-5.455c-.817 0-1.575.265-2.186.72-.92.666-1.515 1.753-1.515 2.982v11.137c0 1.228.595 2.316 1.515 2.982.612.455 1.369.72 2.186.72h5.455c.823 0 1.58-.265 2.192-.72.915-.671 1.51-1.759 1.51-2.982v-11.138c0-1.223-.596-2.31-1.51-2.981zm-1.514 12.337c0 1.191-.965 2.157-2.157 2.157h-2.495c-1.191 0-2.156-.965-2.156-2.157v-7.574c0-1.191.965-2.156 2.156-2.156h2.495c1.191 0 2.157.965 2.157 2.156z" fill="#f9c744"/><path d="m177.346 71.876v11.137c0 1.223-.595 2.311-1.51 2.982-.92-.671-1.515-1.759-1.515-2.982v-11.137c0-1.223.595-2.311 1.515-2.982.914.672 1.51 1.759 1.51 2.982z" fill="#fad98f"/><path d="m167.512 71.876v11.137c0 1.223-.595 2.311-1.51 2.982-.92-.666-1.515-1.753-1.515-2.982v-11.137c0-1.228.595-2.316 1.515-2.982.915.672 1.51 1.759 1.51 2.982z" fill="#f39e22"/><path d="m175.836 68.895c-.612-.455-1.369-.72-2.192-.72h-3.48c.198 1.218.665 2.345 1.329 3.327h.672c1.191 0 2.157.965 2.157 2.156v.451c.916.516 1.936.869 3.024 1.009v-3.242c0-1.223-.596-2.31-1.51-2.981z" fill="#faefdc"/></g><g><path d="m226.354 68.895c-.612-.455-1.369-.72-2.192-.72h-5.455c-.817 0-1.575.265-2.186.72-.92.666-1.515 1.753-1.515 2.982v11.137c0 1.228.595 2.316 1.515 2.982.612.455 1.369.72 2.186.72h5.455c.823 0 1.58-.265 2.192-.72.915-.671 1.51-1.759 1.51-2.982v-11.138c0-1.223-.595-2.31-1.51-2.981zm-1.514 12.337c0 1.191-.965 2.157-2.157 2.157h-2.495c-1.191 0-2.156-.965-2.156-2.157v-7.574c0-1.191.965-2.156 2.156-2.156h2.495c1.191 0 2.157.965 2.157 2.156z" fill="#f9c744"/><path d="m227.864 71.876v11.137c0 1.223-.595 2.311-1.51 2.982-.92-.671-1.515-1.759-1.515-2.982v-11.137c0-1.223.595-2.311 1.515-2.982.915.672 1.51 1.759 1.51 2.982z" fill="#fad98f"/><path d="m218.031 71.876v11.137c0 1.223-.595 2.311-1.51 2.982-.92-.666-1.515-1.753-1.515-2.982v-11.137c0-1.228.595-2.316 1.515-2.982.915.672 1.51 1.759 1.51 2.982z" fill="#f39e22"/><path d="m226.354 68.895c-.612-.455-1.369-.72-2.192-.72h-3.48c.198 1.218.665 2.345 1.329 3.327h.672c1.191 0 2.157.965 2.157 2.156v.451c.916.516 1.935.869 3.024 1.009v-3.242c0-1.223-.595-2.31-1.51-2.981z" fill="#faefdc"/></g></g><g><path d="m215.006 39.585v8.08h-6.489v-5.141c0-2.847-2.311-5.157-5.163-5.157h-14.352c-2.852 0-5.163 2.311-5.163 5.157v5.141h-6.489v-8.08c0-.85.135-1.667.379-2.43 1.028-3.204 4.032-5.525 7.576-5.525h21.744c3.545 0 6.548 2.322 7.576 5.525.246.763.381 1.58.381 2.43z" fill="#a26d5a"/><path d="m214.627 37.155c-.866 3.085-3.15 5.569-6.11 6.711v-1.342c0-2.847-2.311-5.157-5.163-5.157h-14.352c-2.852 0-5.163 2.311-5.163 5.157v1.342c-1.331-.514-2.527-1.299-3.518-2.289-1.212-1.212-2.116-2.728-2.592-4.421 1.028-3.204 4.032-5.525 7.576-5.525h21.744c3.546-.002 6.55 2.32 7.578 5.524z" fill="#c17e62"/><path d="m206.918 37.366h-16.684c-1.55 0-2.807-1.257-2.807-2.807v-.122c0-1.55 1.257-2.807 2.807-2.807h16.684c1.55 0 2.807 1.257 2.807 2.807v.122c0 1.55-1.257 2.807-2.807 2.807z" fill="#d48d77"/></g></g></g></g></svg>