<svg id="Layer_1" height="512" viewBox="0 0 512 512" width="512" xmlns="http://www.w3.org/2000/svg" data-name="Layer 1"><path d="m443.09 357 1.91-225h-428v329l426.2-.755a51.753 51.753 0 0 0 36.628-15.145 51.578 51.578 0 0 0 -36.738-88.1z" fill="#e1b7a3"/><path d="m184.59 131.72 105.5 105.5a78.389 78.389 0 0 0 41.66 21.35 49.964 49.964 0 0 1 36.35 70.84l-30.95-30.94-24.01 24.01 30.91 30.92a50.037 50.037 0 0 1 -70.72-37.31c-2.57-15.53-10.39-29.62-21.52-40.74l-132.31-132.31a75.843 75.843 0 0 0 -14.79-11.52 79.431 79.431 0 0 0 -26.73-9.98 50.373 50.373 0 0 1 -36.49-70.7l32.04 32.04 24.02-24.02-32.01-32a50.665 50.665 0 0 1 55.29 8.26 49.884 49.884 0 0 1 15.71 28.77 75.638 75.638 0 0 0 21.24 41.02z" fill="#b0b5ca"/><path d="m268.36 240.72a8.584 8.584 0 0 1 -12.14 12.14l-114.33-114.32a8.584 8.584 0 1 1 12.14-12.14z" fill="#ccd3df"/><path d="m302.37 442-.3-.175c0-63.13-50.97-114.257-113.85-114.257s-113.84 51.096-113.84 114.226l-.3.206h-25.08v48h278v-48zm-53.37 0h-121v-.05a60.5 60.5 0 1 1 121 0z" fill="#b3d1e7"/><path d="m446.55 82h-31.55v275h28.09a51.6 51.6 0 0 1 51.91 51.55v-278.23a48.324 48.324 0 0 0 -48.45-48.32z" fill="#aa7a65"/><path d="m17 132v329l30-.053v-328.947z" fill="#cca08f"/><g fill="#284268"><path d="m48 176.563a6 6 0 0 0 -6 6v111.757a6 6 0 0 0 12 0v-111.757a6 6 0 0 0 -6-6z"/><path d="m48 153a6 6 0 0 0 -6 6v4.885a6 6 0 0 0 12 0v-4.885a6 6 0 0 0 -6-6z"/><path d="m446.545 76h-31.128a6.436 6.436 0 0 0 -6.417 6.417v43.583h-221.639l-25.337-25.337a70.078 70.078 0 0 1 -19.565-37.749 55.562 55.562 0 0 0 -17.583-32.223c-16.474-15.049-41.248-18.8-61.7-9.35a6.218 6.218 0 0 0 -3.078 2.991 6.009 6.009 0 0 0 1.202 6.768l27.761 27.762-15.53 15.53-27.7-27.7a6.131 6.131 0 0 0 -3.153-1.738 6.015 6.015 0 0 0 -6.61 3.335 56.427 56.427 0 0 0 34.802 77.711h-53.87a5.77 5.77 0 0 0 -6 5.724v329.765a5.454 5.454 0 0 0 1.764 4.005 5.788 5.788 0 0 0 4.236 1.506h.018l25.982.119v22.747a6.4 6.4 0 0 0 6.321 6.134h277.807a6.009 6.009 0 0 0 5.872-6.134v-23.066l110.277-.3a58.042 58.042 0 0 0 57.723-57.949v-278.234a54.391 54.391 0 0 0 -54.455-54.317zm-125.545 408h-13v-7.477a6 6 0 0 0 -12 0v7.477h-26v-7.477a6 6 0 0 0 -12 0v7.477h-26v-7.477a6 6 0 0 0 -12 0v7.477h-25v-7.477a6 6 0 0 0 -12 0v7.477h-26v-7.477a6 6 0 0 0 -12 0v7.477h-26v-7.477a6 6 0 0 0 -12 0v7.477h-26v-7.477a6 6 0 0 0 -12 0v7.477h-14v-36h19.082a5.887 5.887 0 0 0 4.252-1.639l.3-.24a5.93 5.93 0 0 0 1.748-4.2 107.964 107.964 0 0 1 14.423-54.051l6.342 3.685a6 6 0 1 0 6.019-10.374l-5.794-3.359a108.884 108.884 0 0 1 29.568-27.6l3.788 6.588a6 6 0 0 0 10.4-5.981l-3.679-6.451a104.189 104.189 0 0 1 40.551-10.556v7.136a6 6 0 1 0 12 0v-7.173a104.966 104.966 0 0 1 41.057 10.591l-3.724 6.451a5.995 5.995 0 1 0 10.39 5.982l3.787-6.589a108.893 108.893 0 0 1 30.151 28.406l-6.378 3.7a6 6 0 1 0 6.019 10.381l6.827-3.959a108.015 108.015 0 0 1 13.936 53.205 6 6 0 0 0 1.747 4.233l.3.176a5.886 5.886 0 0 0 4.253 1.64h18.635zm168-110.723a57.507 57.507 0 0 0 -45.914-22.277h-22.086v-153a6 6 0 0 0 -12 0v158.615a6.4 6.4 0 0 0 6.385 6.385h27.7a45.792 45.792 0 1 1 .155 91.584l-110.24.245v-12.575a6.114 6.114 0 0 0 -5.872-6.254h-19.195c-2.975-63-55.532-114.622-119.709-114.622s-116.733 51.622-119.708 114.622h-19.2a6.5 6.5 0 0 0 -6.316 6.254v13.064l-20 .153v-317.471h80.764a70.311 70.311 0 0 1 11.493 9.278l81.537 81.537a6 6 0 0 0 8.486-8.485l-81.538-81.537a83.907 83.907 0 0 0 -44.7-23.154 43.741 43.741 0 0 1 -23.218-12.239 44.423 44.423 0 0 1 -11.848-41.591l25.312 25.311a6 6 0 0 0 8.486 0l24-24a5.817 5.817 0 0 0 1.106-1.489 6.027 6.027 0 0 0 -1.094-7.008l-25.255-25.261a44.756 44.756 0 0 1 40.251 10.189 43.672 43.672 0 0 1 13.838 25.318 82.16 82.16 0 0 0 22.918 44.279l132.314 132.312a84.03 84.03 0 0 0 44.832 23.017 43.859 43.859 0 0 1 23.359 12.106 44.4 44.4 0 0 1 11.6 41.883l-24.243-24.241a6 6 0 0 0 -8.485 0l-24 24a5.829 5.829 0 0 0 -1.106 1.488 6.029 6.029 0 0 0 1.094 7.009l24.154 24.153a44.771 44.771 0 0 1 -40.1-10.313 43.755 43.755 0 0 1 -13.7-25.454c-2.695-16.312-10.714-31.529-23.192-44.007l-21.077-21.076a6 6 0 1 0 -8.485 8.485l21.067 21.08c10.694 10.694 17.554 23.653 19.837 37.476a56.005 56.005 0 0 0 55.309 47.078 56.461 56.461 0 0 0 23.7-5.231 6.216 6.216 0 0 0 3.079-2.991 6.007 6.007 0 0 0 -1.2-6.768l-26.672-26.672 15.53-15.529 26.7 26.7a6.008 6.008 0 0 0 7.341.9 6.134 6.134 0 0 0 2.383-2.7 56.494 56.494 0 0 0 -11.049-63.753 55.8 55.8 0 0 0 -29.709-15.43 72.09 72.09 0 0 1 -38.482-19.693l-94.976-94.977h209.639v18a6 6 0 0 0 12 0v-68h25.545a42.378 42.378 0 0 1 42.455 42.317z"/><path d="m262.289 261.37a14.58 14.58 0 0 0 10.311-24.891l-114.325-114.326a14.585 14.585 0 1 0 -20.626 20.626l114.327 114.326a14.54 14.54 0 0 0 10.313 4.265zm-116.155-130.732a2.588 2.588 0 0 1 3.656 0l114.327 114.326a2.585 2.585 0 0 1 -3.656 3.656l-114.327-114.326a2.588 2.588 0 0 1 0-3.656z"/><path d="m188.5 375.305a66.687 66.687 0 0 0 -66.5 66.646v.3a5.646 5.646 0 0 0 5.832 5.749h120.785c3.314 0 6.383-2.432 6.383-5.746v-.3a66.687 66.687 0 0 0 -66.5-66.649zm-54.375 60.695c2.845-27 26.022-48.949 54.1-48.949s51.254 21.949 54.099 48.949z"/></g></svg>