<svg id="Layer_1" height="512" viewBox="0 0 512 512" width="512" xmlns="http://www.w3.org/2000/svg" data-name="Layer 1"><path d="m479.63 391.11a52.51 52.51 0 1 1 -74.19 0 52.624 52.624 0 0 1 74.19 0z" fill="#eb7288"/><ellipse cx="256" cy="428.275" fill="#eb7288" rx="52.468" ry="52.559"/><path d="m69.46 375.71a52.565 52.565 0 1 1 -52.46 52.57 52.515 52.515 0 0 1 52.46-52.57z" fill="#5fcda4"/><path d="m394.05 208.73h-276.1a21.09 21.09 0 0 0 0 42.18h276.1a21.09 21.09 0 0 0 0-42.18z" fill="#edb740"/><path d="m279.46 54.97h-46.92a112.917 112.917 0 0 0 -112.89 112.94v40.82h272.7v-40.82a112.917 112.917 0 0 0 -112.89-112.94z" fill="#fcca3d"/><path d="m435.44 391.11a52.211 52.211 0 0 1 22.1-13.212 52.548 52.548 0 1 0 0 100.754 52.6 52.6 0 0 1 -22.1-87.542z" fill="#cc6279"/><path d="m248.9 391.11a52.218 52.218 0 0 1 22.1-13.21 52.549 52.549 0 1 0 0 100.754 52.6 52.6 0 0 1 -22.1-87.542z" fill="#cc6279"/><path d="m47 428.28a52.566 52.566 0 0 1 37.462-50.38 52.565 52.565 0 1 0 0 100.746 52.561 52.561 0 0 1 -37.462-50.366z" fill="#52af89"/><path d="m117.95 250.91h30a21.09 21.09 0 0 1 0-42.18h-30a21.09 21.09 0 0 0 0 42.18z" fill="#ce9e3c"/><path d="m149.65 208.73v-40.82a112.917 112.917 0 0 1 112.89-112.94h-30a112.917 112.917 0 0 0 -112.89 112.94v40.82z" fill="#ddac33"/><path d="m272.35 37.94a23.115 23.115 0 0 0 -39.47 16.35v.68l.04 92.48h46.16l.04-92.48v-.68a23.05 23.05 0 0 0 -6.77-16.35z" fill="#fadf4a"/><path d="m279.08 144.45a41.159 41.159 0 1 1 -23.08-7.08 41.1 41.1 0 0 1 23.08 7.08z" fill="#6d7486"/><path d="m256 156.91a21.585 21.585 0 1 1 -21.57 21.58 21.576 21.576 0 0 1 21.57-21.58z" fill="#49bdff"/><g fill="#284268"><path d="m256 206.075a27.583 27.583 0 1 0 -27.574-27.583 27.61 27.61 0 0 0 27.574 27.583zm0-43.166a15.583 15.583 0 1 1 -15.574 15.583 15.6 15.6 0 0 1 15.574-15.583z"/><path d="m188.022 88.537a6 6 0 0 0 -8.235-2.044 90.435 90.435 0 0 0 -40.948 55.465 6 6 0 1 0 11.654 2.864 78.354 78.354 0 0 1 35.485-48.05 6 6 0 0 0 2.044-8.235z"/><path d="m204.1 88.577a6.036 6.036 0 0 0 1.57-.209c1.4-.378 2.829-.722 4.254-1.021a6 6 0 1 0 -2.465-11.747c-1.646.346-3.3.743-4.917 1.18a6 6 0 0 0 1.558 11.797z"/><path d="m49.812 422.334a6 6 0 0 0 -8.392 8.579l17.024 16.652a6 6 0 0 0 8.392 0l30.67-30a6 6 0 0 0 -8.392-8.578l-26.474 25.9z"/><path d="m451 370.305v-24.294a42.173 42.173 0 0 0 -42.316-42.011h-146.684v-47h132.048a26.892 26.892 0 0 0 26.9-27.686c-.327-13.108-9.948-23.709-22.948-25.894v-35.511c0-63.843-50.37-116.09-113.526-118.816a28.931 28.931 0 0 0 -56.991 0c-63.157 2.726-113.483 54.973-113.483 118.816v35.511c-13 2.185-22.621 12.786-22.946 25.894a26.892 26.892 0 0 0 26.898 27.686h132.048v47h-146.684a42.173 42.173 0 0 0 -42.316 42.011v24.3a58.531 58.531 0 1 0 12-.477v-23.823a30.16 30.16 0 0 1 30.316-30.011h146.684v54.018a57.981 57.981 0 0 0 -35.344 16.85 58.7 58.7 0 0 0 0 82.814 58.393 58.393 0 0 0 82.688 0 58.7 58.7 0 0 0 0-82.814 57.981 57.981 0 0 0 -35.344-16.85v-54.018h146.684a30.16 30.16 0 0 1 30.316 30.011v23.827a58.568 58.568 0 0 0 -37.774 99.844 58.363 58.363 0 0 0 82.663 0 58.557 58.557 0 0 0 -32.889-99.377zm-166-309.182c56 2.954 101 49.72 101 106.786v35.091h-89.782a47.117 47.117 0 0 0 -11.218-61.507zm-46-6.831a17 17 0 1 1 34 0v80.308a46.272 46.272 0 0 0 -34 0zm17 89.076a35.124 35.124 0 1 1 -35.1 35.124 35.155 35.155 0 0 1 35.1-35.124zm-153.116 87.26a15.023 15.023 0 0 1 15.068-15.628h24.048a6 6 0 0 0 0-12h-16v-35.091c0-57.066 45-103.832 101-106.786v80.37a47.117 47.117 0 0 0 -11.218 61.507h-31.782a6 6 0 0 0 0 12h42.255a46.979 46.979 0 0 0 59.49 0h107.961a15.278 15.278 0 0 1 15.41 14.372 15.023 15.023 0 0 1 -15.068 15.628h-275.754a15.277 15.277 0 0 1 -15.41-14.372zm13.042 197.647a46.463 46.463 0 1 1 -46.463-46.564 46.566 46.566 0 0 1 46.463 46.564zm172.925-32.929a46.687 46.687 0 0 1 0 65.859 46.394 46.394 0 0 1 -65.7 0 46.687 46.687 0 0 1 0-65.859 46.392 46.392 0 0 1 65.7 0zm186.536 65.859a46.393 46.393 0 0 1 -65.7 0 46.685 46.685 0 0 1 0-65.859 46.39 46.39 0 0 1 65.7 0 46.685 46.685 0 0 1 0 65.859z"/><path d="m461.614 409.161a6 6 0 0 0 -8.485.008l-10.592 10.613-10.593-10.613a6 6 0 0 0 -8.493 8.477l10.609 10.629-10.609 10.625a6 6 0 1 0 8.493 8.477l10.593-10.612 10.592 10.612a6 6 0 1 0 8.493-8.477l-10.608-10.629 10.608-10.629a6 6 0 0 0 -.008-8.481z"/><path d="m245.408 409.169a6 6 0 1 0 -8.493 8.477l10.608 10.629-10.608 10.625a6 6 0 1 0 8.493 8.477l10.592-10.608 10.592 10.612a6 6 0 1 0 8.493-8.477l-10.608-10.629 10.608-10.629a6 6 0 1 0 -8.493-8.477l-10.592 10.613z"/></g></svg>