<svg id="Icons" enable-background="new 0 0 512 512" height="512" viewBox="0 0 512 512" width="512" xmlns="http://www.w3.org/2000/svg"><g><g><circle cx="256" cy="256" fill="#53b976" r="256"/><circle cx="290.841" cy="210.233" fill="#78c795" r="216.847"/></g><g><g><g><g><path d="m267.008 291.956v131.059c0 5.243-3.162 9.738-7.681 11.699h-.006c-1.551.67-3.258 1.044-5.056 1.044h-151.162c-1.798 0-3.505-.374-5.056-1.044-4.519-1.955-7.687-6.456-7.687-11.699v-131.059l88.324-88.592z" fill="#fbcb74"/><path d="m267.008 291.956v131.059c0 5.243-3.162 9.738-7.681 11.699h-.006c-4.513-1.961-7.681-6.456-7.681-11.699v-131.059c0-5.237 3.168-9.732 7.681-11.699h.006c4.52 1.961 7.681 6.462 7.681 11.699z" fill="#faefdc"/><path d="m105.728 291.956v131.059c0 5.243-3.162 9.744-7.681 11.699-4.519-1.955-7.687-6.456-7.687-11.699v-131.059c0-5.237 3.168-9.738 7.687-11.699 4.519 1.961 7.681 6.462 7.681 11.699z" fill="#deb36f"/><path d="m232.438 285.148c0 4.244-3.44 7.684-7.684 7.684h-92.14c-4.244 0-7.684-3.44-7.684-7.684s3.44-7.684 7.684-7.684h92.14c4.244.001 7.684 3.441 7.684 7.684z" fill="#fbd9a3"/></g><g><path d="m213.267 398.389h-69.162c-7.95 0-14.395-6.445-14.395-14.395v-69.162c0-7.95 6.445-14.395 14.395-14.395h69.162c7.95 0 14.395 6.445 14.395 14.395v69.162c0 7.95-6.445 14.395-14.395 14.395z" fill="#c4983d"/><g><g><path d="m175.833 317.01v21.412c0 .046 0 .103-.011.148-.069 4.428-3.675 7.989-8.126 7.989h-21.412c-4.497 0-8.149-3.641-8.149-8.138v-21.411c0-4.451 3.572-8.069 8.001-8.138.046-.011.103-.011.148-.011h21.412c4.496 0 8.137 3.652 8.137 8.149z" fill="#6052a3"/><path d="m175.833 317.01v21.412c0 .046 0 .103-.011.148-.046.011-.103.011-.148.011h-10.341c-10.615 0-19.209-8.606-19.209-19.209v-10.352c0-.046 0-.103.011-.148.046-.011.103-.011.148-.011h21.412c4.497 0 8.138 3.652 8.138 8.149z" fill="#57409b"/><path d="m165.922 334.905c-2.731 0-4.944-2.214-4.944-4.944v-12.216c0-2.731 2.214-4.944 4.944-4.944 2.731 0 4.944 2.214 4.944 4.944v12.216c0 2.73-2.213 4.944-4.944 4.944z" fill="#9175a7"/></g><g><path d="m219.238 317.01v21.412c0 .046 0 .103-.011.148-.069 4.428-3.675 7.989-8.126 7.989h-21.412c-4.497 0-8.149-3.641-8.149-8.138v-21.411c0-4.451 3.572-8.069 8.001-8.138.046-.011.103-.011.148-.011h21.411c4.497 0 8.138 3.652 8.138 8.149z" fill="#6052a3"/><path d="m219.238 317.01v21.412c0 .046 0 .103-.011.148-.046.011-.103.011-.148.011h-10.341c-10.615 0-19.209-8.606-19.209-19.209v-10.352c0-.046 0-.103.011-.148.046-.011.103-.011.148-.011h21.412c4.497 0 8.138 3.652 8.138 8.149z" fill="#57409b"/><path d="m209.328 334.905c-2.731 0-4.944-2.214-4.944-4.944v-12.216c0-2.731 2.214-4.944 4.944-4.944 2.731 0 4.944 2.214 4.944 4.944v12.216c0 2.73-2.214 4.944-4.944 4.944z" fill="#9175a7"/></g><g><path d="m175.833 360.415v21.412c0 .046 0 .103-.011.148-.069 4.428-3.675 7.989-8.126 7.989h-21.412c-4.497 0-8.149-3.641-8.149-8.138v-21.412c0-4.451 3.572-8.069 8.001-8.138.046-.011.103-.011.148-.011h21.412c4.496.001 8.137 3.654 8.137 8.15z" fill="#6052a3"/><path d="m175.833 360.415v21.412c0 .046 0 .103-.011.148-.046.011-.103.011-.148.011h-10.341c-10.615 0-19.209-8.606-19.209-19.209v-10.352c0-.046 0-.103.011-.148.046-.011.103-.011.148-.011h21.412c4.497 0 8.138 3.653 8.138 8.149z" fill="#57409b"/><path d="m165.922 378.31c-2.731 0-4.944-2.214-4.944-4.944v-12.216c0-2.731 2.214-4.944 4.944-4.944 2.731 0 4.944 2.214 4.944 4.944v12.216c0 2.73-2.213 4.944-4.944 4.944z" fill="#9175a7"/></g><g><path d="m219.238 360.415v21.412c0 .046 0 .103-.011.148-.069 4.428-3.675 7.989-8.126 7.989h-21.412c-4.497 0-8.149-3.641-8.149-8.138v-21.412c0-4.451 3.572-8.069 8.001-8.138.046-.011.103-.011.148-.011h21.411c4.497.001 8.138 3.654 8.138 8.15z" fill="#6052a3"/><path d="m219.238 360.415v21.412c0 .046 0 .103-.011.148-.046.011-.103.011-.148.011h-10.341c-10.615 0-19.209-8.606-19.209-19.209v-10.352c0-.046 0-.103.011-.148.046-.011.103-.011.148-.011h21.412c4.497 0 8.138 3.653 8.138 8.149z" fill="#57409b"/><path d="m209.328 378.31c-2.731 0-4.944-2.214-4.944-4.944v-12.216c0-2.731 2.214-4.944 4.944-4.944 2.731 0 4.944 2.214 4.944 4.944v12.216c0 2.73-2.214 4.944-4.944 4.944z" fill="#9175a7"/></g></g></g><g><path d="m58.163 311.137c0 2.733 1.044 5.46 3.125 7.542 4.187 4.187 10.987 4.163 15.144-.054l94.659-96.077c4.175-4.242 11.017-4.242 15.192 0l94.659 96.077c2.088 2.118 4.845 3.18 7.596 3.18 2.733 0 5.466-1.044 7.548-3.125 3.517-3.518 4.061-8.881 1.641-12.972-.446-.754-.995-1.466-1.641-2.112l-109.875-109.871c-4.163-4.169-10.921-4.163-15.084 0l-109.838 109.87c-.646.646-1.195 1.358-1.641 2.112-.99 1.671-1.485 3.547-1.485 5.43z" fill="#e9465e"/><path d="m59.648 305.706c.446.754.995 1.466 1.641 2.112v.006c4.187 4.187 10.987 4.157 15.144-.06l94.659-96.077c4.175-4.242 11.017-4.242 15.192 0l94.659 96.077c2.088 2.118 4.845 3.18 7.602 3.18 2.733 0 5.46-1.038 7.542-3.119.652-.652 1.195-1.364 1.641-2.118-.446-.754-.995-1.466-1.641-2.112l-109.876-109.87c-4.163-4.169-10.921-4.163-15.084 0l-109.838 109.87c-.646.645-1.195 1.357-1.641 2.111z" fill="#ee6781"/><g fill="#f789a1"><path d="m253.579 270.866.312-.306c2.546-2.499 2.565-6.594.043-9.116l-41.407-41.405c-2.49-2.49-6.522-2.508-9.033-.04-2.53 2.486-2.563 6.553-.074 9.08l41.095 41.711c2.483 2.52 6.538 2.554 9.064.076z"/><path d="m103.789 270.865-.305-.299c-2.552-2.502-2.573-6.605-.046-9.132l41.382-41.394c2.491-2.492 6.524-2.513 9.041-.048 2.541 2.488 2.577 6.567.081 9.101l-41.077 41.693c-2.486 2.523-6.546 2.559-9.076.079z"/></g></g></g><g><path d="m105.918 208.471v50.482l20.266-20.272v-30.21c0-2.824-2.287-5.11-5.104-5.11h-10.058c-2.817 0-5.104 2.287-5.104 5.11z" fill="#c0405c"/><path d="m105.918 208.471v42.988l8.163-8.169c2.956-2.95 4.61-6.957 4.61-11.126v-23.693c0-2.824-2.287-5.11-5.104-5.11h-2.564c-2.818 0-5.105 2.287-5.105 5.11z" fill="#e9465e"/></g></g><g><g><g><path d="m476.55 233c-.96 4.69-4.3 8.77-9.14 10.46-1.53.54-3.09.79-4.63.79-5.8 0-11.23-3.63-13.26-9.42-30.2-86.54-99.89-156.24-186.43-186.44-7.33-2.55-11.19-10.56-8.64-17.88 1.7-4.84 5.78-8.18 10.47-9.14 2.39-.48 4.94-.35 7.42.51 46.69 16.29 89.94 43.48 125.08 78.62s62.33 78.39 78.62 125.08c.86 2.48.99 5.03.51 7.42z" fill="#faefdc"/></g><g><path d="m416.79 252.43c-.95 4.66-4.25 8.73-9.06 10.44-1.55.55-3.14.81-4.7.81-5.77 0-11.18-3.59-13.23-9.35-23.98-67.57-78.64-122.23-146.22-146.21-7.3-2.6-11.12-10.62-8.53-17.93 1.71-4.81 5.77-8.11 10.44-9.06 2.41-.5 4.99-.36 7.49.52 37.31 13.25 71.9 35.12 100.04 63.25 28.13 28.13 50 62.73 63.25 100.04.88 2.5 1.02 5.08.52 7.49z" fill="#faefdc"/></g><g><path d="m355.41 272.39c-.94 4.62-4.19 8.66-8.95 10.4-1.59.58-3.22.86-4.81.86-5.73 0-11.11-3.54-13.19-9.23-17.85-48.86-56.1-87.11-104.96-104.96-7.28-2.66-11.03-10.72-8.37-18 1.74-4.76 5.78-8.01 10.4-8.95 2.46-.5 5.08-.34 7.6.58 56.65 20.69 101.01 65.04 121.7 121.69.92 2.53 1.08 5.15.58 7.61z" fill="#faefdc"/></g></g><g><g><path d="m476.55 233c-.93.19-1.87.28-2.8.28-5.8 0-11.23-3.63-13.26-9.42-30.2-86.54-99.89-156.24-186.43-186.44-6.72-2.34-10.53-9.27-9.14-16.05 2.39-.48 4.94-.35 7.42.51 46.69 16.29 89.94 43.48 125.08 78.62s62.33 78.39 78.62 125.08c.86 2.48.99 5.03.51 7.42z" fill="#fff"/></g><g><path d="m416.79 252.43c-.93.19-1.86.28-2.79.28-5.77 0-11.18-3.59-13.23-9.35-23.98-67.57-78.64-122.23-146.21-146.21-6.68-2.38-10.44-9.27-9.07-16.02 2.41-.5 4.99-.36 7.49.52 37.31 13.25 71.9 35.12 100.04 63.25 28.13 28.13 50 62.73 63.25 100.04.88 2.5 1.02 5.08.52 7.49z" fill="#fff"/></g><g><path d="m355.41 272.39c-.93.2-1.87.29-2.79.29-5.73 0-11.11-3.54-13.19-9.23-17.85-48.86-56.1-87.11-104.96-104.96-6.61-2.42-10.31-9.29-8.94-15.98 2.46-.5 5.08-.34 7.6.58 56.65 20.69 101.01 65.04 121.7 121.69.92 2.53 1.08 5.15.58 7.61z" fill="#fff"/></g></g></g></g></g></svg>