<svg id="Icons" enable-background="new 0 0 512 512" height="512" viewBox="0 0 512 512" width="512" xmlns="http://www.w3.org/2000/svg"><g><circle cx="256" cy="256" fill="#f39e22" r="256"/><g><path d="m274.191 470.157c-2.568 0-4.753-1.967-4.976-4.573-.236-2.751 1.803-5.173 4.555-5.409 6.461-.554 12.961-1.425 19.319-2.59 2.72-.5 5.322 1.301 5.819 4.017.498 2.716-1.301 5.321-4.017 5.819-6.672 1.222-13.491 2.137-20.269 2.718-.143.012-.287.018-.431.018zm-39.888-.357c-.171 0-.344-.009-.519-.027-6.767-.698-13.568-1.726-20.214-3.055-2.708-.542-4.463-3.176-3.922-5.884.542-2.707 3.173-4.465 5.884-3.922 6.337 1.268 12.823 2.248 19.277 2.914 2.747.283 4.744 2.74 4.461 5.486-.264 2.573-2.436 4.488-4.967 4.488zm98.068-13.208c-1.998 0-3.886-1.207-4.657-3.18-1.006-2.572.264-5.472 2.835-6.478 6.027-2.357 12.016-5.036 17.798-7.961 2.461-1.249 5.471-.259 6.719 2.204 1.246 2.464.26 5.472-2.205 6.719-6.064 3.069-12.346 5.878-18.669 8.352-.598.233-1.215.344-1.821.344zm-156.017-1.304c-.632 0-1.274-.121-1.895-.375-6.284-2.576-12.519-5.488-18.53-8.654-2.443-1.287-3.381-4.311-2.094-6.754 1.287-2.444 4.311-3.38 6.754-2.094 5.73 3.019 11.673 5.793 17.663 8.249 2.555 1.047 3.777 3.968 2.73 6.523-.793 1.935-2.66 3.105-4.628 3.105zm207.991-28.165c-1.495 0-2.974-.667-3.959-1.941-1.689-2.185-1.288-5.325.896-7.014 5.126-3.964 10.121-8.218 14.847-12.646 2.014-1.887 5.178-1.786 7.067.23 1.889 2.015 1.785 5.179-.229 7.067-4.955 4.642-10.192 9.103-15.567 13.259-.911.704-1.988 1.045-3.055 1.045zm-259.459-2.162c-1.096 0-2.2-.359-3.123-1.098-5.296-4.242-10.456-8.793-15.335-13.525-1.982-1.923-2.031-5.088-.108-7.07 1.923-1.983 5.087-2.031 7.07-.108 4.654 4.513 9.574 8.853 14.625 12.899 2.155 1.726 2.503 4.873.776 7.028-.986 1.233-2.439 1.874-3.905 1.874zm301.066-40.704c-1.02 0-2.048-.311-2.936-.956-2.233-1.624-2.729-4.75-1.105-6.984 3.812-5.244 7.41-10.728 10.697-16.299 1.403-2.378 4.469-3.168 6.848-1.765 2.378 1.403 3.169 4.469 1.766 6.847-3.449 5.844-7.224 11.596-11.221 17.096-.979 1.346-2.503 2.061-4.049 2.061zm-341.93-2.872c-1.576 0-3.125-.743-4.099-2.13-3.9-5.564-7.578-11.378-10.931-17.282-1.364-2.401-.523-5.453 1.878-6.817 2.4-1.364 5.453-.523 6.817 1.878 3.197 5.63 6.705 11.175 10.424 16.48 1.585 2.261 1.037 5.379-1.224 6.964-.872.613-1.873.907-2.865.907zm369.793-49.968c-.556 0-1.121-.093-1.675-.29-2.602-.925-3.961-3.784-3.036-6.386 2.17-6.104 4.067-12.382 5.641-18.657.671-2.679 3.387-4.304 6.065-3.635 2.679.671 4.306 3.387 3.634 6.065-1.649 6.585-3.641 13.171-5.918 19.576-.727 2.049-2.654 3.327-4.711 3.327zm-396.786-3.329c-2.086 0-4.033-1.316-4.737-3.402-2.172-6.435-4.058-13.052-5.604-19.669-.628-2.689 1.042-5.378 3.73-6.007s5.378 1.042 6.007 3.73c1.474 6.307 3.271 12.614 5.342 18.747.883 2.616-.521 5.453-3.138 6.336-.53.18-1.069.265-1.6.265zm408.56-55.233c-.09 0-.18-.002-.271-.007-2.757-.147-4.873-2.502-4.726-5.26l.026-.471c.204-3.733.308-7.544.308-11.301 0-2.716-.055-5.466-.162-8.175-.109-2.759 2.038-5.085 4.798-5.194 2.803-.091 5.086 2.039 5.194 4.798.112 2.84.17 5.724.17 8.571 0 3.938-.109 7.932-.324 11.874l-.023.433c-.143 2.666-2.35 4.732-4.99 4.732zm-419.361-3.517c-2.672 0-4.889-2.113-4.993-4.807-.107-2.766-.161-5.574-.161-8.347 0-3.938.109-7.932.324-11.874l.012-.215c.148-2.757 2.502-4.864 5.261-4.725 2.757.148 4.873 2.503 4.725 5.261l-.012.217c-.205 3.767-.309 7.579-.309 11.335 0 2.645.052 5.323.153 7.961.107 2.759-2.044 5.083-4.803 5.189-.066.004-.132.005-.197.005zm414.162-56.428c-2.269 0-4.323-1.554-4.863-3.858-1.479-6.301-3.283-12.607-5.36-18.741-.886-2.616.516-5.454 3.132-6.34 2.611-.885 5.454.516 6.339 3.132 2.18 6.436 4.072 13.052 5.624 19.664.632 2.688-1.036 5.379-3.725 6.01-.385.09-.769.133-1.147.133zm-408.035-2.995c-.401 0-.808-.048-1.215-.15-2.679-.669-4.309-3.383-3.64-6.062 1.646-6.596 3.631-13.184 5.898-19.582.922-2.603 3.78-3.965 6.383-3.043s3.965 3.78 3.043 6.383c-2.161 6.098-4.052 12.378-5.622 18.664-.567 2.272-2.606 3.79-4.847 3.79zm386.202-52.607c-1.739 0-3.429-.908-4.351-2.527-3.202-5.626-6.715-11.167-10.44-16.47-1.588-2.259-1.043-5.378 1.217-6.966 2.259-1.588 5.378-1.043 6.965 1.217 3.907 5.561 7.591 11.372 10.95 17.271 1.365 2.4.527 5.453-1.872 6.819-.781.444-1.631.656-2.469.656zm-363.587-2.678c-.862 0-1.735-.223-2.532-.692-2.379-1.401-3.172-4.466-1.771-6.846 3.445-5.851 7.214-11.607 11.202-17.107 1.621-2.236 4.747-2.735 6.983-1.113 2.235 1.621 2.734 4.747 1.113 6.983-3.802 5.244-7.396 10.732-10.681 16.311-.933 1.583-2.601 2.464-4.314 2.464zm326.963-44.532c-1.252 0-2.506-.467-3.477-1.407-4.656-4.507-9.581-8.841-14.638-12.884-2.157-1.724-2.508-4.871-.783-7.027 1.725-2.159 4.871-2.508 7.027-.783 5.303 4.239 10.467 8.784 15.349 13.509 1.984 1.921 2.036 5.086.115 7.07-.98 1.013-2.286 1.522-3.593 1.522zm-289.639-2.118c-1.333 0-2.662-.529-3.646-1.578-1.89-2.013-1.791-5.177.223-7.067 4.951-4.648 10.183-9.115 15.552-13.275 2.182-1.692 5.324-1.293 7.015.889 1.691 2.183 1.293 5.324-.889 7.015-5.121 3.968-10.111 8.228-14.833 12.661-.965.906-2.195 1.355-3.422 1.355zm241.249-32.916c-.784 0-1.579-.185-2.321-.575-5.734-3.012-11.68-5.782-17.672-8.23-2.557-1.045-3.781-3.964-2.736-6.52 1.044-2.556 3.963-3.782 6.52-2.737 6.286 2.569 12.523 5.474 18.539 8.635 2.444 1.284 3.386 4.307 2.102 6.752-.896 1.702-2.634 2.675-4.432 2.675zm-192.338-1.398c-1.824 0-3.582-1.001-4.463-2.739-1.249-2.463-.265-5.472 2.198-6.721 6.064-3.075 12.342-5.892 18.66-8.37 2.569-1.009 5.472.257 6.48 2.828 1.009 2.57-.257 5.472-2.828 6.48-6.022 2.363-12.008 5.048-17.789 7.98-.725.367-1.497.542-2.258.542zm136.034-18.523c-.323 0-.651-.032-.98-.097-6.337-1.261-12.824-2.235-19.281-2.894-2.747-.28-4.747-2.735-4.467-5.482.281-2.747 2.736-4.749 5.482-4.466 6.77.691 13.572 1.712 20.217 3.035 2.709.539 4.467 3.171 3.929 5.88-.474 2.378-2.563 4.024-4.9 4.024zm-79.452-.604c-2.365 0-4.467-1.686-4.911-4.095-.5-2.716 1.295-5.323 4.011-5.823 6.674-1.23 13.492-2.151 20.265-2.739 2.74-.236 5.174 1.798 5.414 4.549.238 2.751-1.798 5.175-4.549 5.414-6.457.56-12.956 1.438-19.317 2.61-.307.056-.613.084-.913.084z" fill="#f9c744"/></g><g><g><path d="m379.86 260.81v140.87h-247.72v-140.87c0-7.07 1.43-13.81 4.03-19.93 0-.01 0-.01 0-.01 7.77-18.38 25.98-31.28 47.2-31.28h145.26c21.22 0 39.43 12.9 47.2 31.28v.01c2.6 6.12 4.03 12.86 4.03 19.93z" fill="#c0405c"/><path d="m375.83 240.87v.01c-7.77 18.38-25.98 31.28-47.2 31.28h-145.26c-21.22 0-39.43-12.9-47.2-31.28 0-.01 0-.01 0-.01 7.77-18.38 25.98-31.28 47.2-31.28h145.26c21.22 0 39.43 12.9 47.2 31.28z" fill="#e9465e"/></g><path d="m356.23 479.86v11.77c-60.813 26.949-139.648 26.949-200.46 0v-11.77z" fill="#e9465e"/><g><path d="m378.61 443.671v13.81c0 12.36-10.02 22.38-22.38 22.38h-200.46c-12.36 0-22.38-10.02-22.38-22.38v-13.81c0-2.23.14-4.42.42-6.57 3.22-25.01 24.6-44.33 50.48-44.33h143.42c25.88 0 47.26 19.32 50.48 44.33.28 2.15.42 4.34.42 6.57z" fill="#c0405c"/><path d="m378.19 437.1c-2 10.3-11.07 18.07-21.96 18.07h-200.46c-10.89 0-19.96-7.77-21.96-18.07 2.82-21.9 19.57-39.44 41.07-43.46 3.05-.57 6.2-.87 9.41-.87h143.42c3.21 0 6.36.3 9.41.87 21.5 4.02 38.25 21.56 41.07 43.46z" fill="#e9465e"/><path d="m337.12 393.64c-8.02 16.52-24.96 27.9-44.55 27.9h-73.14c-13.67 0-26.05-5.54-35.01-14.5-3.88-3.88-7.12-8.4-9.54-13.4 3.05-.57 6.2-.87 9.41-.87h143.42c3.21 0 6.36.3 9.41.87z" fill="#c0405c"/></g><g><path d="m425.85 388.25v59.29c-20.637 18.309-44.192 33.269-69.62 44.09v-103.38c0-1.38.08-2.74.24-4.07 2.01-17.3 16.72-30.74 34.57-30.74 19.283-.089 34.917 15.933 34.81 34.81z" fill="#c0405c"/><g fill="#e9465e"><path d="m425.61 384.18c-2.02 17.3-16.73 30.72-34.57 30.72-17.85 0-32.55-13.42-34.57-30.72.56-4.8 2.1-9.31 4.41-13.31 6.01-10.42 17.27-17.43 30.16-17.43s24.15 7.01 30.16 17.43c2.31 4 3.85 8.51 4.41 13.31z"/><path d="m402.22 435.15v31c-7.19 5.02-14.65 9.67-22.36 13.94v-44.94c0-.44.02-.88.07-1.3.65-5.56 5.38-9.88 11.11-9.88 6.183-.028 11.227 5.116 11.18 11.18z"/></g></g><g><path d="m155.77 388.25v103.38c-25.428-10.82-48.983-25.781-69.62-44.09v-59.29c0-1.38.08-2.74.24-4.07 6.466-43.159 67.994-39.551 69.38 4.07z" fill="#c0405c"/><path d="m155.53 384.18c-2.02 17.3-16.73 30.72-34.57 30.72-17.85 0-32.55-13.42-34.57-30.72.56-4.8 2.1-9.31 4.41-13.31 6.01-10.42 17.27-17.43 30.16-17.43s24.15 7.01 30.16 17.43c2.31 4 3.85 8.51 4.41 13.31z" fill="#e9465e"/><path d="m421.2 370.87c-6.01 10.41-17.27 17.42-30.16 17.42-12.9 0-24.15-7.01-30.16-17.42 6.01-10.42 17.27-17.43 30.16-17.43s24.15 7.01 30.16 17.43z" fill="#ee6781"/><path d="m151.12 370.87c-6.01 10.41-17.27 17.42-30.16 17.42-12.9 0-24.15-7.01-30.16-17.42 6.01-10.42 17.27-17.43 30.16-17.43s24.15 7.01 30.16 17.43z" fill="#ee6781"/><path d="m132.14 435.15v44.94c-7.71-4.27-15.17-8.92-22.36-13.94v-31c0-.44.02-.88.07-1.3 2.08-13.866 21.852-12.712 22.29 1.3z" fill="#e9465e"/></g><path d="m324.157 209.59h-136.314c-9.571 0-17.33 7.759-17.33 17.33s7.759 17.33 17.33 17.33h136.314c9.571 0 17.33-7.759 17.33-17.33s-7.759-17.33-17.33-17.33z" fill="#ee6781"/></g><g><g><path d="m207.42 281.809v110.966h97.161v-110.966c0-19.965-16.181-36.156-36.157-36.156h-24.848c-19.975 0-36.156 16.191-36.156 36.156z" fill="#fbcb74"/><path d="m207.42 281.809v110.966h74.022v-110.966c0-19.965-16.181-36.156-36.157-36.156h-1.709c-19.975 0-36.156 16.191-36.156 36.156z" fill="#fbd9a3"/></g><g><path d="m239.948 230.471v17.435c0 8.867 7.191 16.047 16.059 16.047 2.974 0 5.76-.81 8.146-2.22 4.728-2.786 7.902-7.935 7.902-13.828v-17.435h-32.107z" fill="#9b5b42"/><path d="m272.054 230.471v17.435c0 5.893-3.174 11.042-7.902 13.828v-18.634c-5.582 2.331-11.719 3.618-18.156 3.618-2.053 0-4.073-.133-6.048-.377v-15.87z" fill="#8e4e3f"/></g><g><g><path d="m198.764 125.475v65.61c0 13.04 5.283 24.848 13.828 33.393 6.17 6.159 14.028 10.621 22.817 12.64 3.407.777 6.947 1.187 10.587 1.187 26.08 0 47.232-21.141 47.232-47.221v-65.61c0-14.294-11.597-25.88-25.891-25.88h-42.693c-2.508 0-4.927.355-7.224 1.032-10.777 3.119-18.656 13.063-18.656 24.849z" fill="#8e4e3f"/><path d="m198.764 125.475v65.61c0 13.04 5.283 24.848 13.828 33.393 6.17 6.159 14.028 10.621 22.817 12.64 20.997-4.805 36.645-23.594 36.645-46.034v-25.103c0-32.661-23.572-59.806-54.634-65.355-10.777 3.119-18.656 13.063-18.656 24.849z" fill="#9b5b42"/><g fill="#8e4e3f"><path d="m232.64 168.952h9.629c3.955 0 7.16 3.206 7.16 7.16 0 3.955-3.206 7.16-7.16 7.16h-9.629c-3.955 0-7.161-3.206-7.161-7.16s3.206-7.16 7.161-7.16z"/><path d="m233.915 99.594h12.079v74.219h-12.079z" transform="matrix(-1 0 0 -1 479.909 273.406)"/></g><g fill="#334353"><path d="m260.812 146.944c3.614 0 6.544 2.93 6.544 6.544v11.421c0 3.614-2.93 6.544-6.544 6.544s-6.544-2.93-6.544-6.544v-11.421c0-3.615 2.93-6.544 6.544-6.544z"/><path d="m223.097 146.944c3.614 0 6.544 2.93 6.544 6.544v11.421c0 3.614-2.93 6.544-6.544 6.544s-6.544-2.93-6.544-6.544v-11.421c.001-3.615 2.93-6.544 6.544-6.544z"/></g><g><path d="m244.284 209.663c11.336 0 20.559-9.222 20.559-20.558 0-2.145-1.739-3.884-3.884-3.884s-3.884 1.739-3.884 3.884c0 7.052-5.737 12.79-12.79 12.79-2.145 0-3.884 1.739-3.884 3.884-.001 2.145 1.738 3.884 3.883 3.884z" fill="#723e33"/></g></g><g><path d="m192.217 130.17c0-16.209 6.575-30.888 17.195-41.508 7.576-7.576 17.224-13.095 28.011-15.639 4.337-1.015 8.855-1.557 13.498-1.557 32.431 0 58.704 26.273 58.704 58.704l-.104 64.222c-.027 16.576-13.472 29.999-30.048 29.999 8.5-8.539 13.755-20.308 13.755-33.306v-54.382h-46.155c-11.109 0-20.114-9.005-20.114-20.114 0 11.109-9.005 20.114-20.114 20.114h-8.08v54.382c0 12.996 5.249 24.767 13.744 33.306-11.207 0-20.292-9.085-20.292-20.292z" fill="#442a21"/><path d="m192.217 130.17c0-16.209 6.575-30.888 17.195-41.508 7.576-7.576 17.224-13.095 28.011-15.639 25.911 6.103 45.206 29.359 45.206 57.147v6.533h-35.556c-11.109 0-20.114-9.005-20.114-20.114 0 11.109-9.005 20.114-20.114 20.114h-8.08v54.382c0 12.996 5.249 24.767 13.744 33.306-11.207 0-20.292-9.085-20.292-20.292z" fill="#543029"/></g><g><g><path d="m301.184 178.109h-7.961v-24.911h7.961c6.879 0 12.455 5.576 12.455 12.455s-5.576 12.456-12.455 12.456z" fill="#8e4e3f"/><path d="m301.585 170.998h-8.362v-10.69h8.362c2.952 0 5.345 2.393 5.345 5.345s-2.393 5.345-5.345 5.345z" fill="#723e33"/></g><g><path d="m195.279 153.198h3.486v24.911h-3.486c-6.879 0-12.455-5.576-12.455-12.455-.001-6.88 5.576-12.456 12.455-12.456z" fill="#8e4e3f"/><path d="m194.877 160.309h3.888v10.69h-3.888c-2.952 0-5.345-2.393-5.345-5.345 0-2.953 2.393-5.345 5.345-5.345z" fill="#723e33"/></g></g></g><g><path d="m256 400.43v111.57c-6.25 0-12.44-.22-18.58-.67-10.18-.73-20.19-2.05-30-3.94v-85.73c0-9.55 6.32-17.64 15-20.29 1.97-.61 4.06-.94 6.23-.94z" fill="#3e4e60"/><path d="m304.58 421.66v85.73c-6.12 1.18-12.31 2.14-18.58 2.87-9.84 1.15-19.85 1.74-30 1.74v-111.57h27.35c11.72 0 21.23 9.51 21.23 21.23z" fill="#3e4e60"/><g fill="#3f5d77"><path d="m286 421.66v88.6c-9.84 1.15-19.85 1.74-30 1.74v-111.57h8.77c11.72 0 21.23 9.51 21.23 21.23z"/><path d="m237.42 421.66v89.67c-10.18-.73-20.19-2.05-30-3.94v-85.73c0-9.55 6.32-17.64 15-20.29 8.68 2.65 15 10.74 15 20.29z"/></g></g></g><g><g><path d="m335.332 302.622v71.19c0 1.433-.293 2.801-.814 4.05-.695 1.629-1.77 3.029-3.138 4.093-1.77 1.4-3.995 2.236-6.427 2.236h-137.906c-2.432 0-4.658-.836-6.427-2.236-1.368-1.064-2.443-2.465-3.138-4.093-.521-1.249-.814-2.616-.814-4.05v-71.19c0-5.733 4.647-10.369 10.379-10.369h137.906c5.733.001 10.379 4.637 10.379 10.369z" fill="#c2aacf"/><path d="m335.332 302.622v71.19c0 1.433-.293 2.801-.814 4.05-1.585 3.724-5.266 6.329-9.565 6.329h-.955c-4.299 0-7.98-2.606-9.565-6.329-.521-1.249-.814-2.616-.814-4.05v-71.19c0-5.733 4.647-10.369 10.379-10.369h.955c5.733.001 10.379 4.637 10.379 10.369z" fill="#decee5"/><path d="m198.262 302.622v71.19c0 1.433-.293 2.801-.814 4.05-1.585 3.724-5.266 6.329-9.565 6.329h-.836c-4.299 0-7.98-2.606-9.565-6.329-.521-1.249-.814-2.616-.814-4.05v-71.19c0-5.733 4.647-10.369 10.379-10.369h.836c5.733.001 10.379 4.637 10.379 10.369z" fill="#decee5"/><path d="m331.38 381.955c-1.77 1.4-3.995 2.236-6.427 2.236h-137.906c-2.432 0-4.658-.836-6.427-2.236 5.852-11.291 17.654-19.011 31.257-19.011h88.246c13.604 0 25.405 7.719 31.257 19.011z" fill="#a583bb"/><circle cx="256" cy="330.09" fill="#fff" r="13.088"/></g><g><path d="m324.475 392.312c0 4.484-3.637 8.121-8.121 8.121h-120.708c-2.247 0-4.267-.912-5.743-2.378-1.466-1.476-2.378-3.496-2.378-5.743 0-1.487.402-2.866 1.097-4.06 1.401-2.432 4.017-4.061 7.024-4.061h120.709c2.247 0 4.267.912 5.743 2.378.5.499.934 1.064 1.281 1.683.695 1.194 1.096 2.573 1.096 4.06z" fill="#9175a7"/><path d="m323.379 388.252c-1.401 2.432-4.017 4.06-7.024 4.06h-120.709c-2.247 0-4.267-.912-5.743-2.378-.5-.499-.934-1.064-1.281-1.683 1.401-2.432 4.017-4.061 7.024-4.061h120.709c2.247 0 4.267.912 5.743 2.378.499.5.933 1.065 1.281 1.684z" fill="#755c8e"/></g></g></g></svg>