<svg id="Capa_1" enable-background="new 0 0 512 512" height="512" viewBox="0 0 512 512" width="512" xmlns="http://www.w3.org/2000/svg"><g><g><path d="m474.5 96h-437c-5.467 0-10.593 1.463-15.007 4.018-8.963 5.188-13.993 15.881-13.993 26.982v258c0 16.569 13.431 30 30 30h435c11.101 0 21.794-5.03 26.982-13.993 2.555-4.414 4.018-9.54 4.018-15.007v-260c0-16.569-13.431-30-30-30z" fill="#f8f7f7"/><g fill="#e8e8e8"><path d="m500.47 401c-5.18 8.97-14.87 15-25.97 15h-437c-16.57 0-30-13.43-30-30v-260c0-11.1 6.03-20.79 15-25.97v285.97c0 8.27 6.73 15 15 15z"/><path d="m221.151 356.5h-154c-5.523 0-10-4.477-10-10v-181c0-5.523 4.477-10 10-10h154c5.523 0 10 4.477 10 10v181c0 5.523-4.478 10-10 10z"/><path d="m67.15 371.5c-13.785 0-25-11.215-25-25v-181c0-13.785 11.215-25 25-25h154c13.785 0 25 11.215 25 25v181c0 13.785-11.215 25-25 25z"/></g><path d="m221.151 356.5h-154c-5.523 0-10-4.477-10-10v-181c0-5.523 4.477-10 10-10h154c5.523 0 10 4.477 10 10v181c0 5.523-4.478 10-10 10z" fill="#d8d8d8"/><g fill="#e8e8e8"><path d="m119.651 316.5h-32c-2.761 0-5-2.239-5-5v-20c0-2.761 2.239-5 5-5h32c2.761 0 5 2.239 5 5v20c0 2.761-2.239 5-5 5z"/><path d="m200.651 316.5h-32c-2.761 0-5-2.239-5-5v-20c0-2.761 2.239-5 5-5h32c2.761 0 5 2.239 5 5v20c0 2.761-2.239 5-5 5z"/><path d="m159.5 200.5v47c0 2.761-2.239 5-5 5h-20c-2.761 0-5-2.239-5-5v-47c0-2.761 2.239-5 5-5h20c2.761 0 5 2.239 5 5z"/></g><path d="m290.849 371.5c-13.785 0-25-11.215-25-25v-181c0-13.785 11.215-25 25-25h154c13.785 0 25 11.215 25 25v181c0 13.785-11.215 25-25 25z" fill="#e8e8e8"/><path d="m444.85 356.5h-154c-5.523 0-10-4.477-10-10v-181c0-5.523 4.477-10 10-10h154c5.523 0 10 4.477 10 10v181c0 5.523-4.478 10-10 10z" fill="#d8d8d8"/><g fill="#e8e8e8"><path d="m343.35 316.5h-32c-2.761 0-5-2.239-5-5v-20c0-2.761 2.239-5 5-5h32c2.761 0 5 2.239 5 5v20c0 2.761-2.239 5-5 5z"/><path d="m424.35 316.5h-32c-2.761 0-5-2.239-5-5v-20c0-2.761 2.239-5 5-5h32c2.761 0 5 2.239 5 5v20c0 2.761-2.239 5-5 5z"/><path d="m383.199 200.5v47c0 2.761-2.239 5-5 5h-20c-2.761 0-5-2.239-5-5v-47c0-2.761 2.239-5 5-5h20c2.761 0 5 2.239 5 5z"/></g></g><g><path d="m474.5 88.5h-352.5c-4.142 0-7.5 3.358-7.5 7.5s3.358 7.5 7.5 7.5h352.5c12.407 0 22.5 10.093 22.5 22.5v102c0 4.142 3.358 7.5 7.5 7.5s7.5-3.358 7.5-7.5v-102c0-20.678-16.822-37.5-37.5-37.5z"/><path d="m504.5 255.5c-4.142 0-7.5 3.358-7.5 7.5v123c0 12.407-10.093 22.5-22.5 22.5h-437c-12.407 0-22.5-10.093-22.5-22.5v-260c0-12.407 10.093-22.5 22.5-22.5h49.5c4.142 0 7.5-3.358 7.5-7.5s-3.358-7.5-7.5-7.5h-49.5c-20.678 0-37.5 16.822-37.5 37.5v260c0 20.678 16.822 37.5 37.5 37.5h437c20.678 0 37.5-16.822 37.5-37.5v-123c0-4.142-3.358-7.5-7.5-7.5z"/><path d="m87.65 279c-6.893 0-12.5 5.607-12.5 12.5v20c0 6.893 5.607 12.5 12.5 12.5h32c6.893 0 12.5-5.607 12.5-12.5v-20c0-6.893-5.607-12.5-12.5-12.5zm29.5 30h-27v-15h27z"/><path d="m168.65 324h32c6.893 0 12.5-5.607 12.5-12.5v-20c0-6.893-5.607-12.5-12.5-12.5h-32c-6.893 0-12.5 5.607-12.5 12.5v20c0 6.893 5.608 12.5 12.5 12.5zm2.5-30h27v15h-27z"/><path d="m154.5 260c6.893 0 12.5-5.607 12.5-12.5v-47c0-6.893-5.607-12.5-12.5-12.5h-20c-6.893 0-12.5 5.607-12.5 12.5v47c0 6.893 5.607 12.5 12.5 12.5zm-17.5-57h15v42h-15z"/><path d="m311.35 279c-6.893 0-12.5 5.607-12.5 12.5v20c0 6.893 5.607 12.5 12.5 12.5h32c6.893 0 12.5-5.607 12.5-12.5v-20c0-6.893-5.607-12.5-12.5-12.5zm29.5 30h-27v-15h27z"/><path d="m379.85 291.5v20c0 6.893 5.607 12.5 12.5 12.5h32c6.893 0 12.5-5.607 12.5-12.5v-20c0-6.893-5.607-12.5-12.5-12.5h-32c-6.893 0-12.5 5.607-12.5 12.5zm15 2.5h27v15h-27z"/><path d="m378.199 188h-20c-6.893 0-12.5 5.607-12.5 12.5v47c0 6.893 5.607 12.5 12.5 12.5h20c6.893 0 12.5-5.607 12.5-12.5v-47c0-6.893-5.608-12.5-12.5-12.5zm-2.5 57h-15v-42h15z"/><path d="m231.15 293.5c4.142 0 7.5-3.358 7.5-7.5v-120.5c0-9.649-7.851-17.5-17.5-17.5h-154c-9.649 0-17.5 7.851-17.5 17.5v181c0 9.649 7.851 17.5 17.5 17.5h154c9.649 0 17.5-7.851 17.5-17.5v-25.5c0-4.142-3.358-7.5-7.5-7.5s-7.5 3.358-7.5 7.5v25.5c0 1.378-1.122 2.5-2.5 2.5h-154c-1.378 0-2.5-1.122-2.5-2.5v-181c0-1.378 1.122-2.5 2.5-2.5h154c1.378 0 2.5 1.122 2.5 2.5v120.5c0 4.142 3.358 7.5 7.5 7.5z"/><path d="m373 148h-82.15c-9.649 0-17.5 7.851-17.5 17.5v181c0 9.649 7.851 17.5 17.5 17.5h154c9.649 0 17.5-7.851 17.5-17.5v-181c0-9.649-7.851-17.5-17.5-17.5h-36.85c-4.142 0-7.5 3.358-7.5 7.5s3.358 7.5 7.5 7.5h36.85c1.378 0 2.5 1.122 2.5 2.5v181c0 1.378-1.122 2.5-2.5 2.5h-154c-1.378 0-2.5-1.122-2.5-2.5v-181c0-1.378 1.122-2.5 2.5-2.5h82.15c4.142 0 7.5-3.358 7.5-7.5s-3.358-7.5-7.5-7.5z"/></g></g></svg>