<svg id="Icons" enable-background="new 0 0 512 512" height="512" viewBox="0 0 512 512" width="512" xmlns="http://www.w3.org/2000/svg"><g><circle cx="256" cy="256" fill="#f39e22" r="256"/><g><g><g><g><path d="m402.387 205.38v217.22c0 8.69-5.24 16.14-12.73 19.39h-.01c-2.57 1.11-5.4 1.73-8.38 1.73h-250.54c-2.98 0-5.81-.62-8.38-1.73-7.49-3.24-12.74-10.7-12.74-19.39v-217.22l146.39-146.835z" fill="#fbcb74"/><path d="m402.387 205.38v217.22c0 8.69-5.24 16.14-12.73 19.39h-.01c-7.48-3.25-12.73-10.7-12.73-19.39v-217.22c0-8.68 5.25-16.13 12.73-19.39h.01c7.49 3.25 12.73 10.71 12.73 19.39z" fill="#faefdc"/><path d="m135.077 205.38v217.22c0 8.69-5.24 16.15-12.73 19.39-7.49-3.24-12.74-10.7-12.74-19.39v-217.22c0-8.68 5.25-16.14 12.74-19.39 7.49 3.25 12.73 10.71 12.73 19.39z" fill="#deb36f"/><path d="m345.09 194.096c0 7.033-5.702 12.735-12.735 12.735h-152.715c-7.033 0-12.735-5.702-12.735-12.735s5.702-12.735 12.735-12.735h152.716c7.033 0 12.734 5.702 12.734 12.735z" fill="#fbd9a3"/><path d="m363.727 206.831h-215.459c-7.285 0-13.191 5.906-13.191 13.191v187.939c0 7.285 5.906 13.191 13.191 13.191h215.458c7.285 0 13.191-5.906 13.191-13.191v-187.939c0-7.285-5.905-13.191-13.19-13.191z" fill="#c0405c"/></g><g><path d="m455.757 237.17c0 4.53-1.73 9.05-5.18 12.5-6.94 6.94-18.21 6.9-25.1-.09l-156.89-159.24c-6.92-7.03-18.26-7.03-25.18 0l-156.89 159.24c-3.46 3.51-8.03 5.27-12.59 5.27-4.53 0-9.06-1.73-12.51-5.18-5.83-5.83-6.73-14.72-2.72-21.5.74-1.25 1.65-2.43 2.72-3.5l182.11-182.1c6.9-6.91 18.1-6.9 25 0l182.05 182.1c1.07 1.07 1.98 2.25 2.72 3.5 1.64 2.77 2.46 5.88 2.46 9z" fill="#e9465e"/><path d="m453.297 228.17c-.74 1.25-1.65 2.43-2.72 3.5v.01c-6.94 6.94-18.21 6.89-25.1-.1l-156.89-159.24c-6.92-7.03-18.26-7.03-25.18 0l-156.89 159.24c-3.46 3.51-8.03 5.27-12.6 5.27-4.53 0-9.05-1.72-12.5-5.17-1.08-1.08-1.98-2.26-2.72-3.51.74-1.25 1.65-2.43 2.72-3.5l182.11-182.1c6.9-6.91 18.1-6.9 25 0l182.05 182.1c1.07 1.07 1.98 2.25 2.72 3.5z" fill="#ee6781"/><g fill="#f789a1"><path d="m131.871 170.424-.517-.507c-4.219-4.141-4.251-10.929-.07-15.109l68.629-68.625c4.127-4.127 10.809-4.156 14.972-.066 4.194 4.12 4.248 10.861.122 15.049l-68.112 69.133c-4.116 4.177-10.838 4.234-15.024.125z"/><path d="m380.135 170.423.506-.495c4.23-4.146 4.264-10.947.077-15.136l-68.588-68.608c-4.129-4.13-10.812-4.165-14.984-.079-4.211 4.124-4.272 10.885-.135 15.084l68.082 69.102c4.121 4.183 10.849 4.242 15.042.132z"/></g></g></g><g><path d="m376.607 67.01v83.67l-33.59-33.6v-50.07c0-4.68 3.79-8.47 8.46-8.47h16.67c4.67 0 8.46 3.79 8.46 8.47z" fill="#c0405c"/><path d="m376.607 67.01v71.25l-13.53-13.54c-4.9-4.89-7.64-11.53-7.64-18.44v-39.27c0-4.68 3.79-8.47 8.46-8.47h4.25c4.67 0 8.46 3.79 8.46 8.47z" fill="#e9465e"/></g></g><g><g><path d="m345.889 276.501v98.603c0 3.33-.892 6.454-2.449 9.143-2.025 3.513-5.195 6.294-8.994 7.815-2.105.858-4.417 1.327-6.831 1.327h-143.219c-2.426 0-4.737-.469-6.843-1.327-3.799-1.533-6.969-4.302-8.994-7.815-1.556-2.689-2.449-5.813-2.449-9.143v-98.603c0-7.678 4.726-14.258 11.443-16.958 2.106-.858 4.417-1.327 6.843-1.327h143.218c2.414 0 4.726.469 6.831 1.327 6.707 2.7 11.444 9.268 11.444 16.958z" fill="#d48d77"/><path d="m188.997 276.501v98.603c0 7.69-4.737 14.258-11.443 16.958-6.717-2.7-11.443-9.28-11.443-16.958v-98.603c0-7.678 4.726-14.258 11.443-16.958 6.705 2.7 11.443 9.268 11.443 16.958z" fill="#c17e62"/><path d="m345.889 276.501v98.603c0 3.33-.892 6.454-2.449 9.143-2.025 3.513-5.195 6.294-8.994 7.815-3.799-1.533-6.969-4.302-8.994-7.815-1.556-2.689-2.449-5.813-2.449-9.143v-98.603c0-7.678 4.726-14.258 11.443-16.958 6.706 2.7 11.443 9.268 11.443 16.958z" fill="#eea47d"/><path d="m343.44 384.246c-3.158 5.47-9.063 9.143-15.825 9.143h-143.219c-2.426 0-4.737-.469-6.843-1.327-3.799-1.533-6.969-4.302-8.994-7.815 2.025-3.513 5.195-6.282 8.994-7.815 2.106-.858 4.417-1.327 6.843-1.327h143.218c6.764-.001 12.668 3.672 15.826 9.141z" fill="#a26d5a"/></g><g><path d="m323.829 333.752h-135.658c-12.183 0-22.06-9.877-22.06-22.06v-10.109h179.778v10.109c0 12.183-9.876 22.06-22.06 22.06z" fill="#a26d5a"/><path d="m345.889 276.501v30.278c0 7.953-6.454 14.407-14.406 14.407h-150.966c-7.953 0-14.407-6.454-14.407-14.407v-30.278c0-7.678 4.726-14.258 11.443-16.958 2.106-.858 4.417-1.327 6.843-1.327h143.218c2.414 0 4.726.469 6.831 1.327 6.707 2.7 11.444 9.268 11.444 16.958z" fill="#c17e62"/><path d="m188.997 276.501v44.684h-8.479c-7.953 0-14.407-6.454-14.407-14.407v-30.278c0-7.678 4.726-14.258 11.443-16.958 6.705 2.701 11.443 9.269 11.443 16.959z" fill="#a26d5a"/><path d="m345.889 276.501v30.278c0 7.953-6.454 14.407-14.406 14.407h-8.479v-44.684c0-7.678 4.726-14.258 11.443-16.958 6.705 2.699 11.442 9.267 11.442 16.957z" fill="#d48d77"/><path d="m303.77 267.845h-95.54c-5.536 0-10.024 4.488-10.024 10.024s4.488 10.024 10.024 10.024h95.54c5.536 0 10.024-4.488 10.024-10.024s-4.488-10.024-10.024-10.024z" fill="#d48d77"/><path d="m298.416 280.719h-60.51c-3.555 0-6.437-2.882-6.437-6.437s2.882-6.437 6.437-6.437h60.51c3.555 0 6.437 2.882 6.437 6.437s-2.882 6.437-6.437 6.437z" fill="#eea47d"/></g><g><g><path d="m212.992 303.105c-1.293-.961-2.895-1.522-4.634-1.522h-11.534c-1.728 0-3.33.561-4.623 1.522-1.945 1.407-3.204 3.707-3.204 6.305v23.549c0 2.598 1.259 4.898 3.204 6.305 1.293.961 2.895 1.522 4.623 1.522h11.534c1.739 0 3.341-.561 4.634-1.522 1.934-1.419 3.193-3.719 3.193-6.305v-23.549c0-2.586-1.259-4.886-3.193-6.305zm-3.201 26.087c0 2.518-2.041 4.56-4.56 4.56h-5.275c-2.518 0-4.56-2.041-4.56-4.56v-16.014c0-2.518 2.041-4.56 4.56-4.56h5.275c2.518 0 4.56 2.041 4.56 4.56z" fill="#f9c744"/><path d="m216.185 309.41v23.549c0 2.586-1.259 4.886-3.193 6.305-1.945-1.419-3.204-3.719-3.204-6.305v-23.549c0-2.586 1.259-4.886 3.204-6.305 1.934 1.419 3.193 3.719 3.193 6.305z" fill="#fad98f"/><path d="m195.393 309.41v23.549c0 2.586-1.259 4.886-3.193 6.305-1.945-1.407-3.204-3.707-3.204-6.305v-23.549c0-2.598 1.259-4.898 3.204-6.305 1.934 1.419 3.193 3.719 3.193 6.305z" fill="#f39e22"/><path d="m212.992 303.105c-1.293-.961-2.895-1.522-4.634-1.522h-7.358c.419 2.576 1.406 4.959 2.811 7.035h1.42c2.518 0 4.56 2.041 4.56 4.56v.954c1.936 1.091 4.092 1.837 6.394 2.133v-6.854c0-2.587-1.259-4.887-3.193-6.306z" fill="#faefdc"/></g><g><path d="m319.811 303.105c-1.293-.961-2.895-1.522-4.634-1.522h-11.534c-1.728 0-3.33.561-4.623 1.522-1.945 1.407-3.204 3.707-3.204 6.305v23.549c0 2.598 1.259 4.898 3.204 6.305 1.293.961 2.895 1.522 4.623 1.522h11.534c1.739 0 3.341-.561 4.634-1.522 1.934-1.419 3.193-3.719 3.193-6.305v-23.549c-.001-2.586-1.259-4.886-3.193-6.305zm-3.201 26.087c0 2.518-2.041 4.56-4.56 4.56h-5.275c-2.518 0-4.56-2.041-4.56-4.56v-16.014c0-2.518 2.041-4.56 4.56-4.56h5.275c2.518 0 4.56 2.041 4.56 4.56z" fill="#f9c744"/><path d="m323.003 309.41v23.549c0 2.586-1.259 4.886-3.193 6.305-1.945-1.419-3.204-3.719-3.204-6.305v-23.549c0-2.586 1.259-4.886 3.204-6.305 1.935 1.419 3.193 3.719 3.193 6.305z" fill="#fad98f"/><path d="m302.212 309.41v23.549c0 2.586-1.259 4.886-3.193 6.305-1.945-1.407-3.204-3.707-3.204-6.305v-23.549c0-2.598 1.259-4.898 3.204-6.305 1.934 1.419 3.193 3.719 3.193 6.305z" fill="#f39e22"/><path d="m319.811 303.105c-1.293-.961-2.895-1.522-4.634-1.522h-7.358c.419 2.576 1.405 4.959 2.811 7.035h1.42c2.518 0 4.56 2.041 4.56 4.56v.954c1.936 1.091 4.092 1.837 6.394 2.133v-6.854c-.001-2.587-1.259-4.887-3.193-6.306z" fill="#faefdc"/></g></g><g><path d="m295.815 241.131v17.084h-13.72v-10.871c0-6.019-4.886-10.905-10.916-10.905h-30.346c-6.03 0-10.916 4.886-10.916 10.905v10.871h-13.72v-17.084c0-1.797.286-3.524.801-5.138 2.174-6.774 8.525-11.683 16.02-11.683h45.977c7.495 0 13.846 4.909 16.02 11.683.514 1.614.8 3.341.8 5.138z" fill="#a26d5a"/><path d="m295.014 235.993c-1.831 6.522-6.66 11.775-12.919 14.189v-2.838c0-6.019-4.886-10.905-10.916-10.905h-30.346c-6.03 0-10.916 4.886-10.916 10.905v2.838c-2.815-1.087-5.344-2.746-7.438-4.84-2.563-2.563-4.474-5.767-5.481-9.349 2.174-6.774 8.525-11.683 16.02-11.683h45.977c7.494 0 13.845 4.909 16.019 11.683z" fill="#c17e62"/><path d="m278.714 236.439h-35.277c-3.278 0-5.935-2.657-5.935-5.935v-.259c0-3.278 2.657-5.935 5.935-5.935h35.277c3.278 0 5.935 2.657 5.935 5.935v.259c0 3.278-2.657 5.935-5.935 5.935z" fill="#d48d77"/></g></g></g></g></svg>