<svg id="Capa_1" enable-background="new 0 0 512 512" height="512" viewBox="0 0 512 512" width="512" xmlns="http://www.w3.org/2000/svg"><g><g><path d="m476.5 502.5h-442c-13.807 0-25-11.193-25-25l-.573-438.72c0-10.252 4.744-25.342 13.573-29.2 3.062-1.338 6.444-2.08 10-2.08h447c13.807 0 25 11.193 25 25v447c0 3.452-.7 6.74-1.965 9.731-3.795 8.973-15.68 13.269-26.035 13.269z" fill="#f8f7f7"/><path d="m502.42 489.5c-3.86 8.83-12.67 15-22.92 15h-447c-13.81 0-25-11.19-25-25v-447c0-10.25 6.17-19.06 15-22.92v469.92c0 5.51 4.49 10 10 10z" fill="#e8e8e8"/><circle cx="255.456" cy="255.456" fill="#e8e8e8" r="224"/><path d="m254.96 461.972c-115.794 0-205.41-89.634-205.41-205.429 0-44.808 10.005-85.758 34.01-119.892.637-.905 1.287-3.518 1.938-4.413 34.522-47.486 88.434-80.011 150.002-85.841l19.46 3.172 20.54-3.164c61.58 5.858 115.494 38.422 149.996 85.947 0 0 12.794 33.113 19.303 49.518 6.669 16.806 19.298 49.63 19.298 49.63.897 7.863 1.358 15.857 1.358 23.956 0 8.817-.546 17.509-1.607 26.044l-16.097 48.59-22.483 48.782c-1.591 2.183-3.223 4.334-4.894 6.452-3.608 4.572-7.922 8.375-11.898 12.574-38.436 40.594-92.971 64.074-153.516 64.074z" fill="#9facba"/><path d="m425.28 378.88c-34.524 47.356-88.334 79.788-149.78 85.632l-20-1.769-20 1.776c-61.568-5.831-115.477-38.356-149.998-85.841-9.649-13.273-14.891-28.673-21.254-44.027-7.058-17.03-14.831-34.225-17.182-53.151-1.06-8.534-1.606-17.225-1.606-26.04 0-8.101.461-16.096 1.358-23.96 1.391-12.196 5.611-23.924 9.007-35.399 6.529-22.059 14.811-42.769 27.744-61.161-16.18 30.16-25.38 64.7-25.38 101.37 0 117.53 94.49 213.15 210.63 213.15 62.021 0 117.871-27.27 156.461-70.58z" fill="#8d9ca8"/><path d="m85.5 132.24v94.26c0 2.76-2.24 5-5 5h-22.25l-10.351-.39c3.987-34.923 15.491-66.889 34.499-94.486 1.016-1.475 2.05-2.937 3.102-4.384z" fill="#b6c4cf"/><g fill="#8d9ca8"><circle cx="256.544" cy="256.544" r="27.5"/><circle cx="355" cy="256.5" r="41"/><circle cx="157.5" cy="257" r="41"/></g><path d="m392.05 274.07c-6.58 13.85-20.7 23.43-37.05 23.43-22.64 0-41-18.36-41-41 0-14.52 7.56-27.29 18.95-34.57-2.53 5.32-3.95 11.28-3.95 17.57 0 22.64 18.36 41 41 41 8.12 0 15.68-2.36 22.05-6.43z" fill="#7a8c98"/><path d="m194.55 274.57c-6.58 13.85-20.7 23.43-37.05 23.43-22.64 0-41-18.36-41-41 0-14.52 7.56-27.29 18.95-34.57-2.53 5.32-3.95 11.28-3.95 17.57 0 22.64 18.36 41 41 41 8.12 0 15.68-2.36 22.05-6.43z" fill="#7a8c98"/><path d="m275.5 46.41v30.09c0 5.52-2.24 10.52-5.86 14.14s-8.62 5.86-14.14 5.86c-11.05 0-20-8.95-20-20v-30.1c6.57-.62 13.23-.94 19.96-.94 6.76 0 13.45.32 20.04.95z" fill="#b6c4cf"/><path d="m275.5 435.5v29.01l-20.54-2.538-19.46 2.547v-29.019c0-11.05 8.95-20 20-20 5.52 0 10.52 2.24 14.14 5.86s5.86 8.62 5.86 14.14z" fill="#b6c4cf"/><path d="m85.5 286.5v54.69l-1.652 30.988c-20.35-28-29.827-52.145-34.297-88.135l13.41-2.544h17.539c2.76.001 5 2.241 5 5.001z" fill="#b6c4cf"/><g><path d="m62.96 281.5c4.54 21.24 12.23 41.31 22.54 59.69v37.49c-19.404-26.566-34.104-60.847-38.43-97.18z" fill="#8d9ca8"/><g fill="#9facba"><path d="m275.5 449.35v15.16c-11.334 1.067-25.167 1.424-40 .01v-17.73c10.85 1.76 21.98 2.67 33.32 2.67 2.23 0 4.46-.04 6.68-.11z"/><path d="m83.56 134.96c-15.46 28.83-24.55 61.67-25.31 96.54h-11.43c3.833-33.122 15.926-67.286 36.74-96.54z"/><path d="m85.5 341.19v37.49c-19.404-26.566-34.104-60.847-38.43-97.18h15.89c4.54 21.24 12.23 41.31 22.54 59.69z"/></g></g><path d="m463.85 281.5c-4.46 35.94-18.04 69.1-38.35 97.07v-92.07c0-2.76 2.24-5 5-5z" fill="#b6c4cf"/><path d="m464.1 231.5h-33.6c-2.76 0-5-2.24-5-5v-94.15c20.7 28.51 34.41 62.4 38.6 99.15z" fill="#b6c4cf"/></g><g><path d="m479.5 0h-447c-17.921 0-32.5 14.58-32.5 32.5v19.5c0 4.142 3.357 7.5 7.5 7.5s7.5-3.358 7.5-7.5v-19.5c0-9.649 7.851-17.5 17.5-17.5h447c9.649 0 17.5 7.851 17.5 17.5v447c0 9.649-7.851 17.5-17.5 17.5h-447c-9.649 0-17.5-7.851-17.5-17.5v-392.5c0-4.142-3.357-7.5-7.5-7.5s-7.5 3.358-7.5 7.5v392.5c0 17.92 14.579 32.5 32.5 32.5h447c17.921 0 32.5-14.58 32.5-32.5v-447c0-17.92-14.579-32.5-32.5-32.5z"/><path d="m391.002 425.444c52.083-41.613 81.954-103.571 81.954-169.988 0-119.93-97.57-217.5-217.5-217.5s-217.5 97.57-217.5 217.5 97.57 217.5 217.5 217.5c37.054 0 73.666-9.527 105.879-27.552 3.615-2.022 4.905-6.592 2.883-10.207-2.021-3.614-6.593-4.906-10.207-2.883-21.953 12.284-46.108 20.307-71.011 23.733v-20.547c0-15.164-12.337-27.5-27.5-27.5s-27.5 12.336-27.5 27.5v20.587c-55.124-7.506-103.266-37.269-135.034-79.922.019-.22.034-.441.034-.666v-89c0-6.893-5.607-12.5-12.5-12.5h-26.686c-.945-10.467-1.206-22.6-.186-35h26.872c6.893 0 12.5-5.607 12.5-12.5v-91.8c31.768-42.628 79.895-72.373 135-79.876v21.677c0 15.164 12.337 27.5 27.5 27.5s27.5-12.336 27.5-27.5v-21.663c55.119 7.53 103.25 37.314 135 79.984v42.179c0 4.142 3.357 7.5 7.5 7.5s7.5-3.358 7.5-7.5v-18.845c11.072 20.123 18.824 42.317 22.509 65.845h-22.509v-12c0-4.142-3.357-7.5-7.5-7.5s-7.5 3.358-7.5 7.5v14.5c0 6.893 5.607 12.5 12.5 12.5h26.784c.834 10.101.952 22.987-.182 35h-26.602c-6.893 0-12.5 5.607-12.5 12.5v89c0 .212.014.421.032.629-10.327 13.851-22.508 26.502-36.393 37.596-3.236 2.585-3.764 7.305-1.178 10.541 2.585 3.235 7.305 3.765 10.541 1.178zm-148.002 10.056c0-6.893 5.607-12.5 12.5-12.5s12.5 5.607 12.5 12.5v22.06c-7.049.427-15.756.584-25 .002zm-165-146.5v63.914c-10.79-19.568-18.431-41.101-22.25-63.914zm0-65h-22.597c3.695-23.589 11.478-45.837 22.597-66.002zm190-147.5c0 6.893-5.607 12.5-12.5 12.5s-12.5-5.607-12.5-12.5v-23.15c7.038-.422 15.749-.584 25 .006zm165 212.5h22.179c-3.758 22.537-11.275 44.099-22.179 63.897z"/><path d="m256.544 221.544c-19.299 0-35 15.701-35 35s15.701 35 35 35 35-15.701 35-35-15.701-35-35-35zm0 15c2.961 0 5.764.664 8.295 1.824l-26.949 25.332c-.857-2.225-1.346-4.632-1.346-7.156 0-11.028 8.972-20 20-20zm0 40c-3.009 0-5.853-.687-8.415-1.882l27.022-25.401c.888 2.26 1.393 4.711 1.393 7.283 0 11.028-8.972 20-20 20z"/><path d="m403.5 256.5c0-26.743-21.757-48.5-48.5-48.5s-48.5 21.757-48.5 48.5 21.757 48.5 48.5 48.5 48.5-21.757 48.5-48.5zm-48.5 33.5c-18.472 0-33.5-15.028-33.5-33.5s15.028-33.5 33.5-33.5 33.5 15.028 33.5 33.5-15.028 33.5-33.5 33.5z"/><path d="m157.5 223.5c1.26 0 2.527.07 3.767.209 4.122.458 7.827-2.503 8.287-6.62.461-4.117-2.503-7.827-6.619-8.287-1.791-.2-3.62-.302-5.435-.302-26.743 0-48.5 21.757-48.5 48.5s21.757 48.5 48.5 48.5 48.5-21.757 48.5-48.5c0-8.046-2.014-16.019-5.822-23.056-1.971-3.643-6.523-4.998-10.165-3.026-3.644 1.972-4.998 6.523-3.026 10.166 2.625 4.852 4.013 10.355 4.013 15.916 0 18.472-15.028 33.5-33.5 33.5s-33.5-15.028-33.5-33.5 15.028-33.5 33.5-33.5z"/></g></g></svg>