<svg id="Icons" enable-background="new 0 0 512 512" height="512" viewBox="0 0 512 512" width="512" xmlns="http://www.w3.org/2000/svg"><g><circle cx="256" cy="256" fill="#53b976" r="256"/><g><path d="m293.48 476.141c-2.883.469-5.608-1.476-6.097-4.36-.491-2.896 1.459-5.642 4.354-6.133 6.955-1.18 13.916-2.718 20.69-4.575 2.836-.784 5.759.89 6.535 3.724.777 2.832-.891 5.758-3.724 6.535-7.113 1.949-14.421 3.566-21.722 4.804-.013.001-.024.003-.036.005zm-43.28 3.017c-.33.054-.669.077-1.016.067-7.396-.216-14.859-.808-22.183-1.759-2.913-.378-4.967-3.047-4.589-5.96.377-2.913 3.048-4.966 5.959-4.589 6.973.906 14.079 1.47 21.123 1.675 2.936.086 5.247 2.535 5.16 5.471-.074 2.591-1.99 4.694-4.454 5.095zm104.977-23.312c-2.227.363-4.526-.73-5.6-2.85-1.326-2.621-.276-5.821 2.345-7.147 6.277-3.176 12.471-6.71 18.408-10.504 2.479-1.584 5.764-.856 7.345 1.618 1.582 2.475.857 5.764-1.617 7.345-6.237 3.984-12.741 7.696-19.334 11.031-.499.255-1.022.422-1.547.507zm-168.89 11.72c-.837.136-1.717.074-2.574-.22-6.99-2.395-13.941-5.172-20.66-8.255-2.67-1.225-3.841-4.382-2.616-7.052 1.223-2.669 4.377-3.843 7.052-2.617 6.399 2.936 13.018 5.58 19.672 7.861 2.779.952 4.259 3.977 3.308 6.756-.66 1.921-2.309 3.222-4.182 3.527zm221.825-49.382c-1.663.271-3.427-.251-4.686-1.555-2.041-2.113-1.981-5.48.131-7.52 5.068-4.893 9.946-10.095 14.5-15.462 1.9-2.239 5.255-2.515 7.497-.614 2.24 1.901 2.514 5.257.614 7.497-4.781 5.634-9.902 11.095-15.222 16.231-.809.781-1.803 1.255-2.834 1.423zm-279.429 19.402c-1.352.22-2.788-.079-3.983-.949-5.978-4.349-11.806-9.047-17.323-13.964-2.193-1.954-2.385-5.316-.431-7.509 1.953-2.193 5.317-2.386 7.509-.432 5.255 4.684 10.807 9.16 16.502 13.303 2.376 1.728 2.9 5.054 1.173 7.429-.86 1.182-2.112 1.905-3.447 2.122zm318.945-70.946c-1.137.185-2.341.004-3.426-.596-2.57-1.422-3.501-4.659-2.08-7.229 3.411-6.166 6.547-12.569 9.321-19.029 1.158-2.699 4.285-3.948 6.986-2.789 2.699 1.159 3.948 4.286 2.789 6.986-2.913 6.784-6.206 13.506-9.787 19.98-.821 1.487-2.248 2.424-3.803 2.677zm-365.227 25.371c-1.89.308-3.882-.419-5.112-2.056-4.44-5.913-8.632-12.119-12.459-18.444-1.52-2.513-.715-5.783 1.798-7.304 2.515-1.522 5.784-.716 7.304 1.797 3.643 6.023 7.635 11.932 11.863 17.563 1.764 2.349 1.289 5.683-1.06 7.447-.711.534-1.513.863-2.334.997zm387.832-86.256c-.625.102-1.279.092-1.936-.044-2.876-.598-4.722-3.414-4.124-6.29 1.433-6.895 2.531-13.938 3.266-20.934.306-2.921 2.925-5.043 5.844-4.734 2.922.306 5.041 2.923 4.735 5.844-.771 7.348-1.925 14.747-3.431 21.989-.461 2.219-2.243 3.826-4.354 4.169zm-418.632 29.06c-2.483.404-4.979-1.007-5.856-3.461-2.486-6.953-4.65-14.121-6.431-21.304-.707-2.851 1.031-5.735 3.883-6.442 2.837-.706 5.734 1.031 6.442 3.883 1.695 6.839 3.756 13.663 6.121 20.283.989 2.766-.451 5.809-3.217 6.798-.312.111-.626.192-.942.243zm422.203-93.908c-.115.019-.231.034-.348.045-2.924.282-5.523-1.859-5.805-4.782l-.045-.467c-.447-4.662-1.058-9.392-1.813-14.024-.374-2.3-.793-4.63-1.243-6.922-.566-2.882 1.311-5.678 4.193-6.244 2.921-.532 5.679 1.312 6.244 4.194.473 2.405.911 4.849 1.304 7.263.791 4.861 1.433 9.824 1.906 14.752l.04.426c.272 2.805-1.69 5.312-4.433 5.759zm-434.695 30.168c-.202.033-.408.054-.618.064-2.934.134-5.422-2.136-5.556-5.07-.338-7.401-.309-14.887.086-22.248.158-2.933 2.667-5.184 5.596-5.025 2.933.157 5.183 2.662 5.026 5.596-.376 7.011-.404 14.141-.081 21.191.124 2.725-1.825 5.064-4.453 5.492zm418.928-93.622c-2.377.387-4.795-.887-5.76-3.207-2.706-6.498-5.773-12.934-9.118-19.13-1.395-2.585-.43-5.812 2.155-7.207 2.58-1.392 5.811-.431 7.206 2.154 3.513 6.508 6.735 13.269 9.576 20.094 1.13 2.711-.154 5.825-2.865 6.954-.393.164-.793.277-1.194.342zm-412.204 29.031c-.707.115-1.451.088-2.189-.104-2.843-.739-4.549-3.642-3.81-6.485 1.858-7.149 4.103-14.292 6.672-21.232 1.019-2.754 4.079-4.16 6.834-3.141 2.755 1.02 4.161 4.08 3.141 6.834-2.446 6.608-4.583 13.409-6.352 20.214-.548 2.104-2.28 3.586-4.296 3.914zm378.54-84.581c-1.796.292-3.696-.345-4.946-1.844-4.506-5.407-9.339-10.652-14.364-15.588-2.095-2.059-2.124-5.426-.066-7.521 2.059-2.094 5.425-2.125 7.522-.066 5.274 5.182 10.348 10.688 15.08 16.364 1.881 2.257 1.576 5.61-.68 7.491-.757.63-1.639 1.016-2.546 1.164zm-352.983 24.876c-1.221.199-2.516-.025-3.651-.727-2.498-1.546-3.269-4.824-1.723-7.321 3.889-6.286 8.139-12.449 12.629-18.317 1.786-2.333 5.124-2.775 7.455-.991 2.333 1.785 2.777 5.123.992 7.456-4.278 5.59-8.325 11.46-12.032 17.449-.843 1.363-2.203 2.212-3.67 2.451zm304.445-68.051c-1.263.206-2.604-.041-3.761-.796-5.897-3.849-12.054-7.445-18.3-10.689-2.607-1.353-3.622-4.564-2.269-7.171s4.563-3.622 7.171-2.269c6.557 3.405 13.022 7.18 19.212 11.221 2.46 1.605 3.152 4.901 1.547 7.361-.851 1.304-2.176 2.111-3.6 2.343zm-262.453 18.486c-1.751.285-3.606-.312-4.861-1.745-1.935-2.21-1.713-5.57.497-7.505 5.564-4.872 11.435-9.519 17.451-13.811 2.391-1.706 5.713-1.149 7.419 1.241 1.706 2.391 1.15 5.713-1.241 7.419-5.73 4.087-11.323 8.513-16.62 13.152-.777.68-1.696 1.094-2.645 1.249zm203.396-45.493c-.751.122-1.537.085-2.316-.138-6.77-1.938-13.712-3.555-20.635-4.803-2.891-.521-4.812-3.287-4.29-6.178.521-2.891 3.287-4.813 6.177-4.291 7.272 1.311 14.565 3.009 21.677 5.046 2.824.809 4.458 3.753 3.649 6.577-.587 2.046-2.294 3.467-4.262 3.787zm-148.698 10.471c-2.326.379-4.706-.833-5.71-3.087-1.196-2.683.011-5.827 2.694-7.022 6.756-3.01 13.742-5.71 20.762-8.026 2.796-.92 5.797.596 6.717 3.385.92 2.79-.595 5.797-3.385 6.717-6.684 2.205-13.334 4.775-19.766 7.641-.428.19-.87.32-1.312.392zm84.297-18.787c-.244.04-.493.063-.747.068-5.301.114-10.677.429-15.979.939-1.73.166-3.451.352-5.168.559-2.916.352-5.564-1.727-5.917-4.643-.352-2.917 1.746-5.569 4.644-5.917 1.801-.217 3.61-.413 5.424-.587 5.564-.534 11.204-.866 16.767-.985 2.937-.063 5.368 2.267 5.432 5.203.058 2.683-1.882 4.944-4.456 5.363z" fill="#9acdae"/></g><g><g><g><path d="m374.266 196.031-97.437 168.766c-4.905 8.495-1.997 19.348 6.492 24.249l81.207 46.885c2.077 1.199 4.3 1.929 6.531 2.226 6.911.917 14.009-2.31 17.715-8.728l97.437-168.766c3.702-6.412 2.948-14.172-1.303-19.699-1.373-1.784-3.116-3.344-5.193-4.544l-81.207-46.885c-8.488-4.9-19.341-1.992-24.242 6.496z" fill="#334353"/><path d="m374.266 196.031-88.939 154.046c67.969-11.399 130.516-51.95 167.669-116.301 1.857-3.216 3.628-6.454 5.314-9.715l-59.802-34.526c-8.488-4.9-19.341-1.992-24.242 6.496z" fill="#3e4e60"/><path d="m473.543 247.113-102.837 178.118c-2.406 4.167-2.116 9.158.354 12.925 6.912.917 14.009-2.31 17.715-8.728l97.437-168.766c3.702-6.412 2.948-14.172-1.303-19.699-4.497-.255-8.96 1.983-11.366 6.15z" fill="#2e3140"/><g fill="#3f5d77"><circle cx="324.056" cy="394.515" r="11.605"/><path d="m394.048 203.996 46.009 26.564c3.528 2.037 8.04.828 10.077-2.7s.828-8.04-2.7-10.077l-46.009-26.564c-3.528-2.037-8.04-.828-10.077 2.7-2.037 3.529-.828 8.04 2.7 10.077z"/></g></g><g><g><path d="m465.684 281.564-20.864 36.138c-.672 1.164-.272 2.656.892 3.328l2.832 1.635c3.36 1.94 7.647.791 9.583-2.563l16.29-28.215c1.937-3.354.791-7.647-2.569-9.586l-2.832-1.635c-1.164-.672-2.656-.272-3.332.898z" fill="#334353"/><path d="m465.684 281.564-13.214 22.888c-.675 1.17-.275 2.662.888 3.334l2.832 1.635c3.36 1.94 7.65.785 9.586-2.569l8.64-14.964c1.937-3.354.791-7.647-2.569-9.586l-2.832-1.635c-1.163-.673-2.655-.273-3.331.897z" fill="#3e4e60"/></g><g><path d="m364.253 223.002-9.26 16.039c-.672 1.164-2.164 1.564-3.328.892l-2.832-1.635c-3.36-1.94-4.508-6.227-2.572-9.581l4.685-8.115c1.937-3.354 6.227-4.509 9.586-2.569l2.832 1.635c1.165.673 1.564 2.165.889 3.334z" fill="#334353"/><path d="m364.253 223.002-5.478 9.489c-.675 1.17-2.168 1.569-3.331.897l-2.832-1.635c-3.36-1.94-4.505-6.232-2.569-9.586l.904-1.565c1.937-3.354 6.227-4.509 9.586-2.569l2.832 1.635c1.164.673 1.563 2.165.888 3.334z" fill="#3e4e60"/></g><g><path d="m346.799 253.234-9.26 16.039c-.672 1.164-2.164 1.564-3.328.892l-2.832-1.635c-3.36-1.94-4.508-6.227-2.572-9.581l4.685-8.115c1.937-3.354 6.227-4.509 9.586-2.569l2.832 1.635c1.164.672 1.564 2.164.889 3.334z" fill="#334353"/><path d="m346.799 253.234-5.478 9.489c-.675 1.17-2.168 1.569-3.331.897l-2.832-1.635c-3.36-1.94-4.505-6.232-2.569-9.586l.904-1.565c1.937-3.354 6.227-4.509 9.586-2.569l2.832 1.635c1.163.672 1.563 2.164.888 3.334z" fill="#3e4e60"/></g></g><g><path d="m287.809 248.328h176.91v111.517h-176.91z" fill="#22bce0" transform="matrix(.5 -.866 .866 .5 -75.214 477.898)"/><path d="m372.204 199.602-86.877 150.475c64.663-10.842 124.408-48.071 162.054-107.072z" fill="#4fcae8"/></g></g><g><circle cx="374.969" cy="304.783" fill="#334353" r="49.169"/><g><g><path d="m374.62 353.946c-3.491-.002-6.993-.395-10.446-1.167-4.732-1.082-9.38-2.866-13.783-5.408-4.917-2.839-9.159-6.402-12.656-10.478l1.512-2.619c4.156-7.199 13.367-9.681 20.582-5.515l8.967 5.177c7.007 4.045 9.543 12.901 5.824 20.01z" fill="#dd5e26"/><path d="m365.955 349.693-1.781 3.085c-4.732-1.082-9.38-2.866-13.783-5.408-4.917-2.839-9.159-6.402-12.656-10.478l1.512-2.619c4.156-7.199 13.367-9.681 20.582-5.515l.611.353c7.215 4.166 9.672 13.383 5.515 20.582z" fill="#ea792e"/></g><g><path d="m361.674 322.522-3.633 6.292c-1.848 3.2-.748 7.29 2.452 9.138 1.073.62 2.248.908 3.402.896 2.287-.02 4.505-1.217 5.733-3.344l3.633-6.292z" fill="#f5b890"/><path d="m373.262 329.212-3.633 6.292c-1.228 2.127-3.446 3.324-5.733 3.344l3.883-6.725c-2.5-.322-4.983-1.136-7.306-2.477-.741-.428-1.442-.897-2.104-1.397l3.307-5.728z" fill="#d48d77"/></g><g><g><path d="m368.689 276.046-13.671 23.679c-2.717 4.706-3.271 10.069-1.968 14.933.944 3.509 2.85 6.756 5.601 9.316 1.068.99 2.26 1.876 3.574 2.635 9.412 5.434 21.452 2.212 26.886-7.201l13.671-23.679c2.978-5.159 1.207-11.757-3.952-14.735l-15.408-8.896c-.905-.523-1.852-.899-2.822-1.133-4.539-1.12-9.455.827-11.911 5.081z" fill="#d48d77"/><path d="m368.689 276.046-13.671 23.679c-2.717 4.706-3.271 10.069-1.968 14.933.944 3.509 2.85 6.756 5.601 9.316 8.579 2.641 18.142-.88 22.818-8.978l5.231-9.06c6.806-11.788 3.954-26.496-6.1-34.971-4.539-1.12-9.455.827-11.911 5.081z" fill="#f5b890"/><g fill="#eea47d"><path d="m371.856 298.796 3.475 2.006c1.427.824 1.916 2.649 1.092 4.076s-2.649 1.916-4.076 1.092l-3.475-2.006c-1.427-.824-1.916-2.649-1.092-4.076.823-1.427 2.648-1.916 4.076-1.092z"/><path d="m378.699 273.216h5.034v30.93h-5.034z" transform="matrix(-.866 -.5 .5 -.866 567.017 729.294)"/></g><g fill="#334353"><path d="m387.138 294.141c1.304.753 1.751 2.421.998 3.725l-2.38 4.122c-.753 1.304-2.421 1.751-3.725.998s-1.751-2.421-.998-3.725l2.38-4.122c.753-1.304 2.42-1.751 3.725-.998z"/><path d="m373.526 286.282c1.304.753 1.751 2.421.998 3.725l-2.38 4.122c-.753 1.304-2.421 1.751-3.725.998s-1.751-2.421-.998-3.725l2.38-4.122c.753-1.304 2.421-1.751 3.725-.998z"/></g><g><path d="m367.575 315.915c4.091 2.362 9.341.955 11.703-3.136.447-.774.182-1.764-.592-2.211s-1.764-.182-2.211.592c-1.469 2.545-4.736 3.42-7.281 1.951-.774-.447-1.764-.182-2.211.592-.447.776-.182 1.765.592 2.212z" fill="#c17e62"/></g></g><g><path d="m353.038 314.61c-1.287-4.852-.729-10.194 1.98-14.884l11.332-19.627 2.916 1.684c4.009 2.315 9.136.941 11.451-3.068-2.315 4.009-.941 9.136 3.068 11.451l16.658 9.617-11.332 19.627c-2.708 4.691-7.058 7.844-11.904 9.154 5.982 3.454 13.632 1.411 17.095-4.566l13.42-23.157c6.758-11.705 2.75-26.661-8.955-33.419-1.676-.967-3.419-1.713-5.196-2.251-4.423-1.33-9.055-1.348-13.368-.192-6.046 1.62-11.478 5.548-14.855 11.398l-15.399 26.72c-2.325 4.032-.942 9.185 3.089 11.513z" fill="#daab42"/><path d="m353.038 314.61c-1.287-4.852-.729-10.194 1.98-14.884l11.332-19.627 2.916 1.684c4.009 2.315 9.136.941 11.451-3.068-2.315 4.009-.941 9.136 3.068 11.451l12.833 7.409 1.361-2.358c5.79-10.029 3.673-22.443-4.408-30.045-4.423-1.33-9.055-1.348-13.368-.192-6.046 1.62-11.478 5.548-14.855 11.398l-15.399 26.72c-2.325 4.031-.942 9.184 3.089 11.512z" fill="#f9c744"/></g><g><g><path d="m394.686 316.383-2.873-1.659 5.191-8.991 2.873 1.659c2.483 1.433 3.333 4.608 1.9 7.091-1.434 2.483-4.608 3.334-7.091 1.9z" fill="#d48d77"/><path d="m396.313 313.901-3.018-1.742 2.227-3.858 3.018 1.742c1.065.615 1.43 1.977.815 3.043-.615 1.065-1.977 1.43-3.042.815z" fill="#c17e62"/></g><g><path d="m361.654 285.325 1.258.726-5.191 8.991-1.258-.726c-2.483-1.433-3.333-4.608-1.9-7.091 1.434-2.482 4.609-3.333 7.091-1.9z" fill="#d48d77"/><path d="m360.028 287.808 1.403.81-2.227 3.858-1.403-.81c-1.065-.615-1.43-1.977-.815-3.043.614-1.065 1.976-1.43 3.042-.815z" fill="#c17e62"/></g></g></g></g></g></g><g id="Speech-bubble_4_"><path d="m335.974 136.399c-2.389 1.379-5.404 1.564-8.051.228l-44.475-22.468c-4.17-2.107-5.842-7.194-3.736-11.364s7.194-5.841 11.364-3.736l44.475 22.468c4.169 2.107 5.842 7.194 3.736 11.364-.769 1.523-1.938 2.714-3.313 3.508z" fill="#ebd9ea"/><path d="m342.598 63.229v18.395c0 7.452-2.524 14.306-6.764 19.771-5.9 7.597-15.121 12.482-25.484 12.482h-81.7c-10.363 0-19.584-4.885-25.478-12.482-4.245-5.465-6.77-12.319-6.77-19.771v-18.395c0-7.452 2.524-14.306 6.77-19.765 5.894-7.597 15.115-12.482 25.478-12.482h81.7c10.363 0 19.584 4.885 25.484 12.482 4.24 5.459 6.764 12.313 6.764 19.765z" fill="#ebd9ea"/><path d="m342.598 63.229v18.395c0 7.452-2.524 14.306-6.764 19.771-4.245-5.465-6.77-12.319-6.77-19.771v-18.395c0-7.452 2.524-14.306 6.77-19.765 4.24 5.459 6.764 12.313 6.764 19.765z" fill="#fff"/><path d="m209.935 63.229v18.395c0 7.452-2.524 14.306-6.764 19.771-4.245-5.465-6.77-12.319-6.77-19.771v-18.395c0-7.452 2.524-14.306 6.77-19.765 4.24 5.459 6.764 12.313 6.764 19.765z" fill="#c1b7d3"/></g><g><g><g><path d="m137.734 196.031 97.437 168.766c4.905 8.495 1.997 19.348-6.492 24.249l-81.207 46.885c-2.077 1.199-4.3 1.929-6.531 2.226-6.911.917-14.009-2.31-17.715-8.728l-97.437-168.766c-3.702-6.412-2.948-14.172 1.303-19.699 1.373-1.784 3.116-3.345 5.193-4.544l81.207-46.885c8.488-4.9 19.341-1.992 24.242 6.496z" fill="#334353"/><path d="m137.734 196.031 88.939 154.046c-67.968-11.399-130.516-51.95-167.669-116.301-1.857-3.216-3.628-6.454-5.314-9.715l59.802-34.526c8.488-4.9 19.341-1.992 24.242 6.496z" fill="#3e4e60"/><path d="m38.457 247.113 102.837 178.118c2.406 4.167 2.116 9.158-.354 12.925-6.912.917-14.009-2.31-17.715-8.728l-97.437-168.765c-3.702-6.412-2.948-14.172 1.303-19.699 4.497-.256 8.96 1.982 11.366 6.149z" fill="#2e3140"/><g fill="#3f5d77"><circle cx="187.944" cy="394.515" r="11.605"/><path d="m117.952 203.996-46.01 26.564c-3.528 2.037-8.04.828-10.077-2.7s-.828-8.04 2.7-10.077l46.009-26.564c3.528-2.037 8.04-.828 10.077 2.7 2.038 3.529.829 8.04-2.699 10.077z"/></g></g><g><g><path d="m46.316 281.564 20.864 36.138c.672 1.164.272 2.656-.892 3.328l-2.832 1.635c-3.36 1.94-7.647.791-9.583-2.563l-16.29-28.215c-1.937-3.354-.791-7.647 2.569-9.586l2.832-1.635c1.164-.672 2.656-.272 3.332.898z" fill="#334353"/><path d="m46.316 281.564 13.214 22.888c.675 1.17.275 2.662-.889 3.334l-2.832 1.635c-3.36 1.94-7.65.785-9.586-2.569l-8.64-14.964c-1.937-3.354-.791-7.647 2.569-9.586l2.832-1.635c1.164-.673 2.656-.273 3.332.897z" fill="#3e4e60"/></g><g><path d="m147.747 223.002 9.26 16.039c.672 1.164 2.164 1.564 3.328.892l2.832-1.635c3.36-1.94 4.508-6.227 2.572-9.581l-4.685-8.115c-1.937-3.354-6.227-4.509-9.586-2.569l-2.832 1.635c-1.165.673-1.564 2.165-.889 3.334z" fill="#334353"/><path d="m147.747 223.002 5.478 9.489c.675 1.17 2.167 1.569 3.331.897l2.832-1.635c3.36-1.94 4.505-6.232 2.569-9.586l-.904-1.565c-1.937-3.354-6.227-4.509-9.586-2.569l-2.832 1.635c-1.164.673-1.563 2.165-.888 3.334z" fill="#3e4e60"/></g><g><path d="m165.201 253.234 9.26 16.039c.672 1.164 2.164 1.564 3.328.892l2.832-1.635c3.36-1.94 4.508-6.227 2.572-9.581l-4.685-8.115c-1.937-3.354-6.227-4.509-9.586-2.569l-2.832 1.635c-1.164.672-1.564 2.164-.889 3.334z" fill="#334353"/><path d="m165.201 253.234 5.478 9.489c.675 1.17 2.168 1.569 3.331.897l2.832-1.635c3.36-1.94 4.505-6.232 2.569-9.586l-.904-1.565c-1.937-3.354-6.227-4.509-9.586-2.569l-2.832 1.635c-1.163.672-1.563 2.164-.888 3.334z" fill="#3e4e60"/></g></g><g><path d="m79.977 215.631h111.517v176.91h-111.517z" fill="#22bce0" transform="matrix(.866 -.5 .5 .866 -133.858 108.607)"/><path d="m139.796 199.602 86.877 150.475c-64.663-10.842-124.408-48.071-162.054-107.072z" fill="#4fcae8"/></g></g><g><ellipse cx="137.036" cy="304.778" fill="#334353" rx="49.164" ry="49.164" transform="matrix(.707 -.707 .707 .707 -175.374 186.167)"/><g><g><path d="m172.747 334.236 1.528 2.647c-3.505 4.083-7.74 7.635-12.659 10.475-4.385 2.532-9.01 4.308-13.706 5.383-3.444.777-6.923 1.18-10.395 1.2-3.777-7.12-1.265-15.992 5.767-20.052l8.941-5.162c7.191-4.152 16.373-1.683 20.524 5.509z" fill="#dd5e26"/><path d="m172.747 334.236 1.528 2.647c-3.505 4.083-7.74 7.635-12.659 10.475-4.385 2.532-9.01 4.308-13.706 5.383l-1.804-3.124c-4.152-7.191-1.688-16.384 5.503-20.536l.613-.354c7.192-4.152 16.374-1.683 20.525 5.509z" fill="#ea792e"/></g><g><path d="m150.374 322.515 3.623 6.275c1.843 3.191.746 7.27-2.445 9.113-1.07.618-2.241.905-3.393.894-2.28-.02-4.493-1.214-5.717-3.335l-3.623-6.275z" fill="#f5b890"/><path d="m138.819 329.187 3.623 6.275c1.225 2.121 3.437 3.315 5.717 3.335l-3.872-6.706c2.493-.321 4.97-1.133 7.286-2.471.739-.427 1.438-.894 2.099-1.393l-3.298-5.712z" fill="#d48d77"/></g><g><g><g><path d="m117.453 316.394 2.865-1.654-5.176-8.966-2.865 1.654c-2.476 1.429-3.324 4.595-1.895 7.071s4.595 3.324 7.071 1.895z" fill="#d48d77"/><path d="m115.831 313.918 3.01-1.738-2.221-3.847-3.01 1.738c-1.062.613-1.426 1.972-.813 3.034s1.971 1.426 3.034.813z" fill="#c17e62"/></g><g><path d="m150.394 285.421-1.255.724 5.176 8.966 1.255-.724c2.476-1.429 3.324-4.595 1.895-7.071-1.429-2.477-4.595-3.325-7.071-1.895z" fill="#d48d77"/><path d="m152.016 287.896-1.399.808 2.221 3.847 1.399-.808c1.062-.613 1.426-1.972.813-3.034s-1.971-1.426-3.034-.813z" fill="#c17e62"/></g></g><g><path d="m143.379 276.167 13.634 23.615c2.71 4.693 3.262 10.041 1.962 14.892-.941 3.499-2.842 6.738-5.586 9.291-1.065.988-2.254 1.871-3.564 2.627-9.387 5.419-21.393 2.206-26.812-7.181l-13.634-23.615c-2.97-5.145-1.204-11.725 3.941-14.695l15.366-8.872c.903-.521 1.847-.896 2.815-1.13 4.527-1.116 9.429.826 11.878 5.068z" fill="#d48d77"/><path d="m143.379 276.167 13.634 23.615c2.71 4.693 3.262 10.041 1.962 14.892-.941 3.499-2.842 6.738-5.586 9.291-8.556 2.634-18.092-.877-22.755-8.954l-5.216-9.035c-6.787-11.755-3.944-26.424 6.083-34.876 4.527-1.117 9.429.825 11.878 5.067z" fill="#f5b890"/><g fill="#eea47d"><path d="m140.221 298.854-3.466 2.001c-1.423.822-1.911 2.642-1.089 4.065s2.642 1.911 4.065 1.089l3.466-2.001c1.423-.822 1.911-2.642 1.089-4.065s-2.642-1.91-4.065-1.089z"/><path d="m128.377 273.345h5.02v30.846h-5.02z" transform="matrix(.866 -.5 .5 .866 -126.848 104.131)"/></g><g fill="#334353"><path d="m124.981 294.212c-1.301.751-1.746 2.414-.995 3.715l2.373 4.111c.751 1.301 2.414 1.746 3.715.995s1.746-2.414.995-3.715l-2.373-4.111c-.751-1.3-2.415-1.746-3.715-.995z"/><path d="m138.555 286.375c-1.301.751-1.746 2.414-.995 3.715l2.373 4.111c.751 1.301 2.414 1.746 3.715.995s1.746-2.414.995-3.715l-2.373-4.111c-.751-1.3-2.414-1.746-3.715-.995z"/></g><g><path d="m144.489 315.927c-4.08 2.356-9.316.953-11.671-3.127-.446-.772-.181-1.759.591-2.205s1.759-.181 2.205.591c1.465 2.538 4.723 3.411 7.261 1.945.772-.446 1.759-.181 2.205.591s.182 1.759-.591 2.205z" fill="#c17e62"/></g></g><g><path d="m120.318 314.739-2.865 1.654c-.501.289-1.031.481-1.568.589l.69 1.195c1.373 2.377 4.412 3.192 6.79 1.819z" fill="#3e4e60"/><path d="m115.142 305.773-2.865 1.654c-.477.275-.873.63-1.224 1.017l-.07.045-6.771-11.728c-3.142-5.442-1.277-12.4 4.164-15.542l11.437-6.603 1.421 2.461c1.854 3.212.754 7.319-2.458 9.173-1.967 1.136-2.641 3.651-1.505 5.618l1.207 2.091c2.365 4.096.961 9.333-3.134 11.698l-.196.127z" fill="#3e4e60"/><path d="m141.494 268.325c.706 1.223 2.271 1.643 3.494.936.527-.304.928-.786 1.132-1.36l1.344-3.787c.478-1.347 2.315-1.515 3.03-.277l1.803 3.123c2.524 4.372 1.026 9.963-3.346 12.487-1.817 1.049-3.977 1.333-6.003.79l-4.43-1.187c-3.179-.852-6.567-.406-9.417 1.24l-12.071 6.969c-2.286 1.32-5.208.536-6.528-1.749-1.32-2.286-.536-5.208 1.749-6.528l21.88-12.632c2.577-1.487 5.874-.604 7.363 1.975z" fill="#3f5d77"/></g></g></g></g></g><g id="Speech-bubble_5_"><path d="m255.974 213.683c-2.389-1.379-5.404-1.564-8.051-.228l-44.475 22.468c-4.17 2.107-5.842 7.194-3.736 11.364s7.194 5.841 11.364 3.736l44.475-22.468c4.169-2.107 5.842-7.194 3.736-11.364-.769-1.523-1.938-2.714-3.313-3.508z" fill="#ebd9ea"/><path d="m342.598 177.626v18.395c0 7.452-2.524 14.306-6.764 19.771-5.9 7.597-15.121 12.482-25.484 12.482h-81.7c-10.363 0-19.584-4.885-25.478-12.482-4.245-5.465-6.77-12.319-6.77-19.771v-18.395c0-7.452 2.524-14.306 6.77-19.765 5.894-7.597 15.115-12.482 25.478-12.482h81.7c10.363 0 19.584 4.885 25.484 12.482 4.24 5.459 6.764 12.313 6.764 19.765z" fill="#ebd9ea"/><path d="m342.598 177.626v18.395c0 7.452-2.524 14.306-6.764 19.771-4.245-5.465-6.77-12.319-6.77-19.771v-18.395c0-7.452 2.524-14.306 6.77-19.765 4.24 5.459 6.764 12.313 6.764 19.765z" fill="#fff"/><path d="m209.935 177.626v18.395c0 7.452-2.524 14.306-6.764 19.771-4.245-5.465-6.77-12.319-6.77-19.771v-18.395c0-7.452 2.524-14.306 6.77-19.765 4.24 5.459 6.764 12.313 6.764 19.765z" fill="#c1b7d3"/></g></g></svg>