<svg id="Layer_1" height="512" viewBox="0 0 512 512" width="512" xmlns="http://www.w3.org/2000/svg" data-name="Layer 1"><path d="m437 344.08v-32.08h-364v32.08l42.68 7.21a145.11 145.11 0 0 0 13.5 31.95l-24.7 34.92 45.69 45.5 35.05-24.72a146.69 146.69 0 0 0 32.06 13.58l7.25 42.48h64.54l7.23-42.48a146.392 146.392 0 0 0 32.05-13.41l35.03 24.64 45.63-45.55-24.79-34.94c5.63-9.98 8.73-20.7 11.89-31.96z" fill="#6994fe"/><path d="m366.19 311.77v.13c0 60.27-49.01 109.13-109.45 109.13s-109.46-48.86-109.46-109.13v-.13h50.36v.13a59.1 59.1 0 0 0 118.19 0v-.13z" fill="#80aaff"/><path d="m441.75 255.14h-371.5a28.315 28.315 0 1 0 0 56.63h371.5a28.315 28.315 0 1 0 0-56.63z" fill="#db406c"/><path d="m287.57 48.74h-63.14c-83.89 0-151.9 67.88-151.9 151.61v54.79h366.94v-54.79c0-83.73-68.01-151.61-151.9-151.61z" fill="#ff5576"/><path d="m287.11 48.74v155.56h-62.22v-156.47a31.11 31.11 0 0 1 62.22 0z" fill="#de3c44"/><path d="m289.84 204.3h-67.68a15.556 15.556 0 0 0 -15.57 15.54v35.3h98.82v-35.3a15.556 15.556 0 0 0 -15.57-15.54z" fill="#ad2a34"/><path d="m71.88 283.46a28.355 28.355 0 0 1 28.37-28.32h-30a28.315 28.315 0 1 0 0 56.63h30a28.342 28.342 0 0 1 -28.37-28.31z" fill="#c13a67"/><g fill="#5883db"><path d="m340.51 447.663 22.87 16.087 12.4-12.379-17.43-12.261a153.944 153.944 0 0 1 -17.84 8.553z"/><path d="m159.18 383.24a145.11 145.11 0 0 1 -13.5-31.95l-42.68-7.21v-32.08h-30v32.08l42.68 7.21a145.11 145.11 0 0 0 13.5 31.95l-24.7 34.92 45.69 45.5 17.562-12.386-33.252-33.114z"/><path d="m215.22 438.94-12.23 8.626a130.37 130.37 0 0 0 14.29 4.954l7.25 42.48h30l-7.25-42.48a146.69 146.69 0 0 1 -32.06-13.58z"/></g><path d="m254.43 48.74h-30c-83.89 0-151.9 67.88-151.9 151.61v54.79h30v-54.79c0-83.73 68.01-151.61 151.9-151.61z" fill="#dd4e70"/><path d="m165.82 80.231a134.394 134.394 0 0 0 -74.782 108.477 6 6 0 0 0 5.458 6.5c.177.015.352.023.526.023a6 6 0 0 0 5.971-5.481 122.332 122.332 0 0 1 68.088-98.732 6 6 0 0 0 -5.261-10.785z" fill="#284268"/><path d="m193.312 70.382c-2.8.667-5.6 1.433-8.337 2.277a6 6 0 1 0 3.536 11.466c2.488-.767 5.04-1.463 7.584-2.07a6 6 0 1 0 -2.783-11.673z" fill="#284268"/><path d="m67 317.84v26.237a6 6 0 0 0 5 5.916l39 6.589a151.473 151.473 0 0 0 11.113 26.261l-22.53 31.857a6 6 0 0 0 .665 7.716l45.686 45.5a6 6 0 0 0 7.692.652l32-22.564a153.384 153.384 0 0 0 26.374 11.208l6.617 38.8a6 6 0 0 0 5.91 4.988h64.541a6 6 0 0 0 5.915-4.993l6.6-38.79a152.246 152.246 0 0 0 26.363-11.056l31.975 22.492a6 6 0 0 0 7.691-.661l45.636-45.54a6 6 0 0 0 .655-7.72l-22.648-31.918c4.389-8.683 7.2-17.817 9.607-26.262l37.177-6.566a6 6 0 0 0 4.961-5.909v-26.109a34.494 34.494 0 0 0 2-68.762v-48.859c0-85.169-67.8-154.766-152.468-157.513a36.878 36.878 0 0 0 -73.123 0 157.674 157.674 0 0 0 -152.409 157.513v48.859a34.508 34.508 0 0 0 0 68.634zm226-262.985a145.527 145.527 0 0 1 140 145.492v48.653h-122v-29.155a21.613 21.613 0 0 0 -18-21.266zm-62-7.029a25 25 0 1 1 50 0v150.174h-50zm-8.842 162.174h67.684c5.277 0 9.158 4.584 9.158 9.845v29.155h-86v-29.155c0-5.261 3.881-9.845 9.158-9.845zm-143.158-9.653a145.527 145.527 0 0 1 140-145.492v143.724a21.613 21.613 0 0 0 -18 21.266v29.155h-122zm-8.753 60.653h371.506a22.5 22.5 0 0 1 0 45h-305.753a6 6 0 0 0 0 12h5.441c3.163 60.275 53.666 109.125 115.294 109.125s112.132-48.85 115.294-109.125h58.971v21.044l-35.929 6.346a6 6 0 0 0 -4.733 4.286c-2.9 10.319-5.9 20.99-11.343 30.637a6 6 0 0 0 .332 6.421l21.858 30.806-38.478 38.4-30.907-21.74a6 6 0 0 0 -6.388-.325 140.062 140.062 0 0 1 -30.727 12.867 6 6 0 0 0 -4.3 4.772l-6.385 37.486h-54.409l-6.4-37.489a6 6 0 0 0 -4.3-4.77 140.833 140.833 0 0 1 -30.74-13.029 6 6 0 0 0 -6.394.33l-30.927 21.814-38.523-38.366 21.767-30.783a6 6 0 0 0 .326-6.414 139.332 139.332 0 0 1 -12.941-30.627 6 6 0 0 0 -4.776-4.293l-37.683-6.367v-21.006h15a6 6 0 0 0 0-12h-23.753a22.5 22.5 0 0 1 0-45zm121.68 57a65.1 65.1 0 0 0 129.617 0h38.465c-3.121 54.2-48.246 97.125-103.274 97.125s-100.152-42.925-103.274-97.125zm12.073 0h105.475a53.1 53.1 0 0 1 -105.475 0z" fill="#284268"/></svg>