<svg id="Icons" enable-background="new 0 0 512 512" height="512" viewBox="0 0 512 512" width="512" xmlns="http://www.w3.org/2000/svg"><g><circle cx="256" cy="256" fill="#e9465e" r="256"/><g><g><path d="m462.93 406.75c-46.56 63.8-121.91 105.25-206.93 105.25s-160.37-41.45-206.93-105.25z" fill="#d48d77"/><g fill="#eea47d"><path d="m380.58 406.75v72.95c-6.668 3.708-13.507 7.145-20.48 10.25v-83.2z"/><path d="m462.92 406.75c-4.978 6.838-10.303 13.422-15.94 19.73v-19.73z"/><path d="m200.532 406.75v42.24c0 5.66-4.59 10.25-10.25 10.25-5.65 0-10.24-4.59-10.24-10.25v-42.24z"/><path d="m305.71 457.94v49.23c-6.74 1.33-13.57 2.39-20.49 3.17v-52.4c0-5.65 4.59-10.24 10.24-10.24 5.656.004 10.249 4.576 10.25 10.24z"/><path d="m427.21 434.63v11.68c-6.53 5.9-13.37 11.45-20.49 16.63v-28.31c.528-13.576 19.964-13.571 20.49 0z"/><path d="m248.63 406.75v105.14c-6.849-.186-13.674-.653-20.48-1.39v-103.75z"/><path d="m163.68 460.62v34.23c-6.98-2.7-13.81-5.7-20.48-8.98v-25.25c.518-13.58 19.966-13.573 20.48 0z"/><path d="m95.83 407.27v48.44c-7.145-5.736-13.984-11.856-20.48-18.32v-30.12c0-.17 0-.35.01-.52h20.46c.01.18.01.35.01.52z"/></g></g><g><g fill="#ea7589"><path d="m371.48 284.897c-1.639 0-2.967-1.329-2.967-2.967 0-6.51 6.741-9.323 12.69-11.805 4.444-1.855 9.04-3.772 9.04-6.328 0-2.56-4.596-4.479-9.041-6.335-5.947-2.483-12.688-5.298-12.688-11.811s6.741-9.328 12.689-11.811c4.444-1.856 9.041-3.775 9.041-6.334 0-1.639 1.329-2.967 2.967-2.967 1.639 0 2.967 1.329 2.967 2.967 0 6.513-6.741 9.328-12.689 11.811-4.444 1.856-9.041 3.775-9.041 6.334s4.596 4.478 9.041 6.334c5.947 2.483 12.689 5.298 12.689 11.812 0 6.51-6.741 9.323-12.689 11.804-4.445 1.854-9.041 3.772-9.041 6.328-.001 1.64-1.329 2.968-2.968 2.968z"/><path d="m405.068 243.171c-1.639 0-2.967-1.329-2.967-2.967 0-6.51 6.741-9.323 12.69-11.805 4.444-1.855 9.04-3.772 9.04-6.328 0-2.56-4.596-4.479-9.041-6.335-5.947-2.483-12.688-5.298-12.688-11.811 0-6.512 6.741-9.328 12.688-11.811 4.445-1.856 9.041-3.775 9.041-6.335 0-1.639 1.329-2.967 2.967-2.967s2.967 1.329 2.967 2.967c0 6.513-6.741 9.328-12.689 11.812-4.445 1.856-9.041 3.775-9.041 6.334s4.596 4.478 9.041 6.334c5.947 2.483 12.689 5.298 12.689 11.812 0 6.51-6.741 9.323-12.689 11.804-4.445 1.855-9.041 3.772-9.041 6.329.001 1.638-1.328 2.967-2.967 2.967z"/><path d="m407.358 303.455c-1.639 0-2.967-1.329-2.967-2.967 0-6.51 6.741-9.323 12.69-11.805 4.444-1.854 9.04-3.772 9.04-6.328 0-2.56-4.596-4.479-9.041-6.335-5.947-2.483-12.688-5.298-12.688-11.811s6.741-9.328 12.689-11.811c4.444-1.856 9.041-3.775 9.041-6.334 0-1.639 1.329-2.967 2.967-2.967s2.967 1.329 2.967 2.967c0 6.513-6.741 9.328-12.689 11.811-4.444 1.856-9.041 3.775-9.041 6.334s4.596 4.478 9.041 6.334c5.947 2.483 12.689 5.298 12.689 11.812 0 6.51-6.741 9.323-12.689 11.804-4.445 1.854-9.041 3.772-9.041 6.328-.001 1.639-1.33 2.968-2.968 2.968z"/></g><g><g><path d="m339.291 371.915c0 .356.015.727.045 1.083.549 9.777 8.694 17.566 18.604 17.566h7.077v13.352h-7.077c-15.711 0-28.812-11.379-31.482-26.319-.341-1.84-.519-3.739-.519-5.682 0-13.99 9.006-25.889 21.527-30.236 3.279-1.142 6.81-1.766 10.474-1.766h7.077v13.352h-7.077c-2.938 0-5.697.682-8.175 1.884-6.186 3.043-10.474 9.407-10.474 16.766z" fill="#22bce0"/><path d="m349.914 352.51c0 .89-.045 1.78-.148 2.641-6.187 3.041-10.474 9.406-10.474 16.765 0 .356.015.727.045 1.083-3.679 2.626-8.1 4.288-12.878 4.599-.341-1.84-.519-3.739-.519-5.682 0-1.766.149-3.516.43-5.207 1.513-9.302 7.077-17.269 14.821-22.046 1.958-1.217 4.065-2.211 6.276-2.982 1.572 3.277 2.447 6.956 2.447 10.829z" fill="#4fcae8"/><path d="m342.377 350.744c0 8.827-7.151 15.964-15.964 15.964h-.045c1.513-9.302 7.077-17.269 14.821-22.046.758 1.884 1.188 3.931 1.188 6.082z" fill="#83d5ef"/></g><g><path d="m441.482 322.6v91.42c0 4.777-3.872 8.649-8.65 8.649h-65.101c-4.777 0-8.649-3.872-8.649-8.649v-91.42c0-4.777 3.872-8.649 8.649-8.649h65.101c4.778 0 8.65 3.872 8.65 8.649z" fill="#22a8b9"/><path d="m441.482 322.6v78.498c-5.875 4.243-13.071 6.736-20.874 6.736h-10.979c-19.717 0-35.71-15.993-35.71-35.71v-37.298c0-7.789 2.507-14.999 6.736-20.874h52.178c4.777-.001 8.649 3.871 8.649 8.648z" fill="#4fcae8"/><path d="m441.482 322.6v11.706c-1.988 1.662-4.555 2.67-7.373 2.67h-60.19v-2.151c0-7.789 2.507-14.999 6.736-20.874h52.178c4.777 0 8.649 3.872 8.649 8.649z" fill="#cde6f6"/><path d="m380.655 313.951c-4.228 5.875-6.736 13.085-6.736 20.874v2.151h-14.836v-14.376c0-4.777 3.872-8.649 8.649-8.649z" fill="#4fcae8"/><path d="m427.741 320.662h-54.913c-2.654 0-4.805 2.151-4.805 4.805s2.151 4.805 4.805 4.805h54.913c2.654 0 4.805-2.151 4.805-4.805-.001-2.654-2.152-4.805-4.805-4.805z" fill="#dd5e26"/><path d="m423.786 398.681c4.566 0 8.268-3.702 8.268-8.268v-39.353c0-4.566-3.702-8.268-8.268-8.268s-8.268 3.702-8.268 8.268v39.353c0 4.566 3.702 8.268 8.268 8.268z" fill="#83d5ef"/></g></g></g><g id="Clock_7_"><path d="m431.2 69.34c-2.34-2.2-4.73-4.35-7.15-6.46l-.01-.01c-5.11-4.45-10.38-8.69-15.83-12.72-3.14-2.33-6.33-4.58-9.58-6.76-2.16-1.45-4.34-2.87-6.55-4.26-2.7-1.7-5.45-3.36-8.22-4.95-2.53-.32-5.12-.49-7.74-.49-15.24 0-29.17 5.65-39.79 14.96-12.6 11.07-20.57 27.31-20.57 45.4 0 33.33 27.03 60.36 60.36 60.36 19.63 0 37.08-9.37 48.08-23.89 7.71-10.13 12.27-22.78 12.27-36.47 0-8.81-1.88-17.17-5.27-24.71z" fill="#f0dae2"/><path d="m436.47 94.05c0 13.69-4.56 26.34-12.27 36.47-43.18-7.19-77.75-39.77-87.87-81.87 3.42-2.99 7.17-5.6 11.21-7.77 8.5-4.59 18.24-7.19 28.58-7.19 2.62 0 5.21.17 7.74.49 2.77 1.59 5.52 3.25 8.22 4.95 2.72.79 5.35 1.77 7.88 2.95-.5.35-.95.79-1.33 1.31 3.25 2.18 6.44 4.43 9.58 6.76l.22-.37c.43-.75.68-1.55.76-2.36 5.87 4.17 10.92 9.42 14.86 15.46 2.42 2.11 4.81 4.26 7.15 6.46 3.15 7.02 5 14.75 5.24 22.88.02.61.03 1.22.03 1.83z" fill="#fff"/><g><path d="m376.117 97.216c-1.75 0-3.17-1.419-3.17-3.17v-34.441c0-1.751 1.419-3.17 3.17-3.17s3.17 1.419 3.17 3.17v34.442c-.001 1.75-1.42 3.169-3.17 3.169z" fill="#6052a3"/><path d="m410.558 96.16h-34.441c-1.167 0-2.113-.946-2.113-2.113s.946-2.113 2.113-2.113h34.441c1.167 0 2.113.946 2.113 2.113s-.946 2.113-2.113 2.113z" fill="#6052a3"/><circle cx="376.116" cy="94.046" fill="#2d2667" r="8.203"/></g><g><g><g><path d="m376.116 33.691c-3.235 0-5.858 2.623-5.858 5.858v5.817c0 3.235 2.623 5.858 5.858 5.858s5.858-2.623 5.858-5.858v-5.817c0-3.236-2.622-5.858-5.858-5.858z" fill="#c2aacf"/></g><g><path d="m376.116 136.839c-3.235 0-5.858 2.623-5.858 5.858v5.817c0 3.235 2.623 5.858 5.858 5.858s5.858-2.623 5.858-5.858v-5.817c0-3.235-2.622-5.858-5.858-5.858z" fill="#a583bb"/></g></g><g><g><path d="m345.946 41.775c-2.802 1.618-3.762 5.2-2.144 8.002l2.909 5.038c1.618 2.802 5.2 3.762 8.002 2.144s3.762-5.2 2.144-8.002l-2.909-5.038c-1.618-2.802-5.2-3.762-8.002-2.144z" fill="#c2aacf"/></g><g><path d="m397.52 131.104c-2.802 1.618-3.762 5.2-2.144 8.002l2.909 5.038c1.618 2.802 5.2 3.762 8.002 2.144s3.762-5.2 2.144-8.002l-2.909-5.038c-1.617-2.801-5.2-3.761-8.002-2.144z" fill="#a583bb"/></g></g><g><g><path d="m323.86 63.861c-1.618 2.802-.658 6.385 2.144 8.002l5.038 2.909c2.802 1.618 6.385.658 8.002-2.144 1.618-2.802.658-6.385-2.144-8.002l-5.038-2.909c-2.802-1.618-6.385-.658-8.002 2.144z" fill="#a583bb"/></g><g><path d="m413.189 115.436c-1.618 2.802-.658 6.385 2.144 8.002l5.038 2.909c2.802 1.618 6.385.658 8.002-2.144 1.618-2.802.658-6.385-2.144-8.002l-5.038-2.909c-2.802-1.618-6.384-.658-8.002 2.144z" fill="#c2aacf"/></g></g><g><g><path d="m315.775 94.032c0 3.235 2.623 5.858 5.858 5.858h5.817c3.235 0 5.858-2.623 5.858-5.858s-2.623-5.858-5.858-5.858h-5.817c-3.235 0-5.858 2.622-5.858 5.858z" fill="#a583bb"/></g><g><path d="m418.924 94.032c0 3.235 2.623 5.858 5.858 5.858h5.817c3.235 0 5.858-2.623 5.858-5.858s-2.623-5.858-5.858-5.858h-5.817c-3.235 0-5.858 2.622-5.858 5.858z" fill="#c2aacf"/></g></g><g><g><path d="m323.859 124.202c1.618 2.802 5.2 3.762 8.002 2.144l5.038-2.909c2.802-1.618 3.762-5.2 2.144-8.002s-5.2-3.762-8.002-2.144l-5.038 2.909c-2.801 1.618-3.761 5.2-2.144 8.002z" fill="#a583bb"/></g><g><path d="m429.12 67.43c-.19 1.79-1.21 3.46-2.89 4.43l-5.04 2.91c-2.8 1.62-6.38.66-8-2.14s-.66-6.39 2.14-8l5.04-2.91c.51-.29 1.04-.5 1.59-.63.7.58 1.39 1.18 2.08 1.78l.01.01c1.71 1.49 3.4 3 5.07 4.55z" fill="#c2aacf"/></g></g><g><g><path d="m345.946 146.289c2.802 1.618 6.385.658 8.002-2.144l2.909-5.038c1.618-2.802.658-6.385-2.144-8.002-2.802-1.618-6.385-.658-8.002 2.144l-2.909 5.038c-1.618 2.801-.658 6.384 2.144 8.002z" fill="#a583bb"/></g><g><path d="m408.21 50.15-2.69 4.67c-1.62 2.8-5.2 3.76-8 2.14s-3.76-5.2-2.14-8l2.9-5.04c.11-.19.22-.36.35-.53 3.25 2.18 6.44 4.43 9.58 6.76z" fill="#c2aacf"/></g></g></g><g><path d="m439.57 91.18c-.26-5.78-1.29-11.36-3-16.65-1.76-1.75-3.55-3.48-5.37-5.19-2.34-2.2-4.73-4.35-7.15-6.46 5.68 8.72 9.06 19.08 9.24 30.21.01.32.01.64.01.96 0 31.53-25.65 57.19-57.18 57.19-31.54 0-57.19-25.66-57.19-57.19 0-21.46 11.88-40.21 29.42-49.98 8.23-4.6 17.7-7.21 27.77-7.21 5.54 0 10.89.79 15.96 2.27-2.7-1.7-5.45-3.36-8.22-4.95-2.15-1.25-4.32-2.47-6.52-3.64h-.01c-.4-.02-.8-.02-1.21-.02-10.54 0-20.49 2.58-29.25 7.15-20.35 10.59-34.28 31.89-34.28 56.38 0 35.02 28.5 63.52 63.53 63.52 35.02 0 63.52-28.5 63.52-63.52 0-.96-.02-1.92-.07-2.87z" fill="#f39e22"/><g fill="#f9c744"><path d="m383.86 34.18c2.77 1.59 5.52 3.25 8.22 4.95-5.07-1.48-10.42-2.27-15.96-2.27-10.07 0-19.54 2.61-27.77 7.21-.3-1.06-.57-2.12-.81-3.19-.26-1.06-.48-2.13-.67-3.21 8.76-4.57 18.71-7.15 29.25-7.15.41 0 .82 0 1.22.02 2.2 1.17 4.37 2.39 6.52 3.64z"/><path d="m439.57 91.18c-1.03.37-2.08.71-3.13 1.04-1.04.31-2.09.6-3.15.87-.18-11.13-3.56-21.49-9.24-30.21 2.42 2.11 4.81 4.26 7.15 6.46 1.82 1.71 3.61 3.44 5.37 5.19 1.71 5.29 2.74 10.87 3 16.65z"/></g></g></g><g><g><path d="m201.385 325.159h-40.449c-7.162 0-12.967 5.806-12.967 12.967v53.416h66.383v-53.416c0-7.161-5.805-12.967-12.967-12.967z" fill="#9175a7"/><path d="m257.213 391.543h-152.104c-7.767 0-14.063 6.296-14.063 14.063s6.296 14.063 14.063 14.063h152.104c7.767 0 14.063-6.296 14.063-14.063s-6.296-14.063-14.063-14.063z" fill="#9175a7"/><path d="m228.053 391.543h-93.784c-4.789 0-8.671 3.882-8.671 8.671s3.882 8.671 8.671 8.671h93.784c4.789 0 8.671-3.882 8.671-8.671s-3.882-8.671-8.671-8.671z" fill="#a583bb"/><path d="m324.273 172.143v158.684c0 4.327-1.286 8.371-3.508 11.752-2.787 4.327-7.084 7.552-12.161 8.965-1.852.536-3.83.819-5.827.819h-243.231c-2.037 0-3.976-.283-5.827-.819-5.077-1.413-9.374-4.639-12.161-8.965-2.222-3.381-3.508-7.426-3.508-11.752v-158.684c0-1.998.282-3.976.809-5.827 2.007-7.182 7.65-12.853 14.861-14.861 1.852-.526 3.83-.809 5.827-.809h243.23c2.037 0 3.976.283 5.827.809 7.182 2.007 12.853 7.65 14.861 14.861.525 1.851.808 3.829.808 5.827z" fill="#c2aacf"/><path d="m69.398 172.143v158.684c0 4.327-1.286 8.371-3.518 11.752-2.787 4.327-7.084 7.552-12.161 8.965-5.077-1.413-9.374-4.639-12.161-8.965-2.222-3.381-3.508-7.426-3.508-11.752v-158.684c0-9.842 6.607-18.145 15.669-20.688 9.062 2.543 15.679 10.846 15.679 20.688z" fill="#a583bb"/><path d="m324.273 172.143v158.684c0 4.327-1.286 8.371-3.508 11.752-2.787 4.327-7.084 7.552-12.161 8.965-5.077-1.413-9.375-4.639-12.161-8.965-2.232-3.381-3.518-7.426-3.518-11.752v-158.684c0-9.871 6.646-18.174 15.679-20.688 9.023 2.514 15.669 10.816 15.669 20.688z" fill="#decee5"/><path d="m324.273 308.005v22.822c0 4.327-1.286 8.371-3.508 11.752-2.787 4.327-7.084 7.552-12.161 8.965-1.852.536-3.83.819-5.827.819h-243.231c-2.037 0-3.976-.283-5.827-.819-5.077-1.413-9.374-4.639-12.161-8.965-2.222-3.381-3.508-7.426-3.508-11.752v-22.822z" fill="#a583bb"/><path d="m69.398 308.005v22.822c0 4.327-1.286 8.371-3.518 11.752-2.787 4.327-7.084 7.552-12.161 8.965-5.077-1.413-9.374-4.639-12.161-8.965-2.222-3.381-3.508-7.426-3.508-11.752v-22.822z" fill="#9175a7"/><path d="m324.273 308.005v22.822c0 4.327-1.286 8.371-3.508 11.752-2.787 4.327-7.084 7.552-12.161 8.965-5.077-1.413-9.375-4.639-12.161-8.965-2.232-3.381-3.518-7.426-3.518-11.752v-22.822z" fill="#c2aacf"/><path d="m198.281 330.184h-34.239c-4.411 0-7.987 3.576-7.987 7.987s3.576 7.987 7.987 7.987h34.239c4.411 0 7.987-3.576 7.987-7.987 0-4.412-3.576-7.987-7.987-7.987z" fill="#9175a7"/><path d="m263.908 172.143h-139.71c-5.936 0-10.748-4.812-10.748-10.748s4.812-10.748 10.748-10.748h139.71c5.936 0 10.748 4.812 10.748 10.748s-4.812 10.748-10.748 10.748z" fill="#decee5"/></g><g><path d="m295.023 324.386h-227.724c-7.497 0-13.575-6.078-13.575-13.575v-125.093c0-7.497 6.078-13.575 13.575-13.575h227.725c7.497 0 13.575 6.078 13.575 13.575v125.093c-.001 7.497-6.079 13.575-13.576 13.575z" fill="#fff"/><g fill="#22a8b9"><path d="m164.93 254.852h-88.809c-3.725 0-6.744-3.019-6.744-6.744s3.019-6.744 6.744-6.744h88.809c3.725 0 6.744 3.019 6.744 6.744s-3.019 6.744-6.744 6.744z"/><path d="m126.936 279.721h-50.815c-3.725 0-6.744-3.019-6.744-6.744s3.019-6.744 6.744-6.744h50.814c3.725 0 6.744 3.02 6.744 6.744.001 3.725-3.019 6.744-6.743 6.744z"/></g><g><path d="m147.548 188.37c-1.431-1.365-3.371-2.212-5.508-2.212h-64.688c-2.137 0-4.078.847-5.508 2.212-1.521 1.447-2.466 3.494-2.466 5.755v26.975h.004c0 3.505 2.841 6.349 6.346 6.349h67.938c3.505 0 6.346-2.843 6.346-6.349h.004v-26.975c-.002-2.261-.947-4.308-2.468-5.755z" fill="#4fcae8"/><path d="m150.011 221.1c0 3.505-2.841 6.349-6.346 6.349h-67.938c-3.505 0-6.346-2.844-6.346-6.349l36.793-22.374c2.164-1.316 4.88-1.316 7.044 0z" fill="#83d5ef"/><path d="m147.548 188.37-20.727 18.63-12.596 11.329c-2.573 2.318-6.487 2.318-9.06 0l-12.595-11.329-20.727-18.63c1.431-1.365 3.371-2.212 5.508-2.212h64.688c2.138 0 4.078.847 5.509 2.212z" fill="#cde6f6"/></g><path d="m200.843 310.371h80.191c6.578 0 11.911-5.333 11.911-11.911v-100.39c0-6.578-5.333-11.911-11.911-11.911h-80.191c-6.578 0-11.911 5.333-11.911 11.911v100.39c-.001 6.578 5.332 11.911 11.911 11.911z" fill="#cde6f6"/></g></g></g></g></svg>