<svg id="Layer_1" height="512" viewBox="0 0 512 512" width="512" xmlns="http://www.w3.org/2000/svg" data-name="Layer 1"><path d="m375.58 55h-239.16a41.118 41.118 0 0 0 -41.42 41.25v357.14a41.423 41.423 0 0 0 41.42 41.61h239.16a41.423 41.423 0 0 0 41.42-41.61v-357.14a41.118 41.118 0 0 0 -41.42-41.25z" fill="#9b7daa"/><path d="m294.89 17h-77.78a4.094 4.094 0 0 0 -4.11 4v57h86v-57a4.094 4.094 0 0 0 -4.11-4z" fill="#6d6d93"/><path d="m378 109.21v231.16h-244v-231.16z" fill="#f8e6e2"/><path d="m338.47 265.1h-164.94a12.555 12.555 0 1 0 0 25.11h164.94a12.555 12.555 0 1 0 0-25.11z" fill="#e75163"/><path d="m270.02 173.55h-28.04a67.348 67.348 0 0 0 -67.44 67.24v24.31h162.92v-24.31a67.348 67.348 0 0 0 -67.44-67.24z" fill="#ff5576"/><path d="m269.78 226.83a24.609 24.609 0 1 1 -13.78-4.22 24.406 24.406 0 0 1 13.78 4.22z" fill="#ad2a34"/><path d="m125 453.39v-357.14a41.118 41.118 0 0 1 41.42-41.25h-30a41.118 41.118 0 0 0 -41.42 41.25v357.14a41.423 41.423 0 0 0 41.42 41.61h30a41.423 41.423 0 0 1 -41.42-41.61z" fill="#7f658e"/><path d="m190.93 277.65a12.581 12.581 0 0 1 12.6-12.55h-30a12.555 12.555 0 1 0 0 25.11h30a12.577 12.577 0 0 1 -12.6-12.56z" fill="#c9475d"/><path d="m271 173.575c-.328 0-.651-.025-.98-.025h-28.04a67.348 67.348 0 0 0 -67.44 67.24v24.31h30v-24.31a67.333 67.333 0 0 1 66.46-67.215z" fill="#e5486e"/><path d="m265.77 163.41a13.817 13.817 0 0 0 -23.58 9.74v53.64l.03.04h27.56l.03-.04v-53.64a13.732 13.732 0 0 0 -4.04-9.74z" fill="#de3c44"/><g fill="#284268"><path d="m375.58 49h-70.58v-28a10.108 10.108 0 0 0 -10.112-10h-77.776a10.108 10.108 0 0 0 -10.112 10v28h-70.58a47.176 47.176 0 0 0 -47.42 47.253v357.137a47.48 47.48 0 0 0 47.42 47.61h239.16a47.48 47.48 0 0 0 47.42-47.61v-357.137a47.176 47.176 0 0 0 -47.42-47.253zm-156.58-26h74v49h-74zm192 430.39a35.467 35.467 0 0 1 -35.42 35.61h-239.16a35.467 35.467 0 0 1 -35.42-35.61v-357.137a35.163 35.163 0 0 1 35.42-35.253h70.58v17.144a5.976 5.976 0 0 0 6.112 5.856h85.776a5.976 5.976 0 0 0 6.112-5.856v-17.144h70.58a35.163 35.163 0 0 1 35.42 35.253z"/><path d="m146.13 388h-3.123a6 6 0 0 0 0 12h3.123a6 6 0 0 0 0-12z"/><path d="m188.043 388h-10.75a6 6 0 0 0 0 12h10.75a6 6 0 0 0 0-12z"/><path d="m368.993 388h-149.282a6 6 0 0 0 0 12h149.282a6 6 0 0 0 0-12z"/><path d="m146.13 427h-3.123a6 6 0 0 0 0 12h3.123a6 6 0 0 0 0-12z"/><path d="m188.043 427h-10.75a6 6 0 0 0 0 12h10.75a6 6 0 0 0 0-12z"/><path d="m368.993 427h-149.282a6 6 0 0 0 0 12h149.282a6 6 0 0 0 0-12z"/><path d="m152 219.889a6 6 0 0 0 12 0v-64.572a6 6 0 0 0 -12 0z"/><path d="m158 142.667a6 6 0 0 0 6-6v-4.614a6 6 0 0 0 -12 0v4.614a6 6 0 0 0 6 6z"/><path d="m377.787 103h-164.787a6 6 0 0 0 0 12h159v219h-232v-219h31a6 6 0 0 0 0-12h-36.787a6.231 6.231 0 0 0 -6.213 6.213v230.787a6 6 0 0 0 6 6h244a6 6 0 0 0 6-6v-230.787a6.231 6.231 0 0 0 -6.213-6.213z"/><path d="m274.812 167.742a19.688 19.688 0 0 0 -18.926-14.368 19.487 19.487 0 0 0 -18.756 14.368 73.158 73.158 0 0 0 -68.13 73.05v19a18.389 18.389 0 0 0 4.525 36.208h164.95a18.389 18.389 0 0 0 4.525-36.206v-19a73.207 73.207 0 0 0 -68.188-73.052zm1.188 12.089a60.974 60.974 0 0 1 55 60.961v18.208h-46.915a31.288 31.288 0 0 0 2.565-11.955c0-9.272-4.65-17.536-10.65-23.132zm-28-6.685a8 8 0 0 1 16 0v44.476a32.065 32.065 0 0 0 -16 0zm8 55.462a18.485 18.485 0 1 1 -18.558 18.485 18.544 18.544 0 0 1 18.558-18.485zm-75 12.184a60.974 60.974 0 0 1 55-60.961v44.082c-6 5.6-10.65 13.86-10.65 23.132a31.288 31.288 0 0 0 2.565 11.955h-46.915zm164.068 36.708a6.534 6.534 0 0 1 -6.593 6.5h-164.95a6.5 6.5 0 1 1 0-13h63.675a30.52 30.52 0 0 0 37.608 0h63.671a6.534 6.534 0 0 1 6.589 6.5z"/></g></svg>