<svg id="Layer_1" height="512" viewBox="0 0 512 512" width="512" xmlns="http://www.w3.org/2000/svg" data-name="Layer 1"><path d="m317.73 434.74v30.13h-122.95-.51v-30.13h.51z" fill="#c79a83"/><path d="m317.73 405.57v29.17h-122.95-.51v-29.17z" fill="#a87e6c"/><path d="m317.73 464.87v25.9a4.231 4.231 0 0 1 -4.23 4.23h-115a4.231 4.231 0 0 1 -4.23-4.23v-25.9z" fill="#a87e6c"/><path d="m393.13 229.82a136.456 136.456 0 0 1 -43.63 103.82 98.215 98.215 0 0 0 -31.77 71.82v.11h-123.46a97.851 97.851 0 0 0 -8.04-38.91 95.25 95.25 0 0 0 -23-32.35 136.451 136.451 0 0 1 -44.41-100.88c0-76.06 62.11-137.63 138.46-136.94 73.62.67 133.96 59.86 135.85 133.33z" fill="#adf8d1"/><path d="m213.65 310.83a20.1 20.1 0 0 1 -32.01-16.19v-9.74a26.8 26.8 0 0 1 -6.59-48.64 19.172 19.172 0 0 1 -.83-32.44 19.33 19.33 0 0 1 5.29-2.45 26.816 26.816 0 0 1 24.91-36.68 26.456 26.456 0 0 1 12.74 3.23l.17-.3a16.748 16.748 0 1 1 31.3-8.29v137.99a20.1 20.1 0 0 1 -34.98 13.51z" fill="#f58387"/><path d="m294.84 167.92a26.456 26.456 0 0 1 12.74-3.23 26.816 26.816 0 0 1 24.91 36.68 19.155 19.155 0 0 1 10.64 29.01 19.119 19.119 0 0 1 -6.18 5.88 26.8 26.8 0 0 1 -6.59 48.64v9.74a20.1 20.1 0 0 1 -32.01 16.19 20.1 20.1 0 0 1 -34.98-13.51v-137.99a16.745 16.745 0 1 1 31.3 8.29z" fill="#f58387"/><path d="m194.78 434.74h-.51v30.13h.51 29.49v-30.13z" fill="#af7e69"/><path d="m194.27 405.57v29.17h.51 29.49v-29.17z" fill="#8c675a"/><path d="m224.27 490.77v-25.9h-30v25.9a4.231 4.231 0 0 0 4.23 4.23h30a4.231 4.231 0 0 1 -4.23-4.23z" fill="#8c675a"/><path d="m193.23 334.31a136.451 136.451 0 0 1 -44.41-100.88c0-70.58 53.485-128.672 122.2-136.127a137.625 137.625 0 0 0 -13.739-.813c-76.35-.69-138.46 60.88-138.46 136.94a136.451 136.451 0 0 0 44.41 100.88 95.25 95.25 0 0 1 23 32.35 97.851 97.851 0 0 1 8.04 38.91h30a97.851 97.851 0 0 0 -8.04-38.91 95.25 95.25 0 0 0 -23.001-32.35z" fill="#92ddb4"/><g fill="#284268"><path d="m159.041 338.736a90.619 90.619 0 0 1 28.959 66.831v85.206a10.477 10.477 0 0 0 10.5 10.227h115a10.477 10.477 0 0 0 10.5-10.227v-85.309a92.5 92.5 0 0 1 29.716-67.427 143.18 143.18 0 1 0 -194.675.7zm152.959 150.264h-112v-18h112zm0-30h-112v-18h112zm0-30h-112v-17h112zm-148.416-288.449a131.119 131.119 0 1 1 181.826 188.916 104.3 104.3 0 0 0 -33.499 70.533h-111.821a102.455 102.455 0 0 0 -32.805-69.893 131.429 131.429 0 0 1 -42.464-96.567 130.061 130.061 0 0 1 38.763-92.989z"/><path d="m261 65.137a6 6 0 0 0 6-6v-42.137a6 6 0 0 0 -12 0v42.137a6 6 0 0 0 6 6z"/><path d="m414.917 224h42.209a6 6 0 0 0 0-12h-42.209a6 6 0 1 0 0 12z"/><path d="m54.874 224h42.209a6 6 0 0 0 0-12h-42.209a6 6 0 0 0 0 12z"/><path d="m371.462 108.519a5.982 5.982 0 0 0 4.24-1.754l32.937-32.881a6 6 0 1 0 -8.479-8.492l-32.937 32.881a6 6 0 0 0 4.239 10.246z"/><path d="m136.3 106.765a6 6 0 1 0 8.479-8.492l-32.939-32.881a6 6 0 1 0 -8.479 8.492z"/><path d="m115.755 299.662c-1.588-3.353-3.075-6.809-4.42-10.271a6 6 0 1 0 -11.185 4.344c1.448 3.729 3.049 7.451 4.759 11.062a6 6 0 0 0 10.846-5.135z"/><path d="m142.957 356.427a65.777 65.777 0 0 1 17.446 26.53 6 6 0 1 0 11.315-4 77.815 77.815 0 0 0 -20.652-31.379 154.682 154.682 0 0 1 -26.154-31.278 6 6 0 0 0 -10.14 6.418 166.64 166.64 0 0 0 28.185 33.709z"/><path d="m280.4 242.628a6.958 6.958 0 0 1 10.666 3.456 6.878 6.878 0 0 1 .3 3.079 6 6 0 1 0 11.9 1.565 18.919 18.919 0 0 0 -9.805-19.124 6.943 6.943 0 0 1 1.312-6.016 6 6 0 1 0 -9.36-7.509 18.745 18.745 0 0 0 -4.142 11.53 19.16 19.16 0 0 0 -2.746.666 18.92 18.92 0 0 0 -5.131 2.615 6 6 0 1 0 7.012 9.738z"/><path d="m282.231 193.885a16.076 16.076 0 0 0 2.2.607c.052.44.111.88.2 1.319a16.1 16.1 0 0 0 1.68 4.586 6 6 0 1 0 10.509-5.792 4.087 4.087 0 0 1 4.585-5.931 6 6 0 1 0 2.982-11.623 16.049 16.049 0 0 0 -16.73 5.791 4.115 4.115 0 0 1 -2.876-1.223 6 6 0 1 0 -8.578 8.391 15.955 15.955 0 0 0 6.028 3.875z"/><path d="m283.281 323.418a26.416 26.416 0 0 0 15.706-5.2 25.354 25.354 0 0 0 11.048 2.522 26.014 26.014 0 0 0 25.965-26.097v-5.569a32.1 32.1 0 0 0 19.6-29.935 32.609 32.609 0 0 0 -9.386-23.03 26.105 26.105 0 0 0 1.864-2.41 25.183 25.183 0 0 0 -7.008-34.877c-.448-.3-.9-.572-1.362-.839a32.739 32.739 0 0 0 -36.858-38.944 22.93 22.93 0 0 0 -45.854.29v137.993a26.284 26.284 0 0 0 26.285 26.096zm-14.281-164.089a10.886 10.886 0 0 1 21.77 0 10.688 10.688 0 0 1 -1.016 4.613c-.57.369-1.115.741-1.666 1.148a6.005 6.005 0 0 0 7.147 9.652 20.792 20.792 0 0 1 30.613 26.658 5.994 5.994 0 0 0 -10.868 1.725 16.073 16.073 0 0 0 1.224 11.2 4.027 4.027 0 0 1 -.81 1.118 6 6 0 0 0 8.388 8.581 16.191 16.191 0 0 0 1.629-1.879 6 6 0 0 0 3.348-11.35 3.991 3.991 0 0 1 -1.125-.816c.05.031.1.067.149.1a5.993 5.993 0 0 0 7.18-.885 13.127 13.127 0 0 1 1.385 20.009 32.591 32.591 0 0 0 -13.361-2.856 6 6 0 0 0 0 12 20.795 20.795 0 1 1 0 41.589 6 6 0 0 0 -5.973 5.459 6.033 6.033 0 0 0 -.468-.663 9.731 9.731 0 0 1 .633-13.056 6 6 0 0 0 -8.48-8.49 21.7 21.7 0 0 0 -4.624 6.839 9.708 9.708 0 0 1 -5.027.521 9.6 9.6 0 0 1 -4-1.62 6 6 0 0 0 -6.884 9.829 21.759 21.759 0 0 0 12.448 3.917c.7 0 1.406-.047 2.1-.115a21.584 21.584 0 0 0 4.576 9.809 6 6 0 0 0 10.6-3.274 5.693 5.693 0 0 0 4.918 2.844c.459 0 1.191-.016 1.191-.035v2.744a13.963 13.963 0 1 1 -27.925 0 5.967 5.967 0 1 0 -11.934 0 25.968 25.968 0 0 0 5.134 15.507 14.933 14.933 0 0 1 -6 1.268 14.266 14.266 0 0 1 -14.272-14.098z"/><path d="m229.712 241.668a6.992 6.992 0 0 1 1.886.96 6 6 0 1 0 7.012-9.738 18.92 18.92 0 0 0 -5.131-2.615 19.16 19.16 0 0 0 -2.746-.666 18.745 18.745 0 0 0 -4.142-11.53 6 6 0 1 0 -9.36 7.509 6.943 6.943 0 0 1 1.312 6.016 18.917 18.917 0 0 0 -9.805 19.124 6 6 0 1 0 11.9-1.565 6.884 6.884 0 0 1 .3-3.08 6.957 6.957 0 0 1 8.774-4.415z"/><path d="m215.185 194.605a6 6 0 1 0 10.509 5.792 16.09 16.09 0 0 0 1.68-4.588c.088-.439.147-.878.2-1.317a15.78 15.78 0 0 0 8.229-4.482 6 6 0 1 0 -8.578-8.391 4.111 4.111 0 0 1 -2.876 1.223 16.048 16.048 0 0 0 -16.73-5.791 6 6 0 1 0 2.982 11.623 4.088 4.088 0 0 1 4.585 5.931z"/><path d="m165.694 236.109a32.53 32.53 0 0 0 -9.3 23.03 32.1 32.1 0 0 0 19.606 29.935v5.569a25.974 25.974 0 0 0 25.918 26.1 25.553 25.553 0 0 0 11.121-2.535 26.257 26.257 0 0 0 41.961-20.886v-74.322a6 6 0 0 0 -12 0v74.322a14.26 14.26 0 0 1 -20.249 12.778 25.96 25.96 0 0 0 5.085-15.456 6 6 0 0 0 -12 0 13.919 13.919 0 1 1 -27.836 0v-2.744c0 .019.732.035 1.191.035a5.84 5.84 0 0 0 5.007-2.844 5.943 5.943 0 0 0 10.526 3.274 21.586 21.586 0 0 0 4.567-9.809c.7.068 1.4.115 2.1.115a21.773 21.773 0 0 0 3.476-.28 21.5 21.5 0 0 0 8.97-3.637 6 6 0 1 0 -6.884-9.829 9.712 9.712 0 0 1 -9.032 1.1 21.7 21.7 0 0 0 -4.624-6.839 6 6 0 0 0 -8.48 8.49 9.731 9.731 0 0 1 .633 13.056 6.033 6.033 0 0 0 -.468.663 6 6 0 0 0 -5.973-5.459 20.795 20.795 0 1 1 0-41.589 6 6 0 0 0 0-12 32.591 32.591 0 0 0 -13.361 2.856 13.129 13.129 0 0 1 1.385-20.009 5.993 5.993 0 0 0 7.18.885c.052-.03.1-.066.149-.1a3.991 3.991 0 0 1 -1.125.816 6 6 0 0 0 3.348 11.35 16.191 16.191 0 0 0 1.629 1.879 6 6 0 1 0 8.388-8.581 4.027 4.027 0 0 1 -.81-1.118 16.073 16.073 0 0 0 1.224-11.2 5.994 5.994 0 0 0 -10.869-1.725 20.793 20.793 0 0 1 30.608-26.662 6 6 0 1 0 7.13-9.652c-.551-.407-1.12-.779-1.69-1.149a10.737 10.737 0 0 1 -1.061-4.612 10.934 10.934 0 0 1 13.1-10.532 11.161 11.161 0 0 1 8.766 11.043v21.164a6 6 0 0 0 12 0v-20.965c0-11.847-8.78-22.135-20.567-23.333a22.855 22.855 0 0 0 -25.2 22.348 33.192 33.192 0 0 0 -4.817-.362 32.789 32.789 0 0 0 -32.143 39.3c-.464.267-.925.541-1.373.839a25.156 25.156 0 0 0 -5.21 37.287z"/></g></svg>