<svg id="Icons" enable-background="new 0 0 512 512" height="512" viewBox="0 0 512 512" width="512" xmlns="http://www.w3.org/2000/svg"><g><circle cx="256" cy="256" fill="#22bce0" r="256"/><g><path d="m239.644 470.301c-.005 0-.011-.001-.016-.001-6.784-.513-13.61-1.355-20.29-2.503-2.721-.468-4.549-3.053-4.081-5.774.467-2.722 3.04-4.55 5.774-4.081 6.37 1.094 12.88 1.897 19.35 2.387 2.754.208 4.817 2.609 4.609 5.363-.207 2.747-2.6 4.808-5.346 4.609zm39.887-.732c-2.353-.171-4.325-1.995-4.601-4.424-.311-2.744 1.661-5.221 4.405-5.532 6.44-.73 12.914-1.779 19.243-3.116 2.7-.57 5.355 1.156 5.926 3.857.571 2.702-1.156 5.355-3.857 5.926-6.639 1.404-13.43 2.504-20.185 3.269-.315.037-.626.043-.931.02zm-98.201-12.193c-.471-.034-.945-.136-1.409-.312-6.352-2.404-12.664-5.144-18.76-8.145-2.477-1.22-3.496-4.217-2.277-6.695 1.22-2.477 4.217-3.498 6.695-2.277 5.81 2.861 11.826 5.473 17.881 7.763 2.583.977 3.884 3.863 2.907 6.446-.802 2.119-2.888 3.376-5.037 3.22zm155.991-2.955c-1.814-.132-3.49-1.251-4.247-3.04-1.076-2.543.114-5.477 2.658-6.553 5.96-2.521 11.872-5.362 17.573-8.444 2.43-1.312 5.463-.408 6.776 2.021s.408 5.463-2.021 6.776c-5.98 3.233-12.182 6.213-18.434 8.858-.753.318-1.542.438-2.305.382zm-208.274-25.955c-.93-.067-1.852-.396-2.652-1.001-5.411-4.098-10.693-8.506-15.698-13.102-2.034-1.868-2.169-5.031-.301-7.065 1.867-2.034 5.03-2.168 7.065-.301 4.773 4.383 9.81 8.587 14.972 12.495 2.202 1.667 2.634 4.803.968 7.005-1.064 1.402-2.722 2.087-4.354 1.969zm259.417-4.921c-1.322-.096-2.604-.714-3.51-1.821-1.748-2.138-1.433-5.288.705-7.036 5.016-4.102 9.892-8.491 14.495-13.046 1.964-1.942 5.129-1.925 7.071.037 1.943 1.963 1.926 5.128-.037 7.071-4.826 4.776-9.939 9.378-15.198 13.68-1.03.841-2.295 1.205-3.526 1.115zm-301.455-37.525c-1.401-.102-2.751-.79-3.654-2.006-4.05-5.452-7.885-11.164-11.4-16.978-1.428-2.363-.671-5.437 1.692-6.866 2.362-1.428 5.436-.671 6.866 1.692 3.351 5.544 7.009 10.991 10.87 16.189 1.647 2.217 1.184 5.349-1.032 6.995-1.002.745-2.189 1.058-3.342.974zm341.879-6.46c-.854-.062-1.704-.344-2.461-.864-2.277-1.561-2.858-4.674-1.296-6.951 3.665-5.344 7.113-10.924 10.249-16.586 1.339-2.416 4.38-3.288 6.797-1.951 2.415 1.338 3.289 4.381 1.951 6.797-3.289 5.938-6.906 11.79-10.75 17.396-1.042 1.519-2.775 2.284-4.49 2.159zm-370.312-46.079c-1.898-.138-3.633-1.359-4.333-3.261-2.348-6.377-4.413-12.941-6.139-19.509-.702-2.671.895-5.404 3.566-6.107 2.671-.702 5.404.895 6.107 3.566 1.645 6.26 3.613 12.517 5.851 18.595.954 2.591-.373 5.465-2.965 6.419-.689.254-1.399.346-2.087.297zm396.73-7.502c-.395-.029-.794-.105-1.187-.233-2.626-.853-4.063-3.674-3.21-6.301 2-6.154 3.726-12.481 5.13-18.805.598-2.696 3.271-4.394 5.965-3.797 2.696.599 4.396 3.269 3.798 5.965-1.473 6.635-3.284 13.273-5.382 19.729-.727 2.232-2.874 3.605-5.114 3.442zm-409.137-50.931c-2.449-.178-4.455-2.138-4.621-4.658-.441-6.678-.572-13.478-.39-20.209l.006-.216c.072-2.76 2.369-4.94 5.129-4.868 2.75.072 4.94 2.369 4.868 5.129l-.007.255c-.173 6.394-.048 12.881.372 19.251.182 2.755-1.905 5.136-4.66 5.318-.234.016-.468.015-.697-.002zm419.296-7.936c-2.656-.193-4.712-2.447-4.632-5.134l.012-.426c.176-6.496.046-13.056-.386-19.501-.184-2.755 1.899-5.138 4.655-5.323 2.751-.182 5.138 1.899 5.323 4.655.453 6.757.589 13.632.404 20.435l-.012.455c-.081 2.76-2.385 4.932-5.145 4.851-.073-.003-.147-.007-.219-.012zm-414.789-51.632c-.24-.017-.481-.052-.723-.105-2.697-.596-4.4-3.264-3.804-5.961 1.466-6.636 3.27-13.276 5.362-19.735.852-2.627 3.671-4.064 6.298-3.216 2.627.851 4.067 3.67 3.216 6.298-1.994 6.156-3.714 12.485-5.111 18.811-.542 2.453-2.803 4.084-5.238 3.908zm407.966-8.147c-2.072-.15-3.913-1.592-4.472-3.713-1.652-6.26-3.627-12.514-5.871-18.588-.957-2.59.367-5.466 2.957-6.423 2.591-.957 5.465.367 6.423 2.957 2.355 6.373 4.427 12.934 6.16 19.503.705 2.67-.889 5.406-3.559 6.11-.55.146-1.102.193-1.638.154zm-386.868-47.735c-.7-.051-1.399-.25-2.053-.611-2.417-1.336-3.293-4.378-1.958-6.795 3.284-5.943 6.895-11.8 10.732-17.408 1.559-2.278 4.669-2.862 6.95-1.303 2.279 1.559 2.862 4.671 1.303 6.95-3.658 5.347-7.101 10.931-10.231 16.597-.976 1.764-2.859 2.707-4.743 2.57zm363.52-7.25c-1.561-.113-3.046-.956-3.918-2.396-3.356-5.537-7.019-10.981-10.887-16.179-1.649-2.215-1.189-5.348 1.026-6.996 2.216-1.649 5.347-1.189 6.996 1.026 4.057 5.451 7.898 11.159 11.417 16.966 1.431 2.362.677 5.436-1.685 6.867-.922.558-1.951.784-2.949.712zm-327.487-40.402c-1.163-.084-2.301-.573-3.186-1.466-1.944-1.961-1.931-5.126.029-7.071 4.822-4.782 9.931-9.389 15.184-13.695 2.137-1.75 5.286-1.438 7.037.698 1.75 2.136 1.438 5.286-.698 7.037-5.011 4.106-9.883 8.5-14.481 13.061-1.068 1.058-2.494 1.537-3.885 1.436zm289.586-5.79c-1.084-.079-2.149-.509-3.013-1.3-4.777-4.378-9.819-8.577-14.985-12.48-2.203-1.664-2.639-4.8-.975-7.003s4.8-2.64 7.004-.975c5.416 4.093 10.703 8.495 15.712 13.086 2.036 1.866 2.174 5.028.309 7.065-1.075 1.171-2.58 1.714-4.052 1.607zm-241.626-29.846c-1.645-.119-3.195-1.048-4.039-2.605-1.316-2.428-.414-5.462 2.013-6.778 5.978-3.24 12.177-6.226 18.424-8.877 2.542-1.078 5.477.108 6.556 2.651 1.078 2.542-.109 5.477-2.65 6.555-5.956 2.526-11.865 5.374-17.565 8.462-.871.472-1.82.659-2.739.592zm192.302-3.854c-.622-.045-1.246-.208-1.84-.5-5.817-2.856-11.836-5.462-17.89-7.744-2.584-.974-3.889-3.859-2.914-6.443.974-2.583 3.858-3.888 6.443-2.914 6.351 2.395 12.666 5.129 18.769 8.125 2.479 1.217 3.502 4.213 2.284 6.692-.926 1.884-2.88 2.927-4.852 2.784zm-136.262-16.812c-2.163-.157-4.053-1.721-4.526-3.949-.574-2.701 1.15-5.356 3.851-5.93 6.639-1.411 13.429-2.518 20.182-3.29 2.747-.314 5.222 1.656 5.536 4.4s-1.656 5.222-4.4 5.536c-6.438.736-12.911 1.791-19.239 3.136-.473.1-.945.131-1.404.097zm79.434-1.564c-.161-.012-.323-.031-.485-.059-6.367-1.087-12.878-1.883-19.353-2.366-2.754-.206-4.819-2.604-4.614-5.358.205-2.75 2.598-4.814 5.348-4.615.003 0 .007 0 .01.001 6.788.506 13.615 1.341 20.292 2.482 2.722.465 4.552 3.048 4.087 5.77-.437 2.558-2.748 4.329-5.285 4.145z" fill="#83d5ef"/></g><g><g><g><g><path d="m243.942 263.814v130.283c0 5.212-3.143 9.68-7.635 11.63h-.006c-1.541.666-3.239 1.038-5.026 1.038h-150.268c-1.787 0-3.485-.372-5.026-1.038-4.492-1.943-7.641-6.418-7.641-11.63v-130.283l87.801-88.068z" fill="#fbcb74"/><path d="m243.942 263.814v130.283c0 5.212-3.143 9.68-7.635 11.63h-.006c-4.486-1.949-7.635-6.418-7.635-11.63v-130.283c0-5.206 3.149-9.674 7.635-11.63h.006c4.493 1.949 7.635 6.424 7.635 11.63z" fill="#faefdc"/><path d="m83.616 263.814v130.283c0 5.212-3.143 9.686-7.635 11.63-4.492-1.943-7.641-6.418-7.641-11.63v-130.283c0-5.206 3.149-9.68 7.641-11.63 4.492 1.949 7.635 6.424 7.635 11.63z" fill="#deb36f"/><path d="m209.577 257.046c0 4.218-3.42 7.638-7.638 7.638h-91.595c-4.218 0-7.638-3.42-7.638-7.638s3.42-7.638 7.638-7.638h91.595c4.218 0 7.638 3.42 7.638 7.638z" fill="#fbd9a3"/></g><g><path d="m190.519 369.617h-68.753c-7.903 0-14.31-6.407-14.31-14.31v-68.753c0-7.903 6.407-14.31 14.31-14.31h68.753c7.903 0 14.31 6.407 14.31 14.31v68.753c0 7.903-6.407 14.31-14.31 14.31z" fill="#c4983d"/><g><g><path d="m153.306 288.719v21.285c0 .045 0 .102-.011.148-.068 4.402-3.653 7.942-8.078 7.942h-21.285c-4.47 0-8.101-3.619-8.101-8.09v-21.285c0-4.425 3.551-8.022 7.954-8.09.045-.011.102-.011.148-.011h21.285c4.469 0 8.088 3.631 8.088 8.101z" fill="#6052a3"/><path d="m153.306 288.719v21.285c0 .045 0 .102-.011.148-.045.011-.102.011-.148.011h-10.279c-10.552 0-19.095-8.555-19.095-19.095v-10.291c0-.045 0-.102.011-.148.045-.011.102-.011.148-.011h21.285c4.47 0 8.089 3.631 8.089 8.101z" fill="#57409b"/><path d="m143.454 306.508c-2.714 0-4.915-2.2-4.915-4.915v-12.143c0-2.714 2.2-4.915 4.915-4.915 2.714 0 4.915 2.2 4.915 4.915v12.143c0 2.715-2.2 4.915-4.915 4.915z" fill="#9175a7"/></g><g><path d="m196.455 288.719v21.285c0 .045 0 .102-.011.148-.068 4.402-3.653 7.942-8.078 7.942h-21.286c-4.47 0-8.101-3.619-8.101-8.09v-21.285c0-4.425 3.551-8.022 7.954-8.09.045-.011.102-.011.148-.011h21.285c4.47 0 8.089 3.631 8.089 8.101z" fill="#6052a3"/><path d="m196.455 288.719v21.285c0 .045 0 .102-.011.148-.045.011-.102.011-.147.011h-10.279c-10.552 0-19.095-8.555-19.095-19.095v-10.291c0-.045 0-.102.011-.148.045-.011.102-.011.148-.011h21.285c4.469 0 8.088 3.631 8.088 8.101z" fill="#57409b"/><path d="m186.603 306.508c-2.714 0-4.915-2.2-4.915-4.915v-12.143c0-2.714 2.2-4.915 4.915-4.915 2.714 0 4.915 2.2 4.915 4.915v12.143c0 2.715-2.2 4.915-4.915 4.915z" fill="#9175a7"/></g><g><path d="m153.306 331.868v21.285c0 .045 0 .102-.011.147-.068 4.402-3.653 7.942-8.078 7.942h-21.285c-4.47 0-8.101-3.619-8.101-8.09v-21.285c0-4.425 3.551-8.022 7.954-8.09.045-.011.102-.011.148-.011h21.285c4.469.001 8.088 3.632 8.088 8.102z" fill="#6052a3"/><path d="m153.306 331.868v21.285c0 .045 0 .102-.011.147-.045.011-.102.011-.148.011h-10.279c-10.552 0-19.095-8.555-19.095-19.095v-10.291c0-.045 0-.102.011-.148.045-.011.102-.011.148-.011h21.285c4.47.001 8.089 3.632 8.089 8.102z" fill="#57409b"/><path d="m143.454 349.657c-2.714 0-4.915-2.2-4.915-4.915v-12.143c0-2.714 2.2-4.915 4.915-4.915 2.714 0 4.915 2.2 4.915 4.915v12.143c0 2.714-2.2 4.915-4.915 4.915z" fill="#9175a7"/></g><g><path d="m196.455 331.868v21.285c0 .045 0 .102-.011.147-.068 4.402-3.653 7.942-8.078 7.942h-21.286c-4.47 0-8.101-3.619-8.101-8.09v-21.285c0-4.425 3.551-8.022 7.954-8.09.045-.011.102-.011.148-.011h21.285c4.47.001 8.089 3.632 8.089 8.102z" fill="#6052a3"/><path d="m196.455 331.868v21.285c0 .045 0 .102-.011.147-.045.011-.102.011-.147.011h-10.279c-10.552 0-19.095-8.555-19.095-19.095v-10.291c0-.045 0-.102.011-.148.045-.011.102-.011.148-.011h21.285c4.469.001 8.088 3.632 8.088 8.102z" fill="#57409b"/><path d="m186.603 349.657c-2.714 0-4.915-2.2-4.915-4.915v-12.143c0-2.714 2.2-4.915 4.915-4.915 2.714 0 4.915 2.2 4.915 4.915v12.143c0 2.714-2.2 4.915-4.915 4.915z" fill="#9175a7"/></g></g></g><g><path d="m275.952 282.881c0 2.717-1.038 5.428-3.107 7.497-4.162 4.162-10.922 4.138-15.054-.054l-94.099-95.508c-4.15-4.216-10.952-4.216-15.102 0l-94.099 95.508c-2.075 2.105-4.816 3.161-7.551 3.161-2.717 0-5.434-1.038-7.503-3.107-3.497-3.497-4.036-8.829-1.631-12.895.444-.75.99-1.457 1.631-2.099l109.225-109.219c4.138-4.144 10.856-4.138 14.994 0l109.189 109.219c.642.642 1.188 1.35 1.631 2.099.985 1.661 1.476 3.526 1.476 5.398z" fill="#e9465e"/><path d="m274.477 277.483c-.444.75-.99 1.457-1.631 2.099v.006c-4.162 4.162-10.922 4.132-15.054-.06l-94.099-95.508c-4.15-4.216-10.952-4.216-15.102 0l-94.099 95.508c-2.075 2.105-4.816 3.161-7.557 3.161-2.717 0-5.428-1.032-7.497-3.101-.648-.648-1.188-1.355-1.631-2.105.444-.75.99-1.457 1.631-2.099l109.225-109.219c4.138-4.144 10.856-4.138 14.994 0l109.189 109.219c.641.641 1.187 1.349 1.631 2.099z" fill="#ee6781"/><g fill="#f789a1"><path d="m81.693 242.848-.31-.304c-2.531-2.484-2.55-6.555-.042-9.062l41.162-41.16c2.475-2.475 6.483-2.493 8.98-.039 2.515 2.471 2.548 6.514.073 9.026l-40.852 41.464c-2.469 2.505-6.5 2.539-9.011.075z"/><path d="m230.596 242.847.303-.297c2.537-2.487 2.558-6.566.046-9.078l-41.137-41.149c-2.476-2.477-6.485-2.498-8.987-.047-2.526 2.474-2.562 6.529-.081 9.047l40.834 41.446c2.472 2.508 6.507 2.543 9.022.078z"/></g></g></g><g><path d="m228.48 180.823v50.183l-20.146-20.152v-30.031c0-2.807 2.273-5.08 5.074-5.08h9.998c2.801 0 5.074 2.273 5.074 5.08z" fill="#c0405c"/><path d="m228.48 180.823v42.734l-8.115-8.121c-2.939-2.933-4.582-6.915-4.582-11.06v-23.553c0-2.807 2.273-5.08 5.074-5.08h2.549c2.801 0 5.074 2.273 5.074 5.08z" fill="#e9465e"/></g></g><g><g id="Speech-bubble_6_"><path d="m316.352 315.917c4.419 0 8.75-2.158 11.35-6.132l43.7-66.787c4.097-6.262 2.342-14.659-3.92-18.756-6.261-4.097-14.657-2.342-18.756 3.919l-43.7 66.787c-4.096 6.262-2.342 14.659 3.92 18.756 2.289 1.497 4.863 2.213 7.406 2.213z" fill="#ebd9ea"/><path d="m487.3 146.18v57.34c0 11.93-4.05 22.91-10.84 31.66-9.45 12.17-24.22 20-40.82 20h-130.86c-16.6 0-31.37-7.83-40.81-20-6.8-8.75-10.85-19.73-10.85-31.66v-84.62c0-11.94 4.05-22.92 10.85-31.66 9.44-12.17 24.21-20 40.81-20h124.15c14 12.83 26.57 27.2 37.44 42.85 7.91 11.39 14.93 23.45 20.93 36.09z" fill="#ebd9ea"/><path d="m487.3 146.18v57.34c0 11.93-4.05 22.91-10.84 31.66-6.8-8.75-10.84-19.73-10.84-31.66v-84.62c0-3 .26-5.94.75-8.81 7.91 11.39 14.93 23.45 20.93 36.09z" fill="#fff"/><path d="m274.8 118.896v84.619c0 11.936-4.043 22.915-10.834 31.669-6.8-8.754-10.843-19.733-10.843-31.669v-84.619c0-11.936 4.043-22.915 10.843-31.66 6.791 8.745 10.834 19.724 10.834 31.66z" fill="#c1b7d3"/></g><g><g><g><path d="m385.608 143.756v50.629c0 1.71-.458 3.314-1.257 4.695-1.04 1.804-2.667 3.232-4.618 4.013-1.081.441-2.268.682-3.508.682h-73.538c-1.246 0-2.432-.241-3.514-.682-1.951-.787-3.578-2.209-4.618-4.013-.799-1.381-1.257-2.985-1.257-4.695v-50.629c0-3.942 2.427-7.321 5.876-8.708 1.081-.441 2.268-.682 3.514-.682h73.538c1.24 0 2.427.241 3.508.682 3.441 1.387 5.874 4.759 5.874 8.708z" fill="#d48d77"/><path d="m305.048 143.756v50.629c0 3.948-2.432 7.321-5.876 8.708-3.449-1.387-5.876-4.765-5.876-8.708v-50.629c0-3.942 2.427-7.321 5.876-8.708 3.444 1.387 5.876 4.759 5.876 8.708z" fill="#c17e62"/><path d="m385.608 143.756v50.629c0 1.71-.458 3.314-1.257 4.695-1.04 1.804-2.667 3.232-4.618 4.013-1.951-.787-3.578-2.209-4.618-4.013-.799-1.381-1.257-2.985-1.257-4.695v-50.629c0-3.942 2.427-7.321 5.876-8.708 3.441 1.387 5.874 4.759 5.874 8.708z" fill="#eea47d"/><path d="m384.35 199.08c-1.622 2.809-4.653 4.695-8.126 4.695h-73.538c-1.246 0-2.432-.241-3.514-.682-1.951-.787-3.578-2.209-4.618-4.013 1.04-1.804 2.667-3.226 4.618-4.013 1.081-.441 2.268-.682 3.514-.682h73.538c3.473 0 6.505 1.886 8.126 4.695z" fill="#a26d5a"/></g><g><path d="m374.28 173.152h-69.656c-6.256 0-11.327-5.071-11.327-11.327v-5.19h92.31v5.19c.001 6.256-5.071 11.327-11.327 11.327z" fill="#a26d5a"/><path d="m385.608 143.756v15.547c0 4.083-3.314 7.397-7.397 7.397h-77.516c-4.083 0-7.397-3.314-7.397-7.397v-15.547c0-3.942 2.427-7.321 5.876-8.708 1.081-.441 2.268-.682 3.514-.682h73.538c1.24 0 2.427.241 3.508.682 3.441 1.387 5.874 4.759 5.874 8.708z" fill="#c17e62"/><path d="m305.048 143.756v22.944h-4.354c-4.083 0-7.397-3.314-7.397-7.397v-15.547c0-3.942 2.427-7.321 5.876-8.708 3.443 1.387 5.875 4.759 5.875 8.708z" fill="#a26d5a"/><path d="m385.608 143.756v15.547c0 4.083-3.314 7.397-7.397 7.397h-4.354v-22.944c0-3.942 2.427-7.321 5.876-8.708 3.442 1.387 5.875 4.759 5.875 8.708z" fill="#d48d77"/><path d="m363.981 139.311h-49.057c-2.843 0-5.147 2.304-5.147 5.147s2.304 5.147 5.147 5.147h49.057c2.843 0 5.147-2.304 5.147-5.147 0-2.842-2.305-5.147-5.147-5.147z" fill="#d48d77"/><path d="m361.232 145.922h-31.07c-1.825 0-3.305-1.48-3.305-3.305s1.48-3.305 3.305-3.305h31.07c1.825 0 3.305 1.48 3.305 3.305s-1.48 3.305-3.305 3.305z" fill="#eea47d"/></g><g><g><path d="m317.369 157.416c-.664-.494-1.486-.781-2.38-.781h-5.923c-.887 0-1.71.288-2.374.781-.999.723-1.645 1.904-1.645 3.237v12.092c0 1.334.646 2.515 1.645 3.237.664.494 1.486.781 2.374.781h5.923c.893 0 1.716-.288 2.38-.781.993-.729 1.639-1.91 1.639-3.237v-12.092c0-1.327-.646-2.508-1.639-3.237zm-1.644 13.395c0 1.293-1.048 2.341-2.341 2.341h-2.708c-1.293 0-2.341-1.048-2.341-2.341v-8.223c0-1.293 1.048-2.341 2.341-2.341h2.708c1.293 0 2.341 1.048 2.341 2.341z" fill="#f9c744"/><path d="m319.008 160.654v12.092c0 1.328-.646 2.509-1.639 3.237-.999-.729-1.645-1.91-1.645-3.237v-12.092c0-1.328.646-2.509 1.645-3.237.993.728 1.639 1.909 1.639 3.237z" fill="#fad98f"/><path d="m308.333 160.654v12.092c0 1.328-.646 2.509-1.639 3.237-.999-.723-1.645-1.904-1.645-3.237v-12.092c0-1.334.646-2.515 1.645-3.237.992.728 1.639 1.909 1.639 3.237z" fill="#f39e22"/><path d="m317.369 157.416c-.664-.494-1.486-.781-2.38-.781h-3.778c.215 1.323.722 2.546 1.443 3.612h.729c1.293 0 2.341 1.048 2.341 2.341v.49c.994.56 2.101.943 3.283 1.095v-3.519c.001-1.328-.645-2.509-1.638-3.238z" fill="#faefdc"/></g><g><path d="m372.217 157.416c-.664-.494-1.486-.781-2.38-.781h-5.923c-.887 0-1.71.288-2.374.781-.999.723-1.645 1.904-1.645 3.237v12.092c0 1.334.646 2.515 1.645 3.237.664.494 1.487.781 2.374.781h5.923c.893 0 1.716-.288 2.38-.781.993-.729 1.639-1.91 1.639-3.237v-12.092c.001-1.327-.646-2.508-1.639-3.237zm-1.643 13.395c0 1.293-1.048 2.341-2.341 2.341h-2.708c-1.293 0-2.341-1.048-2.341-2.341v-8.223c0-1.293 1.048-2.341 2.341-2.341h2.708c1.293 0 2.341 1.048 2.341 2.341z" fill="#f9c744"/><path d="m373.857 160.654v12.092c0 1.328-.646 2.509-1.639 3.237-.999-.729-1.645-1.91-1.645-3.237v-12.092c0-1.328.646-2.509 1.645-3.237.992.728 1.639 1.909 1.639 3.237z" fill="#fad98f"/><path d="m363.181 160.654v12.092c0 1.328-.646 2.509-1.639 3.237-.999-.723-1.645-1.904-1.645-3.237v-12.092c0-1.334.646-2.515 1.645-3.237.992.728 1.639 1.909 1.639 3.237z" fill="#f39e22"/><path d="m372.217 157.416c-.664-.494-1.486-.781-2.38-.781h-3.778c.215 1.323.722 2.546 1.443 3.612h.729c1.293 0 2.341 1.048 2.341 2.341v.49c.994.56 2.101.943 3.283 1.095v-3.519c.002-1.328-.645-2.509-1.638-3.238z" fill="#faefdc"/></g></g><g><path d="m359.896 125.594v8.772h-7.045v-5.582c0-3.09-2.509-5.599-5.605-5.599h-15.582c-3.096 0-5.605 2.509-5.605 5.599v5.582h-7.045v-8.772c0-.922.147-1.81.411-2.638 1.116-3.478 4.377-5.999 8.226-5.999h23.608c3.848 0 7.109 2.521 8.226 5.999.264.829.411 1.716.411 2.638z" fill="#a26d5a"/><path d="m359.485 122.956c-.94 3.349-3.42 6.046-6.633 7.286v-1.457c0-3.09-2.509-5.599-5.605-5.599h-15.582c-3.096 0-5.605 2.509-5.605 5.599v1.457c-1.445-.558-2.744-1.41-3.819-2.485-1.316-1.316-2.297-2.961-2.814-4.8 1.116-3.478 4.377-5.999 8.226-5.999h23.608c3.847-.001 7.108 2.52 8.224 5.998z" fill="#c17e62"/><path d="m351.115 123.186h-18.114c-1.683 0-3.048-1.364-3.048-3.048v-.133c0-1.683 1.364-3.048 3.048-3.048h18.114c1.683 0 3.048 1.364 3.048 3.048v.133c0 1.683-1.365 3.048-3.048 3.048z" fill="#d48d77"/></g></g><g id="Lightbulb_1_"><g><path d="m451.122 130.487c0 7.904-4.171 14.222-8.028 20.446-.365.592-.76 1.351-1.176 2.243-.95 2.023-1.987 4.69-2.966 7.378-2.053 5.661-3.82 11.41-3.82 11.41h-28.349s-5.011-16.246-7.962-21.03c-.614-.986-1.234-1.972-1.841-2.973-3.236-5.296-6.194-10.826-6.194-17.473 0-6.698 2.184-12.893 5.888-17.896 5.486-7.443 14.324-12.272 24.281-12.272 2.688 0 5.289.351 7.765 1.015 4.799 1.271 9.124 3.696 12.666 6.954 5.989 5.515 9.736 13.418 9.736 22.198z" fill="#daab42"/><path d="m402.553 130.487c0 6.508-2.06 12.542-5.573 17.473-3.236-5.296-6.194-10.826-6.194-17.473 0-6.698 2.184-12.893 5.888-17.896 3.695 5.004 5.879 11.198 5.879 17.896z" fill="#c4983d"/><path d="m451.122 130.487c0 7.904-4.171 14.222-8.028 20.446-.365.592-.76 1.351-1.176 2.243-.95 2.023-1.987 4.69-2.966 7.378-.811.066-1.636.102-2.462.102-16.662 0-30.168-13.506-30.168-30.168 0-13.974 9.503-25.727 22.396-29.153 4.799 1.271 9.124 3.696 12.666 6.954 5.991 5.515 9.738 13.418 9.738 22.198z" fill="#f9c744"/><path d="m451.122 130.487c0 7.904-4.171 14.222-8.028 20.446-.365.592-.76 1.351-1.176 2.243-4.931-4.332-8.444-10.248-9.73-16.954-.358-1.855-.548-3.776-.548-5.734 0-6.874 2.301-13.214 6.172-18.284 1.074-1.41 2.272-2.717 3.572-3.915 5.991 5.515 9.738 13.418 9.738 22.198z" fill="#f8d07a"/><circle cx="433.985" cy="123.978" fill="#fbd9a3" r="12.379"/><path d="m451.122 130.487c0 7.904-4.171 14.222-8.028 20.446-.365.592-.76 1.351-1.176 2.243-.95 2.023-1.987 4.69-2.966 7.378-2.053 5.661-3.82 11.41-3.82 11.41h-28.349s-5.011-16.246-7.962-21.03c-.614-.986-1.234-1.972-1.841-2.973-3.236-5.296-6.194-10.826-6.194-17.473 0-6.698 2.184-12.893 5.888-17.896 5.486-7.443 14.324-12.272 24.281-12.272 2.688 0 5.289.351 7.765 1.015 4.799 1.271 9.124 3.696 12.666 6.954 5.989 5.515 9.736 13.418 9.736 22.198z" fill="none"/></g><g><path d="m431.64 197.128v4.288c0 4.449-2.725 8.269-6.589 9.876-1.264.519-2.644.811-4.098.811-5.895 0-10.679-4.785-10.679-10.687v-4.288z" fill="#2e3140"/><path d="m431.64 197.128v4.288c0 4.449-2.725 8.269-6.589 9.876-3.871-1.607-6.596-5.42-6.596-9.876v-4.288z" fill="#3e4e60"/><path d="m431.64 197.128v4.288c0 4.449-2.725 8.269-6.589 9.876-1.264.519-2.644.811-4.098.811-5.895 0-10.679-4.785-10.679-10.687v-4.288z" fill="none"/></g><g><path d="m416.222 151.061h9.47v20.902h-9.47z" fill="#bf5e39"/><path d="m420.957 151.061h4.735v20.902h-4.735z" fill="#dd5e26"/></g><g><path d="m434.949 145.162c0 .584-.08 1.147-.241 1.673-.723 2.447-2.988 4.229-5.661 4.229h-16.18c-1.629 0-3.104-.665-4.171-1.731-1.066-1.066-1.731-2.542-1.731-4.171 0-3.258 2.644-5.902 5.902-5.902h16.18c1.629 0 3.104.665 4.171 1.731 1.074 1.067 1.731 2.543 1.731 4.171z" fill="#bf5e39"/><path d="m434.949 145.162c0 .584-.08 1.147-.241 1.673h-15.325c-1.629 0-3.104-.657-4.171-1.731-1.066-1.066-1.731-2.542-1.731-4.171 0-.584.088-1.147.241-1.673h15.325c1.629 0 3.104.665 4.171 1.731 1.074 1.067 1.731 2.543 1.731 4.171z" fill="#dd5e26"/><path d="m433.218 140.992c1.074 1.066 1.731 2.542 1.731 4.171 0 .584-.08 1.147-.241 1.673h-5.486c-1.629 0-3.104-.657-4.171-1.731-1.066-1.066-1.724-2.542-1.724-4.171 0-.584.08-1.147.241-1.673h5.478c1.63-.001 3.106.664 4.172 1.731z" fill="#ea792e"/><path d="m434.949 145.162c0 .584-.08 1.147-.241 1.673-.723 2.447-2.988 4.229-5.661 4.229h-16.18c-1.629 0-3.104-.665-4.171-1.731-1.066-1.066-1.731-2.542-1.731-4.171 0-3.258 2.644-5.902 5.902-5.902h16.18c1.629 0 3.104.665 4.171 1.731 1.074 1.067 1.731 2.543 1.731 4.171z" fill="none"/></g><g><path d="m443.401 179.86c0 .139-.007.27-.015.394-.27 4.003-4.653 4.763-7.874 7.495-.657.562-.562 3.397-.562 3.397 0 7.728-6.267 13.996-13.996 13.996-4.653 0-8.773-2.272-11.315-5.771-.511-.701-.957-1.454-1.337-2.25-.526-1.11-.906-2.308-1.125-3.557-.139-.782-.212-1.592-.212-2.418 0 0 .095-2.834-.562-3.397-3.324-2.82-7.889-3.535-7.889-7.889 0-4.361 3.528-7.896 7.889-7.896h29.109c4.361-.001 7.889 3.535 7.889 7.896z" fill="#c1b7d3"/><path d="m443.386 179.86v.394c-.27 4.003-4.653 4.763-7.874 7.495-.657.562-.562 3.397-.562 3.397 0 7.728-6.267 13.996-13.996 13.996-4.653 0-8.773-2.272-11.315-5.771-.511-.701-.957-1.454-1.337-2.25-.526-1.11-.906-2.308-1.125-3.557-.139-.782-.212-1.592-.212-2.418 0 0 .095-2.834-.562-3.397-3.324-2.82-7.889-3.535-7.889-7.889z" fill="#aea7b9"/><path d="m425.694 179.86s-2.345 16.874-17.392 17.261c-.855-1.812-1.337-3.835-1.337-5.975 0 0 .095-2.834-.562-3.397-3.324-2.82-7.889-3.535-7.889-7.889z" fill="#9f90ae"/><path d="m418.879 175.908c0 2.184-1.768 3.952-3.944 3.952h-16.421c0-4.361 3.528-7.896 7.889-7.896h8.532c2.176-.001 3.944 1.767 3.944 3.944z" fill="#aea7b9"/><path d="m429.522 196.47c0 1.6-1.3 2.9-2.907 2.9h-16.976c-.511-.701-.957-1.454-1.337-2.25-.526-1.11-.906-2.308-1.125-3.557h19.438c1.607 0 2.907 1.3 2.907 2.907z" fill="#c1b7d3"/><g fill="#ebd9ea"><path d="m423.724 199.372h-1.853c-1.603 0-2.903-1.3-2.903-2.903s1.3-2.903 2.903-2.903h1.853c1.603 0 2.903 1.3 2.903 2.903-.001 1.603-1.3 2.903-2.903 2.903z"/><path d="m434.045 177.769h-8.812c-1.603 0-2.903-1.3-2.903-2.903s1.3-2.903 2.903-2.903h8.812c1.603 0 2.903 1.3 2.903 2.903 0 1.604-1.299 2.903-2.903 2.903z"/></g></g></g></g></g></g></g></svg>