<svg id="Icons" enable-background="new 0 0 512 512" height="512" viewBox="0 0 512 512" width="512" xmlns="http://www.w3.org/2000/svg"><g><g><circle cx="256" cy="256" fill="#f9c744" r="256"/><path d="m512 256c0 44.2-11.21 85.79-30.93 122.07-23.79 8.23-49.34 12.69-75.93 12.69-128.41 0-232.5-104.09-232.5-232.5 0-60.67 23.24-115.92 61.31-157.32 7.27-.62 14.62-.94 22.05-.94 141.38 0 256 114.62 256 256z" fill="#fbcb74"/><path d="m509.57 220.6c-20.88 35.98-59.83 60.17-104.43 60.17-66.65 0-120.69-54.03-120.69-120.69 0-62.69 47.81-114.22 108.96-120.11 61.87 39.43 105.66 104.71 116.16 180.63z" fill="#fbd9a3"/></g><g><g><path d="m398.227 187.076h13.827v308.644h-13.827z" fill="#ebd9ea"/><path d="m405.14 187.08h6.91v308.64h-6.91z" fill="#fff"/></g><g><g><path d="m461.88 134.76-27.25 60.31c-3.93 8.71-12.6 14.3-22.15 14.3h-14.68c-9.55 0-18.22-5.59-22.15-14.3l-27.25-60.31c-2.33-5.15.15-10.84 4.82-13.01 1.24-.58 2.65-.91 4.16-.91h95.52c1.51 0 2.92.33 4.16.91 4.67 2.17 7.15 7.86 4.82 13.01z" fill="#ea792e"/><path d="m457.06 121.75-19.4 42.96c-2.89 6.39-7.52 11.64-13.17 15.29s-12.34 5.7-19.35 5.7c-14.02 0-26.74-8.21-32.51-20.99l-19.41-42.96c1.24-.58 2.65-.91 4.16-.91h95.52c1.51 0 2.92.33 4.16.91z" fill="#f39e22"/><path d="m434.529 127.546h-58.778c-3.596 0-6.511 2.915-6.511 6.511s2.915 6.511 6.511 6.511h58.778c3.596 0 6.511-2.915 6.511-6.511s-2.915-6.511-6.511-6.511z" fill="#f9c744"/></g><path d="m420.547 120.837c-3.199-5.145-8.903-8.569-15.407-8.569s-12.208 3.425-15.407 8.57z" fill="#fff"/></g></g><g><g><path d="m312.107 201.142v134.283h-236.137v-134.283c-.004-6.744 1.371-13.168 3.841-19.008 7.407-17.521 24.765-29.817 44.993-29.817h138.468c20.228 0 37.586 12.297 44.993 29.817 2.471 5.839 3.846 12.263 3.842 19.008z" fill="#c0405c"/><path d="m308.266 182.134c-7.393 17.527-24.767 29.826-44.993 29.827h-138.468c-20.226-.001-37.601-12.3-44.993-29.827 7.407-17.521 24.765-29.817 44.993-29.817h138.468c20.227-.001 37.586 12.296 44.993 29.817z" fill="#e9465e"/></g><path d="m289.58 409.95v99.86c-68.173 9.51-140.079-11.312-191.09-51.99v-47.87z" fill="#e9465e"/><g><path d="m310.916 375.453v13.164c0 11.782-9.551 21.333-21.334 21.333h-191.087c-11.782 0-21.334-9.552-21.334-21.333v-13.164c-.165-26.291 21.629-48.652 48.52-48.52h136.714c26.887-.132 48.692 22.229 48.521 48.52z" fill="#c0405c"/><path d="m310.515 369.189c-1.906 9.818-10.552 17.225-20.933 17.225h-191.087c-10.381 0-19.027-7.407-20.933-17.225 2.688-20.876 18.655-37.596 39.15-41.428 2.907-.543 5.91-.829 8.97-.829h136.714c23.987-.198 45.197 18.278 48.119 42.257z" fill="#e9465e"/></g><g><path d="m355.95 322.62v169.13c-21.151 8.983-43.499 15.077-66.37 18.06v-187.19c0-1.31.08-2.61.23-3.88 1.5-12.88 10.38-23.51 22.3-27.56 21.087-7.506 44.257 9.321 43.84 31.44z" fill="#c0405c"/><g fill="#e9465e"><path d="m355.72 318.74c-5.519 38.836-60.399 38.837-65.91 0 1.916-16.421 15.915-29.306 32.95-29.3 17.037-.006 31.045 12.874 32.96 29.3z"/><path d="m333.42 367.33v132.75c-6.98 2.22-14.09 4.14-21.32 5.75v-138.5c0-.42.03-.84.08-1.24 1.966-13.22 20.828-12.121 21.24 1.24z"/></g></g><g><path d="m98.49 322.62v135.2c-27.025-21.12-49.674-47.555-66.36-77.56v-57.64c0-1.31.08-2.61.23-3.88 2.089-21.461 26.135-35.608 46.08-26.59 11.959 5.007 20.207 17.487 20.05 30.47z" fill="#c0405c"/><path d="m98.27 318.74c-5.515 38.836-60.413 38.836-65.91 0 1.905-16.437 15.912-29.308 32.95-29.3 17.04-.009 31.043 12.867 32.96 29.3z" fill="#e9465e"/><path d="m350.28 304.1c-12.787 19.401-42.252 19.399-55.03 0 12.781-19.447 42.255-19.431 55.03 0z" fill="#ee6781"/><path d="m92.83 304.09c-12.797 19.417-42.251 19.408-55.04 0 12.792-19.431 42.256-19.422 55.04 0z" fill="#ee6781"/><path d="m75.97 367.33v70.67c-7.59-7.51-14.71-15.49-21.32-23.89v-46.78c0-.42.03-.84.08-1.24.61-5.3 5.12-9.42 10.58-9.42 5.905-.027 10.695 4.879 10.66 10.66z" fill="#e9465e"/></g><g fill="#ee6781"><path d="m262.396 326.932h-136.722c0 18.641 15.112 33.753 33.753 33.753h69.215c18.642 0 33.754-15.112 33.754-33.753z"/><path d="m246.579 152.316h-105.081c-22.122.882-22.17 32.483 0 33.387h105.082c9.219 0 16.693-7.474 16.693-16.693 0-9.22-7.474-16.694-16.694-16.694z"/></g></g><g><g><path d="m442.61 431.25c-5.61 5.97-11.51 11.68-17.67 17.09-5.01 4.41-10.2 8.63-15.55 12.63h-188.13c-8.2 0-14.86-6.65-14.86-14.86 0-2.26.5-4.4 1.41-6.32.73-1.56 1.74-2.98 2.95-4.19 2.68-2.69 6.4-4.35 10.5-4.35z" fill="#a26d5a"/><path d="m442.61 431.25c-5.61 5.97-11.51 11.68-17.67 17.09h-203.68c-5.94 0-11.08-3.49-13.45-8.55.73-1.56 1.74-2.98 2.95-4.19 2.68-2.69 6.4-4.35 10.5-4.35z" fill="#c17e62"/></g><path d="m221.26 460.97v48.69c5.85.8 11.76 1.39 17.73 1.78 5.62.37 11.29.56 17.01.56 31.9 0 62.44-5.84 90.6-16.5 15.01-5.68 29.34-12.73 42.85-21 6.87-4.2 13.52-8.71 19.94-13.53z" fill="#a26d5a"/><path d="m389.45 474.5c-13.51 8.27-27.84 15.32-42.85 21-28.16 10.66-58.7 16.5-90.6 16.5-5.72 0-11.39-.19-17.01-.56v-11.04c0-14.3 11.6-25.9 25.9-25.9z" fill="#c17e62"/><g fill="#d48d77"><path d="m442.61 431.25c-5.61 5.97-11.51 11.68-17.67 17.09h-177.08c-4.72 0-8.54-3.83-8.54-8.55 0-2.35.96-4.49 2.5-6.04 1.54-1.54 3.68-2.5 6.04-2.5z"/><path d="m389.45 474.5c-13.51 8.27-27.84 15.32-42.85 21h-71.21c-2.9 0-5.53-1.18-7.43-3.08s-3.07-4.52-3.07-7.42c0-5.8 4.7-10.5 10.5-10.5z"/></g></g><g><g><path d="m486.39 331.07v36.65c-5.11 10.54-10.93 20.67-17.4 30.34-1.55 2.34-3.15 4.64-4.79 6.92-2.34 3.27-4.76 6.49-7.25 9.64h-122.43c-2.49 0-4.77-.86-6.58-2.3-1.4-1.09-2.5-2.52-3.22-4.19-.53-1.28-.83-2.68-.83-4.14v-72.92c0-5.87 4.76-10.61 10.63-10.61h141.24c5.87 0 10.63 4.74 10.63 10.61z" fill="#c2aacf"/><path d="m486.39 331.07v36.65c-5.11 10.54-10.93 20.67-17.4 30.34-1.55 2.34-3.15 4.64-4.79 6.92-.03-.32-.05-.66-.05-.99v-72.92c0-5.87 4.76-10.61 10.63-10.61h.98c5.87 0 10.63 4.74 10.63 10.61z" fill="#decee5"/><path d="m346.007 331.074v72.911c0 1.468-.3 2.869-.834 4.148-1.624 3.814-5.393 6.483-9.796 6.483h-.856c-4.403 0-8.173-2.669-9.796-6.483-.534-1.279-.834-2.68-.834-4.148v-72.911c0-5.871 4.759-10.619 10.63-10.619h.856c5.871 0 10.63 4.748 10.63 10.619z" fill="#decee5"/><path d="m468.99 398.06c-1.55 2.34-3.15 4.64-4.79 6.92-2.34 3.27-4.76 6.49-7.25 9.64h-122.43c-2.49 0-4.77-.86-6.58-2.3 5.99-11.56 18.08-19.47 32.01-19.47h90.38c4.9 0 9.57.98 13.82 2.75 1.68.7 3.3 1.52 4.84 2.46z" fill="#a583bb"/><circle cx="405.141" cy="359.206" fill="#fff" r="13.405"/></g><g><path d="m456.95 414.62c-2.23 2.82-4.52 5.59-6.86 8.31-2.43 2.83-4.93 5.6-7.48 8.32h-99.28c-2.3 0-4.37-.93-5.89-2.44-1.5-1.51-2.43-3.58-2.43-5.88 0-1.52.41-2.93 1.12-4.16 1.44-2.49 4.12-4.15 7.2-4.15z" fill="#9175a7"/><path d="m456.95 414.62c-2.23 2.82-4.52 5.59-6.86 8.31h-106.76c-2.3 0-4.37-.93-5.89-2.43-.51-.51-.95-1.09-1.31-1.73 1.44-2.49 4.12-4.15 7.2-4.15z" fill="#755c8e"/></g></g><g><g><g><path d="m232.343 398.046c0 .233.01.476.029.708.359 6.396 5.688 11.492 12.171 11.492h4.63v8.735h-4.63c-10.278 0-18.849-7.444-20.596-17.218-.223-1.203-.34-2.446-.34-3.717 0-9.153 5.892-16.937 14.083-19.781 2.145-.747 4.455-1.155 6.852-1.155h4.63v8.735h-4.63c-1.922 0-3.727.446-5.348 1.233-4.046 1.99-6.851 6.154-6.851 10.968z" fill="#22bce0"/><path d="m239.293 385.351c0 .582-.029 1.165-.097 1.728-4.047 1.99-6.852 6.154-6.852 10.968 0 .233.01.476.029.708-2.407 1.718-5.299 2.805-8.425 3.009-.223-1.203-.34-2.446-.34-3.717 0-1.155.097-2.3.282-3.407.99-6.086 4.63-11.298 9.696-14.423 1.281-.796 2.659-1.446 4.106-1.951 1.028 2.145 1.601 4.552 1.601 7.085z" fill="#4fcae8"/><path d="m234.362 384.196c0 5.775-4.678 10.444-10.444 10.444h-.029c.99-6.086 4.63-11.298 9.696-14.423.496 1.232.777 2.572.777 3.979z" fill="#83d5ef"/></g><g><path d="m299.197 365.784v59.808c0 3.125-2.533 5.658-5.659 5.658h-42.589c-3.125 0-5.658-2.533-5.658-5.658v-59.808c0-3.125 2.533-5.659 5.658-5.659h42.589c3.126 0 5.659 2.534 5.659 5.659z" fill="#22a8b9"/><path d="m299.197 365.784v51.354c-3.844 2.776-8.551 4.406-13.656 4.406h-7.182c-12.899 0-23.362-10.463-23.362-23.362v-24.401c0-5.096 1.64-9.813 4.407-13.656h34.135c3.125 0 5.658 2.534 5.658 5.659z" fill="#4fcae8"/><path d="m299.197 365.784v7.658c-1.301 1.087-2.98 1.747-4.824 1.747h-39.377v-1.407c0-5.096 1.64-9.813 4.407-13.656h34.135c3.126-.001 5.659 2.533 5.659 5.658z" fill="#cde6f6"/><path d="m259.403 360.125c-2.766 3.844-4.407 8.561-4.407 13.656v1.407h-9.706v-9.405c0-3.125 2.533-5.659 5.658-5.659h8.455z" fill="#4fcae8"/><path d="m290.207 364.516h-35.925c-1.736 0-3.143 1.407-3.143 3.143s1.407 3.143 3.143 3.143h35.925c1.736 0 3.143-1.407 3.143-3.143.001-1.736-1.407-3.143-3.143-3.143z" fill="#bf5e39"/><path d="m287.62 415.557c2.987 0 5.409-2.422 5.409-5.409v-25.745c0-2.987-2.422-5.409-5.409-5.409s-5.409 2.422-5.409 5.409v25.745c0 2.987 2.422 5.409 5.409 5.409z" fill="#83d5ef"/></g></g></g></g></svg>