<svg id="Layer_1" height="512" viewBox="0 0 512 512" width="512" xmlns="http://www.w3.org/2000/svg" data-name="Layer 1"><path d="m269.51 220.78-121.45 121.51a13.778 13.778 0 0 0 19.48 19.49l121.45-121.51a59.206 59.206 0 0 1 -19.48-19.49z" fill="#c3c6d1"/><path d="m288.99 240.27a59.1 59.1 0 1 1 30.91 8.73 59.206 59.206 0 0 1 -30.91-8.73z" fill="#5fa8ed"/><path d="m319.9 169.68a20.175 20.175 0 1 1 -20.17 20.17 20.167 20.167 0 0 1 20.17-20.17z" fill="#4689d3"/><path d="m223.78 305.52 12.46 12.47-.37.37-54.32 54.36-12.48-12.48z" fill="#a3a6b2"/><path d="m236.24 317.99 20.78 20.78-18.73 18.75-8.03-8.03-16.49 16.49 8.03 8.03-19.48 19.5-20.77-20.79 54.32-54.36z" fill="#d4e1f4"/><path d="m291.51 232.78a59.125 59.125 0 0 1 67.007-87.68 59.12 59.12 0 1 0 -55.2 101.54 59.151 59.151 0 0 1 -11.807-13.86z" fill="#92ceff"/><g fill="#284268"><path d="m319.9 124.707a65.107 65.107 0 0 0 -57.834 95.029l-118.251 118.309a19.842 19.842 0 0 0 4.358 31.306 17.623 17.623 0 0 0 4.56 1.84 19.944 19.944 0 0 0 16.081-2.717l29.259 29.273a6 6 0 0 0 8.489 0l19.483-19.494a6 6 0 0 0 0-8.483l-3.787-3.789 8-8.008 3.783 3.786a6 6 0 0 0 8.488 0l18.735-18.744a6 6 0 0 0 0-8.484l-29-29.016 57.767-57.8a65.128 65.128 0 1 0 29.869-123.008zm-83.651 201.771 12.289 12.3-10.251 10.252-3.783-3.786a6 6 0 0 0 -8.488 0l-16.487 16.495a6 6 0 0 0 0 8.484l3.787 3.789-11 11.006-12.289-12.295zm-25.086-16.828a6 6 0 0 0 8.488 8.484l4.129-4.134 3.986 3.987-46.221 46.245-3.985-3.988 12.4-12.406a6 6 0 0 0 -8.488-8.484l-18.172 18.185a7.78 7.78 0 0 1 -11-11.011l116.41-116.47a65.68 65.68 0 0 0 11 11zm108.737-66.65a53.148 53.148 0 1 1 53.118-53.148 53.193 53.193 0 0 1 -53.118 53.148z"/><path d="m319.9 163.682a26.173 26.173 0 1 0 26.164 26.172 26.2 26.2 0 0 0 -26.164-26.172zm0 40.345a14.173 14.173 0 1 1 14.164-14.173 14.184 14.184 0 0 1 -14.164 14.173z"/><path d="m280.24 462.163-18.24 18.311v-52.085a6 6 0 0 0 -12 0v52.085l-18.24-18.311a6 6 0 1 0 -8.5 8.468l28.491 28.6a6 6 0 0 0 8.5 0l28.491-28.6a6 6 0 1 0 -8.5-8.468z"/><path d="m231.76 49.837 18.24-18.311v52.085a6 6 0 0 0 12 0v-52.085l18.24 18.311a6 6 0 1 0 8.5-8.468l-28.491-28.6a6 6 0 0 0 -8.5 0l-28.491 28.6a6 6 0 1 0 8.5 8.468z"/><path d="m31.638 262h52.062a6 6 0 0 0 0-12h-52.062l18.309-18.258a6 6 0 1 0 -8.472-8.5l-28.588 28.509a6 6 0 0 0 0 8.5l28.588 28.506a6 6 0 1 0 8.472-8.5z"/><path d="m470.525 223.245a6 6 0 1 0 -8.472 8.5l18.309 18.255h-52.062a6 6 0 1 0 0 12h52.062l-18.309 18.258a6 6 0 1 0 8.472 8.5l28.588-28.506a6 6 0 0 0 0-8.5z"/><path d="m129.922 373.655-36.809 36.828.044-25.665a5.835 5.835 0 0 0 -5.99-5.818h-.006a5.841 5.841 0 0 0 -6 5.8l-.068 40.286a5.891 5.891 0 0 0 1.758 4.206 5.955 5.955 0 0 0 4.238 1.708h.01l40.361-.069a5.966 5.966 0 1 0 -.01-11.931h-.01l-25.846.009 36.816-36.853a6.007 6.007 0 0 0 -8.488-8.5z"/><path d="m377.834 140.1a5.983 5.983 0 0 0 4.244-1.758l36.809-36.828-.044 25.665a5.835 5.835 0 0 0 5.99 5.818h.006a5.841 5.841 0 0 0 6-5.8l.068-40.286a5.891 5.891 0 0 0 -1.758-4.206 5.955 5.955 0 0 0 -4.238-1.705h-.01l-40.361.069a5.966 5.966 0 1 0 .01 11.931h.01l25.846-.009-36.816 36.853a6.014 6.014 0 0 0 4.244 10.259z"/><path d="m87.157 133h.01a5.835 5.835 0 0 0 5.99-5.818l-.044-25.761 36.809 36.879a5.992 5.992 0 1 0 8.488-8.459l-36.816-36.85 25.846.009h.01a5.974 5.974 0 1 0 .01-11.948l-40.36-.052h-.01a6 6 0 0 0 -6 6.011l.068 40.191a5.84 5.84 0 0 0 5.999 5.798z"/><path d="m424.843 379h-.01a5.835 5.835 0 0 0 -5.99 5.818l.044 25.761-36.809-36.879a5.988 5.988 0 1 0 -8.488 8.448l36.816 36.864-25.846-.012h-.01a5.974 5.974 0 1 0 -.01 11.948l40.36.052h.01a6 6 0 0 0 6-6.011l-.068-40.191a5.84 5.84 0 0 0 -5.999-5.798z"/></g></svg>