<svg id="Icons" enable-background="new 0 0 512 512" height="512" viewBox="0 0 512 512" width="512" xmlns="http://www.w3.org/2000/svg"><g><circle cx="256" cy="256" fill="#53b976" r="256"/><g><g><path d="m512 256c0 141.38-114.62 256-256 256v-512c141.38 0 256 114.62 256 256z" fill="#ea792e"/><g><path d="m274.836 461.938c-2.492 0-4.619-1.9-4.852-4.431-.249-2.683 1.726-5.059 4.409-5.307 6.205-.573 12.45-1.453 18.56-2.614 2.648-.504 5.202 1.235 5.704 3.883.503 2.647-1.235 5.201-3.882 5.704-6.415 1.219-12.97 2.142-19.484 2.744-.153.014-.304.021-.455.021z" fill="#f39e22"/><path d="m236.468 461.851c-.156 0-.314-.008-.474-.023-6.519-.628-13.069-1.574-19.469-2.811-2.646-.511-4.376-3.07-3.865-5.716.512-2.645 3.069-4.377 5.716-3.865 6.099 1.178 12.341 2.079 18.554 2.678 2.682.259 4.647 2.642 4.388 5.324-.243 2.524-2.367 4.413-4.85 4.413z" fill="#9acdae"/><path d="m330.71 448.518c-1.938 0-3.772-1.163-4.534-3.073-.998-2.503.222-5.341 2.724-6.339 5.778-2.305 11.518-4.918 17.062-7.769 2.394-1.232 5.336-.289 6.569 2.108 1.232 2.396.289 5.338-2.108 6.57-5.819 2.992-11.844 5.735-17.908 8.154-.592.237-1.204.349-1.805.349z" fill="#f39e22"/><path d="m180.638 448.263c-.606 0-1.222-.114-1.818-.354-6.062-2.437-12.078-5.199-17.885-8.208-2.392-1.24-3.327-4.185-2.087-6.577 1.24-2.393 4.186-3.324 6.577-2.087 5.531 2.867 11.263 5.497 17.035 7.819 2.5 1.005 3.712 3.847 2.706 6.347-.765 1.904-2.595 3.06-4.528 3.06z" fill="#9acdae"/><path d="m380.508 419.841c-1.447 0-2.88-.641-3.842-1.869-1.663-2.121-1.291-5.188.829-6.85 4.901-3.842 9.676-7.964 14.194-12.254 1.953-1.855 5.041-1.775 6.897.179 1.855 1.954 1.775 5.042-.178 6.898-4.74 4.5-9.75 8.826-14.892 12.857-.893.7-1.955 1.039-3.008 1.039z" fill="#f39e22"/><path d="m130.94 419.422c-1.06 0-2.126-.343-3.022-1.051-5.125-4.048-10.118-8.394-14.843-12.915-1.947-1.863-2.014-4.951-.152-6.898 1.863-1.947 4.95-2.016 6.898-.152 4.503 4.309 9.261 8.45 14.145 12.308 2.115 1.67 2.474 4.738.804 6.853-.962 1.22-2.389 1.855-3.83 1.855z" fill="#9acdae"/><path d="m420.254 378.345c-.984 0-1.977-.297-2.838-.914-2.191-1.569-2.694-4.617-1.124-6.808 3.632-5.068 7.057-10.363 10.181-15.74 1.353-2.33 4.34-3.123 6.669-1.768 2.33 1.354 3.122 4.34 1.768 6.669-3.279 5.644-6.874 11.202-10.686 16.522-.953 1.331-2.451 2.039-3.97 2.039z" fill="#f39e22"/><path d="m91.355 377.771c-1.526 0-3.028-.714-3.98-2.053-3.79-5.331-7.365-10.902-10.628-16.558-1.346-2.334-.546-5.318 1.789-6.664 2.336-1.346 5.318-.546 6.664 1.789 3.109 5.39 6.517 10.699 10.129 15.78 1.561 2.196 1.046 5.242-1.149 6.803-.859.61-1.847.903-2.825.903z" fill="#9acdae"/><path d="m446.717 327.343c-.532 0-1.073-.088-1.604-.273-2.545-.886-3.89-3.667-3.004-6.212 2.043-5.872 3.828-11.92 5.305-17.976.638-2.617 3.27-4.223 5.896-3.584 2.618.638 4.222 3.278 3.584 5.896-1.549 6.357-3.424 12.707-5.57 18.872-.7 2.015-2.589 3.277-4.607 3.277z" fill="#f39e22"/><path d="m65.051 326.681c-2.024 0-3.916-1.269-4.612-3.289-2.131-6.176-3.987-12.531-5.518-18.889-.631-2.62.982-5.255 3.601-5.885 2.621-.629 5.255.982 5.886 3.601 1.458 6.056 3.227 12.109 5.255 17.991.879 2.547-.474 5.324-3.021 6.203-.526.182-1.063.268-1.591.268z" fill="#9acdae"/><path d="m457.666 270.941c-.077 0-.154-.002-.233-.005-2.692-.127-4.771-2.411-4.645-5.103l.022-.459c.152-3.153.229-6.371.229-9.535 0-3.045-.071-6.137-.212-9.189-.124-2.692 1.958-4.975 4.649-5.099 2.663-.145 4.974 1.956 5.099 4.649.147 3.202.222 6.445.222 9.639 0 3.319-.081 6.695-.241 10.031l-.021.421c-.122 2.613-2.28 4.65-4.869 4.65z" fill="#f39e22"/><path d="m54.285 270.243c-2.593 0-4.751-2.042-4.87-4.658-.141-3.117-.212-6.288-.212-9.423 0-3.319.081-6.695.241-10.031l.011-.241c.145-2.69 2.424-4.756 5.134-4.61 2.69.144 4.754 2.443 4.61 5.133l-.008.149c-.154 3.218-.232 6.436-.232 9.6 0 2.988.069 6.011.203 8.982.122 2.691-1.962 4.973-4.653 5.095-.074.003-.149.004-.224.004z" fill="#9acdae"/><path d="m452.282 213.313c-2.201 0-4.198-1.499-4.738-3.733-1.465-6.054-3.24-12.105-5.275-17.986-.881-2.546.468-5.325 3.014-6.207 2.552-.883 5.326.469 6.206 3.015 2.137 6.174 4.001 12.528 5.538 18.883.634 2.619-.976 5.256-3.594 5.89-.386.094-.772.138-1.151.138z" fill="#f39e22"/><path d="m59.798 213.049c-.381 0-.768-.045-1.154-.139-2.619-.636-4.226-3.273-3.592-5.892 1.542-6.354 3.41-12.705 5.551-18.878.883-2.547 3.661-3.892 6.208-3.011 2.545.883 3.894 3.663 3.01 6.208-2.039 5.88-3.817 11.93-5.286 17.982-.541 2.232-2.538 3.73-4.737 3.73z" fill="#9acdae"/><path d="m430.925 159.973c-1.686 0-3.325-.874-4.229-2.438-3.114-5.386-6.527-10.692-10.145-15.769-1.564-2.195-1.052-5.241 1.143-6.805 2.194-1.563 5.241-1.053 6.805 1.143 3.795 5.328 7.378 10.895 10.645 16.547 1.349 2.333.552 5.317-1.781 6.666-.769.445-1.61.656-2.438.656z" fill="#f39e22"/><path d="m81.196 159.73c-.83 0-1.672-.212-2.442-.659-2.331-1.352-3.126-4.337-1.773-6.668 3.275-5.65 6.865-11.213 10.669-16.533 1.568-2.192 4.615-2.696 6.807-1.131 2.192 1.567 2.699 4.615 1.131 6.807-3.624 5.069-7.045 10.368-10.166 15.751-.905 1.561-2.543 2.433-4.226 2.433z" fill="#9acdae"/><path d="m395.397 114.8c-1.211 0-2.424-.448-3.369-1.351-4.505-4.303-9.269-8.439-14.158-12.294-2.116-1.668-2.479-4.736-.811-6.852 1.67-2.117 4.737-2.479 6.852-.81 5.13 4.044 10.128 8.384 14.855 12.9 1.949 1.861 2.02 4.949.159 6.898-.957 1.004-2.242 1.509-3.528 1.509z" fill="#f39e22"/><path d="m116.798 114.62c-1.289 0-2.577-.508-3.535-1.516-1.857-1.952-1.781-5.04.172-6.898 4.734-4.505 9.74-8.836 14.879-12.873 2.119-1.665 5.186-1.297 6.851.822s1.297 5.186-.822 6.851c-4.898 3.848-9.669 7.976-14.181 12.269-.946.899-2.157 1.345-3.364 1.345z" fill="#9acdae"/><path d="m348.628 81.413c-.755 0-1.52-.175-2.237-.546-5.533-2.86-11.267-5.485-17.044-7.801-2.5-1.003-3.715-3.843-2.712-6.344 1.002-2.5 3.84-3.716 6.345-2.712 6.063 2.431 12.084 5.187 17.892 8.189 2.394 1.237 3.331 4.181 2.094 6.575-.866 1.677-2.572 2.639-4.338 2.639z" fill="#f39e22"/><path d="m163.623 81.302c-1.768 0-3.474-.964-4.341-2.644-1.235-2.395-.294-5.338 2.101-6.572 5.814-2.998 11.835-5.748 17.899-8.174 2.502-1.002 5.342.216 6.343 2.717 1.001 2.502-.216 5.341-2.718 6.342-5.776 2.311-11.513 4.931-17.052 7.787-.715.369-1.479.544-2.232.544z" fill="#9acdae"/><path d="m294.346 62.614c-.306 0-.616-.029-.926-.089-6.1-1.172-12.342-2.066-18.556-2.659-2.682-.256-4.649-2.638-4.394-5.32.256-2.682 2.641-4.644 5.32-4.394 6.519.622 13.07 1.56 19.471 2.79 2.646.508 4.38 3.066 3.871 5.712-.449 2.335-2.493 3.96-4.786 3.96z" fill="#f39e22"/><path d="m217.922 62.541c-2.295 0-4.34-1.626-4.786-3.964-.506-2.647 1.229-5.202 3.876-5.708 6.41-1.225 12.964-2.156 19.48-2.765 2.68-.253 5.062 1.72 5.313 4.403s-1.721 5.061-4.403 5.312c-6.207.58-12.45 1.466-18.556 2.634-.311.06-.62.088-.924.088z" fill="#9acdae"/></g><g><g><g><path d="m499.94 333.86c-1.95 6.13-4.13 12.16-6.53 18.08-1.21 3.01-2.48 5.98-3.81 8.92h-233.6v-27z" fill="#d48d77"/><path d="m499.94 333.86c-1.95 6.13-4.13 12.16-6.53 18.08h-237.41v-18.08z" fill="#eea47d"/><path d="m290.326 351.939h175.568c4.994 0 9.042-4.048 9.042-9.042s-4.048-9.042-9.042-9.042h-175.568c-4.994 0-9.042 4.048-9.042 9.042s4.048 9.042 9.042 9.042z" fill="#f5b890"/></g><g><path d="m489.6 360.86c-2.69 6-5.61 11.87-8.74 17.6-41.04 75.19-118.68 127.53-208.98 133.05-5.25.33-10.55.49-15.88.49v-151.14z" fill="#a26d5a"/><path d="m480.86 378.46c-41.04 75.19-118.68 127.53-208.98 133.05v-123.32c0-5.77 4.67-10.44 10.44-10.44h194.74c1.34 0 2.62.25 3.8.71z" fill="#c17e62"/><path d="m305.16 405.927h135.065c7.78 0 14.086-6.307 14.086-14.086 0-7.78-6.307-14.086-14.086-14.086h-135.065c-7.78 0-14.086 6.307-14.086 14.086-.001 7.779 6.306 14.086 14.086 14.086z" fill="#d48d77"/></g></g><g><g><path d="m512 256c-.004 15.54-1.358 30.584-4.06 45.66l-.01.01c-.66.13-1.325.204-2.01.2h-115.59c-.48 0-.95-.03-1.41-.1-2.895-.39-5.567-2.082-7.14-4.55-1.06-1.61-1.67-3.53-1.67-5.59v-75.41c-.005-1.739.464-3.475 1.31-4.99 1.75-3.187 5.255-5.244 8.91-5.23 2.58.188 113.783-.236 116.8.08 3.198 16.18 4.869 32.833 4.87 49.92z" fill="#c2aacf"/><path d="m507.94 301.66c.757-4.226 1.414-8.483 1.97-12.79-5.584-7.157-14.04-11.421-23.34-11.43h-76.88c-12.552-.048-23.815 8.035-27.91 19.78 1.827 2.878 5.146 4.668 8.55 4.65 34.98-.192 82.66.372 117.6-.2z" fill="#9175a7"/><path d="m512 256c-.006 15.403-1.331 30.317-3.99 45.26-4.039-1.428-6.769-5.31-6.77-9.63v-75.41c0-4.16 2.48-7.73 6.05-9.32 3.09 15.89 4.71 32.31 4.71 49.1z" fill="#a583bb"/><path d="m380.109 216.222v75.41c-.005 4.565 3.07 8.635 7.449 9.847 4.379-1.212 7.453-5.281 7.449-9.847v-75.41c0-4.693-3.158-8.64-7.449-9.832-4.291 1.192-7.449 5.14-7.449 9.832z" fill="#decee5"/><path d="m477.143 219.552h-58.04c-8.932-.302-8.961-13.207 0-13.519h58.04c8.932.301 8.96 13.206 0 13.519z" fill="#ebd9ea"/></g><path d="m438.511 288.94h19.223c3.403 0 6.162 2.759 6.162 6.163v25.385h-31.548v-25.385c.001-3.404 2.76-6.163 6.163-6.163z" fill="#a583bb"/><g><path d="m411.98 320.488h72.286c8.827.296 8.864 13.057 0 13.367h-72.286c-8.827-.296-8.864-13.056 0-13.367z" fill="#c2aacf"/><path d="m425.837 320.488h44.57c5.434.163 5.457 8.071 0 8.242h-44.57c-5.434-.162-5.457-8.071 0-8.242z" fill="#decee5"/></g></g></g><g><g><path d="m348.047 308.332v25.523h-62.227v-25.523c0-12.787 10.363-23.157 23.157-23.157h15.914c12.793 0 23.156 10.37 23.156 23.157z" fill="#528f66"/><path d="m348.047 308.332v25.523h-47.408v-25.523c0-12.787 10.363-23.157 23.157-23.157h1.095c12.793 0 23.156 10.37 23.156 23.157z" fill="#53b976"/></g><g><path d="m327.215 275.452v11.166c0 5.679-4.606 10.278-10.285 10.278-1.905 0-3.689-.519-5.217-1.422-3.028-1.784-5.061-5.082-5.061-8.856v-11.166z" fill="#f5b890"/><path d="m306.652 275.452v11.166c0 3.774 2.033 7.072 5.061 8.856v-11.934c3.575 1.493 7.506 2.317 11.628 2.317 1.315 0 2.609-.085 3.874-.242v-10.164h-20.563z" fill="#d48d77"/></g><g><g><path d="m353.591 208.207v42.02c0 8.351-3.383 15.914-8.856 21.387-3.952 3.945-8.984 6.802-14.613 8.096-2.182.498-4.449.76-6.781.76-16.703 0-30.25-13.54-30.25-30.243v-42.02c0-9.155 7.427-16.575 16.582-16.575h27.343c1.606 0 3.156.227 4.627.661 6.901 1.998 11.948 8.366 11.948 15.914z" fill="#d48d77"/><path d="m353.591 208.207v42.02c0 8.351-3.383 15.914-8.856 21.387-3.952 3.945-8.984 6.802-14.613 8.096-13.448-3.078-23.469-15.111-23.469-29.482v-16.078c0-20.918 15.097-38.303 34.991-41.857 6.9 1.998 11.947 8.366 11.947 15.914z" fill="#f5b890"/><g fill="#eea47d"><path d="m331.895 236.052h-6.167c-2.533 0-4.586 2.053-4.586 4.586s2.053 4.586 4.586 4.586h6.167c2.533 0 4.586-2.053 4.586-4.586s-2.053-4.586-4.586-4.586z"/><path d="m323.342 191.632h7.736v47.534h-7.736z"/></g><g fill="#334353"><path d="m315.133 218.114c-2.315 0-4.191 1.876-4.191 4.191v7.315c0 2.315 1.876 4.191 4.191 4.191s4.191-1.876 4.191-4.191v-7.315c0-2.314-1.876-4.191-4.191-4.191z"/><path d="m339.287 218.114c-2.315 0-4.191 1.876-4.191 4.191v7.315c0 2.315 1.876 4.191 4.191 4.191s4.191-1.876 4.191-4.191v-7.315c0-2.314-1.876-4.191-4.191-4.191z"/></g><g><path d="m324.437 262.126c-7.26 0-13.167-5.906-13.167-13.166 0-1.374 1.114-2.488 2.488-2.488s2.488 1.114 2.488 2.488c0 4.517 3.675 8.191 8.191 8.191 1.374 0 2.488 1.114 2.488 2.488 0 1.373-1.114 2.487-2.488 2.487z" fill="#c17e62"/></g></g><g><path d="m357.784 211.232c0-10.386-4.213-19.792-11.018-26.597-4.854-4.854-11.036-8.391-17.948-10.021-2.779-.65-5.674-.998-8.649-.998-20.78 0-37.615 16.835-37.615 37.615l.067 41.151c.017 10.621 8.632 19.222 19.253 19.222-5.446-5.471-8.814-13.012-8.814-21.341v-34.845h29.574c7.118 0 12.888-5.77 12.888-12.888 0 7.118 5.77 12.888 12.888 12.888h5.177v34.845c0 8.328-3.363 15.87-8.807 21.341 7.181 0 13.002-5.821 13.002-13.002v-47.37z" fill="#daab42"/><path d="m357.784 211.232c0-10.386-4.213-19.792-11.018-26.597-4.854-4.854-11.036-8.391-17.948-10.021-16.603 3.91-28.966 18.812-28.966 36.617v4.186h22.783c7.118 0 12.888-5.77 12.888-12.888 0 7.118 5.77 12.888 12.888 12.888h5.177v34.845c0 8.328-3.363 15.87-8.807 21.341 7.181 0 13.002-5.821 13.002-13.002v-47.369z" fill="#f9c744"/></g><g><g><path d="m287.996 241.917h5.098v-15.954h-5.098c-4.406 0-7.977 3.571-7.977 7.977 0 4.405 3.571 7.977 7.977 7.977z" fill="#d48d77"/><path d="m287.738 237.363h5.356v-6.846h-5.356c-1.891 0-3.423 1.533-3.423 3.423s1.533 3.423 3.423 3.423z" fill="#c17e62"/></g><g><path d="m355.823 225.963h-2.233v15.954h2.233c4.406 0 7.977-3.571 7.977-7.977s-3.572-7.977-7.977-7.977z" fill="#d48d77"/><path d="m356.08 230.517h-2.49v6.846h2.49c1.891 0 3.423-1.533 3.423-3.423 0-1.891-1.532-3.423-3.423-3.423z" fill="#c17e62"/></g></g></g><g><path d="m291.098 321.392h20.172v12.463h-20.172z" fill="#d48d77"/><path d="m300.639 321.392h10.631v12.463h-10.631z" fill="#f5b890"/></g></g></g><g><g><g><path d="m256 333.86v27h-233.6c-1.33-2.94-2.6-5.91-3.81-8.92-2.4-5.92-4.58-11.95-6.53-18.08z" fill="#d48d77"/><path d="m256 333.86v18.08h-237.41c-2.4-5.92-4.58-11.95-6.53-18.08z" fill="#eea47d"/><path d="m221.674 351.939h-175.568c-4.994 0-9.042-4.048-9.042-9.042s4.048-9.042 9.042-9.042h175.568c4.994 0 9.042 4.048 9.042 9.042s-4.048 9.042-9.042 9.042z" fill="#f5b890"/></g><g><path d="m256 360.86v151.14c-5.33 0-10.63-.16-15.88-.49-90.3-5.52-167.94-57.86-208.98-133.05-3.13-5.73-6.05-11.6-8.74-17.6z" fill="#a26d5a"/><path d="m240.12 388.19v123.32c-90.3-5.52-167.94-57.86-208.98-133.05 1.18-.46 2.46-.71 3.8-.71h194.74c5.77 0 10.44 4.67 10.44 10.44z" fill="#c17e62"/><path d="m206.84 405.927h-135.065c-7.78 0-14.086-6.307-14.086-14.086 0-7.78 6.307-14.086 14.086-14.086h135.065c7.78 0 14.086 6.307 14.086 14.086.001 7.779-6.306 14.086-14.086 14.086z" fill="#d48d77"/></g></g><g><g><path d="m160.397 308.449v25.407h61.942v-25.407c0-12.728-10.316-23.051-23.051-23.051h-15.841c-12.735 0-23.05 10.323-23.05 23.051z" fill="#dd5e26"/><path d="m160.397 308.449v25.407h47.191v-25.407c0-12.728-10.316-23.051-23.051-23.051h-1.09c-12.735 0-23.05 10.323-23.05 23.051z" fill="#ea792e"/></g><g><path d="m181.134 275.719v11.115c0 5.653 4.585 10.231 10.238 10.231 1.896 0 3.672-.516 5.193-1.415 3.014-1.776 5.038-5.059 5.038-8.816v-11.115z" fill="#f5b890"/><path d="m201.602 275.719v11.115c0 3.757-2.024 7.04-5.038 8.816v-11.879c-3.559 1.486-7.471 2.306-11.575 2.306-1.309 0-2.597-.085-3.856-.241v-10.117z" fill="#d48d77"/></g><g><g><g><path d="m220.173 242.337h-5.075v-15.881h5.075c4.385 0 7.941 3.555 7.941 7.941 0 4.385-3.555 7.94-7.941 7.94z" fill="#d48d77"/><path d="m220.429 237.804h-5.331v-6.815h5.331c1.882 0 3.407 1.526 3.407 3.407.001 1.883-1.525 3.408-3.407 3.408z" fill="#c17e62"/></g><g><path d="m152.656 226.456h2.223v15.881h-2.223c-4.385 0-7.941-3.555-7.941-7.941.001-4.385 3.556-7.94 7.941-7.94z" fill="#d48d77"/><path d="m152.4 230.989h2.479v6.815h-2.479c-1.882 0-3.407-1.526-3.407-3.407 0-1.882 1.525-3.408 3.407-3.408z" fill="#c17e62"/></g></g><g><path d="m154.878 208.782v41.828c0 8.313 3.368 15.841 8.816 21.289 3.934 3.927 8.943 6.771 14.546 8.059 2.172.495 4.429.757 6.75.757 16.626 0 30.111-13.478 30.111-30.104v-41.828c0-9.113-7.393-16.499-16.506-16.499h-27.218c-1.599 0-3.141.226-4.606.658-6.87 1.987-11.893 8.326-11.893 15.84z" fill="#d48d77"/><path d="m154.878 208.782v41.828c0 8.313 3.368 15.841 8.816 21.289 3.934 3.927 8.943 6.771 14.546 8.059 13.386-3.064 23.362-15.042 23.362-29.347v-16.004c0-20.822-15.028-38.128-34.831-41.665-6.87 1.987-11.893 8.326-11.893 15.84z" fill="#f5b890"/><g fill="#eea47d"><path d="m176.475 236.5h6.138c2.521 0 4.565 2.044 4.565 4.565s-2.044 4.565-4.565 4.565h-6.138c-2.521 0-4.565-2.044-4.565-4.565 0-2.522 2.044-4.565 4.565-4.565z"/><path d="m177.288 192.282h7.701v47.316h-7.701z" transform="matrix(-1 0 0 -1 362.276 431.881)"/></g><g fill="#334353"><path d="m193.16 218.644c2.304 0 4.172 1.868 4.172 4.172v7.281c0 2.304-1.868 4.172-4.172 4.172s-4.172-1.868-4.172-4.172v-7.281c0-2.304 1.868-4.172 4.172-4.172z"/><path d="m169.116 218.644c2.304 0 4.172 1.868 4.172 4.172v7.281c0 2.304-1.868 4.172-4.172 4.172s-4.172-1.868-4.172-4.172v-7.281c0-2.304 1.868-4.172 4.172-4.172z"/></g><g><path d="m183.898 262.454c7.227 0 13.107-5.879 13.107-13.106 0-1.368-1.109-2.476-2.476-2.476-1.368 0-2.476 1.109-2.476 2.476 0 4.496-3.658 8.154-8.154 8.154-1.368 0-2.476 1.109-2.476 2.476-.001 1.367 1.108 2.476 2.475 2.476z" fill="#c17e62"/></g></g><g><path d="m215.098 242.337h5.075c.887 0 1.738-.152 2.534-.42v2.117c0 4.211-3.414 7.624-7.625 7.624z" fill="#3e4e60"/><path d="m215.099 226.456h5.075c.845 0 1.643.167 2.407.412l.128.007v-20.777c0-9.641-7.815-17.456-17.456-17.456h-20.263v4.36c0 5.69 4.613 10.303 10.303 10.303 3.485 0 6.31 2.825 6.31 6.31v3.704c0 7.256 5.882 13.138 13.138 13.138l.357.019v-.02z" fill="#3e4e60"/><path d="m151.356 196.912c0 2.167-1.757 3.925-3.925 3.925-.933 0-1.836-.333-2.547-.938l-4.691-4.001c-1.669-1.423-4.239-.237-4.239 1.956v5.534c0 7.746 6.279 14.025 14.025 14.025 3.219 0 6.307-1.279 8.583-3.555l4.976-4.976c3.571-3.571 8.414-5.577 13.464-5.577h21.386c4.049 0 7.332-3.282 7.332-7.332 0-4.049-3.282-7.332-7.332-7.332h-38.763c-4.566 0-8.269 3.703-8.269 8.271z" fill="#3f5d77"/></g></g><g><path d="m197.005 321.449h20.08v12.406h-20.08z" fill="#d48d77" transform="matrix(-1 0 0 -1 414.09 655.305)"/><path d="m197.005 321.449h10.583v12.406h-10.583z" fill="#f5b890" transform="matrix(-1 0 0 -1 404.592 655.305)"/></g></g><g><g><path d="m131.89 216.22v75.41c.003 3.922-2.26 7.491-5.71 9.19-1.404.685-2.941 1.051-4.51 1.05h-115.59c-.685.003-1.352-.069-2.01-.2l-.01-.01c-5.677-31.173-5.368-64.704.81-95.58 1.357-.26 115.42.019 116.8-.08.97 0 1.89.14 2.769.39 4.323 1.147 7.501 5.37 7.451 9.83z" fill="#c2aacf"/><path d="m4.07 301.67c34.952.571 82.615.008 117.6.2 3.403.018 6.724-1.773 8.55-4.65-4.096-11.745-15.358-19.827-27.91-19.78h-76.88c-9.3.009-17.757 4.273-23.34 11.43.556 4.307 1.213 8.564 1.97 12.79z" fill="#9175a7"/><path d="m10.76 216.22v75.41c0 4.32-2.731 8.203-6.77 9.63-5.557-30.761-5.276-63.886.72-94.36 3.57 1.59 6.05 5.16 6.05 9.32z" fill="#a583bb"/><path d="m131.891 216.222v75.41c.005 4.565-3.07 8.635-7.449 9.847-4.379-1.212-7.453-5.281-7.449-9.847v-75.41c0-4.693 3.158-8.64 7.449-9.832 4.291 1.192 7.449 5.14 7.449 9.832z" fill="#decee5"/><path d="m34.857 219.91h58.04c8.932-.302 8.961-13.207 0-13.519h-58.04c-8.932.301-8.96 13.206 0 13.519z" fill="#ebd9ea"/></g><path d="m73.489 288.94h-19.223c-3.403 0-6.162 2.759-6.162 6.163v25.385h31.548v-25.385c-.001-3.404-2.76-6.163-6.163-6.163z" fill="#a583bb"/><g><path d="m100.02 320.488h-72.286c-8.827.296-8.864 13.057 0 13.367h72.286c8.827-.296 8.864-13.056 0-13.367z" fill="#c2aacf"/><path d="m86.163 320.488h-44.57c-5.434.163-5.457 8.071 0 8.242h44.57c5.434-.162 5.457-8.071 0-8.242z" fill="#decee5"/></g></g></g><g><g><g><path d="m307.063 72.788v75.77c0 3.031-1.828 5.63-4.44 6.764h-.003c-.896.387-1.884.603-2.923.603h-87.393c-1.039 0-2.027-.216-2.923-.603-2.613-1.13-4.444-3.732-4.444-6.764v-75.77l51.064-51.219z" fill="#fbcb74"/><path d="m307.063 72.788v75.77c0 3.031-1.828 5.63-4.44 6.764h-.003c-2.609-1.134-4.44-3.732-4.44-6.764v-75.77c0-3.028 1.831-5.626 4.44-6.764h.003c2.612 1.134 4.44 3.737 4.44 6.764z" fill="#faefdc"/><path d="m213.82 72.788v75.77c0 3.031-1.828 5.633-4.44 6.764-2.613-1.13-4.444-3.732-4.444-6.764v-75.77c0-3.028 1.831-5.63 4.444-6.764 2.612 1.134 4.44 3.737 4.44 6.764z" fill="#deb36f"/><path d="m287.076 68.852c0 2.453-1.989 4.442-4.442 4.442h-53.27c-2.453 0-4.442-1.989-4.442-4.442s1.989-4.442 4.442-4.442h53.27c2.454 0 4.442 1.989 4.442 4.442z" fill="#fbd9a3"/></g><g><path d="m275.993 134.321h-39.985c-4.596 0-8.322-3.726-8.322-8.322v-39.985c0-4.596 3.726-8.322 8.322-8.322h39.985c4.596 0 8.322 3.726 8.322 8.322v39.985c0 4.596-3.726 8.322-8.322 8.322z" fill="#c4983d"/><g><g><path d="m254.35 87.273v12.379c0 .026 0 .059-.007.086-.04 2.56-2.125 4.619-4.698 4.619h-12.379c-2.6 0-4.711-2.105-4.711-4.705v-12.379c0-2.573 2.065-4.665 4.626-4.705.026-.007.059-.007.086-.007h12.379c2.599.001 4.704 2.112 4.704 4.712z" fill="#6052a3"/><path d="m254.35 87.273v12.379c0 .026 0 .059-.007.086-.026.007-.059.007-.086.007h-5.978c-6.137 0-11.105-4.975-11.105-11.105v-5.985c0-.026 0-.059.007-.086.026-.007.059-.007.086-.007h12.379c2.599 0 4.704 2.111 4.704 4.711z" fill="#57409b"/><path d="m248.621 97.619c-1.579 0-2.858-1.28-2.858-2.858v-7.062c0-1.579 1.28-2.858 2.858-2.858 1.579 0 2.858 1.28 2.858 2.858v7.062c0 1.578-1.28 2.858-2.858 2.858z" fill="#9175a7"/></g><g><path d="m279.445 87.273v12.379c0 .026 0 .059-.007.086-.04 2.56-2.125 4.619-4.698 4.619h-12.379c-2.6 0-4.711-2.105-4.711-4.705v-12.379c0-2.573 2.065-4.665 4.626-4.705.026-.007.059-.007.086-.007h12.379c2.599.001 4.704 2.112 4.704 4.712z" fill="#6052a3"/><path d="m279.445 87.273v12.379c0 .026 0 .059-.007.086-.026.007-.059.007-.086.007h-5.978c-6.137 0-11.105-4.975-11.105-11.105v-5.985c0-.026 0-.059.007-.086.026-.007.059-.007.086-.007h12.379c2.599 0 4.704 2.111 4.704 4.711z" fill="#57409b"/><path d="m273.715 97.619c-1.579 0-2.858-1.28-2.858-2.858v-7.062c0-1.579 1.28-2.858 2.858-2.858 1.579 0 2.858 1.28 2.858 2.858v7.062c.001 1.578-1.279 2.858-2.858 2.858z" fill="#9175a7"/></g><g><path d="m254.35 112.367v12.379c0 .026 0 .059-.007.086-.04 2.56-2.125 4.619-4.698 4.619h-12.379c-2.6 0-4.711-2.105-4.711-4.705v-12.379c0-2.573 2.065-4.665 4.626-4.705.026-.007.059-.007.086-.007h12.379c2.599.001 4.704 2.113 4.704 4.712z" fill="#6052a3"/><path d="m254.35 112.367v12.379c0 .026 0 .059-.007.086-.026.007-.059.007-.086.007h-5.978c-6.137 0-11.105-4.975-11.105-11.105v-5.985c0-.026 0-.059.007-.086.026-.007.059-.007.086-.007h12.379c2.599 0 4.704 2.112 4.704 4.711z" fill="#57409b"/><path d="m248.621 122.713c-1.579 0-2.858-1.28-2.858-2.858v-7.062c0-1.579 1.28-2.858 2.858-2.858 1.579 0 2.858 1.28 2.858 2.858v7.062c0 1.578-1.28 2.858-2.858 2.858z" fill="#9175a7"/></g><g><path d="m279.445 112.367v12.379c0 .026 0 .059-.007.086-.04 2.56-2.125 4.619-4.698 4.619h-12.379c-2.6 0-4.711-2.105-4.711-4.705v-12.379c0-2.573 2.065-4.665 4.626-4.705.026-.007.059-.007.086-.007h12.379c2.599.001 4.704 2.113 4.704 4.712z" fill="#6052a3"/><path d="m279.445 112.367v12.379c0 .026 0 .059-.007.086-.026.007-.059.007-.086.007h-5.978c-6.137 0-11.105-4.975-11.105-11.105v-5.985c0-.026 0-.059.007-.086.026-.007.059-.007.086-.007h12.379c2.599 0 4.704 2.112 4.704 4.711z" fill="#57409b"/><path d="m273.715 122.713c-1.579 0-2.858-1.28-2.858-2.858v-7.062c0-1.579 1.28-2.858 2.858-2.858 1.579 0 2.858 1.28 2.858 2.858v7.062c.001 1.578-1.279 2.858-2.858 2.858z" fill="#9175a7"/></g></g></g><g><path d="m186.321 83.877c0 1.58.603 3.157 1.807 4.36 2.421 2.421 6.352 2.407 8.755-.031l54.726-55.546c2.414-2.452 6.369-2.452 8.783 0l54.726 55.546c1.207 1.224 2.801 1.838 4.392 1.838 1.58 0 3.16-.603 4.364-1.807 2.034-2.034 2.348-5.135.949-7.5-.258-.436-.576-.848-.949-1.221l-63.523-63.52c-2.407-2.41-6.314-2.407-8.72 0l-63.503 63.52c-.373.373-.691.785-.949 1.221-.572.967-.858 2.052-.858 3.14z" fill="#e9465e"/><path d="m187.179 80.738c.258.436.576.848.949 1.221v.003c2.421 2.421 6.352 2.403 8.755-.035l54.726-55.546c2.414-2.452 6.369-2.452 8.783 0l54.726 55.546c1.207 1.224 2.801 1.838 4.395 1.838 1.58 0 3.157-.6 4.36-1.803.377-.377.691-.788.949-1.224-.258-.436-.576-.848-.949-1.221l-63.523-63.52c-2.407-2.41-6.314-2.407-8.72 0l-63.503 63.52c-.373.373-.69.785-.948 1.221z" fill="#ee6781"/><g fill="#f789a1"><path d="m299.299 60.595.18-.177c1.472-1.445 1.483-3.812.025-5.27l-23.94-23.938c-1.44-1.44-3.77-1.45-5.223-.023-1.463 1.437-1.482 3.789-.043 5.249l23.759 24.115c1.437 1.457 3.782 1.477 5.242.044z"/><path d="m212.699 60.594-.176-.173c-1.476-1.446-1.488-3.819-.027-5.28l23.925-23.931c1.44-1.441 3.772-1.453 5.227-.028 1.469 1.439 1.49 3.797.047 5.262l-23.748 24.104c-1.438 1.46-3.785 1.48-5.248.046z"/></g></g></g><g><path d="m213.93 24.522v29.186l11.717-11.72v-17.466c0-1.632-1.322-2.955-2.951-2.955h-5.815c-1.629.001-2.951 1.323-2.951 2.955z" fill="#c0405c"/><path d="m213.93 24.522v24.853l4.72-4.723c1.709-1.706 2.665-4.022 2.665-6.432v-13.698c0-1.632-1.322-2.955-2.951-2.955h-1.482c-1.63.001-2.952 1.323-2.952 2.955z" fill="#e9465e"/></g></g></g></g></svg>