<svg id="Layer_1" height="512" viewBox="0 0 512 512" width="512" xmlns="http://www.w3.org/2000/svg" data-name="Layer 1"><g fill="#4a5160"><path d="m330.54 142.82v33.66a12.252 12.252 0 0 0 -4.73-.95h-3.28a30.774 30.774 0 0 0 -29.78-30.71 112.33 112.33 0 0 1 -13.38-1.27c-1.28-.2-2.54-.45-3.79-.73z"/><path d="m338.99 230.75-6.6-32.585a12.182 12.182 0 0 1 -6.58 1.835h-3.28l-5.19 24.315a61.762 61.762 0 0 1 -21.5 35.188l.165.127.215 24c3.82 2.1 22.642.1 26.562 1.98 13.245-12.15 20.098-35.68 16.208-54.86z"/><path d="m196.52 224.315-5.19-24.315h-3.29a12.111 12.111 0 0 1 -7.23-2.285l-6.7 33c-3.94 19.409 3.18 43.178 16.75 55.308 2.25-1.01 22.6 7.58 24.807 6.47l.673-34.493a61.761 61.761 0 0 1 -19.82-33.685z"/><path d="m182.9 142.82h30.78a35.078 35.078 0 0 0 -22.35 32.71h-3.29a12.084 12.084 0 0 0 -5.14 1.13z"/></g><path d="m269.32 32.51h-26.64a64.085 64.085 0 0 0 -64.11 64.07v23.16h154.86v-23.16a64.085 64.085 0 0 0 -64.11-64.07z" fill="#fcca3d"/><path d="m334.39 119.74h-156.78a11.962 11.962 0 0 0 -1.65 23.81l159.39.08a11.964 11.964 0 0 0 -.96-23.89z" fill="#edb740"/><path d="m265.28 22.84a13.131 13.131 0 0 0 -22.41 9.28l.02 56.15h26.22l.02-56.15a13.083 13.083 0 0 0 -3.85-9.28z" fill="#fadf4a"/><path d="m269.11 83.27a23.387 23.387 0 1 1 -13.11-4.02 23.35 23.35 0 0 1 13.11 4.02z" fill="#fb6771"/><path d="m360.71 299.45c-1.29-.31-2.475-.63-3.755-.97l.045.18-21.66-7 .1-.26a225.279 225.279 0 0 1 -25.065-11.79l-15.375-8.34-78 2.216-18.75 9.337a192.32 192.32 0 0 1 -21.57 9.219l-21.68 6.444c-1 .34-2.535.657-3.835.967a76.038 76.038 0 0 0 -58.165 73.987v121.56h326v-121.56a76.152 76.152 0 0 0 -58.29-73.99z" fill="#4689d3"/><path d="m356.8 298.48-.05.18v78.72h-21.41v-85.72l.1-.26a186.153 186.153 0 0 0 21.36 7.08z" fill="#56568c"/><path d="m356.75 377h-201.5a4.559 4.559 0 0 0 -4.25 4.28v113.72h210v-113.72a4.559 4.559 0 0 0 -4.25-4.28z" fill="#67679b"/><path d="m217 273.486-18.75 9.337a192.32 192.32 0 0 1 -21.57 9.219l-21.68 6.444c-1 .34-2.535.657-3.835.967a76.038 76.038 0 0 0 -58.165 73.987v121.56h30v-121.56a76.038 76.038 0 0 1 58.165-73.987c1.3-.31 2.835-.627 3.835-.967l21.68-6.444a192.32 192.32 0 0 0 21.57-9.219l18.75-9.337z" fill="#407cb2"/><path d="m176.66 377.08v.3h-21.41v-78.9c7.17-1.83 14.25-3.96 21.19-6.45l.22.6z" fill="#56568c"/><path d="m295.835 259.52-79.835-1.52v38.52c11 12.28 25.335 18.42 40 18.42s29-6.14 40-18.42v-36.89z" fill="#efc597"/><path d="m330.54 176.48a12.31 12.31 0 0 1 3.97 20.06 12.447 12.447 0 0 1 -2.12 1.7 12.24 12.24 0 0 1 -6.58 1.91h-3.28l-5.19 24.24a61.772 61.772 0 0 1 -99.25 35.12c-.59-.48-1.18-.97-1.75-1.47a61.671 61.671 0 0 1 -19.82-33.65l-5.19-24.24h-3.29a12.311 12.311 0 0 1 -8.7-21.01 12.313 12.313 0 0 1 3.56-2.48 12.084 12.084 0 0 1 5.14-1.13h3.29a35.078 35.078 0 0 1 22.35-32.71h61.9c1.25.28 2.51.53 3.79.73a112.33 112.33 0 0 0 13.38 1.27 30.774 30.774 0 0 1 29.78 30.71h3.28a12.252 12.252 0 0 1 4.73.95z" fill="#ffd8b7"/><path d="m246.34 258.04q-.735-.641-1.45-1.3a58.139 58.139 0 0 1 -18.2-43.546l.854-57.61a34.877 34.877 0 0 1 16.14-12.76h-30a35.078 35.078 0 0 0 -22.35 32.71h-3.29a12.084 12.084 0 0 0 -5.14 1.13 12.3 12.3 0 0 0 -2.09 21.13 12.171 12.171 0 0 0 7.23 2.36h3.29l5.19 24.24a61.671 61.671 0 0 0 19.82 33.65c.57.5 1.16.99 1.75 1.47a61.719 61.719 0 0 0 53.837 11.886 61.758 61.758 0 0 1 -23.841-11.89c-.59-.48-1.18-.97-1.75-1.47z" fill="#e2bda1"/><path d="m362.829 293.827a181.266 181.266 0 0 1 -30.193-10.253c10.891-14.275 15.969-35.608 12.233-54.014l-5.894-29.035a18.441 18.441 0 0 0 5.368-12.685c0-6.086-3.343-11.473-7.343-14.8v-24.29a18.068 18.068 0 0 0 16.376-18 17.841 17.841 0 0 0 -13.376-17.356v-18.094a70.692 70.692 0 0 0 -65.618-70.466 19.145 19.145 0 0 0 -36.785 0 70.674 70.674 0 0 0 -65.597 70.466v18.1a17.741 17.741 0 0 0 -13.146 17.44 18.107 18.107 0 0 0 18 18.166h.146v24.336c-4 3.351-7.207 8.6-7.207 14.5a18.2 18.2 0 0 0 4.5 12.01l-6.043 29.71c-3.766 18.548 1.391 39.935 12.436 54.257a219.969 219.969 0 0 1 -31.6 10.01c-37.324 8.947-63.086 42.053-63.086 80.506v120.665c0 3.313 2.245 6 5.559 6h328.882c3.314 0 5.559-2.687 5.559-6v-120.665a82.291 82.291 0 0 0 -63.171-80.508zm-20.829 6.302c3 1.125 7 2.155 10 3.089v68.782h-10zm-20.536-21.821q-3.729-1.884-7.469-3.933l-12-6.709v-5.728a67.622 67.622 0 0 0 21.2-36.295l4.205-19.563c.152-.013.3-.044.45-.061l5.263 25.928c3.22 15.881-1.741 35-11.649 46.361zm-121.334 9.9 9.87-5.07v13.38a6.18 6.18 0 0 0 1.593 3.877 58.3 58.3 0 0 0 88.847 0 6.149 6.149 0 0 0 1.56-3.877v-15.16l6.271 3.529c7.286 4.013 14.729 7.547 21.729 10.613v76.5h-148v-75.736c6-2.437 12.264-5.105 18.13-8.053zm-8.805-106.208a6.125 6.125 0 0 0 6-6.144c0-11.6 7.027-22.856 17.577-26.856h60.049a22.991 22.991 0 0 1 3.486.568 117.582 117.582 0 0 0 14.1 1.29 24.908 24.908 0 0 1 24 24.93 6.185 6.185 0 0 0 6 6.212h3.281a6.007 6.007 0 1 1 0 12h-3.288a6.066 6.066 0 0 0 -5.866 4.817l-5.193 24.275a55.773 55.773 0 0 1 -109.086.028l-5.193-24.308a6.063 6.063 0 0 0 -5.867-4.812h-3.28a6.007 6.007 0 1 1 0-12zm-2.325-23.14v-9.86h6.249c-2.578 3-4.249 6.222-6.249 9.86zm128.028-9.86h7.972v9.829c-2-3.759-4.927-6.829-7.972-9.829zm-27.028 121.528v23.717a46.847 46.847 0 0 1 -68 .154v-24.967a67.062 67.062 0 0 0 68 1.1zm-15-233.6a58.571 58.571 0 0 1 53 58.372v17.7h-44.691a32.059 32.059 0 0 0 2.129-11.479c0-8.945-3.438-17.135-10.438-22.558zm-26-6.679a7 7 0 1 1 14 0v42.464a27.583 27.583 0 0 0 -14 0zm7 53.566a17.546 17.546 0 1 1 -17.566 17.546 17.576 17.576 0 0 1 17.566-17.551zm-72 11.485a58.571 58.571 0 0 1 53-58.374v42.04c-7 5.423-10.438 13.613-10.438 22.558a32.059 32.059 0 0 0 2.129 11.476h-44.691zm-7.144 41.7a6 6 0 1 1 0-12h61.013a29.487 29.487 0 0 0 36.262 0h61.013a6 6 0 1 1 0 12zm3.144 94.948 5.282-26.027c.393.06.784.125 1.183.159l4.191 19.563a67.558 67.558 0 0 0 19.344 34.585v9.484l-15.309 7.777c-.864.434-1.74.851-2.613 1.273-10.048-11.304-15.299-30.975-12.078-46.814zm-20 71.341a97.449 97.449 0 0 0 10-2.837v71.548h-10zm196 185.711h-200v-50a6 6 0 0 0 -12 0v50h-46v-114.665c0-31.674 20-59.1 50-67.906v67.271a11.274 11.274 0 0 0 -4 8.06v15.24a6 6 0 0 0 12 0v-13h200zm58 0h-46v-107.245a11.258 11.258 0 0 0 -4-8.073v-67.253c30 8.809 50 36.232 50 67.906z" fill="#284268"/><path d="m115 407.425a6 6 0 0 0 -6 6v50.756a6 6 0 1 0 12 0v-50.756a6 6 0 0 0 -6-6z" fill="#284268"/><path d="m115 383.857a6 6 0 0 0 -6 6v4.884a6 6 0 0 0 12 0v-4.884a6 6 0 0 0 -6-6z" fill="#284268"/></svg>