<svg id="Icons" enable-background="new 0 0 512 512" height="512" viewBox="0 0 512 512" width="512" xmlns="http://www.w3.org/2000/svg"><g><circle cx="256" cy="256" fill="#22bce0" r="256"/><g><path d="m271.198 470.396c-2.6 0-4.794-2.011-4.982-4.644-.196-2.754 1.877-5.147 4.631-5.343 6.463-.461 12.976-1.239 19.356-2.313 2.733-.458 5.303 1.378 5.761 4.101s-1.377 5.302-4.101 5.761c-6.693 1.126-13.525 1.943-20.304 2.427-.121.007-.241.011-.361.011zm-39.883-.928c-.195 0-.392-.011-.59-.035-6.757-.795-13.542-1.92-20.168-3.345-2.7-.581-4.417-3.24-3.837-5.939.581-2.699 3.236-4.419 5.939-3.837 6.317 1.358 12.789 2.432 19.233 3.189 2.743.323 4.704 2.807 4.382 5.55-.298 2.545-2.459 4.417-4.959 4.417zm98.251-11.804c-2.025 0-3.931-1.239-4.683-3.247-.969-2.586.342-5.468 2.927-6.437 6.06-2.271 12.086-4.863 17.911-7.706 2.481-1.21 5.475-.182 6.687 2.301 1.211 2.482.181 5.476-2.301 6.687-6.11 2.981-12.431 5.701-18.787 8.083-.578.216-1.172.319-1.754.319zm-155.987-3.537c-.654 0-1.319-.129-1.959-.402-6.245-2.665-12.437-5.665-18.405-8.919-2.424-1.322-3.318-4.359-1.997-6.783 1.323-2.424 4.36-3.317 6.784-1.996 5.688 3.101 11.59 5.961 17.542 8.5 2.54 1.084 3.721 4.021 2.637 6.561-.811 1.9-2.659 3.039-4.602 3.039zm208.377-25.186c-1.52 0-3.02-.69-4.002-1.999-1.658-2.208-1.211-5.343.997-7 5.18-3.888 10.235-8.071 15.025-12.432 2.043-1.859 5.205-1.711 7.063.332 1.859 2.042 1.71 5.204-.332 7.063-5.022 4.573-10.323 8.958-15.754 13.035-.899.675-1.953 1.001-2.997 1.001zm-259.404-5.873c-1.12 0-2.248-.375-3.179-1.143-5.239-4.322-10.332-8.946-15.139-13.743-1.955-1.951-1.958-5.117-.007-7.071s5.117-1.958 7.071-.007c4.584 4.575 9.442 8.985 14.438 13.107 2.13 1.757 2.432 4.909.675 7.039-.988 1.198-2.418 1.818-3.859 1.818zm301.619-36.393c-1.042 0-2.094-.325-2.993-.998-2.21-1.655-2.661-4.789-1.006-6.999 3.887-5.191 7.563-10.623 10.929-16.145 1.437-2.358 4.514-3.106 6.872-1.667 2.358 1.437 3.104 4.514 1.667 6.872-3.53 5.792-7.387 11.49-11.463 16.934-.981 1.311-2.484 2.003-4.006 2.003zm-341.854-7.764c-1.6 0-3.172-.766-4.139-2.189-3.821-5.62-7.415-11.487-10.683-17.438-1.329-2.421-.444-5.46 1.976-6.79 2.422-1.328 5.46-.444 6.79 1.976 3.116 5.675 6.543 11.27 10.187 16.628 1.553 2.284.96 5.394-1.323 6.946-.862.586-1.84.867-2.808.867zm370.471-44.672c-.579 0-1.167-.101-1.741-.314-2.588-.962-3.907-3.84-2.945-6.429 2.254-6.064 4.242-12.314 5.908-18.576.71-2.669 3.451-4.253 6.118-3.546 2.669.71 4.256 3.449 3.546 6.118-1.749 6.569-3.833 13.126-6.198 19.488-.749 2.014-2.659 3.259-4.688 3.259zm-396.701-9.008c-2.114 0-4.077-1.351-4.759-3.471-2.081-6.469-3.871-13.113-5.322-19.748-.59-2.698 1.119-5.363 3.817-5.953 2.699-.59 5.363 1.119 5.953 3.817 1.382 6.324 3.089 12.657 5.072 18.822.846 2.629-.6 5.445-3.229 6.291-.509.164-1.025.242-1.532.242zm409.312-49.38c-.121 0-.243-.004-.365-.013-2.754-.199-4.826-2.592-4.627-5.347l.026-.382c.329-4.774.495-9.583.495-14.322 0-1.727-.022-3.479-.065-5.208-.069-2.761 2.113-5.055 4.873-5.124 2.771-.046 5.054 2.112 5.124 4.873.045 1.813.068 3.649.068 5.459 0 4.967-.174 10.008-.517 14.982l-.031.442c-.189 2.632-2.383 4.64-4.981 4.64zm-419.268-9.518c-2.705 0-4.93-2.159-4.996-4.878-.042-1.742-.063-3.49-.063-5.242 0-4.967.174-10.008.517-14.982l.015-.213c.19-2.754 2.577-4.832 5.333-4.644 2.755.19 4.834 2.578 4.644 5.333l-.018.244c-.325 4.715-.491 9.524-.491 14.263 0 1.67.02 3.336.061 4.998.067 2.761-2.116 5.053-4.876 5.121-.043-.001-.085 0-.126 0zm414.927-50.485c-2.297 0-4.365-1.592-4.878-3.928-1.389-6.322-3.103-12.653-5.092-18.818-.848-2.628.595-5.446 3.223-6.294 2.628-.847 5.446.595 6.294 3.223 2.087 6.468 3.885 13.11 5.342 19.743.593 2.697-1.113 5.364-3.81 5.957-.363.079-.724.117-1.079.117zm-407.951-8.847c-.424 0-.855-.055-1.284-.168-2.669-.708-4.26-3.445-3.552-6.114 1.742-6.571 3.82-13.13 6.178-19.495.959-2.589 3.836-3.911 6.425-2.951 2.59.959 3.911 3.836 2.952 6.426-2.248 6.066-4.229 12.318-5.889 18.582-.594 2.24-2.618 3.72-4.83 3.72zm386.917-47.064c-1.764 0-3.474-.936-4.385-2.59-3.122-5.671-6.555-11.263-10.204-16.618-1.555-2.282-.966-5.393 1.316-6.947 2.282-1.556 5.392-.966 6.947 1.316 3.827 5.616 7.427 11.479 10.701 17.427 1.332 2.419.45 5.46-1.969 6.792-.764.42-1.591.62-2.406.62zm-363.511-7.89c-.885 0-1.782-.235-2.593-.729-2.359-1.435-3.109-4.511-1.674-6.87 3.526-5.799 7.377-11.5 11.446-16.945 1.653-2.212 4.787-2.665 6.998-1.013 2.212 1.653 2.666 4.786 1.013 6.998-3.879 5.191-7.55 10.627-10.913 16.156-.941 1.548-2.589 2.403-4.277 2.403zm327.57-39.84c-1.276 0-2.553-.486-3.529-1.458-4.59-4.573-9.452-8.978-14.451-13.092-2.132-1.755-2.438-4.906-.683-7.038 1.754-2.131 4.906-2.438 7.038-.683 5.242 4.315 10.34 8.934 15.153 13.728 1.956 1.949 1.962 5.115.014 7.071-.977.981-2.26 1.472-3.542 1.472zm-289.581-6.27c-1.357 0-2.709-.549-3.695-1.63-1.861-2.04-1.716-5.203.324-7.063 5.017-4.577 10.313-8.968 15.741-13.051 2.208-1.66 5.343-1.216 7.001.99 1.66 2.207 1.217 5.342-.99 7.001-5.177 3.895-10.228 8.082-15.013 12.447-.958.874-2.165 1.306-3.368 1.306zm241.698-29.454c-.807 0-1.625-.196-2.384-.608-5.689-3.094-11.595-5.948-17.552-8.483-2.541-1.081-3.725-4.018-2.643-6.558 1.081-2.541 4.016-3.727 6.558-2.643 6.25 2.659 12.445 5.653 18.414 8.899 2.426 1.319 3.323 4.355 2.004 6.781-.907 1.667-2.624 2.612-4.397 2.612zm-192.301-4.156c-1.85 0-3.627-1.03-4.495-2.804-1.214-2.48-.187-5.475 2.294-6.688 6.107-2.988 12.425-5.714 18.778-8.103 2.583-.971 5.468.336 6.439 2.921.972 2.584-.336 5.468-2.921 6.439-6.057 2.277-12.08 4.876-17.902 7.725-.707.346-1.456.51-2.193.51zm136.289-16.572c-.347 0-.698-.036-1.051-.112-6.317-1.352-12.789-2.418-19.237-3.17-2.743-.32-4.707-2.802-4.387-5.545s2.805-4.706 5.545-4.387c6.76.788 13.546 1.906 20.171 3.324 2.7.578 4.421 3.235 3.843 5.936-.502 2.347-2.576 3.954-4.884 3.954zm-79.437-1.743c-2.395 0-4.511-1.726-4.924-4.166-.461-2.723 1.372-5.304 4.095-5.765 6.692-1.134 13.522-1.957 20.302-2.448 2.747-.206 5.148 1.872 5.348 4.626.199 2.754-1.872 5.148-4.626 5.348-6.463.468-12.974 1.253-19.354 2.333-.282.048-.564.072-.841.072z" fill="#83d5ef"/></g><g><g><g><g><g><path d="m282.754 375.736c-29.35 40.1-51.33 58.03-71.78 58.03-35.11-.76-44.2-43.62-52.99-81.01l10.94-2.51 21.22-4.87c3.54 15.39 7.38 31.37 12.13 42.71 1.429 3.404 2.739 5.903 3.874 7.733 2.206 3.557 6.843 4.718 10.455 2.604 6.64-3.886 19.118-14.306 39.51-42.177l14.75 10.79z" fill="#e9465e"/><path d="m270.864 367.036c-23.67 36.55-41.74 52.98-58.59 52.98-27.24-.69-36.29-35.53-43.35-69.77l21.22-4.87c3.54 15.39 7.38 31.37 12.13 42.71 1.429 3.404 2.739 5.903 3.874 7.733 2.206 3.557 6.843 4.718 10.455 2.604 6.64-3.886 19.118-14.306 39.51-42.177z" fill="#ee6781"/></g><g><path d="m193.944 348.706v-28.92c0-4.06-3.28-7.34-7.34-7.34h-3.89c-4.06 0-7.34 3.28-7.34 7.34v10.34l-22.59-22.59c-1.9-1.89-4.97-1.89-6.86 0l-1.82 1.82c-1.89 1.9-1.89 4.97 0 6.86l-4.89-4.89c-1.9-1.89-4.97-1.89-6.86 0l-1.82 1.82c-1.89 1.89-1.89 4.97 0 6.86l5.41 5.41c-1.89-1.89-4.96-1.89-6.86 0l-1.82 1.82c-1.89 1.9-1.89 4.97 0 6.86l9.98 9.98c-1.89-1.89-4.96-1.89-6.86 0l-1.82 1.82c-1.89 1.89-1.89 4.96 0 6.86l21.99 21.99c3.31 3.31 7.65 4.96 11.98 4.96.19 0 .39 0 .58-.01 4.14-.14 8.24-1.79 11.39-4.95l14.81-14.81c2.97-2.97 4.65-7.01 4.65-11.22z" fill="#f5b890"/><g><g><path d="m163.091 331.566-.369-.369-16.798-16.798c-1.894-1.894-1.894-4.965 0-6.859l-1.82 1.82c-1.894 1.894-1.894 4.965 0 6.859l18.987 18.987c0-.001 1.005-2.635 0-3.64z" fill="#d48d77"/></g><g><path d="m146.255 349.445-.369-.369-16.798-16.798c-1.894-1.894-1.894-4.965 0-6.859l-1.82 1.82c-1.894 1.894-1.894 4.965 0 6.859l18.987 18.987c.001-.001 1.005-2.635 0-3.64z" fill="#d48d77"/></g><g><path d="m152.52 338.353-.369-.369-19.799-19.799c-1.894-1.894-1.894-4.965 0-6.859l-1.819 1.82c-1.894 1.894-1.894 4.965 0 6.859l21.987 21.987c.001 0 1.005-2.634 0-3.639z" fill="#d48d77"/></g><g fill="#d48d77"><path d="m175.371 319.783v10.345l3.925 3.925v-14.3c0-4.038 3.273-7.311 7.311-7.311h-3.895c-4.054 0-7.341 3.287-7.341 7.341z"/><path d="m174.472 374.746c-3.066 3.076-7.034 4.709-11.061 4.924-.047.003-.094.009-.141.011-.063.003-.125.013-.188.015l-.005-.015c-4.525.156-9.099-1.484-12.554-4.939l-21.987-21.987c-1.894-1.894-1.894-4.965 0-6.859l1.82-1.82c-1.894 1.894-1.894 4.965 0 6.859l19.799 19.799c.03.032.061.064.092.096 3.557 3.699 10.396 5.117 15.366 3.273 2.717-1.008 5.707-.983 8.282.345z"/></g></g></g></g><g><g><path d="m324.515 375.736c29.35 40.1 51.33 58.03 71.78 58.03 35.11-.76 44.2-43.62 52.99-81.01l-10.94-2.51-21.22-4.87c-3.54 15.39-7.38 31.37-12.13 42.71-1.428 3.404-2.739 5.903-3.874 7.733-2.206 3.557-6.843 4.718-10.455 2.604-6.64-3.886-19.118-14.306-39.51-42.177l-14.75 10.79z" fill="#e9465e"/><path d="m336.405 367.036c23.67 36.55 41.74 52.98 58.59 52.98 27.24-.69 36.29-35.53 43.35-69.77l-21.22-4.87c-3.54 15.39-7.38 31.37-12.13 42.71-1.428 3.404-2.739 5.903-3.874 7.733-2.206 3.557-6.843 4.718-10.455 2.604-6.64-3.886-19.118-14.306-39.51-42.177z" fill="#ee6781"/></g><g><path d="m413.305 348.716c0 4.21 1.68 8.25 4.65 11.22l14.81 14.81c3.15 3.16 7.25 4.81 11.39 4.95.19.01.39.01.58.01 4.33 0 8.67-1.65 11.98-4.96l21.99-21.99c1.89-1.9 1.89-4.97 0-6.86l-1.82-1.82c-1.9-1.89-4.97-1.89-6.86 0l9.98-9.98c1.89-1.89 1.89-4.96 0-6.86l-1.82-1.82c-1.9-1.89-4.97-1.89-6.86 0l5.41-5.41c1.89-1.89 1.89-4.97 0-6.86l-1.82-1.82c-1.89-1.89-4.96-1.89-6.86 0l-4.89 4.89c1.89-1.89 1.89-4.96 0-6.86l-1.82-1.82c-1.89-1.89-4.96-1.89-6.86 0l-22.59 22.59v-10.34c0-4.06-3.28-7.34-7.34-7.34h-3.89c-4.06 0-7.34 3.28-7.34 7.34v28.92z" fill="#f5b890"/><g><g><path d="m444.178 331.566.369-.369 16.798-16.798c1.894-1.894 1.894-4.965 0-6.859l1.82 1.82c1.894 1.894 1.894 4.965 0 6.859l-18.987 18.987c0-.001-1.005-2.635 0-3.64z" fill="#d48d77"/></g><g><path d="m461.013 349.445.369-.369 16.798-16.798c1.894-1.894 1.894-4.965 0-6.859l1.82 1.82c1.894 1.894 1.894 4.965 0 6.859l-18.987 18.987c0-.001-1.005-2.635 0-3.64z" fill="#d48d77"/></g><g><path d="m454.748 338.353.369-.369 19.799-19.799c1.894-1.894 1.894-4.965 0-6.859l1.819 1.82c1.894 1.894 1.894 4.965 0 6.859l-21.987 21.987s-1.005-2.634 0-3.639z" fill="#d48d77"/></g><g fill="#d48d77"><path d="m431.898 319.783v10.345l-3.925 3.925v-14.3c0-4.038-3.273-7.311-7.311-7.311h3.895c4.054 0 7.341 3.287 7.341 7.341z"/><path d="m432.797 374.746c3.066 3.076 7.034 4.709 11.061 4.924.047.003.094.009.141.011.063.003.125.013.188.015l.005-.015c4.525.156 9.099-1.484 12.554-4.939l21.987-21.987c1.894-1.894 1.894-4.965 0-6.859l-1.82-1.82c1.894 1.894 1.894 4.965 0 6.859l-19.799 19.799c-.03.032-.061.064-.092.096-3.557 3.699-10.396 5.117-15.366 3.273-2.717-1.008-5.707-.983-8.282.345z"/></g></g></g></g></g><g><path d="m364.11 384.75v103.36c-36.421 17.206-79.485 25.797-120.96 23.57v-126.93c0-24.86 20.14-45.02 45.01-45.02h30.94c24.87 0 45.01 20.16 45.01 45.02z" fill="#e9465e"/><path d="m364.11 384.75v103.36c-28.29 13.21-59.39 21.39-92.16 23.4v-126.76c-.069-25.67 21.564-46.135 47.15-45.02 24.87 0 45.01 20.16 45.01 45.02z" fill="#ee6781"/></g><g><path d="m323.621 320.826v21.707c0 11.04-8.954 19.98-19.994 19.98-3.703 0-7.171-1.009-10.142-2.763-5.886-3.468-9.838-9.879-9.838-17.216v-21.707h39.974z" fill="#f5b890"/><path d="m283.648 320.826v21.707c0 7.337 3.952 13.748 9.838 17.216v-23.199c6.95 2.902 14.591 4.504 22.605 4.504 2.556 0 5.071-.166 7.531-.47v-19.759h-39.974z" fill="#d48d77"/></g><g><g><g><path d="m247.38 255.633h9.911v-31.015h-9.911c-8.565 0-15.507 6.943-15.507 15.507-.001 8.565 6.942 15.508 15.507 15.508z" fill="#d48d77"/><path d="m246.88 246.78h10.412v-13.309h-10.412c-3.675 0-6.654 2.979-6.654 6.654-.001 3.676 2.978 6.655 6.654 6.655z" fill="#c17e62"/></g><g><path d="m379.236 224.618h-4.341v31.015h4.341c8.565 0 15.507-6.943 15.507-15.507 0-8.565-6.943-15.508-15.507-15.508z" fill="#d48d77"/><path d="m379.736 233.471h-4.841v13.309h4.841c3.675 0 6.654-2.979 6.654-6.654 0-3.676-2.979-6.655-6.654-6.655z" fill="#c17e62"/></g></g><g><path d="m374.897 190.102v81.687c0 16.235-6.577 30.937-17.216 41.576-7.682 7.669-17.465 13.223-28.408 15.738-4.242.967-8.65 1.478-13.182 1.478-32.47 0-58.806-26.322-58.806-58.792v-81.687c0-17.797 14.439-32.222 32.235-32.222h53.155c3.122 0 6.135.442 8.995 1.285 13.416 3.883 23.227 16.263 23.227 30.937z" fill="#d48d77"/><path d="m374.897 190.102v81.687c0 16.235-6.577 30.937-17.216 41.576-7.682 7.669-17.465 13.223-28.408 15.738-26.142-5.983-45.624-29.375-45.624-57.314v-31.254c0-40.664 29.348-74.461 68.022-81.369 13.415 3.882 23.226 16.262 23.226 30.936z" fill="#f5b890"/><g fill="#eea47d"><path d="m332.72 244.232h-11.988c-4.924 0-8.915 3.991-8.915 8.915s3.991 8.915 8.915 8.915h11.988c4.924 0 8.915-3.991 8.915-8.915 0-4.923-3.992-8.915-8.915-8.915z"/><path d="m316.093 157.879h15.039v92.405h-15.039z"/></g><g fill="#334353"><path d="m300.134 209.361c-4.499 0-8.147 3.648-8.147 8.147v14.22c0 4.499 3.648 8.147 8.147 8.147s8.147-3.648 8.147-8.147v-14.22c0-4.5-3.647-8.147-8.147-8.147z"/><path d="m347.091 209.361c-4.499 0-8.147 3.648-8.147 8.147v14.22c0 4.499 3.648 8.147 8.147 8.147s8.147-3.648 8.147-8.147v-14.22c0-4.5-3.648-8.147-8.147-8.147z"/></g><g><path d="m318.222 294.919c-14.114 0-25.596-11.482-25.596-25.596 0-2.671 2.165-4.836 4.836-4.836s4.836 2.165 4.836 4.836c0 8.78 7.143 15.923 15.924 15.923 2.671 0 4.836 2.165 4.836 4.836 0 2.672-2.165 4.837-4.836 4.837z" fill="#c17e62"/></g></g><g><path d="m257.291 255.633h-9.912c-1.733 0-3.394-.297-4.95-.821v4.134c0 8.224 6.667 14.89 14.89 14.89z" fill="#3e4e60"/><path d="m257.29 224.618h-9.911c-1.65 0-3.209.327-4.7.804l-.249.013v-40.576c0-18.828 15.263-34.091 34.091-34.091h39.57v8.515c0 11.112-9.008 20.121-20.121 20.121-6.805 0-12.322 5.517-12.322 12.322v7.233c0 14.171-11.488 25.659-25.659 25.659l-.698.037v-.037z" fill="#3e4e60"/><path d="m381.776 166.921c0 4.233 3.431 7.664 7.664 7.664 1.823 0 3.586-.65 4.973-1.833l9.161-7.813c3.259-2.779 8.278-.463 8.278 3.82v10.807c0 15.127-12.263 27.391-27.391 27.391-6.287 0-12.317-2.498-16.763-6.943l-9.718-9.718c-6.974-6.974-16.432-10.891-26.294-10.891h-41.766c-7.908 0-14.318-6.41-14.318-14.318s6.41-14.318 14.318-14.318h75.702c8.922-.001 16.154 7.231 16.154 16.152z" fill="#3f5d77"/></g></g></g><g><g><path d="m431.622 237.725-33.271 83.539c-1.675 4.205.375 8.967 4.577 10.641l40.198 16.01c1.028.409 2.092.595 3.13.582 3.217-.041 6.243-1.986 7.509-5.163l33.271-83.539c1.264-3.174.404-6.667-1.905-8.908-.745-.723-1.645-1.32-2.673-1.729l-40.198-16.01c-4.202-1.674-8.965.375-10.638 4.577z" fill="#334353"/><path d="m431.622 237.725-30.37 76.253c30.278-9.724 56.142-32.398 68.829-64.252.634-1.592 1.228-3.188 1.781-4.789l-29.602-11.79c-4.202-1.673-8.965.376-10.638 4.578z" fill="#3e4e60"/><path d="m480.35 254.449-35.115 88.169c-.822 2.063-.357 4.322 1.021 5.878 3.217-.041 6.243-1.986 7.509-5.163l33.271-83.539c1.264-3.174.404-6.667-1.904-8.908-2.071.182-3.961 1.501-4.782 3.563z" fill="#2e3140"/><g fill="#3f5d77"><circle cx="421.891" cy="331.694" r="5.355"/><path d="m441.185 240.047 22.775 9.071c1.746.696 3.726-.156 4.422-1.903.696-1.746-.156-3.726-1.903-4.422l-22.775-9.071c-1.746-.696-3.726.156-4.422 1.903-.696 1.746.156 3.726 1.903 4.422z"/></g></g><g><g><path d="m479.052 270.703-7.124 17.889c-.229.576.052 1.231.628 1.46l1.402.558c1.663.662 3.544-.147 4.205-1.807l5.562-13.966c.661-1.66-.147-3.544-1.81-4.207l-1.402-.558c-.576-.23-1.23.052-1.461.631z" fill="#334353"/><path d="m479.052 270.703-4.512 11.33c-.231.579.051 1.234.627 1.463l1.402.558c1.663.662 3.545-.15 4.207-1.81l2.95-7.407c.661-1.66-.147-3.544-1.81-4.207l-1.402-.558c-.577-.23-1.231.052-1.462.631z" fill="#3e4e60"/></g><g><path d="m428.843 250.706-3.162 7.939c-.229.576-.884.858-1.46.628l-1.402-.558c-1.663-.662-2.473-2.543-1.811-4.204l1.6-4.017c.661-1.66 2.543-2.473 4.207-1.81l1.402.558c.575.23.857.885.626 1.464z" fill="#334353"/><path d="m428.843 250.706-1.871 4.697c-.231.579-.885.861-1.462.631l-1.402-.558c-1.663-.662-2.471-2.546-1.81-4.207l.309-.775c.661-1.66 2.543-2.473 4.207-1.81l1.402.558c.576.23.858.885.627 1.464z" fill="#3e4e60"/></g><g><path d="m422.883 265.671-3.162 7.939c-.229.576-.884.858-1.46.628l-1.402-.558c-1.663-.662-2.473-2.543-1.811-4.204l1.6-4.017c.661-1.66 2.543-2.473 4.207-1.81l1.402.558c.575.23.857.885.626 1.464z" fill="#334353"/><path d="m422.883 265.671-1.871 4.697c-.231.579-.885.861-1.462.631l-1.402-.558c-1.663-.662-2.471-2.546-1.81-4.207l.309-.775c.661-1.66 2.543-2.473 4.207-1.81l1.402.558c.576.23.858.885.627 1.464z" fill="#3e4e60"/></g></g><g><path d="m398.902 261.203h81.632v51.457h-81.632z" fill="#e9465e" transform="matrix(.37 -.929 .929 .37 10.452 589.277)"/><path d="m430.918 239.493-29.665 74.486c28.806-9.25 53.611-30.221 66.879-59.665z" fill="#ee6781"/></g></g></g><g><g id="Speech-bubble_7_"><path d="m209.989 275.32c-3.317 1.915-7.504 2.172-11.178.316l-61.752-31.196c-5.789-2.925-8.112-9.989-5.187-15.779 2.924-5.79 9.988-8.111 15.778-5.187l61.752 31.196c5.789 2.925 8.112 9.989 5.187 15.779-1.068 2.115-2.69 3.768-4.6 4.871z" fill="#ebd9ea"/><path d="m206.99 126.31v73.35c0 10.34-3.5 19.86-9.39 27.45-8.19 10.55-20.99 17.33-35.38 17.33h-113.44c-14.39 0-27.19-6.78-35.37-17.33-4.43-5.7-7.51-12.49-8.77-19.89 3.84-19.91 9.99-38.99 18.16-56.96 11.53-25.4 27.09-48.58 45.86-68.73h93.56c14.39 0 27.19 6.78 35.38 17.33 5.89 7.58 9.39 17.1 9.39 27.45z" fill="#ebd9ea"/><path d="m206.995 126.306v73.35c0 10.347-3.505 19.864-9.391 27.452-5.894-7.588-9.399-17.105-9.399-27.452v-73.35c0-10.347 3.505-19.864 9.399-27.443 5.886 7.58 9.391 17.096 9.391 27.443z" fill="#fff"/><path d="m22.8 150.26v49.4c0 10.34-3.51 19.86-9.39 27.45-4.43-5.7-7.51-12.49-8.77-19.89 3.84-19.91 9.99-38.99 18.16-56.96z" fill="#c1b7d3"/></g><g><g><path d="m159.917 136.722v59.691c0 2.016-.54 3.907-1.482 5.535-1.226 2.127-3.145 3.81-5.445 4.731-1.275.52-2.674.804-4.135.804h-86.7c-1.469 0-2.868-.284-4.142-.804-2.3-.928-4.219-2.605-5.445-4.731-.942-1.628-1.482-3.519-1.482-5.535v-59.691c0-4.648 2.861-8.631 6.927-10.266 1.275-.52 2.674-.804 4.142-.804h86.699c1.462 0 2.861.284 4.135.804 4.06 1.635 6.928 5.611 6.928 10.266z" fill="#d48d77"/><path d="m64.94 136.722v59.691c0 4.655-2.868 8.631-6.927 10.266-4.066-1.635-6.927-5.618-6.927-10.266v-59.691c0-4.648 2.861-8.631 6.927-10.266 4.059 1.635 6.927 5.611 6.927 10.266z" fill="#c17e62"/><path d="m159.917 136.722v59.691c0 2.016-.54 3.907-1.482 5.535-1.226 2.127-3.145 3.81-5.445 4.731-2.3-.928-4.219-2.605-5.445-4.731-.942-1.628-1.482-3.519-1.482-5.535v-59.691c0-4.648 2.861-8.631 6.927-10.266 4.059 1.635 6.927 5.611 6.927 10.266z" fill="#eea47d"/><path d="m158.434 201.947c-1.912 3.311-5.486 5.535-9.58 5.535h-86.699c-1.469 0-2.868-.284-4.142-.804-2.3-.928-4.219-2.605-5.445-4.731 1.226-2.127 3.145-3.803 5.445-4.731 1.275-.52 2.674-.804 4.142-.804h86.699c4.094 0 7.669 2.224 9.58 5.535z" fill="#a26d5a"/></g><g><path d="m146.562 171.38h-82.122c-7.375 0-13.354-5.979-13.354-13.354v-6.119h108.831v6.119c0 7.375-5.979 13.354-13.355 13.354z" fill="#a26d5a"/><path d="m159.917 136.722v18.329c0 4.814-3.907 8.721-8.721 8.721h-91.389c-4.814 0-8.721-3.907-8.721-8.721v-18.329c0-4.648 2.861-8.631 6.927-10.266 1.275-.52 2.674-.804 4.142-.804h86.699c1.462 0 2.861.284 4.135.804 4.06 1.635 6.928 5.611 6.928 10.266z" fill="#c17e62"/><path d="m64.94 136.722v27.05h-5.133c-4.814 0-8.721-3.907-8.721-8.721v-18.329c0-4.648 2.861-8.631 6.927-10.266 4.059 1.635 6.927 5.611 6.927 10.266z" fill="#a26d5a"/><path d="m159.917 136.722v18.329c0 4.814-3.907 8.721-8.721 8.721h-5.133v-27.05c0-4.648 2.861-8.631 6.927-10.266 4.059 1.635 6.927 5.611 6.927 10.266z" fill="#d48d77"/><path d="m134.419 131.482h-57.836c-3.351 0-6.068 2.717-6.068 6.068s2.717 6.068 6.068 6.068h57.836c3.351 0 6.068-2.717 6.068-6.068s-2.716-6.068-6.068-6.068z" fill="#d48d77"/><path d="m131.178 139.276h-36.63c-2.152 0-3.897-1.745-3.897-3.897s1.745-3.897 3.897-3.897h36.631c2.152 0 3.897 1.745 3.897 3.897-.001 2.152-1.746 3.897-3.898 3.897z" fill="#eea47d"/></g><g><g><path d="m79.466 152.827c-.783-.582-1.753-.921-2.805-.921h-6.983c-1.046 0-2.016.339-2.799.921-1.178.852-1.94 2.244-1.94 3.817v14.256c0 1.572.762 2.965 1.94 3.817.783.582 1.753.921 2.799.921h6.983c1.053 0 2.023-.339 2.805-.921 1.171-.859 1.933-2.251 1.933-3.817v-14.256c-.001-1.566-.763-2.958-1.933-3.817zm-1.938 15.792c0 1.525-1.236 2.76-2.76 2.76h-3.193c-1.524 0-2.76-1.236-2.76-2.76v-9.694c0-1.524 1.236-2.76 2.76-2.76h3.193c1.525 0 2.76 1.236 2.76 2.76z" fill="#f9c744"/><path d="m81.398 156.644v14.256c0 1.566-.762 2.958-1.933 3.817-1.178-.859-1.94-2.251-1.94-3.817v-14.256c0-1.566.762-2.958 1.94-3.817 1.171.859 1.933 2.251 1.933 3.817z" fill="#fad98f"/><path d="m68.812 156.644v14.256c0 1.566-.762 2.958-1.933 3.817-1.178-.852-1.94-2.244-1.94-3.817v-14.256c0-1.572.762-2.965 1.94-3.817 1.171.859 1.933 2.251 1.933 3.817z" fill="#f39e22"/><path d="m79.466 152.827c-.783-.582-1.753-.921-2.805-.921h-4.454c.254 1.56.851 3.002 1.702 4.259h.86c1.525 0 2.76 1.236 2.76 2.76v.578c1.172.661 2.477 1.112 3.871 1.291v-4.149c-.002-1.567-.764-2.959-1.934-3.818z" fill="#faefdc"/></g><g><path d="m144.13 152.827c-.783-.582-1.753-.921-2.805-.921h-6.983c-1.046 0-2.016.339-2.799.921-1.178.852-1.94 2.244-1.94 3.817v14.256c0 1.572.762 2.965 1.94 3.817.783.582 1.753.921 2.799.921h6.983c1.053 0 2.023-.339 2.805-.921 1.171-.859 1.933-2.251 1.933-3.817v-14.256c0-1.566-.762-2.958-1.933-3.817zm-1.938 15.792c0 1.525-1.236 2.76-2.76 2.76h-3.193c-1.524 0-2.76-1.236-2.76-2.76v-9.694c0-1.524 1.236-2.76 2.76-2.76h3.193c1.525 0 2.76 1.236 2.76 2.76z" fill="#f9c744"/><path d="m146.063 156.644v14.256c0 1.566-.762 2.958-1.933 3.817-1.178-.859-1.94-2.251-1.94-3.817v-14.256c0-1.566.762-2.958 1.94-3.817 1.171.859 1.933 2.251 1.933 3.817z" fill="#fad98f"/><path d="m133.476 156.644v14.256c0 1.566-.762 2.958-1.933 3.817-1.178-.852-1.94-2.244-1.94-3.817v-14.256c0-1.572.762-2.965 1.94-3.817 1.171.859 1.933 2.251 1.933 3.817z" fill="#f39e22"/><path d="m144.13 152.827c-.783-.582-1.753-.921-2.805-.921h-4.454c.254 1.56.851 3.002 1.702 4.259h.86c1.525 0 2.76 1.236 2.76 2.76v.578c1.172.661 2.477 1.112 3.871 1.291v-4.149c-.001-1.567-.763-2.959-1.934-3.818z" fill="#faefdc"/></g></g><g><path d="m129.604 115.31v10.342h-8.306v-6.581c0-3.644-2.958-6.601-6.608-6.601h-18.371c-3.651 0-6.608 2.958-6.608 6.601v6.581h-8.306v-10.342c0-1.088.173-2.134.485-3.11 1.316-4.101 5.161-7.073 9.698-7.073h27.833c4.537 0 8.382 2.972 9.698 7.073.312.977.485 2.023.485 3.11z" fill="#a26d5a"/><path d="m129.119 112.2c-1.108 3.948-4.032 7.128-7.821 8.59v-1.718c0-3.644-2.958-6.601-6.608-6.601h-18.371c-3.651 0-6.608 2.958-6.608 6.601v1.718c-1.704-.658-3.235-1.663-4.503-2.93-1.552-1.552-2.709-3.491-3.318-5.659 1.316-4.101 5.161-7.073 9.698-7.073h27.833c4.537-.001 8.382 2.971 9.698 7.072z" fill="#c17e62"/><path d="m119.251 112.47h-21.355c-1.984 0-3.593-1.609-3.593-3.593v-.157c0-1.984 1.609-3.593 3.593-3.593h21.356c1.984 0 3.593 1.609 3.593 3.593v.157c-.001 1.984-1.609 3.593-3.594 3.593z" fill="#d48d77"/></g></g></g></g></svg>