<svg id="Layer_1" height="512" viewBox="0 0 512 512" width="512" xmlns="http://www.w3.org/2000/svg" data-name="Layer 1"><path d="m146 272.06v131.94h67v-131.7a57.845 57.845 0 0 1 -67-.24z" fill="#6994fe"/><path d="m213 272.06v.244c.1-.07.2-.134.3-.2z" fill="#6994fe"/><path d="m213 272.06v-45.4a73.4 73.4 0 0 1 -67.077.12l.077.52v44.76a57.854 57.854 0 0 0 67.3.04z" fill="#efc597"/><path d="m179.45 17a78.541 78.541 0 0 1 78.33 83.96l-1.72 24.98a4.87 4.87 0 0 1 -.06.55 7.623 7.623 0 0 1 -2.34 4.49l-12.47 5.83-3.6-14.86a88.012 88.012 0 0 0 -36.05-52.05 70.121 70.121 0 0 1 -64.64 29.1l-5.91-.64a3.043 3.043 0 0 0 -3.36 2.79l-2.62 32.69c-.08 1.09-18.87-3.33-18.87-3.33a6.106 6.106 0 0 1 -3.16-4.04 6.719 6.719 0 0 1 -.16-1l-1.69-24.51c-.13-1.85-.19-3.68-.19-5.5a78.544 78.544 0 0 1 78.51-78.46z" fill="#6d7486"/><path d="m213.33 226.66a74.238 74.238 0 0 1 -108.09-66.09v-.11a18.933 18.933 0 0 1 -15.08-23.13 14.229 14.229 0 0 1 12.73-10.84l.09-.02a6.106 6.106 0 0 0 3.16 4.04s18.79 4.42 18.87 3.33l2.62-32.69a3.043 3.043 0 0 1 3.36-2.79l5.91.64a70.121 70.121 0 0 0 64.64-29.1 88.012 88.012 0 0 1 36.05 52.05l3.6 14.86 12.47-5.83a7.623 7.623 0 0 0 2.34-4.49h.02a14.21 14.21 0 0 1 12.67 10.84 18.57 18.57 0 0 1 .55 4.51 18.9 18.9 0 0 1 -15.58 18.61v.12a74.332 74.332 0 0 1 -40.33 66.09z" fill="#ffd8b7"/><path d="m363.83 281.13a106.935 106.935 0 1 1 -106.88 106.94 106.91 106.91 0 0 1 106.88-106.94z" fill="#5fcda4"/><path d="m341 433v28.57a1.342 1.342 0 0 0 1.46 1.43h43.88a1.509 1.509 0 0 0 1.66-1.43v-28.57z" fill="#4a5160"/><path d="m364.89 312.48a52.284 52.284 0 0 0 -35.89 90.81 36.625 36.625 0 0 1 8.855 12.35 37.455 37.455 0 0 1 3.145 14.85v2.51h47v-2.55a37.486 37.486 0 0 1 12.1-27.42 52.284 52.284 0 0 0 -35.21-90.55z" fill="#eadf53"/><path d="m362 395.78a8.325 8.325 0 1 1 2.22.3 8.149 8.149 0 0 1 -2.22-.3z" fill="#edb740"/><path d="m307.267 290.161a53.906 53.906 0 0 0 -3.937-4.947c-.556-.621-1.122-1.232-1.707-1.828q-.774-.788-1.583-1.546a54.78 54.78 0 0 0 -12.835-8.82l-74.205-25.02v156h45.13a101.808 101.808 0 0 1 -1.19-15.765 105.9 105.9 0 0 1 26.43-70.168l.016-.013c-.005.036-.011.071-.016.106.107-.123.222-.239.33-.361a106.85 106.85 0 0 1 27.03-22.009 54.15 54.15 0 0 0 -3.463-5.629z" fill="#56568c"/><path d="m300.04 281.84a53.933 53.933 0 0 1 10.69 13.95 106.873 106.873 0 0 0 -27.36 22.37 68.131 68.131 0 0 1 16.67-36.32z" fill="#6c63b5"/><path d="m71.765 273.02a53.979 53.979 0 0 0 -12.4 8.49h-.165a53.545 53.545 0 0 0 -17.18 35.06v87.8l103.98-.37v-156z" fill="#56568c"/><path d="m301.623 283.386c.585.6 1.151 1.207 1.707 1.828-.556-.621-1.122-1.232-1.707-1.828z" fill="#56568c"/><path d="m76.68 327.98v76.39h-34.66v-87.8a53.545 53.545 0 0 1 17.18-35.06 70.5 70.5 0 0 1 17.48 46.47z" fill="#6c63b5"/><path d="m254.54 292.94-41.21-38.13v148.6.96h17.74v-.62l19.38-79.49-10.55-13.26z" fill="#6c63b5"/><path d="m104.32 292.94 14.63 18.06-10.55 13.26 19.38 79.49v.62h17.83v-.96-148.67z" fill="#6c63b5"/><path d="m179.45 17a78.544 78.544 0 0 0 -78.51 78.46c0 1.82.06 3.65.19 5.5l1.69 24.51a6.719 6.719 0 0 0 .16 1 6.106 6.106 0 0 0 3.16 4.04s18.79 4.42 18.87 3.33l4.395-28.448c.751-4.857 1.382-9.736 1.675-14.641a78.6 78.6 0 0 1 63.407-72.31 78.988 78.988 0 0 0 -15.037-1.441z" fill="#5a606d"/><path d="m175.81 226.78a74.4 74.4 0 0 1 -40.031-57.213 44.546 44.546 0 0 0 -6.94-18.862l-8.679-13.375a14.522 14.522 0 0 1 1.422-3.619c-5.439-.849-15.442-3.2-15.442-3.2a6.106 6.106 0 0 1 -3.16-4.04l-.09.02a14.229 14.229 0 0 0 -12.73 10.84 18.933 18.933 0 0 0 15.08 23.13v.11a74.239 74.239 0 0 0 89.2 72.736 73.582 73.582 0 0 1 -18.63-6.527z" fill="#e2bb9f"/><path d="m286.95 388.07a106.938 106.938 0 0 1 91.88-105.887 106.935 106.935 0 1 0 0 211.764 106.936 106.936 0 0 1 -91.88-105.877z" fill="#4faa85"/><g fill="#284268"><path d="m165 326.425a6 6 0 0 0 -6 6v48.756a6 6 0 1 0 12 0v-48.756a6 6 0 0 0 -6-6z"/><path d="m165 302.857a6 6 0 0 0 -6 6v4.884a6 6 0 0 0 12 0v-4.884a6 6 0 0 0 -6-6z"/><path d="m364.606 307.084a57.971 57.971 0 0 0 -39.683 100.927 31.024 31.024 0 0 1 10.077 22.695v30.972a7.011 7.011 0 0 0 7.169 7.322h43.731c4.2 0 8.1-3.126 8.1-7.322v-31.011a31.294 31.294 0 0 1 9.922-22.94 58.23 58.23 0 0 0 -39.316-100.643zm17.394 149.916h-35v-17h35zm-20.435-68.883a2.288 2.288 0 1 1 2.288 2.293 2.293 2.293 0 0 1 -2.288-2.293zm33.935 11.022a43.755 43.755 0 0 0 -13.862 28.861h-11.638v-27a14.281 14.281 0 1 0 -12 .143v26.857h-11.565a42.985 42.985 0 0 0 -13.624-28.639 46.427 46.427 0 0 1 -14.944-34.061 46.169 46.169 0 0 1 92.319-1.31 46.572 46.572 0 0 1 -14.686 35.149z"/><path d="m363.461 275.969a112.277 112.277 0 0 0 -50.5 11.9 59.213 59.213 0 0 0 -20.379-18.871 26.312 26.312 0 0 0 -4.556-2.016l-69.026-22.982v-13.823a80.227 80.227 0 0 0 40.375-65.186 25.117 25.117 0 0 0 15.106-29.09 20 20 0 0 0 -12.151-14l1.425-20.532a84.5 84.5 0 0 0 -146.728-62.809 85.779 85.779 0 0 0 -21.816 63.793l1.346 19.531a20.017 20.017 0 0 0 -12.223 14.016 24.851 24.851 0 0 0 15.218 29.1 80.3 80.3 0 0 0 40.448 65.2v13.8l-69.646 23.319a18.336 18.336 0 0 0 -2.82 1.192 59.969 59.969 0 0 0 -31.455 47.636c-.014.165-.079.255-.079.421v87.8a5.633 5.633 0 0 0 5.632 5.632h211.368a112.526 112.526 0 1 0 110.46-134.031zm-292.461 122.031h-23v-81.175a49.13 49.13 0 0 1 10.947-26.125 64.611 64.611 0 0 1 12.053 37.284zm12 0v-70.016a76.6 76.6 0 0 0 -15.229-45.584l.283-.2a36.413 36.413 0 0 1 9.661-4.943l54.668-18.457-32.141 29.734a6 6 0 0 0 -.587 8.182l11.6 14.319-7.551 9.482a5.619 5.619 0 0 0 -1.135 4.975l17.731 72.508zm57 0h-7.353l-17.72-72.492 8.721-10.86a5.871 5.871 0 0 0 -.032-7.423l-10.907-13.7 27.291-25.067zm162.505-104.162q-3.43 2.214-6.689 4.665a62.878 62.878 0 0 1 4.588-7.5c.737.917 1.431 1.866 2.101 2.835zm-176.041-247.808a72.513 72.513 0 0 1 125.33 54.519l-1.721 24.973a1.626 1.626 0 0 1 -.151.581l-4.63 2.167-1.875-7.734a93.838 93.838 0 0 0 -38.508-55.6 6 6 0 0 0 -8.264 1.486 64.16 64.16 0 0 1 -59.105 26.608l-5.91-.635a9.042 9.042 0 0 0 -9.983 8.272l-2.125 26.587c-3.064-.587-7.051-1.44-10.723-2.287l-1.683-24.418a71.857 71.857 0 0 1 19.348-54.519zm-15.464 114.539v-.112a5.9 5.9 0 0 0 -4.845-5.911 12.816 12.816 0 0 1 -10.593-12.708 13.027 13.027 0 0 1 .4-3.085 7.951 7.951 0 0 1 4.2-5.349 12.052 12.052 0 0 0 3.223 2.441 6.023 6.023 0 0 0 1.372.5c20.458 4.809 21.556 4.009 23.74 2.418a6.212 6.212 0 0 0 2.5-4.447l2.371-29.67 2.89.311a76.2 76.2 0 0 0 66.452-26.774 81.852 81.852 0 0 1 29.045 45.18l3.6 14.865a6 6 0 0 0 8.375 4.021l12.469-5.837a6 6 0 0 0 1.551-1.049 13.636 13.636 0 0 0 1.483-1.646 7.933 7.933 0 0 1 3.63 5.036 12.99 12.99 0 0 1 .369 3.085 12.723 12.723 0 0 1 -10.452 12.7 5.853 5.853 0 0 0 -4.78 5.912v.119c0 37.639-30.886 68.26-68.495 68.26s-68.505-30.621-68.505-68.26zm96 237.431h-55v-115.477c8 4.213 17.949 6.33 27.483 6.33s19.517-2.119 27.517-6.338zm0-129.158a51.218 51.218 0 0 1 -55 0v-33.018a77.943 77.943 0 0 0 55-.015zm12 129.158v-129.459l27.173 24.986-11.016 13.7a6 6 0 0 0 .051 7.515l8.72 10.768-17.72 72.49zm144.461 91.033a100.565 100.565 0 0 1 -100.518-100.466c0-2.366.084-4.807.247-7.161a6 6 0 0 0 -11.971-.856c-.183 2.611-.276 5.353-.276 8 0 3.182.14 6.333.4 9.449h-12.784l17.724-72.508a5.807 5.807 0 0 0 -1.135-5.067l-7.551-9.436 11.6-14.3a5.986 5.986 0 0 0 -.587-8.17l-32.182-29.767 55.454 18.74a33.9 33.9 0 0 1 8.043 3.942q.876.588 1.724 1.212a74.481 74.481 0 0 0 -13.976 33.023 112.318 112.318 0 0 0 -13.808 20.547 6.008 6.008 0 0 0 5.335 8.785h.033a6 6 0 0 0 5.313-3.226 100.491 100.491 0 1 1 88.918 147.259z"/></g></svg>