<svg id="Icons" enable-background="new 0 0 512 512" height="512" viewBox="0 0 512 512" width="512" xmlns="http://www.w3.org/2000/svg"><g><path d="m512 256c0 15.42-1.36 30.53-3.98 45.2-21.35 119.83-126.06 210.8-252.02 210.8s-230.67-90.97-252.02-210.8c-2.62-14.67-3.98-29.78-3.98-45.2 0-141.38 114.62-256 256-256s256 114.62 256 256z" fill="#53b976"/><g><g><path d="m508.02 301.2c-21.595 123.801-133.71 215.035-259.39 210.689-119.932-2.577-224.234-92.647-244.65-210.689z" fill="#d48d77"/><g fill="#eea47d"><path d="m380.58 353.08v126.62c-6.65 3.71-13.48 7.13-20.48 10.25v-136.87c0-5.66 4.58-10.24 10.24-10.24 2.83 0 5.39 1.14 7.24 3 1.86 1.85 3 4.41 3 7.24z"/><path d="m422.26 301.2v97.32c0 5.66-4.59 10.24-10.24 10.24-5.66 0-10.25-4.58-10.25-10.24v-97.32z"/><path d="m467.46 381.18v19.14c-6.26 9.17-13.11 17.91-20.48 26.17v-45.31c0-5.65 4.59-10.24 10.24-10.24 2.83 0 5.39 1.15 7.24 3 1.86 1.86 3 4.42 3 7.24z"/><path d="m467.46 301.2v27.74c0 5.65-4.58 10.24-10.24 10.24-5.65 0-10.24-4.59-10.24-10.24v-27.74z"/><path d="m508.02 301.2c-2.88 16.14-7.27 31.76-13.01 46.7v-46.7z"/><path d="m329.69 301.2v42.24c0 5.66-4.59 10.25-10.25 10.25-5.65 0-10.24-4.59-10.24-10.25v-42.24z"/><path d="m305.71 426.29v80.88c-6.74 1.33-13.57 2.39-20.49 3.18v-84.06c0-5.65 4.59-10.24 10.24-10.24 2.83 0 5.39 1.15 7.25 3 1.85 1.85 3 4.41 3 7.24z"/><path d="m248.63 353.08v158.81c-6.9-.19-13.73-.66-20.48-1.39v-157.42c0-5.66 4.58-10.24 10.24-10.24 2.83 0 5.39 1.14 7.24 3 1.85 1.85 3 4.41 3 7.24z"/><path d="m185.76 301.2v92.63c0 5.66-4.58 10.24-10.24 10.24s-10.24-4.58-10.24-10.24v-92.63z"/><path d="m163.68 460.62v34.23c-6.98-2.7-13.81-5.7-20.48-8.98v-25.25c0-5.66 4.58-10.24 10.24-10.24 2.83 0 5.39 1.14 7.24 3 1.86 1.85 3 4.41 3 7.24z"/><path d="m95.83 407.27v48.44c-7.16-5.74-13.99-11.86-20.48-18.32v-30.12c0-5.65 4.58-10.24 10.24-10.24 2.83 0 5.39 1.15 7.24 3s3 4.41 3 7.24z"/><path d="m112.91 301.2v44.31c0 5.65-4.58 10.24-10.24 10.24s-10.24-4.59-10.24-10.24v-44.31z"/><path d="m36.95 345.65v42.9c-8.05-13.26-14.92-27.32-20.48-42.02v-.88c0-5.66 4.58-10.24 10.24-10.24 2.83 0 5.39 1.15 7.24 3s3 4.41 3 7.24z"/></g></g><g id="Laptop_4_"><g><g><path d="m290.47 209.611v128.505c0 10.545-8.545 19.09-19.082 19.09h-205.224c-10.545 0-19.09-8.545-19.09-19.09v-128.505c0-1.118.098-2.22.294-3.289 1.543-8.978 9.37-15.801 18.796-15.801h205.225c10.536 0 19.081 8.545 19.081 19.09z" fill="#a583bb"/><path d="m198.799 357.206h-132.635c-10.545 0-19.09-8.545-19.09-19.09v-128.505c0-1.118.098-2.22.294-3.289 80.563 6.252 144.902 70.394 151.431 150.884z" fill="#9175a7"/><path d="m290.47 209.611v98.552c-7.705 1.779-15.728 2.726-23.971 2.726-58.413 0-105.767-47.354-105.767-105.767 0-4.954.343-9.827 1.004-14.601h109.652c10.537 0 19.082 8.545 19.082 19.09z" fill="#c2aacf"/></g><g><g><path d="m372.25 422.369v12.259c.008.131.008.261 0 .384v.033c-.171 2.024-2.62 3.305-7.207 3.305h-212.627c-8.496 0-21.106-4.366-28.166-9.753l-64.395-49.149c-3.265-2.489-4.766-4.758-4.603-6.48v-12.487h14.618v9.215h205.216c8.496 0 21.106 4.366 28.166 9.753l57.744 44.065v-1.143h11.254z" fill="#9175a7"/><path d="m166.128 404.021c0 11.989-1.91 23.522-5.452 34.328h-8.26c-8.496 0-21.106-4.366-28.166-9.753l-64.395-49.149c-3.265-2.489-4.766-4.758-4.603-6.48v-12.487h14.618v9.215h90.806c3.542 10.805 5.452 22.337 5.452 34.326z" fill="#6c53a2"/><path d="m372.25 422.369v12.259c.008.131.008.261 0 .384v.033c-.171 2.024-2.62 3.305-7.207 3.305h-120.922c-22.322-16.176-38.335-40.523-43.665-68.656h74.63c8.496 0 21.106 4.366 28.166 9.753l57.744 44.065v-1.143z" fill="#a583bb"/></g><g><path d="m365.043 425.862h-212.627c-8.496 0-21.106-4.367-28.166-9.753l-64.395-49.149c-7.06-5.387-5.893-9.753 2.604-9.753h212.627c8.496 0 21.106 4.367 28.166 9.753l18.201 13.891 46.195 35.258c7.059 5.387 5.892 9.753-2.605 9.753z" fill="#c2aacf"/><path d="m367.647 416.109-46.195-35.258-18.201-13.891c-7.06-5.387-19.67-9.753-28.166-9.753h-76.271c1.951 26.632 13.361 50.627 30.876 68.656h135.353c8.497-.001 9.664-4.367 2.604-9.754z" fill="#decee5"/><path d="m166.128 404.021c0 7.476-.743 14.781-2.163 21.841h-11.549c-8.496 0-21.106-4.367-28.166-9.753l-64.395-49.149c-7.06-5.387-5.893-9.753 2.604-9.753h93.263c6.676 14.209 10.406 30.075 10.406 46.814z" fill="#a583bb"/><path d="m321.452 380.85c-11.312 3.55-25.26 5.632-40.351 5.632-37.805 0-68.46-13.108-68.46-29.276h62.445c8.496 0 21.106 4.367 28.166 9.753z" fill="#fff"/></g></g><g><path d="m282.309 216.034v107.497c0 9.582-7.77 17.352-17.352 17.352h-192.37c-9.582 0-17.352-7.77-17.352-17.352v-107.497c0-3.134.832-6.072 2.293-8.611 2.979-5.223 8.611-8.741 15.058-8.741h192.37c9.583.001 17.353 7.77 17.353 17.352z" fill="#334353"/></g><path d="m176.386 343.33h-15.224c-3.155 0-5.713 2.558-5.713 5.713s2.558 5.713 5.713 5.713h15.224c3.155 0 5.713-2.558 5.713-5.713s-2.558-5.713-5.713-5.713z" fill="#6c53a2"/><g><g><g fill="#3e4e60"><path d="m144.034 370.746h-21.106l-.326-.253-5.346-4.081c-.939-.71-.433-2.204.743-2.204h21.098l.326.253 3.958 3.02h.008l1.387 1.061c.931.711.425 2.204-.742 2.204z"/><path d="m128.25 384.76h-20.233l-.318-.245c-.008 0-.008-.008-.016-.008l-7.656-5.844c-.939-.71-.433-2.204.743-2.204h20.233l.326.253 6.276 4.783 1.387 1.061c.931.719.425 2.204-.742 2.204z"/><path d="m178.174 370.746h-21.098l-.326-.253-5.346-4.081c-.939-.71-.433-2.204.743-2.204h21.098l.326.253 3.958 3.02 1.396 1.061c.041.033.082.065.114.098.768.743.262 2.106-.865 2.106z"/><path d="m246.471 370.746h-21.098l-.326-.253-5.354-4.081c-.93-.71-.424-2.204.743-2.204h21.106l.326.253 3.958 3.02 1.387 1.061c.939.711.433 2.204-.742 2.204z"/><path d="m212.323 370.746h-21.098l-.326-.253-5.354-4.081c-.041-.033-.082-.065-.114-.098-.767-.743-.261-2.106.865-2.106h21.098l.326.253 3.958 3.02 1.387 1.061c.939.711.433 2.204-.742 2.204z"/><path d="m182.933 400.438h-21.098l-.294-.228c-.016 0-.025-.008-.033-.016l-9.843-7.517c-.93-.71-.424-2.204.751-2.204h21.098l.326.253 8.447 6.448h.008l1.387 1.061c.041.033.082.065.114.098.769.751.263 2.105-.863 2.105z"/><path d="m285.378 400.438h-21.098l-.245-.188c-.008 0-.008-.008-.016-.008-.025-.016-.049-.033-.073-.049l-8.757-6.693-.073-.057-1.004-.767c-.939-.71-.433-2.204.743-2.204h21.098l.318.245c.008 0 .008.008.016.008l8.447 6.448 1.387 1.061c.938.719.432 2.204-.743 2.204z"/><path d="m217.081 400.438h-21.098l-.294-.228c-.016 0-.024-.008-.033-.016l-9.843-7.517c-.93-.71-.433-2.204.743-2.204h21.098l.318.245c.008 0 .008.008.016.008l8.447 6.448 1.387 1.061c.94.718.434 2.203-.741 2.203z"/><path d="m251.229 400.438h-21.098l-.294-.228c-.016 0-.025-.008-.033-.016l-9.843-7.517c-.93-.71-.433-2.204.743-2.204h21.098l.318.245c.008 0 .008.008.016.008l8.447 6.448 1.387 1.061c.941.718.435 2.203-.741 2.203z"/><path d="m109.886 370.746h-20.07c-.122-.114-.237-.229-.343-.343-.008 0-.008 0-.016-.008-.155-.155-.302-.318-.441-.473-.131-.147-.253-.302-.375-.449v-.008c-.057-.073-.114-.147-.171-.229-.106-.147-.196-.294-.286-.441-.041-.065-.082-.139-.122-.212-.016-.025-.033-.049-.041-.073-.065-.114-.114-.229-.163-.343s-.09-.22-.122-.326c-.008-.041-.024-.073-.033-.106-.073-.253-.106-.498-.106-.726 0-.53.188-1.004.571-1.404.22-.237.514-.457.873-.637.506-.261 1.143-.457 1.91-.579.686-.122 1.485-.18 2.383-.18h11.614l.318.245c.008 0 .008.008.016.008l3.958 3.02 1.387 1.061c.932.71.434 2.203-.741 2.203z"/><path d="m148.792 400.438h-7.99c-1.689 0-3.583-.22-5.566-.612-.988-.196-2-.432-3.012-.71-.514-.139-1.02-.286-1.534-.449-.506-.155-1.02-.327-1.526-.498s-1.012-.359-1.51-.555c-.498-.188-.996-.392-1.485-.596s-.979-.416-1.453-.637c-.473-.22-.947-.449-1.404-.677-.229-.114-.457-.237-.677-.359-.204-.106-.408-.212-.604-.326-.237-.131-.482-.261-.71-.4-.424-.245-.841-.498-1.241-.759-.4-.253-.783-.522-1.151-.784-.18-.131-.359-.269-.539-.4-.939-.71-.433-2.204.743-2.204h20.233l.326.253 8.455 6.448 1.387 1.061c.932.719.426 2.204-.742 2.204z"/><path d="m278.416 370.746h-18.894l-.318-.245c-.008 0-.008-.008-.016-.008l-5.346-4.081c-.93-.71-.433-2.204.743-2.204h7.982c.22 0 .449 0 .677.008.139.008.277.016.416.025.106 0 .204.008.31.016.106 0 .212.016.318.025.22.016.441.033.669.057.033 0 .073.008.106.008.18.016.359.041.539.065.326.041.661.082 1.004.139.253.041.522.082.784.131.277.049.555.098.832.155.09.016.188.041.286.057.041.008.073.016.114.025.294.065.596.131.898.204.245.057.49.114.735.18.09.025.188.049.278.073 1.069.269 2.138.588 3.199.955.359.114.71.245 1.061.367.694.245 1.371.506 2.04.783.147.057.302.122.449.196.163.065.318.13.473.196.057.025.106.049.163.073.335.147.669.302 1.004.457 1.2.556.816 2.343-.506 2.343z"/><path d="m315.78 397.827-.025.196c-.024.131-.065.253-.106.367-.024.065-.057.123-.082.18-.073.139-.163.269-.269.392l-.008.008c-.024.033-.049.049-.073.082-.049.057-.106.106-.163.155s-.122.098-.18.147c-.016.008-.025.016-.033.025 0 0-.008 0-.008.008-.033.016-.057.033-.09.057-.033.016-.057.041-.09.057-.073.049-.155.09-.229.131-.057.033-.122.065-.18.09-.122.065-.253.122-.392.171-.025.008-.049.016-.073.025-.008 0-.016.008-.024.008h-.008c-.147.057-.294.098-.457.147-.212.065-.441.114-.686.155-.082.016-.171.033-.253.041-.163.033-.343.057-.522.074-.106.008-.22.025-.326.033-.057.008-.114.008-.171.016-.065.008-.122.008-.18.008-.139.016-.278.025-.416.025-.229.008-.457.016-.694.016h-11.614l-.245-.188c-.008 0-.008-.008-.016-.008-.024-.016-.049-.033-.073-.049l-8.757-6.693-.073-.057-1.004-.767c-.939-.71-.433-2.204.743-2.204h20.233l.326.253 2.555 1.951c2.098 1.6 3.281 3.085 3.591 4.318.025.098.041.196.057.294.008.016.008.033.008.049.023.169.023.332.007.487z"/><path d="m162.39 384.76h-21.098l-.326-.253-7.664-5.844c-.041-.033-.082-.065-.114-.098-.767-.743-.261-2.106.865-2.106h21.098l.326.253 6.268 4.783h.008l1.387 1.061c.041.033.082.065.114.098.768.751.262 2.106-.864 2.106z"/><path d="m264.835 384.76h-21.098l-.318-.245c-.008 0-.008-.008-.016-.008l-7.656-5.844c-.939-.71-.433-2.204.743-2.204h21.098l.318.245c.008 0 .008.008.016.008l6.268 4.783 1.387 1.061c.939.719.433 2.204-.742 2.204z"/><path d="m196.538 384.76h-21.098l-.326-.253-7.664-5.844c-.93-.71-.424-2.204.751-2.204h21.098l.326.253 6.268 4.783 1.387 1.061c.939.719.433 2.204-.742 2.204z"/><path d="m230.686 384.76h-21.098l-.326-.253-7.664-5.844c-.93-.71-.433-2.204.743-2.204h21.098l.318.245c.008 0 .008.008.016.008l6.268 4.783 1.387 1.061c.94.719.434 2.204-.742 2.204z"/><path d="m298.11 384.76h-20.225l-.318-.245c-.008 0-.008-.008-.016-.008l-7.656-5.844c-.939-.71-.433-2.204.743-2.204h20.233l.326.253 6.276 4.783 1.387 1.061c.931.719.425 2.204-.75 2.204z"/></g><g fill="#3f5d77"><path d="m143.381 367.482h-16.772c-.269 0-.53-.09-.743-.253l-3.958-3.02h17.188l.326.253z"/><path d="m127.605 381.495h-15.907c-.269 0-.531-.09-.751-.253l-6.268-4.783h16.323l.326.253z"/><path d="m177.53 367.482h-16.772c-.269 0-.531-.09-.743-.253l-3.958-3.02h17.188l.326.253z"/><path d="m245.826 367.482h-16.772c-.269 0-.531-.09-.743-.253l-3.958-3.02h17.188l.326.253z"/><path d="m211.678 367.482h-16.772c-.269 0-.53-.09-.743-.253l-3.958-3.02h17.188l.326.253z"/><path d="m182.288 397.174h-16.772c-.269 0-.531-.082-.743-.245l-8.455-6.456h17.197l.326.253z"/><path d="m284.733 397.174h-16.772c-.269 0-.53-.082-.751-.245l-8.447-6.456h17.188l.318.245c.008 0 .008.008.016.008z"/><path d="m216.436 397.174h-16.772c-.269 0-.53-.082-.743-.245l-8.455-6.456h17.188l.318.245c.008 0 .008.008.016.008z"/><path d="m250.585 397.174h-16.772c-.269 0-.531-.082-.743-.245l-8.455-6.456h17.188l.318.245c.008 0 .008.008.016.008z"/><path d="m109.241 367.482h-15.654c-.318 0-.637-.122-.865-.351-.979-1.004-1.567-1.926-1.771-2.742.686-.122 1.485-.18 2.383-.18h11.614l.318.245c.008 0 .008.008.016.008z"/><path d="m148.148 397.174h-4.081c-3.379 0-7.574-.865-11.639-2.269-3.363-1.167-6.644-2.71-9.263-4.432h16.201l.326.253z"/><path d="m276.832 367.482h-13.63c-.269 0-.531-.09-.751-.253l-3.958-3.02h4.073c.22 0 .449 0 .677.008.139.008.277.016.416.025.106 0 .204.008.31.016.106 0 .212.016.318.025.22.016.441.033.669.057.033 0 .073.008.106.008.18.016.359.041.539.065.326.041.661.082 1.004.139.253.041.522.082.784.131.277.049.555.098.832.155.09.016.188.041.286.057.041.008.073.016.114.025.294.065.596.131.898.204.245.057.49.114.735.18.09.025.188.049.278.073 1.069.269 2.138.588 3.199.955.359.114.71.245 1.061.367.694.244 1.371.505 2.04.783z"/><path d="m315.706 396.994c-.694.114-1.494.18-2.4.18h-11.198c-.269 0-.531-.082-.751-.245l-8.447-6.456h16.323l.326.253 2.555 1.951c2.099 1.599 3.282 3.085 3.592 4.317z"/><path d="m161.745 381.495h-16.772c-.269 0-.53-.09-.743-.253l-6.276-4.783h17.197l.326.253z"/><path d="m264.19 381.495h-16.772c-.269 0-.531-.09-.751-.253l-6.268-4.783h17.188l.318.245c.008 0 .008.008.016.008z"/><path d="m195.893 381.495h-16.772c-.269 0-.531-.09-.743-.253l-6.276-4.783h17.197l.326.253z"/><path d="m230.042 381.495h-16.772c-.269 0-.53-.09-.743-.253l-6.276-4.783h17.188l.318.245c.008 0 .008.008.016.008z"/><path d="m297.473 381.495h-15.907c-.269 0-.531-.09-.751-.253l-6.268-4.783h16.323l.326.253z"/></g></g><g><path d="m278.669 419.341h-71.553c-2.857 0-7.101-1.469-9.476-3.289l-3.534-2.693-7.933-6.056c-2.375-1.812-1.983-3.281.873-3.281h71.553c2.857 0 7.101 1.469 9.476 3.281l11.475 8.749c.759.579 1.232 1.126 1.428 1.6.441 1.003-.367 1.689-2.309 1.689z" fill="#3f5d77"/><path d="m278.669 419.341h-71.553c-2.857 0-7.101-1.469-9.476-3.289l-3.534-2.693c-.433-1.004.367-1.681 2.318-1.681h71.545c2.865 0 7.109 1.469 9.484 3.281l3.526 2.693c.44 1.003-.368 1.689-2.31 1.689z" fill="#3e4e60"/></g></g><g fill="#fff"><path d="m250.29 198.683h-52.683c-2.254 0-4.081-1.827-4.081-4.081s1.827-4.081 4.081-4.081h52.683c2.254 0 4.081 1.827 4.081 4.081-.001 2.254-1.828 4.081-4.081 4.081z"/><path d="m349.033 415.545h-51.577c-2.849 0-5.158 2.309-5.158 5.158s2.309 5.158 5.158 5.158h51.577c2.849 0 5.158-2.309 5.158-5.158.001-2.849-2.309-5.158-5.158-5.158z"/></g></g><g><g><path d="m223.014 245.432v59.499c0 2.009-.539 3.894-1.478 5.517-1.222 2.12-3.135 3.798-5.427 4.716-1.27.518-2.665.801-4.122.801h-86.422c-1.464 0-2.859-.283-4.129-.801-2.292-.925-4.205-2.596-5.427-4.716-.939-1.623-1.478-3.508-1.478-5.517v-59.499c0-4.633 2.852-8.604 6.905-10.233 1.271-.518 2.665-.801 4.129-.801h86.422c1.457 0 2.852.283 4.122.801 4.046 1.629 6.905 5.593 6.905 10.233z" fill="#d48d77"/><path d="m128.341 245.432v59.499c0 4.64-2.859 8.604-6.905 10.233-4.053-1.63-6.905-5.6-6.905-10.233v-59.499c0-4.633 2.852-8.604 6.905-10.233 4.046 1.629 6.905 5.593 6.905 10.233z" fill="#c17e62"/><path d="m223.014 245.432v59.499c0 2.009-.539 3.894-1.478 5.517-1.222 2.12-3.135 3.798-5.427 4.716-2.292-.925-4.205-2.596-5.427-4.716-.939-1.623-1.478-3.508-1.478-5.517v-59.499c0-4.633 2.852-8.604 6.905-10.233 4.046 1.629 6.905 5.593 6.905 10.233z" fill="#eea47d"/><path d="m221.536 310.448c-1.906 3.301-5.469 5.517-9.549 5.517h-86.422c-1.464 0-2.859-.283-4.129-.801-2.292-.925-4.205-2.596-5.427-4.716 1.222-2.12 3.135-3.791 5.427-4.716 1.271-.518 2.665-.801 4.129-.801h86.422c4.08 0 7.643 2.217 9.549 5.517z" fill="#a26d5a"/></g><g><path d="m209.702 279.979h-81.86c-7.352 0-13.312-5.96-13.312-13.312v-6.1h108.483v6.1c.001 7.352-5.959 13.312-13.311 13.312z" fill="#a26d5a"/><path d="m223.014 245.432v18.27c0 4.799-3.894 8.693-8.693 8.693h-91.096c-4.799 0-8.693-3.894-8.693-8.693v-18.27c0-4.633 2.852-8.604 6.905-10.233 1.271-.518 2.665-.801 4.129-.801h86.422c1.457 0 2.852.283 4.122.801 4.045 1.629 6.904 5.593 6.904 10.233z" fill="#c17e62"/><path d="m128.341 245.432v26.964h-5.117c-4.799 0-8.693-3.894-8.693-8.693v-18.27c0-4.633 2.852-8.604 6.905-10.233 4.046 1.628 6.905 5.592 6.905 10.232z" fill="#a26d5a"/><path d="m223.014 245.432v18.27c0 4.799-3.894 8.693-8.693 8.693h-5.117v-26.964c0-4.633 2.852-8.604 6.905-10.233 4.046 1.63 6.905 5.594 6.905 10.234z" fill="#d48d77"/><path d="m197.598 240.209h-57.651c-3.341 0-6.049 2.708-6.049 6.049s2.708 6.049 6.049 6.049h57.651c3.341 0 6.049-2.708 6.049-6.049-.001-3.341-2.709-6.049-6.049-6.049z" fill="#d48d77"/><path d="m194.367 247.978h-36.513c-2.145 0-3.884-1.739-3.884-3.884s1.739-3.884 3.884-3.884h36.513c2.145 0 3.884 1.739 3.884 3.884 0 2.144-1.739 3.884-3.884 3.884z" fill="#eea47d"/></g><g><g><path d="m142.82 261.486c-.78-.58-1.747-.918-2.796-.918h-6.96c-1.043 0-2.009.338-2.79.918-1.174.849-1.933 2.237-1.933 3.805v14.21c0 1.567.76 2.955 1.933 3.805.78.58 1.747.918 2.79.918h6.96c1.05 0 2.016-.338 2.796-.918 1.167-.856 1.926-2.244 1.926-3.805v-14.21c.001-1.561-.759-2.949-1.926-3.805zm-1.931 15.741c0 1.52-1.232 2.752-2.751 2.752h-3.183c-1.52 0-2.751-1.232-2.751-2.752v-9.663c0-1.52 1.232-2.751 2.751-2.751h3.183c1.52 0 2.751 1.232 2.751 2.751z" fill="#f9c744"/><path d="m144.747 265.29v14.21c0 1.561-.76 2.948-1.926 3.805-1.174-.856-1.933-2.244-1.933-3.805v-14.21c0-1.561.76-2.948 1.933-3.805 1.166.857 1.926 2.245 1.926 3.805z" fill="#fad98f"/><path d="m132.2 265.29v14.21c0 1.561-.76 2.948-1.926 3.805-1.174-.849-1.933-2.237-1.933-3.805v-14.21c0-1.567.76-2.955 1.933-3.805 1.167.857 1.926 2.245 1.926 3.805z" fill="#f39e22"/><path d="m142.82 261.486c-.78-.58-1.747-.918-2.796-.918h-4.44c.253 1.555.848 2.992 1.696 4.245h.857c1.52 0 2.751 1.232 2.751 2.751v.576c1.168.658 2.47 1.109 3.858 1.287v-4.136c.001-1.561-.759-2.949-1.926-3.805z" fill="#faefdc"/></g><g><path d="m207.277 261.486c-.78-.58-1.747-.918-2.796-.918h-6.96c-1.043 0-2.009.338-2.79.918-1.174.849-1.933 2.237-1.933 3.805v14.21c0 1.567.76 2.955 1.933 3.805.78.58 1.747.918 2.79.918h6.96c1.05 0 2.016-.338 2.796-.918 1.167-.856 1.926-2.244 1.926-3.805v-14.21c.001-1.561-.759-2.949-1.926-3.805zm-1.931 15.741c0 1.52-1.232 2.752-2.751 2.752h-3.183c-1.52 0-2.751-1.232-2.751-2.752v-9.663c0-1.52 1.232-2.751 2.751-2.751h3.183c1.52 0 2.751 1.232 2.751 2.751z" fill="#f9c744"/><path d="m209.204 265.29v14.21c0 1.561-.76 2.948-1.926 3.805-1.174-.856-1.933-2.244-1.933-3.805v-14.21c0-1.561.76-2.948 1.933-3.805 1.166.857 1.926 2.245 1.926 3.805z" fill="#fad98f"/><path d="m196.658 265.29v14.21c0 1.561-.76 2.948-1.926 3.805-1.174-.849-1.933-2.237-1.933-3.805v-14.21c0-1.567.76-2.955 1.933-3.805 1.166.857 1.926 2.245 1.926 3.805z" fill="#f39e22"/><path d="m207.277 261.486c-.78-.58-1.747-.918-2.796-.918h-4.44c.253 1.555.848 2.992 1.696 4.245h.857c1.52 0 2.751 1.232 2.751 2.751v.576c1.168.658 2.47 1.109 3.858 1.287v-4.136c.001-1.561-.759-2.949-1.926-3.805z" fill="#faefdc"/></g></g><g><path d="m192.798 224.089v10.309h-8.279v-6.56c0-3.632-2.948-6.58-6.587-6.58h-18.312c-3.639 0-6.587 2.948-6.587 6.58v6.56h-8.279v-10.309c0-1.084.173-2.127.483-3.1 1.312-4.088 5.144-7.05 9.667-7.05h27.744c4.523 0 8.355 2.962 9.667 7.05.31.973.483 2.016.483 3.1z" fill="#a26d5a"/><path d="m192.314 220.989c-1.105 3.936-4.019 7.105-7.796 8.562v-1.712c0-3.632-2.948-6.58-6.587-6.58h-18.311c-3.639 0-6.587 2.948-6.587 6.58v1.712c-1.699-.656-3.225-1.657-4.488-2.921-1.547-1.547-2.7-3.48-3.307-5.641 1.312-4.088 5.144-7.05 9.667-7.05h27.744c4.521 0 8.354 2.962 9.665 7.05z" fill="#c17e62"/><path d="m182.478 221.258h-21.287c-1.978 0-3.582-1.604-3.582-3.582v-.156c0-1.978 1.604-3.582 3.582-3.582h21.287c1.978 0 3.582 1.604 3.582 3.582v.156c0 1.978-1.604 3.582-3.582 3.582z" fill="#d48d77"/></g></g></g></g><g><g id="Speech-bubble_8_"><path d="m340.399 279.062c4.569 0 9.045-2.231 11.734-6.339l45.178-69.045c4.235-6.473 2.422-15.155-4.052-19.39-6.473-4.236-15.153-2.421-19.39 4.052l-45.178 69.045c-4.235 6.473-2.422 15.155 4.052 19.39 2.365 1.547 5.026 2.287 7.656 2.287z" fill="#ebd9ea"/><path d="m479.14 130.44v42.42c0 12.34-4.18 23.69-11.2 32.74-9.77 12.58-25.04 20.67-42.2 20.67h-135.29c-17.15 0-32.43-8.09-42.19-20.67-7.02-9.05-11.21-20.4-11.21-32.74v-87.48c0-12.34 4.19-23.69 11.21-32.73 9.76-12.58 25.04-20.67 42.19-20.67h89.53c29.71 16.47 55.79 38.68 76.76 65.14 8.3 10.47 15.8 21.61 22.4 33.32z" fill="#ebd9ea"/><path d="m479.14 130.44v42.42c0 12.34-4.18 23.69-11.2 32.74-7.02-9.05-11.2-20.4-11.2-32.74v-75.74c8.3 10.47 15.8 21.61 22.4 33.32z" fill="#fff"/><path d="m259.465 85.38v87.48c0 12.34-4.18 23.69-11.2 32.74-7.03-9.05-11.21-20.4-11.21-32.74v-87.48c0-12.34 4.18-23.69 11.21-32.73 7.02 9.04 11.2 20.39 11.2 32.73z" fill="#c1b7d3"/></g><g><g><path d="m310.901 107.139c-2.058 3.436-6.706 4.206-9.762 1.618l-19.522-16.532c-2.357-1.996-2.65-5.526-.654-7.883 1.996-2.358 5.524-2.652 7.883-.654l9.467 8.017c3.056 2.588 7.704 1.818 9.762-1.618l18.446-30.799c1.587-2.649 5.017-3.513 7.672-1.924 2.649 1.587 3.51 5.022 1.924 7.672z" fill="#528f66"/></g><path d="m320.6 170.672c-2.439-2.439-2.439-6.394 0-8.834l10.463-10.463c2.185-2.183 2.185-5.725 0-7.909-2.182-2.185-5.727-2.185-7.908 0l-10.463 10.463c-2.439 2.439-6.394 2.439-8.834 0l-10.463-10.463c-2.182-2.185-5.727-2.185-7.909 0-2.185 2.183-2.185 5.725 0 7.909l10.463 10.463c2.439 2.439 2.439 6.394 0 8.834l-10.463 10.463c-2.185 2.183-2.185 5.725 0 7.909 1.091 1.092 2.523 1.639 3.954 1.639s2.863-.546 3.954-1.639l10.463-10.463c2.439-2.439 6.394-2.439 8.834 0l10.463 10.463c1.091 1.092 2.523 1.639 3.954 1.639s2.863-.546 3.954-1.639c2.185-2.183 2.185-5.725 0-7.909z" fill="#e9465e"/><g fill="#a583bb"><path d="m434.114 160.039h-84.112c-3.433 0-6.216 2.783-6.216 6.216s2.783 6.216 6.216 6.216h84.112c3.433 0 6.216-2.783 6.216-6.216s-2.783-6.216-6.216-6.216z"/><path d="m434.114 84.687h-84.112c-3.433 0-6.216 2.783-6.216 6.216s2.783 6.216 6.216 6.216h84.112c3.433 0 6.216-2.783 6.216-6.216s-2.783-6.216-6.216-6.216z"/></g></g></g></g></svg>