<svg id="Layer_1" height="512" viewBox="0 0 512 512" width="512" xmlns="http://www.w3.org/2000/svg" data-name="Layer 1"><path d="m448.87 50.35v411.3a33.4 33.4 0 0 1 -33.46 33.35h-318.82a33.4 33.4 0 0 1 -33.46-33.35v-411.3a33.4 33.4 0 0 1 33.46-33.35h318.82a33.4 33.4 0 0 1 33.46 33.35z" fill="#6d7486"/><path d="m273.13 452.06a8.33 8.33 0 0 1 -5.92 14.23h-22.42a8.335 8.335 0 1 1 0-16.67h22.42a8.369 8.369 0 0 1 5.92 2.44z" fill="#4a5160"/><path d="m408.03 54.61v369.57h-305.05v-369.57z" fill="#7ce5e9"/><path d="m361 287.37v-19.37h-211v19.37l24.49 4.19a83.708 83.708 0 0 0 7.66 18.6l-14.53 20.32 26.63 26.48 20.44-14.39c5.85 3.27 12.11 4.97 18.71 6.81l4.22 23.62h37.69l4.23-23.62a83.974 83.974 0 0 0 18.71-7.26l20.46 14.61 26.65-26.36-14.48-20.27c3.29-5.81 4.75-12.01 6.6-18.57z" fill="#eb7288"/><path d="m320.35 268.43v.21c0 35.08-28.62 63.51-63.92 63.51s-63.92-28.43-63.92-63.51v-.21h29.41v.21a34.511 34.511 0 0 0 69.02 0v-.21z" fill="#e75163"/><path d="m364.48 235.48h-216.96a16.536 16.536 0 0 0 -11.72 4.83 16.455 16.455 0 0 0 11.72 28.12h216.96a16.57 16.57 0 0 0 11.72-4.82 16.462 16.462 0 0 0 -11.72-28.13z" fill="#edb740"/><path d="m274.44 115.37h-36.88c-48.99 0-88.71 39.5-88.71 88.22v31.89h214.3v-31.89c0-48.72-39.72-88.22-88.71-88.22z" fill="#fcca3d"/><path d="m275.76 205.89h-39.52a9.071 9.071 0 0 0 -9.1 9.05v20.54h57.72v-20.54a9.071 9.071 0 0 0 -9.1-9.05z" fill="#fff655"/><path d="m102.98 54.61h30v369.57h-30z" fill="#6dc6c6"/><path d="m160.95 251.96a16.365 16.365 0 0 1 4.85-11.65 16.536 16.536 0 0 1 11.72-4.83h-30a16.536 16.536 0 0 0 -11.72 4.83 16.455 16.455 0 0 0 11.72 28.12h30a16.519 16.519 0 0 1 -16.57-16.47z" fill="#ce9e3e"/><path d="m267.56 115.37h-30c-48.99 0-88.71 39.5-88.71 88.22v31.89h30v-31.89c0-48.72 39.72-88.22 88.71-88.22z" fill="#dbae3e"/><path d="m274.17 115.37v90.52h-36.34v-91.06a18.17 18.17 0 0 1 36.34 0z" fill="#fadf4a"/><g fill="#284268"><path d="m415.405 11h-318.805a39.563 39.563 0 0 0 -39.6 39.349v411.3a39.563 39.563 0 0 0 39.6 39.351h318.81a39.563 39.563 0 0 0 39.59-39.349v-411.302a39.563 39.563 0 0 0 -39.595-39.349zm27.595 450.651a27.55 27.55 0 0 1 -27.595 27.349h-318.805a27.55 27.55 0 0 1 -27.6-27.349v-411.302a27.55 27.55 0 0 1 27.6-27.349h318.81a27.55 27.55 0 0 1 27.59 27.349z"/><path d="m267.211 444h-22.422a14 14 0 1 0 0 28h22.422a14 14 0 1 0 0-28zm0 16h-22.422a2.028 2.028 0 1 1 0-4h22.422a2.028 2.028 0 1 1 0 4z"/><path d="m121 166.181a6 6 0 1 0 12 0v-65.756a6 6 0 0 0 -12 0z"/><path d="m127 70.857a6 6 0 0 0 -6 6v4.884a6 6 0 0 0 12 0v-4.884a6 6 0 0 0 -6-6z"/><path d="m408.034 49h-305.054a5.981 5.981 0 0 0 -5.98 5.98v39.02a6 6 0 0 0 12 0v-33h293v357h-293v-282a6 6 0 0 0 -12 0v288.18a5.82 5.82 0 0 0 5.82 5.82h305.214a5.966 5.966 0 0 0 5.966-5.966v-369.068a5.966 5.966 0 0 0 -5.966-5.966z"/><path d="m279.492 109.505a24.106 24.106 0 0 0 -47 0c-49.85 2.659-89.492 43.842-89.492 94.087v25.895a22.847 22.847 0 0 0 -17.976 22.013 22.5 22.5 0 0 0 18.976 22.225v13.641a6 6 0 0 0 4.986 5.913l20.839 3.572a90.3 90.3 0 0 0 5.275 12.849l-12.361 17.29a6 6 0 0 0 .651 7.744l26.627 26.479a6 6 0 0 0 7.683.652l17.492-12.308a87.229 87.229 0 0 0 12.964 4.581l3.557 19.917a6 6 0 0 0 5.906 4.945h37.693a6 6 0 0 0 5.907-4.944l3.568-19.957a89.929 89.929 0 0 0 12.97-4.962l17.466 12.476a6 6 0 0 0 7.707-.613l26.652-26.365a6 6 0 0 0 .662-7.754l-12.364-17.308a84.231 84.231 0 0 0 4.366-12.791l19.8-3.508a6 6 0 0 0 4.954-5.908v-13.51a22.5 22.5 0 0 0 19.976-22.356 22.847 22.847 0 0 0 -17.976-22.013v-25.895c0-50.245-39.66-91.428-89.508-94.087zm.508 12.08c43 2.94 77 38.585 77 82.007v25.408h-66v-14.062c0-6.768-5-12.5-11-14.386zm-36-6.751a12 12 0 1 1 24 0v85.166h-24zm-11 100.1a3.112 3.112 0 0 1 3.235-2.934h39.53a3.112 3.112 0 0 1 3.235 2.938v14.062h-46zm122 67.4-18.571 3.291a6 6 0 0 0 -4.729 4.275c-.249.881-.49 1.756-.729 2.624-1.451 5.257-2.823 10.222-5.31 14.615a6 6 0 0 0 .339 6.445l11.509 16.116-19.425 19.21-16.343-11.674a6 6 0 0 0 -6.415-.355 77.33 77.33 0 0 1 -17.4 6.715 6 6 0 0 0 -4.3 4.724l-3.336 18.68h-27.647l-3.335-18.679a6 6 0 0 0 -4.3-4.725l-.524-.146c-6.069-1.688-11.8-3.282-16.866-6.114a6 6 0 0 0 -6.382.33l-16.328 11.49-19.443-19.335 11.565-16.174a6 6 0 0 0 .34-6.447 77.955 77.955 0 0 1 -7.107-17.266 6 6 0 0 0 -4.761-4.285l-19.502-3.342v-8.307h30.711c2.608 35.722 32.869 64.5 69.719 64.5s67.109-28.782 69.717-64.5h28.853zm-98.57 26.951a40.642 40.642 0 0 0 40.183-35.285h17.5c-2.611 28.8-27.476 52.5-57.681 52.5s-55.074-23.7-57.685-52.5h17.5a40.643 40.643 0 0 0 40.183 35.286zm-28.03-35.285h56.058a28.512 28.512 0 0 1 -56.058 0zm146.649-22.5a10.554 10.554 0 0 1 -10.567 10.5h-216.964a10.5 10.5 0 1 1 0-21h15.482a6 6 0 0 0 0-12h-8v-25.408c0-43.422 34-79.067 77-82.007v78.967c-6 1.884-11 7.618-11 14.386v14.062h-16a6 6 0 0 0 0 12h159.482a10.554 10.554 0 0 1 10.567 10.5z"/></g></svg>