<svg id="Capa_1" enable-background="new 0 0 512 512" height="512" viewBox="0 0 512 512" width="512" xmlns="http://www.w3.org/2000/svg"><g><g><g><path d="m333 7.5c-1.727 0-3.402.219-5 .63-8.626 2.22-14.284 12.835-14.284 22.154l.33 229.216 18.33 2.307 20.624-2.307v-232c0-11.046-8.955-20-20-20z" fill="#b2e5fb"/><path d="m328 8.13v251.37l-8.339 2.307-6.661-2.307-4.771-100.133 4.771-94.867v-37c0-9.32 6.37-17.15 15-19.37z" fill="#98e0f9"/></g><path d="m273.843 259.5-.293-195.803c0-8.283-6.505-14.399-14.359-15.897-1.034-.197-2.101-.3-3.192-.3-9.374 0-17 7.626-17 17v195l-19.326 4.95-20.673-4.95 1.56-192.94c0-31.43 24.011-58.183 55.44-58.183 2.319 0 4.607-.737 6.855-.466 28.209 3.395 50.145 27.479 50.145 56.589v195l-19.674 4.95z" fill="#b2e5fb"/><path d="m263.5 8c-27.9 3.67-49.5 27.61-49.5 56.5v195l-6.229 3.133-8.771-3.133-3.945-102.775 3.945-92.225c0-31.43 25.57-57 57-57 2.54 0 5.05.17 7.5.5z" fill="#98e0f9"/><g><path d="m179 7.5c-1.727 0-3.402.219-5 .63-8.626 2.22-14.284 12.835-14.284 22.154l.33 229.216 18.33 2.307 20.624-2.307v-232c0-11.046-8.955-20-20-20z" fill="#b2e5fb"/><path d="m174 8.13v251.37l-8.339 2.307-6.661-2.307v-232c0-9.32 6.37-17.15 15-19.37z" fill="#98e0f9"/></g><path d="m288 64.5v195l-8.725 3.133-6.275-3.133v-195c-.024-5.358-2.896-12.092-9.5-15.25-2.26-1.12-4.81-1.75-7.5-1.75h15c9.37 0 17 7.63 17 17z" fill="#98e0f9"/><g><path d="m221 477.5h68.11l.482 13-1.078 5.82c-.878 4.74-5.012 8.179-9.833 8.179h-43.081l-1.282-1c-4.821 0-8.955-3.439-9.833-8.179z" fill="#b6c4cf"/><path d="m289.59 490.5h-52.982c-1.876 0-3.292 1.703-2.95 3.548l1.942 10.452h-2.28c-4.82 0-8.96-3.44-9.83-8.18l-3.49-18.82 36-2.665 36 2.665z" fill="#9facba"/><path d="m297.5 477.5h-69.986l-12.014-1c-11.046 0-20-8.954-20-20l1-57h15l47.555-2.775 58.445 2.775v58c0 11.046-8.955 20-20 20z" fill="#f8f7f7"/><path d="m231.5 477.5h-17c-11.05 0-20-8.95-20-20v-58l8.188-2.775 8.812 2.775v58c0 11.05 8.95 20 20 20z" fill="#e8e8e8"/></g><path d="m366.5 265.5v33l-109.172 3.436-110.828-3.436v-32c0-3.31 2.69-6 6-6l9-1h199c3.31 0 6 2.69 6 6z" fill="#b6c4cf"/><path d="m366.5 298.5v15.3c0 7.11-.78 14.2-2.32 21.15-2.48 11.16-6.88 21.71-12.93 31.21-3.999 6.28-8.716 12.101-14.07 17.34-2.745 2.686-7.439 4.422-10.51 6.785l-11.064 7.927-120.106-.333-10.95-8.42c-18.12-13.94-29.114-32.189-34.074-54.509-1.54-6.95-2.32-14.04-2.32-21.15v-15.3z" fill="#f8f7f7"/><path d="m161.5 259.5v39l-10.206 2.61-5.794-2.61v-33c0-3.31 2.69-6 6-6z" fill="#9facba"/><path d="m337.18 383.5c-2.74 2.69-5.66 5.22-8.73 7.58l-10.95 8.42h-123l-10.95-8.42c-18.12-13.94-30.77-33.81-35.73-56.13-1.54-6.95-2.32-14.04-2.32-21.15v-15.3h16v15.3c0 5.92.65 11.87 1.94 17.68 4.14 18.62 14.75 35.28 29.86 46.92l2.868 2.203c2.446 1.879 5.444 2.897 8.528 2.897z" fill="#e8e8e8"/><circle cx="256" cy="349" fill="#b2e5fb" r="15"/></g><g><path d="m360.5 252v-224.5c0-15.163-12.337-27.5-27.5-27.5-13.819 0-25.285 10.248-27.211 23.541-11.84-14.366-29.763-23.541-49.789-23.541s-37.949 9.175-49.789 23.541c-1.926-13.293-13.392-23.541-27.211-23.541-15.164 0-27.5 12.337-27.5 27.5v224.5c-7.444 0-13.5 6.056-13.5 13.5v48.297c0 7.647.841 15.312 2.5 22.778 5.576 27.118 23.682 50.964 46.5 66.618v54.307c0 14.914 11.937 27.085 26.758 27.481l2.353 12.706c1.536 8.293 8.773 14.312 17.208 14.312h45.363c8.435 0 15.671-6.02 17.208-14.313l2.353-12.705c14.819-.396 26.757-12.567 26.757-27.481v-54.307c8.295-6.196 17.244-13.222 24.403-21.865 2.664-3.172 2.252-7.902-.92-10.566-3.171-2.663-7.902-2.252-10.566.92-5.222 6.674-15.515 14.783-22.968 20.318h-117.898c-20.121-13.551-36.854-34.22-41.908-58.679-1.422-6.4-2.143-12.97-2.143-19.524v-7.797h108c4.143 0 7.5-3.357 7.5-7.5s-3.357-7.5-7.5-7.5h-108v-24h206v24h-62.5c-4.143 0-7.5 3.357-7.5 7.5s3.357 7.5 7.5 7.5h62.5v7.797c-.036 9.136-1.531 19.789-5.148 30.005-1.381 3.905.666 8.19 4.571 9.571 3.903 1.378 8.19-.666 9.571-4.571 3.474-9.649 6.047-22.797 6.006-35.005v-48.297c0-7.444-6.056-13.5-13.5-13.5zm-50.5 166h-108v-11h108zm-31.319 79h-45.363c-1.205 0-2.239-.86-2.458-2.044l-1.844-9.956h53.967l-1.844 9.955c-.218 1.185-1.253 2.045-2.458 2.045zm18.819-27c-.081 0-83 0-83 0-6.384 0-11.657-4.813-12.401-11h29.901c4.142 0 7.5-3.357 7.5-7.5s-3.358-7.5-7.5-7.5h-30v-11h108v11h-43c-4.143 0-7.5 3.357-7.5 7.5s3.357 7.5 7.5 7.5h42.901c-.745 6.187-6.017 11-12.401 11zm23-442.5c0-6.893 5.607-12.5 12.5-12.5s12.5 5.607 12.5 12.5v224.5h-25c0-4.374 0-183.016 0-187.5zm-154 0c0-6.893 5.607-12.5 12.5-12.5s12.5 5.607 12.5 12.5v37 54.5c0 4.143 3.358 7.5 7.5 7.5s7.5-3.357 7.5-7.5c0-2.805 0-51.41 0-54.5 0-27.294 22.206-49.5 49.5-49.5s49.5 22.206 49.5 49.5v187.5h-25v-187.5c0-13.51-10.99-24.5-24.5-24.5-13.509 0-24.5 10.99-24.5 24.5v187.5h-25v-98c0-4.143-3.358-7.5-7.5-7.5s-7.5 3.357-7.5 7.5v98h-25zm99 224.5h-19v-187.5c0-5.238 4.262-9.5 9.5-9.5s9.5 4.262 9.5 9.5z"/><path d="m233.5 349c0 12.406 10.093 22.5 22.5 22.5 12.406 0 22.5-10.094 22.5-22.5s-10.094-22.5-22.5-22.5c-12.407 0-22.5 10.094-22.5 22.5zm30 0c0 4.136-3.364 7.5-7.5 7.5s-7.5-3.364-7.5-7.5 3.364-7.5 7.5-7.5 7.5 3.364 7.5 7.5z"/></g></g></svg>