<svg id="Icons" enable-background="new 0 0 512 512" height="512" viewBox="0 0 512 512" width="512" xmlns="http://www.w3.org/2000/svg"><g><circle cx="256" cy="256" fill="#53b976" r="256"/><g fill="#78c795"><path d="m256.168 455.059c-3.612 0-7.268-.099-10.867-.292l-.273-.016c-2.757-.159-4.862-2.522-4.703-5.279.16-2.757 2.535-4.854 5.28-4.703l.195.01c6.54.353 13.084.371 19.584.058 2.764-.127 5.102 1.995 5.235 4.753.133 2.759-1.995 5.103-4.753 5.235-3.22.154-6.484.234-9.698.234z"/><path d="m305.714 448.631c-2.213 0-4.237-1.48-4.83-3.721-.707-2.67.884-5.407 3.554-6.113 6.353-1.683 12.69-3.724 18.834-6.066 2.578-.984 5.469.31 6.453 2.891.984 2.58-.31 5.47-2.891 6.453-6.472 2.468-13.146 4.617-19.837 6.389-.428.113-.859.167-1.283.167z"/><path d="m205.273 448.348c-.431 0-.869-.056-1.305-.174-6.687-1.804-13.349-3.983-19.802-6.479-2.576-.995-3.856-3.891-2.86-6.466.996-2.577 3.891-3.858 6.467-2.86 6.125 2.368 12.451 4.438 18.8 6.15 2.666.719 4.245 3.463 3.525 6.13-.602 2.23-2.62 3.699-4.825 3.699z"/><path d="m361.24 424.059c-1.641 0-3.247-.807-4.204-2.286-1.5-2.319-.835-5.415 1.484-6.914 5.52-3.568 10.915-7.47 16.036-11.596 2.15-1.729 5.298-1.394 7.031.757s1.394 5.298-.756 7.03c-5.391 4.343-11.07 8.45-16.881 12.207-.839.542-1.78.802-2.71.802z"/><path d="m149.881 423.51c-.939 0-1.889-.265-2.733-.817-5.787-3.787-11.442-7.925-16.808-12.3-2.141-1.744-2.461-4.895-.716-7.034 1.745-2.141 4.896-2.461 7.035-.716 5.097 4.154 10.468 8.085 15.965 11.683 2.311 1.512 2.958 4.61 1.446 6.922-.96 1.465-2.558 2.262-4.189 2.262z"/><path d="m406.461 383.566c-1.111 0-2.229-.368-3.158-1.126-2.14-1.746-2.458-4.896-.713-7.035 4.157-5.095 8.09-10.465 11.689-15.959 1.513-2.312 4.612-2.956 6.922-1.443s2.956 4.612 1.443 6.922c-3.789 5.785-7.929 11.438-12.306 16.803-.988 1.21-2.427 1.838-3.877 1.838z"/><path d="m104.9 382.76c-1.46 0-2.907-.636-3.895-1.861-4.344-5.387-8.454-11.064-12.214-16.875-1.5-2.318-.837-5.414 1.481-6.914 2.319-1.503 5.415-.837 6.915 1.48 3.572 5.521 7.476 10.914 11.603 16.031 1.733 2.149 1.396 5.297-.753 7.03-.925.746-2.035 1.109-3.137 1.109z"/><path d="m437.001 331.111c-.601 0-1.21-.108-1.804-.338-2.575-.997-3.854-3.893-2.857-6.468 2.372-6.128 4.443-12.452 6.158-18.797.721-2.666 3.462-4.246 6.131-3.523 2.666.721 4.243 3.466 3.523 6.131-1.806 6.684-3.988 13.345-6.486 19.799-.769 1.982-2.66 3.196-4.665 3.196z"/><path d="m74.628 330.134c-2.014 0-3.911-1.225-4.672-3.218-2.471-6.472-4.624-13.145-6.398-19.834-.708-2.67.882-5.407 3.551-6.115 2.666-.702 5.407.882 6.115 3.551 1.685 6.352 3.728 12.688 6.074 18.832.985 2.58-.308 5.47-2.888 6.454-.586.224-1.189.33-1.782.33z"/><path d="m449.759 271.77c-.094 0-.189-.003-.284-.008-2.757-.154-4.867-2.515-4.712-5.271l.018-.318c.185-3.447.279-6.922.279-10.34 0-3.146-.079-6.329-.235-9.464-.137-2.758 1.987-5.104 4.745-5.242 2.757-.128 5.105 1.987 5.242 4.746.165 3.299.248 6.649.248 9.96 0 3.596-.099 7.252-.293 10.866l-.019.351c-.15 2.661-2.355 4.72-4.989 4.72z"/><path d="m62.169 270.71c-2.65 0-4.86-2.081-4.99-4.757-.158-3.242-.238-6.534-.238-9.785 0-3.596.099-7.252.293-10.866l.008-.159c.143-2.758 2.508-4.883 5.251-4.735 2.758.143 4.877 2.494 4.735 5.251l-.009.17c-.185 3.447-.279 6.922-.279 10.34 0 3.089.076 6.218.227 9.299.134 2.758-1.992 5.103-4.75 5.237-.083.003-.166.005-.248.005z"/><path d="m443.562 211.037c-2.211 0-4.233-1.478-4.829-3.715-1.689-6.348-3.738-12.682-6.09-18.825-.987-2.579.303-5.471 2.882-6.458 2.578-.983 5.47.304 6.457 2.882 2.478 6.472 4.636 13.143 6.416 19.829.71 2.669-.877 5.408-3.546 6.118-.432.114-.864.169-1.29.169z"/><path d="m68.634 210.352c-.43 0-.868-.056-1.303-.173-2.667-.719-4.246-3.462-3.528-6.128 1.801-6.688 3.978-13.352 6.469-19.804.995-2.577 3.89-3.858 6.466-2.863 2.576.994 3.858 3.889 2.863 6.465-2.366 6.126-4.432 12.452-6.142 18.802-.601 2.231-2.62 3.701-4.825 3.701z"/><path d="m418.924 155.552c-1.638 0-3.243-.804-4.2-2.28-3.576-5.515-7.484-10.904-11.617-16.021-1.735-2.148-1.4-5.296.748-7.031 2.146-1.735 5.295-1.402 7.031.748 4.351 5.386 8.464 11.06 12.229 16.863 1.502 2.317.842 5.413-1.475 6.916-.841.544-1.784.805-2.716.805z"/><path d="m93.44 154.957c-.938 0-1.887-.265-2.731-.816-2.312-1.511-2.96-4.609-1.449-6.921 3.786-5.79 7.921-11.447 12.292-16.812 1.744-2.143 4.894-2.464 7.035-.72s2.463 4.894.719 7.034c-4.151 5.098-8.08 10.471-11.675 15.971-.96 1.466-2.559 2.264-4.191 2.264z"/><path d="m378.366 110.375c-1.109 0-2.226-.367-3.153-1.122-5.098-4.148-10.473-8.074-15.975-11.668-2.312-1.511-2.962-4.609-1.452-6.921s4.607-2.961 6.92-1.452c5.792 3.784 11.451 7.917 16.818 12.285 2.142 1.743 2.465 4.892.722 7.034-.987 1.214-2.428 1.844-3.88 1.844z"/><path d="m134.177 109.951c-1.459 0-2.906-.636-3.894-1.859-1.734-2.149-1.398-5.297.75-7.031 5.387-4.349 11.063-8.46 16.871-12.222 2.319-1.502 5.414-.839 6.915 1.478 1.501 2.318.839 5.414-1.479 6.915-5.517 3.573-10.909 7.479-16.026 11.61-.924.746-2.035 1.109-3.137 1.109z"/><path d="m325.872 79.907c-.598 0-1.206-.107-1.798-.336-6.127-2.362-12.455-4.426-18.805-6.134-2.667-.717-4.248-3.459-3.531-6.126s3.46-4.247 6.126-3.53c6.689 1.798 13.353 3.971 19.807 6.46 2.577.993 3.86 3.888 2.866 6.464-.765 1.985-2.659 3.202-4.665 3.202z"/><path d="m186.788 79.658c-2.013 0-3.91-1.224-4.671-3.216-.986-2.579.306-5.47 2.885-6.456 6.472-2.473 13.144-4.628 19.832-6.405 2.667-.708 5.407.879 6.116 3.548s-.879 5.407-3.548 6.116c-6.35 1.688-12.685 3.734-18.83 6.083-.588.224-1.191.33-1.784.33z"/><path d="m266.52 67.231c-.116 0-.232-.004-.349-.012l.344-4.988-.355 4.987c-6.53-.35-13.197-.368-19.708-.047-2.764.124-5.104-1.99-5.24-4.748s1.99-5.104 4.748-5.24c6.852-.339 13.866-.32 20.74.05l.16.01c2.755.19 4.834 2.577 4.644 5.332-.183 2.638-2.38 4.656-4.984 4.656z"/></g><g><g><path d="m355.533 339.554v109.182c0 3.687-.988 7.146-2.712 10.124-2.243 3.89-5.752 6.969-9.959 8.654-2.331.95-4.891 1.47-7.564 1.47h-158.584c-2.686 0-5.246-.519-7.577-1.47-4.207-1.698-7.716-4.764-9.959-8.654-1.723-2.978-2.712-6.437-2.712-10.124v-109.182c0-8.502 5.233-15.788 12.671-18.778 2.331-.95 4.891-1.47 7.577-1.47h158.584c2.673 0 5.233.52 7.564 1.47 7.426 2.991 12.671 10.264 12.671 18.778z" fill="#d48d77"/><path d="m181.808 339.554v109.182c0 8.515-5.246 15.788-12.671 18.778-7.438-2.99-12.671-10.276-12.671-18.778v-109.182c0-8.502 5.233-15.788 12.671-18.778 7.425 2.991 12.671 10.264 12.671 18.778z" fill="#c17e62"/><path d="m355.533 339.554v109.182c0 3.687-.988 7.146-2.712 10.124-2.243 3.89-5.752 6.969-9.959 8.654-4.207-1.698-7.716-4.764-9.959-8.654-1.723-2.978-2.712-6.437-2.712-10.124v-109.182c0-8.502 5.233-15.788 12.671-18.778 7.426 2.991 12.671 10.264 12.671 18.778z" fill="#eea47d"/><path d="m352.822 458.86c-3.497 6.057-10.035 10.124-17.523 10.124h-158.585c-2.686 0-5.246-.519-7.577-1.47-4.207-1.698-7.716-4.764-9.959-8.654 2.243-3.89 5.752-6.956 9.959-8.654 2.331-.95 4.891-1.47 7.577-1.47h158.584c7.489 0 14.027 4.068 17.524 10.124z" fill="#a26d5a"/></g><g><path d="m331.107 402.948h-150.214c-13.491 0-24.427-10.936-24.427-24.427v-11.193h199.067v11.193c0 13.491-10.936 24.427-24.426 24.427z" fill="#a26d5a"/><path d="m355.533 339.554v33.526c0 8.806-7.146 15.952-15.952 15.952h-167.162c-8.806 0-15.952-7.146-15.952-15.952v-33.526c0-8.502 5.233-15.788 12.671-18.778 2.331-.95 4.891-1.47 7.577-1.47h158.584c2.673 0 5.233.52 7.564 1.47 7.425 2.991 12.67 10.264 12.67 18.778z" fill="#c17e62"/><path d="m181.808 339.554v49.478h-9.389c-8.806 0-15.952-7.146-15.952-15.952v-33.526c0-8.502 5.233-15.788 12.671-18.778 7.424 2.991 12.67 10.264 12.67 18.778z" fill="#a26d5a"/><path d="m355.533 339.554v33.526c0 8.806-7.146 15.952-15.952 15.952h-9.389v-49.478c0-8.502 5.233-15.788 12.671-18.778 7.425 2.991 12.67 10.264 12.67 18.778z" fill="#d48d77"/><path d="m308.895 329.97h-105.79c-6.13 0-11.099 4.969-11.099 11.099s4.969 11.099 11.099 11.099h105.79c6.13 0 11.099-4.969 11.099-11.099s-4.969-11.099-11.099-11.099z" fill="#d48d77"/><path d="m302.967 344.226h-67.002c-3.937 0-7.128-3.191-7.128-7.128s3.191-7.128 7.128-7.128h67.002c3.937 0 7.128 3.191 7.128 7.128s-3.192 7.128-7.128 7.128z" fill="#eea47d"/></g><g><g><path d="m208.378 369.013c-1.432-1.064-3.206-1.685-5.132-1.685h-12.772c-1.913 0-3.687.621-5.119 1.685-2.154 1.558-3.548 4.105-3.548 6.981v26.076c0 2.876 1.394 5.423 3.548 6.982 1.432 1.064 3.206 1.685 5.119 1.685h12.772c1.926 0 3.7-.621 5.132-1.685 2.141-1.571 3.535-4.118 3.535-6.982v-26.076c0-2.863-1.394-5.409-3.535-6.981zm-3.545 28.886c0 2.789-2.26 5.049-5.049 5.049h-5.841c-2.788 0-5.049-2.26-5.049-5.049v-17.733c0-2.788 2.26-5.049 5.049-5.049h5.841c2.789 0 5.049 2.26 5.049 5.049z" fill="#f9c744"/><path d="m211.913 375.995v26.076c0 2.864-1.394 5.41-3.535 6.982-2.154-1.571-3.548-4.118-3.548-6.982v-26.076c0-2.864 1.394-5.41 3.548-6.981 2.141 1.571 3.535 4.117 3.535 6.981z" fill="#fad98f"/><path d="m188.89 375.995v26.076c0 2.864-1.394 5.41-3.535 6.982-2.154-1.558-3.548-4.105-3.548-6.982v-26.076c0-2.876 1.394-5.423 3.548-6.981 2.142 1.571 3.535 4.117 3.535 6.981z" fill="#f39e22"/><path d="m208.378 369.013c-1.432-1.064-3.206-1.685-5.132-1.685h-8.147c.464 2.853 1.556 5.491 3.113 7.789h1.572c2.789 0 5.049 2.26 5.049 5.049v1.057c2.144 1.208 4.532 2.034 7.08 2.361v-7.59c0-2.863-1.394-5.409-3.535-6.981z" fill="#faefdc"/></g><g><path d="m326.657 369.013c-1.432-1.064-3.206-1.685-5.132-1.685h-12.772c-1.913 0-3.687.621-5.119 1.685-2.154 1.558-3.548 4.105-3.548 6.981v26.076c0 2.876 1.394 5.423 3.548 6.982 1.432 1.064 3.206 1.685 5.119 1.685h12.772c1.926 0 3.7-.621 5.132-1.685 2.141-1.571 3.535-4.118 3.535-6.982v-26.076c0-2.863-1.393-5.409-3.535-6.981zm-3.544 28.886c0 2.789-2.26 5.049-5.049 5.049h-5.841c-2.788 0-5.049-2.26-5.049-5.049v-17.733c0-2.788 2.26-5.049 5.049-5.049h5.841c2.789 0 5.049 2.26 5.049 5.049z" fill="#f9c744"/><path d="m330.192 375.995v26.076c0 2.864-1.394 5.41-3.535 6.982-2.154-1.571-3.548-4.118-3.548-6.982v-26.076c0-2.864 1.394-5.41 3.548-6.981 2.142 1.571 3.535 4.117 3.535 6.981z" fill="#fad98f"/><path d="m307.17 375.995v26.076c0 2.864-1.394 5.41-3.535 6.982-2.154-1.558-3.548-4.105-3.548-6.982v-26.076c0-2.876 1.394-5.423 3.548-6.981 2.141 1.571 3.535 4.117 3.535 6.981z" fill="#f39e22"/><path d="m326.657 369.013c-1.432-1.064-3.206-1.685-5.132-1.685h-8.147c.464 2.853 1.556 5.491 3.113 7.789h1.572c2.789 0 5.049 2.26 5.049 5.049v1.057c2.144 1.208 4.532 2.034 7.08 2.361v-7.59c0-2.863-1.393-5.409-3.535-6.981z" fill="#faefdc"/></g></g><g><path d="m300.087 300.39v18.917h-15.192v-12.037c0-6.665-5.41-12.075-12.088-12.075h-33.602c-6.677 0-12.088 5.41-12.088 12.075v12.037h-15.192v-18.917c0-1.989.317-3.902.887-5.689 2.407-7.501 9.44-12.937 17.739-12.937h50.91c8.299 0 15.331 5.436 17.739 12.937.57 1.786.887 3.7.887 5.689z" fill="#a26d5a"/><path d="m299.2 294.701c-2.027 7.222-7.374 13.038-14.305 15.712v-3.142c0-6.665-5.41-12.075-12.088-12.075h-33.602c-6.677 0-12.088 5.41-12.088 12.075v3.142c-3.117-1.204-5.917-3.041-8.236-5.36-2.838-2.838-4.954-6.386-6.069-10.352 2.407-7.501 9.44-12.937 17.739-12.937h50.91c8.3 0 15.332 5.436 17.739 12.937z" fill="#c17e62"/><path d="m281.151 295.195h-39.062c-3.63 0-6.572-2.942-6.572-6.572v-.286c0-3.63 2.942-6.572 6.572-6.572h39.062c3.63 0 6.572 2.943 6.572 6.572v.286c0 3.629-2.943 6.572-6.572 6.572z" fill="#d48d77"/></g></g><g><g><g><path d="m334.538 107.327v116.541c0 4.662-2.811 8.659-6.83 10.403h-.005c-1.379.596-2.897.928-4.496.928h-134.417c-1.599 0-3.117-.333-4.496-.928-4.018-1.738-6.835-5.741-6.835-10.403v-116.541l78.54-78.779z" fill="#fbcb74"/><path d="m334.538 107.327v116.541c0 4.662-2.811 8.659-6.83 10.403h-.005c-4.013-1.744-6.83-5.741-6.83-10.403v-116.541c0-4.657 2.817-8.654 6.83-10.403h.005c4.019 1.744 6.83 5.746 6.83 10.403z" fill="#faefdc"/><path d="m191.124 107.327v116.541c0 4.662-2.811 8.665-6.83 10.403-4.018-1.738-6.835-5.741-6.835-10.403v-116.541c0-4.657 2.817-8.659 6.835-10.403 4.018 1.744 6.83 5.746 6.83 10.403z" fill="#deb36f"/><path d="m303.798 101.273c0 3.773-3.059 6.832-6.832 6.832h-81.933c-3.773 0-6.832-3.059-6.832-6.832s3.059-6.832 6.832-6.832h81.933c3.773 0 6.832 3.059 6.832 6.832z" fill="#fbd9a3"/></g><g><path d="m286.75 201.97h-61.5c-7.069 0-12.8-5.731-12.8-12.8v-61.5c0-7.069 5.731-12.8 12.8-12.8h61.5c7.069 0 12.8 5.731 12.8 12.8v61.5c.001 7.069-5.73 12.8-12.8 12.8z" fill="#c4983d"/><g><g><path d="m253.463 129.606v19.04c0 .041 0 .091-.01.132-.061 3.938-3.268 7.104-7.226 7.104h-19.04c-3.999 0-7.247-3.238-7.247-7.236v-19.04c0-3.958 3.177-7.175 7.115-7.236.041-.01.091-.01.132-.01h19.04c3.998-.001 7.236 3.247 7.236 7.246z" fill="#6052a3"/><path d="m253.463 129.606v19.04c0 .041 0 .091-.01.132-.041.01-.091.01-.132.01h-9.195c-9.439 0-17.081-7.652-17.081-17.081v-9.205c0-.041 0-.091.01-.132.041-.01.091-.01.132-.01h19.04c3.998-.001 7.236 3.247 7.236 7.246z" fill="#57409b"/><path d="m244.65 145.518c-2.428 0-4.396-1.968-4.396-4.396v-10.862c0-2.428 1.968-4.396 4.396-4.396s4.396 1.968 4.396 4.396v10.862c.001 2.427-1.968 4.396-4.396 4.396z" fill="#9175a7"/></g><g><path d="m292.06 129.606v19.04c0 .041 0 .091-.01.132-.061 3.938-3.268 7.104-7.226 7.104h-19.04c-3.999 0-7.246-3.238-7.246-7.236v-19.04c0-3.958 3.177-7.175 7.115-7.236.041-.01.091-.01.132-.01h19.04c3.997-.001 7.235 3.247 7.235 7.246z" fill="#6052a3"/><path d="m292.06 129.606v19.04c0 .041 0 .091-.01.132-.041.01-.091.01-.132.01h-9.195c-9.439 0-17.081-7.652-17.081-17.081v-9.205c0-.041 0-.091.01-.132.041-.01.091-.01.132-.01h19.04c3.998-.001 7.236 3.247 7.236 7.246z" fill="#57409b"/><path d="m283.247 145.518c-2.428 0-4.396-1.968-4.396-4.396v-10.862c0-2.428 1.968-4.396 4.396-4.396s4.396 1.968 4.396 4.396v10.862c.001 2.427-1.968 4.396-4.396 4.396z" fill="#9175a7"/></g><g><path d="m253.463 168.203v19.04c0 .041 0 .091-.01.132-.061 3.938-3.268 7.104-7.226 7.104h-19.04c-3.999 0-7.247-3.238-7.247-7.236v-19.04c0-3.958 3.177-7.175 7.115-7.236.041-.01.091-.01.132-.01h19.04c3.998-.001 7.236 3.247 7.236 7.246z" fill="#6052a3"/><path d="m253.463 168.203v19.04c0 .041 0 .091-.01.132-.041.01-.091.01-.132.01h-9.195c-9.439 0-17.081-7.652-17.081-17.081v-9.205c0-.041 0-.091.01-.132.041-.01.091-.01.132-.01h19.04c3.998-.001 7.236 3.247 7.236 7.246z" fill="#57409b"/><path d="m244.65 184.115c-2.428 0-4.396-1.968-4.396-4.396v-10.862c0-2.428 1.968-4.396 4.396-4.396s4.396 1.968 4.396 4.396v10.862c.001 2.428-1.968 4.396-4.396 4.396z" fill="#9175a7"/></g><g><path d="m292.06 168.203v19.04c0 .041 0 .091-.01.132-.061 3.938-3.268 7.104-7.226 7.104h-19.04c-3.999 0-7.246-3.238-7.246-7.236v-19.04c0-3.958 3.177-7.175 7.115-7.236.041-.01.091-.01.132-.01h19.04c3.997-.001 7.235 3.247 7.235 7.246z" fill="#6052a3"/><path d="m292.06 168.203v19.04c0 .041 0 .091-.01.132-.041.01-.091.01-.132.01h-9.195c-9.439 0-17.081-7.652-17.081-17.081v-9.205c0-.041 0-.091.01-.132.041-.01.091-.01.132-.01h19.04c3.998-.001 7.236 3.247 7.236 7.246z" fill="#57409b"/><path d="m283.247 184.115c-2.428 0-4.396-1.968-4.396-4.396v-10.862c0-2.428 1.968-4.396 4.396-4.396s4.396 1.968 4.396 4.396v10.862c.001 2.428-1.968 4.396-4.396 4.396z" fill="#9175a7"/></g></g></g><g><path d="m363.172 124.383c0 2.43-.928 4.855-2.779 6.706-3.723 3.723-9.77 3.702-13.466-.048l-84.173-85.434c-3.713-3.772-9.797-3.772-13.509 0l-84.173 85.434c-1.856 1.883-4.308 2.827-6.755 2.827-2.43 0-4.861-.928-6.712-2.779-3.128-3.128-3.611-7.897-1.459-11.535.397-.671.885-1.304 1.459-1.878l97.704-97.698c3.702-3.707 9.711-3.702 13.413 0l97.672 97.698c.574.574 1.062 1.207 1.459 1.878.879 1.486 1.319 3.155 1.319 4.829z" fill="#e9465e"/><path d="m361.852 119.554c-.397.671-.885 1.304-1.459 1.878v.005c-3.723 3.723-9.77 3.697-13.466-.054l-84.174-85.433c-3.713-3.772-9.797-3.772-13.509 0l-84.173 85.434c-1.856 1.883-4.308 2.827-6.76 2.827-2.43 0-4.855-.923-6.706-2.774-.579-.579-1.062-1.213-1.459-1.883.397-.671.885-1.304 1.459-1.878l97.704-97.698c3.702-3.707 9.711-3.702 13.413 0l97.672 97.698c.573.574 1.061 1.207 1.458 1.878z" fill="#ee6781"/><g fill="#f789a1"><path d="m189.403 88.573-.277-.272c-2.264-2.222-2.281-5.863-.038-8.106l36.82-36.818c2.214-2.214 5.799-2.23 8.033-.035 2.25 2.211 2.279 5.827.066 8.074l-36.543 37.09c-2.208 2.241-5.815 2.271-8.061.067z"/><path d="m322.6 88.572.271-.266c2.269-2.224 2.288-5.873.041-8.121l-36.798-36.808c-2.215-2.216-5.801-2.235-8.039-.042-2.259 2.213-2.292 5.84-.072 8.093l36.527 37.074c2.211 2.244 5.82 2.275 8.07.07z"/></g></g></g></g><g><path d="m95.486 174.668c-3.505 0-6.921.34-10.212 1.019-9.228 1.824-17.562 6.116-24.322 12.143-10.641 9.496-17.33 23.303-17.33 38.683 0 21.425 28.99 73.288 43.619 98.111 3.702 6.277 12.769 6.277 16.471 0 3.273-5.562 7.297-12.501 11.517-20.137.358-.608.698-1.234 1.037-1.86 14.432-26.182 31.065-59.875 31.065-76.114.001-28.632-23.213-51.845-51.845-51.845zm0 72.519c-1.413 0-2.79-.143-4.113-.393-9.461-1.931-16.561-10.283-16.561-20.28 0-7.672 4.185-14.379 10.408-17.938 3.022-1.735 6.528-2.718 10.265-2.718 11.41 0 20.656 9.246 20.656 20.656.001 11.409-9.245 20.673-20.655 20.673z" fill="#e9465e"/><path d="m147.332 226.513c0 16.239-16.632 49.932-31.065 76.114-.34.626-.679 1.252-1.037 1.86-10.534-17.759-18.635-37.145-23.857-57.694 1.323.25 2.701.393 4.113.393 11.41 0 20.656-9.264 20.656-20.674s-9.246-20.656-20.656-20.656c-3.738 0-7.243.984-10.265 2.718-.393-5.294-.59-10.641-.59-16.024 0-5.669.215-11.303.644-16.865 3.291-.68 6.706-1.019 10.212-1.019 28.631.002 51.845 23.215 51.845 51.847z" fill="#ee6781"/></g><g><path d="m444.48 314.66c.059 10.652-6.744 17.155-17.45 17.05-10.995.236-17.893-6.605-17.65-17.05-.031-11.38 6.352-17.062 17.65-17.04 10.303-.244 17.702 5.988 17.45 17.04z" fill="#57409b"/><path d="m435.35 305.54c.245 14.376-12.579 19.7-24.96 15.91-2.11-6.057-.973-15.75 3.5-19.52 4.038-4.361 14.262-5.391 20.46-3.23.67 2.01 1 4.28 1 6.84z" fill="#6052a3"/><path d="m477.97 216.69c-.461 18.253-8.055 25.086-24.07 37.1-9.938 7.872-14.575 10.132-14.74 20.56h-.12c-2.172 16.887-26.091 15.493-26.44-1.4h-.01c.279-15.169 6.185-22.053 19.15-31.89 10.464-7.925 16.895-12.042 17.25-22.76.166-10.085-9.427-13.497-18.25-13.34-10.03 0-12.05.26-24.88 6.81l-.05-.08c-6.778 3.695-15.743-.626-17.34-7.99-1.448-5.514 1.56-11.512 6.49-13.83l-.03-.06c14.9-8.36 21.3-9.52 38.01-9.52 23.87-.342 45.061 11.815 45.03 36.4z" fill="#57409b"/><path d="m463.53 188.53c-7.86-5.5-18.05-8.24-30.59-8.24-16.71 0-23.11 1.16-38.01 9.52l.03.06c-4.929 2.317-7.939 8.315-6.49 13.83 2.75.736 5.925.305 8.38-.98l.04.08c12.84-6.55 14.86-6.81 24.88-6.81 11.267 0 27.22-.262 27.22 22.31-.352 10.714-6.786 14.836-17.25 22.76-12.963 9.833-18.875 16.727-19.15 31.89h.01c-.041 1.354.173 2.695.54 3.93 7.849 2.478 16.329-3.384 16.93-11.5l.13.01c.152-10.418 4.804-12.697 14.73-20.56 9.37-6.68 15.72-12.7 19.06-18.05 6.719-10.351 6.797-28.047-.46-38.25z" fill="#6052a3"/></g></g></svg>