<svg id="Layer_1" height="512" viewBox="0 0 512 512" width="512" xmlns="http://www.w3.org/2000/svg" data-name="Layer 1"><path d="m341.87 43h-290.4a32.438 32.438 0 0 0 -32.47 32.24v387.55a32.412 32.412 0 0 0 32.47 32.21h290.4a32.122 32.122 0 0 0 32.13-32.21v-387.55a32.147 32.147 0 0 0 -32.13-32.24zm-114.76 18.23a17.83 17.83 0 1 1 -17.87 17.83 17.846 17.846 0 0 1 17.87-17.83zm-67.25 0a17.83 17.83 0 1 1 -17.87 17.83 17.848 17.848 0 0 1 17.87-17.83zm-67.25 0a17.83 17.83 0 1 1 -17.86 17.83 17.848 17.848 0 0 1 17.86-17.83zm201.75 35.66a17.83 17.83 0 1 1 17.86-17.83 17.848 17.848 0 0 1 -17.86 17.83z" fill="#9ac5a1"/><path d="m488.34 286.51a27.158 27.158 0 0 0 -37.56-7.76l-2.27 1.49 29.79 45.25 2.27-1.49a27.028 27.028 0 0 0 7.77-37.49z" fill="#b3d1e7"/><path d="m275.15 393.88-.68 1.28-24.08 45.4 54.54-1.43z" fill="#c79a83"/><path d="m448.51 280.24-173.36 113.64 14.89 22.62 173.37-113.63z" fill="#fb6771"/><path d="m463.41 302.87-173.37 113.63 14.89 22.63 173.37-113.64z" fill="#e75163"/><path d="m207.12 140.33h-33.45c-44.45 0-80.48 35.86-80.48 80.1v28.96h194.4v-28.96c0-44.24-36.03-80.1-80.47-80.1z" fill="#fcca3d"/><path d="m287.9 249.39h-196.83a13.772 13.772 0 0 0 -9.83 4.38 15.263 15.263 0 0 0 -4.29 10.58 15 15 0 0 0 15.03 14.96h196.82a14.989 14.989 0 0 0 15.03-14.96c0-8.26-6.73-14.96-15.93-14.96z" fill="#edb740"/><path d="m208.32 223.61h-35.86a8.237 8.237 0 0 0 -8.25 8.21v17.57h52.36v-17.57a8.23 8.23 0 0 0 -8.25-8.21z" fill="#fff655"/><path d="m49 462.79v-387.55a32.438 32.438 0 0 1 32.47-32.24h-30a32.438 32.438 0 0 0 -32.47 32.24v387.55a32.412 32.412 0 0 0 32.47 32.21h30a32.412 32.412 0 0 1 -32.47-32.21z" fill="#81aa86"/><path d="m203.67 140.33h-30c-44.45 0-80.48 35.86-80.48 80.1v28.96h30v-28.96c0-44.24 36.03-80.1 80.48-80.1z" fill="#e0b036"/><path d="m106.95 264.35a15.263 15.263 0 0 1 4.29-10.58 13.772 13.772 0 0 1 9.83-4.38h-30a13.772 13.772 0 0 0 -9.83 4.38 15.263 15.263 0 0 0 -4.29 10.58 15 15 0 0 0 15.03 14.96h30a15 15 0 0 1 -15.03-14.96z" fill="#d39f37"/><path d="m202.04 128.24a16.5 16.5 0 0 0 -28.13 11.6v83.77h32.96v-83.77a16.331 16.331 0 0 0 -4.83-11.6z" fill="#fadf4a"/><g fill="#284268"><path d="m46 111.425a6 6 0 0 0 -6 6v121.756a6 6 0 1 0 12 0v-121.756a6 6 0 0 0 -6-6z"/><path d="m46 87.857a6 6 0 0 0 -6 6v4.884a6 6 0 0 0 12 0v-4.884a6 6 0 0 0 -6-6z"/><path d="m166.319 320a6 6 0 0 0 6 6h161.333a6 6 0 1 0 0-12h-161.333a6 6 0 0 0 -6 6z"/><path d="m107.475 319.536-14.662 13.992-6.133-6.122a6 6 0 1 0 -8.48 8.494l10.278 10.259a6 6 0 0 0 8.381.094l18.9-18.036a6 6 0 1 0 -8.285-8.68z"/><path d="m107.475 394.684-14.662 13.992-6.133-6.121a6 6 0 1 0 -8.477 8.493l10.278 10.259a6 6 0 0 0 8.381.093l18.9-18.035a6 6 0 0 0 -8.285-8.681z"/><path d="m258.363 335h-86.044a6 6 0 1 0 0 12h86.044a6 6 0 1 0 0-12z"/><path d="m91.979 285h196.821a20.935 20.935 0 0 0 5.2-41.286v-23.279c0-45.775-36.261-83.315-81.577-85.954a22.658 22.658 0 0 0 -43.9 0c-45.323 2.639-81.523 40.179-81.523 85.954v22.983c-9 1.953-16.145 10.6-16.145 20.582a21.135 21.135 0 0 0 21.124 21zm121.021-138.43c38 2.938 69 34.932 69 73.865v22.565h-59v-11.179a14.033 14.033 0 0 0 -10-13.454zm-33-6.725a10.5 10.5 0 0 1 21 0v78.155h-21zm-10 91.976c0-1.219 1.221-1.821 2.461-1.821h35.86c1.24 0 2.679.6 2.679 1.821v11.179h-41zm-78.926 23.179h9.926a6 6 0 0 0 0-12h-2v-22.565c0-38.933 31-70.927 69-73.865v71.8a14.033 14.033 0 0 0 -10 13.454v11.176h-15a6 6 0 0 0 0 12h144.9c5.663 0 9.934 3.892 9.934 9a9.039 9.039 0 0 1 -9.029 9h-196.826a9.039 9.039 0 0 1 -9.029-9c0-5.128 4.289-9 8.124-9z"/><path d="m447.422 273.736-67.422 44.15v-242.645a38.194 38.194 0 0 0 -38.132-38.241h-41.868v-20a6 6 0 0 0 -12 0v20h-55v-20a6 6 0 0 0 -12 0v20h-55v-20a6 6 0 0 0 -12 0v20h-55v-20a6 6 0 0 0 -12 0v20h-35.532a38.483 38.483 0 0 0 -38.468 38.241v387.552a38.453 38.453 0 0 0 38.468 38.207h290.4a38.164 38.164 0 0 0 38.132-38.207v-65.783l103.79-67.988a32.991 32.991 0 0 0 14.863-24.865 32.576 32.576 0 0 0 -3.208-17.184 33.206 33.206 0 0 0 -48.023-13.237zm-153.067-206.507a11.832 11.832 0 1 1 -11.865 11.832 11.863 11.863 0 0 1 11.865-11.832zm-67.247 0a11.832 11.832 0 1 1 -11.866 11.832 11.862 11.862 0 0 1 11.866-11.832zm-67.248 0a11.832 11.832 0 1 1 -11.86 11.832 11.862 11.862 0 0 1 11.86-11.832zm-67.248 0a11.832 11.832 0 1 1 -11.865 11.832 11.863 11.863 0 0 1 11.865-11.832zm275.388 395.564a26.151 26.151 0 0 1 -26.132 26.207h-290.4a26.44 26.44 0 0 1 -26.468-26.207v-387.552a26.469 26.469 0 0 1 26.468-26.241h35.532v6.993a23.26 23.26 0 0 0 -18.059 23.068 23.89 23.89 0 0 0 47.779 0 24.052 24.052 0 0 0 -17.72-23.068v-6.993h55v6.993a24.244 24.244 0 0 0 -17.935 23.068 23.874 23.874 0 0 0 47.748 0 24.135 24.135 0 0 0 -17.813-23.068v-6.993h55v6.993a23.837 23.837 0 0 0 6.081 46.9 23.841 23.841 0 0 0 23.825-23.832 24.218 24.218 0 0 0 -17.906-23.068v-6.993h55v6.993a23.856 23.856 0 0 0 6.267 46.9 23.762 23.762 0 0 0 23.733-23.832 23.208 23.208 0 0 0 -18-23.068v-6.993h41.868a26.181 26.181 0 0 1 26.132 26.241v250.51l-26.188 17.211a6.014 6.014 0 0 0 6.629 10.038l98.343-64.457 8.3 12.6-163.328 107.057-8.295-12.6 29.87-19.579a6 6 0 1 0 -6.578-10.036l-34.886 22.867c-.068.044-.127.1-.194.146h-99.354a6 6 0 1 0 0 12h92.259l-5.3 10h-86.959a6 6 0 1 0 0 12h80.594l-7.819 14.746a6 6 0 0 0 5.3 8.811h.113l54.493-1.427v-.008a6.116 6.116 0 0 0 3.11-.972l59.89-39.272zm-92.3-57.156 18.285 27.777-33.478.876zm30.95 25.192-8.3-12.6 163.331-107.06 8.3 12.6zm180.116-128.183a21.033 21.033 0 0 1 -6.89 14.327l-22.9-34.792a21.175 21.175 0 0 1 28.155 10.966 20.5 20.5 0 0 1 1.635 9.499z"/></g></svg>