<svg id="Icons" enable-background="new 0 0 512 512" height="512" viewBox="0 0 512 512" width="512" xmlns="http://www.w3.org/2000/svg"><g><circle cx="256" cy="256" fill="#e9465e" r="256"/><g><g><path d="m462.93 406.75c-46.56 63.8-121.91 105.25-206.93 105.25s-160.37-41.45-206.93-105.25z" fill="#d48d77"/><g fill="#eea47d"><path d="m380.58 406.75v72.95c-6.668 3.708-13.507 7.145-20.48 10.25v-83.2z"/><path d="m462.92 406.75c-4.978 6.838-10.303 13.422-15.94 19.73v-19.73z"/><path d="m200.532 406.75v42.24c0 5.66-4.59 10.25-10.25 10.25-5.65 0-10.24-4.59-10.24-10.25v-42.24z"/><path d="m305.71 457.94v49.23c-6.74 1.33-13.57 2.39-20.49 3.17v-52.4c0-5.65 4.59-10.24 10.24-10.24 5.656.004 10.249 4.576 10.25 10.24z"/><path d="m427.21 434.63v11.68c-6.53 5.9-13.37 11.45-20.49 16.63v-28.31c.528-13.576 19.964-13.571 20.49 0z"/><path d="m248.63 406.75v105.14c-6.849-.186-13.674-.653-20.48-1.39v-103.75z"/><path d="m163.68 460.62v34.23c-6.98-2.7-13.81-5.7-20.48-8.98v-25.25c.518-13.58 19.966-13.573 20.48 0z"/><path d="m95.83 407.27v48.44c-7.145-5.736-13.984-11.856-20.48-18.32v-30.12c0-.17 0-.35.01-.52h20.46c.01.18.01.35.01.52z"/></g></g><g><g><path d="m279.919 317.265h-47.837c-8.47 0-15.336 6.866-15.336 15.336v63.173h78.509v-63.173c-.001-8.47-6.867-15.336-15.336-15.336z" fill="#9175a7"/><path d="m345.944 395.774h-179.888c-9.186 0-16.632 7.447-16.632 16.632 0 9.186 7.446 16.632 16.632 16.632h179.887c9.186 0 16.632-7.446 16.632-16.632.001-9.185-7.446-16.632-16.631-16.632z" fill="#9175a7"/><path d="m311.458 395.774h-110.916c-5.664 0-10.255 4.591-10.255 10.255s4.591 10.255 10.255 10.255h110.915c5.664 0 10.255-4.591 10.255-10.255.001-5.664-4.591-10.255-10.254-10.255z" fill="#a583bb"/><path d="m425.253 136.298v187.669c0 5.117-1.521 9.9-4.149 13.899-3.296 5.117-8.379 8.932-14.383 10.603-2.19.634-4.529.968-6.892.968h-287.658c-2.409 0-4.702-.334-6.892-.968-6.004-1.671-11.087-5.486-14.383-10.603-2.628-3.999-4.149-8.782-4.149-13.899v-187.669c0-2.363.334-4.702.956-6.892 2.374-8.494 9.047-15.201 17.575-17.575 2.19-.622 4.529-.957 6.892-.957h287.659c2.409 0 4.702.334 6.892.957 8.494 2.374 15.201 9.047 17.575 17.575.623 2.19.957 4.53.957 6.892z" fill="#c2aacf"/><path d="m123.822 136.298v187.669c0 5.117-1.521 9.9-4.161 13.899-3.296 5.117-8.379 8.932-14.383 10.603-6.004-1.671-11.087-5.486-14.383-10.603-2.628-3.999-4.149-8.782-4.149-13.899v-187.669c0-11.64 7.814-21.459 18.532-24.467 10.719 3.008 18.544 12.827 18.544 24.467z" fill="#a583bb"/><path d="m425.253 136.298v187.669c0 5.117-1.521 9.9-4.149 13.899-3.296 5.117-8.379 8.932-14.383 10.603-6.004-1.671-11.087-5.486-14.383-10.603-2.639-3.999-4.161-8.782-4.161-13.899v-187.669c0-11.675 7.86-21.494 18.543-24.467 10.673 2.974 18.533 12.793 18.533 24.467z" fill="#decee5"/><path d="m425.253 296.977v26.991c0 5.117-1.521 9.9-4.149 13.899-3.296 5.117-8.379 8.932-14.383 10.603-2.19.634-4.529.968-6.892.968h-287.658c-2.409 0-4.702-.334-6.892-.968-6.004-1.671-11.087-5.486-14.383-10.603-2.628-3.999-4.149-8.782-4.149-13.899v-26.991z" fill="#a583bb"/><path d="m123.822 296.977v26.991c0 5.117-1.521 9.9-4.161 13.899-3.296 5.117-8.379 8.932-14.383 10.603-6.004-1.671-11.087-5.486-14.383-10.603-2.628-3.999-4.149-8.782-4.149-13.899v-26.991z" fill="#9175a7"/><path d="m425.253 296.977v26.991c0 5.117-1.521 9.9-4.149 13.899-3.296 5.117-8.379 8.932-14.383 10.603-6.004-1.671-11.087-5.486-14.383-10.603-2.639-3.999-4.161-8.782-4.161-13.899v-26.991z" fill="#c2aacf"/><path d="m276.247 323.207h-40.494c-5.217 0-9.446 4.229-9.446 9.446s4.229 9.446 9.446 9.446h40.494c5.217 0 9.446-4.229 9.446-9.446s-4.229-9.446-9.446-9.446z" fill="#9175a7"/><path d="m353.862 136.298h-165.23c-7.021 0-12.712-5.691-12.712-12.712s5.691-12.712 12.712-12.712h165.23c7.021 0 12.712 5.691 12.712 12.712s-5.692 12.712-12.712 12.712z" fill="#decee5"/></g><g><path d="m390.661 316.35h-269.322c-8.867 0-16.054-7.188-16.054-16.054v-147.943c0-8.867 7.188-16.054 16.054-16.054h269.321c8.867 0 16.054 7.188 16.054 16.054v147.943c.001 8.867-7.187 16.054-16.053 16.054z" fill="#57409b"/><g><path d="m321.72 155.05c-3.018 0-5.959.292-8.793.878-7.946 1.571-15.122 5.267-20.943 10.456-9.162 8.177-14.922 20.065-14.922 33.308 0 18.448 24.962 63.105 37.558 84.479 3.188 5.405 10.995 5.405 14.183 0 2.818-4.789 6.283-10.764 9.917-17.339.308-.524.601-1.063.893-1.602 12.427-22.544 26.748-51.556 26.748-65.538.001-24.654-19.987-44.642-44.641-44.642zm0 62.443c-1.216 0-2.402-.123-3.542-.339-8.146-1.663-14.26-8.854-14.26-17.462 0-6.606 3.603-12.381 8.962-15.445 2.602-1.494 5.621-2.341 8.839-2.341 9.825 0 17.786 7.961 17.786 17.786.001 9.824-7.96 17.801-17.785 17.801z" fill="#e9465e"/><path d="m366.362 199.692c0 13.982-14.321 42.994-26.748 65.538-.292.539-.585 1.078-.893 1.602-9.07-15.291-16.046-31.984-20.542-49.677 1.139.216 2.325.339 3.542.339 9.825 0 17.786-7.977 17.786-17.801 0-9.825-7.961-17.786-17.786-17.786-3.218 0-6.237.847-8.839 2.341-.339-4.558-.508-9.162-.508-13.797 0-4.882.185-9.732.554-14.521 2.833-.585 5.775-.878 8.793-.878 24.653-.002 44.641 19.986 44.641 44.64z" fill="#ee6781"/></g><g><g><g><path d="m249.589 213.398v68.196c0 2.728-1.645 5.067-3.997 6.087h-.003c-.807.348-1.695.543-2.631.543h-78.657c-.936 0-1.824-.195-2.631-.543-2.351-1.017-4-3.359-4-6.087v-68.196l45.959-46.099z" fill="#fbcb74"/><path d="m249.589 213.398v68.196c0 2.728-1.645 5.067-3.997 6.087h-.003c-2.348-1.02-3.997-3.359-3.997-6.087v-68.196c0-2.725 1.648-5.064 3.997-6.087h.003c2.352 1.02 3.997 3.362 3.997 6.087z" fill="#faefdc"/><path d="m165.667 213.398v68.196c0 2.728-1.645 5.07-3.997 6.087-2.351-1.017-4-3.359-4-6.087v-68.196c0-2.725 1.648-5.067 4-6.087 2.352 1.02 3.997 3.362 3.997 6.087z" fill="#deb36f"/><path d="m231.601 209.855c0 2.208-1.79 3.998-3.998 3.998h-47.945c-2.208 0-3.998-1.79-3.998-3.998s1.79-3.998 3.998-3.998h47.945c2.208 0 3.998 1.79 3.998 3.998z" fill="#fbd9a3"/></g><g><path d="m221.625 268.78h-35.988c-4.137 0-7.49-3.354-7.49-7.49v-35.988c0-4.137 3.354-7.49 7.49-7.49h35.988c4.137 0 7.49 3.354 7.49 7.49v35.988c0 4.136-3.353 7.49-7.49 7.49z" fill="#c4983d"/><g><g><path d="m202.146 226.435v11.142c0 .024 0 .053-.006.077-.036 2.304-1.912 4.157-4.229 4.157h-11.141c-2.34 0-4.24-1.895-4.24-4.234v-11.142c0-2.316 1.859-4.199 4.163-4.234.024-.006.053-.006.077-.006h11.142c2.34-.001 4.234 1.9 4.234 4.24z" fill="#6052a3"/><path d="m202.146 226.435v11.142c0 .024 0 .053-.006.077-.024.006-.053.006-.077.006h-5.381c-5.523 0-9.995-4.478-9.995-9.995v-5.387c0-.024 0-.053.006-.077.024-.006.053-.006.077-.006h11.142c2.34-.001 4.234 1.9 4.234 4.24z" fill="#57409b"/><path d="m196.989 235.746c-1.421 0-2.573-1.152-2.573-2.573v-6.356c0-1.421 1.152-2.573 2.573-2.573s2.573 1.152 2.573 2.573v6.356c0 1.421-1.152 2.573-2.573 2.573z" fill="#9175a7"/></g><g><path d="m224.732 226.435v11.142c0 .024 0 .053-.006.077-.036 2.304-1.912 4.157-4.229 4.157h-11.142c-2.34 0-4.24-1.895-4.24-4.234v-11.142c0-2.316 1.859-4.199 4.163-4.234.024-.006.053-.006.077-.006h11.142c2.341-.001 4.235 1.9 4.235 4.24z" fill="#6052a3"/><path d="m224.732 226.435v11.142c0 .024 0 .053-.006.077-.024.006-.054.006-.077.006h-5.381c-5.523 0-9.995-4.478-9.995-9.995v-5.387c0-.024 0-.053.006-.077.024-.006.053-.006.077-.006h11.142c2.34-.001 4.234 1.9 4.234 4.24z" fill="#57409b"/><path d="m219.575 235.746c-1.421 0-2.573-1.152-2.573-2.573v-6.356c0-1.421 1.152-2.573 2.573-2.573s2.573 1.152 2.573 2.573v6.356c0 1.421-1.152 2.573-2.573 2.573z" fill="#9175a7"/></g><g><path d="m202.146 249.021v11.142c0 .024 0 .053-.006.077-.036 2.304-1.912 4.157-4.229 4.157h-11.141c-2.34 0-4.24-1.895-4.24-4.234v-11.142c0-2.316 1.859-4.199 4.163-4.234.024-.006.053-.006.077-.006h11.142c2.34-.001 4.234 1.9 4.234 4.24z" fill="#6052a3"/><path d="m202.146 249.021v11.142c0 .024 0 .053-.006.077-.024.006-.053.006-.077.006h-5.381c-5.523 0-9.995-4.478-9.995-9.995v-5.387c0-.024 0-.053.006-.077.024-.006.053-.006.077-.006h11.142c2.34-.001 4.234 1.9 4.234 4.24z" fill="#57409b"/><path d="m196.989 258.332c-1.421 0-2.573-1.152-2.573-2.573v-6.356c0-1.421 1.152-2.573 2.573-2.573s2.573 1.152 2.573 2.573v6.356c0 1.421-1.152 2.573-2.573 2.573z" fill="#9175a7"/></g><g><path d="m224.732 249.021v11.142c0 .024 0 .053-.006.077-.036 2.304-1.912 4.157-4.229 4.157h-11.142c-2.34 0-4.24-1.895-4.24-4.234v-11.142c0-2.316 1.859-4.199 4.163-4.234.024-.006.053-.006.077-.006h11.142c2.341-.001 4.235 1.9 4.235 4.24z" fill="#6052a3"/><path d="m224.732 249.021v11.142c0 .024 0 .053-.006.077-.024.006-.054.006-.077.006h-5.381c-5.523 0-9.995-4.478-9.995-9.995v-5.387c0-.024 0-.053.006-.077.024-.006.053-.006.077-.006h11.142c2.34-.001 4.234 1.9 4.234 4.24z" fill="#57409b"/><path d="m219.575 258.332c-1.421 0-2.573-1.152-2.573-2.573v-6.356c0-1.421 1.152-2.573 2.573-2.573s2.573 1.152 2.573 2.573v6.356c0 1.421-1.152 2.573-2.573 2.573z" fill="#9175a7"/></g></g></g><g><path d="m266.345 223.378c0 1.422-.543 2.841-1.626 3.924-2.179 2.179-5.717 2.166-7.88-.028l-49.256-49.993c-2.173-2.207-5.733-2.207-7.905 0l-49.256 49.993c-1.086 1.102-2.521 1.655-3.953 1.655-1.422 0-2.844-.543-3.928-1.626-1.83-1.83-2.113-4.621-.854-6.75.232-.392.518-.763.854-1.099l57.173-57.17c2.166-2.169 5.682-2.166 7.849 0l57.155 57.17c.336.336.622.706.854 1.099.515.87.773 1.846.773 2.825z" fill="#e9465e"/><path d="m265.572 220.553c-.232.392-.518.763-.854 1.099v.003c-2.179 2.179-5.717 2.163-7.88-.031l-49.256-49.993c-2.173-2.207-5.733-2.207-7.905 0l-49.256 49.993c-1.086 1.102-2.521 1.655-3.956 1.655-1.422 0-2.841-.54-3.924-1.623-.339-.339-.622-.71-.854-1.102.232-.392.518-.763.854-1.099l57.173-57.17c2.166-2.169 5.682-2.166 7.849 0l57.155 57.17c.336.335.622.705.854 1.098z" fill="#ee6781"/><g fill="#f789a1"><path d="m164.66 202.424-.162-.159c-1.325-1.3-1.335-3.431-.022-4.744l21.546-21.545c1.296-1.296 3.393-1.305 4.701-.021 1.317 1.294 1.334 3.41.038 4.725l-21.384 21.704c-1.292 1.312-3.402 1.329-4.717.04z"/><path d="m242.603 202.423.159-.156c1.328-1.302 1.339-3.437.024-4.752l-21.533-21.539c-1.296-1.297-3.395-1.308-4.704-.025-1.322 1.295-1.341 3.417-.042 4.736l21.374 21.695c1.293 1.313 3.406 1.331 4.722.041z"/></g></g></g><g><path d="m241.495 169.957v26.268l-10.546-10.549v-15.719c0-1.469 1.19-2.659 2.656-2.659h5.234c1.467 0 2.656 1.189 2.656 2.659z" fill="#c0405c"/><path d="m241.495 169.957v22.369l-4.248-4.251c-1.538-1.535-2.399-3.62-2.399-5.789v-12.329c0-1.469 1.19-2.659 2.656-2.659h1.334c1.468 0 2.657 1.189 2.657 2.659z" fill="#e9465e"/></g></g></g></g></g></g></svg>