<svg id="Layer_1" height="512" viewBox="0 0 512 512" width="512" xmlns="http://www.w3.org/2000/svg" data-name="Layer 1"><path d="m477.9 215.46a14.6 14.6 0 1 1 -14.66 14.6 14.628 14.628 0 0 1 14.66-14.6z" fill="#5fcda4"/><path d="m472.89 354.67a14.6 14.6 0 1 1 -14.65 14.6 14.624 14.624 0 0 1 14.65-14.6z" fill="#5fcda4"/><path d="m445.06 442.05a14.655 14.655 0 1 1 14.66 14.59 14.624 14.624 0 0 1 -14.66-14.59z" fill="#fb6771"/><path d="m442.95 272.53a14.6 14.6 0 1 1 -14.66 14.59 14.628 14.628 0 0 1 14.66-14.59z" fill="#fb6771"/><path d="m370.38 344.73v18.28a9.3 9.3 0 0 1 -9.3 9.3h-332.33a9.3 9.3 0 0 1 -9.3-9.3v-53.91a9.3 9.3 0 0 1 9.3-9.3h332.33a9.3 9.3 0 0 1 9.3 9.3z" fill="#867af4"/><path d="m353.01 372.31v.3a163.307 163.307 0 0 1 -316.16.14v-.44z" fill="#56568c"/><path d="m317.23 138.82v96.33a163.315 163.315 0 0 0 -34.95-29.75v-66.58a87.182 87.182 0 0 0 -87.37-87.01c-48.25 0-87.37 38.95-87.37 87.01v66.58a163.5 163.5 0 0 0 -34.94 29.74v-96.32a122.059 122.059 0 0 1 122.31-121.82c67.56 0 122.32 54.54 122.32 121.82z" fill="#b0b5ca"/><path d="m79.65 346.82a10.77 10.77 0 1 1 10.79-10.77 10.792 10.792 0 0 1 -10.79 10.77z" fill="#6addc7"/><path d="m137.28 346.82a10.77 10.77 0 1 1 10.79-10.77 10.792 10.792 0 0 1 -10.79 10.77z" fill="#6addc7"/><path d="m194.91 346.82a10.77 10.77 0 1 1 10.79-10.77 10.792 10.792 0 0 1 -10.79 10.77z" fill="#6addc7"/><path d="m252.55 346.82a10.77 10.77 0 1 1 10.79-10.77 10.792 10.792 0 0 1 -10.79 10.77z" fill="#6addc7"/><path d="m310.18 346.82a10.77 10.77 0 1 1 10.79-10.77 10.792 10.792 0 0 1 -10.79 10.77z" fill="#6addc7"/><path d="m338.7 255.88a160.379 160.379 0 0 1 15.98 43.92h-319.53a161.563 161.563 0 0 1 37.45-74.65v-.01a163.391 163.391 0 0 1 266.1 30.74z" fill="#56568c"/><path d="m49.45 363.01v-53.91a9.3 9.3 0 0 1 9.3-9.3h-30a9.3 9.3 0 0 0 -9.3 9.3v53.91a9.3 9.3 0 0 0 9.3 9.3h30a9.3 9.3 0 0 1 -9.3-9.3z" fill="#6b66d8"/><path d="m66.85 372.75v-.44h-30v.44a163.042 163.042 0 0 0 158.06 122.25q7.587 0 15-.685a163.021 163.021 0 0 1 -143.06-121.565z" fill="#7373a8"/><path d="m102.6 225.15v-.01a162.853 162.853 0 0 1 107.31-54.286c-4.942-.449-9.941-.7-15-.7a163.038 163.038 0 0 0 -122.31 54.986v.01a161.563 161.563 0 0 0 -37.45 74.65h30a161.563 161.563 0 0 1 37.45-74.65z" fill="#7373a8"/><g fill="#284268"><path d="m171.892 214.387a6.1 6.1 0 0 0 1.085-.1 122.444 122.444 0 0 1 21.937-1.978 6 6 0 0 0 0-12 134.553 134.553 0 0 0 -24.094 2.173 6 6 0 0 0 1.072 11.9z"/><path d="m79.649 325.283a10.771 10.771 0 1 0 10.79 10.77 10.792 10.792 0 0 0 -10.79-10.77zm0 12a1.23 1.23 0 1 1 1.21-1.23 1.222 1.222 0 0 1 -1.21 1.23z"/><path d="m126.492 336.053a10.79 10.79 0 1 0 10.79-10.77 10.793 10.793 0 0 0 -10.79 10.77zm10.79-1.229a1.23 1.23 0 1 1 -1.21 1.229 1.221 1.221 0 0 1 1.21-1.229z"/><path d="m194.914 346.824a10.771 10.771 0 1 0 -10.79-10.771 10.793 10.793 0 0 0 10.79 10.771zm0-12a1.23 1.23 0 1 1 -1.21 1.229 1.221 1.221 0 0 1 1.21-1.229z"/><path d="m252.547 346.824a10.771 10.771 0 1 0 -10.79-10.771 10.793 10.793 0 0 0 10.79 10.771zm0-12a1.23 1.23 0 1 1 -1.21 1.229 1.221 1.221 0 0 1 1.21-1.229z"/><path d="m310.179 346.824a10.771 10.771 0 1 0 -10.79-10.771 10.793 10.793 0 0 0 10.79 10.771zm0-12a1.23 1.23 0 1 1 -1.21 1.229 1.221 1.221 0 0 1 1.21-1.229z"/><path d="m472.9 348.677a21.071 21.071 0 0 0 -19.671 14.323h-10.789a17.366 17.366 0 0 1 -15.284-9.078 29.366 29.366 0 0 0 -25.864-15.354l-25.292.132v-18.7h.929a27.936 27.936 0 0 0 25.827-17.184 15.966 15.966 0 0 1 14.758-9.816h5.68a20.069 20.069 0 0 0 19.755 14.657 20.6 20.6 0 1 0 0-41.207 21.2 21.2 0 0 0 -19.755 14.55h-5.68a27.938 27.938 0 0 0 -25.828 17.184 15.965 15.965 0 0 1 -14.757 9.816h-.981a14.922 14.922 0 0 0 -15.048-14h-1.474a166.911 166.911 0 0 0 -11.048-32h48.538a22.654 22.654 0 0 0 21.948-17.72 10.584 10.584 0 0 1 10.226-8.28h29.052a20.042 20.042 0 0 0 19.758 14.626 20.6 20.6 0 1 0 0-41.192 21.213 21.213 0 0 0 -19.758 14.566h-29.052a22.655 22.655 0 0 0 -21.948 17.72 10.584 10.584 0 0 1 -10.224 8.28h-54.675a162.009 162.009 0 0 0 -19.243-27.089v-84.091c0-70.48-57.246-127.82-128-127.82s-128 57.34-128 127.82v84.086a165.7 165.7 0 0 0 -36.514 71.094h-1.739a15.747 15.747 0 0 0 -15.747 15.747v52.506a15.793 15.793 0 0 0 15.747 15.747h3.3c20.345 72.619 86.753 123 162.867 123a169.039 169.039 0 0 0 150.252-91h32.079a20.72 20.72 0 0 1 19.855 14.7 32.787 32.787 0 0 0 31.372 23.3h11.491c2.583 8 10.459 14.619 19.756 14.619a20.6 20.6 0 1 0 0-41.192 21.221 21.221 0 0 0 -19.756 14.573h-11.491a20.72 20.72 0 0 1 -19.86-14.7 32.788 32.788 0 0 0 -31.367-23.3h-26.445a168.23 168.23 0 0 0 6.981-20h3.3a14.92 14.92 0 0 0 14.919-14.919v-12.381l25.324-.137a17.367 17.367 0 0 1 15.284 9.079 29.357 29.357 0 0 0 25.832 15.358h10.626a20.179 20.179 0 0 0 19.834 14.869 20.6 20.6 0 1 0 0-41.192zm-29.946-70.151a8.6 8.6 0 1 1 -8.655 8.6 8.637 8.637 0 0 1 8.65-8.6zm34.946-57.061a8.6 8.6 0 1 1 -8.655 8.6 8.636 8.636 0 0 1 8.655-8.6zm-18.181 211.985a8.6 8.6 0 1 1 -8.656 8.6 8.636 8.636 0 0 1 8.656-8.6zm-380.719-294.63a116 116 0 0 1 232 0v71.521c-3-2.673-5.774-5.259-8.793-7.74a152.339 152.339 0 0 0 -14.207-10.449v-53.332a93 93 0 1 0 -186 0v53.331a160.783 160.783 0 0 0 -14.375 10.589c-2.96 2.439-6.625 4.976-8.625 7.6zm197 0v46.121a169.213 169.213 0 0 0 -81-20.8c-28.562 0-57 7.26-81 20.794v-46.115a81 81 0 1 1 162 0zm-81.086 350.18c-69.578 0-130.428-45.3-150.364-111h300.728a156.818 156.818 0 0 1 -150.364 111zm169.086-125.991a2.991 2.991 0 0 1 -2.991 2.991h-332.262a3.758 3.758 0 0 1 -3.747-3.747v-53.153a3.1 3.1 0 0 1 3.1-3.1h65.9a6 6 0 0 0 0-12h-13.5a121.446 121.446 0 0 1 67.4-72.238 6 6 0 1 0 -4.659-11.059 133.462 133.462 0 0 0 -75.359 83.297h-25.137a157.205 157.205 0 0 1 304.447 0h-211.192a6 6 0 0 0 0 12h225.081a2.919 2.919 0 0 1 2.919 2.919zm108.9 14.853a8.6 8.6 0 1 1 8.655-8.6 8.636 8.636 0 0 1 -8.655 8.6z"/></g></svg>