<svg id="Layer_1" height="512" viewBox="0 0 512 512" width="512" xmlns="http://www.w3.org/2000/svg" data-name="Layer 1"><path d="m256 17c112.76 0 204.53 87.56 204.53 195.52 0 151.73-204.53 282.48-204.53 282.48s-204.53-130.75-204.53-282.48c0-107.96 91.77-195.52 204.53-195.52z" fill="#eb7288"/><path d="m256 61.54a156.365 156.365 0 1 1 -156.38 156.37 156.373 156.373 0 0 1 156.38-156.37z" fill="#d4e1f4"/><path d="m350 264.97v-16.97h-189v16.97l21.94 3.77a75.351 75.351 0 0 0 6.86 16.73l-13.03 18.28 23.87 23.82 18.33-12.94c5.24 2.94 10.86 4.47 16.77 6.12l3.78 21.25h33.79l3.79-21.25a75.048 75.048 0 0 0 16.78-6.53l18.34 13.15 23.89-23.72-12.98-18.23c2.95-5.22 4.19-10.8 5.85-16.7z" fill="#867af4"/><path d="m313.69 247.94v.19a57.305 57.305 0 0 1 -114.61 0v-.19h26.37v.19a30.935 30.935 0 0 0 61.87 0v-.19z" fill="#604af3"/><path d="m353.25 218.29h-194.5a14.825 14.825 0 1 0 0 29.65h194.5a14.825 14.825 0 1 0 0-29.65z" fill="#edb740"/><path d="m272.53 110.24h-33.06a79.44 79.44 0 0 0 -79.52 79.37v28.68h192.1v-28.68a79.44 79.44 0 0 0 -79.52-79.37z" fill="#fcca3d"/><path d="m273.72 191.68h-35.44a8.143 8.143 0 0 0 -8.15 8.14v18.47h51.74v-18.47a8.143 8.143 0 0 0 -8.15-8.14z" fill="#fff655"/><path d="m81.47 212.52c0-103.13 83.744-187.637 189.53-194.993q-7.431-.516-15-.527c-112.76 0-204.53 87.56-204.53 195.52 0 151.73 204.53 282.48 204.53 282.48s5.624-3.6 15-10.281c-47.189-33.645-189.53-145.619-189.53-272.199z" fill="#ce6178"/><path d="m173.9 233.12a14.835 14.835 0 0 1 14.85-14.83h-30a14.825 14.825 0 1 0 0 29.65h30a14.839 14.839 0 0 1 -14.85-14.82z" fill="#ce9d3a"/><path d="m269.47 110.24h-30a79.44 79.44 0 0 0 -79.52 79.37v28.68h30v-28.68a79.44 79.44 0 0 1 79.52-79.37z" fill="#d8a935"/><path d="m272.29 110.24v81.44h-32.58v-81.92a16.29 16.29 0 0 1 32.58 0z" fill="#fadf4a"/><g fill="#284268"><path d="m256 11c-116.087 0-210.531 90.4-210.531 201.518 0 35.667 11.017 73.055 32.747 111.126 17.224 30.178 41.2 60.875 71.255 91.237 51.011 51.533 102.781 84.844 103.3 85.174a6 6 0 0 0 6.462 0c.517-.33 52.287-33.641 103.3-85.174 30.057-30.362 54.031-61.059 71.255-91.237 21.73-38.071 32.747-75.459 32.747-111.126-.004-111.118-94.448-201.518-210.535-201.518zm167.424 306.588c-16.678 29.247-39.979 59.084-69.257 88.684a679.846 679.846 0 0 1 -98.167 81.537 679.059 679.059 0 0 1 -98-81.37c-29.319-29.618-52.655-59.476-69.36-88.743-20.683-36.237-31.169-71.624-31.169-105.178-.002-104.5 89.058-189.518 198.529-189.518s198.531 85.018 198.531 189.518c0 33.521-10.466 68.872-31.107 105.07z"/><path d="m256 55.54c-89.536 0-162.379 72.837-162.379 162.366s72.843 162.366 162.379 162.366 162.379-72.837 162.379-162.366-72.843-162.366-162.379-162.366zm0 312.732c-82.919 0-150.379-67.454-150.379-150.366s67.46-150.366 150.379-150.366 150.379 67.454 150.379 150.366-67.46 150.366-150.379 150.366z"/><path d="m199.082 52.74a5.985 5.985 0 0 0 1.9-.309c4.719-1.573 9.567-2.958 14.409-4.118a6 6 0 0 0 -2.8-11.67c-5.178 1.24-10.362 2.722-15.408 4.4a6 6 0 0 0 1.9 11.693z"/><path d="m177.808 62.073a6 6 0 0 0 -5.4-10.717 186.063 186.063 0 0 0 -101.487 144.483 6 6 0 0 0 5.252 6.664 5.931 5.931 0 0 0 .714.042 6 6 0 0 0 5.95-5.294 174.09 174.09 0 0 1 94.971-135.178z"/><path d="m358 189.608a85.512 85.512 0 0 0 -80.4-85.2 22.263 22.263 0 0 0 -43.215 0 85.506 85.506 0 0 0 -80.385 85.2v22.982a21.3 21.3 0 0 0 -16.075 20.41 21.037 21.037 0 0 0 17.075 20.638v11.332a6 6 0 0 0 4.982 5.913l18.3 3.148a81.689 81.689 0 0 0 4.488 10.977l-10.879 15.264a6 6 0 0 0 .647 7.729l23.868 23.82a6 6 0 0 0 7.7.654l15.38-10.861a78.477 78.477 0 0 0 11.01 3.892l3.121 17.545a6 6 0 0 0 5.905 4.949h33.79a6 6 0 0 0 5.908-4.947l3.134-17.59a80.93 80.93 0 0 0 11.014-4.223l15.353 11.006a6 6 0 0 0 7.722-.619l23.893-23.717a6 6 0 0 0 .661-7.738l-10.891-15.3a75.323 75.323 0 0 0 3.652-10.915l17.3-3.085a6 6 0 0 0 4.942-5.902v-11.176a21.021 21.021 0 0 0 18.075-20.794 21.3 21.3 0 0 0 -16.075-20.41zm-80-73.12c38 2.944 68 34.6 68 73.12v22.392h-58v-12.185a13.975 13.975 0 0 0 -10-13.364zm-32-6.725a10 10 0 1 1 20 0v76.237h-20zm-10 90.052c0-1.177 1.1-1.815 2.282-1.815h35.436c1.186 0 2.282.638 2.282 1.815v12.185h-40zm108 60.13-16.078 2.867a6 6 0 0 0 -4.722 4.288c-.261.93-.512 1.853-.761 2.768-1.293 4.745-2.41 8.844-4.534 12.608a6 6 0 0 0 .337 6.429l10.027 14.081-16.679 16.551-14.216-10.19a6 6 0 0 0 -6.433-.356 68.585 68.585 0 0 1 -15.456 5.981 6 6 0 0 0 -4.293 4.726l-2.905 16.302h-23.738l-2.9-16.3a6 6 0 0 0 -4.293-4.728l-.49-.137c-5.4-1.5-10.493-2.928-14.962-5.435a6 6 0 0 0 -6.4.331l-14.2 10.029-16.694-16.66 10.079-14.143a6 6 0 0 0 .339-6.432 69.673 69.673 0 0 1 -6.309-15.4 6 6 0 0 0 -4.759-4.291l-16.96-2.92v-5.914h26.372a63.316 63.316 0 0 0 126.028 0h24.6zm-87.615 24.9a37.2 37.2 0 0 0 36.427-30.845h14.506a51.307 51.307 0 0 1 -101.867 0h14.507a37.2 37.2 0 0 0 36.427 30.843zm-24.222-30.845h48.443a24.989 24.989 0 0 1 -48.443 0zm129.937-21a9 9 0 0 1 -8.852 9h-194.498a9 9 0 0 1 0-18h10.25a6 6 0 0 0 0-12h-3v-22.392c0-38.518 30-70.176 68-73.12v69.963a13.975 13.975 0 0 0 -10 13.364v12.185h-13a6 6 0 0 0 0 12h142.25a9 9 0 0 1 8.85 9z"/></g></svg>