<svg id="Icons" enable-background="new 0 0 512 512" height="512" viewBox="0 0 512 512" width="512" xmlns="http://www.w3.org/2000/svg"><g><circle cx="256" cy="256" fill="#22bce0" r="256"/><g><g><path d="m256 478.167c-5.175 0-10.404-.18-15.54-.535-2.755-.191-4.834-2.579-4.644-5.333.191-2.754 2.582-4.823 5.333-4.643 6.386.442 12.903.6 19.311.465 2.765-.047 5.046 2.134 5.104 4.895s-2.134 5.046-4.895 5.104c-1.553.031-3.108.047-4.669.047zm43.8-4.419c-2.326 0-4.408-1.631-4.894-3.998-.554-2.705 1.19-5.347 3.896-5.901 6.282-1.287 12.579-2.88 18.715-4.735 2.642-.798 5.434.695 6.233 3.339.799 2.643-.695 5.434-3.339 6.233-6.427 1.943-13.022 3.612-19.604 4.96-.337.069-.675.102-1.007.102zm-97.968-2.391c-.412 0-.83-.051-1.247-.158-6.506-1.671-13.011-3.663-19.335-5.922-2.601-.929-3.956-3.79-3.027-6.39.928-2.602 3.792-3.956 6.39-3.027 6.038 2.156 12.248 4.059 18.459 5.654 2.675.687 4.286 3.412 3.599 6.086-.58 2.257-2.612 3.757-4.839 3.757zm153.733-17.305c-1.811 0-3.558-.986-4.446-2.706-1.268-2.453-.307-5.47 2.146-6.737 5.695-2.943 11.325-6.187 16.734-9.639 2.326-1.486 5.419-.804 6.905 1.524 1.485 2.328.803 5.419-1.524 6.905-5.664 3.616-11.56 7.012-17.523 10.094-.734.379-1.518.559-2.292.559zm-208.446-5.106c-.852 0-1.715-.218-2.505-.677-5.805-3.37-11.526-7.049-17.006-10.937-2.252-1.598-2.783-4.719-1.185-6.971s4.718-2.783 6.971-1.185c5.233 3.712 10.697 7.226 16.24 10.444 2.388 1.387 3.2 4.447 1.814 6.834-.927 1.599-2.605 2.492-4.329 2.492zm256.799-28.942c-1.34 0-2.676-.535-3.661-1.594-1.881-2.021-1.768-5.185.254-7.066 4.695-4.37 9.247-9.008 13.527-13.784 1.843-2.057 5.006-2.229 7.061-.387 2.057 1.843 2.229 5.004.387 7.061-4.481 5-9.246 9.855-14.162 14.43-.964.897-2.186 1.34-3.406 1.34zm-303.427-7.418c-1.301 0-2.601-.504-3.581-1.51-4.689-4.81-9.213-9.891-13.445-15.101-1.741-2.144-1.415-5.292.729-7.033s5.292-1.416 7.033.729c4.043 4.977 8.364 9.83 12.843 14.425 1.928 1.978 1.888 5.143-.09 7.07-.971.948-2.23 1.42-3.489 1.42zm340.854-38.358c-.89 0-1.791-.237-2.605-.736-2.355-1.442-3.096-4.52-1.654-6.875 3.349-5.469 6.484-11.158 9.32-16.908 1.222-2.477 4.215-3.495 6.696-2.273 2.477 1.222 3.494 4.219 2.272 6.696-2.97 6.022-6.254 11.979-9.76 17.707-.943 1.54-2.587 2.389-4.269 2.389zm-376.012-9.19c-1.769 0-3.483-.94-4.391-2.602-3.224-5.896-6.213-12.009-8.883-18.171-1.098-2.534.066-5.478 2.6-6.576 2.534-1.096 5.478.065 6.576 2.6 2.549 5.883 5.403 11.721 8.481 17.35 1.325 2.423.435 5.461-1.988 6.786-.762.415-1.584.613-2.395.613zm399.711-44.979c-.449 0-.906-.061-1.359-.189-2.658-.75-4.205-3.512-3.456-6.169 1.738-6.166 3.213-12.491 4.383-18.801.503-2.716 3.118-4.511 5.827-4.005 2.716.503 4.509 3.112 4.005 5.827-1.225 6.609-2.77 13.234-4.59 19.692-.622 2.205-2.628 3.645-4.81 3.645zm-420.722-10.308c-2.279 0-4.338-1.568-4.869-3.883-1.5-6.539-2.715-13.231-3.614-19.893-.369-2.736 1.55-5.254 4.287-5.624 2.731-.374 5.254 1.55 5.624 4.287.858 6.361 2.02 12.752 3.451 18.995.617 2.691-1.064 5.374-3.756 5.991-.377.085-.753.127-1.123.127zm428.845-48.257c-2.762 0-5-2.239-5-5v-.494c0-6.435-.291-12.926-.864-19.292-.248-2.75 1.78-5.181 4.53-5.429 2.77-.24 5.182 1.781 5.429 4.531.601 6.663.905 13.456.905 20.189v.494c0 2.762-2.238 5.001-5 5.001zm-434.097-10.637c-.078 0-.155-.001-.233-.005-2.759-.126-4.892-2.466-4.765-5.224.309-6.721.928-13.494 1.839-20.13.376-2.735 2.894-4.647 5.634-4.273 2.735.376 4.648 2.898 4.273 5.634-.871 6.337-1.462 12.807-1.757 19.228-.123 2.68-2.335 4.77-4.991 4.77zm426.102-48.434c-2.187 0-4.195-1.446-4.812-3.656-1.725-6.171-3.758-12.34-6.043-18.335-.983-2.58.311-5.469 2.891-6.453 2.579-.985 5.471.311 6.453 2.891 2.394 6.279 4.523 12.74 6.33 19.205.743 2.659-.81 5.418-3.47 6.161-.451.127-.904.187-1.349.187zm-415.385-9.705c-.521 0-1.05-.082-1.572-.254-2.622-.868-4.043-3.696-3.176-6.318 2.109-6.372 4.54-12.724 7.225-18.881 1.104-2.531 4.052-3.687 6.582-2.584 2.531 1.104 3.688 4.051 2.584 6.582-2.563 5.877-4.884 11.941-6.896 18.024-.697 2.1-2.65 3.431-4.747 3.431zm391.821-44.529c-1.688 0-3.333-.854-4.275-2.399-3.332-5.47-6.961-10.861-10.786-16.022-1.644-2.218-1.178-5.35 1.04-6.994 2.221-1.644 5.35-1.179 6.995 1.04 4.004 5.403 7.803 11.047 11.292 16.774 1.437 2.358.688 5.435-1.669 6.871-.812.495-1.711.73-2.597.73zm-365.748-8.524c-.962 0-1.935-.277-2.793-.856-2.289-1.545-2.892-4.653-1.347-6.941 3.755-5.564 7.812-11.024 12.059-16.228 1.746-2.14 4.894-2.459 7.035-.713 2.139 1.746 2.458 4.896.713 7.035-4.056 4.971-7.931 10.186-11.518 15.5-.966 1.431-2.543 2.203-4.149 2.203zm328.409-37.341c-1.224 0-2.449-.446-3.413-1.347-4.69-4.384-9.633-8.603-14.691-12.537-2.18-1.696-2.571-4.837-.876-7.017 1.694-2.179 4.835-2.573 7.017-.876 5.295 4.119 10.47 8.535 15.379 13.124 2.018 1.886 2.124 5.05.238 7.067-.985 1.054-2.319 1.586-3.654 1.586zm-288.983-6.739c-1.415 0-2.82-.597-3.81-1.758-1.79-2.103-1.537-5.258.565-7.049 5.115-4.354 10.489-8.526 15.973-12.398 2.255-1.593 5.376-1.055 6.968 1.201 1.593 2.256 1.055 5.376-1.201 6.968-5.239 3.699-10.372 7.683-15.257 11.843-.94.801-2.092 1.193-3.238 1.193zm240.709-27.408c-.777 0-1.564-.181-2.302-.564-5.694-2.959-11.588-5.687-17.518-8.108-2.556-1.044-3.782-3.963-2.738-6.519 1.044-2.557 3.963-3.783 6.52-2.739 6.21 2.536 12.383 5.393 18.348 8.492 2.45 1.273 3.404 4.292 2.131 6.742-.89 1.714-2.635 2.696-4.441 2.696zm-190.892-4.461c-1.89 0-3.699-1.077-4.542-2.905-1.157-2.507-.063-5.478 2.444-6.635 6.1-2.816 12.404-5.382 18.736-7.627 2.601-.923 5.46.438 6.383 3.042.923 2.603-.439 5.46-3.042 6.383-6.045 2.144-12.063 4.593-17.886 7.281-.679.313-1.391.461-2.093.461zm135.202-15.36c-.336 0-.678-.034-1.02-.105-6.27-1.3-12.684-2.326-19.062-3.05-2.743-.312-4.715-2.789-4.403-5.533.312-2.743 2.781-4.711 5.532-4.404 6.68.759 13.396 1.834 19.963 3.195 2.704.561 4.441 3.207 3.881 5.911-.49 2.361-2.571 3.986-4.891 3.986zm-78.634-1.825c-2.416 0-4.541-1.755-4.932-4.216-.433-2.728 1.427-5.29 4.154-5.722 6.62-1.051 13.378-1.812 20.088-2.259 2.749-.191 5.138 1.9 5.322 4.656.184 2.755-1.9 5.138-4.656 5.322-6.409.428-12.864 1.154-19.186 2.158-.265.041-.529.061-.79.061z" fill="#83d5ef"/></g><g><g><g><g><path d="m432.025 127.978v133.871c0 5.356-3.229 9.947-7.845 11.95h-.006c-1.584.684-3.328 1.066-5.165 1.066h-154.406c-1.837 0-3.581-.382-5.165-1.066-4.616-1.997-7.852-6.594-7.852-11.95v-133.871l90.219-90.493z" fill="#eea47d"/><path d="m432.025 127.978v133.871c0 5.356-3.229 9.947-7.845 11.95h-.006c-4.61-2.003-7.845-6.594-7.845-11.95v-133.871c0-5.349 3.236-9.941 7.845-11.95h.006c4.615 2.003 7.845 6.6 7.845 11.95z" fill="#f5b890"/><path d="m267.284 127.978v133.871c0 5.356-3.229 9.953-7.845 11.95-4.616-1.997-7.852-6.594-7.852-11.95v-133.871c0-5.349 3.236-9.947 7.852-11.95 4.615 2.003 7.845 6.6 7.845 11.95z" fill="#d48d77"/><path d="m396.713 121.024c0 4.335-3.514 7.849-7.848 7.849h-94.117c-4.335 0-7.849-3.514-7.849-7.848 0-4.335 3.514-7.848 7.849-7.848h94.117c4.334-.002 7.848 3.512 7.848 7.847z" fill="#f5b890"/><path d="m275.413 128.872h132.785c4.49 0 8.129 3.64 8.129 8.129v115.826c0 4.49-3.64 8.129-8.129 8.129h-132.785c-4.49 0-8.129-3.64-8.129-8.129v-115.826c0-4.489 3.639-8.129 8.129-8.129z" fill="#a26d5a"/></g><g><path d="m218.695 147.57c0 2.792 1.066 5.577 3.192 7.704 4.277 4.277 11.223 4.252 15.469-.055l96.69-98.138c4.265-4.333 11.254-4.333 15.518 0l96.69 98.138c2.132 2.163 4.949 3.248 7.759 3.248 2.792 0 5.584-1.066 7.71-3.192 3.593-3.593 4.148-9.072 1.676-13.25-.456-.77-1.017-1.498-1.676-2.157l-112.232-112.229c-4.252-4.259-11.155-4.252-15.407 0l-112.197 112.227c-.659.659-1.22 1.387-1.676 2.157-1.011 1.707-1.516 3.624-1.516 5.547z" fill="#dd5e26"/><path d="m220.211 142.023c.456.77 1.017 1.498 1.676 2.157v.006c4.277 4.277 11.223 4.246 15.469-.062l96.69-98.138c4.265-4.333 11.254-4.333 15.518 0l96.69 98.138c2.132 2.163 4.949 3.248 7.765 3.248 2.792 0 5.577-1.06 7.704-3.186.666-.666 1.22-1.393 1.676-2.163-.456-.77-1.017-1.498-1.676-2.157l-112.232-112.227c-4.252-4.259-11.155-4.252-15.407 0l-112.197 112.227c-.659.659-1.22 1.387-1.676 2.157z" fill="#ea792e"/><g fill="#f39e22"><path d="m418.304 106.435.319-.313c2.6-2.552 2.62-6.735.043-9.312l-42.296-42.293c-2.543-2.543-6.661-2.561-9.227-.041-2.584 2.539-2.618 6.694-.075 9.275l41.977 42.606c2.537 2.575 6.679 2.61 9.259.078z"/><path d="m265.3 106.434-.312-.305c-2.607-2.555-2.628-6.747-.047-9.328l42.27-42.282c2.544-2.545 6.664-2.567 9.235-.049 2.595 2.542 2.633 6.708.083 9.296l-41.959 42.587c-2.539 2.577-6.686 2.614-9.27.081z"/></g></g></g><g><path d="m267.475 42.701v51.565l20.701-20.707v-30.858c0-2.884-2.336-5.22-5.214-5.22h-10.274c-2.878 0-5.213 2.336-5.213 5.22z" fill="#dd5e26"/><path d="m267.475 42.701v43.911l8.338-8.345c3.02-3.014 4.708-7.106 4.708-11.364v-24.202c0-2.884-2.336-5.22-5.214-5.22h-2.619c-2.878 0-5.213 2.336-5.213 5.22z" fill="#ea792e"/></g></g><g><g><path d="m246.064 326.251v28.669h69.895v-28.669c0-14.362-11.64-26.01-26.01-26.01h-17.875c-14.37 0-26.01 11.648-26.01 26.01z" fill="#57409b"/><path d="m246.064 326.251v28.669h53.25v-28.669c0-14.362-11.64-26.01-26.01-26.01h-1.229c-14.371 0-26.011 11.648-26.011 26.01z" fill="#6052a3"/></g><g><path d="m269.464 289.32v12.542c0 6.379 5.173 11.544 11.552 11.544 2.139 0 4.143-.583 5.86-1.597 3.401-2.004 5.684-5.708 5.684-9.947v-12.542z" fill="#9b5b42"/><path d="m292.56 289.32v12.542c0 4.239-2.283 7.944-5.684 9.947v-13.404c-4.016 1.677-8.431 2.603-13.061 2.603-1.477 0-2.93-.096-4.351-.271v-11.417z" fill="#8e4e3f"/></g><g><g><path d="m239.837 213.789v47.198c0 9.381 3.8 17.875 9.947 24.022 4.439 4.431 10.091 7.64 16.414 9.093 2.451.559 4.998.854 7.616.854 18.761 0 33.977-15.208 33.977-33.97v-47.198c0-10.283-8.343-18.617-18.625-18.617h-30.712c-1.804 0-3.545.255-5.197.742-7.751 2.244-13.42 9.397-13.42 17.876z" fill="#8e4e3f"/><path d="m239.837 213.789v47.198c0 9.381 3.8 17.875 9.947 24.022 4.439 4.431 10.091 7.64 16.414 9.093 15.105-3.457 26.361-16.973 26.361-33.115v-18.059c0-23.495-16.957-43.023-39.302-47.014-7.751 2.243-13.42 9.396-13.42 17.875z" fill="#9b5b42"/><g fill="#8e4e3f"><path d="m264.207 245.065h6.927c2.845 0 5.151 2.306 5.151 5.151s-2.306 5.151-5.151 5.151h-6.927c-2.845 0-5.151-2.306-5.151-5.151s2.306-5.151 5.151-5.151z"/><path d="m265.124 195.17h8.689v53.391h-8.689z" transform="matrix(-1 0 0 -1 538.938 443.732)"/></g><g fill="#334353"><path d="m283.034 224.916c2.6 0 4.707 2.108 4.707 4.707v8.216c0 2.6-2.108 4.707-4.707 4.707-2.6 0-4.707-2.107-4.707-4.707v-8.216c0-2.599 2.108-4.707 4.707-4.707z"/><path d="m255.903 224.916c2.6 0 4.707 2.108 4.707 4.707v8.216c0 2.6-2.108 4.707-4.707 4.707-2.6 0-4.707-2.107-4.707-4.707v-8.216c0-2.599 2.108-4.707 4.707-4.707z"/></g><g><path d="m272.584 274.351c8.155 0 14.789-6.634 14.789-14.789 0-1.543-1.251-2.794-2.794-2.794s-2.794 1.251-2.794 2.794c0 5.073-4.127 9.2-9.201 9.2-1.543 0-2.794 1.251-2.794 2.794s1.25 2.795 2.794 2.795z" fill="#723e33"/></g></g><g><path d="m235.128 217.166c0-11.66 4.73-22.22 12.37-29.86 5.45-5.45 12.39-9.42 20.15-11.25 3.12-.73 6.37-1.12 9.71-1.12 23.33 0 42.23 18.9 42.23 42.23l-.075 46.2c-.019 11.924-9.691 21.58-21.615 21.58 6.114-6.143 9.895-14.609 9.895-23.959v-39.121h-33.203c-7.991 0-14.469-6.478-14.469-14.47 0 7.991-6.478 14.47-14.47 14.47h-5.813v39.121c0 9.349 3.776 17.817 9.887 23.959-8.062 0-14.597-6.535-14.597-14.597z" fill="#442a21"/><path d="m235.128 217.166c0-11.66 4.73-22.22 12.37-29.86 5.45-5.45 12.39-9.42 20.15-11.25 18.64 4.39 32.52 21.12 32.52 41.11v4.7h-25.578c-7.991 0-14.469-6.478-14.469-14.47 0 7.991-6.478 14.47-14.47 14.47h-5.813v39.121c0 9.349 3.776 17.817 9.887 23.959-8.062 0-14.597-6.535-14.597-14.597z" fill="#543029"/></g><g><g><path d="m313.515 251.652h-5.727v-17.92h5.727c4.949 0 8.96 4.012 8.96 8.96s-4.011 8.96-8.96 8.96z" fill="#8e4e3f"/><path d="m313.804 246.537h-6.016v-7.69h6.016c2.123 0 3.845 1.721 3.845 3.845 0 2.123-1.721 3.845-3.845 3.845z" fill="#723e33"/></g><g><path d="m237.33 233.732h2.508v17.92h-2.508c-4.949 0-8.96-4.012-8.96-8.96 0-4.949 4.012-8.96 8.96-8.96z" fill="#8e4e3f"/><path d="m237.041 238.847h2.797v7.69h-2.797c-2.123 0-3.845-1.721-3.845-3.845.001-2.124 1.722-3.845 3.845-3.845z" fill="#723e33"/></g></g></g><g><path d="m287.373 340.921h22.658v13.999h-22.658z" fill="#8e4e3f" transform="matrix(-1 0 0 -1 597.403 695.841)"/><path d="m287.373 340.921h11.941v13.999h-11.941z" fill="#9b5b42" transform="matrix(-1 0 0 -1 586.687 695.841)"/></g></g><g><g><g><path d="m396.319 370.041c0 1.75-.296 3.437-.853 5.008-.754 2.163-1.992 4.101-3.581 5.689-2.737 2.737-6.524 4.433-10.697 4.433h-324.989c-8.355 0-15.13-6.775-15.13-15.13 0-4.173 1.696-7.96 4.433-10.697 2.306-2.306 5.366-3.868 8.768-4.299.628-.081 1.274-.126 1.929-.126h324.99c8.354.001 15.13 6.767 15.13 15.122z" fill="#d48d77"/><path d="m396.319 370.041c0 1.75-.296 3.437-.853 5.008-.628.081-1.274.126-1.93.126h-324.989c-8.355 0-15.13-6.775-15.13-15.13 0-1.75.296-3.437.853-4.998.628-.081 1.274-.126 1.929-.126h324.99c8.354-.001 15.13 6.765 15.13 15.12z" fill="#eea47d"/><path d="m341.187 375.174h-196.645c-5.593 0-10.127-4.534-10.127-10.127s4.534-10.127 10.127-10.127h196.645c5.593 0 10.127 4.534 10.127 10.127s-4.534 10.127-10.127 10.127z" fill="#f5b890"/></g><g><path d="m358.1 385.17v105.66c-6.1 2.65-12.31 5.07-18.65 7.25-26.15 9.02-54.23 13.92-83.45 13.92-59.65 0-114.54-20.41-158.06-54.61-6.47-5.09-12.7-10.48-18.65-16.16v-56.06z" fill="#a26d5a"/><path d="m339.45 415.78v82.3c-26.15 9.02-54.23 13.92-83.45 13.92-59.65 0-114.54-20.41-158.06-54.61v-41.61c0-6.46 5.23-11.69 11.69-11.69h218.13c6.46 0 11.69 5.23 11.69 11.69z" fill="#c17e62"/><path d="m313.372 435.643h-151.28c-8.714 0-15.778-7.064-15.778-15.778s7.064-15.778 15.778-15.778h151.28c8.714 0 15.778 7.064 15.778 15.778-.001 8.714-7.065 15.778-15.778 15.778z" fill="#d48d77"/></g></g><g><g><path d="m207.384 223.165v84.464c0 2.303-.684 4.455-1.869 6.257-1.485 2.303-3.771 4.021-6.474 4.772-.985.284-2.036.434-3.104.434h-129.465c-1.085 0-2.119-.15-3.104-.434-2.703-.751-4.989-2.469-6.474-4.772-1.185-1.802-1.869-3.955-1.869-6.257v-84.464c0-1.068.15-2.119.434-3.104 1.068-3.821 4.071-6.841 7.909-7.909.985-.284 2.036-.434 3.104-.434h129.465c1.085 0 2.119.15 3.104.434 3.821 1.068 6.841 4.071 7.909 7.909.284.985.434 2.036.434 3.104z" fill="#c2aacf"/><path d="m205.515 313.886c-2.036 3.137-5.556 5.206-9.578 5.206h-129.465c-4.021 0-7.542-2.069-9.578-5.206 4.522-12.915 16.819-22.159 31.253-22.159h86.099c14.45 0 26.747 9.244 31.269 22.159z" fill="#9175a7"/><path d="m71.712 223.165v84.464c0 2.303-.684 4.455-1.869 6.257-1.485 2.303-3.771 4.021-6.474 4.772-2.703-.751-4.989-2.469-6.474-4.772-1.185-1.802-1.869-3.955-1.869-6.257v-84.464c0-5.239 3.521-9.661 8.343-11.013 4.822 1.352 8.343 5.773 8.343 11.013z" fill="#a583bb"/><path d="m207.384 223.165v84.464c0 2.303-.684 4.455-1.869 6.257-1.485 2.303-3.771 4.021-6.474 4.772-2.703-.751-4.989-2.469-6.474-4.772-1.185-1.802-1.869-3.955-1.869-6.257v-84.464c0-5.256 3.537-9.678 8.343-11.013 4.806 1.335 8.343 5.757 8.343 11.013z" fill="#decee5"/><path d="m98.701 227.295h65.008c4.181 0 7.571-3.39 7.571-7.571s-3.39-7.571-7.571-7.571h-65.008c-4.181 0-7.571 3.39-7.571 7.571s3.389 7.571 7.571 7.571z" fill="#ebd9ea"/></g><path d="m141.97 304.613h-21.53c-3.812 0-6.902 3.09-6.902 6.902v28.433h35.335v-28.433c0-3.812-3.091-6.902-6.903-6.902z" fill="#a583bb"/><g><path d="m171.687 339.948h-80.964c-4.134 0-7.486 3.352-7.486 7.486s3.352 7.486 7.486 7.486h80.964c4.134 0 7.486-3.352 7.486-7.486 0-4.135-3.352-7.486-7.486-7.486z" fill="#c2aacf"/><path d="m156.165 339.948h-49.921c-2.549 0-4.616 2.066-4.616 4.616 0 2.549 2.066 4.616 4.616 4.616h49.921c2.549 0 4.616-2.066 4.616-4.616s-2.066-4.616-4.616-4.616z" fill="#decee5"/></g></g></g></g></g></g></svg>