<svg id="Layer_1" height="512" viewBox="0 0 512 512" width="512" xmlns="http://www.w3.org/2000/svg" data-name="Layer 1"><path d="m443.09 366.93 2.33-224.93h-428.42v329.84l426.26-1a51.955 51.955 0 0 0 -.17-103.91z" fill="#b3d1e7"/><path d="m446.55 92h-31.55v275h28.09a51.894 51.894 0 0 1 51.91 51.9v-278.23a48.63 48.63 0 0 0 -48.45-48.67z" fill="#91b1c4"/><path d="m349.09 40h-258.18l-37.97 83h110.11l56.95-52.87 56.95 52.87h110.11z" fill="#b28b79"/><path d="m276.95 123-56.95-52.87-56.95 52.87h-91.05v.62 120.38h296v-120-1z" fill="#f7d2c5"/><path d="m72 244h296v125h-296z" fill="#d8b0a4"/><path d="m233.81 113.37a13.81 13.81 0 1 0 -13.81 13.8 13.813 13.813 0 0 0 13.81-13.8z" fill="#bc5e51"/><path d="m165.41 181.86h-50.6a25.3 25.3 0 1 1 50.6 0z" fill="#ccd3df"/><path d="m114.81 181.86h50.6v33.15h-50.6z" fill="#b0b5ca"/><path d="m326.17 181.86h-50.59a25.3 25.3 0 1 1 50.59 0z" fill="#ccd3df"/><path d="m275.58 181.86h50.59v33.15h-50.59z" fill="#b0b5ca"/><path d="m332.21 287.62v57.95h-33.34v-57.95a16.67 16.67 0 1 1 33.34 0z" fill="#6d7486"/><path d="m266.47 274.74v94.45h-93.71v-94.45a3.8 3.8 0 0 1 3.79-3.8h86.12a3.8 3.8 0 0 1 3.8 3.8z" fill="#67679b"/><path d="m142.11 287.62v57.95h-33.34v-57.95a16.67 16.67 0 1 1 33.34 0z" fill="#6d7486"/><path d="m17 142v329.84l30-.07v-329.77z" fill="#9db8c9"/><path d="m120.91 40h-30l-37.97 83h30z" fill="#997668"/><path d="m102 123h-30v.62 120.38h30v-120.38z" fill="#d8b4a9"/><path d="m72 244h30v125h-30z" fill="#ba958c"/><g fill="#284268"><path d="m446.546 86h-31.128a6.537 6.537 0 0 0 -6.418 6.193v43.807h-35v-7h13.062a5.7 5.7 0 0 0 5.46-8.159l-37.968-83.249a6.075 6.075 0 0 0 -5.46-3.592h-258.188a6.074 6.074 0 0 0 -5.46 3.592l-37.968 83.371a5.565 5.565 0 0 0 .414 5.509 5.8 5.8 0 0 0 5.046 2.528h13.062v7h-49a6.065 6.065 0 0 0 -6 6.075v329.766a6.185 6.185 0 0 0 1.762 4.327 6.076 6.076 0 0 0 4.238 1.832h.014l426.262-1.081a58.1 58.1 0 0 0 57.724-58.019v-278.231a54.692 54.692 0 0 0 -54.454-54.669zm-384.281 31 32.5-71h250.469l32.5 71h-98.425l-55.226-51.027a6 6 0 0 0 -8.166-.123l-55.226 51.15zm380.978 347.848-420.243.979v-317.827h43v16a6 6 0 0 0 12 0v-35h85.047a5.784 5.784 0 0 0 4.082-1.358l52.871-48.962 52.871 48.9a5.835 5.835 0 0 0 4.082 1.42h85.047v109h-284v-32a6 6 0 0 0 -12 0v163.189a5.811 5.811 0 0 0 5.811 5.811h296.378a5.811 5.811 0 0 0 5.811-5.811v-221.189h35v218.967c0 3.313 3.1 6.033 6.418 6.033h27.668a45.924 45.924 0 0 1 .157 91.848zm-180.574-199.848h-86.114a9.557 9.557 0 0 0 -9.555 9.742v88.258h-89v-113h284v113h-90v-88.258c0-5.402-3.929-9.742-9.331-9.742zm-2.669 12v86h-81v-86zm229 106.629a57.818 57.818 0 0 0 -45.914-22.629h-22.086v-263h25.546a42.679 42.679 0 0 1 42.454 42.669z"/><path d="m48 186.916a6 6 0 0 0 -6 6v111.755a6 6 0 0 0 12 0v-111.755a6 6 0 0 0 -6-6z"/><path d="m48 163.347a6 6 0 0 0 -6 6v4.885a6 6 0 0 0 12 0v-4.885a6 6 0 0 0 -6-6z"/><path d="m220 133.173a19.806 19.806 0 1 0 -19.8-19.805 19.827 19.827 0 0 0 19.8 19.805zm0-27.611a7.806 7.806 0 1 1 -7.805 7.806 7.814 7.814 0 0 1 7.805-7.806z"/><path d="m114.808 221h50.6c3.314 0 5.593-2.676 5.593-5.99v-33.149a31 31 0 1 0 -62 0v33.149a5.831 5.831 0 0 0 5.807 5.99zm25.3-58.3a18.96 18.96 0 0 1 18.332 13.3h-36.665a18.962 18.962 0 0 1 18.332-13.3zm-19.108 25.3h38v21h-38z"/><path d="m125.5 264.945a22.551 22.551 0 0 0 -22.5 22.671v57.952c0 3.314 2.455 6.432 5.768 6.432h33.342c3.314 0 5.89-3.118 5.89-6.432v-57.952a22.551 22.551 0 0 0 -22.5-22.671zm10.5 75.055h-21v-52.384a10.5 10.5 0 1 1 21 0z"/><path d="m275.575 221h50.6a5.845 5.845 0 0 0 5.825-5.99v-33.149a31 31 0 1 0 -62 0v33.149c0 3.314 2.262 5.99 5.575 5.99zm25.3-58.3a18.962 18.962 0 0 1 18.333 13.3h-36.666a18.962 18.962 0 0 1 18.333-13.3zm-18.875 25.3h38v21h-38z"/><path d="m298.872 352h33.343c3.313 0 5.785-3.118 5.785-6.432v-57.952a22.5 22.5 0 1 0 -45 0v57.952c0 3.314 2.559 6.432 5.872 6.432zm6.128-64.384a10.5 10.5 0 1 1 21 0v52.384h-21z"/></g></svg>