<svg id="Layer_1" height="512" viewBox="0 0 512 512" width="512" xmlns="http://www.w3.org/2000/svg" data-name="Layer 1"><path d="m79.37 89.9a49.053 49.053 0 0 0 .16 98.1l.47 212h401v-311z" fill="#e0c59d"/><path d="m351.29 252.02a38.667 38.667 0 0 0 -7.49-43.65 38.069 38.069 0 0 0 -20.27-10.53 59.838 59.838 0 0 1 -31.81-16.34l-101.05-101.19a57.853 57.853 0 0 1 -16.22-31.37 38.178 38.178 0 0 0 -12-22.01 38.657 38.657 0 0 0 -42.23-6.32l24.45 24.48-18.35 18.37-24.46-24.5a38.61 38.61 0 0 0 17.94 50.8 37.754 37.754 0 0 0 9.92 3.27 59.66 59.66 0 0 1 31.71 16.44l101.05 101.2a57.6 57.6 0 0 1 16.43 31.16 38.225 38.225 0 0 0 54.02 28.53l-23.61-23.64 18.34-18.37z" fill="#777796"/><path d="m431.37 248.91a23.609 23.609 0 0 0 -27.86 18.35l-.48 2.31 46.13 9.52.48-2.31a23.532 23.532 0 0 0 -18.27-27.87z" fill="#eadf53"/><path d="m426.1 274.33-36.73 176.72 23.07 4.76 36.72-176.72z" fill="#e75163"/><path d="m403.03 269.57-36.72 176.72 23.06 4.76 36.73-176.72z" fill="#fb6771"/><path d="m366.31 446.29 13.48 43.98 32.65-34.46z" fill="#c79a83"/><path d="m138 400.42v-19.94l23.14-3.84c1.69-6.02 4.67-11.73 7.68-17.06l-13.23-18.64 24.35-24.26 18.69 13.31a76.656 76.656 0 0 1 17.1-6.87l3.86-22.12h34.43l3.82 22.12a75.813 75.813 0 0 1 17.06 6.67l18.62-13.21 24.19 24.31-13.53 18.66c3.01 5.34 4.79 11.06 6.48 17.08l21.34 3.85v34.38l-21.34 3.87c-1.69 6.02-2.86 11.75-5.87 17.09l13.23 18.68-24.35 24.37-18.69-13.1a78.331 78.331 0 0 1 -17.1 7.29l-3.86 22.94h-34.43l-3.88-22.94a79.128 79.128 0 0 1 -17.12-7.5l-18.72 13.2-24.43-24.31 13.09-18.66a77.917 77.917 0 0 1 -7.39-17.07l-23.14-3.86z" fill="#5fa8ed"/><path d="m236.77 343.53a54.14 54.14 0 1 1 -54.22 54.14 54.177 54.177 0 0 1 54.22-54.14zm27.65 54.14a27.65 27.65 0 1 0 -27.65 27.61 27.63 27.63 0 0 0 27.65-27.61z" fill="#d4e1f4"/><path d="m105.63 400.42v47.13h-29.37a45.753 45.753 0 0 1 -45.7-45.8v-262.84a49.018 49.018 0 0 0 48.97 49.07h26.1z" fill="#b59f7c"/><path d="m60.56 184.161a49.081 49.081 0 0 1 -30-45.251v262.84a45.813 45.813 0 0 0 30.113 43.063z" fill="#968163"/><g fill="#284268"><path d="m481.442 83h-.013l-278.985.609-7.531-7.542a52.2 52.2 0 0 1 -14.548-28.107 43.91 43.91 0 0 0 -13.865-25.454 44.892 44.892 0 0 0 -48.811-7.332 6 6 0 0 0 -1.709 9.678l20.21 20.239-9.862 9.876-20.228-20.251a6 6 0 0 0 -9.672 1.684 44.492 44.492 0 0 0 6.294 47.4l-23.156.054a54.927 54.927 0 0 0 -54.566 55.06v262.838c0 28.559 22.753 52.248 51.264 52.248h29.362a6.733 6.733 0 0 0 6.374-6.455v-41.545h20v8.864a6 6 0 0 0 5.015 5.919l19.507 3.248a84.081 84.081 0 0 0 4.96 11.356l-10.952 15.621a6 6 0 0 0 .68 7.7l24.422 24.313a6 6 0 0 0 7.691.65l15.677-11.06a85.791 85.791 0 0 0 11.4 5.058l3.27 19.331a6 6 0 0 0 5.916 5h34.435a6 6 0 0 0 5.917-5l3.247-19.3a83.163 83.163 0 0 0 11.381-4.888l15.659 10.979a6 6 0 0 0 7.688-.672l24.349-24.364a6 6 0 0 0 .653-7.708l-11.158-15.762a76.369 76.369 0 0 0 3.7-11.317l17.61-3.191a6 6 0 0 0 4.931-5.9v-8.877h30.546l-8.114 39.044a5.928 5.928 0 0 0 .141 2.956l13.481 44a6 6 0 0 0 10.092 2.389l32.656-34.455-.01-.009a6.342 6.342 0 0 0 1.77-2.9l10.669-51.025h52.213a5.288 5.288 0 0 0 5.558-5.577v-311.518a5.694 5.694 0 0 0 -1.541-4.2 5.456 5.456 0 0 0 -4.017-1.705zm-381.442 359h-23.736c-21.894 0-39.264-18.306-39.264-40.248v-228.534a53.88 53.88 0 0 0 42.526 20.782h20.474zm226-32.146-16.409 2.973a6 6 0 0 0 -4.708 4.283c-.318 1.131-.617 2.252-.914 3.364-1.248 4.672-2.326 8.707-4.407 12.4a6 6 0 0 0 .33 6.413l10.308 14.555-17.21 17.221-14.563-10.21a5.991 5.991 0 0 0 -6.384-.318 71.461 71.461 0 0 1 -15.776 6.742 6 6 0 0 0 -4.3 4.784l-3.021 17.939h-24.289l-3.033-17.944a6 6 0 0 0 -4.3-4.779 72.274 72.274 0 0 1 -15.794-6.952 6 6 0 0 0 -6.4.328l-14.607 10.3-17.271-17.194 10.184-14.526a6 6 0 0 0 .314-6.391 71.8 71.8 0 0 1 -6.83-15.742 6 6 0 0 0 -4.792-4.3l-18.128-3.019v-24.214l18.125-3.007a6 6 0 0 0 4.795-4.3c1.518-5.413 4.321-10.762 7.125-15.736a6 6 0 0 0 -.335-6.419l-10.29-14.5 17.164-17.1 14.562 10.372a6 6 0 0 0 6.42.343 70.75 70.75 0 0 1 15.777-6.328 6 6 0 0 0 4.3-4.748l2.987-17.144h24.339l2.961 17.139a6 6 0 0 0 4.3 4.757 69.569 69.569 0 0 1 15.738 6.124 6 6 0 0 0 6.412-.337l14.471-10.27 17.01 17.092-10.536 14.526a6 6 0 0 0 -.369 6.469c2.779 4.931 4.454 10.484 5.931 15.749a6 6 0 0 0 4.711 4.283l16.402 2.968zm47.4 31.771 34.281-164.966 11.319 2.335-34.281 164.967zm37.1-176.638a17.621 17.621 0 0 1 19.66-10.2 17.531 17.531 0 0 1 13.975 17.142zm-27.99 213.685-7.5-24.462 25.661 5.3zm25.277-29.951-11.315-2.335 34.281-164.967 11.314 2.335zm67.213-54.721h-43.261l24.261-116c1-7.752-.138-15.661-4.479-22.27a29.759 29.759 0 0 0 -53.888 10.309l-26.593 127.961h-33.04v-13.519a6 6 0 0 0 -4.934-5.9l-17.673-3.192a80.137 80.137 0 0 0 -4.191-11.3l11.368-15.674a6 6 0 0 0 -.6-7.755l-24.2-24.313a6 6 0 0 0 -7.726-.66l-15.623 11.087a81.022 81.022 0 0 0 -11.3-4.358l-3.185-18.438a6 6 0 0 0 -5.915-4.978h-34.435a6 6 0 0 0 -5.911 4.969l-3.222 18.465a82.339 82.339 0 0 0 -11.35 4.532l-15.684-11.166a6 6 0 0 0 -7.716.637l-24.349 24.262a6 6 0 0 0 -.658 7.723l11.048 15.563a84.3 84.3 0 0 0 -5.192 11.34l-19.534 3.242a6 6 0 0 0 -5.018 5.914v13.519h-20v-206.023a6.312 6.312 0 0 0 -6.374-5.977h-26.1a43.072 43.072 0 0 1 -.147-86.143l39.094-.094a43.572 43.572 0 0 0 10.178 3.173 53.521 53.521 0 0 1 28.534 14.774l51.478 51.553a6 6 0 0 0 8.489 0 6 6 0 0 0 0-8.482l-51.478-51.553a65.569 65.569 0 0 0 -34.924-18.1 34.916 34.916 0 0 1 -8.75-2.956v-.42h-.757a32.671 32.671 0 0 1 -16.619-33.527l17.45 17.475a6.005 6.005 0 0 0 8.495 0l18.342-18.367a6 6 0 0 0 0-8.48l-17.424-17.453a32.638 32.638 0 0 1 26.913 7.959 32.019 32.019 0 0 1 10.129 18.554 64.29 64.29 0 0 0 17.9 34.633l101.05 101.2a65.557 65.557 0 0 0 34.991 18 32.066 32.066 0 0 1 17.088 8.867 32.533 32.533 0 0 1 9 28.172l-16.658-16.674a6 6 0 0 0 -8.492 0l-18.338 18.368a6 6 0 0 0 0 8.479l16.573 16.6a32.7 32.7 0 0 1 -26.788-8.044 32.084 32.084 0 0 1 -10.023-18.658 63.317 63.317 0 0 0 -18.105-34.424l-19.895-19.932a6 6 0 0 0 -8.489 0 6 6 0 0 0 0 8.482l19.9 19.924a51.4 51.4 0 0 1 14.757 27.9 44.21 44.21 0 0 0 43.63 37.194 44.531 44.531 0 0 0 18.753-4.157 5.994 5.994 0 0 0 1.79-9.715l-19.377-19.4 9.861-9.876 19.388 19.416a6 6 0 0 0 6.738 1.221 6.188 6.188 0 0 0 3.008-3.057 44.669 44.669 0 0 0 -8.749-50.294 44.007 44.007 0 0 0 -23.442-12.204 53.618 53.618 0 0 1 -28.637-14.67l-81.59-81.708 260.627-.637z"/><path d="m69 227.817a6 6 0 0 0 -6 6v105.572a6 6 0 0 0 12 0v-105.572a6 6 0 0 0 -6-6z"/><path d="m69 205.553a6 6 0 0 0 -6 6v4.614a6 6 0 1 0 12 0v-4.614a6 6 0 0 0 -6-6z"/><path d="m236.771 337.534a60.139 60.139 0 1 0 60.219 60.139 60.247 60.247 0 0 0 -60.219-60.139zm0 108.277a48.139 48.139 0 1 1 48.219-48.138 48.234 48.234 0 0 1 -48.219 48.138z"/><path d="m236.771 364.061a33.612 33.612 0 1 0 33.653 33.612 33.671 33.671 0 0 0 -33.653-33.612zm0 55.224a21.612 21.612 0 1 1 21.653-21.612 21.658 21.658 0 0 1 -21.653 21.612z"/></g></svg>