<svg id="Capa_1" enable-background="new 0 0 512 512" height="512" viewBox="0 0 512 512" width="512" xmlns="http://www.w3.org/2000/svg"><g><g><g><path d="m480 325.5h-186c-5.523 0-10 4.477-10 10v148.904h206v-148.904c0-5.523-4.477-10-10-10z" fill="#f8f7f7"/><path d="m490 463.4v21h-206v-148.9c0-5.523 4.477-10 10-10h8v133.9c0 2.209 1.791 4 4 4z" fill="#e8e8e8"/><path d="m500.998 491.703c-3.987 7.851-13.046 11.797-21.851 11.797h-.147-184c-8.882 0-16.998-5.032-20.947-12.988l-2.721-5.482c-.547-1.103-.832-.317-.832-1.548 0-4.408 3.573-7.981 7.981-7.981l5.579-1h76.94l26.5 2.445 25.5-2.446h83.519c4.408 0 7.981 3.573 7.981 7.981v.416c0 1.256-.296 2.494-.865 3.614z" fill="#b6c4cf"/><path d="m501.1 491.5-.1.2c-3.99 7.85-12.05 12.8-20.85 12.8h-67.15l-25.45-2.014-26.55 2.014h-67c-4.44 0-8.69-1.26-12.32-3.51-3.64-2.25-6.66-5.5-8.63-9.48l-2.72-5.48c-.55-1.1-.83-2.32-.83-3.55 0-2.2.89-4.2 2.34-5.64 1.44-1.45 3.44-2.34 5.64-2.34h6.58l1.99 4.01c1.97 3.98 4.99 7.23 8.63 9.48 3.63 2.25 7.88 3.51 12.32 3.51z" fill="#9facba"/><path d="m413 474.5v30l-26-3.115-26 3.115v-30z" fill="#9facba"/><path d="m361 491.5h52v13h-52z" fill="#8d9ca8"/></g><g><path d="m218 325.5h-186c-5.523 0-10 4.477-10 10v148.904h206v-148.904c0-5.523-4.477-10-10-10z" fill="#f8f7f7"/><path d="m228 463.4v21h-206v-148.9c0-5.523 4.477-10 10-10h8v133.9c0 2.209 1.791 4 4 4z" fill="#e8e8e8"/><path d="m238.998 491.703c-3.987 7.851-13.046 11.797-21.851 11.797h-.147-184c-8.882 0-16.998-5.032-20.947-12.988l-2.721-5.482c-.547-1.103-.832-.317-.832-1.548 0-4.408 3.573-7.981 7.981-7.981l5.579-1h76.94l26.5 2.445 25.5-2.446h83.519c4.408 0 7.981 3.573 7.981 7.981v.416c0 1.256-.296 2.494-.865 3.614z" fill="#b6c4cf"/><path d="m239.1 491.5-.1.2c-3.99 7.85-12.05 12.8-20.85 12.8h-67.15l-25.45-2.014-26.55 2.014h-67c-4.44 0-8.69-1.26-12.32-3.51-3.64-2.25-6.66-5.5-8.63-9.48l-2.72-5.48c-.55-1.1-.83-2.32-.83-3.55 0-2.2.89-4.2 2.34-5.64 1.44-1.45 3.44-2.34 5.64-2.34h6.58l1.99 4.01c1.97 3.98 4.99 7.23 8.63 9.48 3.63 2.25 7.88 3.51 12.32 3.51z" fill="#9facba"/><path d="m151 474.5v30l-26-3.115-26 3.115v-30z" fill="#9facba"/><path d="m99 491.5h52v13h-52z" fill="#8d9ca8"/></g><path d="m349.05 7.5h-186c-5.523 0-10 4.477-10 10v148.904h206v-148.904c0-5.523-4.477-10-10-10z" fill="#f8f7f7"/><path d="m359.05 145.4v21h-206v-148.9c0-5.523 4.477-10 10-10h8v133.9c0 2.209 1.791 4 4 4z" fill="#e8e8e8"/><path d="m370.048 173.703c-3.987 7.851-13.046 11.797-21.851 11.797h-.148-184c-8.882 0-16.998-5.032-20.947-12.988l-2.721-5.482c-.547-1.103-.832-.317-.832-1.548 0-4.408 3.573-7.981 7.981-7.981l5.579-1h76.94l26.5 2.445 25.5-2.445h83.519c4.408 0 7.981 3.573 7.981 7.981v.416c0 1.256-.296 2.494-.865 3.614z" fill="#b6c4cf"/><path d="m370.15 173.5-.1.2c-3.99 7.85-12.05 12.8-20.85 12.8h-67.15l-25.45-2.014-26.55 2.014h-67c-4.44 0-8.69-1.26-12.32-3.51-3.64-2.25-6.66-5.5-8.63-9.48l-2.72-5.48c-.55-1.1-.83-2.32-.83-3.55 0-2.2.89-4.2 2.34-5.64 1.44-1.45 3.44-2.34 5.64-2.34h6.58l1.99 4.01c1.97 3.98 4.99 7.23 8.63 9.48 3.63 2.25 7.88 3.51 12.32 3.51z" fill="#9facba"/><path d="m282.05 156.5v30l-26-3.115-26 3.115v-30z" fill="#9facba"/><path d="m230.05 173.5h52v13h-52z" fill="#8d9ca8"/><circle cx="256" cy="256" fill="#b3e59f" r="19"/><path d="m195 395v10c0 5.52-4.48 10-10 10h-46l-4.532-15 4.532-15h46c5.52 0 10 4.48 10 10z" fill="#e8e8e8"/><path d="m139 385v30h-74c-5.52 0-10-4.48-10-10v-10c0-5.52 4.48-10 10-10z" fill="#b3e59f"/><path d="m457 395.5v10c0 5.52-4.48 10-10 10h-76l-6.55-15.5 6.55-14.5h76c5.52 0 10 4.48 10 10z" fill="#e8e8e8"/><path d="m325.5 76.5v10c0 5.52-4.48 10-10 10h-26l-5.583-12.968 5.583-17.032h26c5.52 0 10 4.48 10 10z" fill="#e8e8e8"/><g fill="#b3e59f"><path d="m289.5 66.5v30h-94c-5.52 0-10-4.48-10-10v-10c0-5.52 4.48-10 10-10z"/><path d="m371 385.5v30h-44c-5.52 0-10-4.48-10-10v-10c0-5.52 4.48-10 10-10z"/></g></g><g><path d="m497.5 467.05v-131.55c0-9.649-7.851-17.5-17.5-17.5h-85.5v-16.918c0-7.509-4.778-14.17-11.889-16.575l-21.777-7.372c-3.92-1.329-8.181.775-9.509 4.698-1.328 3.924.776 8.181 4.699 9.509l21.778 7.373c1.016.344 1.698 1.295 1.698 2.367v16.918h-85.5c-9.649 0-17.5 7.851-17.5 17.5v131.55c-8.079.51-14.5 7.227-14.5 15.432 0 2.376.558 4.756 1.614 6.882l2.721 5.483c5.252 10.58 15.853 17.153 27.665 17.153h186.147c11.692 0 22.244-6.476 27.538-16.901l2.638-5.194c.675-1.337 1.6-4.064 1.676-7.423.001-8.205-6.42-14.922-14.499-15.432zm-217.729 21.128-2.721-5.483c-.033-.066-.05-.138-.05-.213 0-.266.216-.481.481-.481h76.019v15h-59.5c-6.075-.001-11.527-3.382-14.229-8.823zm125.729-6.178v15h-37v-15zm91.5.897c0 .075-.019.151-.052.218l-2.637 5.192c-2.723 5.361-8.15 8.692-14.164 8.692h-59.647v-15h14.099c4.142 0 7.5-3.357 7.5-7.5s-3.358-7.5-7.5-7.5h-143.099v-131.499c0-1.379 1.122-2.5 2.5-2.5h186c1.378 0 2.5 1.121 2.5 2.5v131.5h-12.869c-4.142 0-7.5 3.357-7.5 7.5s3.358 7.5 7.5 7.5h26.887c.266 0 .481.216.481.481v.416z"/><path d="m134.199 298.715 97.194-32.898c3.91 9.765 13.463 16.684 24.607 16.684s20.698-6.919 24.607-16.684l41.899 14.182c.797.27 1.608.397 2.406.397 3.127 0 6.045-1.971 7.103-5.098 1.328-3.923-.776-8.181-4.699-9.509l-45.412-15.371c-2.043-9.491-9.183-17.104-18.403-19.831v-36.587h85.647c11.692 0 22.244-6.476 27.538-16.901 2.062-4.307 4.085-9.209 4.314-12.201.342-7.593-6.308-15.323-14.5-15.848v-131.55c0-9.649-7.851-17.5-17.5-17.5h-186c-9.649 0-17.5 7.851-17.5 17.5v38.461c0 4.143 3.358 7.5 7.5 7.5s7.5-3.357 7.5-7.5v-38.461c0-1.379 1.122-2.5 2.5-2.5h186c1.378 0 2.5 1.121 2.5 2.5v131.5h-191v-58.039c0-4.143-3.358-7.5-7.5-7.5s-7.5 3.357-7.5 7.5v58.089c-8.079.51-14.5 7.227-14.5 15.432 0 3.106 2.713 9.517 4.335 12.365 5.252 10.58 15.853 17.153 27.665 17.153h85.5v36.588c-9.221 2.726-16.36 10.34-18.403 19.831l-100.707 34.087c-7.112 2.406-11.89 9.067-11.89 16.576v16.918h-85.5c-9.649 0-17.5 7.851-17.5 17.5v131.55c-8.079.51-14.5 7.227-14.5 15.431 0 2.376.558 4.756 1.614 6.882l2.721 5.483c5.252 10.581 15.853 17.154 27.665 17.154h186.147c11.692 0 22.244-6.476 27.538-16.901l2.638-5.194c.675-1.337 1.6-4.064 1.676-7.423 0-8.205-6.421-14.921-14.5-15.432v-50.12c0-4.143-3.358-7.5-7.5-7.5s-7.5 3.357-7.5 7.5v50.07h-191v-131.5c0-1.379 1.122-2.5 2.5-2.5h186c1.378 0 2.5 1.121 2.5 2.5v46.397c0 4.143 3.358 7.5 7.5 7.5s7.5-3.357 7.5-7.5v-46.397c0-9.649-7.851-17.5-17.5-17.5h-85.5v-16.918c.001-1.072.683-2.023 1.7-2.367zm103.301-119.715v-15h37v15zm128.5-14.103c0 .075-.019.151-.052.218l-2.637 5.192c-2.723 5.361-8.15 8.692-14.164 8.692h-59.647v-15h76.019c.266 0 .481.216.481.481zm-217.229 5.281-2.721-5.483c-.033-.066-.05-.138-.05-.213 0-.266.216-.481.481-.481h76.019v15h-59.5c-6.075-.001-11.527-3.382-14.229-8.823zm107.229 74.322c6.341 0 11.5 5.159 11.5 11.5s-5.159 11.5-11.5 11.5-11.5-5.159-11.5-11.5 5.159-11.5 11.5-11.5zm-238.229 243.678-2.721-5.483c-.033-.066-.05-.138-.05-.213 0-.266.216-.481.481-.481h76.019v15h-59.5c-6.075-.001-11.527-3.382-14.229-8.823zm88.729-6.178h37v15h-37zm128.5.897c0 .075-.019.151-.052.218l-2.637 5.192c-2.723 5.361-8.15 8.692-14.164 8.692h-59.647v-15h76.019c.266 0 .481.216.481.481z"/><path d="m315.5 104c9.649 0 17.5-7.851 17.5-17.5v-10c0-9.649-7.851-17.5-17.5-17.5h-120c-9.649 0-17.5 7.851-17.5 17.5v10c0 9.649 7.851 17.5 17.5 17.5zm2.5-27.5v10c0 1.379-1.122 2.5-2.5 2.5h-18.5v-15h18.5c1.378 0 2.5 1.121 2.5 2.5zm-125 10v-10c0-1.379 1.122-2.5 2.5-2.5h86.5v15h-86.5c-1.378 0-2.5-1.121-2.5-2.5z"/><path d="m65 377.5c-9.649 0-17.5 7.851-17.5 17.5v10c0 9.649 7.851 17.5 17.5 17.5h120c9.649 0 17.5-7.851 17.5-17.5v-10c0-9.649-7.851-17.5-17.5-17.5zm-2.5 27.5v-10c0-1.379 1.122-2.5 2.5-2.5h66.5v15h-66.5c-1.378 0-2.5-1.121-2.5-2.5zm125-10v10c0 1.379-1.122 2.5-2.5 2.5h-38.5v-15h38.5c1.378 0 2.5 1.121 2.5 2.5z"/><path d="m464.5 395.5c0-9.649-7.851-17.5-17.5-17.5h-120c-9.649 0-17.5 7.851-17.5 17.5v10c0 9.649 7.851 17.5 17.5 17.5h120c9.649 0 17.5-7.851 17.5-17.5zm-140 10v-10c0-1.379 1.122-2.5 2.5-2.5h36.5v15h-36.5c-1.378 0-2.5-1.121-2.5-2.5zm125 0c0 1.379-1.122 2.5-2.5 2.5h-68.5v-15h68.5c1.378 0 2.5 1.121 2.5 2.5z"/></g></g></svg>