<svg id="Layer_1" height="512" viewBox="0 0 512 512" width="512" xmlns="http://www.w3.org/2000/svg" data-name="Layer 1"><path d="m421.07 34h-330.14a29.639 29.639 0 0 0 -29.93 29.64v401.36a29.945 29.945 0 0 0 29.93 30h330.14a29.945 29.945 0 0 0 29.93-30v-401.36a29.639 29.639 0 0 0 -29.93-29.64z" fill="#c79a83"/><path d="m109.5 69h293v380.29h-293z" fill="#bfdae0"/><circle cx="247.45" cy="401.99" fill="#5fcda4" r="17.99"/><circle cx="349.73" cy="301.72" fill="#fb6771" r="17.99"/><path d="m268.56 135.62 3.49 32.91-32.16-16.35z" fill="#5fa8ed"/><path d="m181.27 177.24a18 18 0 1 1 -17.99 18 17.993 17.993 0 0 1 17.99-18z" fill="#6addc7"/><path d="m173.86 17h164.28v66.28h-164.28z" fill="#6d7486"/><path d="m91 465v-401.36a29.639 29.639 0 0 1 29.93-29.64h-30a29.639 29.639 0 0 0 -29.93 29.64v401.36a29.945 29.945 0 0 0 29.93 30h30a29.945 29.945 0 0 1 -29.93-30z" fill="#a87e6c"/><path d="m173.86 17h30v66.28h-30z" fill="#525968"/><g fill="#284268"><path d="m256 331.85a6 6 0 0 0 -12 0v9.47a6 6 0 0 0 12 0z"/><path d="m250 355.7a6 6 0 0 0 -6 6v9.47a6 6 0 0 0 12 0v-9.47a6 6 0 0 0 -6-6z"/><path d="m237.174 157.524 11.68 5.942c-1.028 1.432-2.152 2.826-3.328 4.262-5.084 6.2-10.845 13.234-10.845 26.955s5.761 20.752 10.845 26.955c4.54 5.541 8.127 9.917 8.127 19.349s-3.586 13.805-8.127 19.345c-5.083 6.2-10.845 13.233-10.845 26.952s5.762 20.75 10.845 26.953c.6.731 1.2 1.461 1.787 2.2a6 6 0 1 0 9.407-7.45c-.63-.8-1.271-1.578-1.913-2.361-4.54-5.54-8.126-9.916-8.126-19.346s3.586-13.805 8.126-19.346c5.084-6.2 10.846-13.232 10.846-26.951s-5.762-20.752-10.845-26.955c-4.541-5.541-8.127-9.918-8.127-19.349s3.586-13.808 8.127-19.349a76.667 76.667 0 0 0 4.848-6.374l9.677 4.922a6 6 0 0 0 8.687-5.982l-3.5-32.917a6 6 0 0 0 -8.967-4.561l-28.663 16.559a6 6 0 0 0 .282 10.543zm26.391-12.094 1.354 12.743-12.45-6.332z"/><path d="m247.45 425.984a23.993 23.993 0 1 0 -23.993-23.993 24.021 24.021 0 0 0 23.993 23.993zm0-35.986a11.993 11.993 0 1 1 -11.993 11.993 12.007 12.007 0 0 1 11.993-11.991z"/><path d="m181.271 219.229a23.994 23.994 0 1 0 -23.993-23.994 24.022 24.022 0 0 0 23.993 23.994zm0-35.987a11.994 11.994 0 1 1 -11.993 11.993 12.007 12.007 0 0 1 11.993-11.993z"/><path d="m325.735 301.719a23.994 23.994 0 1 0 23.994-23.993 24.022 24.022 0 0 0 -23.994 23.993zm23.994-11.993a11.994 11.994 0 1 1 -11.994 11.993 12.007 12.007 0 0 1 11.994-11.993z"/><path d="m308.7 144.825a6 6 0 0 0 8.485 0l9.82-9.82 9.82 9.82a6 6 0 0 0 8.485-8.485l-9.819-9.82 9.819-9.82a6 6 0 0 0 -8.485-8.485l-9.82 9.82-9.82-9.82a6 6 0 0 0 -8.485 8.485l9.82 9.82-9.82 9.82a6 6 0 0 0 0 8.485z"/><path d="m196.623 279.626a6 6 0 0 0 -8.486 0l-9.819 9.82-9.82-9.82a6 6 0 0 0 -8.486 8.485l9.82 9.82-9.82 9.82a6 6 0 1 0 8.486 8.485l9.82-9.819 9.819 9.819a6 6 0 0 0 8.486-8.485l-9.82-9.82 9.82-9.82a6 6 0 0 0 0-8.485z"/><path d="m135 226.181a6 6 0 0 0 6-6v-101.756a6 6 0 0 0 -12 0v101.756a6 6 0 0 0 6 6z"/><path d="m135 105.741a6 6 0 0 0 6-6v-4.884a6 6 0 0 0 -12 0v4.884a6 6 0 0 0 6 6z"/><path d="m421.065 28h-77.065v-11a5.88 5.88 0 0 0 -5.856-6h-164.288a5.88 5.88 0 0 0 -5.856 6v11h-77.065a35.679 35.679 0 0 0 -35.935 35.641v401.359a35.985 35.985 0 0 0 35.935 36h330.13a35.985 35.985 0 0 0 35.935-36v-401.359a35.679 35.679 0 0 0 -35.935-35.641zm-241.065-5h152v54h-152zm265 442a23.971 23.971 0 0 1 -23.935 24h-330.13a23.971 23.971 0 0 1 -23.935-24v-401.359a23.667 23.667 0 0 1 23.935-23.641h77.065v23h-58.5a6.519 6.519 0 0 0 -6.5 6.5v57.5a6 6 0 0 0 12 0v-52h53v8.281a5.645 5.645 0 0 0 5.856 5.719h164.288a5.645 5.645 0 0 0 5.856-5.719v-8.281h52v368h-281v-274a6 6 0 0 0 -12 0v280.287a5.713 5.713 0 0 0 5.713 5.713h293.787a5.5 5.5 0 0 0 5.5-5.5v-380.5a6 6 0 0 0 -6-6h-58v-23h77.065a23.667 23.667 0 0 1 23.935 23.641z"/></g></svg>