<svg id="Icons" enable-background="new 0 0 512 512" height="512" viewBox="0 0 512 512" width="512" xmlns="http://www.w3.org/2000/svg"><g><circle cx="256" cy="256" fill="#6052a3" r="256"/><g fill="#9175a7"><path d="m256.168 455.059c-3.612 0-7.268-.099-10.867-.292l-.273-.016c-2.757-.159-4.862-2.522-4.703-5.279.16-2.757 2.535-4.854 5.28-4.703l.195.01c6.54.353 13.084.371 19.584.058 2.764-.127 5.102 1.995 5.235 4.753.133 2.759-1.995 5.103-4.753 5.235-3.22.154-6.484.234-9.698.234z"/><path d="m305.714 448.631c-2.213 0-4.237-1.48-4.83-3.721-.707-2.67.884-5.407 3.554-6.113 6.353-1.683 12.69-3.724 18.834-6.066 2.578-.984 5.469.31 6.453 2.891.984 2.58-.31 5.47-2.891 6.453-6.472 2.468-13.146 4.617-19.837 6.389-.428.113-.859.167-1.283.167z"/><path d="m205.273 448.348c-.431 0-.869-.056-1.305-.174-6.687-1.804-13.349-3.983-19.802-6.479-2.576-.995-3.856-3.891-2.86-6.466.996-2.577 3.891-3.858 6.467-2.86 6.125 2.368 12.451 4.438 18.8 6.15 2.666.719 4.245 3.463 3.525 6.13-.602 2.23-2.62 3.699-4.825 3.699z"/><path d="m361.24 424.059c-1.641 0-3.247-.807-4.204-2.286-1.5-2.319-.835-5.415 1.484-6.914 5.52-3.568 10.915-7.47 16.036-11.596 2.15-1.729 5.298-1.394 7.031.757s1.394 5.298-.756 7.03c-5.391 4.343-11.07 8.45-16.881 12.207-.839.542-1.78.802-2.71.802z"/><path d="m149.881 423.51c-.939 0-1.889-.265-2.733-.817-5.787-3.787-11.442-7.925-16.808-12.3-2.141-1.744-2.461-4.895-.716-7.034 1.745-2.141 4.896-2.461 7.035-.716 5.097 4.154 10.468 8.085 15.965 11.683 2.311 1.512 2.958 4.61 1.446 6.922-.96 1.465-2.558 2.262-4.189 2.262z"/><path d="m406.461 383.566c-1.111 0-2.229-.368-3.158-1.126-2.14-1.746-2.458-4.896-.713-7.035 4.157-5.095 8.09-10.465 11.689-15.959 1.513-2.312 4.612-2.956 6.922-1.443s2.956 4.612 1.443 6.922c-3.789 5.785-7.929 11.438-12.306 16.803-.988 1.21-2.427 1.838-3.877 1.838z"/><path d="m104.9 382.76c-1.46 0-2.907-.636-3.895-1.861-4.344-5.387-8.454-11.064-12.214-16.875-1.5-2.318-.837-5.414 1.481-6.914 2.319-1.503 5.415-.837 6.915 1.48 3.572 5.521 7.476 10.914 11.603 16.031 1.733 2.149 1.396 5.297-.753 7.03-.925.746-2.035 1.109-3.137 1.109z"/><path d="m437.001 331.111c-.601 0-1.21-.108-1.804-.338-2.575-.997-3.854-3.893-2.857-6.468 2.372-6.128 4.443-12.452 6.158-18.797.721-2.666 3.462-4.246 6.131-3.523 2.666.721 4.243 3.466 3.523 6.131-1.806 6.684-3.988 13.345-6.486 19.799-.769 1.982-2.66 3.196-4.665 3.196z"/><path d="m74.628 330.134c-2.014 0-3.911-1.225-4.672-3.218-2.471-6.472-4.624-13.145-6.398-19.834-.708-2.67.882-5.407 3.551-6.115 2.666-.702 5.407.882 6.115 3.551 1.685 6.352 3.728 12.688 6.074 18.832.985 2.58-.308 5.47-2.888 6.454-.586.224-1.189.33-1.782.33z"/><path d="m449.759 271.77c-.094 0-.189-.003-.284-.008-2.757-.154-4.867-2.515-4.712-5.271l.018-.318c.185-3.447.279-6.922.279-10.34 0-3.146-.079-6.329-.235-9.464-.137-2.758 1.987-5.104 4.745-5.242 2.757-.128 5.105 1.987 5.242 4.746.165 3.299.248 6.649.248 9.96 0 3.596-.099 7.252-.293 10.866l-.019.351c-.15 2.661-2.355 4.72-4.989 4.72z"/><path d="m62.169 270.71c-2.65 0-4.86-2.081-4.99-4.757-.158-3.242-.238-6.534-.238-9.785 0-3.596.099-7.252.293-10.866l.008-.159c.143-2.758 2.508-4.883 5.251-4.735 2.758.143 4.877 2.494 4.735 5.251l-.009.17c-.185 3.447-.279 6.922-.279 10.34 0 3.089.076 6.218.227 9.299.134 2.758-1.992 5.103-4.75 5.237-.083.003-.166.005-.248.005z"/><path d="m443.562 211.037c-2.211 0-4.233-1.478-4.829-3.715-1.689-6.348-3.738-12.682-6.09-18.825-.987-2.579.303-5.471 2.882-6.458 2.578-.983 5.47.304 6.457 2.882 2.478 6.472 4.636 13.143 6.416 19.829.71 2.669-.877 5.408-3.546 6.118-.432.114-.864.169-1.29.169z"/><path d="m68.634 210.352c-.43 0-.868-.056-1.303-.173-2.667-.719-4.246-3.462-3.528-6.128 1.801-6.688 3.978-13.352 6.469-19.804.995-2.577 3.89-3.858 6.466-2.863 2.576.994 3.858 3.889 2.863 6.465-2.366 6.126-4.432 12.452-6.142 18.802-.601 2.231-2.62 3.701-4.825 3.701z"/><path d="m418.924 155.552c-1.638 0-3.243-.804-4.2-2.28-3.576-5.515-7.484-10.904-11.617-16.021-1.735-2.148-1.4-5.296.748-7.031 2.146-1.735 5.295-1.402 7.031.748 4.351 5.386 8.464 11.06 12.229 16.863 1.502 2.317.842 5.413-1.475 6.916-.841.544-1.784.805-2.716.805z"/><path d="m93.44 154.957c-.938 0-1.887-.265-2.731-.816-2.312-1.511-2.96-4.609-1.449-6.921 3.786-5.79 7.921-11.447 12.292-16.812 1.744-2.143 4.894-2.464 7.035-.72s2.463 4.894.719 7.034c-4.151 5.098-8.08 10.471-11.675 15.971-.96 1.466-2.559 2.264-4.191 2.264z"/><path d="m378.366 110.375c-1.109 0-2.226-.367-3.153-1.122-5.098-4.148-10.473-8.074-15.975-11.668-2.312-1.511-2.962-4.609-1.452-6.921s4.607-2.961 6.92-1.452c5.792 3.784 11.451 7.917 16.818 12.285 2.142 1.743 2.465 4.892.722 7.034-.987 1.214-2.428 1.844-3.88 1.844z"/><path d="m134.177 109.951c-1.459 0-2.906-.636-3.894-1.859-1.734-2.149-1.398-5.297.75-7.031 5.387-4.349 11.063-8.46 16.871-12.222 2.319-1.502 5.414-.839 6.915 1.478 1.501 2.318.839 5.414-1.479 6.915-5.517 3.573-10.909 7.479-16.026 11.61-.924.746-2.035 1.109-3.137 1.109z"/><path d="m325.872 79.907c-.598 0-1.206-.107-1.798-.336-6.127-2.362-12.455-4.426-18.805-6.134-2.667-.717-4.248-3.459-3.531-6.126s3.46-4.247 6.126-3.53c6.689 1.798 13.353 3.971 19.807 6.46 2.577.993 3.86 3.888 2.866 6.464-.765 1.985-2.659 3.202-4.665 3.202z"/><path d="m186.788 79.658c-2.013 0-3.91-1.224-4.671-3.216-.986-2.579.306-5.47 2.885-6.456 6.472-2.473 13.144-4.628 19.832-6.405 2.667-.708 5.407.879 6.116 3.548s-.879 5.407-3.548 6.116c-6.35 1.688-12.685 3.734-18.83 6.083-.588.224-1.191.33-1.784.33z"/><path d="m266.52 67.231c-.116 0-.232-.004-.349-.012l.344-4.988-.355 4.987c-6.53-.35-13.197-.368-19.708-.047-2.764.124-5.104-1.99-5.24-4.748s1.99-5.104 4.748-5.24c6.852-.339 13.866-.32 20.74.05l.16.01c2.755.19 4.834 2.577 4.644 5.332-.183 2.638-2.38 4.656-4.984 4.656z"/></g><g><g><path d="m291.514 190.88v135.03c0 4.56-1.222 8.838-3.353 12.521-2.774 4.811-7.114 8.619-12.317 10.703-2.883 1.175-6.049 1.818-9.355 1.818h-196.129c-3.322 0-6.487-.642-9.371-1.818-5.203-2.1-9.543-5.892-12.317-10.703-2.131-3.682-3.353-7.961-3.353-12.521v-135.03c0-10.515 6.472-19.525 15.67-23.223 2.883-1.175 6.049-1.818 9.371-1.818h196.129c3.306 0 6.472.643 9.355 1.818 9.183 3.697 15.67 12.692 15.67 23.223z" fill="#d48d77"/><path d="m76.659 190.88v135.03c0 10.53-6.488 19.525-15.67 23.223-9.198-3.698-15.67-12.709-15.67-23.223v-135.03c0-10.515 6.472-19.525 15.67-23.223 9.183 3.697 15.67 12.692 15.67 23.223z" fill="#c17e62"/><path d="m291.514 190.88v135.03c0 4.56-1.222 8.838-3.353 12.521-2.774 4.811-7.114 8.619-12.317 10.703-5.203-2.1-9.543-5.892-12.317-10.703-2.131-3.682-3.353-7.961-3.353-12.521v-135.03c0-10.515 6.472-19.525 15.67-23.223 9.183 3.697 15.67 12.692 15.67 23.223z" fill="#eea47d"/><path d="m288.161 338.431c-4.325 7.49-12.411 12.521-21.672 12.521h-196.129c-3.322 0-6.487-.642-9.371-1.818-5.203-2.1-9.543-5.892-12.317-10.703 2.774-4.811 7.114-8.603 12.317-10.703 2.883-1.175 6.049-1.818 9.371-1.818h196.129c9.261 0 17.347 5.03 21.672 12.521z" fill="#a26d5a"/></g><g><path d="m261.305 269.282h-185.776c-16.684 0-30.21-13.525-30.21-30.21v-13.843h246.196v13.843c-.001 16.684-13.526 30.21-30.21 30.21z" fill="#a26d5a"/><path d="m291.514 190.88v41.463c0 10.891-8.838 19.729-19.729 19.729h-206.737c-10.891 0-19.729-8.838-19.729-19.729v-41.463c0-10.515 6.472-19.525 15.67-23.223 2.883-1.175 6.049-1.818 9.371-1.818h196.129c3.306 0 6.472.643 9.355 1.818 9.183 3.697 15.67 12.692 15.67 23.223z" fill="#c17e62"/><path d="m76.659 190.88v61.192h-11.611c-10.891 0-19.729-8.838-19.729-19.729v-41.463c0-10.515 6.472-19.525 15.67-23.223 9.183 3.697 15.67 12.692 15.67 23.223z" fill="#a26d5a"/><path d="m291.514 190.88v41.463c0 10.891-8.838 19.729-19.729 19.729h-11.612v-61.192c0-10.515 6.472-19.525 15.67-23.223 9.184 3.697 15.671 12.692 15.671 23.223z" fill="#d48d77"/><path d="m233.835 179.026h-130.836c-7.581 0-13.727 6.146-13.727 13.727s6.146 13.727 13.727 13.727h130.836c7.581 0 13.727-6.146 13.727-13.727s-6.146-13.727-13.727-13.727z" fill="#d48d77"/><path d="m226.503 196.657h-82.865c-4.869 0-8.815-3.947-8.815-8.815 0-4.869 3.947-8.815 8.815-8.815h82.865c4.869 0 8.815 3.947 8.815 8.815s-3.947 8.815-8.815 8.815z" fill="#eea47d"/></g><g><g><path d="m109.52 227.313c-1.771-1.316-3.965-2.084-6.346-2.084h-15.796c-2.366 0-4.56.768-6.331 2.084-2.664 1.927-4.388 5.077-4.388 8.634v32.249c0 3.557 1.724 6.707 4.388 8.634 1.771 1.316 3.965 2.084 6.331 2.084h15.796c2.382 0 4.576-.768 6.346-2.084 2.648-1.943 4.372-5.093 4.372-8.634v-32.249c0-3.541-1.724-6.691-4.372-8.634zm-4.384 35.724c0 3.449-2.796 6.244-6.244 6.244h-7.223c-3.449 0-6.244-2.796-6.244-6.244v-21.931c0-3.449 2.796-6.244 6.244-6.244h7.223c3.449 0 6.244 2.796 6.244 6.244z" fill="#f9c744"/><path d="m113.892 235.947v32.249c0 3.542-1.724 6.691-4.372 8.634-2.664-1.943-4.388-5.093-4.388-8.634v-32.249c0-3.542 1.724-6.691 4.388-8.634 2.648 1.943 4.372 5.093 4.372 8.634z" fill="#fad98f"/><path d="m85.419 235.947v32.249c0 3.542-1.724 6.691-4.372 8.634-2.664-1.927-4.388-5.077-4.388-8.634v-32.249c0-3.557 1.724-6.707 4.388-8.634 2.648 1.943 4.372 5.093 4.372 8.634z" fill="#f39e22"/><path d="m109.52 227.313c-1.771-1.316-3.965-2.084-6.346-2.084h-10.077c.574 3.528 1.925 6.791 3.85 9.634h1.945c3.449 0 6.244 2.796 6.244 6.244v1.307c2.651 1.494 5.604 2.516 8.756 2.92v-9.386c0-3.542-1.724-6.692-4.372-8.635z" fill="#faefdc"/></g><g><path d="m255.802 227.313c-1.771-1.316-3.965-2.084-6.346-2.084h-15.796c-2.366 0-4.56.768-6.331 2.084-2.664 1.927-4.388 5.077-4.388 8.634v32.249c0 3.557 1.724 6.707 4.388 8.634 1.771 1.316 3.965 2.084 6.331 2.084h15.796c2.382 0 4.576-.768 6.346-2.084 2.648-1.943 4.372-5.093 4.372-8.634v-32.249c0-3.541-1.724-6.691-4.372-8.634zm-4.384 35.724c0 3.449-2.796 6.244-6.244 6.244h-7.223c-3.449 0-6.244-2.796-6.244-6.244v-21.931c0-3.449 2.796-6.244 6.244-6.244h7.223c3.449 0 6.244 2.796 6.244 6.244z" fill="#f9c744"/><path d="m260.174 235.947v32.249c0 3.542-1.724 6.691-4.372 8.634-2.664-1.943-4.388-5.093-4.388-8.634v-32.249c0-3.542 1.724-6.691 4.388-8.634 2.648 1.943 4.372 5.093 4.372 8.634z" fill="#fad98f"/><path d="m231.701 235.947v32.249c0 3.542-1.724 6.691-4.372 8.634-2.664-1.927-4.388-5.077-4.388-8.634v-32.249c0-3.557 1.724-6.707 4.388-8.634 2.648 1.943 4.372 5.093 4.372 8.634z" fill="#f39e22"/><path d="m255.802 227.313c-1.771-1.316-3.965-2.084-6.346-2.084h-10.076c.574 3.528 1.925 6.791 3.85 9.634h1.945c3.449 0 6.244 2.796 6.244 6.244v1.307c2.651 1.494 5.604 2.516 8.756 2.92v-9.386c-.001-3.542-1.725-6.692-4.373-8.635z" fill="#faefdc"/></g></g><g><path d="m222.941 142.443v23.396h-18.789v-14.887c0-8.242-6.691-14.934-14.949-14.934h-41.558c-8.258 0-14.949 6.691-14.949 14.934v14.887h-18.789v-23.396c0-2.46.392-4.826 1.097-7.036 2.977-9.277 11.674-15.999 21.938-15.999h62.963c10.264 0 18.961 6.723 21.938 15.999.707 2.209 1.098 4.575 1.098 7.036z" fill="#a26d5a"/><path d="m221.844 135.407c-2.507 8.932-9.12 16.125-17.692 19.431v-3.886c0-8.242-6.691-14.934-14.949-14.934h-41.558c-8.258 0-14.949 6.691-14.949 14.934v3.886c-3.855-1.489-7.318-3.761-10.186-6.629-3.51-3.51-6.127-7.898-7.506-12.803 2.977-9.277 11.674-15.999 21.938-15.999h62.963c10.265 0 18.962 6.723 21.939 16z" fill="#c17e62"/><path d="m199.522 136.018h-48.31c-4.489 0-8.128-3.639-8.128-8.128v-.354c0-4.489 3.639-8.128 8.128-8.128h48.31c4.489 0 8.128 3.639 8.128 8.128v.354c0 4.489-3.639 8.128-8.128 8.128z" fill="#d48d77"/></g></g><g><g><path d="m388.381 154.072c-4.462 0-8.81.432-12.999 1.298-11.747 2.322-22.355 7.786-30.961 15.457-13.545 12.089-22.06 29.663-22.06 49.242 0 27.273 36.903 93.292 55.525 124.89 4.712 7.991 16.254 7.991 20.967 0 4.166-7.08 9.288-15.913 14.661-25.633.455-.774.888-1.571 1.32-2.368 18.372-33.328 39.543-76.218 39.543-96.889 0-36.448-29.549-65.997-65.996-65.997zm0 92.313c-1.798 0-3.551-.182-5.236-.501-12.043-2.459-21.081-13.09-21.081-25.816 0-9.766 5.327-18.303 13.249-22.834 3.847-2.208 8.309-3.46 13.067-3.46 14.524 0 26.294 11.769 26.294 26.294.001 14.524-11.769 26.317-26.293 26.317z" fill="#e9465e"/><path d="m454.377 220.068c0 20.671-21.172 63.56-39.543 96.889-.432.797-.865 1.594-1.32 2.368-13.409-22.606-23.721-47.284-30.369-73.441 1.685.319 3.438.501 5.236.501 14.524 0 26.294-11.793 26.294-26.317 0-14.525-11.77-26.294-26.294-26.294-4.758 0-9.22 1.252-13.067 3.46-.501-6.738-.751-13.545-.751-20.398 0-7.217.273-14.388.82-21.468 4.189-.865 8.537-1.298 12.999-1.298 36.446.002 65.995 29.551 65.995 65.998z" fill="#ee6781"/></g><g><g><g><path d="m441.47 159.929v78.795c0 3.152-1.901 5.855-4.618 7.034h-.004c-.932.403-1.959.628-3.04.628h-90.881c-1.081 0-2.108-.225-3.04-.628-2.717-1.175-4.621-3.881-4.621-7.034v-78.795l53.102-53.263z" fill="#fbcb74"/><path d="m441.47 159.929v78.795c0 3.152-1.901 5.855-4.618 7.034h-.004c-2.713-1.179-4.618-3.881-4.618-7.034v-78.795c0-3.149 1.904-5.851 4.618-7.034h.004c2.717 1.18 4.618 3.886 4.618 7.034z" fill="#faefdc"/><path d="m344.506 159.929v78.795c0 3.152-1.901 5.858-4.618 7.034-2.717-1.175-4.621-3.881-4.621-7.034v-78.795c0-3.149 1.904-5.855 4.621-7.034 2.717 1.18 4.618 3.886 4.618 7.034z" fill="#deb36f"/><path d="m420.686 155.836c0 2.551-2.068 4.62-4.62 4.62h-55.396c-2.551 0-4.62-2.068-4.62-4.62 0-2.551 2.068-4.62 4.62-4.62h55.396c2.552.001 4.62 2.069 4.62 4.62z" fill="#fbd9a3"/></g><g><path d="m409.16 223.918h-41.581c-4.78 0-8.654-3.875-8.654-8.654v-41.581c0-4.78 3.875-8.654 8.654-8.654h41.581c4.78 0 8.654 3.875 8.654 8.654v41.581c0 4.779-3.874 8.654-8.654 8.654z" fill="#c4983d"/><g><g><path d="m386.654 174.992v12.873c0 .027 0 .062-.007.089-.041 2.662-2.21 4.803-4.886 4.803h-12.873c-2.704 0-4.899-2.189-4.899-4.893v-12.873c0-2.676 2.148-4.851 4.81-4.893.027-.007.062-.007.089-.007h12.873c2.704.002 4.893 2.197 4.893 4.901z" fill="#6052a3"/><path d="m386.654 174.992v12.873c0 .027 0 .062-.007.089-.027.007-.062.007-.089.007h-6.217c-6.382 0-11.549-5.174-11.549-11.549v-6.224c0-.027 0-.062.007-.089.027-.007.062-.007.089-.007h12.873c2.704.001 4.893 2.196 4.893 4.9z" fill="#57409b"/><path d="m380.695 185.751c-1.642 0-2.973-1.331-2.973-2.973v-7.344c0-1.642 1.331-2.973 2.973-2.973s2.973 1.331 2.973 2.973v7.344c0 1.642-1.331 2.973-2.973 2.973z" fill="#9175a7"/></g><g><path d="m412.75 174.992v12.873c0 .027 0 .062-.007.089-.041 2.662-2.21 4.803-4.886 4.803h-12.873c-2.704 0-4.899-2.189-4.899-4.893v-12.873c0-2.676 2.148-4.851 4.81-4.893.027-.007.062-.007.089-.007h12.873c2.704.002 4.893 2.197 4.893 4.901z" fill="#6052a3"/><path d="m412.75 174.992v12.873c0 .027 0 .062-.007.089-.027.007-.062.007-.089.007h-6.217c-6.382 0-11.549-5.174-11.549-11.549v-6.224c0-.027 0-.062.007-.089.027-.007.062-.007.089-.007h12.873c2.704.001 4.893 2.196 4.893 4.9z" fill="#57409b"/><path d="m406.791 185.751c-1.642 0-2.973-1.331-2.973-2.973v-7.344c0-1.642 1.331-2.973 2.973-2.973s2.973 1.331 2.973 2.973v7.344c0 1.642-1.331 2.973-2.973 2.973z" fill="#9175a7"/></g><g><path d="m386.654 201.088v12.873c0 .027 0 .062-.007.089-.041 2.662-2.21 4.803-4.886 4.803h-12.873c-2.704 0-4.899-2.189-4.899-4.893v-12.873c0-2.676 2.148-4.851 4.81-4.893.027-.007.062-.007.089-.007h12.873c2.704.002 4.893 2.197 4.893 4.901z" fill="#6052a3"/><path d="m386.654 201.088v12.873c0 .027 0 .062-.007.089-.027.007-.062.007-.089.007h-6.217c-6.382 0-11.549-5.174-11.549-11.549v-6.224c0-.027 0-.062.007-.089.027-.007.062-.007.089-.007h12.873c2.704.001 4.893 2.196 4.893 4.9z" fill="#57409b"/><path d="m380.695 211.847c-1.642 0-2.973-1.331-2.973-2.973v-7.344c0-1.642 1.331-2.973 2.973-2.973s2.973 1.331 2.973 2.973v7.344c0 1.642-1.331 2.973-2.973 2.973z" fill="#9175a7"/></g><g><path d="m412.75 201.088v12.873c0 .027 0 .062-.007.089-.041 2.662-2.21 4.803-4.886 4.803h-12.873c-2.704 0-4.899-2.189-4.899-4.893v-12.873c0-2.676 2.148-4.851 4.81-4.893.027-.007.062-.007.089-.007h12.873c2.704.002 4.893 2.197 4.893 4.901z" fill="#6052a3"/><path d="m412.75 201.088v12.873c0 .027 0 .062-.007.089-.027.007-.062.007-.089.007h-6.217c-6.382 0-11.549-5.174-11.549-11.549v-6.224c0-.027 0-.062.007-.089.027-.007.062-.007.089-.007h12.873c2.704.001 4.893 2.196 4.893 4.9z" fill="#57409b"/><path d="m406.791 211.847c-1.642 0-2.973-1.331-2.973-2.973v-7.344c0-1.642 1.331-2.973 2.973-2.973s2.973 1.331 2.973 2.973v7.344c0 1.642-1.331 2.973-2.973 2.973z" fill="#9175a7"/></g></g></g><g><path d="m460.829 171.461c0 1.643-.628 3.283-1.879 4.534-2.517 2.517-6.606 2.503-9.105-.033l-56.91-57.763c-2.51-2.55-6.624-2.55-9.134 0l-56.91 57.763c-1.255 1.273-2.913 1.912-4.567 1.912-1.643 0-3.286-.628-4.538-1.879-2.115-2.115-2.441-5.34-.987-7.799.268-.453.599-.881.987-1.27l66.059-66.055c2.503-2.507 6.566-2.503 9.069 0l66.037 66.055c.388.388.718.816.987 1.27.594 1.005.891 2.133.891 3.265z" fill="#e9465e"/><path d="m459.937 168.196c-.268.453-.599.881-.987 1.27v.004c-2.517 2.517-6.606 2.499-9.105-.036l-56.91-57.763c-2.51-2.55-6.624-2.55-9.134 0l-56.91 57.763c-1.255 1.273-2.913 1.912-4.571 1.912-1.643 0-3.283-.624-4.534-1.875-.392-.392-.718-.82-.987-1.273.268-.453.599-.881.987-1.27l66.059-66.055c2.503-2.507 6.566-2.503 9.069 0l66.037 66.055c.388.387.718.815.986 1.268z" fill="#ee6781"/><g fill="#f789a1"><path d="m343.343 147.249-.187-.184c-1.531-1.502-1.542-3.964-.026-5.481l24.895-24.893c1.497-1.497 3.921-1.508 5.431-.024 1.521 1.495 1.541 3.94.044 5.459l-24.707 25.077c-1.494 1.516-3.932 1.537-5.45.046z"/><path d="m433.398 147.249.183-.18c1.534-1.504 1.547-3.971.028-5.49l-24.88-24.886c-1.498-1.498-3.922-1.511-5.435-.029-1.528 1.496-1.549 3.948-.049 5.472l24.696 25.066c1.496 1.516 3.936 1.538 5.457.047z"/></g></g></g></g></g></g></svg>