<svg id="Layer_1" height="512" viewBox="0 0 512 512" width="512" xmlns="http://www.w3.org/2000/svg" data-name="Layer 1"><path d="m478.17 36h-444.34a16.849 16.849 0 0 0 -16.83 16.89v295.45a16.654 16.654 0 0 0 16.83 16.66h444.34a16.654 16.654 0 0 0 16.83-16.66v-295.45a16.849 16.849 0 0 0 -16.83-16.89z" fill="#6c63b5"/><path d="m380 365.88v-.88h-43v.88l48.37 110.12h43.18z" fill="#c79a83"/><path d="m132 365v.88l-48.55 110.12h43.18l48.37-110.12v-.88z" fill="#c79a83"/><path d="m365.47 430.88h-218.67l-.22-.1 10.56-23.98.09.04h197.54l.09-.04z" fill="#bc7464"/><path d="m465.67 65.48v270.27h-419.34v-270.27z" fill="#80aaff"/><path d="m378.76 263.72h-245.52a18.765 18.765 0 0 0 0 37.53h245.52a18.765 18.765 0 0 0 0-37.53z" fill="#edb740"/><path d="m276.86 126.91h-41.72a100.436 100.436 0 0 0 -100.39 100.49v36.32h242.5v-36.32a100.436 100.436 0 0 0 -100.39-100.49z" fill="#fcca3d"/><path d="m276.52 206.53a36.52 36.52 0 1 1 -20.52-6.31 36.556 36.556 0 0 1 20.52 6.31z" fill="#fff655"/><path d="m256 217.61a19.205 19.205 0 1 1 -19.19 19.2 19.2 19.2 0 0 1 19.19-19.2z" fill="#eadf53"/><path d="m46.33 65.48h30v270.27h-30z" fill="#6f99dd"/><path d="m144.49 282.48a18.761 18.761 0 0 1 18.75-18.76h-30a18.765 18.765 0 0 0 0 37.53h30a18.755 18.755 0 0 1 -18.75-18.77z" fill="#c99939"/><path d="m265.14 126.91h-30a100.436 100.436 0 0 0 -100.39 100.49v36.32h30v-36.32a100.436 100.436 0 0 1 100.39-100.49z" fill="#e0b038"/><path d="m270.54 111.75a20.556 20.556 0 0 0 -35.1 14.55l.04 83.23h41.04l.04-83.23a20.537 20.537 0 0 0 -6.02-14.55z" fill="#fadf4a"/><g fill="#284268"><path d="m478.166 30h-444.332a22.874 22.874 0 0 0 -22.834 22.889v295.452a22.678 22.678 0 0 0 22.834 22.659h89.228l-45.1 102.485a6.074 6.074 0 0 0 5.492 8.515h43.181a5.926 5.926 0 0 0 5.49-3.5l18.322-41.5h211.106l18.322 41.5a5.926 5.926 0 0 0 5.49 3.5h43.181a5.981 5.981 0 0 0 5.026-2.7 6.249 6.249 0 0 0 .465-5.822l-45.099-102.478h89.228a22.678 22.678 0 0 0 22.834-22.659v-295.452a22.874 22.874 0 0 0 -22.834-22.889zm-355.444 440h-30.068l43.522-99h30.067zm33.013-45 5.3-12h189.927l5.3 12zm10.591-24 13.031-30h153.286l13.031 30zm253.02 69h-30.068l-43.521-99h30.067zm69.654-121.659a10.665 10.665 0 0 1 -10.834 10.659h-444.332a10.665 10.665 0 0 1 -10.834-10.659v-295.452a10.86 10.86 0 0 1 10.834-10.889h444.332a10.86 10.86 0 0 1 10.834 10.889z"/><path d="m465 59h-419a6 6 0 0 0 -6 6v270a6 6 0 0 0 6 6h419a6 6 0 0 0 6-6v-270a6 6 0 0 0 -6-6zm-5 271h-408v-259h408z"/><path d="m71 104a6 6 0 0 0 6-6v-3.361a6 6 0 0 0 -12 0v3.361a6 6 0 0 0 6 6z"/><path d="m71 270.433a6 6 0 0 0 6-6v-138.921a6 6 0 0 0 -12 0v138.921a6 6 0 0 0 6 6z"/><path d="m256 262.019a25.205 25.205 0 1 0 -25.185-25.205 25.224 25.224 0 0 0 25.185 25.205zm0-38.41a13.205 13.205 0 1 1 -13.185 13.2 13.21 13.21 0 0 1 13.185-13.2z"/><path d="m133.238 307h245.524a24.451 24.451 0 0 0 24.622-24.5 24.147 24.147 0 0 0 -20.384-24.094v-31.006c0-56.982-44.821-103.652-101.09-106.361a26.424 26.424 0 0 0 -51.851 0c-56.269 2.706-101.059 49.376-101.059 106.361v31.009a24.147 24.147 0 0 0 -20.384 24.091 24.451 24.451 0 0 0 24.622 24.5zm149.762-173.915c49 2.96 88 44.126 88 94.312v30.603h-78.108a42.516 42.516 0 0 0 5.881-21.186c0-13.435-6.773-25.428-15.773-33.24zm-42-6.785c0-8.041 6.971-14.582 15-14.582s15 6.541 15 14.582v70.49a45.059 45.059 0 0 0 -30 0zm15 79.92a30.591 30.591 0 1 1 -30.554 30.591 30.607 30.607 0 0 1 30.554-30.588zm-122.762 63.78h13.762a6 6 0 0 0 0-12h-6v-30.6c0-50.186 39-91.352 88-94.312v70.489c-9 7.812-15.773 19.8-15.773 33.24a42.516 42.516 0 0 0 5.881 21.183h-30.108a6 6 0 0 0 0 12h40.37a42.4 42.4 0 0 0 53.26 0h96.132a12.5 12.5 0 1 1 0 25h-245.524a12.5 12.5 0 1 1 0-25z"/></g></svg>