<svg id="Icons" enable-background="new 0 0 512 512" height="512" viewBox="0 0 512 512" width="512" xmlns="http://www.w3.org/2000/svg"><g><circle cx="256" cy="256" fill="#53b976" r="256"/><g><path d="m247.677 470.763c-2.759-.109-4.908-2.435-4.798-5.194.109-2.76 2.435-4.908 5.194-4.798 6.472.256 13.056.206 19.501-.151 2.748-.157 5.117 1.958 5.269 4.716.153 2.757-1.959 5.116-4.716 5.269-3.933.218-7.932.328-11.886.328-2.845 0-5.726-.058-8.564-.17zm-40.478-5.43c-6.621-1.535-13.242-3.407-19.678-5.563-2.618-.877-4.029-3.711-3.152-6.33.876-2.618 3.706-4.029 6.33-3.152 6.135 2.056 12.446 3.84 18.759 5.304 2.69.624 4.365 3.31 3.741 6-.535 2.31-2.592 3.872-4.866 3.872-.374-.001-.754-.043-1.134-.131zm95.247-4.496c-.674-2.678.949-5.396 3.627-6.07 6.278-1.582 12.554-3.487 18.655-5.662 2.602-.928 5.461.429 6.389 3.03s-.429 5.461-3.03 6.389c-6.399 2.282-12.984 4.281-19.57 5.94-.41.103-.821.152-1.225.152-2.237.001-4.274-1.511-4.846-3.779zm-152.244-17.702c-5.909-3.345-11.728-7.018-17.297-10.916-2.262-1.583-2.812-4.701-1.229-6.963 1.584-2.263 4.702-2.812 6.963-1.229 5.309 3.716 10.857 7.217 16.489 10.406 2.403 1.36 3.248 4.412 1.888 6.814-.92 1.625-2.613 2.538-4.355 2.538-.835 0-1.682-.21-2.459-.65zm208.031-3.7c-1.403-2.378-.613-5.444 1.765-6.847 5.574-3.289 11.06-6.887 16.306-10.694 2.235-1.622 5.361-1.125 6.983 1.109s1.125 5.361-1.109 6.983c-5.501 3.993-11.253 7.766-17.098 11.214-.798.471-1.673.695-2.536.695-1.711 0-3.378-.88-4.311-2.46zm-256.424-33.711c-4.726-4.871-9.277-10.03-13.528-15.332-1.727-2.155-1.38-5.301.774-7.029 2.156-1.728 5.302-1.38 7.029.774 4.054 5.058 8.396 9.978 12.903 14.624 1.923 1.982 1.875 5.147-.107 7.07-.971.943-2.227 1.412-3.481 1.412-1.306-.001-2.61-.509-3.59-1.519zm303.945-2.525c-2.014-1.89-2.114-5.054-.225-7.067 4.436-4.727 8.694-9.718 12.655-14.837 1.69-2.184 4.831-2.583 7.015-.894 2.184 1.69 2.583 4.831.894 7.015-4.155 5.368-8.62 10.603-13.271 15.559-.984 1.048-2.314 1.578-3.647 1.578-1.227 0-2.456-.449-3.421-1.354zm-339.892-46.954c-3.174-6.007-6.095-12.235-8.682-18.513-1.052-2.553.165-5.476 2.718-6.528 2.555-1.051 5.476.165 6.528 2.718 2.466 5.986 5.251 11.925 8.278 17.652 1.29 2.441.356 5.467-2.085 6.757-.745.394-1.544.58-2.332.58-1.794-.001-3.529-.969-4.425-2.666zm375.333-1.164c-2.465-1.245-3.454-4.252-2.208-6.717 2.921-5.783 5.594-11.772 7.946-17.802 1.003-2.573 3.903-3.846 6.475-2.842 2.573 1.003 3.845 3.902 2.842 6.475-2.467 6.327-5.272 12.611-8.336 18.678-.88 1.742-2.64 2.747-4.467 2.747-.759-.001-1.529-.174-2.252-.539zm-395.899-56.44c-1.344-6.657-2.381-13.459-3.083-20.217-.285-2.747 1.71-5.205 4.457-5.489 2.746-.289 5.205 1.71 5.489 4.457.668 6.441 1.657 12.925 2.938 19.27.547 2.707-1.205 5.344-3.911 5.891-.334.068-.667.1-.995.1-2.33-.001-4.416-1.639-4.895-4.012zm416.273.268c-2.716-.497-4.516-3.101-4.02-5.817 1.149-6.29 2.018-12.725 2.583-19.151l.015-.172c.237-2.751 2.65-4.785 5.412-4.551 2.751.237 4.789 2.66 4.551 5.412l-.019.212c-.59 6.71-1.501 13.456-2.706 20.049-.441 2.413-2.544 4.102-4.913 4.102-.296-.001-.599-.028-.903-.084zm-415.145-55.922c-2.751-.236-4.79-2.659-4.553-5.41l.036-.418c.597-6.783 1.521-13.598 2.744-20.255.5-2.717 3.115-4.513 5.821-4.014 2.716.499 4.513 3.105 4.014 5.821-1.167 6.35-2.048 12.852-2.617 19.316l-.035.407c-.224 2.605-2.408 4.572-4.976 4.572-.143 0-.288-.006-.434-.019zm413.436-8.18c-.662-6.442-1.645-12.927-2.919-19.272-.544-2.707 1.209-5.343 3.917-5.887 2.705-.544 5.343 1.209 5.887 3.917 1.338 6.658 2.368 13.461 3.063 20.22.283 2.747-1.715 5.203-4.462 5.485-.174.018-.346.027-.518.027-2.532-.001-4.703-1.917-4.968-4.49zm-401.197-50.719c-2.572-1.006-3.841-3.906-2.835-6.478 2.474-6.325 5.285-12.606 8.354-18.669 1.248-2.464 4.257-3.447 6.72-2.202 2.463 1.248 3.449 4.256 2.202 6.72-2.926 5.779-5.606 11.766-7.963 17.794-.772 1.974-2.66 3.18-4.658 3.18-.606 0-1.222-.111-1.82-.345zm386.986-5.825c-2.459-5.986-5.238-11.927-8.26-17.659-1.288-2.443-.352-5.467 2.091-6.755 2.442-1.286 5.466-.351 6.755 2.092 3.169 6.012 6.083 12.244 8.664 18.521 1.049 2.554-.17 5.476-2.725 6.525-.622.255-1.265.376-1.898.376-1.967.001-3.832-1.168-4.627-3.1zm-358.727-46.83c-2.182-1.692-2.579-4.833-.886-7.015 4.162-5.366 8.632-10.597 13.287-15.546 1.892-2.012 5.056-2.109 7.068-.217s2.109 5.056.217 7.068c-4.438 4.72-8.701 9.708-12.67 14.824-.985 1.271-2.462 1.936-3.954 1.936-1.072-.001-2.151-.343-3.062-1.05zm329.12-3.414c-4.046-5.059-8.383-9.983-12.888-14.636-1.921-1.984-1.87-5.149.113-7.07 1.984-1.922 5.15-1.871 7.07.114 4.724 4.878 9.271 10.042 13.514 15.346 1.725 2.156 1.375 5.303-.782 7.028-.922.737-2.024 1.095-3.12 1.095-1.466 0-2.92-.643-3.907-1.877zm-287.166-39.146c-1.62-2.236-1.12-5.362 1.116-6.982 5.504-3.987 11.26-7.755 17.109-11.198 2.379-1.402 5.445-.608 6.845 1.772 1.401 2.379.608 5.444-1.772 6.845-5.577 3.284-11.066 6.876-16.316 10.679-.886.642-1.912.951-2.929.951-1.548 0-3.075-.717-4.053-2.067zm244.649-.786c-5.304-3.72-10.849-7.227-16.479-10.421-2.402-1.363-3.244-4.415-1.881-6.816 1.363-2.403 4.415-3.245 6.816-1.881 5.906 3.351 11.722 7.029 17.286 10.932 2.261 1.585 2.808 4.704 1.222 6.964-.973 1.387-2.522 2.129-4.098 2.129-.991.001-1.993-.294-2.866-.907zm-192.45-28.295c-.925-2.602.434-5.461 3.036-6.386 6.402-2.276 12.988-4.269 19.577-5.921 2.678-.673 5.395.954 6.066 3.633.672 2.679-.955 5.395-3.633 6.066-6.279 1.575-12.557 3.474-18.66 5.644-.554.197-1.119.291-1.675.291-2.056 0-3.983-1.279-4.711-3.327zm140.416 1.984c-6.134-2.062-12.444-3.853-18.753-5.322-2.689-.626-4.362-3.314-3.736-6.004.626-2.688 3.315-4.36 6.004-3.735 6.619 1.542 13.237 3.42 19.672 5.583 2.618.88 4.026 3.715 3.146 6.333-.702 2.089-2.65 3.408-4.739 3.408-.528-.001-1.066-.085-1.594-.263zm-82.129-15.128c-.149-2.757 1.964-5.114 4.722-5.264 6.76-.368 13.633-.415 20.448-.14 2.759.111 4.906 2.438 4.794 5.198-.112 2.759-2.437 4.902-5.198 4.794-6.501-.262-13.056-.217-19.502.133-.092.005-.184.007-.275.007-2.638.001-4.845-2.063-4.989-4.728z" fill="#78c795"/></g><g><g><g><path d="m212.239 364.925v34.452h-83.996v-34.452c0-17.26 13.988-31.257 31.257-31.257h21.481c17.27 0 31.258 13.998 31.258 31.257z" fill="#f39e22"/><path d="m212.239 364.925v34.452h-63.992v-34.452c0-17.26 13.988-31.257 31.257-31.257h1.478c17.269 0 31.257 13.998 31.257 31.257z" fill="#f9c744"/></g><g><path d="m184.119 320.543v15.072c0 7.666-6.217 13.873-13.883 13.873-2.571 0-4.979-.7-7.042-1.919-4.087-2.408-6.831-6.86-6.831-11.954v-15.072z" fill="#f5b890"/><path d="m156.364 320.543v15.072c0 5.094 2.744 9.546 6.831 11.954v-16.108c4.826 2.015 10.131 3.128 15.696 3.128 1.775 0 3.521-.115 5.229-.326v-13.719h-27.756z" fill="#d48d77"/></g><g><g><path d="m219.723 229.774v56.72c0 11.273-4.567 21.481-11.954 28.868-5.334 5.325-12.127 9.181-19.725 10.928-2.945.672-6.006 1.027-9.153 1.027-22.546 0-40.832-18.277-40.832-40.823v-56.72c0-12.357 10.026-22.373 22.383-22.373h36.908c2.168 0 4.26.307 6.245.892 9.316 2.696 16.128 11.292 16.128 21.481z" fill="#d48d77"/><path d="m219.723 229.774v56.72c0 11.273-4.567 21.481-11.954 28.868-5.334 5.325-12.127 9.181-19.725 10.928-18.152-4.154-31.679-20.397-31.679-39.796v-21.702c0-28.235 20.378-51.702 47.231-56.499 9.315 2.696 16.127 11.292 16.127 21.481z" fill="#f5b890"/><g fill="#d48d77"><path d="m190.437 267.36h-8.324c-3.419 0-6.19 2.771-6.19 6.19s2.771 6.19 6.19 6.19h8.324c3.419 0 6.19-2.771 6.19-6.19 0-3.418-2.771-6.19-6.19-6.19z"/><path d="m178.892 207.4h10.442v64.162h-10.442z"/></g><g fill="#334353"><path d="m167.811 243.147c-3.124 0-5.657 2.533-5.657 5.657v9.874c0 3.124 2.533 5.657 5.657 5.657s5.657-2.533 5.657-5.657v-9.874c0-3.124-2.533-5.657-5.657-5.657z"/><path d="m200.416 243.147c-3.124 0-5.657 2.533-5.657 5.657v9.874c0 3.124 2.533 5.657 5.657 5.657s5.657-2.533 5.657-5.657v-9.874c-.001-3.124-2.533-5.657-5.657-5.657z"/></g><g><path d="m180.37 302.555c-9.8 0-17.773-7.973-17.773-17.772 0-1.855 1.503-3.358 3.358-3.358s3.358 1.503 3.358 3.358c0 6.096 4.96 11.057 11.057 11.057 1.855 0 3.358 1.503 3.358 3.358 0 1.854-1.503 3.357-3.358 3.357z" fill="#c17e62"/></g></g><g><path d="m225.383 233.83c0-14.019-5.687-26.715-14.872-35.9-6.553-6.552-14.896-11.325-24.226-13.526-3.751-.878-7.659-1.347-11.674-1.347-28.049 0-50.772 22.723-50.772 50.772l.09 55.545c.023 14.336 11.652 25.946 25.988 25.946-7.351-7.385-11.897-17.564-11.897-28.806v-47.034h39.919c9.608 0 17.396-7.789 17.396-17.397 0 9.608 7.789 17.397 17.397 17.397h6.989v47.034c0 11.241-4.54 21.421-11.887 28.806 9.693 0 17.55-7.857 17.55-17.55v-63.94z" fill="#3e4e60"/><path d="m225.383 233.83c0-14.019-5.687-26.715-14.872-35.9-6.553-6.552-14.896-11.325-24.226-13.526-22.411 5.278-39.098 25.392-39.098 49.426v5.651h30.752c9.608 0 17.396-7.789 17.396-17.397 0 9.608 7.789 17.397 17.397 17.397h6.989v47.034c0 11.241-4.54 21.421-11.887 28.806 9.693 0 17.55-7.857 17.55-17.55v-63.941z" fill="#3f5d77"/></g><g><g><path d="m131.181 275.276h6.882v-21.535h-6.882c-5.947 0-10.768 4.821-10.768 10.768 0 5.946 4.821 10.767 10.768 10.767z" fill="#d48d77"/><path d="m130.833 269.129h7.229v-9.241h-7.229c-2.552 0-4.621 2.069-4.621 4.621.001 2.551 2.07 4.62 4.621 4.62z" fill="#c17e62"/></g><g><path d="m222.735 253.741h-3.014v21.535h3.014c5.947 0 10.768-4.821 10.768-10.768 0-5.946-4.821-10.767-10.768-10.767z" fill="#d48d77"/><path d="m223.083 259.888h-3.361v9.241h3.361c2.552 0 4.621-2.069 4.621-4.621-.001-2.551-2.069-4.62-4.621-4.62z" fill="#c17e62"/></g></g></g></g><g><g><g><path d="m75.45 409.4c0 2.1.35 4.13 1.02 6.02.91 2.6 2.4 4.93 4.3 6.84 3.29 3.29 7.84 5.32 12.86 5.32h352.36c3.52-3.89 6.92-7.9 10.2-12.01 6.19-7.76 11.94-15.88 17.22-24.34h-379.78c-10.04 0-18.18 8.13-18.18 18.17z" fill="#a26d5a"/><path d="m75.45 409.4c0 2.1.35 4.13 1.02 6.02.76.1 1.53.15 2.32.15h377.4c6.19-7.76 11.94-15.88 17.22-24.34h-379.78c-10.04 0-18.18 8.13-18.18 18.17z" fill="#c17e62"/><path d="m141.701 415.57h236.317c6.721 0 12.17-5.449 12.17-12.17s-5.449-12.17-12.17-12.17h-236.317c-6.721 0-12.17 5.449-12.17 12.17 0 6.722 5.449 12.17 12.17 12.17z" fill="#d48d77"/></g><g><path d="m121.38 427.58v46.2c7.24 4.49 14.72 8.62 22.41 12.37 33.88 16.56 71.96 25.85 112.21 25.85 63.53 0 121.66-23.15 166.41-61.47 8.34-7.14 16.22-14.81 23.58-22.95z" fill="#a26d5a"/><path d="m143.79 464.37v21.78c33.88 16.56 71.96 25.85 112.21 25.85 63.53 0 121.66-23.15 166.41-61.47-.79-.14-1.61-.21-2.44-.21h-262.13c-7.77 0-14.05 6.29-14.05 14.05z" fill="#c17e62"/><path d="m175.128 488.239h181.799c10.472 0 18.961-8.489 18.961-18.961s-8.489-18.961-18.961-18.961h-181.799c-10.472 0-18.961 8.489-18.961 18.961s8.489 18.961 18.961 18.961z" fill="#d48d77"/></g></g><g><g><path d="m260.871 241.565v95.945c0 2.616.777 5.061 2.123 7.108 1.687 2.616 4.284 4.568 7.354 5.421 1.118.322 2.312.493 3.525.493h147.064c1.232 0 2.407-.171 3.525-.493 3.071-.853 5.667-2.805 7.354-5.421 1.346-2.047 2.123-4.492 2.123-7.108v-95.945c0-1.213-.171-2.407-.493-3.525-1.213-4.341-4.625-7.771-8.984-8.984-1.118-.322-2.312-.493-3.525-.493h-147.064c-1.232 0-2.407.171-3.525.493-4.34 1.213-7.771 4.625-8.984 8.984-.323 1.118-.493 2.312-.493 3.525z" fill="#c2aacf"/><path d="m262.993 344.618c2.312 3.563 6.312 5.914 10.88 5.914h147.064c4.568 0 8.567-2.35 10.88-5.914-5.137-14.67-19.106-25.171-35.501-25.171h-97.803c-16.414 0-30.383 10.5-35.52 25.171z" fill="#9175a7"/><path d="m414.986 241.565v95.945c0 2.616.777 5.061 2.123 7.108 1.687 2.616 4.284 4.568 7.354 5.421 3.071-.853 5.667-2.805 7.354-5.421 1.346-2.047 2.123-4.492 2.123-7.108v-95.945c0-5.952-3.999-10.974-9.477-12.51-5.478 1.535-9.477 6.558-9.477 12.51z" fill="#a583bb"/><path d="m260.871 241.565v95.945c0 2.616.777 5.061 2.123 7.108 1.687 2.616 4.284 4.568 7.354 5.421 3.071-.853 5.667-2.805 7.354-5.421 1.346-2.047 2.123-4.492 2.123-7.108v-95.945c0-5.971-4.018-10.993-9.477-12.51-5.459 1.516-9.477 6.539-9.477 12.51z" fill="#decee5"/><path d="m384.328 246.256h-73.845c-4.75 0-8.6-3.851-8.6-8.6 0-4.75 3.85-8.6 8.6-8.6h73.845c4.75 0 8.6 3.851 8.6 8.6s-3.85 8.6-8.6 8.6z" fill="#ebd9ea"/></g><path d="m335.176 334.084h24.458c4.33 0 7.841 3.51 7.841 7.841v32.298h-40.139v-32.298c0-4.33 3.51-7.841 7.84-7.841z" fill="#a583bb"/><g><path d="m301.42 374.223h91.97c4.696 0 8.503 3.807 8.503 8.503s-3.807 8.503-8.503 8.503h-91.97c-4.696 0-8.503-3.807-8.503-8.503s3.807-8.503 8.503-8.503z" fill="#c2aacf"/><path d="m319.052 374.223h56.707c2.896 0 5.243 2.347 5.243 5.243s-2.347 5.243-5.243 5.243h-56.707c-2.896 0-5.243-2.347-5.243-5.243s2.347-5.243 5.243-5.243z" fill="#decee5"/></g></g></g></g><g><g id="Speech-bubble_10_"><path d="m325.987 207.715c-4.021 0-7.96-1.964-10.327-5.579l-39.758-60.763c-8.405-14.012 11.117-26.836 20.63-13.499 0 0 39.758 60.763 39.758 60.763 5.413 8.006-.714 19.228-10.303 19.078z" fill="#ebd9ea"/><path d="m362.53 37.27v76.98c.042 24.772-19.361 45.471-44.21 46.93-.92.05-1.85.08-2.79.08h-119.06c-15.1 0-28.54-7.12-37.13-18.2-6.19-7.96-9.87-17.95-9.87-28.81v-76.98c0-5.34.89-10.47 2.53-15.25 63.638-29.198 144.364-29.199 208 0 1.678 4.894 2.536 10.073 2.53 15.25z" fill="#ebd9ea"/><path d="m362.53 37.27v76.98c0 10.86-3.68 20.85-9.86 28.81-6.19-7.96-9.87-17.95-9.87-28.81v-76.98c0-7.33 1.68-14.26 4.67-20.44 4.235 1.61 8.406 3.352 12.53 5.19 1.678 4.894 2.536 10.073 2.53 15.25z" fill="#fff"/><path d="m169.2 37.27v76.98c0 10.86-3.68 20.85-9.86 28.81-6.19-7.96-9.87-17.95-9.87-28.81v-76.98c0-5.34.89-10.47 2.53-15.25 4.12-1.84 8.3-3.57 12.53-5.19 2.99 6.18 4.67 13.11 4.67 20.44z" fill="#c1b7d3"/></g><g><g><g><path d="m293.854 71.434v51.957c0 1.13-.193 2.218-.551 3.227-1.329 3.785-4.931 6.496-9.169 6.496h-85.902c-4.235 0-7.84-2.708-9.172-6.49-.357-1.011-.551-2.099-.551-3.232v-70.738c0-.373.026-.741.082-1.098.529-3.632 3.658-6.422 7.438-6.422h25.088c3.78 0 6.909 2.79 7.438 6.422.056.357.082.725.082 1.098v9.058h55.496c5.369 0 9.721 4.352 9.721 9.722z" fill="#dd8c29"/><path d="m293.303 126.619c-1.329 3.785-4.931 6.496-9.169 6.496h-85.902c-4.235 0-7.84-2.708-9.172-6.49.357-.852.876-1.617 1.519-2.258 1.276-1.279 3.044-2.07 4.992-2.07h91.22c2.931-.001 5.44 1.783 6.512 4.322z" fill="#c68132"/><path d="m293.854 71.434v46.026c-42.505-4.934-77.787-33.558-92.289-72.326h19.553c4.153 0 7.52 3.367 7.52 7.52v9.058h55.496c5.368 0 9.72 4.352 9.72 9.722z" fill="#f39e22"/><g fill="#f9c744"><path d="m280.037 72.781h-45.865c-3.057 0-5.534-2.478-5.534-5.534 0-3.057 2.478-5.534 5.534-5.534h45.865c3.057 0 5.534 2.478 5.534 5.534s-2.478 5.534-5.534 5.534z"/><path d="m228.555 51.556c-.402 2.155-2.292 3.785-4.563 3.785h-30.837c-2.271 0-4.161-1.631-4.563-3.785.529-3.632 3.658-6.422 7.438-6.422h25.088c3.779 0 6.908 2.79 7.437 6.422z"/></g></g><g><g><path d="m263.117 91.049c-1.883-2.099-4.629-3.42-7.67-3.42-1.438 0-2.807.294-4.049.83-.918.392-1.765.916-2.524 1.546-.089-2.308-.706-4.479-1.73-6.4l1.132.212-3.341-3.322c-.289-.313-.592-.614-.906-.901l-.021-.021v.002c-2.72-2.474-6.359-3.955-10.346-3.868-7.945.174-14.419 6.681-14.555 14.626-.001.052-.002.104-.002.157-.015 2.171-1.719 3.95-3.889 4.023-.064.002-.129.005-.193.008-5.166.269-9.381 4.424-9.715 9.586-.259 4.011 1.783 7.569 4.935 9.481 1.553.942 3.376 1.485 5.327 1.485h53.892c4.111 0 7.566-3.258 7.618-7.368.016-1.243-.272-2.416-.794-3.452-1.228-2.439-3.755-4.111-6.673-4.111-.124 0-.246.003-.368.01-1.605.078-3.076.662-4.258 1.597.478-1.187.744-2.481.744-3.838 0-1.443-.298-2.816-.835-4.062l1.168.146z" fill="#decee5"/></g><g><path d="m277.067 108.04c-.224 3.975-3.618 7.033-7.599 7.033h-53.899c-1.951 0-3.774-.543-5.327-1.485-.989-1.627-1.538-3.55-1.483-5.606.143-5.369 4.491-9.78 9.857-9.996.068-.003.136-.005.204-.006 2.204-.046 3.935-1.84 3.987-4.044.004-.163.01-.326.019-.49.416-7.481 6.448-13.554 13.927-14.015 3.525-.217 6.807.793 9.458 2.647 2.277 1.587 4.087 3.797 5.187 6.381.007.016.013.031.02.047.926 2.191 3.246 3.405 5.576 2.931.664-.135 1.352-.206 2.056-.206 1.916 0 3.709.524 5.245 1.437 2.647 1.572 4.528 4.298 4.95 7.484.059.445.089.901.089 1.363v.09c-.011 1.247 1.1 2.172 2.329 1.961.412-.071.836-.108 1.269-.108 1.207 0 2.346.286 3.354.794.567 1.129.858 2.421.781 3.788z" fill="#f9eaf9"/></g><g><g><path d="m247.42 93.901c-.984 0-1.942-.51-2.471-1.423-1.132-1.953-2.958-3.348-5.139-3.929-2.182-.581-4.459-.277-6.412.856-1.363.79-3.109.326-3.9-1.037-.79-1.363-.326-3.109 1.037-3.899 3.272-1.897 7.086-2.406 10.741-1.434s6.712 3.309 8.609 6.581c.79 1.363.326 3.109-1.037 3.899-.45.262-.942.386-1.428.386z" fill="#fff"/></g><g><path d="m231.7 108.894c-.706 0-1.414-.261-1.966-.786-1.142-1.086-1.187-2.892-.101-4.034 2.607-2.74 6.124-4.301 9.905-4.396 3.783-.087 7.372 1.289 10.112 3.896 1.142 1.086 1.187 2.892.101 4.034s-2.892 1.187-4.034.101c-1.636-1.556-3.781-2.383-6.036-2.326-2.257.056-4.357.988-5.913 2.624-.561.59-1.314.887-2.068.887z" fill="#fff"/></g><g><path d="m264.778 105.113c-1.263 0-2.417-.845-2.756-2.123-.623-2.351-2.914-3.791-5.108-3.209-1.523.403-3.085-.504-3.489-2.028-.403-1.523.504-3.085 2.028-3.489 5.234-1.387 10.657 1.872 12.085 7.264.404 1.523-.504 3.085-2.027 3.489-.245.065-.491.096-.733.096z" fill="#fff"/></g><g><path d="m214.14 112.181c-.074 0-.148-.003-.223-.009-1.571-.121-2.746-1.493-2.625-3.065.204-2.638 1.459-5.03 3.535-6.734 2.041-1.676 4.636-2.485 7.309-2.279 1.571.121 2.746 1.493 2.625 3.065-.121 1.571-1.493 2.748-3.065 2.625-1.197-.092-2.35.263-3.247 1-.863.709-1.384 1.69-1.467 2.764-.116 1.496-1.366 2.633-2.842 2.633z" fill="#fff"/></g></g></g></g><g id="Arrow_1_"><path d="m329.466 45.544-14.478-25.69c-.724-1.284-2.084-2.079-3.558-2.079s-2.834.793-3.559 2.08l-14.478 25.69c-.713 1.265-.701 2.812.031 4.066.733 1.254 2.075 2.024 3.527 2.024h10.393v49.93c0 2.256 1.829 4.085 4.085 4.085s4.085-1.829 4.085-4.085v-49.93h10.393c1.098 0 2.133-.44 2.889-1.196.244-.244.46-.522.638-.828.733-1.254.744-2.802.032-4.067z" fill="#53b976"/><path d="m324.409 44.687c-1.954 1.128-4.452.459-5.58-1.495l-7.111-12.317c-1.128-1.954-.459-4.452 1.495-5.58s4.452-.459 5.58 1.495l7.111 12.317c1.128 1.954.458 4.452-1.495 5.58z" fill="#9acdae"/></g></g></g></g></svg>