<svg id="Layer_1" height="512" viewBox="0 0 512 512" width="512" xmlns="http://www.w3.org/2000/svg" data-name="Layer 1"><path d="m493.76 362.48-475.76-.64.24 80.05 475.76.63z" fill="#9ac5a1"/><path d="m459.22 238.34-36.24.09-.44-.45c-.23-93.29-75.02-168.73-167.04-168.5s-166.44 76.04-166.21 169.34l-.44.45-36.25.09.18 70.35 406.62-1.02zm-115.22.29-176 .44v-.45a88.117 88.117 0 0 1 87.775-89.83c48.825-.13 88.225 39.9 88.225 89.39z" fill="#c79a83"/><path d="m82.78 309.635-.18-70.275 36.25-.09.44-.45c-.218-88.32 66.448-160.949 151.627-168.652-5.078-.46-10.218-.7-15.417-.688-92.03.23-166.44 76.04-166.21 169.34l-.44.45-36.25.09.18 70.35z" fill="#aa7f6b"/><path d="m459.22 238.414v-.074l-6.312.016.072.074z" fill="#aa7f6b"/><path d="m285.775 148.79a87.886 87.886 0 0 0 -14.775 1.289c41.53 7.207 73 43.874 73 88.101v.45h30v-.45c0-49.49-39.4-89.52-88.225-89.39z" fill="#aa7f6b"/><path d="m48 361.88-30-.04.24 80.05h30z" fill="#82af87"/><g fill="#284268"><path d="m48.545 314.093a6.164 6.164 0 0 0 4.232 1.907h.223l406.339-1.2a6.076 6.076 0 0 0 6.02-6.068l-.154-70.465a6.254 6.254 0 0 0 -1.759-4.35 6.154 6.154 0 0 0 -4.223-1.917h-.015l-30.77.247a175.176 175.176 0 0 0 -50.738-118.136c-32.585-32.873-75.814-51.111-121.779-51.111h-.438c-93.355 1-169.454 76.135-172.123 170.041l-30.77.2a6.053 6.053 0 0 0 -5.986 6.075l.173 70.382a6.382 6.382 0 0 0 1.768 4.395zm40.316-68.824a6 6 0 0 0 4.265-1.8l.441-.45a6 6 0 0 0 1.721-4.22 163.7 163.7 0 0 1 22.7-83.82l11.658 6.785a6 6 0 0 0 6.037-10.371l-11.217-6.529a162.838 162.838 0 0 1 48.228-45.773l7.007 12.234a6 6 0 1 0 10.412-5.964l-6.976-12.18a157.733 157.733 0 0 1 65.963-17.547l.033 13.465a5.929 5.929 0 0 0 6 5.9h.015a5.924 5.924 0 0 0 5.985-5.931l-.033-13.541a157.882 157.882 0 0 1 66.929 17.184l-6.966 12.314a6 6 0 1 0 10.441 5.922l7-12.354a162.1 162.1 0 0 1 30.682 24.289 164.393 164.393 0 0 1 18.632 22.481l-12.092 7.119a6 6 0 1 0 6.088 10.342l12.445-7.326a163.7 163.7 0 0 1 22.278 82.502 6 6 0 0 0 1.741 4.211l.444.232a5.81 5.81 0 0 0 4.258 1.557h.02l30.242.14.144 58.46-25.129.171-.031-10.753a6.031 6.031 0 0 0 -6-6.018h-.026a6.024 6.024 0 0 0 -5.982 6.053l.031 10.73-42.806.116-.03-10.817a6.085 6.085 0 0 0 -6-6.082h-.013a6.084 6.084 0 0 0 -5.988 6.121l.03 10.765-43.688.135-.031-10.878a6.14 6.14 0 0 0 -6-6.143h-.012a6.145 6.145 0 0 0 -5.988 6.191l.031 10.8-42.806.15-.03-10.937a6.192 6.192 0 0 0 -6-6.2h-.018a6.2 6.2 0 0 0 -5.982 6.259l.03 10.834-43.688.169-.031-10.5a5.816 5.816 0 0 0 -6-5.764h-.017a5.836 5.836 0 0 0 -5.983 5.828l.031 10.619-43.689.062-.031-10.622a5.919 5.919 0 0 0 -6-5.887h-.018a5.892 5.892 0 0 0 -5.982 5.9l.031 10.654-43.689.079-.031-10.683a5.969 5.969 0 0 0 -6-5.948h-.011a5.954 5.954 0 0 0 -5.989 5.968l.031 10.688-25.123.05-.144-58.359z"/><path d="m283.761 257h-83.6a6 6 0 0 0 0 12h83.6a6 6 0 0 0 0-12z"/><path d="m178.4 257h-5.69a6 6 0 0 0 0 12h5.69a6 6 0 0 0 0-12z"/><path d="m162 239.451a5.337 5.337 0 0 0 1.405 3.712 5.466 5.466 0 0 0 4.114 1.837h.014l24.488-.006a5.981 5.981 0 1 0 -.042-11.961l-18.45.127c2.719-43.533 38.585-78.16 82.179-78.16h.209a81.15 81.15 0 0 1 58.083 24.208 83.228 83.228 0 0 1 23.96 53.489l-103.993.208a5.98 5.98 0 0 0 -5.968 5.98v.037a5.98 5.98 0 0 0 6 5.98l110.019-.275a6 6 0 0 0 5.986-6v-.462a94.952 94.952 0 0 0 -27.631-67.4 92.705 92.705 0 0 0 -66.455-27.765h-.239a93.9 93.9 0 0 0 -93.679 95.636z"/><path d="m493.761 356.278-475.761-.278a5.865 5.865 0 0 0 -6 5.9l.243 80.027a5.938 5.938 0 0 0 5.93 5.971l475.827 1.102a6.425 6.425 0 0 0 6-6.375l-.243-80.206a6.143 6.143 0 0 0 -5.996-6.141zm-20.679 80.222-.015-3.381a6.122 6.122 0 0 0 -6-6.115h-.028a6.115 6.115 0 0 0 -5.973 6.169l.015 3.24-47.981-.033-.039-10.519a5.9 5.9 0 0 0 -6-5.861h-.021a5.909 5.909 0 0 0 -5.979 5.922l.039 10.527-49.026-.091-.014-3.312a6.064 6.064 0 0 0 -6-6.046h-.028a6.043 6.043 0 0 0 -5.973 6.088l.013 3.2-47.981-.05-.038-10.628a6 6 0 0 0 -12 .049l.038 10.578-47.991-.064-.015-3.219a5.982 5.982 0 0 0 -6-5.953h-.027a5.973 5.973 0 0 0 -5.974 6.007l.014 3.159-47.978-.067-.039-10.878a6.211 6.211 0 0 0 -6-6.219h-.021a6.2 6.2 0 0 0 -5.979 6.26l.038 10.7-49.025-.006-.015-3.108a5.89 5.89 0 0 0 -6-5.842h-.027a5.9 5.9 0 0 0 -5.974 5.926l.014 3.118-47.981-.09-.039-10.806a6.147 6.147 0 0 0 -6-6.148h-.021a6.129 6.129 0 0 0 -5.979 6.179l.038 10.655-14.886.02-.206-68.027 14.887.03.045 17.066a6.081 6.081 0 0 0 6 6.077h.016a6.07 6.07 0 0 0 5.984-6.1l-.045-16.969h20.063l.024 9.326a5.8 5.8 0 0 0 6 5.742h.016a5.8 5.8 0 0 0 5.984-5.784l-.024-9.406 21.1.086.045 17.046a6.064 6.064 0 0 0 6 6.058h.016a6.033 6.033 0 0 0 5.984-6.06l-.045-16.947 20.063.015.024 9.789a6.192 6.192 0 0 0 6 6.2h.016a6.19 6.19 0 0 0 5.984-6.24l-.024-9.634 21.1-.028.044 16.945a5.976 5.976 0 0 0 6 5.957h.015a6 6 0 0 0 5.985-6.016l-.044-16.926 20.061.027.026 9.75a6.156 6.156 0 0 0 6 6.165h.015a6.153 6.153 0 0 0 5.985-6.2l-.026-9.613 20.063-.018.044 16.907a5.944 5.944 0 0 0 6 5.92h.015a5.959 5.959 0 0 0 5.985-5.973l-.044-16.9 21.1.039.026 9.712a6.123 6.123 0 0 0 6 6.126h.015a6.113 6.113 0 0 0 5.985-6.152l-.026-9.591 20.063-.007.044 16.869a5.913 5.913 0 0 0 6 5.881h.015a5.922 5.922 0 0 0 5.985-5.93l-.044-16.881 20.061.048.026 9.675a6.09 6.09 0 0 0 6 6.088h.016a6.075 6.075 0 0 0 5.984-6.11l-.026-9.568h21.1l.045 16.831a5.881 5.881 0 0 0 6 5.843h.016a5.885 5.885 0 0 0 5.984-5.886l-.045-16.86 20.063.06.024 9.635a6.058 6.058 0 0 0 6 6.051h.016a6.038 6.038 0 0 0 5.984-6.066l-.024-9.547 21.094.016.045 16.792a5.85 5.85 0 0 0 6 5.805h.011a5.85 5.85 0 0 0 5.989-5.842l-.045-16.838 20.063.07.025 9.6a6.025 6.025 0 0 0 6 6.012h.016a6 6 0 0 0 5.984-6.022l-.025-9.525 14.893.018.206 68.045z"/></g></svg>