<svg id="Icons" enable-background="new 0 0 512 512" height="512" viewBox="0 0 512 512" width="512" xmlns="http://www.w3.org/2000/svg"><g><g><circle cx="256" cy="256" fill="#57409b" r="256"/><circle cx="256" cy="219.772" fill="#6052a3" r="184.781"/></g><g><g><g><g><g><path d="m350.553 158.639v140.304c0 5.613-3.385 10.425-8.222 12.524h-.006c-1.66.717-3.488 1.117-5.413 1.117h-161.827c-1.925 0-3.753-.4-5.413-1.117-4.838-2.093-8.229-6.911-8.229-12.524v-140.304l94.555-94.842z" fill="#fbcb74"/><path d="m350.553 158.639v140.304c0 5.613-3.385 10.425-8.222 12.524h-.006c-4.831-2.099-8.222-6.911-8.222-12.524v-140.304c0-5.606 3.391-10.419 8.222-12.524h.006c4.837 2.099 8.222 6.917 8.222 12.524z" fill="#faefdc"/><path d="m177.895 158.639v140.304c0 5.613-3.385 10.431-8.222 12.524-4.838-2.093-8.229-6.911-8.229-12.524v-140.304c0-5.606 3.391-10.425 8.229-12.524 4.837 2.099 8.222 6.917 8.222 12.524z" fill="#deb36f"/><path d="m313.544 151.35c0 4.543-3.683 8.226-8.226 8.226h-98.64c-4.543 0-8.226-3.683-8.226-8.226s3.683-8.226 8.226-8.226h98.64c4.543.001 8.226 3.683 8.226 8.226z" fill="#fbd9a3"/><path d="m325.582 159.576h-139.167c-4.705 0-8.52 3.815-8.52 8.52v121.392c0 4.705 3.815 8.52 8.52 8.52h139.166c4.705 0 8.52-3.815 8.52-8.52v-121.392c.001-4.706-3.814-8.52-8.519-8.52z" fill="#c0405c"/></g><g><path d="m385.025 179.172c0 2.926-1.117 5.845-3.346 8.074-4.483 4.483-11.762 4.457-16.212-.058l-101.337-102.855c-4.47-4.541-11.794-4.541-16.264 0l-101.336 102.855c-2.235 2.267-5.187 3.404-8.132 3.404-2.926 0-5.852-1.117-8.08-3.346-3.766-3.766-4.347-9.508-1.757-13.887.478-.807 1.066-1.57 1.757-2.261l117.627-117.62c4.457-4.463 11.691-4.457 16.148 0l117.588 117.62c.691.691 1.279 1.453 1.757 2.261 1.057 1.789 1.587 3.798 1.587 5.813z" fill="#e9465e"/><path d="m383.436 173.359c-.478.807-1.066 1.57-1.757 2.261v.006c-4.483 4.483-11.762 4.45-16.212-.065l-101.337-102.854c-4.47-4.541-11.794-4.541-16.264 0l-101.336 102.854c-2.235 2.267-5.187 3.404-8.138 3.404-2.926 0-5.845-1.111-8.074-3.339-.698-.698-1.279-1.46-1.757-2.267.478-.807 1.066-1.57 1.757-2.261l117.627-117.62c4.457-4.463 11.691-4.457 16.148 0l117.588 117.62c.689.691 1.277 1.453 1.755 2.261z" fill="#ee6781"/><g fill="#f789a1"><path d="m175.824 136.06-.334-.328c-2.725-2.675-2.746-7.059-.046-9.759l44.328-44.326c2.666-2.666 6.982-2.685 9.671-.043 2.709 2.661 2.744 7.015.079 9.72l-43.994 44.653c-2.659 2.7-7 2.737-9.704.083z"/><path d="m336.18 136.059.327-.32c2.732-2.678 2.754-7.071.05-9.776l-44.302-44.314c-2.667-2.667-6.984-2.69-9.678-.051-2.72 2.664-2.759 7.031-.087 9.743l43.975 44.634c2.661 2.701 7.007 2.739 9.715.084z"/></g></g></g><g><path d="m333.901 69.264v54.043l-21.696-21.703v-32.34c0-3.023 2.448-5.471 5.464-5.471h10.767c3.017 0 5.465 2.448 5.465 5.471z" fill="#c0405c"/><path d="m333.901 69.264v46.021l-8.739-8.746c-3.165-3.159-4.935-7.447-4.935-11.911v-25.364c0-3.023 2.448-5.471 5.464-5.471h2.745c3.017 0 5.465 2.448 5.465 5.471z" fill="#e9465e"/></g></g><g><g><path d="m314.06 204.576v63.688c0 2.151-.576 4.169-1.582 5.905-1.308 2.269-3.356 4.065-5.809 5.048-1.36.554-2.853.857-4.412.857h-92.506c-1.567 0-3.06-.303-4.42-.857-2.454-.99-4.501-2.779-5.809-5.048-1.005-1.737-1.582-3.755-1.582-5.905v-63.688c0-4.959 3.052-9.209 7.391-10.954 1.36-.554 2.853-.857 4.42-.857h92.506c1.56 0 3.052.303 4.412.857 4.331 1.745 7.391 5.987 7.391 10.954z" fill="#d48d77"/><path d="m212.722 204.576v63.688c0 4.967-3.06 9.209-7.391 10.954-4.339-1.744-7.391-5.994-7.391-10.954v-63.688c0-4.959 3.052-9.209 7.391-10.954 4.331 1.745 7.391 5.987 7.391 10.954z" fill="#c17e62"/><path d="m314.06 204.576v63.688c0 2.151-.576 4.169-1.582 5.905-1.308 2.269-3.356 4.065-5.809 5.048-2.454-.99-4.501-2.779-5.809-5.048-1.005-1.737-1.582-3.755-1.582-5.905v-63.688c0-4.959 3.052-9.209 7.391-10.954 4.331 1.745 7.391 5.987 7.391 10.954z" fill="#eea47d"/><path d="m312.479 274.17c-2.04 3.533-5.854 5.905-10.222 5.905h-92.506c-1.567 0-3.06-.303-4.42-.857-2.454-.99-4.501-2.779-5.809-5.048 1.308-2.269 3.355-4.058 5.809-5.048 1.36-.554 2.853-.857 4.42-.857h92.506c4.368 0 8.182 2.372 10.222 5.905z" fill="#a26d5a"/></g><g><path d="m299.811 241.555h-87.623c-7.869 0-14.249-6.379-14.249-14.249v-6.529h116.12v6.529c.001 7.87-6.378 14.249-14.248 14.249z" fill="#a26d5a"/><path d="m314.06 204.576v19.557c0 5.137-4.169 9.305-9.305 9.305h-97.51c-5.137 0-9.305-4.169-9.305-9.305v-19.557c0-4.959 3.052-9.209 7.391-10.954 1.36-.554 2.853-.857 4.42-.857h92.506c1.56 0 3.052.303 4.412.857 4.331 1.745 7.391 5.987 7.391 10.954z" fill="#c17e62"/><path d="m212.722 204.576v28.862h-5.477c-5.137 0-9.305-4.169-9.305-9.305v-19.557c0-4.959 3.052-9.209 7.391-10.954 4.331 1.745 7.391 5.987 7.391 10.954z" fill="#a26d5a"/><path d="m314.06 204.576v19.557c0 5.137-4.169 9.305-9.305 9.305h-5.477v-28.862c0-4.959 3.052-9.209 7.391-10.954 4.331 1.745 7.391 5.987 7.391 10.954z" fill="#d48d77"/><path d="m286.855 198.985h-61.71c-3.576 0-6.474 2.899-6.474 6.474 0 3.576 2.899 6.474 6.474 6.474h61.71c3.576 0 6.474-2.899 6.474-6.474s-2.898-6.474-6.474-6.474z" fill="#d48d77"/><path d="m283.397 207.301h-39.084c-2.296 0-4.158-1.862-4.158-4.158s1.862-4.158 4.158-4.158h39.084c2.296 0 4.158 1.862 4.158 4.158s-1.862 4.158-4.158 4.158z" fill="#eea47d"/></g><g><g><path d="m228.221 221.76c-.835-.621-1.87-.983-2.993-.983h-7.45c-1.116 0-2.151.362-2.986.983-1.256.909-2.069 2.395-2.069 4.072v15.211c0 1.678.813 3.163 2.069 4.072.835.621 1.87.983 2.986.983h7.45c1.123 0 2.158-.362 2.993-.983 1.249-.916 2.062-2.402 2.062-4.072v-15.211c0-1.67-.813-3.155-2.062-4.072zm-2.068 16.85c0 1.627-1.319 2.945-2.945 2.945h-3.407c-1.627 0-2.945-1.319-2.945-2.945v-10.344c0-1.627 1.319-2.945 2.945-2.945h3.407c1.627 0 2.945 1.319 2.945 2.945z" fill="#f9c744"/><path d="m230.283 225.833v15.211c0 1.67-.813 3.156-2.062 4.072-1.256-.916-2.069-2.402-2.069-4.072v-15.211c0-1.67.813-3.156 2.069-4.072 1.249.916 2.062 2.401 2.062 4.072z" fill="#fad98f"/><path d="m216.853 225.833v15.211c0 1.67-.813 3.156-2.062 4.072-1.256-.909-2.069-2.395-2.069-4.072v-15.211c0-1.678.813-3.163 2.069-4.072 1.249.916 2.062 2.401 2.062 4.072z" fill="#f39e22"/><path d="m228.221 221.76c-.835-.621-1.87-.983-2.993-.983h-4.752c.271 1.664.908 3.203 1.816 4.544h.917c1.627 0 2.945 1.319 2.945 2.945v.616c1.25.705 2.643 1.187 4.13 1.377v-4.427c-.001-1.67-.814-3.155-2.063-4.072z" fill="#faefdc"/></g><g><path d="m297.216 221.76c-.835-.621-1.87-.983-2.993-.983h-7.45c-1.116 0-2.151.362-2.986.983-1.256.909-2.069 2.395-2.069 4.072v15.211c0 1.678.813 3.163 2.069 4.072.835.621 1.87.983 2.986.983h7.45c1.123 0 2.158-.362 2.993-.983 1.249-.916 2.062-2.402 2.062-4.072v-15.211c0-1.67-.813-3.155-2.062-4.072zm-2.068 16.85c0 1.627-1.319 2.945-2.945 2.945h-3.407c-1.627 0-2.945-1.319-2.945-2.945v-10.344c0-1.627 1.319-2.945 2.945-2.945h3.407c1.627 0 2.945 1.319 2.945 2.945z" fill="#f9c744"/><path d="m299.278 225.833v15.211c0 1.67-.813 3.156-2.062 4.072-1.257-.916-2.069-2.402-2.069-4.072v-15.211c0-1.67.813-3.156 2.069-4.072 1.249.916 2.062 2.401 2.062 4.072z" fill="#fad98f"/><path d="m285.849 225.833v15.211c0 1.67-.813 3.156-2.062 4.072-1.256-.909-2.069-2.395-2.069-4.072v-15.211c0-1.678.813-3.163 2.069-4.072 1.249.916 2.062 2.401 2.062 4.072z" fill="#f39e22"/><path d="m297.216 221.76c-.835-.621-1.87-.983-2.993-.983h-4.752c.271 1.664.908 3.203 1.816 4.544h.917c1.627 0 2.945 1.319 2.945 2.945v.616c1.25.705 2.643 1.187 4.13 1.377v-4.427c-.001-1.67-.814-3.155-2.063-4.072z" fill="#faefdc"/></g></g><g><path d="m281.717 181.73v11.035h-8.862v-7.021c0-3.888-3.156-7.044-7.051-7.044h-19.601c-3.895 0-7.051 3.156-7.051 7.044v7.021h-8.862v-11.035c0-1.16.185-2.276.517-3.319 1.404-4.375 5.506-7.546 10.347-7.546h29.697c4.841 0 8.943 3.171 10.347 7.546.334 1.043.519 2.159.519 3.319z" fill="#a26d5a"/><path d="m281.2 178.412c-1.183 4.213-4.302 7.605-8.345 9.165v-1.833c0-3.888-3.156-7.044-7.051-7.044h-19.601c-3.895 0-7.051 3.156-7.051 7.044v1.833c-1.818-.702-3.452-1.774-4.804-3.126-1.656-1.656-2.89-3.725-3.54-6.038 1.404-4.375 5.506-7.546 10.347-7.546h29.697c4.841-.001 8.943 3.169 10.348 7.545z" fill="#c17e62"/><path d="m270.671 178.7h-22.786c-2.117 0-3.834-1.716-3.834-3.834v-.167c0-2.117 1.716-3.834 3.834-3.834h22.786c2.117 0 3.834 1.716 3.834 3.834v.167c0 2.118-1.717 3.834-3.834 3.834z" fill="#d48d77"/></g></g></g><g><path d="m416.86 331.38c-.22.26-.46.52-.73.79l-.29.29c-7.62 7.64-14.22 14.98-20.15 21.99-42.87 50.68-50.76 83.97-155.23 83.97-71.74 0-74.01 9.94-91.79 50.05-3.81-1.75-7.58-3.61-11.28-5.55-20.91-10.95-40.12-24.71-57.13-40.77-4.36-4.13-8.59-8.4-12.66-12.82 20.3-20.3 41.2-41.2 60.4-60.39 71.31-71.31 94.97-56.58 107.78-56.58 6.66 0 16.71-6.12 24.81-12 7.48-5.41 13.31-10.63 13.31-10.63 4.05-4.05 7.8-6.21 11.09-6.93 8.95-1.95 14.52 6.69 13.54 16.59-.52 5.18-2.81 10.7-7.35 15.24-6.4 6.4-54.12 34.66-54.12 34.66s17.8 0 36.25 0h35.28c26.13 0 48.41-58.25 73.26-58.25 12.99 0 19.19 3.27 22.15 6.4 2.7 2.87 2.7 5.59 2.7 5.59l-2.86 3.43-.01.01-.08.11-9.69 11.63h.05.02.01c.06.01.14.02.25.02h.01.01c2.13.14 13.51 1.02 19.92 4.13 4.07 1.97 6.14 4.86 2.53 9.02z" fill="#c17e62"/><path d="m413.55 329.9c-.49-.2-.98-.4-1.47-.59-.01 0-.01-.01-.02-.01-.01-.01-.02-.01-.04-.01-.82-.33-1.62-.63-2.39-.92h-.01c-.1-.04-.2-.07-.29-.11 0 0-.01 0-.02 0-2.31-.84-4.3-1.48-5.56-1.91-6.42-2.18-14.86-1.27-14.86-1.27l5.26-6.54.01-.03.23-.28 8.64-10.75.08-.1.21-.27.09-.11.34-.42c-.66-.53-1.49-1.21-2.46-1.85-.01-.01-.02-.02-.03-.02-.03-.02-.07-.03-.1-.05-.02-.01-.05-.02-.07-.04-.64-.44-1.35-.83-2.12-1.14-1.19-.5-2.56-.84-4.08-.84-24.85 0-51.31 63.27-77.44 63.27-17.32 0-71.53 0-71.53 0s13.69-8.11 27.39-16.62c-18.45 0-36.25 0-36.25 0s47.72-28.26 54.12-34.66c4.54-4.54 6.83-10.06 7.35-15.24-4.21-.95-9.64.84-15.77 6.96 0 0-25.3 22.63-38.11 22.63-12.82 0-36.48-14.73-107.79 56.57l-56.6 56.6c17.01 16.06 36.22 29.82 57.13 40.77 3.7 1.94 7.47 3.8 11.28 5.55 17.78-40.11 20.05-50.05 91.79-50.05 104.47 0 112.36-33.29 155.23-83.97 5.93-7.01 12.53-14.35 20.15-21.99l.29-.29c.27-.27.51-.53.73-.79-1.1-.52-2.21-1.02-3.31-1.48z" fill="#a26d5a"/><path d="m414.33 322.36c-.96 1.19-1.96 2.45-2.98 3.78-.57.74-1.14 1.47-1.71 2.2v.01c0 .01-.01.02-.01.02h-.01c-6.17 7.98-12.02 15.35-17.56 22.14-58.22 71.25-84.37 79.51-132.18 79.51-104.76 0-104.26 7.56-122.49 52.9 3.7 1.94 7.47 3.8 11.28 5.55 17.78-40.11 20.05-50.05 91.79-50.05 104.47 0 112.36-33.29 155.23-83.97 5.93-7.01 12.53-14.35 20.15-21.99l.29-.29c.27-.27.51-.53.73-.79 3.61-4.16 1.54-7.05-2.53-9.02z" fill="#9175a7"/><path d="m406.703 303.032-2.854 3.44-.008.008-.436.523-.087.111-9.203 11.098-9.227 11.129-29.67 35.79c-13.547 13.555-27.133 29.044-48.52 29.044 0 0 35.385-16.044 50.557-37.676 6.048-8.624 15.14-20.285 23.891-31.184 0-.008 0-.008.008-.016l.468-.579c6.135-7.634 12.065-14.855 16.615-20.348l.436-.531h.008c.095-.119.19-.238.293-.357 2.013-2.434 3.726-4.487 5.026-6.04 2.703 2.861 2.703 5.588 2.703 5.588z" fill="#9175a7"/><path d="m283.885 296.77-5.81 5.81c-4.217 4.217-11.058 4.217-15.275 0l-1.99-1.99c-.071-.071-.151-.151-.222-.23 7.483-5.414 13.309-10.63 13.309-10.63 4.051-4.051 7.808-6.207 11.098-6.928 3.067 4.218 2.694 10.163-1.11 13.968z" fill="#eea47d"/><path d="m404.181 306.786c-4.217-4.217-11.054-4.217-15.271 0l-5.81 5.81c-4.217 4.217-5.206 11.709 1.804 16.753z" fill="#d48d77"/><path d="m403.85 306.488c-1.502-1.384-3.295-2.273-5.175-2.65l-17.517 21.462c.892 1.647 1.726 2.816 3.747 4.05z" fill="#c2aacf"/><path d="m415.842 332.456c-7.618 7.641-14.221 14.982-20.15 21.997-.079-.079-.159-.151-.238-.23l-1.99-1.99c-.143-.143-.285-.293-.412-.444-.238-.262-.46-.531-.666-.809-.111-.158-.222-.317-.325-.476-2.743-4.185-2.275-9.869 1.403-13.547l5.81-5.81c2.727-2.727 6.54-3.686 10.035-2.893.008 0 .016.008.016.008.103.024.214.048.317.079.832.214 1.649.531 2.418.959.008 0 .008.008.016.008.008-.008.008-.008.008 0 .055.024.103.056.151.087.365.198.713.428 1.054.674.079.063.151.119.23.174.127.103.254.198.373.301.079.071.166.143.246.222.135.119.27.246.404.38z" fill="#d48d77"/><path d="m415.842 332.456c-7.618 7.641-14.221 14.982-20.15 21.997-.079-.079-.159-.151-.238-.23l-1.99-1.99c-.143-.143-.285-.293-.412-.444-.238-.262-.46-.531-.666-.809-.111-.158-.222-.317-.325-.476 5.541-6.785 11.391-14.157 17.558-22.132h.008c0-.008.008-.016.016-.024.816.214 1.617.523 2.378.935.016 0 .024.008.04.016.008 0 .008.008.016.008.055.032.111.056.159.087.365.206.713.428 1.054.674.079.063.151.119.23.174.127.103.254.198.373.301.079.071.166.143.246.222.135.119.27.246.404.38z" fill="#c2aacf"/></g></g></g></svg>