<svg id="Icons" enable-background="new 0 0 512 512" height="512" viewBox="0 0 512 512" width="512" xmlns="http://www.w3.org/2000/svg"><g><g><circle cx="256" cy="256" fill="#528f66" r="256"/><circle cx="256" cy="256" fill="#53b976" r="196.459"/></g><g><g><g><path d="m378.364 438.202c0 .9-.085 1.789-.243 2.646-1.238 6.605-7.039 11.611-14.003 11.611h-216.236c-3.927 0-7.494-1.599-10.076-4.17-2.572-2.582-4.17-6.149-4.17-10.087 0-18.162 13.77-33.107 31.446-34.97 1.228-.127 2.466-.19 3.715-.19h174.407c9.706 0 18.501 3.937 24.862 10.299 6.361 6.371 10.298 15.156 10.298 24.861z" fill="#9175a7"/><path d="m378.364 438.202c0 .9-.085 1.789-.243 2.646h-207.684c-3.937 0-7.494-1.598-10.076-4.17-2.583-2.582-4.17-6.15-4.17-10.076 0-8.965 3.366-17.157 8.891-23.37 1.228-.127 2.466-.19 3.715-.19h174.407c9.706 0 18.501 3.937 24.862 10.299 6.361 6.371 10.298 15.156 10.298 24.861z" fill="#a583bb"/><path d="m343.344 429.933h-139.199c-7.426 0-13.446-6.02-13.446-13.446s6.02-13.446 13.446-13.446h139.199c7.426 0 13.446 6.02 13.446 13.446s-6.02 13.446-13.446 13.446z" fill="#c2aacf"/></g><g><path d="m275.613 158.281v249.597c0 2.646-.519 5.165-1.471 7.462-2.932 7.123-9.949 12.151-18.141 12.151-10.828 0-19.613-8.785-19.613-19.613v-249.597c0-8.891 5.927-16.406 14.045-18.808 1.757-.529 3.63-.805 5.567-.805 5.419 0 10.32 2.191 13.865 5.747 3.557 3.547 5.748 8.447 5.748 13.866z" fill="#9175a7"/><path d="m275.613 158.281v249.597c0 2.646-.519 5.165-1.471 7.462-1.768.519-3.641.804-5.578.804-10.828 0-19.613-8.785-19.613-19.613v-249.596c0-2.646.519-5.165 1.482-7.462 1.757-.529 3.63-.805 5.567-.805 5.419 0 10.32 2.191 13.865 5.747 3.557 3.547 5.748 8.447 5.748 13.866z" fill="#a583bb"/><path d="m262.282 344.964c-7.362 0-13.331-5.968-13.331-13.331v-120.757c0-7.362 5.968-13.331 13.331-13.331 7.362 0 13.331 5.968 13.331 13.331v120.757c0 7.362-5.969 13.331-13.331 13.331z" fill="#c2aacf"/></g><g><path d="m275.613 49.465v38.569c0 2.635-.519 5.165-1.471 7.462-.995 2.413-2.456 4.594-4.276 6.404-3.546 3.546-8.446 5.747-13.865 5.747-10.828 0-19.613-8.785-19.613-19.613v-38.569c0-8.891 5.917-16.395 14.035-18.798 1.768-.518 3.641-.804 5.578-.804 10.827 0 19.612 8.775 19.612 19.602z" fill="#9175a7"/><path d="m275.613 49.465v38.569c0 2.635-.519 5.165-1.471 7.462-1.768.519-3.641.805-5.578.805-10.828 0-19.613-8.785-19.613-19.613v-38.569c0-2.635.519-5.154 1.471-7.451 1.768-.518 3.641-.804 5.578-.804 10.828-.001 19.613 8.774 19.613 19.601z" fill="#a583bb"/><path d="m262.282 81.889c-7.362 0-13.331-5.968-13.331-13.331v-17.108c0-7.362 5.968-13.331 13.331-13.331 7.362 0 13.331 5.968 13.331 13.331v17.108c0 7.362-5.969 13.331-13.331 13.331z" fill="#c2aacf"/></g></g><g><g><g><path d="m439.825 113.336c.937 4.54-2.506 8.806-7.143 8.855l-58.88.619c-28.277.291-56.443 3.316-84.14 9.032l-65.014 13.417c-27.697 5.716-54.76 14.089-80.842 25.016l-54.315 22.74c-.458.192-.915.33-1.372.424-3.887.802-7.855-1.664-8.693-5.728-.655-3.172-.718-6.358-.257-9.414 1.365-9.046 7.325-17.031 16.158-20.734l42.209-17.67c26.082-10.927 53.144-19.3 80.842-25.016l65.014-13.417c27.697-5.716 55.864-8.741 84.14-9.032l45.755-.483c6.416-.07 12.395 2.143 17.101 5.938 2.332 1.875 4.345 4.139 5.945 6.706 1.634 2.624 2.837 5.575 3.492 8.747z" fill="#9175a7"/><path d="m436.334 104.589c-1.196 2.322-3.602 3.964-6.46 3.992l-58.882.609c-28.274.302-56.441 3.326-84.138 9.042l-65.014 13.417c-27.697 5.716-54.76 14.089-80.844 25.005l-54.313 22.751c-.447.19-.905.327-1.372.424-2.218.458-4.474-.157-6.141-1.532 1.365-9.046 7.325-17.031 16.158-20.734l8.257-3.455 33.952-14.215c26.082-10.927 53.144-19.3 80.842-25.016l65.014-13.417c27.697-5.716 55.864-8.741 84.14-9.032l36.805-.387 8.95-.096c6.416-.07 12.395 2.143 17.101 5.938 2.332 1.875 4.345 4.14 5.945 6.706z" fill="#a583bb"/><path d="m405.463 95.819c.783 3.794-2.091 7.359-5.972 7.404l-49.238.521c-23.65.244-47.207 2.771-70.374 7.553l-54.379 11.222c-23.168 4.781-45.8 11.786-67.615 20.924l-45.422 19.014c-.387.166-.764.276-1.148.356-3.255.672-6.566-1.39-7.268-4.79-.003-.013-.005-.026-.008-.039-.45-2.202.806-4.402 2.88-5.271l30.618-12.819c26.082-10.927 53.144-19.3 80.842-25.016l65.014-13.417c27.697-5.716 55.864-8.741 84.14-9.032l33.192-.349c2.248-.024 4.273 1.499 4.731 3.7.002.013.004.026.007.039z" fill="#c2aacf"/></g><g><g><path d="m289.256 132.953c0 6.763-2.022 13.061-5.504 18.321-5.948 8.997-16.162 14.934-27.752 14.934-18.364 0-33.256-14.892-33.256-33.256 0-11.6 5.938-21.814 14.945-27.762 5.25-3.472 11.547-5.493 18.311-5.493 18.364.001 33.256 14.893 33.256 33.256z" fill="#aea7b9"/><path d="m289.256 132.953c0 .942-.042 1.884-.127 2.805-.466 5.705-2.381 10.997-5.377 15.517-5.25 3.472-11.547 5.493-18.311 5.493-18.364 0-33.256-14.892-33.256-33.256 0-6.763 2.022-13.061 5.504-18.321 2.942-1.948 6.224-3.44 9.727-4.361 2.741-.741 5.61-1.132 8.584-1.132 18.364 0 33.256 14.892 33.256 33.255z" fill="#decee5"/><path d="m289.256 132.953c0 .942-.042 1.884-.127 2.805-3.239 1.122-6.71 1.725-10.33 1.725-17.538 0-31.763-14.225-31.763-31.763 0-1.662.127-3.302.381-4.89 2.741-.741 5.61-1.132 8.584-1.132 18.363 0 33.255 14.892 33.255 33.255z" fill="#fff"/></g><g><path d="m268.878 132.954v.044c-.027 7.09-5.783 12.829-12.873 12.829-7.117 0-12.882-5.766-12.882-12.873 0-7.081 5.721-12.829 12.803-12.873h.08c.892 0 1.757.088 2.596.265 4.344.883 7.885 3.964 9.439 8.026.536 1.421.837 2.967.837 4.582z" fill="#334353"/><path d="m268.878 132.954v.044c-1.351 4.044-5.174 6.958-9.668 6.958-5.642 0-10.207-4.574-10.207-10.207 0-4.485 2.896-8.3 6.922-9.668h.08c7.107 0 12.873 5.766 12.873 12.873z" fill="#3e4e60"/><path d="m268.039 128.372c-.68 3.179-3.505 5.562-6.887 5.562-3.885 0-7.037-3.152-7.037-7.037 0-2.984 1.863-5.527 4.485-6.551 4.344.883 7.885 3.964 9.439 8.026z" fill="#3f5d77"/></g></g></g><g><g><path d="m194.089 358.561v2.985c0 1.397-.18 2.741-.529 4.032-1.768 6.742-7.917 11.717-15.22 11.717h-108.901c-8.7 0-15.749-7.049-15.749-15.749v-2.985c0-3.599 2.921-6.52 6.52-6.52h127.36c3.608.001 6.519 2.922 6.519 6.52z" fill="#aea7b9"/><path d="m194.089 358.561v2.985c0 1.397-.18 2.741-.529 4.032-2.159 1.133-4.625 1.768-7.229 1.768h-108.901c-8.552 0-15.517-6.816-15.749-15.305h125.889c3.608.001 6.519 2.922 6.519 6.52z" fill="#decee5"/><path d="m175.823 367.346h-77.46c-4.226 0-7.652-3.426-7.652-7.652s3.426-7.652 7.652-7.652h77.46c4.226 0 7.652 3.426 7.652 7.652s-3.426 7.652-7.652 7.652z" fill="#fff"/></g><g><g><path d="m64.273 344.274c-.425 0-.857-.073-1.279-.229-1.92-.706-2.903-2.835-2.197-4.756l1.828-4.967c.707-1.919 2.835-2.908 4.756-2.196 1.92.706 2.903 2.835 2.197 4.756l-1.828 4.967c-.551 1.496-1.969 2.425-3.477 2.425z" fill="#decee5"/></g><g><path d="m74.096 317.593c-.425 0-.857-.073-1.279-.229-1.92-.707-2.903-2.836-2.197-4.756l3.997-10.857c.707-1.919 2.836-2.905 4.756-2.196 1.92.707 2.903 2.836 2.197 4.756l-3.997 10.857c-.552 1.497-1.969 2.425-3.477 2.425zm11.991-32.573c-.425 0-.857-.073-1.279-.229-1.92-.707-2.903-2.836-2.197-4.756l3.998-10.858c.706-1.919 2.836-2.907 4.756-2.196 1.92.707 2.903 2.836 2.197 4.756l-3.998 10.858c-.552 1.497-1.969 2.425-3.477 2.425zm11.991-32.573c-.425 0-.857-.073-1.279-.229-1.92-.707-2.903-2.836-2.197-4.756l3.997-10.857c.707-1.919 2.835-2.906 4.756-2.196 1.92.707 2.903 2.836 2.197 4.756l-3.997 10.857c-.551 1.497-1.969 2.425-3.477 2.425zm11.991-32.572c-.425 0-.857-.073-1.279-.229-1.92-.706-2.903-2.836-2.197-4.756l3.997-10.858c.706-1.919 2.834-2.907 4.756-2.196 1.92.706 2.903 2.836 2.197 4.756l-3.997 10.858c-.551 1.497-1.969 2.425-3.477 2.425z" fill="#decee5"/></g><g><path d="m125.718 187.301c-.647 0-1.277-.171-1.829-.484-.915.519-2.043.647-3.108.254-1.92-.706-2.903-2.835-2.197-4.756l1.828-4.967c.536-1.456 1.924-2.425 3.477-2.425s2.94.967 3.477 2.425l1.828 4.967c.706 1.919-.277 4.049-2.197 4.756-.422.157-.854.23-1.279.23z" fill="#decee5"/></g><g><path d="m173.683 317.593c-1.509 0-2.926-.928-3.477-2.426l-3.997-10.858c-.706-1.919.277-4.05 2.197-4.756 1.918-.709 4.049.277 4.756 2.196l3.997 10.858c.706 1.919-.277 4.05-2.197 4.756-.422.156-.854.23-1.279.23zm-11.992-32.574c-1.508 0-2.926-.928-3.477-2.426l-3.997-10.857c-.706-1.919.277-4.049 2.197-4.756 1.92-.709 4.05.277 4.756 2.196l3.997 10.857c.706 1.919-.277 4.049-2.197 4.756-.421.157-.854.23-1.279.23zm-11.991-32.572c-1.509 0-2.926-.928-3.477-2.426l-3.997-10.858c-.706-1.919.277-4.05 2.197-4.756 1.919-.711 4.049.277 4.756 2.196l3.997 10.858c.706 1.919-.277 4.05-2.197 4.756-.421.157-.854.23-1.279.23zm-11.991-32.573c-1.509 0-2.926-.928-3.477-2.426l-3.997-10.857c-.706-1.919.277-4.049 2.197-4.756 1.92-.709 4.05.277 4.756 2.196l3.997 10.857c.706 1.919-.277 4.049-2.197 4.756-.422.156-.854.23-1.279.23z" fill="#decee5"/></g><g><path d="m183.505 344.274c-1.508 0-2.926-.928-3.477-2.426l-1.828-4.967c-.706-1.919.277-4.049 2.197-4.756 1.919-.71 4.05.277 4.756 2.196l1.828 4.967c.706 1.919-.277 4.049-2.197 4.756-.421.156-.854.23-1.279.23z" fill="#decee5"/></g></g><g><g><g><path d="m166.804 282.17v63.68c0 2.548-1.536 4.732-3.732 5.684h-.003c-.753.325-1.583.507-2.457.507h-73.448c-.874 0-1.703-.182-2.457-.507-2.196-.95-3.735-3.137-3.735-5.684v-63.68l42.916-43.046z" fill="#fbcb74"/><path d="m166.804 282.17v63.68c0 2.548-1.536 4.732-3.732 5.684h-.003c-2.193-.953-3.732-3.137-3.732-5.684v-63.68c0-2.545 1.539-4.729 3.732-5.684h.003c2.196.952 3.732 3.139 3.732 5.684z" fill="#faefdc"/><path d="m88.439 282.17v63.68c0 2.548-1.536 4.735-3.732 5.684-2.196-.95-3.735-3.137-3.735-5.684v-63.68c0-2.545 1.539-4.732 3.735-5.684 2.196.952 3.732 3.139 3.732 5.684z" fill="#deb36f"/><path d="m150.007 278.862c0 2.062-1.672 3.733-3.733 3.733h-44.77c-2.062 0-3.733-1.672-3.733-3.733 0-2.062 1.672-3.733 3.733-3.733h44.77c2.061-.001 3.733 1.671 3.733 3.733z" fill="#fbd9a3"/></g><g><path d="m140.692 333.884h-33.605c-3.863 0-6.994-3.132-6.994-6.994v-33.605c0-3.863 3.131-6.994 6.994-6.994h33.605c3.863 0 6.994 3.131 6.994 6.994v33.605c0 3.863-3.131 6.994-6.994 6.994z" fill="#c4983d"/><g><g><path d="m122.503 294.343v10.404c0 .022 0 .05-.006.072-.033 2.152-1.786 3.882-3.949 3.882h-10.404c-2.185 0-3.96-1.769-3.96-3.954v-10.404c0-2.163 1.736-3.921 3.888-3.954.022-.005.05-.005.072-.005h10.404c2.186 0 3.955 1.774 3.955 3.959z" fill="#6052a3"/><path d="m122.503 294.343v10.404c0 .022 0 .05-.006.072-.022.006-.05.006-.072.006h-5.024c-5.158 0-9.333-4.181-9.333-9.333v-5.03c0-.022 0-.05.006-.072.022-.005.05-.005.072-.005h10.404c2.184-.001 3.953 1.773 3.953 3.958z" fill="#57409b"/><path d="m117.687 303.038c-1.327 0-2.402-1.076-2.402-2.402v-5.936c0-1.327 1.076-2.402 2.402-2.402 1.327 0 2.402 1.076 2.402 2.402v5.936c.001 1.326-1.075 2.402-2.402 2.402z" fill="#9175a7"/></g><g><path d="m143.593 294.343v10.404c0 .022 0 .05-.006.072-.033 2.152-1.786 3.882-3.949 3.882h-10.404c-2.185 0-3.96-1.769-3.96-3.954v-10.404c0-2.163 1.736-3.921 3.888-3.954.022-.005.05-.005.072-.005h10.404c2.186 0 3.955 1.774 3.955 3.959z" fill="#6052a3"/><path d="m143.593 294.343v10.404c0 .022 0 .05-.006.072-.022.006-.05.006-.072.006h-5.024c-5.158 0-9.333-4.181-9.333-9.333v-5.03c0-.022 0-.05.006-.072.022-.005.05-.005.072-.005h10.404c2.184-.001 3.953 1.773 3.953 3.958z" fill="#57409b"/><path d="m138.778 303.038c-1.327 0-2.402-1.076-2.402-2.402v-5.936c0-1.327 1.076-2.402 2.402-2.402 1.327 0 2.402 1.076 2.402 2.402v5.936c0 1.326-1.076 2.402-2.402 2.402z" fill="#9175a7"/></g><g><path d="m122.503 315.434v10.404c0 .022 0 .05-.006.072-.033 2.152-1.786 3.882-3.949 3.882h-10.404c-2.185 0-3.96-1.769-3.96-3.954v-10.404c0-2.163 1.736-3.921 3.888-3.954.022-.005.05-.005.072-.005h10.404c2.186-.001 3.955 1.774 3.955 3.959z" fill="#6052a3"/><path d="m122.503 315.434v10.404c0 .022 0 .05-.006.072-.022.006-.05.006-.072.006h-5.024c-5.158 0-9.333-4.181-9.333-9.333v-5.03c0-.022 0-.05.006-.072.022-.005.05-.005.072-.005h10.404c2.184-.002 3.953 1.773 3.953 3.958z" fill="#57409b"/><path d="m117.687 324.128c-1.327 0-2.402-1.076-2.402-2.402v-5.936c0-1.327 1.076-2.402 2.402-2.402 1.327 0 2.402 1.076 2.402 2.402v5.936c.001 1.327-1.075 2.402-2.402 2.402z" fill="#9175a7"/></g><g><path d="m143.593 315.434v10.404c0 .022 0 .05-.006.072-.033 2.152-1.786 3.882-3.949 3.882h-10.404c-2.185 0-3.96-1.769-3.96-3.954v-10.404c0-2.163 1.736-3.921 3.888-3.954.022-.005.05-.005.072-.005h10.404c2.186-.001 3.955 1.774 3.955 3.959z" fill="#6052a3"/><path d="m143.593 315.434v10.404c0 .022 0 .05-.006.072-.022.006-.05.006-.072.006h-5.024c-5.158 0-9.333-4.181-9.333-9.333v-5.03c0-.022 0-.05.006-.072.022-.005.05-.005.072-.005h10.404c2.184-.002 3.953 1.773 3.953 3.958z" fill="#57409b"/><path d="m138.778 324.128c-1.327 0-2.402-1.076-2.402-2.402v-5.936c0-1.327 1.076-2.402 2.402-2.402 1.327 0 2.402 1.076 2.402 2.402v5.936c0 1.327-1.076 2.402-2.402 2.402z" fill="#9175a7"/></g></g></g><g><path d="m182.45 291.489c0 1.328-.507 2.653-1.519 3.665-2.035 2.035-5.338 2.023-7.358-.026l-45.994-46.683c-2.029-2.061-5.353-2.061-7.382 0l-45.994 46.683c-1.014 1.029-2.354 1.545-3.691 1.545-1.328 0-2.656-.507-3.667-1.519-1.709-1.709-1.973-4.315-.797-6.303.217-.366.484-.712.797-1.026l53.387-53.385c2.023-2.026 5.306-2.023 7.329 0l53.37 53.385c.314.314.58.66.797 1.026.482.812.722 1.724.722 2.638z" fill="#e9465e"/><path d="m181.729 288.851c-.217.366-.484.712-.797 1.026v.003c-2.035 2.035-5.338 2.02-7.358-.029l-45.994-46.683c-2.029-2.061-5.353-2.061-7.382 0l-45.994 46.682c-1.014 1.029-2.354 1.545-3.694 1.545-1.328 0-2.653-.504-3.665-1.516-.317-.317-.58-.663-.797-1.029.217-.366.484-.712.797-1.026l53.387-53.385c2.023-2.026 5.306-2.023 7.329 0l53.37 53.385c.314.314.581.66.798 1.027z" fill="#ee6781"/><g fill="#f789a1"><path d="m87.499 271.922-.152-.149c-1.237-1.214-1.246-3.204-.021-4.429l20.119-20.118c1.21-1.21 3.169-1.218 4.389-.019 1.229 1.208 1.245 3.184.036 4.412l-19.968 20.267c-1.205 1.224-3.175 1.24-4.403.036z"/><path d="m160.281 271.922.148-.145c1.24-1.215 1.25-3.209.023-4.437l-20.107-20.113c-1.21-1.211-3.17-1.221-4.393-.023-1.235 1.209-1.252 3.191-.039 4.422l19.959 20.258c1.207 1.225 3.18 1.242 4.409.038z"/></g></g></g></g></g><g><g><path d="m458.311 302.63v2.985c0 1.397-.18 2.741-.529 4.032-1.768 6.742-7.917 11.717-15.22 11.717h-108.902c-8.7 0-15.749-7.049-15.749-15.749v-2.985c0-3.599 2.921-6.52 6.52-6.52h127.36c3.609 0 6.52 2.921 6.52 6.52z" fill="#aea7b9"/><path d="m458.311 302.63v2.985c0 1.397-.18 2.741-.529 4.032-2.159 1.133-4.625 1.768-7.229 1.768h-108.902c-8.552 0-15.517-6.816-15.749-15.305h125.889c3.609 0 6.52 2.921 6.52 6.52z" fill="#decee5"/><path d="m440.045 311.415h-77.46c-4.226 0-7.652-3.426-7.652-7.652s3.426-7.652 7.652-7.652h77.46c4.226 0 7.652 3.426 7.652 7.652s-3.426 7.652-7.652 7.652z" fill="#fff"/></g><g><g><path d="m328.495 288.343c-.425 0-.857-.073-1.279-.229-1.92-.707-2.903-2.836-2.197-4.756l1.828-4.967c.706-1.919 2.834-2.908 4.756-2.196 1.92.707 2.903 2.836 2.197 4.756l-1.828 4.967c-.552 1.496-1.969 2.425-3.477 2.425z" fill="#decee5"/></g><g><path d="m338.317 261.661c-.425 0-.857-.073-1.279-.229-1.92-.707-2.903-2.836-2.197-4.756l3.997-10.857c.707-1.919 2.835-2.907 4.756-2.196 1.92.707 2.903 2.836 2.197 4.756l-3.997 10.857c-.551 1.497-1.969 2.425-3.477 2.425zm11.992-32.573c-.425 0-.857-.073-1.279-.229-1.92-.706-2.903-2.836-2.197-4.756l3.997-10.858c.706-1.92 2.836-2.908 4.756-2.196 1.92.706 2.903 2.836 2.197 4.756l-3.997 10.858c-.552 1.497-1.969 2.425-3.477 2.425zm11.991-32.573c-.425 0-.857-.073-1.279-.229-1.92-.707-2.903-2.836-2.197-4.756l3.997-10.857c.707-1.919 2.835-2.907 4.756-2.196 1.92.707 2.903 2.836 2.197 4.756l-3.997 10.857c-.552 1.497-1.969 2.425-3.477 2.425zm11.991-32.572c-.425 0-.857-.073-1.279-.229-1.92-.706-2.903-2.836-2.197-4.756l3.997-10.858c.707-1.919 2.836-2.908 4.756-2.196 1.92.706 2.903 2.836 2.197 4.756l-3.997 10.858c-.551 1.497-1.969 2.425-3.477 2.425z" fill="#decee5"/></g><g><path d="m386.282 131.37c-.425 0-.857-.073-1.279-.229-1.92-.707-2.903-2.836-2.197-4.756l1.828-4.967c.536-1.457 1.924-2.425 3.477-2.425 1.552 0 2.94.968 3.477 2.425l1.828 4.967c.706 1.92-.277 4.05-2.197 4.756-1.064.394-2.193.266-3.108-.254-.552.313-1.182.483-1.829.483z" fill="#decee5"/></g><g><path d="m437.904 261.661c-1.509 0-2.926-.928-3.477-2.426l-3.997-10.858c-.706-1.919.277-4.05 2.197-4.756 1.919-.711 4.05.277 4.756 2.196l3.997 10.858c.706 1.919-.277 4.05-2.197 4.756-.422.156-.854.23-1.279.23zm-11.991-32.574c-1.508 0-2.926-.928-3.477-2.426l-3.997-10.857c-.706-1.919.277-4.049 2.197-4.756 1.919-.71 4.05.277 4.756 2.196l3.997 10.857c.706 1.919-.277 4.049-2.197 4.756-.422.157-.854.23-1.279.23zm-11.991-32.572c-1.508 0-2.926-.928-3.477-2.426l-3.997-10.858c-.706-1.919.277-4.049 2.197-4.756 1.919-.709 4.049.277 4.756 2.196l3.997 10.858c.706 1.919-.277 4.049-2.197 4.756-.422.157-.854.23-1.279.23zm-11.992-32.573c-1.508 0-2.926-.928-3.477-2.426l-3.997-10.857c-.706-1.919.277-4.049 2.197-4.756 1.92-.71 4.05.277 4.756 2.196l3.997 10.857c.706 1.919-.277 4.049-2.197 4.756-.421.156-.854.23-1.279.23z" fill="#decee5"/></g><g><path d="m447.727 288.343c-1.509 0-2.926-.928-3.477-2.426l-1.828-4.967c-.706-1.92.277-4.05 2.197-4.756 1.922-.711 4.049.277 4.756 2.196l1.828 4.967c.706 1.92-.277 4.05-2.197 4.756-.422.156-.854.23-1.279.23z" fill="#decee5"/></g></g><g><g><path d="m438.193 230.985v54.937c0 1.855-.497 3.596-1.364 5.094-1.128 1.957-2.894 3.507-5.011 4.354-1.173.478-2.461.74-3.806.74h-79.795c-1.352 0-2.639-.261-3.812-.74-2.117-.854-3.883-2.397-5.011-4.354-.867-1.498-1.364-3.239-1.364-5.094v-54.937c0-4.278 2.633-7.944 6.375-9.448 1.173-.478 2.461-.74 3.812-.74h79.795c1.345 0 2.633.261 3.806.74 3.736 1.504 6.375 5.164 6.375 9.448z" fill="#d48d77"/><path d="m350.779 230.985v54.937c0 4.284-2.639 7.944-6.375 9.448-3.742-1.505-6.375-5.171-6.375-9.448v-54.937c0-4.278 2.633-7.944 6.375-9.448 3.736 1.504 6.375 5.164 6.375 9.448z" fill="#c17e62"/><path d="m438.193 230.985v54.937c0 1.855-.497 3.596-1.364 5.094-1.128 1.957-2.894 3.507-5.011 4.354-2.117-.854-3.883-2.397-5.011-4.354-.867-1.498-1.364-3.239-1.364-5.094v-54.937c0-4.278 2.633-7.944 6.375-9.448 3.736 1.504 6.375 5.164 6.375 9.448z" fill="#eea47d"/><path d="m436.829 291.016c-1.76 3.047-5.049 5.094-8.817 5.094h-79.795c-1.352 0-2.639-.261-3.812-.74-2.117-.854-3.883-2.397-5.011-4.354 1.128-1.957 2.894-3.5 5.011-4.354 1.173-.478 2.461-.74 3.812-.74h79.795c3.767 0 7.057 2.047 8.817 5.094z" fill="#a26d5a"/></g><g><path d="m425.902 262.883h-75.583c-6.788 0-12.291-5.503-12.291-12.291v-5.632h100.165v5.632c0 6.788-5.503 12.291-12.291 12.291z" fill="#a26d5a"/><path d="m438.193 230.985v16.869c0 4.431-3.596 8.027-8.027 8.027h-84.111c-4.431 0-8.027-3.596-8.027-8.027v-16.869c0-4.278 2.633-7.944 6.375-9.448 1.173-.478 2.461-.74 3.812-.74h79.795c1.345 0 2.633.261 3.806.74 3.738 1.504 6.377 5.164 6.377 9.448z" fill="#c17e62"/><path d="m350.779 230.985v24.896h-4.724c-4.431 0-8.027-3.596-8.027-8.027v-16.869c0-4.278 2.633-7.944 6.375-9.448 3.737 1.504 6.376 5.164 6.376 9.448z" fill="#a26d5a"/><path d="m438.193 230.985v16.869c0 4.431-3.596 8.027-8.027 8.027h-4.724v-24.896c0-4.278 2.633-7.944 6.375-9.448 3.737 1.504 6.376 5.164 6.376 9.448z" fill="#d48d77"/><path d="m414.726 226.162h-53.231c-3.084 0-5.585 2.5-5.585 5.585 0 3.084 2.5 5.585 5.585 5.585h53.231c3.084 0 5.585-2.5 5.585-5.585 0-3.084-2.5-5.585-5.585-5.585z" fill="#d48d77"/><path d="m411.743 233.335h-33.713c-1.981 0-3.586-1.606-3.586-3.587s1.606-3.587 3.586-3.587h33.714c1.981 0 3.586 1.606 3.586 3.587 0 1.982-1.606 3.587-3.587 3.587z" fill="#eea47d"/></g><g><g><path d="m364.149 245.808c-.72-.536-1.613-.848-2.582-.848h-6.426c-.963 0-1.855.312-2.576.848-1.084.784-1.785 2.066-1.785 3.513v13.121c0 1.447.701 2.729 1.785 3.513.72.536 1.613.848 2.576.848h6.426c.969 0 1.862-.312 2.582-.848 1.077-.791 1.779-2.072 1.779-3.513v-13.121c-.001-1.441-.702-2.723-1.779-3.513zm-1.784 14.534c0 1.403-1.137 2.541-2.541 2.541h-2.939c-1.403 0-2.54-1.137-2.54-2.541v-8.922c0-1.403 1.137-2.54 2.54-2.54h2.939c1.403 0 2.541 1.137 2.541 2.54z" fill="#f9c744"/><path d="m365.927 249.321v13.121c0 1.441-.701 2.722-1.779 3.513-1.084-.791-1.785-2.072-1.785-3.513v-13.121c0-1.441.701-2.722 1.785-3.513 1.078.79 1.779 2.072 1.779 3.513z" fill="#fad98f"/><path d="m354.343 249.321v13.121c0 1.441-.701 2.722-1.779 3.513-1.084-.784-1.785-2.066-1.785-3.513v-13.121c0-1.447.701-2.729 1.785-3.513 1.078.79 1.779 2.072 1.779 3.513z" fill="#f39e22"/><path d="m364.149 245.808c-.72-.536-1.613-.848-2.582-.848h-4.099c.234 1.435.783 2.763 1.566 3.919h.791c1.403 0 2.541 1.137 2.541 2.54v.532c1.079.608 2.28 1.024 3.562 1.188v-3.819c-.001-1.44-.702-2.722-1.779-3.512z" fill="#faefdc"/></g><g><path d="m423.664 245.808c-.72-.536-1.613-.848-2.582-.848h-6.426c-.963 0-1.855.312-2.576.848-1.084.784-1.785 2.066-1.785 3.513v13.121c0 1.447.701 2.729 1.785 3.513.72.536 1.613.848 2.576.848h6.426c.969 0 1.862-.312 2.582-.848 1.077-.791 1.779-2.072 1.779-3.513v-13.121c-.001-1.441-.702-2.723-1.779-3.513zm-1.784 14.534c0 1.403-1.137 2.541-2.541 2.541h-2.939c-1.403 0-2.54-1.137-2.54-2.541v-8.922c0-1.403 1.137-2.54 2.54-2.54h2.939c1.403 0 2.541 1.137 2.541 2.54z" fill="#f9c744"/><path d="m425.442 249.321v13.121c0 1.441-.701 2.722-1.779 3.513-1.084-.791-1.785-2.072-1.785-3.513v-13.121c0-1.441.701-2.722 1.785-3.513 1.078.79 1.779 2.072 1.779 3.513z" fill="#fad98f"/><path d="m413.858 249.321v13.121c0 1.441-.701 2.722-1.779 3.513-1.084-.784-1.785-2.066-1.785-3.513v-13.121c0-1.447.701-2.729 1.785-3.513 1.078.79 1.779 2.072 1.779 3.513z" fill="#f39e22"/><path d="m423.664 245.808c-.72-.536-1.613-.848-2.582-.848h-4.099c.233 1.435.783 2.763 1.566 3.919h.791c1.403 0 2.541 1.137 2.541 2.54v.532c1.079.608 2.28 1.024 3.562 1.188v-3.819c-.001-1.44-.702-2.722-1.779-3.512z" fill="#faefdc"/></g></g><g><path d="m410.294 211.278v9.519h-7.644v-6.057c0-3.353-2.722-6.076-6.082-6.076h-16.908c-3.36 0-6.082 2.722-6.082 6.076v6.057h-7.644v-9.519c0-1.001.159-1.964.446-2.863 1.211-3.774 4.75-6.509 8.926-6.509h25.617c4.176 0 7.714 2.735 8.926 6.509.286.9.445 1.863.445 2.863z" fill="#a26d5a"/><path d="m409.848 208.416c-1.02 3.634-3.711 6.56-7.198 7.906v-1.581c0-3.353-2.722-6.076-6.082-6.076h-16.908c-3.36 0-6.082 2.722-6.082 6.076v1.581c-1.568-.606-2.977-1.53-4.144-2.697-1.428-1.428-2.493-3.213-3.054-5.209 1.211-3.774 4.75-6.509 8.926-6.509h25.617c4.175 0 7.714 2.735 8.925 6.509z" fill="#c17e62"/><path d="m400.766 208.665h-19.655c-1.826 0-3.307-1.481-3.307-3.307v-.144c0-1.826 1.481-3.307 3.307-3.307h19.655c1.826 0 3.307 1.481 3.307 3.307v.144c0 1.826-1.481 3.307-3.307 3.307z" fill="#d48d77"/></g></g></g></g></g></g></svg>