<svg id="Layer_1" height="512" viewBox="0 0 512 512" width="512" xmlns="http://www.w3.org/2000/svg" data-name="Layer 1"><path d="m328.93 394.33-.59 68.23h-144.68l-.59-68.23z" fill="#6d7486"/><path d="m183.07 394.33.59 68.23h31l-.59-68.23z" fill="#5b6272"/><path d="m348.97 460h-185.94a35.221 35.221 0 0 0 -25.1 10.16 34.786 34.786 0 0 0 -10.4 24.84h256.94c0-19.57-15.89-35-35.5-35z" fill="#b0b5ca"/><path d="m21 324v40.37c0 17.65 14.5 31.63 32.18 31.63h405.64c17.68 0 32.18-13.98 32.18-31.63v-40.37z" fill="#b0b5ca"/><path d="m490.83 48.96v274.85h-469.66v-274.85a31.985 31.985 0 0 1 32.01-31.96h405.64a31.985 31.985 0 0 1 32.01 31.96z" fill="#f58387"/><path d="m327.83 141.87-71.83-41.4" fill="#f58387"/><path d="m327.83 141.87v82.81l-71.83 41.41v-82.82z" fill="#49c160"/><path d="m256 183.27v82.82l-71.83-41.41v-82.81z" fill="#81c83d"/><path d="m256 183.27-71.83-41.4 71.83-41.4 71.83 41.4z" fill="#d8ff33"/><ellipse cx="256" cy="359.68" fill="#6d7486" rx="12.45" ry="12.43"/><path d="m194.03 460h-31a35.221 35.221 0 0 0 -25.1 10.16 34.786 34.786 0 0 0 -10.4 24.84h31a34.786 34.786 0 0 1 10.4-24.84 35.221 35.221 0 0 1 25.1-10.16z" fill="#9a9fb2"/><path d="m52 364.37v-40.37h-31v40.37c0 17.65 14.5 31.63 32.18 31.63h31c-17.68 0-32.18-13.98-32.18-31.63z" fill="#9a9fb2"/><path d="m84.18 17h-31a31.985 31.985 0 0 0 -32.01 31.96v274.85h31v-274.85a31.985 31.985 0 0 1 32.01-31.96z" fill="#d67077"/><g fill="#284268"><path d="m458.816 11h-405.632a38.175 38.175 0 0 0 -38.184 37.957v315.411c0 20.932 17.225 37.632 38.184 37.632h123.946l.475 52h-14.578a41.33 41.33 0 0 0 -41.5 41.22 5.817 5.817 0 0 0 6 5.78h256.946a5.817 5.817 0 0 0 6-5.78 41.33 41.33 0 0 0 -41.5-41.22h-14.573l.475-52h123.941c20.959 0 38.184-16.7 38.184-37.632v-315.411a38.175 38.175 0 0 0 -38.184-37.957zm-109.842 455a29.149 29.149 0 0 1 28.882 23h-243.711a29.149 29.149 0 0 1 28.882-23zm-159.843-64h133.739l-.475 52h-132.789zm295.869-84h-352a6 6 0 0 0 0 12h352v34.368c0 14.313-11.841 25.632-26.184 25.632h-405.632c-14.343 0-26.184-11.319-26.184-25.632v-34.368h64a6 6 0 0 0 0-12h-64v-269.043a26.162 26.162 0 0 1 26.184-25.957h405.632a26.162 26.162 0 0 1 26.184 25.957z"/><path d="m256 378.11a18.428 18.428 0 1 0 -18.448-18.428 18.459 18.459 0 0 0 18.448 18.428zm0-24.856a6.428 6.428 0 1 1 -6.448 6.428 6.445 6.445 0 0 1 6.448-6.428z"/><path d="m52 75.542a6 6 0 0 0 -6 6v121.758a6 6 0 0 0 12 0v-121.758a6 6 0 0 0 -6-6z"/><path d="m52 51.973a6 6 0 0 0 -6 6v4.884a6 6 0 0 0 12 0v-4.884a6 6 0 0 0 -6-6z"/><path d="m158.207 243.628a5.966 5.966 0 0 0 2.918-.762l21.631-12.072 70.244 40.491a6 6 0 0 0 5.992 0l70.248-40.491 21.631 12.072a6.02 6.02 0 0 0 5.931-10.478l-22.802-12.774v-77.74a6.082 6.082 0 0 0 -3.087-5.2l-68.913-39.674v-26a6 6 0 0 0 -12 0v26l-68.913 39.673a6.082 6.082 0 0 0 -3.087 5.2v77.74l-22.806 12.774a5.986 5.986 0 0 0 -2.274 8.163 6.067 6.067 0 0 0 5.287 3.078zm163.793-22.413-60 34.485v-68.961l60-34.487zm-66-113.815 59.814 34.476-59.814 34.471-59.814-34.476zm-66 44.857 60 34.487v68.956l-60-34.488z"/><path d="m382.178 290h-267.678l.065-22.545 18.831.054a5.759 5.759 0 1 0 -.017-11.509h-.016l-18.763-.145.063-22.25 10.879-.077a6.27 6.27 0 0 0 -.016-12.528h-.015l-10.813.269.068-23.136 18.722.012a6.073 6.073 0 0 0 -.015-12.145h-.016l-18.657.151.063-22.1h10.772a6.023 6.023 0 0 0 -.016-12.051h-.019l-10.706.064.068-23.237 18.615-.04a5.894 5.894 0 1 0 -.012-11.787h-.01l-18.555-.053.064-22.2 10.665-.054a5.846 5.846 0 1 0 -.016-11.693h-.013l-10.6-.14.065-22.727a6.093 6.093 0 0 0 -5.983-6.133h-.018a6.027 6.027 0 0 0 -6 6.014l-.683 236.367a5.554 5.554 0 0 0 1.751 4.055 5.829 5.829 0 0 0 4.249 1.564h273.7a6 6 0 0 0 0-12z"/></g></svg>