<svg id="Icons" enable-background="new 0 0 512 512" height="512" viewBox="0 0 512 512" width="512" xmlns="http://www.w3.org/2000/svg"><g><circle cx="256" cy="256" fill="#6052a3" r="256"/><g><g id="Arrow_2_"><path d="m106.699 180.08-23.211-41.186c-1.161-2.059-3.341-3.333-5.705-3.333s-4.544 1.272-5.706 3.334l-23.211 41.185c-1.143 2.027-1.124 4.509.05 6.518 1.175 2.011 3.327 3.245 5.654 3.245l16.662.001-.001 80.047c0 3.617 2.932 6.549 6.549 6.549s6.549-2.932 6.549-6.549l-.001-80.047 16.661.001c1.76 0 3.419-.706 4.631-1.918.392-.392.738-.836 1.024-1.327 1.178-2.01 1.197-4.493.055-6.52z" fill="#53b976"/><path d="m98.591 178.706c-3.132 1.808-7.138.735-8.946-2.397l-11.401-19.747c-1.808-3.132-.735-7.138 2.397-8.946s7.138-.735 8.946 2.397l11.401 19.747c1.809 3.132.735 7.138-2.397 8.946z" fill="#9acdae"/></g><g id="Arrow_3_"><path d="m405.301 231.92 23.211 41.186c1.161 2.059 3.341 3.333 5.705 3.333s4.544-1.272 5.706-3.334l23.211-41.185c1.143-2.027 1.124-4.509-.05-6.518-1.175-2.011-3.327-3.245-5.654-3.245l-16.662-.001.001-80.047c0-3.617-2.932-6.549-6.549-6.549s-6.549 2.932-6.549 6.549l.001 80.047-16.661-.001c-1.76 0-3.419.706-4.631 1.918-.392.392-.738.836-1.024 1.327-1.178 2.01-1.197 4.493-.055 6.52z" fill="#53b976"/><path d="m413.409 233.294c3.132-1.808 7.138-.735 8.946 2.397l11.401 19.747c1.808 3.132.735 7.138-2.397 8.946s-7.138.735-8.946-2.397l-11.401-19.747c-1.809-3.132-.735-7.138 2.397-8.946z" fill="#9acdae"/></g></g><g><g><g><g><g><path d="m221.113 329.588v97.427c0 3.898-2.35 7.239-5.71 8.697h-.004c-1.153.498-2.422.776-3.759.776h-112.371c-1.337 0-2.606-.278-3.759-.776-3.359-1.453-5.714-4.799-5.714-8.697v-97.427l65.658-65.858z" fill="#fbcb74"/><path d="m221.113 329.588v97.427c0 3.898-2.35 7.239-5.71 8.697h-.004c-3.355-1.458-5.71-4.799-5.71-8.697v-97.427c0-3.893 2.355-7.235 5.71-8.697h.004c3.36 1.458 5.71 4.804 5.71 8.697z" fill="#faefdc"/><path d="m101.22 329.588v97.427c0 3.898-2.35 7.244-5.71 8.697-3.359-1.453-5.714-4.799-5.714-8.697v-97.427c0-3.893 2.355-7.239 5.714-8.697 3.36 1.458 5.71 4.804 5.71 8.697z" fill="#deb36f"/><path d="m195.414 324.527c0 3.155-2.557 5.712-5.712 5.712h-68.495c-3.155 0-5.712-2.557-5.712-5.712s2.557-5.712 5.712-5.712h68.495c3.155 0 5.712 2.557 5.712 5.712z" fill="#fbd9a3"/><path d="m203.773 330.239h-96.637c-3.267 0-5.916 2.649-5.916 5.916v84.294c0 3.267 2.649 5.916 5.916 5.916h96.637c3.267 0 5.916-2.649 5.916-5.916v-84.294c0-3.268-2.649-5.916-5.916-5.916z" fill="#c0405c"/></g><g><path d="m245.05 343.846c0 2.032-.776 4.059-2.323 5.606-3.113 3.113-8.167 3.095-11.258-.04l-70.368-71.422c-3.104-3.153-8.19-3.153-11.294 0l-70.367 71.422c-1.552 1.574-3.602 2.364-5.647 2.364-2.032 0-4.064-.776-5.611-2.323-2.615-2.615-3.019-6.602-1.22-9.643.332-.561.74-1.09 1.22-1.57l81.679-81.675c3.095-3.099 8.118-3.095 11.213 0l81.652 81.675c.48.48.888 1.009 1.22 1.57.736 1.242 1.104 2.637 1.104 4.036z" fill="#e9465e"/><path d="m243.947 339.809c-.332.561-.74 1.09-1.22 1.57v.004c-3.113 3.113-8.167 3.09-11.258-.045l-70.368-71.422c-3.104-3.153-8.19-3.153-11.294 0l-70.367 71.423c-1.552 1.574-3.602 2.364-5.651 2.364-2.032 0-4.059-.771-5.606-2.319-.484-.484-.888-1.014-1.22-1.574.332-.561.74-1.09 1.22-1.57l81.679-81.675c3.095-3.099 8.118-3.095 11.213 0l81.652 81.675c.48.479.888 1.009 1.22 1.569z" fill="#ee6781"/><g fill="#f789a1"><path d="m99.782 313.909-.232-.228c-1.892-1.857-1.907-4.902-.032-6.777l30.781-30.78c1.851-1.851 4.848-1.864 6.715-.03 1.881 1.848 1.905 4.871.055 6.75l-30.55 31.007c-1.845 1.876-4.86 1.901-6.737.058z"/><path d="m211.133 313.909.227-.222c1.897-1.86 1.913-4.91.034-6.789l-30.763-30.771c-1.852-1.852-4.85-1.868-6.721-.035-1.889 1.85-1.916 4.882-.06 6.765l30.536 30.994c1.848 1.875 4.866 1.901 6.747.058z"/></g></g></g><g><path d="m209.55 267.526v37.527l-15.066-15.07v-22.457c0-2.099 1.7-3.799 3.794-3.799h7.477c2.095 0 3.795 1.7 3.795 3.799z" fill="#c0405c"/><path d="m209.55 267.526v31.957l-6.068-6.073c-2.198-2.193-3.427-5.171-3.427-8.271v-17.613c0-2.099 1.7-3.799 3.794-3.799h1.906c2.095 0 3.795 1.7 3.795 3.799z" fill="#e9465e"/></g></g><g><g><path d="m195.772 361.486v44.225c0 1.493-.4 2.895-1.098 4.101-.908 1.576-2.33 2.823-4.034 3.505-.944.385-1.981.595-3.064.595h-64.236c-1.088 0-2.125-.21-3.069-.595-1.704-.688-3.126-1.93-4.034-3.505-.698-1.206-1.098-2.607-1.098-4.101v-44.225c0-3.444 2.12-6.395 5.132-7.606.944-.385 1.981-.595 3.069-.595h64.236c1.083 0 2.12.21 3.064.595 3.008 1.212 5.132 4.158 5.132 7.606z" fill="#d48d77"/><path d="m125.404 361.486v44.225c0 3.449-2.125 6.395-5.132 7.606-3.013-1.211-5.132-4.162-5.132-7.606v-44.225c0-3.444 2.12-6.395 5.132-7.606 3.007 1.212 5.132 4.158 5.132 7.606z" fill="#c17e62"/><path d="m195.772 361.486v44.225c0 1.493-.4 2.895-1.098 4.101-.908 1.576-2.33 2.823-4.034 3.505-1.704-.688-3.126-1.93-4.034-3.505-.698-1.206-1.098-2.607-1.098-4.101v-44.225c0-3.444 2.12-6.395 5.132-7.606 3.008 1.212 5.132 4.158 5.132 7.606z" fill="#eea47d"/><path d="m194.674 409.812c-1.416 2.453-4.065 4.101-7.098 4.101h-64.236c-1.088 0-2.125-.21-3.069-.595-1.704-.688-3.126-1.93-4.034-3.505.908-1.576 2.33-2.818 4.034-3.505.944-.385 1.981-.595 3.069-.595h64.236c3.033-.001 5.682 1.646 7.098 4.099z" fill="#a26d5a"/></g><g><path d="m185.878 387.165h-60.845c-5.464 0-9.894-4.43-9.894-9.894v-4.534h80.634v4.534c-.001 5.464-4.43 9.894-9.895 9.894z" fill="#a26d5a"/><path d="m195.772 361.486v13.58c0 3.567-2.895 6.462-6.462 6.462h-67.71c-3.567 0-6.462-2.895-6.462-6.462v-13.58c0-3.444 2.12-6.395 5.132-7.606.944-.385 1.981-.595 3.069-.595h64.236c1.083 0 2.12.21 3.064.595 3.009 1.212 5.133 4.158 5.133 7.606z" fill="#c17e62"/><path d="m125.404 361.486v20.042h-3.803c-3.567 0-6.462-2.895-6.462-6.462v-13.58c0-3.444 2.12-6.395 5.132-7.606 3.008 1.212 5.133 4.158 5.133 7.606z" fill="#a26d5a"/><path d="m195.772 361.486v13.58c0 3.567-2.895 6.462-6.462 6.462h-3.803v-20.042c0-3.444 2.12-6.395 5.132-7.606 3.009 1.212 5.133 4.158 5.133 7.606z" fill="#d48d77"/><path d="m176.881 357.604h-42.851c-2.483 0-4.496 2.013-4.496 4.496s2.013 4.496 4.496 4.496h42.851c2.483 0 4.496-2.013 4.496-4.496s-2.013-4.496-4.496-4.496z" fill="#d48d77"/><path d="m174.48 363.379h-27.14c-1.595 0-2.887-1.293-2.887-2.887 0-1.595 1.293-2.887 2.887-2.887h27.14c1.595 0 2.887 1.293 2.887 2.887s-1.292 2.887-2.887 2.887z" fill="#eea47d"/></g><g><g><path d="m136.166 373.419c-.58-.431-1.298-.683-2.079-.683h-5.173c-.775 0-1.493.251-2.073.683-.872.631-1.437 1.663-1.437 2.828v10.562c0 1.165.565 2.197 1.437 2.828.58.431 1.298.683 2.073.683h5.173c.78 0 1.499-.251 2.079-.683.867-.636 1.432-1.668 1.432-2.828v-10.562c0-1.16-.565-2.192-1.432-2.828zm-1.436 11.7c0 1.13-.916 2.045-2.045 2.045h-2.366c-1.129 0-2.045-.916-2.045-2.045v-7.183c0-1.129.916-2.045 2.045-2.045h2.366c1.13 0 2.045.916 2.045 2.045z" fill="#f9c744"/><path d="m137.598 376.247v10.562c0 1.16-.565 2.191-1.432 2.828-.872-.636-1.437-1.668-1.437-2.828v-10.562c0-1.16.565-2.191 1.437-2.828.867.636 1.432 1.668 1.432 2.828z" fill="#fad98f"/><path d="m128.272 376.247v10.562c0 1.16-.565 2.191-1.432 2.828-.872-.631-1.437-1.663-1.437-2.828v-10.562c0-1.165.565-2.197 1.437-2.828.868.636 1.432 1.668 1.432 2.828z" fill="#f39e22"/><path d="m136.166 373.419c-.58-.431-1.298-.683-2.079-.683h-3.3c.188 1.155.63 2.224 1.261 3.155h.637c1.13 0 2.045.916 2.045 2.045v.428c.868.489 1.836.824 2.868.957v-3.074c0-1.16-.565-2.192-1.432-2.828z" fill="#faefdc"/></g><g><path d="m184.076 373.419c-.58-.431-1.298-.683-2.079-.683h-5.173c-.775 0-1.493.251-2.073.683-.872.631-1.437 1.663-1.437 2.828v10.562c0 1.165.565 2.197 1.437 2.828.58.431 1.298.683 2.073.683h5.173c.78 0 1.499-.251 2.079-.683.867-.636 1.432-1.668 1.432-2.828v-10.562c0-1.16-.565-2.192-1.432-2.828zm-1.436 11.7c0 1.13-.916 2.045-2.045 2.045h-2.366c-1.13 0-2.045-.916-2.045-2.045v-7.183c0-1.129.916-2.045 2.045-2.045h2.366c1.13 0 2.045.916 2.045 2.045z" fill="#f9c744"/><path d="m185.508 376.247v10.562c0 1.16-.565 2.191-1.432 2.828-.872-.636-1.437-1.668-1.437-2.828v-10.562c0-1.16.565-2.191 1.437-2.828.867.636 1.432 1.668 1.432 2.828z" fill="#fad98f"/><path d="m176.182 376.247v10.562c0 1.16-.565 2.191-1.432 2.828-.872-.631-1.437-1.663-1.437-2.828v-10.562c0-1.165.565-2.197 1.437-2.828.868.636 1.432 1.668 1.432 2.828z" fill="#f39e22"/><path d="m184.076 373.419c-.58-.431-1.298-.683-2.079-.683h-3.3c.188 1.155.63 2.224 1.261 3.155h.637c1.13 0 2.045.916 2.045 2.045v.428c.868.489 1.836.824 2.868.957v-3.074c0-1.16-.565-2.192-1.432-2.828z" fill="#faefdc"/></g></g><g><path d="m173.314 345.623v7.663h-6.154v-4.876c0-2.7-2.191-4.891-4.896-4.891h-13.611c-2.705 0-4.896 2.191-4.896 4.891v4.876h-6.154v-7.663c0-.806.128-1.581.359-2.304.975-3.038 3.824-5.24 7.185-5.24h20.622c3.362 0 6.21 2.202 7.185 5.24.231.723.36 1.498.36 2.304z" fill="#a26d5a"/><path d="m172.954 343.318c-.821 2.925-2.987 5.281-5.794 6.364v-1.273c0-2.7-2.191-4.891-4.896-4.891h-13.611c-2.705 0-4.896 2.191-4.896 4.891v1.273c-1.263-.488-2.397-1.232-3.336-2.171-1.15-1.15-2.007-2.587-2.458-4.193.975-3.038 3.824-5.24 7.185-5.24h20.622c3.361 0 6.209 2.202 7.184 5.24z" fill="#c17e62"/><path d="m165.643 343.518h-15.822c-1.47 0-2.662-1.192-2.662-2.662v-.116c0-1.47 1.192-2.662 2.662-2.662h15.822c1.47 0 2.662 1.192 2.662 2.662v.116c0 1.47-1.192 2.662-2.662 2.662z" fill="#d48d77"/></g></g></g><g><g><g><g><path d="m422.202 329.588v97.427c0 3.898-2.35 7.239-5.71 8.697h-.004c-1.153.498-2.422.776-3.759.776h-112.372c-1.337 0-2.606-.278-3.759-.776-3.359-1.453-5.714-4.799-5.714-8.697v-97.427l65.658-65.858z" fill="#fbcb74"/><path d="m422.202 329.588v97.427c0 3.898-2.35 7.239-5.71 8.697h-.004c-3.355-1.458-5.71-4.799-5.71-8.697v-97.427c0-3.893 2.355-7.235 5.71-8.697h.004c3.359 1.458 5.71 4.804 5.71 8.697z" fill="#faefdc"/><path d="m302.309 329.588v97.427c0 3.898-2.35 7.244-5.71 8.697-3.359-1.453-5.714-4.799-5.714-8.697v-97.427c0-3.893 2.355-7.239 5.714-8.697 3.359 1.458 5.71 4.804 5.71 8.697z" fill="#deb36f"/><path d="m396.503 324.527c0 3.155-2.557 5.712-5.712 5.712h-68.495c-3.155 0-5.712-2.557-5.712-5.712s2.557-5.712 5.712-5.712h68.495c3.154 0 5.712 2.557 5.712 5.712z" fill="#fbd9a3"/><path d="m404.861 330.239h-96.637c-3.267 0-5.916 2.649-5.916 5.916v84.294c0 3.267 2.649 5.916 5.916 5.916h96.637c3.267 0 5.916-2.649 5.916-5.916v-84.294c.001-3.268-2.648-5.916-5.916-5.916z" fill="#c0405c"/></g><g><path d="m266.95 343.846c0 2.032.776 4.059 2.323 5.606 3.113 3.113 8.168 3.095 11.258-.04l70.368-71.422c3.104-3.153 8.19-3.153 11.294 0l70.368 71.422c1.552 1.574 3.602 2.364 5.647 2.364 2.032 0 4.064-.776 5.611-2.323 2.615-2.615 3.018-6.602 1.22-9.643-.332-.561-.74-1.09-1.22-1.57l-81.679-81.675c-3.095-3.099-8.118-3.095-11.213 0l-81.652 81.675c-.48.48-.888 1.009-1.22 1.57-.737 1.242-1.105 2.637-1.105 4.036z" fill="#e9465e"/><path d="m268.053 339.809c.332.561.74 1.09 1.22 1.57v.004c3.113 3.113 8.168 3.09 11.258-.045l70.368-71.422c3.104-3.153 8.19-3.153 11.294 0l70.368 71.422c1.552 1.574 3.602 2.364 5.651 2.364 2.032 0 4.059-.771 5.606-2.319.484-.484.888-1.014 1.22-1.574-.332-.561-.74-1.09-1.22-1.57l-81.679-81.675c-3.095-3.099-8.118-3.095-11.213 0l-81.652 81.675c-.481.48-.889 1.01-1.221 1.57z" fill="#ee6781"/><g fill="#f789a1"><path d="m412.218 313.909.232-.228c1.892-1.857 1.907-4.902.032-6.777l-30.781-30.78c-1.851-1.851-4.848-1.864-6.715-.03-1.881 1.848-1.905 4.871-.055 6.75l30.55 31.007c1.845 1.876 4.86 1.901 6.737.058z"/><path d="m300.867 313.909-.227-.222c-1.897-1.86-1.913-4.91-.034-6.789l30.763-30.771c1.852-1.852 4.85-1.868 6.721-.035 1.889 1.85 1.916 4.882.06 6.765l-30.536 30.994c-1.848 1.875-4.866 1.901-6.747.058z"/></g></g></g><g><path d="m302.45 267.526v37.527l15.066-15.07v-22.457c0-2.099-1.7-3.799-3.794-3.799h-7.477c-2.095 0-3.795 1.7-3.795 3.799z" fill="#c0405c"/><path d="m302.45 267.526v31.957l6.068-6.073c2.198-2.193 3.427-5.171 3.427-8.271v-17.613c0-2.099-1.7-3.799-3.794-3.799h-1.906c-2.095 0-3.795 1.7-3.795 3.799z" fill="#e9465e"/></g></g><g><g><path d="m396.861 361.486v44.225c0 1.493-.4 2.895-1.098 4.101-.908 1.576-2.33 2.823-4.034 3.505-.944.385-1.981.595-3.064.595h-64.236c-1.088 0-2.125-.21-3.069-.595-1.704-.688-3.126-1.93-4.034-3.505-.698-1.206-1.098-2.607-1.098-4.101v-44.225c0-3.444 2.12-6.395 5.132-7.606.944-.385 1.981-.595 3.069-.595h64.236c1.083 0 2.12.21 3.064.595 3.007 1.212 5.132 4.158 5.132 7.606z" fill="#d48d77"/><path d="m326.492 361.486v44.225c0 3.449-2.125 6.395-5.132 7.606-3.013-1.211-5.132-4.162-5.132-7.606v-44.225c0-3.444 2.12-6.395 5.132-7.606 3.007 1.212 5.132 4.158 5.132 7.606z" fill="#c17e62"/><path d="m396.861 361.486v44.225c0 1.493-.4 2.895-1.098 4.101-.908 1.576-2.33 2.823-4.034 3.505-1.704-.688-3.126-1.93-4.034-3.505-.698-1.206-1.098-2.607-1.098-4.101v-44.225c0-3.444 2.12-6.395 5.132-7.606 3.007 1.212 5.132 4.158 5.132 7.606z" fill="#eea47d"/><path d="m395.763 409.812c-1.416 2.453-4.065 4.101-7.098 4.101h-64.236c-1.088 0-2.125-.21-3.069-.595-1.704-.688-3.126-1.93-4.034-3.505.908-1.576 2.33-2.818 4.034-3.505.944-.385 1.981-.595 3.069-.595h64.236c3.033-.001 5.681 1.646 7.098 4.099z" fill="#a26d5a"/></g><g><path d="m386.967 387.165h-60.845c-5.464 0-9.894-4.43-9.894-9.894v-4.534h80.634v4.534c-.001 5.464-4.431 9.894-9.895 9.894z" fill="#a26d5a"/><path d="m396.861 361.486v13.58c0 3.567-2.895 6.462-6.462 6.462h-67.71c-3.567 0-6.462-2.895-6.462-6.462v-13.58c0-3.444 2.12-6.395 5.132-7.606.944-.385 1.981-.595 3.069-.595h64.236c1.083 0 2.12.21 3.064.595 3.008 1.212 5.133 4.158 5.133 7.606z" fill="#c17e62"/><path d="m326.492 361.486v20.042h-3.803c-3.567 0-6.462-2.895-6.462-6.462v-13.58c0-3.444 2.12-6.395 5.132-7.606 3.008 1.212 5.133 4.158 5.133 7.606z" fill="#a26d5a"/><path d="m396.861 361.486v13.58c0 3.567-2.895 6.462-6.462 6.462h-3.803v-20.042c0-3.444 2.12-6.395 5.132-7.606 3.008 1.212 5.133 4.158 5.133 7.606z" fill="#d48d77"/><path d="m377.97 357.604h-42.851c-2.483 0-4.496 2.013-4.496 4.496s2.013 4.496 4.496 4.496h42.851c2.483 0 4.496-2.013 4.496-4.496s-2.013-4.496-4.496-4.496z" fill="#d48d77"/><path d="m375.569 363.379h-27.14c-1.595 0-2.887-1.293-2.887-2.887 0-1.595 1.293-2.887 2.887-2.887h27.14c1.595 0 2.887 1.293 2.887 2.887s-1.293 2.887-2.887 2.887z" fill="#eea47d"/></g><g><g><path d="m337.255 373.419c-.58-.431-1.298-.683-2.079-.683h-5.173c-.775 0-1.493.251-2.073.683-.872.631-1.437 1.663-1.437 2.828v10.562c0 1.165.565 2.197 1.437 2.828.58.431 1.298.683 2.073.683h5.173c.78 0 1.499-.251 2.079-.683.867-.636 1.432-1.668 1.432-2.828v-10.562c-.001-1.16-.565-2.192-1.432-2.828zm-1.436 11.7c0 1.13-.916 2.045-2.045 2.045h-2.366c-1.129 0-2.045-.916-2.045-2.045v-7.183c0-1.129.916-2.045 2.045-2.045h2.366c1.13 0 2.045.916 2.045 2.045z" fill="#f9c744"/><path d="m338.686 376.247v10.562c0 1.16-.565 2.191-1.432 2.828-.872-.636-1.437-1.668-1.437-2.828v-10.562c0-1.16.565-2.191 1.437-2.828.868.636 1.432 1.668 1.432 2.828z" fill="#fad98f"/><path d="m329.361 376.247v10.562c0 1.16-.565 2.191-1.432 2.828-.872-.631-1.437-1.663-1.437-2.828v-10.562c0-1.165.565-2.197 1.437-2.828.868.636 1.432 1.668 1.432 2.828z" fill="#f39e22"/><path d="m337.255 373.419c-.58-.431-1.298-.683-2.079-.683h-3.3c.188 1.155.63 2.224 1.261 3.155h.637c1.13 0 2.045.916 2.045 2.045v.428c.868.489 1.836.824 2.868.957v-3.074c-.001-1.16-.565-2.192-1.432-2.828z" fill="#faefdc"/></g><g><path d="m385.165 373.419c-.58-.431-1.298-.683-2.079-.683h-5.173c-.775 0-1.493.251-2.073.683-.872.631-1.437 1.663-1.437 2.828v10.562c0 1.165.565 2.197 1.437 2.828.58.431 1.298.683 2.073.683h5.173c.78 0 1.499-.251 2.079-.683.867-.636 1.432-1.668 1.432-2.828v-10.562c-.001-1.16-.565-2.192-1.432-2.828zm-1.436 11.7c0 1.13-.916 2.045-2.045 2.045h-2.366c-1.129 0-2.045-.916-2.045-2.045v-7.183c0-1.129.916-2.045 2.045-2.045h2.366c1.13 0 2.045.916 2.045 2.045z" fill="#f9c744"/><path d="m386.596 376.247v10.562c0 1.16-.565 2.191-1.432 2.828-.872-.636-1.437-1.668-1.437-2.828v-10.562c0-1.16.565-2.191 1.437-2.828.868.636 1.432 1.668 1.432 2.828z" fill="#fad98f"/><path d="m377.271 376.247v10.562c0 1.16-.565 2.191-1.432 2.828-.872-.631-1.437-1.663-1.437-2.828v-10.562c0-1.165.565-2.197 1.437-2.828.868.636 1.432 1.668 1.432 2.828z" fill="#f39e22"/><path d="m385.165 373.419c-.58-.431-1.298-.683-2.079-.683h-3.3c.188 1.155.63 2.224 1.261 3.155h.637c1.13 0 2.045.916 2.045 2.045v.428c.868.489 1.836.824 2.868.957v-3.074c-.001-1.16-.565-2.192-1.432-2.828z" fill="#faefdc"/></g></g><g><path d="m374.402 345.623v7.663h-6.154v-4.876c0-2.7-2.191-4.891-4.896-4.891h-13.611c-2.705 0-4.896 2.191-4.896 4.891v4.876h-6.154v-7.663c0-.806.128-1.581.359-2.304.975-3.038 3.824-5.24 7.185-5.24h20.622c3.362 0 6.21 2.202 7.185 5.24.232.723.36 1.498.36 2.304z" fill="#a26d5a"/><path d="m374.043 343.318c-.821 2.925-2.987 5.281-5.794 6.364v-1.273c0-2.7-2.191-4.891-4.896-4.891h-13.611c-2.705 0-4.896 2.191-4.896 4.891v1.273c-1.263-.488-2.397-1.232-3.336-2.171-1.15-1.15-2.007-2.587-2.458-4.193.975-3.038 3.824-5.24 7.185-5.24h20.622c3.36 0 6.209 2.202 7.184 5.24z" fill="#c17e62"/><path d="m366.732 343.518h-15.822c-1.47 0-2.662-1.192-2.662-2.662v-.116c0-1.47 1.192-2.662 2.662-2.662h15.822c1.47 0 2.662 1.192 2.662 2.662v.116c0 1.47-1.192 2.662-2.662 2.662z" fill="#d48d77"/></g></g></g></g><g><g><path d="m377.322 91.687v114.744c0 2.496-.427 4.899-1.216 7.126-2.935 8.359-10.89 14.345-20.249 14.345h-189.708c-9.353 0-17.315-5.98-20.255-14.333-.789-2.233-1.216-4.636-1.216-7.137v-156.22c0-.824.058-1.637.181-2.426 1.169-8.02 8.079-14.182 16.426-14.182h55.405c8.348 0 15.257 6.161 16.426 14.182.123.789.181 1.602.181 2.426v20.004h122.559c11.856 0 21.466 9.611 21.466 21.471z" fill="#dd8c29"/><path d="m376.106 213.557c-2.935 8.359-10.89 14.345-20.249 14.345h-189.708c-9.353 0-17.315-5.98-20.255-14.333.789-1.882 1.935-3.572 3.355-4.986 2.818-2.823 6.722-4.571 11.025-4.571h201.452c6.471-.001 12.013 3.939 14.38 9.545z" fill="#c68132"/><path d="m377.322 91.687v101.644c-93.869-10.896-171.786-74.111-203.814-159.726h43.182c9.172 0 16.607 7.436 16.607 16.607v20.004h122.559c11.856 0 21.466 9.611 21.466 21.471z" fill="#f39e22"/><g fill="#f9c744"><path d="m346.808 94.661h-101.288c-6.75 0-12.222-5.472-12.222-12.222s5.472-12.222 12.222-12.222h101.288c6.75 0 12.222 5.472 12.222 12.222.001 6.75-5.471 12.222-12.222 12.222z"/><path d="m233.116 47.787c-.889 4.758-5.062 8.359-10.078 8.359h-68.102c-5.016 0-9.189-3.601-10.078-8.359 1.169-8.02 8.079-14.182 16.426-14.182h55.405c8.349 0 15.258 6.161 16.427 14.182z"/></g></g><g><g><path d="m309.442 135.003c-4.157-4.635-10.222-7.553-16.939-7.553-3.176 0-6.199.65-8.943 1.834-2.027.866-3.899 2.024-5.574 3.414-.197-5.096-1.559-9.891-3.821-14.134l2.5.468-7.379-7.336c-.639-.692-1.306-1.355-2.002-1.99l-.046-.045.001.004c-6.007-5.463-14.043-8.735-22.849-8.542-17.546.383-31.843 14.754-32.144 32.301-.002.115-.003.231-.004.346-.033 4.795-3.796 8.723-8.588 8.884-.142.005-.285.011-.427.018-11.409.593-20.718 9.769-21.455 21.17-.573 8.858 3.937 16.715 10.899 20.937 3.429 2.081 7.455 3.28 11.763 3.28h119.017c9.078 0 16.708-7.194 16.824-16.271.035-2.745-.6-5.336-1.753-7.623-2.712-5.387-8.293-9.079-14.736-9.079-.273 0-.542.006-.812.022-3.544.171-6.792 1.463-9.403 3.528 1.056-2.62 1.643-5.479 1.643-8.477 0-3.186-.658-6.218-1.843-8.97l2.58.322z" fill="#decee5"/></g><g><path d="m340.25 172.528c-.494 8.778-7.991 15.531-16.783 15.531h-119.032c-4.308 0-8.334-1.199-11.763-3.28-2.184-3.593-3.396-7.84-3.275-12.381.315-11.857 9.917-21.598 21.769-22.074.15-.006.3-.011.45-.014 4.868-.102 8.69-4.063 8.805-8.931.008-.359.023-.72.043-1.081.919-16.522 14.239-29.934 30.756-30.951 7.784-.479 15.032 1.751 20.886 5.846 5.028 3.505 9.025 8.385 11.456 14.092.015.035.03.069.044.104 2.045 4.838 7.168 7.52 12.315 6.473 1.467-.298 2.985-.455 4.54-.455 4.232 0 8.191 1.158 11.582 3.172 5.847 3.471 9.999 9.492 10.932 16.528.13.983.197 1.989.197 3.011 0 .066 0 .133-.001.199-.024 2.753 2.429 4.798 5.143 4.331.91-.156 1.846-.238 2.802-.238 2.665 0 5.181.631 7.408 1.754 1.255 2.492 1.896 5.345 1.726 8.364z" fill="#f9eaf9"/></g><g><g><path d="m274.778 141.303c-2.174 0-4.288-1.126-5.457-3.142-2.501-4.313-6.532-7.394-11.35-8.676-4.818-1.283-9.847-.611-14.16 1.89-3.011 1.746-6.866.72-8.612-2.291-1.745-3.01-.72-6.866 2.291-8.611 7.225-4.189 15.649-5.313 23.721-3.167 8.071 2.147 14.823 7.308 19.013 14.534 1.745 3.01.72 6.866-2.291 8.611-.995.578-2.082.852-3.155.852z" fill="#fff"/></g><g><path d="m240.062 174.413c-1.56 0-3.123-.575-4.342-1.736-2.521-2.398-2.621-6.387-.223-8.908 5.756-6.052 13.525-9.499 21.874-9.708 8.354-.193 16.281 2.847 22.332 8.604 2.521 2.398 2.621 6.387.222 8.908-2.398 2.522-6.387 2.621-8.908.223-3.612-3.437-8.349-5.262-13.331-5.136-4.984.125-9.622 2.183-13.058 5.795-1.238 1.302-2.901 1.958-4.566 1.958z" fill="#fff"/></g><g><path d="m313.111 166.063c-2.789 0-5.339-1.866-6.087-4.689-1.375-5.191-6.434-8.371-11.28-7.087-3.363.891-6.813-1.114-7.705-4.478-.891-3.364 1.114-6.813 4.478-7.704 11.56-3.064 23.534 4.134 26.689 16.042.891 3.364-1.113 6.814-4.477 7.705-.541.143-1.084.211-1.618.211z" fill="#fff"/></g><g><path d="m201.282 181.673c-.163 0-.327-.006-.493-.019-3.47-.268-6.065-3.298-5.797-6.768.45-5.826 3.223-11.108 7.806-14.872 4.507-3.701 10.239-5.489 16.141-5.033 3.47.268 6.065 3.298 5.797 6.768s-3.296 6.07-6.768 5.797c-2.645-.203-5.19.58-7.171 2.207-1.906 1.565-3.056 3.733-3.239 6.104-.256 3.304-3.017 5.816-6.276 5.816z" fill="#fff"/></g></g></g></g></g></svg>