<svg id="Icons" enable-background="new 0 0 512 512" height="512" viewBox="0 0 512 512" width="512" xmlns="http://www.w3.org/2000/svg"><g><g><circle cx="256" cy="256" fill="#57409b" r="256"/><circle cx="256" cy="256" fill="#6052a3" r="167.171"/></g><g><g><g><g><g><path d="m267.146 223.098v58.483c0 2.34-1.411 4.345-3.427 5.22h-.003c-.692.299-1.454.466-2.256.466h-67.454c-.802 0-1.564-.167-2.256-.466-2.017-.872-3.43-2.881-3.43-5.22v-58.483l39.413-39.533z" fill="#fbcb74"/><path d="m267.146 223.098v58.483c0 2.34-1.411 4.345-3.427 5.22h-.003c-2.014-.875-3.427-2.881-3.427-5.22v-58.483c0-2.337 1.413-4.343 3.427-5.22h.003c2.016.874 3.427 2.883 3.427 5.22z" fill="#faefdc"/><path d="m195.177 223.098v58.483c0 2.34-1.411 4.348-3.427 5.22-2.017-.872-3.43-2.881-3.43-5.22v-58.483c0-2.337 1.413-4.345 3.43-5.22 2.016.874 3.427 2.883 3.427 5.22z" fill="#deb36f"/><path d="m251.719 220.06c0 1.894-1.535 3.429-3.429 3.429h-41.116c-1.894 0-3.429-1.535-3.429-3.429s1.535-3.429 3.429-3.429h41.116c1.894 0 3.429 1.535 3.429 3.429z" fill="#fbd9a3"/></g><g><path d="m243.164 270.592h-30.863c-3.548 0-6.424-2.876-6.424-6.424v-30.863c0-3.548 2.876-6.424 6.424-6.424h30.863c3.548 0 6.424 2.876 6.424 6.424v30.863c0 3.548-2.876 6.424-6.424 6.424z" fill="#c4983d"/><g><g><path d="m226.46 234.278v9.555c0 .02 0 .046-.005.066-.031 1.976-1.64 3.565-3.626 3.565h-9.555c-2.007 0-3.637-1.625-3.637-3.631v-9.555c0-1.986 1.594-3.601 3.57-3.631.02-.005.046-.005.066-.005h9.555c2.007-.001 3.632 1.629 3.632 3.636z" fill="#6052a3"/><path d="m226.46 234.278v9.555c0 .02 0 .046-.005.066-.02.005-.046.005-.066.005h-4.614c-4.737 0-8.572-3.84-8.572-8.572v-4.619c0-.02 0-.046.005-.066.02-.005.046-.005.066-.005h9.555c2.006-.001 3.631 1.629 3.631 3.636z" fill="#57409b"/><path d="m222.037 242.263c-1.219 0-2.206-.988-2.206-2.206v-5.451c0-1.218.988-2.206 2.206-2.206s2.206.988 2.206 2.206v5.451c.001 1.218-.987 2.206-2.206 2.206z" fill="#9175a7"/></g><g><path d="m245.829 234.278v9.555c0 .02 0 .046-.005.066-.031 1.976-1.64 3.565-3.626 3.565h-9.555c-2.007 0-3.636-1.625-3.636-3.631v-9.555c0-1.986 1.594-3.601 3.57-3.631.02-.005.046-.005.066-.005h9.555c2.006-.001 3.631 1.629 3.631 3.636z" fill="#6052a3"/><path d="m245.829 234.278v9.555c0 .02 0 .046-.005.066-.02.005-.046.005-.066.005h-4.614c-4.737 0-8.572-3.84-8.572-8.572v-4.619c0-.02 0-.046.005-.066.02-.005.046-.005.066-.005h9.555c2.006-.001 3.631 1.629 3.631 3.636z" fill="#57409b"/><path d="m241.407 242.263c-1.218 0-2.206-.988-2.206-2.206v-5.451c0-1.218.988-2.206 2.206-2.206s2.206.988 2.206 2.206v5.451c0 1.218-.988 2.206-2.206 2.206z" fill="#9175a7"/></g><g><path d="m226.46 253.647v9.555c0 .02 0 .046-.005.066-.031 1.976-1.64 3.565-3.626 3.565h-9.555c-2.007 0-3.637-1.625-3.637-3.631v-9.555c0-1.986 1.594-3.601 3.57-3.631.02-.005.046-.005.066-.005h9.555c2.007-.001 3.632 1.629 3.632 3.636z" fill="#6052a3"/><path d="m226.46 253.647v9.555c0 .02 0 .046-.005.066-.02.005-.046.005-.066.005h-4.614c-4.737 0-8.572-3.84-8.572-8.572v-4.619c0-.02 0-.046.005-.066.02-.005.046-.005.066-.005h9.555c2.006-.001 3.631 1.629 3.631 3.636z" fill="#57409b"/><path d="m222.037 261.632c-1.219 0-2.206-.988-2.206-2.206v-5.451c0-1.218.988-2.206 2.206-2.206s2.206.988 2.206 2.206v5.451c.001 1.218-.987 2.206-2.206 2.206z" fill="#9175a7"/></g><g><path d="m245.829 253.647v9.555c0 .02 0 .046-.005.066-.031 1.976-1.64 3.565-3.626 3.565h-9.555c-2.007 0-3.636-1.625-3.636-3.631v-9.555c0-1.986 1.594-3.601 3.57-3.631.02-.005.046-.005.066-.005h9.555c2.006-.001 3.631 1.629 3.631 3.636z" fill="#6052a3"/><path d="m245.829 253.647v9.555c0 .02 0 .046-.005.066-.02.005-.046.005-.066.005h-4.614c-4.737 0-8.572-3.84-8.572-8.572v-4.619c0-.02 0-.046.005-.066.02-.005.046-.005.066-.005h9.555c2.006-.001 3.631 1.629 3.631 3.636z" fill="#57409b"/><path d="m241.407 261.632c-1.218 0-2.206-.988-2.206-2.206v-5.451c0-1.218.988-2.206 2.206-2.206s2.206.988 2.206 2.206v5.451c0 1.218-.988 2.206-2.206 2.206z" fill="#9175a7"/></g></g></g><g><path d="m281.515 231.657c0 1.22-.466 2.437-1.395 3.365-1.868 1.868-4.903 1.858-6.758-.024l-42.24-42.873c-1.863-1.893-4.916-1.893-6.779 0l-42.24 42.873c-.932.945-2.162 1.419-3.39 1.419-1.22 0-2.439-.466-3.368-1.395-1.57-1.57-1.812-3.963-.732-5.789.199-.337.444-.654.732-.942l49.03-49.028c1.858-1.86 4.873-1.858 6.731 0l49.014 49.028c.288.288.533.606.732.942.442.746.663 1.584.663 2.424z" fill="#e9465e"/><path d="m280.853 229.233c-.199.337-.444.654-.732.942v.003c-1.868 1.868-4.903 1.855-6.758-.027l-42.24-42.873c-1.863-1.893-4.916-1.893-6.779 0l-42.24 42.873c-.932.945-2.162 1.419-3.392 1.419-1.22 0-2.437-.463-3.365-1.392-.291-.291-.533-.608-.732-.945.199-.337.444-.654.732-.942l49.03-49.028c1.858-1.86 4.873-1.858 6.731 0l49.014 49.028c.286.288.531.606.731.942z" fill="#ee6781"/><g fill="#f789a1"><path d="m194.313 213.686-.139-.137c-1.136-1.115-1.145-2.942-.019-4.068l18.477-18.476c1.111-1.111 2.91-1.119 4.031-.018 1.129 1.109 1.144 2.924.033 4.052l-18.338 18.613c-1.108 1.125-2.918 1.14-4.045.034z"/><path d="m261.155 213.686.136-.133c1.139-1.116 1.148-2.947.021-4.075l-18.466-18.471c-1.112-1.112-2.911-1.121-4.034-.021-1.134 1.11-1.15 2.931-.036 4.061l18.33 18.605c1.108 1.125 2.92 1.14 4.049.034z"/></g></g></g></g><g><g><path d="m330.433 269.093v45.605c0 .992-.17 1.947-.483 2.832-1.166 3.322-4.328 5.702-8.048 5.702h-75.4c-3.717 0-6.882-2.377-8.05-5.697-.314-.888-.483-1.842-.483-2.837v-62.089c0-.328.023-.65.072-.964.465-3.188 3.211-5.636 6.529-5.636h22.021c3.318 0 6.064 2.449 6.529 5.636.049.314.072.637.072.964v7.951h48.711c4.71-.001 8.53 3.819 8.53 8.533z" fill="#dd8c29"/><path d="m329.95 317.53c-1.166 3.322-4.328 5.702-8.048 5.702h-75.4c-3.717 0-6.882-2.377-8.05-5.697.314-.748.769-1.42 1.334-1.982 1.12-1.122 2.672-1.817 4.382-1.817h80.067c2.571 0 4.774 1.566 5.715 3.794z" fill="#c68132"/><path d="m330.433 269.093v40.398c-37.308-4.331-68.276-29.455-81.006-63.483h17.163c3.645 0 6.601 2.955 6.601 6.601v7.951h48.711c4.711-.001 8.531 3.819 8.531 8.533z" fill="#f39e22"/><g fill="#f9c744"><path d="m318.305 270.275h-40.257c-2.683 0-4.858-2.175-4.858-4.858s2.175-4.858 4.858-4.858h40.257c2.683 0 4.858 2.175 4.858 4.858s-2.175 4.858-4.858 4.858z"/><path d="m273.118 251.645c-.353 1.891-2.012 3.322-4.005 3.322h-27.067c-1.993 0-3.652-1.431-4.005-3.322.465-3.188 3.211-5.636 6.529-5.636h22.021c3.316-.001 6.063 2.448 6.527 5.636z"/></g></g><g><g><path d="m303.454 286.309c-1.652-1.842-4.063-3.002-6.732-3.002-1.262 0-2.464.258-3.554.729-.806.344-1.55.804-2.215 1.357-.078-2.025-.62-3.931-1.519-5.618l.993.186-2.933-2.916c-.254-.275-.519-.539-.796-.791l-.018-.018v.002c-2.388-2.171-5.581-3.472-9.081-3.395-6.973.152-12.656 5.864-12.776 12.838-.001.046-.001.092-.002.137-.013 1.906-1.509 3.467-3.413 3.531-.056.002-.113.004-.17.007-4.535.236-8.234 3.883-8.527 8.414-.228 3.521 1.565 6.643 4.332 8.322 1.363.827 2.963 1.304 4.675 1.304h47.303c3.608 0 6.641-2.859 6.687-6.467.014-1.091-.238-2.121-.697-3.03-1.078-2.141-3.296-3.609-5.857-3.609-.108 0-.216.003-.323.009-1.408.068-2.7.581-3.737 1.402.42-1.041.653-2.178.653-3.369 0-1.266-.261-2.471-.733-3.565l1.025.128z" fill="#decee5"/></g><g><path d="m315.698 301.223c-.197 3.489-3.176 6.173-6.67 6.173h-47.309c-1.712 0-3.312-.477-4.675-1.304-.868-1.428-1.35-3.116-1.302-4.921.125-4.713 3.942-8.584 8.652-8.773.06-.002.119-.004.179-.005 1.935-.04 3.454-1.615 3.5-3.55.003-.143.009-.286.017-.43.365-6.567 5.659-11.897 12.224-12.301 3.094-.19 5.974.696 8.301 2.324 1.998 1.393 3.587 3.332 4.553 5.601.006.014.012.028.018.041.813 1.923 2.849 2.989 4.895 2.573.583-.119 1.187-.181 1.805-.181 1.682 0 3.256.46 4.603 1.261 2.324 1.379 3.974 3.773 4.345 6.569.052.391.078.791.078 1.197v.079c-.009 1.094.966 1.907 2.044 1.721.362-.062.734-.095 1.113-.095 1.059 0 2.059.251 2.944.697.498.99.753 2.124.685 3.324z" fill="#f9eaf9"/></g><g><g><path d="m289.677 288.813c-.864 0-1.704-.447-2.169-1.249-.994-1.714-2.596-2.939-4.511-3.448-1.915-.51-3.914-.243-5.628.751-1.197.694-2.729.286-3.423-.91s-.286-2.729.91-3.423c2.872-1.665 6.22-2.112 9.428-1.259s5.892 2.905 7.557 5.777c.694 1.196.286 2.729-.91 3.423-.396.229-.828.338-1.254.338z" fill="#fff"/></g><g><path d="m275.879 301.972c-.62 0-1.241-.229-1.726-.69-1.002-.953-1.042-2.538-.088-3.541 2.288-2.405 5.375-3.775 8.694-3.858 3.32-.077 6.471 1.131 8.876 3.419 1.002.953 1.042 2.538.088 3.541-.953 1.002-2.539 1.042-3.541.088-1.436-1.366-3.318-2.091-5.298-2.041-1.981.049-3.824.868-5.19 2.303-.493.518-1.153.779-1.815.779z" fill="#fff"/></g><g><path d="m304.912 298.654c-1.108 0-2.122-.742-2.419-1.864-.547-2.063-2.557-3.327-4.483-2.817-1.337.354-2.708-.443-3.062-1.78s.443-2.708 1.78-3.062c4.594-1.218 9.354 1.643 10.608 6.376.354 1.337-.442 2.708-1.779 3.062-.217.058-.433.085-.645.085z" fill="#fff"/></g><g><path d="m260.466 304.858c-.065 0-.13-.003-.196-.008-1.379-.107-2.41-1.311-2.304-2.69.179-2.316 1.281-4.415 3.103-5.911 1.791-1.471 4.07-2.182 6.415-2 1.379.107 2.411 1.311 2.304 2.69s-1.31 2.412-2.69 2.304c-1.051-.081-2.063.23-2.85.877-.757.622-1.215 1.484-1.288 2.426-.102 1.314-1.199 2.312-2.494 2.312z" fill="#fff"/></g></g></g></g></g><g><g fill="#9175a7"><g><path d="m260 372.743c-3.022 0-5.471-2.45-5.471-5.471v-27.752c0-3.022 2.45-5.471 5.471-5.471 3.022 0 5.471 2.45 5.471 5.471v27.752c0 3.021-2.449 5.471-5.471 5.471z"/><path d="m260 177.951c-3.022 0-5.471-2.45-5.471-5.471v-27.752c0-3.022 2.45-5.471 5.471-5.471 3.022 0 5.471 2.45 5.471 5.471v27.752c0 3.022-2.449 5.471-5.471 5.471z"/></g><g><path d="m376.743 265.55c0 3.022-2.45 5.471-5.471 5.471h-27.752c-3.022 0-5.471-2.45-5.471-5.471 0-3.022 2.45-5.471 5.471-5.471h27.752c3.021 0 5.471 2.45 5.471 5.471z"/><path d="m173.951 265.55c0 3.022-2.45 5.471-5.471 5.471h-27.752c-3.022 0-5.471-2.45-5.471-5.471 0-3.022 2.45-5.471 5.471-5.471h27.752c3.022 0 5.471 2.45 5.471 5.471z"/></g></g><g><g><path d="m310.883 399.338c-2.074-1.979-4.888-3.207-7.987-3.207h-93.793c-3.099 0-5.913 1.228-7.987 3.207-2.205 2.098-3.576 5.066-3.576 8.345v39.112l.005-.001c0 5.083 4.119 9.205 9.202 9.205h98.505c5.082 0 9.202-4.123 9.202-9.205l.005.001v-39.112c0-3.278-1.37-6.247-3.576-8.345z" fill="#83d5ef"/><path d="m314.454 446.795c0 5.082-4.119 9.205-9.201 9.205h-98.505c-5.082 0-9.201-4.123-9.201-9.205l53.347-32.441c3.137-1.908 7.076-1.908 10.213 0z" fill="#cde6f6"/><path d="m310.883 399.338-30.052 27.013-18.263 16.427c-3.731 3.361-9.405 3.361-13.137 0l-18.263-16.427-30.052-27.013c2.074-1.979 4.888-3.207 7.987-3.207h93.793c3.1.001 5.913 1.228 7.987 3.207z" fill="#fff"/></g><g><g id="Landscape_2_"><g><path d="m399.65 207.63h81.867v96.461h-81.867z" fill="#22bce0"/></g><g><g><g><path d="m474.445 232.613c0 3.468-.666 6.695-1.814 9.401-2.003 4.73-5.479 7.858-9.431 7.858-6.211 0-11.247-7.727-11.247-17.259 0-8.597 4.094-15.723 9.454-17.038.584-.146 1.182-.221 1.793-.221 6.211 0 11.245 7.727 11.245 17.259z" fill="#50755c"/></g><g><path d="m474.445 232.613c0 3.468-.666 6.695-1.814 9.401-.584.144-1.18.219-1.789.219-6.211 0-11.247-7.729-11.247-17.261 0-3.465.666-6.693 1.812-9.397.584-.146 1.182-.221 1.793-.221 6.211 0 11.245 7.727 11.245 17.259z" fill="#528f66"/></g></g><g><g><path d="m465.048 234.137v29.495c0 1.021-.828 1.848-1.848 1.848-1.021 0-1.848-.828-1.848-1.848v-29.495c0-.97.747-1.766 1.698-1.842.049-.004.1-.006.151-.006.509 0 .972.208 1.307.541.334.335.54.796.54 1.307z" fill="#bf5e39"/></g><g><path d="m465.048 234.137v29.215c-.049.004-.1.006-.151.006-1.021 0-1.848-.828-1.848-1.848v-29.215c.049-.004.1-.006.151-.006.509 0 .972.208 1.307.541.335.335.541.796.541 1.307z" fill="#ea792e"/></g><g><path d="m464.507 232.83c.335.335.541.796.541 1.307v16.325c-.049.004-.1.006-.151.006-1.021 0-1.848-.828-1.848-1.848v-16.325c.049-.004.1-.006.151-.006.509 0 .971.208 1.307.541z" fill="#f39e22"/></g></g></g><g><g><g><path d="m446.381 239.129c0 3.468-.666 6.695-1.814 9.401-2.003 4.73-5.479 7.858-9.431 7.858-6.211 0-11.247-7.727-11.247-17.259 0-8.597 4.094-15.723 9.454-17.038.584-.146 1.182-.221 1.793-.221 6.211 0 11.245 7.726 11.245 17.259z" fill="#50755c"/></g><g><path d="m446.381 239.129c0 3.468-.666 6.695-1.814 9.401-.584.144-1.18.219-1.789.219-6.211 0-11.247-7.729-11.247-17.261 0-3.465.666-6.693 1.812-9.397.584-.146 1.182-.221 1.793-.221 6.211 0 11.245 7.726 11.245 17.259z" fill="#528f66"/></g></g><g><g><path d="m436.984 240.653v29.495c0 1.021-.828 1.848-1.848 1.848-1.021 0-1.848-.828-1.848-1.848v-29.495c0-.97.747-1.766 1.698-1.842.049-.004.1-.006.151-.006.509 0 .972.208 1.307.541.334.335.54.795.54 1.307z" fill="#bf5e39"/></g><g><path d="m436.984 240.653v29.215c-.049.004-.1.006-.151.006-1.021 0-1.848-.828-1.848-1.848v-29.215c.049-.004.1-.006.151-.006.509 0 .972.208 1.307.541.335.335.541.795.541 1.307z" fill="#ea792e"/></g><g><path d="m436.443 239.345c.335.335.541.796.541 1.307v16.325c-.049.004-.1.006-.151.006-1.021 0-1.848-.828-1.848-1.848v-16.325c.049-.004.1-.006.151-.006.509 0 .972.208 1.307.541z" fill="#f39e22"/></g></g></g><g><g><path d="m439.994 273.765c0 4.123-1.237 7.958-3.359 11.152-3.614 5.437-9.793 9.021-16.811 9.021-11.141 0-20.173-9.032-20.173-20.173 0-.917.062-1.817.18-2.701 1.32-9.863 9.768-17.471 19.992-17.471 11.142-.001 20.171 9.031 20.171 20.172z" fill="#53b976"/></g><g><path d="m436.816 282.211c0 .917-.062 1.821-.18 2.706-3.614 5.437-9.793 9.021-16.811 9.021-11.141 0-20.173-9.032-20.173-20.173 0-.917.062-1.817.18-2.701 3.612-5.439 9.793-9.023 16.813-9.023 11.139-.001 20.171 9.029 20.171 20.17z" fill="#50755c"/></g></g><g><g><path d="m473.084 277.351c0 3.389-1.016 6.542-2.763 9.17-2.971 4.469-8.053 7.417-13.823 7.417-9.159 0-16.586-7.427-16.586-16.586 0-.753.051-1.494.149-2.222 1.084-8.111 8.032-14.364 16.438-14.364 9.16-.001 16.585 7.424 16.585 16.585z" fill="#53b976"/></g><g><path d="m470.47 284.295c0 .755-.051 1.498-.149 2.226-2.971 4.469-8.053 7.417-13.823 7.417-9.159 0-16.586-7.427-16.586-16.586 0-.753.051-1.494.149-2.222 2.969-4.471 8.053-7.419 13.823-7.419 9.161 0 16.586 7.425 16.586 16.584z" fill="#50755c"/></g></g><g><g><path d="m481.516 275.654v28.437h-81.866v-28.87h78.134c1.286-.001 2.533.149 3.732.433z" fill="#53b976"/></g><g><g><path d="m449.59 285.199h-10.493c-.41 0-.743-.333-.743-.743s.333-.743.743-.743h10.493c.41 0 .743.333.743.743s-.332.743-.743.743z" fill="#9acdae"/></g><g><path d="m446.519 279.433h-10.493c-.41 0-.743-.333-.743-.743s.333-.743.743-.743h10.493c.41 0 .743.333.743.743s-.333.743-.743.743z" fill="#9acdae"/></g><g><path d="m429.378 282.946h-10.493c-.41 0-.743-.332-.743-.743 0-.41.333-.743.743-.743h10.493c.41 0 .743.333.743.743-.001.411-.333.743-.743.743z" fill="#9acdae"/></g><g><path d="m441.082 289.71h-10.492c-.41 0-.743-.333-.743-.743s.332-.743.743-.743h10.492c.41 0 .743.333.743.743s-.333.743-.743.743z" fill="#9acdae"/></g><g><path d="m409.727 292.404h-10.493c-.41 0-.743-.333-.743-.743s.332-.743.743-.743h10.493c.41 0 .743.333.743.743s-.332.743-.743.743z" fill="#9acdae"/></g><g><path d="m431.932 305.578h-10.493c-.41 0-.743-.333-.743-.743s.333-.743.743-.743h10.493c.41 0 .743.332.743.743-.001.411-.333.743-.743.743z" fill="#9acdae"/></g><g><path d="m423.889 287.219h-10.492c-.41 0-.743-.332-.743-.743 0-.41.332-.743.743-.743h10.492c.41 0 .743.333.743.743-.001.41-.333.743-.743.743z" fill="#9acdae"/></g><g><path d="m417.491 278.732h-10.493c-.41 0-.743-.333-.743-.743s.333-.743.743-.743h10.493c.41 0 .743.332.743.743-.001.41-.333.743-.743.743z" fill="#9acdae"/></g><g><path d="m420.671 298.397h-10.493c-.41 0-.743-.332-.743-.743 0-.41.333-.743.743-.743h10.493c.41 0 .743.332.743.743-.001.41-.333.743-.743.743z" fill="#9acdae"/></g><g><path d="m444.344 299.14h-10.493c-.41 0-.743-.332-.743-.743 0-.41.333-.743.743-.743h10.493c.41 0 .743.333.743.743s-.333.743-.743.743z" fill="#9acdae"/></g><g><path d="m457.627 292.876h-10.493c-.41 0-.743-.333-.743-.743s.332-.743.743-.743h10.493c.41 0 .743.333.743.743s-.333.743-.743.743z" fill="#9acdae"/></g><g><path d="m480.775 290.109h-10.493c-.41 0-.743-.332-.743-.743 0-.41.333-.743.743-.743h10.493c.41 0 .743.332.743.743-.001.41-.333.743-.743.743z" fill="#9acdae"/></g><g><path d="m469.605 297.654h-10.492c-.41 0-.743-.332-.743-.743 0-.41.333-.743.743-.743h10.492c.41 0 .743.332.743.743s-.333.743-.743.743z" fill="#9acdae"/></g><g><path d="m471.453 285.199h-10.493c-.41 0-.743-.333-.743-.743s.332-.743.743-.743h10.492c.41 0 .743.333.743.743s-.332.743-.742.743z" fill="#9acdae"/></g><g><path d="m429.838 294.422h-10.493c-.41 0-.743-.333-.743-.743s.333-.743.743-.743h10.493c.41 0 .743.333.743.743s-.332.743-.743.743z" fill="#9acdae"/></g><g><path d="m465.464 279.433h-10.492c-.41 0-.743-.333-.743-.743s.333-.743.743-.743h10.492c.41 0 .743.333.743.743s-.333.743-.743.743z" fill="#9acdae"/></g></g></g></g><g><path d="m481.728 204.297h-82.078c-1.994 0-3.612 1.618-3.612 3.612v96.182c0 1.999 1.618 3.612 3.612 3.612h82.079c1.994 0 3.612-1.614 3.612-3.612v-96.182c0-1.994-1.619-3.612-3.613-3.612zm-3.612 96.181h-74.854v-88.957h74.854z" fill="#c2aacf"/><path d="m479.084 207.63h-76.79c-1.864 0-3.376 1.512-3.376 3.381v89.983c0 1.869 1.512 3.381 3.376 3.381h76.79c1.864 0 3.376-1.512 3.376-3.381v-89.983c0-1.869-1.512-3.381-3.376-3.381zm-.968 92.848h-74.854v-88.957h74.854z" fill="#f9eaf9"/><g fill="#fff"><path d="m464.704 211.522h-33.221c-1.075 0-1.946-.871-1.946-1.946s.871-1.946 1.946-1.946h33.221c1.075 0 1.946.871 1.946 1.946 0 1.074-.871 1.946-1.946 1.946z"/><path d="m447.01 304.37h-33.221c-1.075 0-1.946-.871-1.946-1.946s.871-1.946 1.946-1.946h33.221c1.075 0 1.946.871 1.946 1.946s-.871 1.946-1.946 1.946z"/><path d="m478.116 262.541v-37.086c0-1.2.973-2.172 2.172-2.172 1.2 0 2.172.973 2.172 2.172v37.086c0 1.2-.973 2.172-2.172 2.172-1.199.001-2.172-.972-2.172-2.172z"/><path d="m398.917 286.943v-37.086c0-1.2.973-2.172 2.172-2.172 1.2 0 2.172.973 2.172 2.172v37.086c0 1.2-.973 2.172-2.172 2.172-1.199.001-2.172-.972-2.172-2.172z"/></g></g></g><g><path d="m314.454 47.141v57.377c0 3.44-2.78 6.229-6.22 6.229h-104.468c-3.44 0-6.22-2.789-6.22-6.229v-57.377c0-3.44 2.78-6.229 6.22-6.229h104.467c3.441.001 6.221 2.79 6.221 6.229z" fill="#f9eaf9"/><path d="m314.454 47.141v57.377c0 3.44-2.78 6.229-6.22 6.229h-31.344c-27.177-14.845-48.042-39.81-57.519-69.834h88.862c3.441 0 6.221 2.789 6.221 6.228z" fill="#fff"/><g><path d="m301.622 59.792c-.806-.806-1.983-1.115-3.082-.809l-16.602 4.634c-1.081.302-1.92 1.154-2.205 2.24-.285 1.085.028 2.241.822 3.034l3.751 3.751-14.165 14.165c-1.554 1.554-4.083 1.554-5.637 0l-4.725-4.725c-4.016-4.016-10.551-4.016-14.567 0l-12.832 12.832c-1.233 1.233-1.233 3.232 0 4.465.617.617 1.425.925 2.233.925s1.616-.308 2.233-.925l12.832-12.832c1.554-1.554 4.083-1.554 5.637 0l4.725 4.725c4.016 4.016 10.551 4.016 14.567 0l14.165-14.165 3.751 3.751c.6.6 1.406.925 2.233.925.267 0 .536-.034.801-.103 1.085-.285 1.938-1.125 2.24-2.205l4.634-16.602c.306-1.098-.003-2.275-.809-3.081z" fill="#53b976"/><path d="m294.599 68.505-5.908 1.723c-1.654.483-3.386-.467-3.869-2.121s.467-3.386 2.121-3.869l5.908-1.723c1.654-.483 3.386.467 3.869 2.121s-.467 3.386-2.121 3.869z" fill="#9acdae"/></g><g fill="#6052a3"><path d="m265.141 58.309h-52.206c-1.709 0-3.094-1.385-3.094-3.094s1.385-3.094 3.094-3.094h52.206c1.709 0 3.094 1.385 3.094 3.094s-1.385 3.094-3.094 3.094z"/><path d="m245.419 69.717h-32.484c-1.709 0-3.094-1.385-3.094-3.094s1.385-3.094 3.094-3.094h32.484c1.709 0 3.094 1.385 3.094 3.094-.001 1.709-1.386 3.094-3.094 3.094z"/></g></g><g><g><path d="m112.118 180.263v149.039c0 3.186-1.772 5.948-4.379 7.367h-.005c-1.189.648-2.548 1.012-3.994 1.012h-62.688c-1.445 0-2.805-.364-3.994-1.012-2.613-1.419-4.385-4.181-4.385-7.367v-149.039c0-1.499.396-2.907 1.092-4.122.766-1.371 1.911-2.495 3.293-3.244 1.189-.648 2.548-1.012 3.994-1.012h62.688c1.445 0 2.805.364 3.994 1.012h.005c1.376.75 2.522 1.874 3.293 3.239.69 1.214 1.086 2.622 1.086 4.127z" fill="#ebd9ea"/><path d="m112.118 180.263v149.039c0 3.186-1.772 5.948-4.379 7.367h-.005c-2.613-1.419-4.385-4.181-4.385-7.367v-149.039c0-3.18 1.772-5.948 4.385-7.367h.005c2.607 1.419 4.379 4.187 4.379 7.367z" fill="#f9eaf9"/><path d="m41.443 180.263v149.039c0 3.186-1.772 5.948-4.385 7.367-2.613-1.419-4.385-4.181-4.385-7.367v-149.039c0-3.18 1.772-5.948 4.385-7.367 2.613 1.419 4.385 4.187 4.385 7.367z" fill="#c2aacf"/><path d="m65.385 171.883h14.023v128.898h-14.023z" fill="#decee5"/><g fill="#fff"><path d="m111.032 176.135c-1.504 2.73-4.412 4.583-7.747 4.583h-61.778c-2.436 0-4.647-.99-6.248-2.586-.589-.589-1.092-1.258-1.494-1.992.766-1.371 1.911-2.495 3.293-3.244 1.189-.648 2.548-1.012 3.994-1.012h62.688c1.445 0 2.805.364 3.994 1.012h.005c1.376.75 2.522 1.874 3.293 3.239z"/><path d="m107.734 283.338c-2.422 0-4.385-1.963-4.385-4.385v-77.733c0-2.422 1.963-4.385 4.385-4.385s4.385 1.963 4.385 4.385v77.733c-.001 2.422-1.964 4.385-4.385 4.385z"/></g></g><g><g><g><path d="m65.385 190.753v13.598c0 .029 0 .065-.007.094-.044 2.812-2.334 5.074-5.161 5.074h-13.597c-2.856 0-5.175-2.312-5.175-5.168v-13.598c0-2.827 2.269-5.124 5.081-5.168.029-.007.065-.007.094-.007h13.597c2.856 0 5.168 2.32 5.168 5.175z" fill="#c2aacf"/><path d="m61.607 192.898v9.306c0 .02 0 .045-.005.064-.03 1.925-1.597 3.472-3.532 3.472h-9.306c-1.954 0-3.542-1.582-3.542-3.537v-9.306c0-1.935 1.553-3.507 3.477-3.537.02-.005.045-.005.064-.005h9.306c1.956.002 3.538 1.589 3.538 3.543z" fill="#6052a3"/><path d="m61.607 192.898v9.306c0 .02 0 .045-.005.064-.02.005-.045.005-.064.005h-4.494c-4.613 0-8.348-3.74-8.348-8.348v-4.499c0-.02 0-.045.005-.064.02-.005.045-.005.064-.005h9.306c1.954 0 3.536 1.587 3.536 3.541z" fill="#57409b"/><path d="m57.3 200.675c-1.187 0-2.149-.962-2.149-2.149v-5.309c0-1.187.962-2.149 2.149-2.149s2.149.962 2.149 2.149v5.309c0 1.187-.962 2.149-2.149 2.149z" fill="#9175a7"/></g><g><path d="m103.349 190.753v13.598c0 .029 0 .065-.007.094-.044 2.812-2.334 5.074-5.161 5.074h-13.598c-2.856 0-5.175-2.312-5.175-5.168v-13.598c0-2.827 2.269-5.124 5.081-5.168.029-.007.065-.007.094-.007h13.597c2.857 0 5.169 2.32 5.169 5.175z" fill="#c2aacf"/><path d="m99.57 192.898v9.306c0 .02 0 .045-.005.064-.03 1.925-1.597 3.472-3.532 3.472h-9.306c-1.954 0-3.542-1.582-3.542-3.537v-9.306c0-1.935 1.553-3.507 3.477-3.537.02-.005.045-.005.064-.005h9.306c1.956.002 3.538 1.589 3.538 3.543z" fill="#6052a3"/><path d="m99.57 192.898v9.306c0 .02 0 .045-.005.064-.02.005-.045.005-.064.005h-4.494c-4.613 0-8.348-3.74-8.348-8.348v-4.499c0-.02 0-.045.005-.064.02-.005.045-.005.064-.005h9.306c1.954 0 3.536 1.587 3.536 3.541z" fill="#57409b"/><path d="m95.263 200.675c-1.187 0-2.149-.962-2.149-2.149v-5.309c0-1.187.962-2.149 2.149-2.149s2.149.962 2.149 2.149v5.309c0 1.187-.962 2.149-2.149 2.149z" fill="#9175a7"/></g></g><g><g><path d="m65.385 219.554v13.597c0 .029 0 .065-.007.094-.044 2.812-2.334 5.074-5.161 5.074h-13.597c-2.856 0-5.175-2.312-5.175-5.168v-13.597c0-2.827 2.269-5.124 5.081-5.168.029-.007.065-.007.094-.007h13.597c2.856 0 5.168 2.319 5.168 5.175z" fill="#c2aacf"/><path d="m61.607 221.699v9.306c0 .02 0 .045-.005.064-.03 1.925-1.597 3.472-3.532 3.472h-9.306c-1.954 0-3.542-1.582-3.542-3.537v-9.306c0-1.935 1.553-3.507 3.477-3.537.02-.005.045-.005.064-.005h9.306c1.956.001 3.538 1.589 3.538 3.543z" fill="#6052a3"/><path d="m61.607 221.699v9.306c0 .02 0 .045-.005.064-.02.005-.045.005-.064.005h-4.494c-4.613 0-8.348-3.74-8.348-8.348v-4.499c0-.02 0-.045.005-.064.02-.005.045-.005.064-.005h9.306c1.954-.001 3.536 1.587 3.536 3.541z" fill="#57409b"/><path d="m57.3 229.476c-1.187 0-2.149-.962-2.149-2.149v-5.309c0-1.187.962-2.149 2.149-2.149s2.149.962 2.149 2.149v5.309c0 1.187-.962 2.149-2.149 2.149z" fill="#9175a7"/></g><g><path d="m103.349 219.554v13.597c0 .029 0 .065-.007.094-.044 2.812-2.334 5.074-5.161 5.074h-13.598c-2.856 0-5.175-2.312-5.175-5.168v-13.597c0-2.827 2.269-5.124 5.081-5.168.029-.007.065-.007.094-.007h13.597c2.857 0 5.169 2.319 5.169 5.175z" fill="#c2aacf"/><path d="m99.57 221.699v9.306c0 .02 0 .045-.005.064-.03 1.925-1.597 3.472-3.532 3.472h-9.306c-1.954 0-3.542-1.582-3.542-3.537v-9.306c0-1.935 1.553-3.507 3.477-3.537.02-.005.045-.005.064-.005h9.306c1.956.001 3.538 1.589 3.538 3.543z" fill="#6052a3"/><path d="m99.57 221.699v9.306c0 .02 0 .045-.005.064-.02.005-.045.005-.064.005h-4.494c-4.613 0-8.348-3.74-8.348-8.348v-4.499c0-.02 0-.045.005-.064.02-.005.045-.005.064-.005h9.306c1.954-.001 3.536 1.587 3.536 3.541z" fill="#57409b"/><path d="m95.263 229.476c-1.187 0-2.149-.962-2.149-2.149v-5.309c0-1.187.962-2.149 2.149-2.149s2.149.962 2.149 2.149v5.309c0 1.187-.962 2.149-2.149 2.149z" fill="#9175a7"/></g></g><g><g><path d="m65.385 248.355v13.598c0 .029 0 .065-.007.094-.044 2.812-2.334 5.074-5.161 5.074h-13.597c-2.856 0-5.175-2.312-5.175-5.168v-13.598c0-2.827 2.269-5.124 5.081-5.168.029-.007.065-.007.094-.007h13.597c2.856 0 5.168 2.319 5.168 5.175z" fill="#c2aacf"/><path d="m61.607 250.5v9.306c0 .02 0 .045-.005.064-.03 1.925-1.597 3.472-3.532 3.472h-9.306c-1.954 0-3.542-1.582-3.542-3.537v-9.305c0-1.935 1.553-3.507 3.477-3.537.02-.005.045-.005.064-.005h9.306c1.956 0 3.538 1.588 3.538 3.542z" fill="#6052a3"/><path d="m61.607 250.5v9.306c0 .02 0 .045-.005.064-.02.005-.045.005-.064.005h-4.494c-4.613 0-8.348-3.74-8.348-8.348v-4.499c0-.02 0-.045.005-.064.02-.005.045-.005.064-.005h9.306c1.954-.001 3.536 1.587 3.536 3.541z" fill="#57409b"/><path d="m57.3 258.277c-1.187 0-2.149-.962-2.149-2.149v-5.309c0-1.187.962-2.149 2.149-2.149s2.149.962 2.149 2.149v5.309c0 1.187-.962 2.149-2.149 2.149z" fill="#9175a7"/></g><g><path d="m103.349 248.355v13.598c0 .029 0 .065-.007.094-.044 2.812-2.334 5.074-5.161 5.074h-13.598c-2.856 0-5.175-2.312-5.175-5.168v-13.598c0-2.827 2.269-5.124 5.081-5.168.029-.007.065-.007.094-.007h13.597c2.857 0 5.169 2.319 5.169 5.175z" fill="#c2aacf"/><path d="m99.57 250.5v9.306c0 .02 0 .045-.005.064-.03 1.925-1.597 3.472-3.532 3.472h-9.306c-1.954 0-3.542-1.582-3.542-3.537v-9.305c0-1.935 1.553-3.507 3.477-3.537.02-.005.045-.005.064-.005h9.306c1.956 0 3.538 1.588 3.538 3.542z" fill="#6052a3"/><path d="m99.57 250.5v9.306c0 .02 0 .045-.005.064-.02.005-.045.005-.064.005h-4.494c-4.613 0-8.348-3.74-8.348-8.348v-4.499c0-.02 0-.045.005-.064.02-.005.045-.005.064-.005h9.306c1.954-.001 3.536 1.587 3.536 3.541z" fill="#57409b"/><path d="m95.263 258.277c-1.187 0-2.149-.962-2.149-2.149v-5.309c0-1.187.962-2.149 2.149-2.149s2.149.962 2.149 2.149v5.309c0 1.187-.962 2.149-2.149 2.149z" fill="#9175a7"/></g></g><g><g><path d="m65.385 277.156v13.597c0 .029 0 .065-.007.094-.044 2.812-2.334 5.074-5.161 5.074h-13.597c-2.856 0-5.175-2.312-5.175-5.168v-13.597c0-2.827 2.269-5.124 5.081-5.168.029-.007.065-.007.094-.007h13.597c2.856 0 5.168 2.319 5.168 5.175z" fill="#c2aacf"/><path d="m61.607 279.301v9.306c0 .02 0 .045-.005.065-.03 1.925-1.597 3.472-3.532 3.472h-9.306c-1.954 0-3.542-1.582-3.542-3.537v-9.306c0-1.935 1.553-3.507 3.477-3.537.02-.005.045-.005.064-.005h9.306c1.956 0 3.538 1.587 3.538 3.542z" fill="#6052a3"/><path d="m61.607 279.301v9.306c0 .02 0 .045-.005.065-.02.005-.045.005-.064.005h-4.494c-4.613 0-8.348-3.74-8.348-8.348v-4.499c0-.02 0-.045.005-.064.02-.005.045-.005.064-.005h9.306c1.954-.002 3.536 1.585 3.536 3.54z" fill="#57409b"/><path d="m57.3 287.078c-1.187 0-2.149-.962-2.149-2.149v-5.309c0-1.187.962-2.149 2.149-2.149s2.149.962 2.149 2.149v5.309c0 1.187-.962 2.149-2.149 2.149z" fill="#9175a7"/></g><g><path d="m103.349 277.156v13.597c0 .029 0 .065-.007.094-.044 2.812-2.334 5.074-5.161 5.074h-13.598c-2.856 0-5.175-2.312-5.175-5.168v-13.597c0-2.827 2.269-5.124 5.081-5.168.029-.007.065-.007.094-.007h13.597c2.857 0 5.169 2.319 5.169 5.175z" fill="#c2aacf"/><path d="m99.57 279.301v9.306c0 .02 0 .045-.005.065-.03 1.925-1.597 3.472-3.532 3.472h-9.306c-1.954 0-3.542-1.582-3.542-3.537v-9.306c0-1.935 1.553-3.507 3.477-3.537.02-.005.045-.005.064-.005h9.306c1.956 0 3.538 1.587 3.538 3.542z" fill="#6052a3"/><path d="m99.57 279.301v9.306c0 .02 0 .045-.005.065-.02.005-.045.005-.064.005h-4.494c-4.613 0-8.348-3.74-8.348-8.348v-4.499c0-.02 0-.045.005-.064.02-.005.045-.005.064-.005h9.306c1.954-.002 3.536 1.585 3.536 3.54z" fill="#57409b"/><path d="m95.263 287.078c-1.187 0-2.149-.962-2.149-2.149v-5.309c0-1.187.962-2.149 2.149-2.149s2.149.962 2.149 2.149v5.309c0 1.187-.962 2.149-2.149 2.149z" fill="#9175a7"/></g></g></g><g><g><path d="m94.871 335.244h-44.951c-1.345 0-2.436 1.091-2.436 2.436s1.091 2.436 2.436 2.436h44.951c1.345 0 2.436-1.091 2.436-2.436s-1.091-2.436-2.436-2.436z" fill="#f9eaf9"/><path d="m86.81 330.372h-28.827c-1.345 0-2.436 1.091-2.436 2.436s1.091 2.436 2.436 2.436h28.827c1.345 0 2.436-1.091 2.436-2.436s-1.09-2.436-2.436-2.436z" fill="#fff"/></g><g><path d="m61.607 304.491h21.579v25.881h-21.579z" fill="#c2aacf"/><path d="m65.385 304.491h14.023v25.881h-14.023z" fill="#6052a3"/><path d="m71.594 304.491h1.605v25.881h-1.605z" fill="#57409b"/></g><g><g><g><path d="m91.116 304.492h3.753v30.752h-3.753z" fill="#9175a7"/><path d="m94.869 304.492v28.868c-1.344-.075-2.404-1.183-2.404-2.548v-26.319h2.404z" fill="#a583bb"/><path d="m93.667 327.411c-.664 0-1.202-.538-1.202-1.202v-11.26c0-.664.538-1.202 1.202-1.202s1.202.538 1.202 1.202v11.26c0 .664-.539 1.202-1.202 1.202z" fill="#c2aacf"/></g><g><path d="m49.92 304.492h3.753v30.752h-3.753z" fill="#9175a7"/><path d="m53.673 304.492v28.868c-1.344-.075-2.404-1.183-2.404-2.548v-26.319h2.404z" fill="#a583bb"/><path d="m52.471 327.411c-.664 0-1.202-.538-1.202-1.202v-11.26c0-.664.538-1.202 1.202-1.202s1.202.538 1.202 1.202v11.26c0 .664-.539 1.202-1.202 1.202z" fill="#c2aacf"/></g></g><g><path d="m97.155 303.545v4.792c0 1.649-2.115 2.334-3.078 1.001-.782-1.081-1.553-2.168-3.116-2.168-3.095 0-3.095 4.283-6.189 4.283s-3.094-4.283-6.189-4.283c-3.094 0-3.094 4.283-6.189 4.283s-3.095-4.283-6.189-4.283c-3.095 0-3.095 4.283-6.189 4.283s-3.094-4.283-6.189-4.283c-1.558 0-2.334 1.087-3.111 2.163-.969 1.338-3.078.648-3.078-1.001v-4.786c0-1.526 1.237-2.763 2.763-2.763h43.992c1.525-.001 2.762 1.236 2.762 2.762z" fill="#c0405c"/><path d="m97.155 303.545v2.538c0 1.649-2.115 2.34-3.078 1.001-.782-1.076-1.553-2.168-3.116-2.168-3.095 0-3.095 4.283-6.189 4.283s-3.094-4.283-6.189-4.283c-3.094 0-3.094 4.283-6.189 4.283s-3.095-4.283-6.189-4.283c-3.095 0-3.095 4.283-6.189 4.283s-3.094-4.283-6.189-4.283c-1.558 0-2.334 1.087-3.111 2.163-.969 1.338-3.078.648-3.078-1.001v-2.532c0-1.526 1.237-2.763 2.763-2.763h43.992c1.525-.001 2.762 1.236 2.762 2.762z" fill="#e9465e"/><path d="m94.013 300.782h-43.232c-.603 0-1.092.489-1.092 1.092s.489 1.092 1.092 1.092h43.232c.603 0 1.092-.489 1.092-1.092s-.489-1.092-1.092-1.092z" fill="#ee6781"/></g></g></g></g></g></g></g></g></svg>