<svg id="Layer_1" height="512" viewBox="0 0 512 512" width="512" xmlns="http://www.w3.org/2000/svg" data-name="Layer 1"><path d="m124.64 93.66a40.116 40.116 0 0 1 2.97 15.33c0 17.03-10.17 31.09-23.33 33.2l-.26-.06a163.275 163.275 0 0 1 20.62-48.47z" fill="#adf8d1"/><path d="m299.59 74.55c14.8 0 26.78 14.98 26.78 33.47s-11.98 33.48-26.78 33.48c-10.97 0-21.52-8.26-25.65-20.09h-10.05v80.62h-80.34v-10.06c11.82-4.12 20.08-14.68 20.08-25.66 0-14.79-14.98-26.78-33.47-26.78s-33.47 11.99-33.47 26.78c0 10.98 8.26 21.54 20.08 25.66v10.06h-55.9l-.24.03a165.427 165.427 0 0 1 3.39-59.93l.26.06c13.16-2.11 23.33-16.17 23.33-33.2a40.116 40.116 0 0 0 -2.97-15.33 164.483 164.483 0 0 1 139.25-76.67v77.64h10.05c4.13-11.82 14.68-20.08 25.65-20.08z" fill="#ff5576"/><path d="m428.31 176.93a165.364 165.364 0 0 1 -1.25 25.1h-57.16v-10.06c11.82-4.12 20.08-14.68 20.08-25.66 0-14.79-14.98-26.78-33.47-26.78s-33.47 11.99-33.47 26.78c0 10.98 8.26 21.54 20.08 25.66v10.06h-79.23v-80.62h10.05c4.13 11.83 14.68 20.09 25.65 20.09 14.8 0 26.78-14.98 26.78-33.48s-11.98-33.47-26.78-33.47c-10.97 0-21.52 8.26-25.65 20.08h-10.05v-77.64c.5 0 .99.01 1.49.01 88.29.81 160.65 71.8 162.93 159.93z" fill="#adf8d1"/><path d="m348.53 339.3a115.2 115.2 0 0 0 -10.65 48.31v.12h-.98v-.53c-7.85-5.19-12.9-13.52-12.9-22.1 0-12.31 10.38-22.68 24.52-25.81z" fill="#71c2ff"/><path d="m204.6 365.1c0 8.74-5.24 17.22-13.34 22.38v.25h-1.45a117.35 117.35 0 0 0 -9.65-46.67c-.28-.65-.57-1.29-.86-1.93 14.54 2.91 25.3 13.43 25.3 25.97z" fill="#fcca3d"/><path d="m263.88 308.13v79.6h-72.62v-.25c8.1-5.16 13.34-13.64 13.34-22.38 0-12.54-10.76-23.06-25.3-25.97a114.037 114.037 0 0 0 -26.72-36.87 163.761 163.761 0 0 1 -51.95-100.2l.24-.03h55.9v-10.06c-11.82-4.12-20.08-14.68-20.08-25.66 0-14.79 14.98-26.78 33.47-26.78s33.47 11.99 33.47 26.78c0 10.98-8.26 21.54-20.08 25.66v10.06h80.33v79.32h-.78c-4.11-11.83-14.67-20.09-25.65-20.09-14.79 0-26.77 15-26.77 33.48s11.98 33.47 26.77 33.47c10.98 0 21.54-8.25 25.65-20.08z" fill="#71c2ff"/><path d="m369.9 202.03h57.16a163.771 163.771 0 0 1 -51.09 99.43 120.474 120.474 0 0 0 -27.44 37.84l-.01-.01c-14.14 3.13-24.52 13.5-24.52 25.81 0 8.58 5.05 16.91 12.9 22.1v.53h-73.02v-79.6h-.78c-4.11 11.83-14.67 20.08-25.65 20.08-14.79 0-26.77-14.98-26.77-33.47s11.98-33.48 26.77-33.48c10.98 0 21.54 8.26 25.65 20.09h.78v-79.32h79.24v-10.06c-11.82-4.12-20.08-14.68-20.08-25.66 0-14.79 14.98-26.78 33.47-26.78s33.47 11.99 33.47 26.78c0 10.98-8.26 21.54-20.08 25.66z" fill="#fcca3d"/><path d="m336.9 388h-145.64-1.26v35h.42 147.58v-35z" fill="#56568c"/><path d="m337.88 422.73v36.14h-147.46-.61v-36.14h.61z" fill="#4a4a75"/><path d="m337.88 458.87v31.06a5.079 5.079 0 0 1 -5.08 5.07h-137.91a5.072 5.072 0 0 1 -5.08-5.07v-31.06z" fill="#56568c"/><path d="m203.63 166.31c0-10.474-7.518-19.538-18.47-23.94-10.952 4.4-18.47 13.466-18.47 23.94s7.521 20.547 18.47 25.033c10.949-4.486 18.47-14.561 18.47-25.033z" fill="none"/><path d="m134.02 142.13.26.06c13.16-2.11 23.33-16.17 23.33-33.2a40.116 40.116 0 0 0 -2.97-15.33 164.657 164.657 0 0 1 109.25-73.931v-2.739a164.483 164.483 0 0 0 -139.25 76.67 40.116 40.116 0 0 1 2.97 15.33c0 17.03-10.17 31.09-23.33 33.2l-.26-.06a165.427 165.427 0 0 0 -3.39 59.93l.24-.03h29.757a165.392 165.392 0 0 1 3.393-59.9z" fill="#dd476b"/><path d="m233.63 166.31c0-14.79-14.98-26.78-33.47-26.78a40.272 40.272 0 0 0 -15 2.84c10.952 4.4 18.47 13.466 18.47 23.94s-7.521 20.547-18.47 25.033c.532.218 1.063.436 1.61.627v10.06h26.78v-10.06c11.82-4.12 20.08-14.68 20.08-25.66z" fill="#dd476b"/><path d="m183.55 202.03h3.22v-10.06c-.547-.191-1.078-.409-1.61-.627-.532.218-1.063.436-1.61.627z" fill="none"/><path d="m234.6 365.1c0-12.54-10.76-23.06-25.3-25.97a114.037 114.037 0 0 0 -26.72-36.87 163.761 163.761 0 0 1 -51.95-100.2l.24-.03h-30l-.24.03a163.761 163.761 0 0 0 51.95 100.2 114.037 114.037 0 0 1 26.72 36.87c14.54 2.91 25.3 13.43 25.3 25.97 0 8.74-5.24 17.22-13.34 22.38v.25h30v-.25c8.1-5.16 13.34-13.64 13.34-22.38z" fill="#5faddd"/><path d="m183.55 191.97c.547-.191 1.078-.409 1.61-.627-10.949-4.486-18.47-14.561-18.47-25.033s7.518-19.538 18.47-23.94a40.272 40.272 0 0 0 -15-2.84c-18.49 0-33.47 11.99-33.47 26.78 0 10.98 8.26 21.54 20.08 25.66v10.06h26.78z" fill="#5faddd"/><path d="m190.42 422.73h-.61v36.14h.61 29.39v-36.14z" fill="#39395b"/><path d="m191.26 388h-1.26v35h.42 29.58v-35z" fill="#4a4a75"/><path d="m219.81 489.93v-31.06h-30v31.06a5.072 5.072 0 0 0 5.08 5.07h30a5.072 5.072 0 0 1 -5.08-5.07z" fill="#4a4a75"/><g fill="#284268"><path d="m94.564 261.213c-1.917-4.05-3.711-8.221-5.333-12.4a6 6 0 0 0 -11.187 4.343c1.726 4.444 3.635 8.882 5.675 13.19a6 6 0 1 0 10.845-5.135z"/><path d="m137.187 319.062a186.682 186.682 0 0 1 -31.57-37.768 6 6 0 1 0 -10.139 6.417 198.7 198.7 0 0 0 33.6 40.2 80.088 80.088 0 0 1 21.242 32.305 6 6 0 0 0 11.316-4 92.147 92.147 0 0 0 -24.449-37.154z"/><path d="m383.3 59.937a170.294 170.294 0 1 0 -234.677 246.75 110.137 110.137 0 0 1 35.377 81.044v102.2a10.922 10.922 0 0 0 10.887 11.069h137.913a11.19 11.19 0 0 0 11.2-11.067v-102.326c0-30.566 13.126-60.364 36.121-81.753a169.868 169.868 0 0 0 3.179-245.917zm39.008 117.216a158.255 158.255 0 0 1 -.651 18.847h-45.657v-.033c12-5.8 20.032-17.478 20.032-29.653 0-18.075-17.732-32.78-39.5-32.78s-39.545 14.705-39.545 32.78c0 12.175 8.009 23.852 20.009 29.653v.033h-66.996v-68.894c5.817 11.942 17.457 20.186 29.594 20.186 18.073 0 32.777-17.6 32.777-39.372s-14.7-39.24-32.777-39.24c-12.137 0-23.777 8.272-29.594 20.214v-65.756a158.707 158.707 0 0 1 152.309 154.015zm-270.135-108.19a157.523 157.523 0 0 1 105.827-45.835v71.506c0 3.313 2.575 6.366 5.888 6.366h10.054a6.171 6.171 0 0 0 5.666-4.207c3.3-9.457 11.517-16.153 19.986-16.153 11.456 0 20.777 12.28 20.777 27.43s-9.321 27.452-20.777 27.452c-8.469 0-16.688-6.823-19.986-16.28a6.206 6.206 0 0 0 -5.666-4.242h-10.054c-3.313 0-5.888 3.1-5.888 6.414v74.586h-68v-.033c12-5.8 19.857-17.478 19.857-29.653 0-18.075-17.817-32.78-39.582-32.78s-39.414 14.705-39.414 32.78c0 12.175 8.139 23.853 20.139 29.653v.033h-44.977c-.456-4.861-.7-9.756-.7-14.672a159.584 159.584 0 0 1 3.672-34.1c14.269-4.4 24.615-20.089 24.615-38.236a46.441 46.441 0 0 0 -2.31-14.592 159.76 159.76 0 0 1 20.873-25.437zm-38.6 61.719a155.952 155.952 0 0 1 7.956-19.252c-.524 7.762-3.505 14.67-7.959 19.252zm43.067 167.3a158.794 158.794 0 0 1 -49.023-89.982h49.158a6.175 6.175 0 0 0 6.225-5.975v-10.056a6.1 6.1 0 0 0 -4.136-5.665c-9.456-3.3-16.115-11.518-16.115-19.99 0-11.459 12.3-20.78 27.442-20.78s27.456 9.321 27.456 20.78c0 8.472-6.386 16.692-15.84 19.99a5.809 5.809 0 0 0 -3.807 5.665v10.056c0 3.314 2.238 5.975 5.551 5.975h74.449v55.264c-6-5.026-13.089-8-20.487-8-18.073 0-32.806 17.709-32.806 39.475s14.748 39.475 32.821 39.475c7.4 0 14.472-2.974 20.472-8v55.786h-52.728a30.738 30.738 0 0 0 5.326-16.9c0-14.37-11.073-26.859-27.265-31.187a119.858 119.858 0 0 0 -26.696-35.936zm33.128 51.884c5.487 3.843 8.833 9.312 8.833 15.241a18.754 18.754 0 0 1 -3.429 10.455 123.9 123.9 0 0 0 -5.407-25.701zm142.232 139.134h-136v-24h136zm0-72h-80a6 6 0 0 0 0 12h80v24h-136v-24h14a6 6 0 0 0 0-12h-14v-23h136zm.662-42.674a18.354 18.354 0 0 1 -2.662-9.226c0-5.477 2.926-10.6 7.757-14.4a122.088 122.088 0 0 0 -5.095 23.626zm39.224-77.126a126.43 126.43 0 0 0 -27.442 36.944c-15.703 4.537-26.444 16.935-26.444 30.956a30.553 30.553 0 0 0 5.268 16.9h-53.268v-73.873a6.213 6.213 0 0 0 -6.12-6.127h-.78a6.056 6.056 0 0 0 -5.668 4.1c-3.282 9.452-11.5 16.085-19.983 16.085-11.456 0-20.776-12.31-20.776-27.46s9.32-27.467 20.776-27.467c8.481 0 16.7 6.432 19.983 15.886a5.85 5.85 0 0 0 5.668 3.856h.776c3.314 0 6.12-2.339 6.12-5.652v-73.348h73.122a5.876 5.876 0 0 0 5.882-5.975v-10.056a5.945 5.945 0 0 0 -3.963-5.665c-9.455-3.3-16.028-11.518-16.028-19.99 0-11.459 12.339-20.78 27.486-20.78s27.478 9.321 27.478 20.78c0 8.472-6.549 16.691-16 19.99a5.952 5.952 0 0 0 -3.973 5.665v10.056a5.893 5.893 0 0 0 5.9 5.975h50.171a158.427 158.427 0 0 1 -48.185 89.2z"/></g></svg>