<svg id="Icons" enable-background="new 0 0 512 512" height="512" viewBox="0 0 512 512" width="512" xmlns="http://www.w3.org/2000/svg"><g><circle cx="256" cy="256" fill="#ea792e" r="256"/><g fill="#f39e22"><path d="m254.869 470.922c-.008 0-.015 0-.023 0-6.801-.03-13.67-.387-20.416-1.059-2.748-.273-4.753-2.724-4.48-5.471.273-2.748 2.716-4.76 5.471-4.48 6.433.641 12.983.98 19.47 1.01 2.761.013 4.99 2.261 4.978 5.022-.013 2.754-2.249 4.978-5 4.978z"/><path d="m294.604 467.366c-2.362 0-4.463-1.682-4.91-4.088-.504-2.715 1.288-5.324 4.003-5.829 6.374-1.184 12.757-2.688 18.972-4.472 2.656-.762 5.424.773 6.185 3.428s-.773 5.424-3.427 6.186c-6.521 1.87-13.218 3.448-19.904 4.69-.309.058-.616.085-.919.085z"/><path d="m195.787 462.16c-.475 0-.958-.067-1.436-.211-6.505-1.948-12.995-4.234-19.289-6.797-2.558-1.041-3.787-3.958-2.746-6.516 1.041-2.557 3.958-3.785 6.516-2.746 6 2.442 12.186 4.622 18.387 6.479 2.646.792 4.148 3.579 3.356 6.225-.649 2.167-2.637 3.566-4.788 3.566z"/><path d="m351.176 448.165c-1.821 0-3.577-.998-4.459-2.732-1.253-2.46-.274-5.471 2.187-6.725 5.763-2.935 11.459-6.187 16.931-9.667 2.331-1.483 5.421-.795 6.902 1.535 1.482 2.33.795 5.421-1.535 6.902-5.739 3.65-11.715 7.062-17.76 10.142-.728.37-1.502.545-2.266.545z"/><path d="m141.588 437.024c-.935 0-1.881-.263-2.723-.811-5.689-3.705-11.271-7.728-16.588-11.957-2.161-1.719-2.52-4.864-.8-7.025s4.863-2.521 7.026-.801c5.071 4.033 10.393 7.87 15.818 11.402 2.314 1.507 2.969 4.604 1.462 6.919-.958 1.473-2.56 2.273-4.195 2.273z"/><path d="m400.005 413.744c-1.329 0-2.654-.526-3.638-1.568-1.895-2.009-1.803-5.173.205-7.068 4.709-4.443 9.263-9.168 13.535-14.04 1.82-2.077 4.979-2.284 7.056-.464 2.076 1.82 2.284 4.979.463 7.056-4.479 5.109-9.254 10.062-14.191 14.722-.965.91-2.199 1.362-3.43 1.362z"/><path d="m96.649 397.661c-1.407 0-2.806-.591-3.795-1.742-4.426-5.152-8.657-10.578-12.574-16.127-1.592-2.257-1.054-5.376 1.202-6.969 2.255-1.592 5.376-1.056 6.968 1.202 3.735 5.291 7.769 10.465 11.989 15.378 1.8 2.095 1.561 5.251-.534 7.051-.944.811-2.102 1.207-3.256 1.207z"/><path d="m437.212 367.007c-.859 0-1.729-.222-2.524-.688-2.382-1.396-3.181-4.46-1.785-6.842 3.277-5.59 6.321-11.4 9.049-17.271 1.163-2.503 4.137-3.593 6.641-2.427 2.504 1.163 3.591 4.137 2.427 6.642-2.86 6.156-6.054 12.25-9.49 18.112-.93 1.589-2.601 2.474-4.318 2.474z"/><path d="m64.567 347.268c-1.906 0-3.726-1.095-4.561-2.945-2.794-6.192-5.319-12.594-7.506-19.025-.889-2.614.51-5.454 3.125-6.343 2.613-.89 5.454.51 6.343 3.124 2.084 6.13 4.491 12.23 7.153 18.133 1.136 2.517.016 5.478-2.501 6.613-.667.3-1.366.443-2.053.443z"/><path d="m48.053 289.862c-2.459 0-4.603-1.814-4.947-4.319-.913-6.631-1.525-13.403-1.82-20.131l-.01-.243c-.109-2.76 2.04-5.085 4.799-5.193 2.771-.123 5.084 2.04 5.193 4.799l.009.219c.281 6.399.865 12.861 1.735 19.187.376 2.735-1.536 5.259-4.271 5.635-.231.031-.461.046-.688.046z"/><path d="m465.734 252.25c-2.663 0-4.876-2.1-4.992-4.785l-.02-.461c-.283-6.47-.877-13.004-1.765-19.397-.379-2.735 1.53-5.261 4.266-5.64 2.73-.394 5.26 1.529 5.64 4.265.93 6.704 1.553 13.553 1.851 20.356l.019.447c.119 2.759-2.021 5.092-4.781 5.21-.073.004-.146.005-.218.005z"/><path d="m48.331 230.123c-.243 0-.489-.018-.736-.055-2.732-.403-4.62-2.944-4.216-5.677.992-6.722 2.321-13.473 3.95-20.063.662-2.683 3.371-4.317 6.054-3.654 2.681.662 4.317 3.372 3.654 6.053-1.553 6.283-2.82 12.718-3.766 19.126-.367 2.483-2.502 4.27-4.94 4.27z"/><path d="m454.694 193.103c-2.08 0-4.022-1.308-4.731-3.386-2.091-6.128-4.504-12.226-7.173-18.126-1.138-2.516-.021-5.479 2.495-6.616 2.517-1.138 5.479-.021 6.616 2.495 2.8 6.19 5.332 12.588 7.525 19.017.892 2.614-.504 5.455-3.117 6.348-.535.182-1.08.268-1.615.268z"/><path d="m65.417 172.889c-.704 0-1.418-.149-2.099-.464-2.505-1.161-3.596-4.134-2.435-6.639 2.854-6.159 6.04-12.257 9.472-18.125 1.394-2.383 4.455-3.186 6.84-1.792 2.384 1.395 3.186 4.457 1.792 6.841-3.272 5.595-6.31 11.408-9.031 17.279-.845 1.825-2.652 2.9-4.539 2.9z"/><path d="m427.51 139.91c-1.568 0-3.111-.734-4.086-2.112-3.738-5.283-7.778-10.453-12.006-15.366-1.801-2.094-1.564-5.25.529-7.052 2.093-1.801 5.251-1.562 7.051.528 4.433 5.152 8.669 10.573 12.589 16.114 1.595 2.254 1.061 5.374-1.193 6.97-.877.62-1.886.918-2.884.918z"/><path d="m97.985 122.804c-1.168 0-2.342-.407-3.29-1.236-2.079-1.818-2.29-4.978-.471-7.056 4.472-5.112 9.241-10.07 14.175-14.736 2.006-1.897 5.17-1.81 7.068.197 1.897 2.007 1.809 5.171-.197 7.068-4.706 4.45-9.255 9.179-13.52 14.055-.988 1.13-2.373 1.708-3.765 1.708z"/><path d="m386.433 96.52c-1.089 0-2.186-.354-3.105-1.084-5.079-4.03-10.405-7.861-15.831-11.386-2.316-1.505-2.974-4.602-1.469-6.917 1.504-2.315 4.6-2.973 6.917-1.47 5.69 3.696 11.275 7.714 16.601 11.94 2.163 1.716 2.525 4.861.808 7.024-.988 1.244-2.448 1.893-3.921 1.893z"/><path d="m143.3 83.859c-1.652 0-3.268-.817-4.221-2.313-1.484-2.329-.8-5.42 1.529-6.904 5.735-3.655 11.707-7.073 17.749-10.158 2.459-1.256 5.471-.279 6.727 2.18s.28 5.471-2.179 6.727c-5.761 2.941-11.454 6.2-16.922 9.686-.833.528-1.763.782-2.683.782z"/><path d="m334.846 66.396c-.626 0-1.263-.118-1.879-.368-6.002-2.437-12.19-4.609-18.392-6.458-2.646-.789-4.152-3.574-3.363-6.221.789-2.646 3.572-4.15 6.22-3.363 6.507 1.939 13 4.22 19.297 6.776 2.559 1.039 3.791 3.955 2.752 6.514-.789 1.942-2.66 3.12-4.635 3.12z"/><path d="m197.736 59.277c-2.172 0-4.171-1.426-4.802-3.617-.764-2.653.768-5.425 3.421-6.188 6.521-1.878 13.216-3.463 19.899-4.712 2.715-.504 5.326 1.282 5.833 3.997.507 2.714-1.282 5.326-3.997 5.833-6.371 1.19-12.753 2.701-18.968 4.491-.462.133-.928.196-1.386.196z"/><path d="m276.859 52.092c-.164 0-.33-.008-.496-.024-6.433-.634-12.984-.967-19.471-.989-2.761-.01-4.992-2.256-4.982-5.018.01-2.755 2.247-4.982 5-4.982h.018c6.801.023 13.67.373 20.417 1.038 2.748.271 4.756 2.718 4.486 5.466-.256 2.581-2.431 4.509-4.972 4.509z"/></g><g><g><g><g><path d="m329.38 321.284c27.202 37.165 47.574 53.783 66.527 53.783 32.541-.704 40.965-40.428 49.112-75.082l-10.139-2.326-19.667-4.514c-3.281 14.264-6.84 29.074-11.242 39.584-1.324 3.155-2.539 5.471-3.591 7.167-2.044 3.297-6.343 4.373-9.69 2.414-6.154-3.602-17.719-13.259-36.619-39.091l-13.671 10z" fill="#f39e22"/><path d="m340.4 313.22c21.938 33.875 38.685 49.103 54.302 49.103 25.247-.64 33.634-32.93 40.178-64.664l-19.667-4.514c-3.281 14.264-6.84 29.074-11.242 39.584-1.324 3.155-2.539 5.471-3.591 7.167-2.044 3.297-6.343 4.373-9.69 2.414-6.154-3.602-17.719-13.259-36.619-39.091z" fill="#f9c744"/></g><g><path d="m411.672 296.241c0 3.902 1.557 7.646 4.31 10.399l13.726 13.726c2.919 2.929 6.719 4.458 10.556 4.588.176.009.361.009.538.009 4.013 0 8.036-1.529 11.103-4.597l20.381-20.381c1.752-1.761 1.752-4.606 0-6.358l-1.687-1.687c-1.761-1.752-4.606-1.752-6.358 0l9.25-9.25c1.752-1.752 1.752-4.597 0-6.358l-1.687-1.687c-1.761-1.752-4.606-1.752-6.358 0l5.014-5.014c1.752-1.752 1.752-4.606 0-6.358l-1.687-1.687c-1.752-1.752-4.597-1.752-6.358 0l-4.532 4.532c1.752-1.752 1.752-4.597 0-6.358l-1.687-1.687c-1.752-1.752-4.597-1.752-6.358 0l-20.937 20.937v-9.583c0-3.763-3.04-6.803-6.803-6.803h-3.605c-3.763 0-6.803 3.04-6.803 6.803v26.804z" fill="#9b5b42"/><g><g><path d="m440.286 280.347.342-.342 15.569-15.569c1.756-1.755 1.756-4.601 0-6.357l1.686 1.687c1.755 1.755 1.756 4.602 0 6.357l-17.597 17.598c0-.002-.931-2.443 0-3.374z" fill="#8e4e3f"/></g><g><path d="m455.89 296.917.342-.342 15.569-15.569c1.755-1.755 1.755-4.601 0-6.357l1.686 1.687c1.755 1.755 1.755 4.602 0 6.357l-17.597 17.597c-.001 0-.932-2.442 0-3.373z" fill="#8e4e3f"/></g><g><path d="m450.083 286.637.342-.342 18.35-18.35c1.755-1.755 1.755-4.602 0-6.357l1.686 1.687c1.756 1.755 1.756 4.602 0 6.357l-20.378 20.378c0-.001-.931-2.442 0-3.373z" fill="#8e4e3f"/></g><g fill="#8e4e3f"><path d="m428.905 269.426v9.588l-3.638 3.638v-13.254c0-3.742-3.034-6.776-6.776-6.776h3.61c3.758 0 6.804 3.046 6.804 6.804z"/><path d="m429.738 320.366c2.842 2.851 6.519 4.365 10.252 4.564.044.002.087.008.13.01.058.003.116.012.174.014l.004-.014c4.194.144 8.433-1.376 11.635-4.578l20.378-20.378c1.755-1.755 1.755-4.602 0-6.357l-1.686-1.687c1.755 1.755 1.755 4.602 0 6.357l-18.35 18.35c-.028.03-.056.059-.085.089-3.297 3.429-9.635 4.743-14.241 3.034-2.518-.934-5.289-.911-7.676.32z"/></g></g></g></g><g><g><g><path d="m359.65 426.35v63.79c-12.854 5.702-26.242 10.366-39.92 13.86v-23.53c.001-3.765-3.047-6.801-6.81-6.8-3.75 0-6.79 3.05-6.79 6.8v26.62c-13.164 2.624-26.393 4.17-39.92 4.71v-85.45z" fill="#3e4e60"/><path d="m337.42 426.35v72.43c-5.81 1.95-11.71 3.69-17.69 5.22v-23.53c.001-3.765-3.047-6.801-6.81-6.8-3.75 0-6.79 3.05-6.79 6.8v26.62c-13.164 2.624-26.393 4.17-39.92 4.71v-85.45z" fill="#3f5d77"/><path d="m312.92 473.67c-3.75 0-6.79 3.05-6.79 6.8v26.62c-4.95.99-9.95 1.83-15 2.52v-14.15c0-12.03 9.76-21.79 21.79-21.79z" fill="#3e4e60"/></g></g><g><path d="m266.206 319.627v106.724h93.447v-106.724c0-19.202-15.562-34.774-34.775-34.774h-23.898c-19.212 0-34.774 15.572-34.774 34.774z" fill="#f39e22"/><path d="m266.206 319.627v106.724h71.193v-106.724c0-19.202-15.562-34.774-34.775-34.774h-1.644c-19.212 0-34.774 15.572-34.774 34.774z" fill="#f9c744"/></g><g><path d="m297.49 270.251v16.768c0 8.528 6.916 15.434 15.445 15.434 2.86 0 5.54-.779 7.834-2.135 4.547-2.679 7.6-7.632 7.6-13.299v-16.768z" fill="#9b5b42"/><path d="m328.369 270.251v16.768c0 5.668-3.053 10.62-7.6 13.299v-17.921c-5.369 2.241-11.271 3.48-17.462 3.48-1.975 0-3.917-.128-5.817-.363v-15.263z" fill="#8e4e3f"/></g><g><g><path d="m257.881 169.269v63.102c0 12.541 5.081 23.898 13.299 32.117 5.935 5.924 13.492 10.215 21.945 12.157 3.277.747 6.682 1.142 10.183 1.142 25.083 0 45.426-20.333 45.426-45.416v-63.102c0-13.748-11.154-24.891-24.901-24.891h-41.061c-2.412 0-4.739.341-6.948.993-10.365 2.999-17.943 12.563-17.943 23.898z" fill="#8e4e3f"/><path d="m257.881 169.269v63.102c0 12.541 5.081 23.898 13.299 32.117 5.935 5.924 13.492 10.215 21.945 12.157 20.194-4.622 35.244-22.692 35.244-44.274v-24.144c0-31.412-22.671-57.52-52.546-62.856-10.364 2.999-17.942 12.563-17.942 23.898z" fill="#9b5b42"/><g fill="#8e4e3f"><path d="m290.462 211.084h9.26c3.803 0 6.887 3.083 6.887 6.887 0 3.803-3.083 6.887-6.887 6.887h-9.26c-3.803 0-6.887-3.083-6.887-6.887s3.083-6.887 6.887-6.887z"/><path d="m291.688 144.377h11.617v71.382h-11.617z" transform="matrix(-1 0 0 -1 594.994 360.136)"/></g><g fill="#334353"><path d="m319.608 188.121c3.476 0 6.293 2.818 6.293 6.293v10.985c0 3.476-2.818 6.293-6.293 6.293-3.476 0-6.293-2.818-6.293-6.293v-10.985c-.001-3.475 2.817-6.293 6.293-6.293z"/><path d="m283.335 188.121c3.476 0 6.293 2.818 6.293 6.293v10.985c0 3.476-2.818 6.293-6.293 6.293-3.476 0-6.293-2.818-6.293-6.293v-10.985c-.001-3.475 2.817-6.293 6.293-6.293z"/></g><g><path d="m301.661 250.239c10.903 0 19.773-8.87 19.773-19.772 0-2.063-1.672-3.736-3.736-3.736-2.063 0-3.736 1.672-3.736 3.736 0 6.783-5.518 12.301-12.301 12.301-2.063 0-3.736 1.672-3.736 3.736 0 2.062 1.673 3.735 3.736 3.735z" fill="#723e33"/></g></g><g><path d="m251.584 173.784c0-15.589 6.324-29.707 16.538-39.922 7.287-7.286 16.565-12.594 26.94-15.041 4.171-.976 8.516-1.497 12.982-1.497 31.191 0 56.46 25.269 56.46 56.46l-.1 61.767c-.026 15.942-12.957 28.852-28.899 28.852 8.175-8.212 13.23-19.532 13.23-32.033v-52.303h-44.391c-10.684 0-19.345-8.661-19.345-19.345 0 10.684-8.661 19.345-19.345 19.345h-7.771v52.303c0 12.5 5.049 23.82 13.219 32.033-10.778 0-19.516-8.738-19.516-19.516v-71.103z" fill="#442a21"/><path d="m251.584 173.784c0-15.589 6.324-29.707 16.538-39.922 7.287-7.286 16.565-12.594 26.94-15.041 24.921 5.869 43.478 28.237 43.478 54.962v6.284h-34.197c-10.684 0-19.345-8.661-19.345-19.345 0 10.684-8.661 19.345-19.345 19.345h-7.771v52.303c0 12.5 5.049 23.82 13.219 32.033-10.778 0-19.516-8.738-19.516-19.516v-71.103z" fill="#543029"/></g><g><g><path d="m356.385 219.891h-7.656v-23.959h7.656c6.616 0 11.979 5.363 11.979 11.979.001 6.616-5.363 11.98-11.979 11.98z" fill="#8e4e3f"/><path d="m356.772 213.052h-8.043v-10.281h8.043c2.839 0 5.14 2.301 5.14 5.14s-2.301 5.141-5.14 5.141z" fill="#723e33"/></g><g><path d="m254.529 195.932h3.353v23.959h-3.353c-6.616 0-11.979-5.363-11.979-11.979 0-6.617 5.363-11.98 11.979-11.98z" fill="#8e4e3f"/><path d="m254.143 202.771h3.739v10.281h-3.739c-2.839 0-5.14-2.301-5.14-5.14-.001-2.84 2.301-5.141 5.14-5.141z" fill="#723e33"/></g></g></g></g><g><g><path d="m282.514 324.38 42.079 56.398c9.515 12.753 6.89 30.805-5.863 40.32l-14.437 10.771c-12.753 9.515-30.805 6.89-40.32-5.863l-42.079-56.398c-9.294-12.456-6.736-30.09 5.728-39.389l15.503-11.567c12.463-9.299 30.095-6.729 39.389 5.728z" fill="#c2aacf"/><path d="m282.514 324.38 42.079 56.398c9.515 12.753 6.89 30.805-5.863 40.32s-30.805 6.89-40.32-5.863l-42.079-56.398c-9.294-12.456-6.736-30.09 5.728-39.389l1.066-.796c12.463-9.299 30.095-6.729 39.389 5.728z" fill="#f9eaf9"/><g fill="#decee5"><path d="m284.448 348.485-35.872 26.764-6.354-8.516 35.872-26.764c2.352-1.755 5.68-1.271 7.435 1.081 1.754 2.352 1.27 5.68-1.081 7.435z"/><path d="m299.365 368.478-35.872 26.764-6.354-8.516 35.872-26.764c2.352-1.755 5.68-1.271 7.435 1.081 1.754 2.352 1.27 5.68-1.081 7.435z"/><path d="m314.282 388.471-35.872 26.764-6.354-8.516 35.872-26.764c2.352-1.755 5.68-1.271 7.435 1.081 1.754 2.352 1.27 5.681-1.081 7.435z"/></g></g><g><g><g><path d="m206.336 334.339 5.882-4.389-13.733-18.406-5.882 4.389c-5.083 3.792-6.129 10.987-2.337 16.07 3.793 5.082 10.987 6.128 16.07 2.336z" fill="#8e4e3f"/><path d="m202.119 329.307 6.179-4.61-5.893-7.898-6.179 4.61c-2.181 1.627-2.63 4.715-1.003 6.896 1.628 2.18 4.715 2.629 6.896 1.002z" fill="#723e33"/></g><g><path d="m245.517 276.454-2.576 1.922 13.733 18.406 2.576-1.922c5.083-3.792 6.129-10.987 2.337-16.07-3.793-5.082-10.988-6.128-16.07-2.336z" fill="#8e4e3f"/><path d="m249.733 281.486-2.873 2.143 5.893 7.898 2.873-2.143c2.181-1.627 2.63-4.715 1.003-6.896-1.627-2.18-4.714-2.629-6.896-1.002z" fill="#723e33"/></g></g><g><path d="m235.699 268.67 23.038 30.878c4.579 6.137 6.239 13.549 5.218 20.572-.741 5.065-2.873 9.924-6.3 13.961-1.331 1.562-2.853 2.998-4.566 4.277-12.274 9.158-29.653 6.635-38.81-5.639l-23.038-30.878c-5.019-6.727-3.63-16.252 3.098-21.271l20.093-14.991c1.18-.881 2.444-1.563 3.762-2.051 6.166-2.318 13.366-.405 17.505 5.142z" fill="#8e4e3f"/><path d="m235.699 268.67 23.038 30.878c4.579 6.137 6.239 13.549 5.218 20.572-.741 5.065-2.873 9.924-6.3 13.961-11.569 5.111-25.531 1.763-33.411-8.797l-8.815-11.814c-11.469-15.371-9.907-36.424 2.764-49.943 6.167-2.317 13.367-.404 17.506 5.143z" fill="#9b5b42"/><g fill="#8e4e3f"><path d="m235.022 301.027-4.532 3.381c-1.861 1.389-2.244 4.023-.856 5.884 1.389 1.861 4.023 2.244 5.884.856l4.532-3.381c1.861-1.389 2.244-4.023.856-5.884-1.388-1.862-4.023-2.245-5.884-.856z"/><path d="m221.745 290.413c-1.57 1.171-1.893 3.393-.722 4.963l9.421 12.627 5.685-4.241-9.421-12.627c-1.171-1.57-3.393-1.893-4.963-.722z"/></g><g fill="#334353"><path d="m212.87 297.035c-1.701 1.269-2.051 3.677-.782 5.377l4.011 5.375c1.269 1.701 3.676 2.051 5.377.782s2.051-3.677.782-5.377l-4.011-5.375c-1.269-1.701-3.676-2.051-5.377-.782z"/><path d="m230.62 283.792c-1.701 1.269-2.051 3.677-.782 5.377l4.011 5.375c1.269 1.701 3.677 2.051 5.377.782 1.701-1.269 2.051-3.677.782-5.377l-4.011-5.375c-1.269-1.701-3.676-2.051-5.377-.782z"/></g><g><path d="m243.837 324.276c-5.335 3.981-12.914 2.879-16.894-2.456-.753-1.01-.546-2.439.464-3.192s2.439-.546 3.192.464c2.476 3.319 7.191 4.005 10.51 1.528 1.01-.753 2.439-.546 3.192.464.754 1.009.546 2.438-.464 3.192z" fill="#723e33"/></g></g></g></g><g><g><path d="m229.07 401.447c-1.357-2.347-.553-5.35 1.796-6.704l10.146-5.851c2.282-1.327 5.142-.729 6.732 1.286.163.19.307.409.438.636l.939 1.626c1.444 2.517.585 5.724-1.921 7.17l-10.144 5.856c-2.345 1.354-5.344.551-6.699-1.793z" fill="#8e4e3f"/><path d="m245.101 397.852-9.331 5.387c-2.345 1.354-5.343.552-6.699-1.792-1.358-2.347-.554-5.35 1.795-6.705l10.145-5.851c2.282-1.327 5.142-.729 6.732 1.286 1.138 2.817.064 6.113-2.642 7.675z" fill="#9b5b42"/></g><g><path d="m218.919 393.011c-1.357-2.347-.553-5.35 1.796-6.704l12.763-7.362c2.282-1.327 5.142-.729 6.732 1.286.163.19.307.409.438.636l.939 1.626c1.444 2.517.585 5.724-1.921 7.17l-12.761 7.367c-2.345 1.354-5.344.551-6.699-1.793z" fill="#8e4e3f"/><path d="m237.567 387.905-11.948 6.898c-2.345 1.354-5.343.552-6.699-1.792-1.358-2.347-.554-5.35 1.795-6.705l12.763-7.362c2.282-1.327 5.142-.729 6.732 1.286 1.138 2.818.063 6.113-2.643 7.675z" fill="#9b5b42"/></g><g><path d="m209.279 384.28c-1.357-2.347-.553-5.35 1.796-6.704l16.024-9.245c2.282-1.327 5.142-.729 6.732 1.286.163.19.307.409.438.636l.939 1.626c1.444 2.517.585 5.724-1.921 7.17l-16.021 9.25c-2.345 1.354-5.344.551-6.699-1.793z" fill="#8e4e3f"/><path d="m231.188 377.292-15.209 8.781c-2.345 1.354-5.343.552-6.699-1.792-1.358-2.347-.554-5.35 1.795-6.705l16.023-9.245c2.282-1.327 5.142-.729 6.732 1.286 1.138 2.817.064 6.113-2.642 7.675z" fill="#9b5b42"/></g><g><path d="m207.883 370.796c-1.357-2.347-.553-5.35 1.796-6.704l12.763-7.362c2.282-1.327 5.142-.729 6.732 1.286.163.19.307.409.438.636l.939 1.626c1.444 2.517.585 5.724-1.921 7.17l-12.761 7.367c-2.345 1.354-5.344.551-6.699-1.793z" fill="#8e4e3f"/><path d="m226.532 365.69-11.948 6.898c-2.345 1.354-5.343.552-6.699-1.792-1.358-2.347-.554-5.35 1.795-6.705l12.763-7.362c2.282-1.327 5.142-.729 6.732 1.286 1.137 2.817.063 6.113-2.643 7.675z" fill="#9b5b42"/></g></g></g><g><g><path d="m432.267 199.674-42.188 73.072c-2.124 3.678-.864 8.377 2.811 10.499l35.161 20.3c.899.519 1.862.835 2.828.964 2.992.397 6.066-1 7.67-3.779l42.188-73.072c1.603-2.776 1.276-6.136-.564-8.529-.594-.773-1.349-1.448-2.248-1.967l-35.161-20.3c-3.676-2.122-8.376-.863-10.497 2.812z" fill="#334353"/><path d="m432.267 199.674-38.508 66.698c29.429-4.936 56.51-22.493 72.597-50.355.804-1.392 1.571-2.794 2.301-4.206l-25.893-14.949c-3.676-2.122-8.376-.863-10.497 2.812z" fill="#3e4e60"/><path d="m475.251 221.791-44.526 77.121c-1.042 1.804-.916 3.965.153 5.596 2.993.397 6.066-1 7.67-3.779l42.188-73.072c1.603-2.776 1.276-6.136-.564-8.529-1.946-.11-3.879.859-4.921 2.663z" fill="#2e3140"/><g fill="#3f5d77"><circle cx="410.527" cy="285.613" r="5.025"/><path d="m440.832 203.123 19.921 11.501c1.528.882 3.481.359 4.363-1.169s.359-3.481-1.169-4.363l-19.921-11.501c-1.528-.882-3.481-.359-4.363 1.169-.882 1.527-.359 3.481 1.169 4.363z"/></g></g><g><g><path d="m471.849 236.708-9.034 15.647c-.291.504-.118 1.15.386 1.441l1.226.708c1.455.84 3.311.343 4.149-1.11l7.053-12.216c.838-1.452.343-3.311-1.112-4.151l-1.226-.708c-.504-.291-1.15-.118-1.442.389z" fill="#334353"/><path d="m471.849 236.708-5.722 9.91c-.292.506-.119 1.153.385 1.443l1.226.708c1.455.84 3.312.34 4.151-1.112l3.741-6.479c.838-1.452.343-3.311-1.112-4.151l-1.226-.708c-.505-.291-1.151-.118-1.443.389z" fill="#3e4e60"/></g><g><path d="m427.931 211.352-4.009 6.945c-.291.504-.937.677-1.441.386l-1.226-.708c-1.455-.84-1.952-2.696-1.114-4.148l2.029-3.514c.838-1.452 2.696-1.952 4.151-1.112l1.226.708c.504.29.677.937.384 1.443z" fill="#334353"/><path d="m427.931 211.352-2.372 4.108c-.292.506-.938.68-1.442.389l-1.226-.708c-1.455-.84-1.951-2.698-1.112-4.151l.391-.678c.838-1.452 2.696-1.952 4.151-1.112l1.226.708c.504.291.677.938.384 1.444z" fill="#3e4e60"/></g><g><path d="m420.374 224.442-4.009 6.945c-.291.504-.937.677-1.441.386l-1.226-.708c-1.455-.84-1.952-2.696-1.114-4.148l2.029-3.514c.838-1.452 2.696-1.952 4.151-1.112l1.226.708c.503.29.676.936.384 1.443z" fill="#334353"/><path d="m420.374 224.442-2.372 4.108c-.292.506-.938.68-1.442.389l-1.226-.708c-1.455-.84-1.951-2.698-1.112-4.151l.391-.678c.838-1.452 2.696-1.952 4.151-1.112l1.226.708c.503.291.676.937.384 1.444z" fill="#3e4e60"/></g></g><g><path d="m394.833 222.317h76.598v48.284h-76.598z" fill="#22bce0" transform="matrix(.5 -.866 .866 .5 3.126 498.333)"/><path d="m431.374 201.22-37.616 65.152c27.998-4.694 53.866-20.814 70.166-46.359z" fill="#4fcae8"/></g></g></g><g><g id="Speech-bubble_11_"><path d="m228.519 237.214c-3.21 1.853-7.26 2.101-10.815.306l-59.746-30.183c-5.601-2.83-7.848-9.665-5.018-15.266 2.829-5.601 9.663-7.847 15.266-5.018l59.746 30.183c5.601 2.83 7.848 9.665 5.018 15.266-1.034 2.046-2.604 3.645-4.451 4.712z" fill="#ebd9ea"/><path d="m224.97 94.53v70.97c0 10.01-3.39 19.22-9.08 26.56-7.93 10.21-20.32 16.77-34.24 16.77h-109.75c-24.057.006-43.351-19.573-43.32-43.33v-27.14c17.67-34.152 43.078-64.093 73.79-87.15h79.28c24.051.002 43.354 19.558 43.32 43.32z" fill="#ebd9ea"/><path d="m224.972 94.534v70.967c0 10.011-3.391 19.218-9.086 26.56-5.703-7.342-9.094-16.549-9.094-26.56v-70.967c0-10.011 3.391-19.218 9.094-26.552 5.695 7.334 9.086 16.541 9.086 26.552z" fill="#fff"/><path d="m46.76 108.48v57.02c0 10.01-3.39 19.22-9.09 26.56-5.7-7.34-9.09-16.55-9.09-26.56v-27.14c5.38-10.4 11.46-20.38 18.18-29.88z" fill="#c1b7d3"/></g><g><g><path d="m179.544 103.042v57.883c0 1.955-.524 3.789-1.438 5.367-1.189 2.062-3.05 3.695-5.28 4.588-1.236.504-2.593.779-4.01.779h-84.074c-1.424 0-2.781-.275-4.017-.779-2.23-.9-4.091-2.526-5.28-4.588-.914-1.579-1.438-3.412-1.438-5.367v-57.883c0-4.507 2.774-8.37 6.717-9.955 1.236-.504 2.593-.779 4.017-.779h84.074c1.417 0 2.774.275 4.01.779 3.938 1.585 6.719 5.441 6.719 9.955z" fill="#d48d77"/><path d="m87.442 103.042v57.883c0 4.514-2.781 8.37-6.717 9.955-3.943-1.585-6.717-5.448-6.717-9.955v-57.883c0-4.507 2.774-8.37 6.717-9.955 3.936 1.585 6.717 5.441 6.717 9.955z" fill="#c17e62"/><path d="m179.544 103.042v57.883c0 1.955-.524 3.789-1.438 5.367-1.189 2.062-3.05 3.695-5.28 4.588-2.23-.9-4.091-2.526-5.28-4.588-.914-1.579-1.438-3.412-1.438-5.367v-57.883c0-4.507 2.774-8.37 6.717-9.955 3.938 1.585 6.719 5.441 6.719 9.955z" fill="#eea47d"/><path d="m178.106 166.292c-1.854 3.211-5.32 5.367-9.29 5.367h-84.074c-1.424 0-2.781-.275-4.017-.779-2.23-.9-4.091-2.526-5.28-4.588 1.189-2.062 3.05-3.688 5.28-4.588 1.236-.504 2.593-.779 4.017-.779h84.074c3.97 0 7.436 2.156 9.29 5.367z" fill="#a26d5a"/></g><g><path d="m166.594 136.65h-79.636c-7.152 0-12.95-5.798-12.95-12.95v-5.934h105.536v5.934c0 7.152-5.798 12.95-12.95 12.95z" fill="#a26d5a"/><path d="m179.544 103.042v17.774c0 4.669-3.789 8.457-8.457 8.457h-88.622c-4.669 0-8.457-3.789-8.457-8.457v-17.774c0-4.507 2.774-8.37 6.717-9.955 1.236-.504 2.593-.779 4.017-.779h84.074c1.417 0 2.774.275 4.01.779 3.937 1.585 6.718 5.441 6.718 9.955z" fill="#c17e62"/><path d="m87.442 103.042v26.231h-4.978c-4.669 0-8.457-3.789-8.457-8.457v-17.774c0-4.507 2.774-8.37 6.717-9.955 3.937 1.585 6.718 5.441 6.718 9.955z" fill="#a26d5a"/><path d="m179.544 103.042v17.774c0 4.669-3.789 8.457-8.457 8.457h-4.978v-26.231c0-4.507 2.774-8.37 6.717-9.955 3.937 1.585 6.718 5.441 6.718 9.955z" fill="#d48d77"/><path d="m154.818 97.961h-56.085c-3.25 0-5.884 2.634-5.884 5.884s2.634 5.884 5.884 5.884h56.085c3.25 0 5.884-2.634 5.884-5.884s-2.634-5.884-5.884-5.884z" fill="#d48d77"/><path d="m151.675 105.519h-35.522c-2.087 0-3.779-1.692-3.779-3.779s1.692-3.779 3.779-3.779h35.522c2.087 0 3.779 1.692 3.779 3.779s-1.692 3.779-3.779 3.779z" fill="#eea47d"/></g><g><g><path d="m101.528 118.66c-.759-.564-1.699-.893-2.721-.893h-6.771c-1.014 0-1.955.329-2.714.893-1.142.826-1.881 2.176-1.881 3.701v13.824c0 1.525.739 2.875 1.881 3.701.759.564 1.699.893 2.714.893h6.771c1.021 0 1.961-.329 2.721-.893 1.135-.833 1.874-2.183 1.874-3.701v-13.824c.001-1.518-.738-2.868-1.874-3.701zm-1.879 15.314c0 1.478-1.198 2.677-2.677 2.677h-3.096c-1.478 0-2.677-1.198-2.677-2.677v-9.401c0-1.478 1.198-2.677 2.677-2.677h3.096c1.478 0 2.677 1.198 2.677 2.677z" fill="#f9c744"/><path d="m103.403 122.361v13.824c0 1.518-.739 2.868-1.874 3.701-1.142-.833-1.881-2.183-1.881-3.701v-13.824c0-1.518.739-2.868 1.881-3.701 1.135.833 1.874 2.183 1.874 3.701z" fill="#fad98f"/><path d="m91.197 122.361v13.824c0 1.518-.739 2.868-1.874 3.701-1.142-.826-1.881-2.176-1.881-3.701v-13.824c0-1.525.739-2.875 1.881-3.701 1.135.833 1.874 2.183 1.874 3.701z" fill="#f39e22"/><path d="m101.528 118.66c-.759-.564-1.699-.893-2.721-.893h-4.319c.246 1.512.825 2.911 1.65 4.13h.834c1.478 0 2.677 1.198 2.677 2.677v.56c1.136.641 2.402 1.079 3.753 1.252v-4.024c.001-1.519-.738-2.869-1.874-3.702z" fill="#faefdc"/></g><g><path d="m164.235 118.66c-.759-.564-1.699-.893-2.721-.893h-6.771c-1.014 0-1.955.329-2.714.893-1.142.826-1.881 2.176-1.881 3.701v13.824c0 1.525.739 2.875 1.881 3.701.759.564 1.699.893 2.714.893h6.771c1.021 0 1.961-.329 2.721-.893 1.135-.833 1.874-2.183 1.874-3.701v-13.824c0-1.518-.739-2.868-1.874-3.701zm-1.879 15.314c0 1.478-1.198 2.677-2.677 2.677h-3.096c-1.478 0-2.677-1.198-2.677-2.677v-9.401c0-1.478 1.198-2.677 2.677-2.677h3.096c1.478 0 2.677 1.198 2.677 2.677z" fill="#f9c744"/><path d="m166.109 122.361v13.824c0 1.518-.739 2.868-1.874 3.701-1.142-.833-1.881-2.183-1.881-3.701v-13.824c0-1.518.739-2.868 1.881-3.701 1.135.833 1.874 2.183 1.874 3.701z" fill="#fad98f"/><path d="m153.903 122.361v13.824c0 1.518-.739 2.868-1.874 3.701-1.142-.826-1.881-2.176-1.881-3.701v-13.824c0-1.525.739-2.875 1.881-3.701 1.136.833 1.874 2.183 1.874 3.701z" fill="#f39e22"/><path d="m164.235 118.66c-.759-.564-1.699-.893-2.721-.893h-4.319c.246 1.512.825 2.911 1.65 4.13h.834c1.478 0 2.677 1.198 2.677 2.677v.56c1.136.641 2.402 1.079 3.753 1.252v-4.024c0-1.519-.739-2.869-1.874-3.702z" fill="#faefdc"/></g></g><g><path d="m150.148 82.279v10.029h-8.054v-6.381c0-3.533-2.868-6.402-6.408-6.402h-17.814c-3.54 0-6.408 2.868-6.408 6.402v6.381h-8.054v-10.029c0-1.055.168-2.069.47-3.016 1.276-3.977 5.004-6.858 9.404-6.858h26.99c4.4 0 8.128 2.882 9.404 6.858.303.947.47 1.961.47 3.016z" fill="#a26d5a"/><path d="m149.678 79.263c-1.075 3.829-3.909 6.912-7.584 8.33v-1.666c0-3.533-2.868-6.402-6.408-6.402h-17.814c-3.54 0-6.408 2.868-6.408 6.402v1.666c-1.652-.638-3.137-1.612-4.366-2.841-1.505-1.505-2.627-3.386-3.218-5.488 1.276-3.977 5.004-6.858 9.404-6.858h26.99c4.4-.002 8.128 2.88 9.404 6.857z" fill="#c17e62"/><path d="m140.109 79.525h-20.709c-1.924 0-3.484-1.56-3.484-3.484v-.152c0-1.924 1.56-3.484 3.484-3.484h20.709c1.924 0 3.484 1.56 3.484 3.484v.152c0 1.924-1.559 3.484-3.484 3.484z" fill="#d48d77"/></g></g></g></g></svg>