<svg id="Icons" enable-background="new 0 0 512 512" height="512" viewBox="0 0 512 512" width="512" xmlns="http://www.w3.org/2000/svg"><g><circle cx="256" cy="256" fill="#53b976" r="256"/><g><g><g><path d="m301.431 284.541v34.887h85.055v-34.887c0-17.477-14.165-31.651-31.652-31.651h-21.752c-17.486-.001-31.651 14.173-31.651 31.651z" fill="#dd5e26"/><path d="m301.431 284.541v34.887h64.799v-34.887c0-17.477-14.165-31.651-31.652-31.651h-1.496c-17.486-.001-31.651 14.173-31.651 31.651z" fill="#ea792e"/></g><g><path d="m329.906 239.599v15.262c0 7.762 6.295 14.048 14.058 14.048 2.604 0 5.042-.709 7.131-1.943 4.139-2.438 6.917-6.946 6.917-12.105v-15.262z" fill="#f5b890"/><path d="m358.012 239.599v15.262c0 5.159-2.779 9.666-6.917 12.105v-16.311c-4.887 2.04-10.259 3.167-15.894 3.167-1.797 0-3.566-.117-5.295-.33v-13.892h28.106z" fill="#d48d77"/></g><g><g><g><path d="m383.512 193.761h-6.969v-21.807h6.969c6.022 0 10.903 4.882 10.903 10.903.001 6.022-4.881 10.904-10.903 10.904z" fill="#d48d77"/><path d="m383.864 187.536h-7.32v-9.358h7.32c2.584 0 4.679 2.095 4.679 4.679 0 2.585-2.095 4.679-4.679 4.679z" fill="#c17e62"/></g><g><path d="m290.803 171.954h3.052v21.807h-3.052c-6.022 0-10.903-4.882-10.903-10.903 0-6.022 4.881-10.904 10.903-10.904z" fill="#d48d77"/><path d="m290.451 178.179h3.404v9.358h-3.404c-2.584 0-4.679-2.095-4.679-4.679.001-2.584 2.095-4.679 4.679-4.679z" fill="#c17e62"/></g></g><g><path d="m293.854 147.685v57.435c0 11.415 4.624 21.752 12.105 29.232 5.402 5.392 12.28 9.297 19.974 11.065 2.982.68 6.082 1.04 9.268 1.04 22.83 0 41.347-18.507 41.347-41.337v-57.435c0-12.513-10.152-22.655-22.665-22.655h-37.374c-2.195 0-4.313.311-6.324.903-9.434 2.73-16.331 11.435-16.331 21.752z" fill="#d48d77"/><path d="m293.854 147.685v57.435c0 11.415 4.624 21.752 12.105 29.232 5.402 5.392 12.28 9.297 19.974 11.065 18.381-4.207 32.079-20.654 32.079-40.298v-21.975c0-28.591-20.635-52.354-47.827-57.212-9.434 2.731-16.331 11.436-16.331 21.753z" fill="#f5b890"/><g fill="#eea47d"><path d="m323.509 185.745h8.429c3.462 0 6.268 2.806 6.268 6.268s-2.806 6.268-6.268 6.268h-8.429c-3.462 0-6.268-2.806-6.268-6.268 0-3.461 2.806-6.268 6.268-6.268z"/><path d="m324.625 125.029h10.574v64.971h-10.574z" transform="matrix(-1 0 0 -1 659.824 315.029)"/></g><g fill="#334353"><path d="m346.42 161.227c3.164 0 5.728 2.565 5.728 5.728v9.998c0 3.164-2.565 5.728-5.728 5.728-3.164 0-5.728-2.565-5.728-5.728v-9.998c0-3.164 2.564-5.728 5.728-5.728z"/><path d="m313.404 161.227c3.164 0 5.728 2.565 5.728 5.728v9.998c0 3.164-2.565 5.728-5.728 5.728-3.164 0-5.728-2.565-5.728-5.728v-9.998c0-3.164 2.565-5.728 5.728-5.728z"/></g><g><path d="m333.702 221.384c9.924 0 17.997-8.073 17.997-17.996 0-1.878-1.522-3.4-3.4-3.4s-3.4 1.522-3.4 3.4c0 6.173-5.023 11.196-11.196 11.196-1.878 0-3.4 1.522-3.4 3.4s1.521 3.4 3.399 3.4z" fill="#c17e62"/></g></g><g><path d="m376.543 193.761h6.969c1.218 0 2.386-.208 3.48-.577v2.907c0 5.782-4.687 10.469-10.469 10.469z" fill="#3e4e60"/><path d="m376.536 171.954h7.024c1.169 0 2.274.232 3.331.57l.177.009v-28.754c0-13.342-10.816-24.158-24.158-24.158h-28.041v6.034c0 7.875 6.384 14.258 14.258 14.258 4.823 0 8.732 3.909 8.732 8.732v5.126c0 10.042 8.141 18.183 18.183 18.183l.495.026v-.026z" fill="#3e4e60"/><path d="m288.321 131.068c0 3-2.432 5.431-5.431 5.431-1.292 0-2.541-.46-3.524-1.299l-6.492-5.536c-2.309-1.969-5.866-.328-5.866 2.707v7.658c0 10.72 8.69 19.41 19.41 19.41 4.455 0 8.728-1.77 11.879-4.92l6.887-6.887c4.942-4.942 11.644-7.718 18.633-7.718h29.597c5.604 0 10.146-4.543 10.146-10.146 0-5.604-4.543-10.146-10.146-10.146h-53.645c-6.323-.001-11.448 5.124-11.448 11.446z" fill="#3f5d77"/></g></g></g><g><g><path d="m383.923 254.249-36.038 48.302c-8.149 10.922-5.901 26.383 5.021 34.532l12.364 9.225c10.922 8.149 26.383 5.901 34.532-5.021l36.038-48.302c7.959-10.668 5.769-25.771-4.905-33.734l-13.277-9.906c-10.674-7.965-25.775-5.764-33.735 4.904z" fill="#c2aacf"/><path d="m383.923 254.249-36.038 48.302c-8.149 10.922-5.901 26.383 5.021 34.532s26.383 5.901 34.532-5.021l36.038-48.302c7.959-10.668 5.769-25.771-4.905-33.734l-.913-.681c-10.674-7.965-25.775-5.764-33.735 4.904z" fill="#f9eaf9"/><g fill="#decee5"><path d="m382.267 274.893 30.722 22.922 5.442-7.293-30.722-22.922c-2.014-1.503-4.865-1.088-6.367.926-1.503 2.014-1.089 4.865.925 6.367z"/><path d="m369.492 292.016 30.722 22.922 5.442-7.293-30.722-22.922c-2.014-1.503-4.865-1.088-6.367.926-1.504 2.014-1.089 4.865.925 6.367z"/><path d="m356.716 309.139 30.722 22.922 5.442-7.293-30.722-22.922c-2.014-1.503-4.865-1.088-6.367.926-1.503 2.014-1.089 4.865.925 6.367z"/></g></g><g><g><g><path d="m449.165 262.779-5.038-3.759 11.761-15.764 5.038 3.759c4.353 3.248 5.249 9.41 2.001 13.763-3.247 4.352-9.409 5.248-13.762 2.001z" fill="#d48d77"/><path d="m452.777 258.469-5.292-3.948 5.047-6.764 5.292 3.948c1.868 1.394 2.252 4.038.859 5.906-1.394 1.867-4.038 2.251-5.906.858z" fill="#c17e62"/></g><g><path d="m415.609 213.203 2.206 1.646-11.761 15.764-2.206-1.646c-4.353-3.248-5.249-9.41-2.001-13.763 3.247-4.353 9.409-5.249 13.762-2.001z" fill="#d48d77"/><path d="m411.998 217.513 2.46 1.836-5.047 6.764-2.46-1.836c-1.868-1.394-2.252-4.038-.859-5.906 1.394-1.867 4.038-2.251 5.906-.858z" fill="#c17e62"/></g></g><g><path d="m424.018 206.536-19.731 26.445c-3.922 5.256-5.343 11.604-4.469 17.618.635 4.338 2.46 8.499 5.396 11.957 1.14 1.338 2.443 2.568 3.91 3.663 10.512 7.843 25.396 5.683 33.239-4.829l19.731-26.445c4.299-5.761 3.108-13.919-2.653-18.218l-17.208-12.839c-1.011-.754-2.093-1.339-3.222-1.757-5.283-1.983-11.449-.345-14.993 4.405z" fill="#d48d77"/><path d="m424.018 206.536-19.731 26.445c-3.922 5.256-5.343 11.604-4.469 17.618.635 4.338 2.46 8.499 5.396 11.957 9.908 4.378 21.866 1.51 28.614-7.534l7.549-10.118c9.822-13.165 8.484-31.195-2.367-42.773-5.282-1.983-11.448-.345-14.992 4.405z" fill="#f5b890"/><g fill="#d48d77"><path d="m424.597 234.248 3.881 2.896c1.594 1.189 1.922 3.446.733 5.04s-3.446 1.922-5.04.733l-3.881-2.896c-1.594-1.189-1.922-3.446-.733-5.04 1.19-1.594 3.446-1.922 5.04-.733z"/><path d="m435.968 225.159c1.344 1.003 1.621 2.906.618 4.251l-8.068 10.814-4.869-3.633 8.068-10.814c1.004-1.345 2.907-1.621 4.251-.618z"/></g><g fill="#334353"><path d="m443.569 230.83c1.457 1.087 1.756 3.149.67 4.605l-3.435 4.604c-1.087 1.457-3.149 1.756-4.605.67-1.457-1.087-1.757-3.149-.67-4.605l3.435-4.604c1.087-1.457 3.148-1.757 4.605-.67z"/><path d="m428.367 219.488c1.457 1.087 1.756 3.149.67 4.605l-3.435 4.604c-1.087 1.457-3.149 1.756-4.605.67-1.457-1.087-1.756-3.149-.67-4.605l3.435-4.604c1.087-1.457 3.149-1.757 4.605-.67z"/></g><g><path d="m417.047 254.16c4.569 3.409 11.06 2.465 14.469-2.104.645-.865.467-2.089-.398-2.734s-2.089-.467-2.734.398c-2.121 2.842-6.159 3.43-9.002 1.309-.865-.645-2.089-.467-2.734.398-.643.864-.465 2.087.399 2.733z" fill="#c17e62"/></g></g></g></g><g><g><path d="m429.695 320.252c1.162-2.01.473-4.582-1.538-5.742l-8.69-5.011c-1.955-1.136-4.404-.625-5.765 1.101-.14.163-.263.35-.375.544l-.804 1.393c-1.237 2.155-.501 4.902 1.645 6.141l8.687 5.016c2.008 1.16 4.577.472 5.737-1.535z" fill="#d48d77"/><path d="m415.966 317.174 7.992 4.614c2.008 1.159 4.576.472 5.737-1.535 1.163-2.01.474-4.582-1.537-5.743l-8.689-5.011c-1.955-1.136-4.404-.625-5.765 1.101-.976 2.413-.056 5.236 2.262 6.574z" fill="#f5b890"/></g><g><path d="m438.389 313.028c1.162-2.01.474-4.582-1.538-5.742l-10.931-6.306c-1.955-1.136-4.404-.625-5.765 1.101-.14.163-.263.35-.375.544l-.804 1.393c-1.237 2.155-.501 4.902 1.645 6.141l10.929 6.31c2.008 1.16 4.576.472 5.737-1.535z" fill="#d48d77"/><path d="m422.418 308.655 10.233 5.908c2.008 1.159 4.576.472 5.737-1.535 1.163-2.01.474-4.582-1.537-5.743l-10.93-6.305c-1.955-1.136-4.404-.625-5.765 1.101-.976 2.413-.056 5.236 2.262 6.574z" fill="#f5b890"/></g><g><path d="m446.645 305.55c1.162-2.01.473-4.582-1.538-5.742l-13.723-7.918c-1.955-1.136-4.404-.625-5.766 1.101-.14.163-.263.35-.375.544l-.804 1.393c-1.237 2.155-.501 4.902 1.645 6.141l13.721 7.922c2.008 1.16 4.576.472 5.737-1.535z" fill="#d48d77"/><path d="m427.881 299.565 13.026 7.52c2.008 1.159 4.576.472 5.737-1.535 1.163-2.01.474-4.582-1.537-5.743l-13.723-7.917c-1.955-1.136-4.404-.625-5.766 1.101-.975 2.414-.054 5.236 2.263 6.574z" fill="#f5b890"/></g><g><path d="m447.84 294.002c1.162-2.01.473-4.582-1.538-5.742l-10.931-6.306c-1.955-1.136-4.404-.625-5.765 1.101-.14.163-.263.35-.375.544l-.804 1.393c-1.237 2.155-.501 4.902 1.646 6.141l10.929 6.31c2.008 1.16 4.576.472 5.737-1.535z" fill="#d48d77"/><path d="m431.869 289.629 10.233 5.908c2.008 1.159 4.576.472 5.737-1.535 1.163-2.01.474-4.582-1.537-5.743l-10.93-6.305c-1.955-1.136-4.404-.625-5.765 1.101-.976 2.413-.056 5.236 2.262 6.574z" fill="#f5b890"/></g></g><g><g><path d="m473.76 337.965c0 2.145-.363 4.214-1.045 6.139-.924 2.651-2.442 5.028-4.39 6.975-3.356 3.356-7.998 5.435-13.114 5.435h-398.422c-10.242 0-18.549-8.306-18.549-18.549 0-5.116 2.079-9.759 5.435-13.114 2.827-2.828 6.579-4.742 10.749-5.27.77-.099 1.562-.154 2.365-.154h398.421c10.243 0 18.55 8.295 18.55 18.538z" fill="#d48d77"/><path d="m473.76 337.965c0 2.145-.363 4.214-1.045 6.139-.77.099-1.562.154-2.366.154h-398.422c-10.242 0-18.549-8.306-18.549-18.549 0-2.145.363-4.214 1.045-6.128.77-.099 1.562-.154 2.365-.154h398.421c10.244 0 18.551 8.295 18.551 18.538z" fill="#eea47d"/><path d="m406.17 344.258h-241.077c-6.857 0-12.415-5.559-12.415-12.415 0-6.857 5.559-12.415 12.415-12.415h241.077c6.857 0 12.415 5.559 12.415 12.415s-5.558 12.415-12.415 12.415z" fill="#f5b890"/></g><g><path d="m426.9 356.51v90.09c-7.25 6.51-14.89 12.61-22.86 18.28-41.79 29.67-92.88 47.12-148.04 47.12s-106.25-17.45-148.04-47.12c-7.97-5.67-15.61-11.77-22.86-18.28v-90.09z" fill="#a26d5a"/><path d="m404.04 394.04v70.84c-41.79 29.67-92.88 47.12-148.04 47.12s-106.25-17.45-148.04-47.12v-70.84c0-7.92 6.41-14.33 14.33-14.33h267.42c7.92 0 14.33 6.41 14.33 14.33z" fill="#c17e62"/><path d="m372.07 418.39h-185.461c-10.683 0-19.342-8.66-19.342-19.342 0-10.683 8.66-19.342 19.342-19.342h185.461c10.683 0 19.342 8.66 19.342 19.342.001 10.682-8.659 19.342-19.342 19.342z" fill="#d48d77"/></g></g><g><g><path d="m245.812 157.902v103.548c0 2.823-.839 5.462-2.291 7.671-1.821 2.823-4.623 4.93-7.937 5.85-1.207.348-2.496.532-3.805.532h-158.718c-1.33 0-2.598-.184-3.805-.532-3.314-.921-6.116-3.027-7.937-5.85-1.452-2.209-2.291-4.848-2.291-7.671v-103.548c0-1.309.184-2.598.532-3.805 1.309-4.685 4.991-8.387 9.696-9.696 1.207-.348 2.496-.532 3.805-.532h158.719c1.33 0 2.598.184 3.805.532 4.684 1.309 8.387 4.991 9.696 9.696.347 1.207.531 2.496.531 3.805z" fill="#c2aacf"/><path d="m243.521 269.121c-2.496 3.846-6.812 6.382-11.742 6.382h-158.718c-4.93 0-9.246-2.537-11.742-6.382 5.544-15.833 20.62-27.166 38.314-27.166h105.553c17.716.001 32.792 11.333 38.335 27.166z" fill="#9175a7"/><path d="m79.485 157.902v103.548c0 2.823-.839 5.462-2.291 7.671-1.821 2.823-4.623 4.93-7.937 5.85-3.314-.921-6.116-3.027-7.937-5.85-1.452-2.209-2.291-4.848-2.291-7.671v-103.548c0-6.423 4.316-11.844 10.228-13.501 5.912 1.657 10.228 7.078 10.228 13.501z" fill="#a583bb"/><path d="m245.812 157.902v103.548c0 2.823-.839 5.462-2.291 7.671-1.821 2.823-4.623 4.93-7.937 5.85-3.314-.921-6.116-3.027-7.937-5.85-1.452-2.209-2.291-4.848-2.291-7.671v-103.548c0-6.444 4.337-11.864 10.228-13.501 5.892 1.636 10.228 7.057 10.228 13.501z" fill="#decee5"/><path d="m112.572 162.965h79.697c5.126 0 9.282-4.156 9.282-9.282s-4.156-9.282-9.282-9.282h-79.697c-5.126 0-9.282 4.156-9.282 9.282s4.156 9.282 9.282 9.282z" fill="#ebd9ea"/></g><path d="m165.618 257.753h-26.396c-4.673 0-8.462 3.789-8.462 8.462v34.858h43.319v-34.858c.001-4.673-3.787-8.462-8.461-8.462z" fill="#a583bb"/><g><path d="m202.05 301.073h-99.258c-5.068 0-9.177 4.109-9.177 9.177s4.109 9.177 9.177 9.177h99.258c5.068 0 9.177-4.109 9.177-9.177 0-5.069-4.109-9.177-9.177-9.177z" fill="#c2aacf"/><path d="m183.021 301.073h-61.201c-3.125 0-5.659 2.533-5.659 5.659 0 3.125 2.533 5.659 5.659 5.659h61.201c3.125 0 5.659-2.533 5.659-5.659s-2.534-5.659-5.659-5.659z" fill="#decee5"/></g></g></g><g id="Clock_6_"><path d="m265.644 74.857c0 11.02-3.673 21.198-9.872 29.352-8.86 11.683-22.899 19.225-38.697 19.225-26.827 0-48.578-21.75-48.578-48.577 0-14.557 6.411-27.626 16.555-36.537 8.545-7.491 19.752-12.04 32.022-12.04 26.828-.001 48.57 21.75 48.57 48.577z" fill="#f0dae2"/><path d="m265.644 74.857c0 11.02-3.673 21.198-9.872 29.352-34.752-5.782-62.573-32.005-70.719-65.89 8.545-7.491 19.752-12.04 32.022-12.04 26.827 0 48.569 21.751 48.569 48.578z" fill="#fff"/><g><path d="m217.071 77.407c-1.409 0-2.551-1.142-2.551-2.551v-27.719c0-1.409 1.142-2.551 2.551-2.551s2.551 1.142 2.551 2.551v27.719c0 1.409-1.142 2.551-2.551 2.551z" fill="#3f5d77"/><path d="m244.789 76.556h-27.718c-.939 0-1.701-.761-1.701-1.701 0-.939.761-1.701 1.701-1.701h27.718c.939 0 1.701.761 1.701 1.701s-.762 1.701-1.701 1.701z" fill="#3f5d77"/><circle cx="217.071" cy="74.856" fill="#334353" r="6.602"/></g><g><g><g><path d="m217.071 26.281c-2.604 0-4.715 2.111-4.715 4.715v4.682c0 2.604 2.111 4.715 4.715 4.715s4.715-2.111 4.715-4.715v-4.682c0-2.604-2.111-4.715-4.715-4.715z" fill="#c2aacf"/></g><g><path d="m217.071 109.296c-2.604 0-4.715 2.111-4.715 4.715v4.682c0 2.604 2.111 4.715 4.715 4.715s4.715-2.111 4.715-4.715v-4.682c0-2.605-2.111-4.715-4.715-4.715z" fill="#a583bb"/></g></g><g><g><path d="m192.79 32.787c-2.255 1.302-3.028 4.185-1.726 6.44l2.341 4.055c1.302 2.255 4.185 3.028 6.44 1.726s3.028-4.185 1.726-6.44l-2.341-4.055c-1.302-2.255-4.185-3.027-6.44-1.726z" fill="#c2aacf"/></g><g><path d="m234.297 104.68c-2.255 1.302-3.028 4.185-1.726 6.44l2.341 4.055c1.302 2.255 4.185 3.028 6.44 1.726s3.028-4.185 1.726-6.44l-2.341-4.055c-1.302-2.255-4.185-3.028-6.44-1.726z" fill="#a583bb"/></g></g><g><g><path d="m175.015 50.563c-1.302 2.255-.529 5.138 1.726 6.44l4.055 2.341c2.255 1.302 5.138.529 6.44-1.726s.529-5.138-1.726-6.44l-4.055-2.341c-2.255-1.302-5.138-.529-6.44 1.726z" fill="#a583bb"/></g><g><path d="m246.907 92.07c-1.302 2.255-.529 5.138 1.726 6.44l4.055 2.341c2.255 1.302 5.138.529 6.44-1.726s.529-5.138-1.726-6.44l-4.055-2.341c-2.255-1.302-5.138-.529-6.44 1.726z" fill="#c2aacf"/></g></g><g><g><path d="m168.508 74.844c0 2.604 2.111 4.715 4.715 4.715h4.682c2.604 0 4.715-2.111 4.715-4.715s-2.111-4.715-4.715-4.715h-4.682c-2.604 0-4.715 2.111-4.715 4.715z" fill="#a583bb"/></g><g><path d="m251.523 74.844c0 2.604 2.111 4.715 4.715 4.715h4.682c2.604 0 4.715-2.111 4.715-4.715s-2.111-4.715-4.715-4.715h-4.682c-2.604 0-4.715 2.111-4.715 4.715z" fill="#c2aacf"/></g></g><g><g><path d="m175.015 99.125c1.302 2.255 4.185 3.028 6.44 1.726l4.055-2.341c2.255-1.302 3.028-4.185 1.726-6.44s-4.185-3.028-6.44-1.726l-4.055 2.341c-2.256 1.302-3.028 4.185-1.726 6.44z" fill="#a583bb"/></g><g><path d="m246.907 57.618c1.302 2.255 4.185 3.028 6.44 1.726l4.055-2.341c2.255-1.302 3.028-4.185 1.726-6.44s-4.185-3.028-6.44-1.726l-4.055 2.341c-2.255 1.302-3.028 4.185-1.726 6.44z" fill="#c2aacf"/></g></g><g><g><path d="m192.79 116.9c2.255 1.302 5.138.529 6.44-1.726l2.341-4.055c1.302-2.255.529-5.138-1.726-6.44s-5.138-.529-6.44 1.726l-2.341 4.055c-1.302 2.255-.529 5.138 1.726 6.44z" fill="#a583bb"/></g><g><path d="m234.297 45.008c2.255 1.302 5.138.529 6.44-1.726l2.341-4.055c1.302-2.255.529-5.138-1.726-6.44s-5.138-.529-6.44 1.726l-2.341 4.055c-1.302 2.255-.529 5.138 1.726 6.44z" fill="#c2aacf"/></g></g></g><g><path d="m268.14 72.546c-1.209-27.123-23.651-48.814-51.067-48.814-8.484 0-16.489 2.073-23.537 5.752-16.381 8.525-27.591 25.662-27.591 45.372 0 28.188 22.935 51.124 51.129 51.124 28.188 0 51.124-22.935 51.124-51.124-.001-.771-.016-1.543-.058-2.31zm-51.067 48.335c-25.379 0-46.025-20.651-46.025-46.025 0-17.271 9.564-32.355 23.676-40.222 6.621-3.699 14.246-5.803 22.349-5.803 25.117 0 45.598 20.229 46.01 45.253.01.257.01.514.01.772 0 25.374-20.646 46.025-46.02 46.025z" fill="#f39e22"/><path d="m268.14 72.546c-1.651.592-3.339 1.106-5.057 1.538-.412-25.024-20.893-45.253-46.01-45.253-8.103 0-15.728 2.104-22.349 5.803-.473-1.688-.875-3.406-1.188-5.15 7.048-3.678 15.054-5.752 23.537-5.752 27.417.001 49.858 21.691 51.067 48.814z" fill="#f9c744"/></g></g></g></svg>