<svg id="Layer_1" height="512" viewBox="0 0 512 512" width="512" xmlns="http://www.w3.org/2000/svg" data-name="Layer 1"><path d="m286.56 17.12c119 4.27 191.83 132.64 136.7 238 0 0-18.81 46.37-20.64 65.96-6.2 66.47 0 173.92 0 173.92h-156.83v-43.51a37.223 37.223 0 0 0 -37.25-37.19h-.18c-17.65.08-36.3.18-38.51.24a39.025 39.025 0 0 1 -40.2-38.97v-57.59h-51.82a7.8 7.8 0 0 1 -7.3-10.57l33.73-88.18s.08-33.24.27-36.44c5.04-93.07 82.75-166.83 177.49-165.78z" fill="#ffd8b7"/><path d="m389 160.75v40.44l-25.71 4.52c-1.99 7.08-3.95 13.8-7.49 20.07l15.59 21.93-28.69 28.56-22.01-15.62a90.774 90.774 0 0 1 -20.14 8.17l-4.55 26.18h-40.56l-4.54-26.18a90.339 90.339 0 0 1 -20.14-8.01l-22 15.54-28.67-28.6 15.62-21.95a90.61 90.61 0 0 1 -8.28-20.08l-26.43-4.53v-40.44l26.43-4.52a90.61 90.61 0 0 1 8.21-20.08l-15.58-21.92 28.68-28.55 22.01 15.62a90.719 90.719 0 0 1 20.14-8.15l4.55-26.15h40.56l4.52 26.15a90.265 90.265 0 0 1 20.12 7.97l21.96-15.53 28.57 28.59-15.8 21.95a89.9 89.9 0 0 1 7.92 20.09z" fill="#5fa8ed"/><path d="m275.68 117.29a63.68 63.68 0 1 1 -63.87 63.68 63.771 63.771 0 0 1 63.87-63.68zm32.58 63.68a32.575 32.575 0 1 0 -32.58 32.48 32.531 32.531 0 0 0 32.58-32.48z" fill="#4689d3"/><path d="m100.53 307.41 33.73-88.18s.08-33.24.27-36.44c4.732-87.385 73.528-157.742 160.332-165.143-2.744-.236-5.506-.427-8.3-.527l-4.54-.11c-94.74-1.05-172.45 72.71-177.49 165.78-.19 3.2-.27 36.44-.27 36.44l-33.732 88.18a7.8 7.8 0 0 0 7.3 10.57h30a7.8 7.8 0 0 1 -7.3-10.57z" fill="#dbb395"/><path d="m159.65 375.57v-57.59h-30v57.59a39.025 39.025 0 0 0 40.2 38.97c1.642-.045 12.366-.111 25.01-.175a39.02 39.02 0 0 1 -35.21-38.795z" fill="#dbb395"/><path d="m261.38 422.11a37.322 37.322 0 0 0 -22.84-7.81h-.18c-9.5.043-19.285.092-26.644.137a37.214 37.214 0 0 1 34.074 37.053v43.51h30v-43.51a37.181 37.181 0 0 0 -14.41-29.38z" fill="#dbb395"/><g fill="#284268"><path d="m286.773 11.121h-.074l-4.608-.107a181.6 181.6 0 0 0 -183.549 171.415c-.186 3.047-.265 29.259-.281 35.684l-33.334 87.149a13.812 13.812 0 0 0 12.903 18.738h46.17v51.568a44.5 44.5 0 0 0 46.128 44.824c1-.031 7.223-.392 38.256-.392h.138a31.9 31.9 0 0 1 19.285 6.706 31.358 31.358 0 0 1 12.193 24.787v43.507a5.824 5.824 0 0 0 5.789 6h156.832a6 6 0 0 0 5.99-6.346c-.061-1.07-6.1-107.771-.016-173.017 1.656-17.755 18.615-60.262 20.12-64a168.562 168.562 0 0 0 -3.891-163.437c-29.033-49.96-80.641-81.018-138.051-83.079zm131.17 241.213c-.089.171-.171.347-.243.526-.782 1.927-19.166 47.424-21.053 67.663-5.3 56.86-1.547 144.342-.348 168.477h-144.299v-37.507a42.991 42.991 0 0 0 -16.843-34.123c-.585-.453-1.238-.885-1.844-1.307a73.867 73.867 0 0 0 49.109-63.521 6 6 0 0 0 -11.968-.982c-2.614 31.825-29.706 56.683-61.727 56.683-.076 0-.16 0-.231 0l-38.829.305a32.737 32.737 0 0 1 -33.667-32.98v-57.584a6.3 6.3 0 0 0 -6.353-5.984h-51.817a1.775 1.775 0 0 1 -1.5-.792 1.753 1.753 0 0 1 -.2-1.655l33.726-88.179a6.011 6.011 0 0 0 .4-2.13c.031-13.29.127-33.867.264-36.125a169.6 169.6 0 0 1 169.452-160.119c.636 0 1.275 0 1.912.011l4.5.1a151.7 151.7 0 0 1 75.824 22.957 157.672 157.672 0 0 1 55.738 206.262z"/><path d="m390.042 154.839-22.042-3.886a93.847 93.847 0 0 0 -5.583-14.336l13.623-18.927a6 6 0 0 0 -.625-7.746l-28.573-28.6a6 6 0 0 0 -7.709-.657l-18.953 13.413a94.849 94.849 0 0 0 -14.38-5.657l-3.884-22.465a6 6 0 0 0 -5.916-4.978h-40.56a6 6 0 0 0 -5.911 4.972l-3.909 22.481a95.631 95.631 0 0 0 -14.415 5.81l-18.994-13.481a6 6 0 0 0 -7.706.641l-28.682 28.553a6 6 0 0 0 -.657 7.728l13.43 18.9a97.174 97.174 0 0 0 -5.843 14.337l-22.765 3.894a6 6 0 0 0 -4.988 5.913v40.441a6 6 0 0 0 4.986 5.914l22.771 3.9a96.968 96.968 0 0 0 5.907 14.351l-13.464 18.919a6 6 0 0 0 .651 7.727l28.664 28.6a6 6 0 0 0 7.7.654l19-13.414a96.877 96.877 0 0 0 14.409 5.687l3.9 22.5a6 6 0 0 0 5.916 4.973h40.56a6 6 0 0 0 5.911-4.974l3.91-22.515a97.739 97.739 0 0 0 14.413-5.823l19 13.475a6 6 0 0 0 7.706-.642l28.681-28.557a6 6 0 0 0 .657-7.727l-13.46-18.937a92.2 92.2 0 0 0 5.212-14.327l22.009-3.872a6 6 0 0 0 4.961-5.912v-40.441a6 6 0 0 0 -4.958-5.909zm-7.042 41.313-20.747 3.65a6 6 0 0 0 -4.737 4.286c-2.047 7.285-3.858 13.29-6.938 18.746a6 6 0 0 0 .335 6.425l12.639 17.787-21.5 21.405-17.89-12.691a6 6 0 0 0 -6.407-.339 84.307 84.307 0 0 1 -18.821 7.623 6 6 0 0 0 -4.3 4.753l-3.68 21.203h-30.465l-3.678-21.2a6 6 0 0 0 -4.3-4.753 83.6 83.6 0 0 1 -18.811-7.467 6 6 0 0 0 -6.4.331l-17.88 12.624-21.493-21.443 12.673-17.81a6 6 0 0 0 .337-6.428 84.871 84.871 0 0 1 -7.731-18.756 6 6 0 0 0 -4.763-4.29l-21.443-3.678v-30.322l21.441-3.668a6 6 0 0 0 4.765-4.291 84.854 84.854 0 0 1 7.658-18.745 6 6 0 0 0 -.335-6.425l-12.637-17.779 21.5-21.4 17.89 12.7a6 6 0 0 0 6.409.34 84.314 84.314 0 0 1 18.821-7.608 6 6 0 0 0 4.3-4.751l3.675-21.181h30.463l3.659 21.167a6 6 0 0 0 4.3 4.757 83.646 83.646 0 0 1 18.794 7.433 6 6 0 0 0 6.4-.335l17.827-12.613 21.391 21.409-12.821 17.809a6 6 0 0 0 -.356 6.455 82.512 82.512 0 0 1 7.37 18.756 6 6 0 0 0 4.734 4.286l20.752 3.658z"/><path d="m314.256 180.968a38.574 38.574 0 1 0 -38.574 38.477 38.57 38.57 0 0 0 38.574-38.477zm-65.148 0a26.574 26.574 0 1 1 26.574 26.477 26.556 26.556 0 0 1 -26.574-26.477z"/><path d="m275.682 111.175a69.736 69.736 0 0 0 -65.643 45.725 6.008 6.008 0 0 0 11.251 4.221 57.718 57.718 0 1 1 -.49 37.921 5.969 5.969 0 0 0 -5.671-4.042h-.014a5.989 5.989 0 0 0 -5.73 7.813 69.829 69.829 0 1 0 66.3-91.638z"/></g></svg>