<svg id="Icons" enable-background="new 0 0 512 512" height="512" viewBox="0 0 512 512" width="512" xmlns="http://www.w3.org/2000/svg"><g><circle cx="256" cy="256" fill="#22bce0" r="256"/><g><g><g><path d="m95.49 300.42c.081 13.894-11.394 25.759-25.71 25.71-26.94-.31-35.384-35.896-12.01-48.45 16.687-9.139 37.985 3.633 37.72 22.74z" fill="#755c8e"/><path d="m95.49 300.42c0 3.65-.76 7.13-2.14 10.28-21.262 9.347-43.192-12.612-33.85-33.86 16.503-7.53 36.301 5.351 35.99 23.58z" fill="#9175a7"/></g><g><g><g><path d="m72.906 255.275h-6.262v22.652c0 1.729 1.402 3.131 3.131 3.131s3.131-1.402 3.131-3.131z" fill="#755c8e"/><path d="m76.995 255.275c0-3.987-3.232-7.22-7.22-7.22-9.557.33-9.555 14.111 0 14.439 3.987.001 7.22-3.232 7.22-7.219z" fill="#9175a7"/></g><g><path d="m66.644 345.555h6.262v-22.652c0-1.729-1.402-3.131-3.131-3.131s-3.131 1.402-3.131 3.131z" fill="#755c8e"/><path d="m62.555 345.555c0 3.987 3.232 7.22 7.22 7.22 9.557-.33 9.555-14.111 0-14.439-3.987-.001-7.22 3.232-7.22 7.219z" fill="#9175a7"/></g></g><g><g><path d="m24.635 297.284v6.262h22.652c1.729 0 3.131-1.402 3.131-3.131s-1.402-3.131-3.131-3.131z" fill="#755c8e"/><path d="m24.635 293.195c-3.987 0-7.22 3.232-7.22 7.22.33 9.557 14.111 9.555 14.439 0 .001-3.987-3.232-7.22-7.219-7.22z" fill="#9175a7"/></g><g><path d="m114.915 303.546v-6.262h-22.652c-1.729 0-3.131 1.402-3.131 3.131s1.402 3.131 3.131 3.131z" fill="#755c8e"/><path d="m114.915 307.635c3.987 0 7.22-3.232 7.22-7.22-.33-9.557-14.111-9.555-14.439 0-.001 3.987 3.232 7.22 7.219 7.22z" fill="#9175a7"/></g></g><g><g><path d="m35.642 330.12 4.428 4.428 16.017-16.017c1.223-1.223 1.223-3.205 0-4.428s-3.205-1.223-4.428 0z" fill="#755c8e"/><path d="m32.751 327.229c-2.819 2.819-2.819 7.391 0 10.21 6.991 6.524 16.734-3.222 10.21-10.21-2.819-2.82-7.39-2.82-10.21 0z" fill="#9175a7"/></g><g><path d="m103.908 270.71-4.428-4.428-16.017 16.017c-1.223 1.223-1.223 3.205 0 4.428s3.205 1.223 4.428 0z" fill="#755c8e"/><path d="m106.799 273.601c2.819-2.819 2.819-7.391 0-10.21-6.991-6.524-16.734 3.222-10.21 10.21 2.819 2.82 7.39 2.82 10.21 0z" fill="#9175a7"/></g></g><g><g><path d="m99.48 334.548 4.428-4.428-16.017-16.017c-1.223-1.223-3.205-1.223-4.428 0s-1.223 3.205 0 4.428z" fill="#755c8e"/><path d="m96.589 337.439c2.819 2.819 7.391 2.819 10.21 0 6.524-6.991-3.222-16.734-10.21-10.21-2.82 2.819-2.82 7.39 0 10.21z" fill="#9175a7"/></g><g><path d="m40.07 266.282-4.428 4.428 16.017 16.017c1.223 1.223 3.205 1.223 4.428 0s1.223-3.205 0-4.428z" fill="#755c8e"/><path d="m42.961 263.391c-2.819-2.819-7.391-2.819-10.21 0-6.524 6.991 3.222 16.734 10.21 10.21 2.82-2.819 2.82-7.39 0-10.21z" fill="#9175a7"/></g></g></g></g><g><g><path d="m140.63 137.394c.081 13.894-11.394 25.759-25.71 25.71-26.94-.31-35.384-35.896-12.01-48.45 16.687-9.139 37.985 3.633 37.72 22.74z" fill="#755c8e"/><path d="m140.63 137.394c0 3.65-.76 7.13-2.14 10.28-21.262 9.347-43.192-12.612-33.85-33.86 16.503-7.53 36.301 5.351 35.99 23.58z" fill="#9175a7"/></g><g><g><g><path d="m118.046 92.249h-6.262v22.652c0 1.729 1.402 3.131 3.131 3.131s3.131-1.402 3.131-3.131z" fill="#755c8e"/><path d="m122.135 92.249c0-3.987-3.232-7.22-7.22-7.22-9.557.33-9.555 14.111 0 14.439 3.987.001 7.22-3.232 7.22-7.219z" fill="#9175a7"/></g><g><path d="m111.784 182.529h6.262v-22.652c0-1.729-1.402-3.131-3.131-3.131s-3.131 1.402-3.131 3.131z" fill="#755c8e"/><path d="m107.695 182.529c0 3.987 3.232 7.22 7.22 7.22 9.557-.33 9.555-14.111 0-14.439-3.987-.001-7.22 3.232-7.22 7.219z" fill="#9175a7"/></g></g><g><g><path d="m69.775 134.258v6.262h22.652c1.729 0 3.131-1.402 3.131-3.131s-1.402-3.131-3.131-3.131z" fill="#755c8e"/><path d="m69.775 130.169c-3.987 0-7.22 3.232-7.22 7.22.33 9.557 14.111 9.555 14.439 0 .001-3.987-3.232-7.22-7.219-7.22z" fill="#9175a7"/></g><g><path d="m160.055 140.52v-6.262h-22.652c-1.729 0-3.131 1.402-3.131 3.131s1.402 3.131 3.131 3.131z" fill="#755c8e"/><path d="m160.055 144.609c3.987 0 7.22-3.232 7.22-7.22-.33-9.557-14.111-9.555-14.439 0-.001 3.987 3.232 7.22 7.219 7.22z" fill="#9175a7"/></g></g><g><g><path d="m80.782 167.094 4.428 4.428 16.017-16.017c1.223-1.223 1.223-3.205 0-4.428s-3.205-1.223-4.428 0z" fill="#755c8e"/><path d="m77.891 164.203c-2.819 2.819-2.819 7.391 0 10.21 6.991 6.524 16.734-3.222 10.21-10.21-2.819-2.82-7.39-2.82-10.21 0z" fill="#9175a7"/></g><g><path d="m149.048 107.684-4.428-4.428-16.017 16.017c-1.223 1.223-1.223 3.205 0 4.428s3.205 1.223 4.428 0z" fill="#755c8e"/><path d="m151.939 110.575c2.819-2.819 2.819-7.391 0-10.21-6.991-6.524-16.734 3.222-10.21 10.21 2.819 2.82 7.391 2.82 10.21 0z" fill="#9175a7"/></g></g><g><g><path d="m144.62 171.522 4.428-4.428-16.017-16.017c-1.223-1.223-3.205-1.223-4.428 0s-1.223 3.205 0 4.428z" fill="#755c8e"/><path d="m141.729 174.413c2.819 2.819 7.391 2.819 10.21 0 6.524-6.991-3.222-16.734-10.21-10.21-2.82 2.819-2.82 7.391 0 10.21z" fill="#9175a7"/></g><g><path d="m85.21 103.256-4.428 4.428 16.017 16.017c1.223 1.223 3.205 1.223 4.428 0s1.223-3.205 0-4.428z" fill="#755c8e"/><path d="m88.101 100.365c-2.819-2.819-7.391-2.819-10.21 0-6.524 6.991 3.222 16.734 10.21 10.21 2.82-2.819 2.82-7.39 0-10.21z" fill="#9175a7"/></g></g></g></g><g><g><path d="m255.356 36.205c.081 13.894-11.394 25.759-25.71 25.71-26.94-.31-35.384-35.896-12.01-48.45 16.688-9.139 37.986 3.633 37.72 22.74z" fill="#755c8e"/><path d="m255.356 36.205c0 3.65-.76 7.13-2.14 10.28-21.262 9.347-43.192-12.612-33.85-33.86 16.503-7.53 36.302 5.351 35.99 23.58z" fill="#9175a7"/></g><g><g><g><path d="m232.77 1.04v12.67c0 1.733-1.405 3.127-3.13 3.13-1.73 0-3.13-1.4-3.13-3.13v-12.03c2.08-.24 4.17-.45 6.26-.64z" fill="#755c8e"/></g><g><path d="m226.51 81.34h6.262v-22.651c0-1.729-1.402-3.131-3.131-3.131s-3.131 1.402-3.131 3.131z" fill="#755c8e"/><path d="m222.422 81.34c0 3.987 3.232 7.22 7.22 7.22 9.557-.33 9.555-14.111 0-14.439-3.988 0-7.22 3.232-7.22 7.219z" fill="#9175a7"/></g></g><g><g><path d="m184.501 33.069v6.262h22.652c1.729 0 3.131-1.402 3.131-3.131s-1.402-3.131-3.131-3.131z" fill="#755c8e"/><path d="m184.501 28.981c-3.987 0-7.22 3.232-7.22 7.22.33 9.557 14.111 9.555 14.439 0 .001-3.988-3.231-7.22-7.219-7.22z" fill="#9175a7"/></g><g><path d="m274.781 39.331v-6.262h-22.651c-1.729 0-3.131 1.402-3.131 3.131s1.402 3.131 3.131 3.131z" fill="#755c8e"/><path d="m274.781 43.42c3.987 0 7.22-3.232 7.22-7.22-.33-9.557-14.111-9.555-14.439 0 0 3.988 3.232 7.22 7.219 7.22z" fill="#9175a7"/></g></g><g><g><path d="m195.509 65.905 4.428 4.428 16.017-16.017c1.223-1.223 1.223-3.205 0-4.428s-3.205-1.223-4.428 0z" fill="#755c8e"/><path d="m192.618 63.014c-2.819 2.819-2.819 7.391 0 10.21 6.991 6.524 16.734-3.222 10.21-10.21-2.82-2.819-7.391-2.819-10.21 0z" fill="#9175a7"/></g><g><path d="m263.774 6.495-4.428-4.428-16.017 16.017c-1.223 1.223-1.223 3.205 0 4.428s3.205 1.223 4.428 0z" fill="#755c8e"/><path d="m266.67 9.39c-6.449 6.144-16.023-2.171-10.91-9.39 3.948-.003 7.882.086 11.79.26 1.89 2.81 1.59 6.65-.88 9.13z" fill="#9175a7"/></g></g><g><g><path d="m259.346 70.333 4.428-4.428-16.017-16.017c-1.223-1.223-3.205-1.223-4.428 0s-1.223 3.205 0 4.428z" fill="#755c8e"/><path d="m256.455 73.224c2.819 2.819 7.391 2.819 10.21 0 6.524-6.991-3.222-16.734-10.21-10.21-2.819 2.819-2.819 7.391 0 10.21z" fill="#9175a7"/></g><g><path d="m216.87 20.3c.085 2.67-3.482 4.22-5.34 2.21 0 0-2.14-2.14-2.14-2.14-2.759-2.756-10.677-10.665-13.32-13.31 2.39-.58 4.8-1.12 7.23-1.63.271.271 9.872 9.872 10.52 10.52.983 1.081 3.225 2.689 3.05 4.35z" fill="#755c8e"/><path d="m204.89 5.1c-.654 6.632-9.681 8.789-13.26 3.06 4.393-1.13 8.802-2.151 13.26-3.06z" fill="#9175a7"/></g></g></g></g><g><g><path d="m322.997 438.848c.081 13.894-11.394 25.759-25.71 25.71-26.94-.31-35.384-35.896-12.01-48.45 16.688-9.138 37.986 3.633 37.72 22.74z" fill="#755c8e"/><path d="m322.997 438.848c0 3.65-.76 7.13-2.14 10.28-21.262 9.347-43.192-12.612-33.85-33.86 16.503-7.53 36.302 5.351 35.99 23.58z" fill="#9175a7"/></g><g><g><g><path d="m300.413 393.703h-6.262v22.652c0 1.729 1.402 3.131 3.131 3.131s3.131-1.402 3.131-3.131z" fill="#755c8e"/><path d="m304.502 393.703c0-3.987-3.232-7.22-7.22-7.22-9.557.33-9.555 14.111 0 14.439 3.988.001 7.22-3.231 7.22-7.219z" fill="#9175a7"/></g><g><path d="m294.151 483.983h6.262v-22.652c0-1.729-1.402-3.131-3.131-3.131s-3.131 1.402-3.131 3.131z" fill="#755c8e"/><path d="m290.063 483.983c0 3.987 3.232 7.22 7.22 7.22 9.557-.33 9.555-14.111 0-14.439-3.988 0-7.22 3.232-7.22 7.219z" fill="#9175a7"/></g></g><g><g><path d="m252.142 435.712v6.262h22.652c1.729 0 3.131-1.402 3.131-3.131s-1.402-3.131-3.131-3.131z" fill="#755c8e"/><path d="m252.142 431.624c-3.987 0-7.22 3.232-7.22 7.22.33 9.557 14.111 9.555 14.439 0 .001-3.988-3.231-7.22-7.219-7.22z" fill="#9175a7"/></g><g><path d="m342.422 441.974v-6.262h-22.652c-1.729 0-3.131 1.402-3.131 3.131s1.402 3.131 3.131 3.131z" fill="#755c8e"/><path d="m342.422 446.063c3.987 0 7.22-3.232 7.22-7.22-.33-9.557-14.111-9.555-14.439 0 0 3.988 3.232 7.22 7.219 7.22z" fill="#9175a7"/></g></g><g><g><path d="m263.15 468.548 4.428 4.428 16.017-16.017c1.223-1.223 1.223-3.205 0-4.428s-3.205-1.223-4.428 0z" fill="#755c8e"/><path d="m260.258 465.657c-2.819 2.819-2.819 7.391 0 10.21 6.991 6.524 16.734-3.222 10.21-10.21-2.819-2.819-7.39-2.819-10.21 0z" fill="#9175a7"/></g><g><path d="m331.415 409.138-4.428-4.428-16.017 16.017c-1.223 1.223-1.223 3.205 0 4.428s3.205 1.223 4.428 0z" fill="#755c8e"/><path d="m334.306 412.03c2.819-2.819 2.819-7.391 0-10.21-6.991-6.524-16.734 3.222-10.21 10.21 2.82 2.819 7.391 2.819 10.21 0z" fill="#9175a7"/></g></g><g><g><path d="m326.987 472.976 4.428-4.428-16.017-16.017c-1.223-1.223-3.205-1.223-4.428 0s-1.223 3.205 0 4.428z" fill="#755c8e"/><path d="m324.096 475.867c2.819 2.819 7.391 2.819 10.21 0 6.524-6.991-3.222-16.734-10.21-10.21-2.819 2.82-2.819 7.391 0 10.21z" fill="#9175a7"/></g><g><path d="m267.577 404.711-4.428 4.428 16.017 16.017c1.223 1.223 3.205 1.223 4.428 0s1.223-3.205 0-4.428z" fill="#755c8e"/><path d="m270.469 401.819c-2.819-2.819-7.391-2.819-10.21 0-6.524 6.991 3.222 16.734 10.21 10.21 2.819-2.819 2.819-7.39 0-10.21z" fill="#9175a7"/></g></g></g></g><g><g><path d="m471.169 351.212c.081 13.894-11.394 25.759-25.71 25.71-26.94-.31-35.384-35.896-12.01-48.45 16.687-9.139 37.985 3.633 37.72 22.74z" fill="#755c8e"/><path d="m471.169 351.212c0 3.65-.76 7.13-2.14 10.28-21.262 9.347-43.192-12.612-33.85-33.86 16.503-7.531 36.301 5.351 35.99 23.58z" fill="#9175a7"/></g><g><g><g><path d="m448.585 306.067h-6.262v22.652c0 1.729 1.402 3.131 3.131 3.131s3.131-1.402 3.131-3.131z" fill="#755c8e"/><path d="m452.673 306.067c0-3.987-3.232-7.22-7.22-7.22-9.557.33-9.555 14.111 0 14.439 3.988 0 7.22-3.232 7.22-7.219z" fill="#9175a7"/></g><g><path d="m442.323 396.347h6.262v-22.652c0-1.729-1.402-3.131-3.131-3.131s-3.131 1.402-3.131 3.131z" fill="#755c8e"/><path d="m438.234 396.347c0 3.987 3.232 7.22 7.22 7.22 9.557-.33 9.555-14.111 0-14.439-3.988-.001-7.22 3.231-7.22 7.219z" fill="#9175a7"/></g></g><g><g><path d="m400.314 348.076v6.262h22.652c1.729 0 3.131-1.402 3.131-3.131s-1.402-3.131-3.131-3.131z" fill="#755c8e"/><path d="m400.314 343.987c-3.987 0-7.22 3.232-7.22 7.22.33 9.557 14.111 9.555 14.439 0 0-3.988-3.232-7.22-7.219-7.22z" fill="#9175a7"/></g><g><path d="m490.594 354.338v-6.262h-22.652c-1.729 0-3.131 1.402-3.131 3.131s1.402 3.131 3.131 3.131z" fill="#755c8e"/><path d="m495.69 346.09c-1.56 4.16-3.23 8.27-5 12.33-5.288.218-8.963-5.754-6.6-10.34 1.902-4.366 8.314-5.482 11.6-1.99z" fill="#9175a7"/></g></g><g><g><path d="m411.321 380.912 4.428 4.428 16.017-16.017c1.223-1.223 1.223-3.205 0-4.428s-3.205-1.223-4.428 0z" fill="#755c8e"/><path d="m408.43 378.021c-2.819 2.819-2.819 7.391 0 10.21 6.991 6.524 16.734-3.222 10.21-10.21-2.82-2.82-7.391-2.82-10.21 0z" fill="#9175a7"/></g><g><path d="m479.586 321.502-4.428-4.428-16.017 16.017c-1.223 1.223-1.223 3.205 0 4.428s3.205 1.223 4.428 0z" fill="#755c8e"/><path d="m482.477 324.393c2.819-2.819 2.819-7.391 0-10.21-6.991-6.524-16.734 3.222-10.21 10.21 2.82 2.819 7.391 2.819 10.21 0z" fill="#9175a7"/></g></g><g><g><path d="m479.54 380.86c-.05.08-.1.16-.14.24l-4.24 4.24-16.02-16.02c-1.228-1.222-1.223-3.206 0-4.43 1.22-1.22 3.21-1.22 4.43 0z" fill="#755c8e"/><path d="m481.53 377.22c-2.265 4.228-4.658 8.383-7.17 12.46-9.269-4.8-1.602-18.052 7.17-12.46z" fill="#9175a7"/></g><g><path d="m415.749 317.074-4.428 4.428 16.017 16.017c1.223 1.223 3.205 1.223 4.428 0s1.223-3.205 0-4.428z" fill="#755c8e"/><path d="m418.64 314.183c-2.819-2.819-7.391-2.819-10.21 0-6.524 6.991 3.222 16.734 10.21 10.21 2.819-2.819 2.819-7.391 0-10.21z" fill="#9175a7"/></g></g></g></g><g><g><path d="m471.169 199.877c.081 13.894-11.394 25.759-25.71 25.71-26.94-.31-35.384-35.896-12.01-48.45 16.687-9.139 37.985 3.633 37.72 22.74z" fill="#755c8e"/><path d="m471.169 199.877c0 3.65-.76 7.13-2.14 10.28-21.262 9.347-43.192-12.612-33.85-33.86 16.503-7.531 36.301 5.351 35.99 23.58z" fill="#9175a7"/></g><g><g><g><path d="m448.585 154.732h-6.262v22.652c0 1.729 1.402 3.131 3.131 3.131s3.131-1.402 3.131-3.131z" fill="#755c8e"/><path d="m452.673 154.732c0-3.987-3.232-7.22-7.22-7.22-9.557.33-9.555 14.111 0 14.439 3.988 0 7.22-3.232 7.22-7.219z" fill="#9175a7"/></g><g><path d="m442.323 245.012h6.262v-22.652c0-1.729-1.402-3.131-3.131-3.131s-3.131 1.402-3.131 3.131z" fill="#755c8e"/><path d="m438.234 245.012c0 3.987 3.232 7.22 7.22 7.22 9.557-.33 9.555-14.111 0-14.439-3.988-.001-7.22 3.232-7.22 7.219z" fill="#9175a7"/></g></g><g><g><path d="m400.314 196.741v6.262h22.652c1.729 0 3.131-1.402 3.131-3.131s-1.402-3.131-3.131-3.131z" fill="#755c8e"/><path d="m400.314 192.652c-3.987 0-7.22 3.232-7.22 7.22.33 9.557 14.111 9.555 14.439 0 0-3.987-3.232-7.22-7.219-7.22z" fill="#9175a7"/></g><g><path d="m490.594 203.003v-6.262h-22.652c-1.729 0-3.131 1.402-3.131 3.131s1.402 3.131 3.131 3.131z" fill="#755c8e"/><path d="m490.594 207.091c3.987 0 7.22-3.232 7.22-7.22-.33-9.557-14.111-9.555-14.439 0-.001 3.988 3.231 7.22 7.219 7.22z" fill="#9175a7"/></g></g><g><g><path d="m411.321 229.577 4.428 4.428 16.017-16.017c1.223-1.223 1.223-3.205 0-4.428s-3.205-1.223-4.428 0z" fill="#755c8e"/><path d="m408.43 226.686c-2.819 2.819-2.819 7.391 0 10.21 6.991 6.524 16.734-3.222 10.21-10.21-2.82-2.82-7.391-2.82-10.21 0z" fill="#9175a7"/></g><g><path d="m479.586 170.167-4.428-4.428-16.017 16.017c-1.223 1.223-1.223 3.205 0 4.428s3.205 1.223 4.428 0z" fill="#755c8e"/><path d="m482.477 173.058c2.819-2.819 2.819-7.391 0-10.21-6.991-6.524-16.734 3.222-10.21 10.21 2.82 2.82 7.391 2.82 10.21 0z" fill="#9175a7"/></g></g><g><g><path d="m475.158 234.005 4.428-4.428-16.017-16.017c-1.223-1.223-3.205-1.223-4.428 0s-1.223 3.205 0 4.428z" fill="#755c8e"/><path d="m472.267 236.896c2.819 2.819 7.391 2.819 10.21 0 6.524-6.991-3.222-16.734-10.21-10.21-2.819 2.819-2.819 7.39 0 10.21z" fill="#9175a7"/></g><g><path d="m415.749 165.739-4.428 4.428 16.017 16.017c1.223 1.223 3.205 1.223 4.428 0s1.223-3.205 0-4.428z" fill="#755c8e"/><path d="m418.64 162.848c-2.819-2.819-7.391-2.819-10.21 0-6.524 6.991 3.222 16.734 10.21 10.21 2.819-2.819 2.819-7.391 0-10.21z" fill="#9175a7"/></g></g></g></g><g><g><path d="m426.4 64.95c-8.726-7.793-18.008-14.991-27.73-21.54h-.01l-3.61-2.39c-19.704 7.965-21.711 35.323-3.36 46.04h.01c15.612 9.299 36.105-.686 38.46-18.69z" fill="#755c8e"/><path d="m426.4 64.95c-8.726-7.793-18.008-14.991-27.73-21.54h-.01l-3.61-2.39c-1.29.52-2.52 1.14-3.69 1.85-6.43 22.316 18.23 41.143 38.06 29.05.33-1.15.58-2.34.74-3.55z" fill="#9175a7"/></g><g><g><g><path d="m401.99 45.69c-1.53.16-2.93-.83-3.32-2.28 1.12.75 2.22 1.51 3.32 2.28z" fill="#755c8e"/></g><g><path d="m407.596 110.024 6.206-.835-3.02-22.45c-.231-1.714-1.807-2.916-3.52-2.686-1.714.231-2.916 1.807-2.686 3.52z" fill="#755c8e"/><path d="m403.544 110.569c.532 3.952 4.166 6.724 8.118 6.193 9.428-1.601 7.588-15.258-1.925-14.31-3.952.531-6.725 4.165-6.193 8.117z" fill="#9175a7"/></g></g><g><g><path d="m359.527 67.784.835 6.206 22.45-3.02c1.714-.231 2.916-1.807 2.686-3.521s-1.807-2.916-3.521-2.686z" fill="#755c8e"/><path d="m358.982 63.732c-3.952.532-6.724 4.166-6.193 8.118 1.601 9.428 15.258 7.588 14.31-1.925-.531-3.952-4.166-6.725-8.117-6.193z" fill="#9175a7"/></g><g><path d="m426.4 64.95c-1.12-.21-2.06-1.02-2.41-2.12.81.7 1.62 1.41 2.41 2.12z" fill="#755c8e"/></g></g><g><g><path d="m374.813 98.859 4.979 3.798 13.739-18.01c1.049-1.375.785-3.34-.59-4.388-1.375-1.049-3.34-.785-4.388.59z" fill="#755c8e"/><path d="m371.563 96.38c-2.418 3.17-1.809 7.701 1.361 10.119 7.799 5.534 16.155-5.424 8.758-11.48-3.171-2.419-7.701-1.81-10.119 1.361z" fill="#9175a7"/></g></g><g><g><path d="m438.671 94.737 3.798-4.979-18.009-13.738c-1.375-1.049-3.34-.785-4.388.59s-.785 3.34.59 4.388z" fill="#755c8e"/><path d="m436.192 97.988c3.17 2.418 7.701 1.809 10.119-1.361 5.534-7.799-5.424-16.155-11.48-8.758-2.419 3.17-1.81 7.701 1.361 10.119z" fill="#9175a7"/></g><g><path d="m370.691 35.001-3.798 4.979 18.01 13.739c1.375 1.049 3.34.785 4.388-.59 1.049-1.375.785-3.34-.59-4.388z" fill="#755c8e"/><path d="m373.171 31.751c-3.17-2.418-7.701-1.809-10.119 1.361-5.534 7.799 5.424 16.155 11.48 8.758 2.419-3.171 1.809-7.701-1.361-10.119z" fill="#9175a7"/></g></g></g></g><g><g><path d="m140.47 465.23c-.689 5.755-3.415 11.296-7.57 15.28-1.49-.82-2.95-1.65-4.41-2.49-13.147-7.548-25.583-16.279-37.19-26.03 4.75-11.446 17.914-17.966 29.86-14.84 12.451 2.973 20.988 15.397 19.31 28.08z" fill="#755c8e"/><path d="m140.47 465.23c-.534 4.507-2.378 9.005-5.13 12.55-2.22.39-4.53.48-6.85.24-6.71-3.848-13.248-8.02-19.56-12.47-5.267-8.368-4.668-20.9 1.74-28.8 16.705-3.009 32.036 11.647 29.8 28.48z" fill="#9175a7"/></g><g><g><g><path d="m128.89 419.059-6.077-1.513-5.472 21.981c-.418 1.678.604 3.377 2.282 3.795s3.377-.604 3.795-2.282z" fill="#755c8e"/><path d="m132.857 420.047c.963-3.869-1.392-7.787-5.262-8.75-9.354-1.988-12.681 11.384-3.488 14.012 3.869.963 7.787-1.393 8.75-5.262z" fill="#9175a7"/></g></g><g><g><path d="m96.17 455.98c-1.06-.84-2.1-1.69-3.15-2.56 1.496.225 2.838 1.039 3.15 2.56z" fill="#755c8e"/></g><g><path d="m157.993 476.049 1.513-6.077-21.981-5.472c-1.678-.418-3.377.604-3.795 2.282s.604 3.377 2.282 3.795z" fill="#755c8e"/><path d="m157.005 480.017c3.869.963 7.787-1.392 8.75-5.262 1.988-9.354-11.384-12.681-14.012-3.488-.963 3.869 1.393 7.786 5.262 8.75z" fill="#9175a7"/></g></g><g><g><path d="m155.244 441.527-3.227-5.367-19.412 11.673c-1.482.891-1.961 2.815-1.07 4.297s2.815 1.961 4.297 1.07z" fill="#755c8e"/><path d="m157.351 445.03c3.417-2.055 4.521-6.491 2.467-9.908-5.208-8.02-17.016-.917-12.374 7.441 2.054 3.418 6.49 4.522 9.907 2.467z" fill="#9175a7"/></g></g><g><g><path d="m94.367 421.808-5.367 3.227 11.673 19.412c.891 1.482 2.815 1.961 4.297 1.07s1.961-2.815 1.07-4.297z" fill="#755c8e"/><path d="m97.871 419.701c-2.055-3.417-6.491-4.521-9.908-2.467-8.02 5.208-.917 17.016 7.441 12.374 3.417-2.055 4.522-6.49 2.467-9.907z" fill="#9175a7"/></g></g></g></g></g><g><g><g><g><path d="m357.719 209.558v150.937c0 6.038-3.641 11.215-8.846 13.473h-.007c-1.786.771-3.752 1.202-5.823 1.202h-174.09c-2.071 0-4.037-.431-5.823-1.202-5.204-2.251-8.852-7.435-8.852-13.473v-150.937l101.72-102.03z" fill="#fbcb74"/><path d="m357.719 209.558v150.937c0 6.038-3.641 11.215-8.846 13.473h-.007c-5.198-2.258-8.846-7.435-8.846-13.473v-150.937c0-6.031 3.648-11.208 8.846-13.473h.007c5.205 2.258 8.846 7.442 8.846 13.473z" fill="#faefdc"/><path d="m171.976 209.558v150.937c0 6.038-3.641 11.222-8.846 13.473-5.204-2.251-8.852-7.435-8.852-13.473v-150.937c0-6.031 3.648-11.215 8.852-13.473 5.205 2.258 8.846 7.442 8.846 13.473z" fill="#deb36f"/><path d="m317.905 201.717c0 4.887-3.962 8.849-8.849 8.849h-106.116c-4.887 0-8.849-3.962-8.849-8.849s3.962-8.849 8.849-8.849h106.116c4.887 0 8.849 3.962 8.849 8.849z" fill="#fbd9a3"/><path d="m330.855 210.566h-149.713c-5.062 0-9.166 4.104-9.166 9.166v130.591c0 5.062 4.104 9.166 9.166 9.166h149.713c5.062 0 9.166-4.104 9.166-9.166v-130.591c-.001-5.062-4.104-9.166-9.166-9.166z" fill="#c0405c"/></g><g><path d="m394.803 231.647c0 3.148-1.202 6.288-3.599 8.686-4.822 4.822-12.653 4.795-17.441-.063l-109.017-110.649c-4.808-4.885-12.688-4.885-17.497 0l-109.015 110.65c-2.404 2.439-5.58 3.662-8.748 3.662-3.148 0-6.295-1.202-8.693-3.599-4.051-4.051-4.676-10.228-1.89-14.939.514-.869 1.146-1.688 1.89-2.432l126.54-126.535c4.794-4.801 12.577-4.795 17.371 0l126.499 126.534c.743.744 1.376 1.563 1.89 2.432 1.14 1.925 1.71 4.086 1.71 6.253z" fill="#e9465e"/><path d="m393.094 225.394c-.514.869-1.146 1.689-1.89 2.432v.007c-4.822 4.822-12.653 4.788-17.441-.07l-109.017-110.649c-4.808-4.885-12.688-4.885-17.497 0l-109.015 110.649c-2.404 2.439-5.58 3.662-8.755 3.662-3.148 0-6.288-1.195-8.686-3.592-.75-.75-1.376-1.57-1.89-2.439.514-.869 1.146-1.688 1.89-2.432l126.54-126.534c4.794-4.801 12.577-4.795 17.371 0l126.499 126.534c.744.743 1.377 1.563 1.891 2.432z" fill="#ee6781"/><g fill="#f789a1"><path d="m169.748 185.269-.359-.352c-2.932-2.878-2.954-7.594-.049-10.499l47.688-47.685c2.868-2.868 7.511-2.888 10.404-.046 2.914 2.863 2.952 7.547.085 10.457l-47.328 48.037c-2.862 2.903-7.533 2.942-10.441.088z"/><path d="m342.257 185.267.351-.344c2.939-2.881 2.963-7.607.053-10.517l-47.659-47.672c-2.869-2.87-7.513-2.894-10.412-.055-2.926 2.866-2.968 7.564-.094 10.481l47.308 48.016c2.864 2.907 7.539 2.947 10.453.091z"/></g></g></g><g><path d="m339.805 113.41v58.139l-23.34-23.347v-34.792c0-3.252 2.633-5.885 5.878-5.885h11.583c3.246 0 5.879 2.633 5.879 5.885z" fill="#c0405c"/><path d="m339.805 113.41v49.509l-9.401-9.408c-3.405-3.398-5.309-8.012-5.309-12.813v-27.288c0-3.252 2.634-5.885 5.879-5.885h2.953c3.245 0 5.878 2.633 5.878 5.885z" fill="#e9465e"/></g></g><g><g><path d="m318.46 258.977v68.515c0 2.314-.62 4.484-1.702 6.353-1.407 2.441-3.61 4.373-6.25 5.431-1.463.596-3.069.922-4.747.922h-99.517c-1.686 0-3.292-.326-4.755-.922-2.64-1.065-4.842-2.99-6.25-5.431-1.081-1.868-1.702-4.039-1.702-6.353v-68.515c0-5.335 3.284-9.907 7.951-11.784 1.463-.596 3.069-.922 4.755-.922h99.517c1.678 0 3.284.326 4.747.922 4.661 1.877 7.953 6.441 7.953 11.784z" fill="#d48d77"/><path d="m209.442 258.977v68.515c0 5.343-3.292 9.907-7.951 11.784-4.667-1.876-7.951-6.448-7.951-11.784v-68.515c0-5.335 3.284-9.907 7.951-11.784 4.659 1.877 7.951 6.441 7.951 11.784z" fill="#c17e62"/><path d="m318.46 258.977v68.515c0 2.314-.62 4.484-1.702 6.353-1.407 2.441-3.61 4.373-6.25 5.431-2.64-1.065-4.842-2.99-6.25-5.431-1.081-1.868-1.702-4.039-1.702-6.353v-68.515c0-5.335 3.284-9.907 7.951-11.784 4.661 1.877 7.953 6.441 7.953 11.784z" fill="#eea47d"/><path d="m316.759 333.845c-2.194 3.801-6.297 6.353-10.996 6.353h-99.517c-1.686 0-3.292-.326-4.755-.922-2.64-1.065-4.842-2.99-6.25-5.431 1.407-2.441 3.61-4.365 6.25-5.431 1.463-.596 3.069-.922 4.755-.922h99.517c4.698 0 8.801 2.552 10.996 6.353z" fill="#a26d5a"/></g><g><path d="m303.132 298.758h-94.263c-8.466 0-15.329-6.863-15.329-15.329v-7.024h124.92v7.024c0 8.466-6.863 15.329-15.328 15.329z" fill="#a26d5a"/><path d="m318.46 258.977v21.039c0 5.526-4.484 10.011-10.01 10.011h-104.9c-5.526 0-10.011-4.484-10.011-10.011v-21.039c0-5.335 3.284-9.907 7.951-11.784 1.463-.596 3.069-.922 4.755-.922h99.517c1.678 0 3.284.326 4.747.922 4.659 1.877 7.951 6.441 7.951 11.784z" fill="#c17e62"/><path d="m209.442 258.977v31.049h-5.892c-5.526 0-10.011-4.484-10.011-10.011v-21.039c0-5.335 3.284-9.907 7.951-11.784 4.66 1.878 7.952 6.442 7.952 11.785z" fill="#a26d5a"/><path d="m318.46 258.977v21.039c0 5.526-4.484 10.011-10.01 10.011h-5.892v-31.049c0-5.335 3.284-9.907 7.951-11.784 4.659 1.876 7.951 6.44 7.951 11.783z" fill="#d48d77"/><path d="m289.193 252.962h-66.387c-3.847 0-6.965 3.118-6.965 6.965s3.118 6.965 6.965 6.965h66.387c3.847 0 6.965-3.118 6.965-6.965 0-3.846-3.118-6.965-6.965-6.965z" fill="#d48d77"/><path d="m285.473 261.908h-42.046c-2.47 0-4.473-2.003-4.473-4.473s2.003-4.473 4.473-4.473h42.046c2.47 0 4.473 2.003 4.473 4.473 0 2.471-2.003 4.473-4.473 4.473z" fill="#eea47d"/></g><g><g><path d="m226.116 277.463c-.898-.668-2.012-1.058-3.22-1.058h-8.015c-1.201 0-2.314.39-3.212 1.058-1.352.978-2.226 2.576-2.226 4.381v16.363c0 1.805.875 3.403 2.226 4.381.898.668 2.012 1.057 3.212 1.057h8.015c1.209 0 2.322-.39 3.22-1.057 1.344-.986 2.218-2.584 2.218-4.381v-16.363c0-1.797-.875-3.395-2.218-4.381zm-2.225 18.127c0 1.75-1.419 3.168-3.168 3.168h-3.665c-1.75 0-3.168-1.419-3.168-3.168v-11.128c0-1.75 1.419-3.168 3.168-3.168h3.665c1.75 0 3.168 1.419 3.168 3.168z" fill="#f9c744"/><path d="m228.334 281.844v16.363c0 1.797-.875 3.395-2.218 4.381-1.352-.986-2.226-2.584-2.226-4.381v-16.363c0-1.797.875-3.395 2.226-4.381 1.343.986 2.218 2.584 2.218 4.381z" fill="#fad98f"/><path d="m213.887 281.844v16.363c0 1.797-.875 3.395-2.218 4.381-1.352-.978-2.226-2.576-2.226-4.381v-16.363c0-1.805.875-3.403 2.226-4.381 1.343.986 2.218 2.584 2.218 4.381z" fill="#f39e22"/><path d="m226.116 277.463c-.898-.668-2.012-1.058-3.22-1.058h-5.113c.291 1.79.977 3.446 1.953 4.888h.987c1.75 0 3.168 1.419 3.168 3.168v.663c1.345.758 2.844 1.277 4.443 1.482v-4.763c0-1.796-.875-3.394-2.218-4.38z" fill="#faefdc"/></g><g><path d="m300.34 277.463c-.898-.668-2.012-1.058-3.22-1.058h-8.015c-1.201 0-2.314.39-3.212 1.058-1.352.978-2.226 2.576-2.226 4.381v16.363c0 1.805.875 3.403 2.226 4.381.898.668 2.012 1.057 3.212 1.057h8.015c1.209 0 2.322-.39 3.22-1.057 1.344-.986 2.218-2.584 2.218-4.381v-16.363c0-1.797-.875-3.395-2.218-4.381zm-2.225 18.127c0 1.75-1.419 3.168-3.168 3.168h-3.665c-1.75 0-3.168-1.419-3.168-3.168v-11.128c0-1.75 1.419-3.168 3.168-3.168h3.665c1.75 0 3.168 1.419 3.168 3.168z" fill="#f9c744"/><path d="m302.558 281.844v16.363c0 1.797-.875 3.395-2.218 4.381-1.352-.986-2.226-2.584-2.226-4.381v-16.363c0-1.797.875-3.395 2.226-4.381 1.343.986 2.218 2.584 2.218 4.381z" fill="#fad98f"/><path d="m288.111 281.844v16.363c0 1.797-.875 3.395-2.218 4.381-1.352-.978-2.226-2.576-2.226-4.381v-16.363c0-1.805.875-3.403 2.226-4.381 1.343.986 2.218 2.584 2.218 4.381z" fill="#f39e22"/><path d="m300.34 277.463c-.898-.668-2.012-1.058-3.22-1.058h-5.113c.291 1.79.977 3.446 1.953 4.888h.987c1.75 0 3.168 1.419 3.168 3.168v.663c1.345.758 2.844 1.277 4.443 1.482v-4.763c0-1.796-.875-3.394-2.218-4.38z" fill="#faefdc"/></g></g><g><path d="m283.666 234.4v11.871h-9.533v-7.554c0-4.182-3.395-7.577-7.585-7.577h-21.086c-4.19 0-7.585 3.395-7.585 7.577v7.554h-9.533v-11.871c0-1.248.199-2.449.557-3.57 1.511-4.707 5.924-8.118 11.132-8.118h31.948c5.208 0 9.621 3.411 11.132 8.118.354 1.121.553 2.321.553 3.57z" fill="#a26d5a"/><path d="m283.109 230.83c-1.272 4.532-4.628 8.182-8.977 9.859v-1.972c0-4.182-3.395-7.577-7.585-7.577h-21.086c-4.19 0-7.585 3.395-7.585 7.577v1.972c-1.956-.755-3.713-1.908-5.168-3.363-1.781-1.781-3.109-4.007-3.809-6.496 1.511-4.707 5.924-8.118 11.132-8.118h31.948c5.207 0 9.62 3.411 11.13 8.118z" fill="#c17e62"/><path d="m271.783 231.14h-24.513c-2.278 0-4.124-1.846-4.124-4.124v-.18c0-2.278 1.846-4.124 4.124-4.124h24.513c2.278 0 4.124 1.846 4.124 4.124v.18c0 2.277-1.846 4.124-4.124 4.124z" fill="#d48d77"/></g></g></g></g></svg>