<svg id="Capa_1" enable-background="new 0 0 512 512" height="512" viewBox="0 0 512 512" width="512" xmlns="http://www.w3.org/2000/svg"><g><g><path d="m422.98 171.749-27.15 57.695-9.759 11.462-117.947-117.947 38.734-14.611 33.391-19.33 42.549 37.543z" fill="#7dc3ee"/><path d="m340.246 89.022-72.12 33.94 58.162 67.599 62.748 53.311 6.79-14.43-97.976-97.976c-1.959-1.959-1.382-5.268 1.125-6.448l52.541-24.727-.207-8.114z" fill="#64acdc"/><path d="m415.448 114.933 16.231-13.679 67.848-67.985c5.875-5.888 5.865-15.422-.023-21.299-5.888-5.875-15.468-4.49-21.343 1.398l-80.045 82.215z" fill="#7dc3ee"/><path d="m369.947 290.25 3.534-2.534 15.558-15.558c7.81-7.81 7.81-20.474 0-28.284l-120.915-120.915c-1.222-1.222-2.562-2.253-3.985-3.092-7.669-4.527-17.711-1.497-24.3 5.092l-18.092 17.092c-3.905 3.905-3.905 10.237 0 14.142l134.058 134.057c3.905 3.906 10.237 3.906 14.142 0z" fill="#f8f7f7"/><path d="m239.836 122.962-19.09 19.09c-3.9 3.9-3.9 10.24 0 14.14l135.06 135.06c3.9 3.9 10.24 3.9 14.14 0l3.53-3.54-135.054-135.055c-1.953-1.953-1.953-5.118 0-7.071l25.714-25.714c-7.67-4.53-17.71-3.5-24.3 3.09z" fill="#e8e8e8"/><path d="m499.496 11.962-76.398 76.472c-1.171 1.172-1.17 3.07.001 4.242l8.577 8.577-14.94 14.97-20.29-22.3 81.76-81.93c5.87-5.881 15.4-5.901 21.29-.031z" fill="#64acdc"/><path d="m437.829 156.9-4.243 4.243-14.058 7.156-77.447-77.447 13.313-13.652c6.591-6.591 16.342-10.651 24.012-6.118 1.419.839 2.757 1.868 3.976 3.087l54.447 54.447c7.811 7.81 7.811 20.474 0 28.284z" fill="#7dc3ee"/><path d="m355.096 74.172-14.85 14.85 82.73 82.73 10.61-10.61-69.999-69.999c-1.172-1.172-1.172-3.071 0-4.243l15.819-15.819c-7.67-4.529-17.72-3.499-24.31 3.091z" fill="#64acdc"/><g><path d="m280.607 278.582-32.826 33.337 18.574 18.574 11.317-8.487 24.393-24.393c5.858-5.858 5.858-15.355 0-21.213-.238-.238-.483-.467-.733-.686-5.892-5.161-15.106-2.751-20.725 2.868z" fill="#ffd163"/><path d="m291.456 272.012c-3.84 0-7.67 1.46-10.6 4.39l-36.098 36.088 21.21 21.22 11.698-11.708-9.189-9.189c-1.172-1.172-1.172-3.071 0-4.243l32.849-32.849c-2.82-2.479-6.34-3.709-9.87-3.709z" fill="#ffb65f"/></g><g><path d="m213.43 211.406-32.826 33.337 18.574 18.574 11.317-8.486 24.393-24.393c5.858-5.858 5.858-15.355 0-21.213-.238-.238-.483-.467-.733-.686-5.892-5.163-15.105-2.753-20.725 2.867z" fill="#ffd163"/><path d="m224.279 204.835c-3.84 0-7.67 1.46-10.6 4.39l-36.098 36.088 21.21 21.22 11.698-11.708-9.189-9.189c-1.172-1.172-1.172-3.071 0-4.243l32.849-32.849c-2.819-2.479-6.34-3.709-9.87-3.709z" fill="#ffb65f"/></g><g><path d="m96.12 397.705-82.194 81.303c-2.933 2.94-4.4 6.789-4.4 10.638 0 3.86.175 5.76 3.123 8.702 5.665 5.653 14.407 7.681 20.317 2.443.232-.206.46-.42.682-.643l82.073-82.24z" fill="#b3e59f"/><path d="m94.726 396.312 10.46 10.77-77.253 77.372c-3.12 3.125-3.118 8.187.004 11.309l5.029 5.029c-5.91 5.24-14.95 5.04-20.62-.62-2.95-2.94-4.42-6.8-4.42-10.66 0-3.85 1.47-7.7 4.4-10.64z" fill="#95d6a4"/><path d="m75.458 355.178 14.61-13.588 45.241 39.439 36.295 42.097-14.849 14.849c-1.222 1.222-2.563 2.253-3.985 3.092-7.669 4.527-17.425 1.955-24.014-4.634l-53.298-52.971c-7.81-7.81-7.81-20.473 0-28.284z" fill="#b3e59f"/><path d="m88.876 340.392-14.85 14.85c-7.81 7.81-7.81 20.48 0 28.29l54.44 54.44c6.59 6.59 16.63 7.62 24.3 3.09l-68.14-68.14c-1.27-1.27-1.46-2.76-1.46-3.54 0-.77.19-2.26 1.46-3.53l14.85-14.86-1.273-6.218z" fill="#95d6a4"/><path d="m91.054 340.392 34.472-69.41 59.145 51.069 59.058 67.134-57.7 27.153-13.614 5.202z" fill="#b3e59f"/><path d="m122.816 268.272-33.94 72.12 82.73 82.73 14.42-6.79-77.102-77.102c-1.193-1.193-1.509-3.005-.791-4.531l25.953-55.156-3.202-7.449z" fill="#95d6a4"/><path d="m141.905 222.893-17.092 17.092c-7.81 7.81-7.81 20.474 0 28.284l119.915 119.915c6.59 6.59 15.635 8.62 23.305 4.089 1.42-.839 2.759-1.869 3.98-3.089l19.092-19.092c3.905-3.905 3.905-10.237 0-14.142l-131.529-131.528-3.529-1.529c-3.905-3.905-10.237-3.905-14.142 0z" fill="#f8f7f7"/><path d="m141.906 220.892-19.09 19.09c-7.81 7.81-7.81 20.48 0 28.29l120.91 120.91c6.59 6.59 16.64 7.62 24.31 3.09l-134.62-134.61c-1.27-1.27-1.46-2.76-1.46-3.53 0-.78.19-2.27 1.46-3.54l26.16-26.17-3.53-3.53c-3.9-3.9-10.24-3.9-14.14 0z" fill="#e8e8e8"/></g></g><g><path d="m292.178 265.219c-6.012 0-11.664 2.342-15.915 6.592l-29.354 29.354-35.367-35.367 29.355-29.354c8.775-8.776 8.775-23.054 0-31.83s-23.054-8.776-31.83 0l-29.355 29.354-18.391-18.391c-3.306-3.306-7.702-5.127-12.379-5.127-4.676 0-9.072 1.821-12.378 5.127l-19.098 19.098c-8.385 8.265-11.078 23.48-3.483 34.655l-31.395 66.713-13.928 13.928c-10.726 10.726-10.726 28.178 0 38.903l11.103 11.103-24.171 24.119c-2.933 2.927-2.938 7.677-.011 10.61 2.342 2.165 6.714 3.41 10.61.011l24.182-24.131 10.696 10.696-73.314 73.158c-2.257 2.149-6.888 3.42-10.696-.012-2.148-2.254-3.421-6.891.012-10.695l24.337-24.285c2.933-2.927 2.938-7.677.011-10.61-2.927-2.932-7.677-2.938-10.61-.011l-24.338 24.286c-7.992 7.705-9.229 22.932-.035 31.916 7.703 7.991 22.935 9.23 31.916.035l73.327-73.169 11.446 11.446c10.02 9.97 27.64 11.154 38.903 0l13.928-13.928 66.713-31.395c9.482 6.594 25.389 6.106 34.655-3.484l19.098-19.098c3.306-3.306 5.127-7.702 5.127-12.378s-1.821-9.072-5.127-12.379l-17.684-17.684 29.354-29.354c4.251-4.251 6.593-9.904 6.593-15.915s-2.342-11.664-6.592-15.915c-4.251-4.25-9.903-6.592-15.915-6.592zm-72.502-49.995c2.926-2.925 7.686-2.925 10.61 0 2.925 2.925 2.925 7.685 0 10.61l-29.355 29.354-10.61-10.61zm-70.901 195.765 12.192 12.192-9.549 9.549c-4.876 4.876-12.808 4.876-17.684 0l-54.465-54.465c-4.875-4.876-4.875-12.808 0-17.684l9.549-9.549 35.2 35.2c2.93 2.93 7.68 2.93 10.61 0s2.93-7.68 0-10.61l-36.776-36.776 27.162-57.719 105.858 105.858-57.719 27.162-13.769-13.769c-2.93-2.93-7.68-2.93-10.61 0-2.929 2.931-2.929 7.681.001 10.611zm137.769-47.931c0 .387-.095 1.131-.733 1.768l-19.098 19.098c-3.95 3.886-12.094 5.471-17.684 0l-120.953-120.954c-3.886-3.951-5.471-12.094 0-17.684l19.098-19.098c.637-.637 1.381-.732 1.768-.732s1.131.095 1.769.732l135.101 135.102c.638.637.732 1.381.732 1.768zm10.939-70.027-29.354 29.354-10.61-10.61 29.355-29.354c1.417-1.417 3.301-2.197 5.304-2.197 2.004 0 3.888.781 5.305 2.198 1.416 1.417 2.197 3.301 2.197 5.304.001 2.004-.78 3.888-2.197 5.305z"/><path d="m505.418 7.117c-8.793-8.81-23.109-8.823-31.916-.034l-73.326 73.169-11.446-11.447c-10.726-10.727-28.179-10.725-38.903 0l-13.928 13.928-66.715 31.395c-9.482-6.594-25.389-6.106-34.654 3.484l-19.098 19.098c-3.306 3.306-5.127 7.702-5.127 12.378s1.821 9.072 5.127 12.379l34.666 34.666c2.929 2.929 7.68 2.93 10.61 0s2.93-7.68 0-10.61l-34.666-34.666c-.637-.637-.732-1.381-.732-1.769 0-.387.095-1.131.732-1.768l19.098-19.098c3.95-3.886 12.093-5.471 17.683 0l120.955 120.954c4.875 4.876 4.875 12.809.001 17.684l-19.1 19.099c-.637.637-1.38.732-1.767.732s-1.131-.095-1.768-.732l-75.679-75.679c-2.931-2.93-7.68-2.93-10.611 0-2.93 2.93-2.93 7.68 0 10.61l75.679 75.679c3.307 3.306 7.703 5.127 12.379 5.127s9.072-1.821 12.377-5.127l19.1-19.099c9.4-9.402 10.559-23.97 3.48-34.648l31.396-66.719 13.929-13.929c10.725-10.726 10.725-28.178 0-38.903l-11.103-11.103 17.931-17.892c2.933-2.927 2.938-7.677.011-10.61-2.928-2.933-7.678-2.937-10.61-.011l-17.942 17.903-10.695-10.695 73.315-73.158c2.953-2.944 7.751-2.939 10.696.012 2.945 2.952 2.939 7.751-.013 10.696l-30.346 30.28c-2.933 2.927-2.937 7.677-.011 10.61 2.927 2.934 7.677 2.937 10.61.012l30.346-30.281c8.809-8.791 8.825-23.109.035-31.917zm-224.436 118.043 57.718-27.162 75.302 75.302-27.161 57.718zm151.602 26.404-9.549 9.549-72.149-72.149 9.549-9.549h.001c4.876-4.876 12.809-4.875 17.683 0l54.465 54.465c4.876 4.876 4.876 12.808 0 17.684z"/></g></g></svg>