<svg id="Layer_1" height="512" viewBox="0 0 512 512" width="512" xmlns="http://www.w3.org/2000/svg" data-name="Layer 1"><path d="m310.91 295.13a53.722 53.722 0 0 0 -10.73-13.99 52.858 52.858 0 0 0 -12.7-8.86l-38.58-13.04-35.71-12.06v24.14l-.06.04a58.613 58.613 0 0 1 -67.89-.04v-24.14l-35.44 11.96-38.94 13.14a53.874 53.874 0 0 0 -29.57 43.7v88.09h216.85a108.187 108.187 0 0 1 -1.19-16 106.982 106.982 0 0 1 53.97-92.93z" fill="#56568c"/><g fill="#6c63b5"><path d="m310.91 295.13.01.01a107.189 107.189 0 0 0 -27.46 22.43 68.46 68.46 0 0 1 16.72-36.43 53.722 53.722 0 0 1 10.73 13.99z"/><path d="m254.53 292.27-41.34-38.25v149.08.97h17.8v-.62l19.45-79.76-10.59-13.3z"/><path d="m103.8 292.27 14.69 18.12-10.59 13.3 19.45 79.76v.62h17.89v-.97-149.17z"/><path d="m76.07 327.43v76.64h-34.78v-88.09a53.845 53.845 0 0 1 17.23-35.19 70.724 70.724 0 0 1 17.55 46.64z"/></g><path d="m213.13 271.36a58.613 58.613 0 0 1 -67.89-.04v132.75h67.95v-132.75z" fill="#6994fe"/><path d="m255.64 222.1a76.162 76.162 0 0 1 -6.67 36.93l-.07.21-35.71-12.06v-20.97c22.21-13.97 37.54-40.5 38.41-67.18h1.25c.3 0 .6-.01.9-.02v35.71z" fill="#4a5160"/><path d="m135.04 31.47c4.9 17.15 9.75 30.28 18.1 40.05-15.39 6.1-37.52 20.56-48.18 54.41l-1.88-27.3a76.383 76.383 0 0 1 31.8-67.47 1.525 1.525 0 0 1 .16.31z" fill="#4a5160"/><path d="m254.25 77.82a76.892 76.892 0 0 1 1.39 20.81l-1.88 27.27c-27.13-2.89-34.13-31.26-34.13-31.26-35.85-2.2-54.67-9.3-66.49-23.12-8.35-9.77-13.2-22.9-18.1-40.05a1.525 1.525 0 0 0 -.16-.31s41.02-26.57 77.2-6.92c10.32 5.6 20 12.53 27.29 21.73a76.562 76.562 0 0 1 14.88 31.85z" fill="#6d7486"/><path d="m213.19 226.21a61.661 61.661 0 0 1 -67.83-.11c-22.12-14-37.38-40.46-38.24-67.07h-1.3c-.29 0-.58-.01-.87-.02a18.406 18.406 0 0 1 -17-22.77c1.91-7.8 9.5-11.54 16.43-10.23h.59l-.01-.08c10.66-33.85 32.79-48.31 48.18-54.41 11.82 13.82 30.64 20.92 66.49 23.12 0 0 7 28.37 34.13 31.26v.01h.53a14.033 14.033 0 0 1 16.43 10.33 18.71 18.71 0 0 1 .53 4.39 18.406 18.406 0 0 1 -17.5 18.38c-.3.01-.6.02-.9.02h-1.25c-.87 26.68-16.2 53.21-38.41 67.18z" fill="#ffd8b7"/><path d="m145.36 226.1-.12.18v20.9l-35.44 11.96a75.964 75.964 0 0 1 -6.73-37.04l1.88-27.29v-35.8c.29.01.58.02.87.02h1.3c.86 26.61 16.12 53.07 38.24 67.07z" fill="#4a5160"/><path d="m179.265 236.315a63.575 63.575 0 0 1 -34.073-10.215l-.192.183v45.04c21 14.45 47.575 14.47 67.915.04l.085-.04v-45.123a62.783 62.783 0 0 1 -33.735 10.115z" fill="#efc597"/><path d="m363.83 281.13a106.935 106.935 0 1 1 -106.88 106.94 106.91 106.91 0 0 1 106.88-106.94z" fill="#5fcda4"/><path d="m341 433v28.57a1.342 1.342 0 0 0 1.46 1.43h43.88a1.509 1.509 0 0 0 1.66-1.43v-28.57z" fill="#4a5160"/><path d="m364.89 312.48a52.284 52.284 0 0 0 -35.89 90.81 36.625 36.625 0 0 1 8.855 12.35 37.455 37.455 0 0 1 3.145 14.85v2.51h47v-2.55a37.486 37.486 0 0 1 12.1-27.42 52.284 52.284 0 0 0 -35.21-90.55z" fill="#eadf53"/><path d="m362 395.78a8.325 8.325 0 1 1 2.22.3 8.149 8.149 0 0 1 -2.22-.3z" fill="#edb740"/><path d="m286.95 388.07a106.938 106.938 0 0 1 91.88-105.887 106.935 106.935 0 1 0 0 211.764 106.936 106.936 0 0 1 -91.88-105.877z" fill="#4faa85"/><path d="m175.36 226.1c-22.12-14-37.38-40.46-38.24-67.07l-.9-13.835a73.276 73.276 0 0 1 27.38-62.43q.721-.569 1.443-1.109a49.609 49.609 0 0 1 -11.903-10.136c-15.39 6.1-37.52 20.56-48.18 54.41l.01.08h-.59c-6.93-1.31-14.52 2.43-16.43 10.23a18.406 18.406 0 0 0 17 22.77c.29.01.58.02.87.02h1.3c.86 26.61 16.12 53.07 38.24 67.07a63.328 63.328 0 0 0 34 10.22 60.144 60.144 0 0 0 15-1.918 66.454 66.454 0 0 1 -19-8.302z" fill="#e2bb9f"/><path d="m166 326.425a6 6 0 0 0 -6 6v48.756a6 6 0 1 0 12 0v-48.756a6 6 0 0 0 -6-6z" fill="#284268"/><path d="m166 302.857a6 6 0 0 0 -6 6v4.884a6 6 0 0 0 12 0v-4.884a6 6 0 0 0 -6-6z" fill="#284268"/><path d="m364.948 306.481a58.231 58.231 0 0 0 -39.925 101.227 31.012 31.012 0 0 1 9.977 22.785v31.075a7.341 7.341 0 0 0 7.463 7.432h43.879a7.507 7.507 0 0 0 7.658-7.432v-31.114a31.633 31.633 0 0 1 10.187-23.03 58.324 58.324 0 0 0 -39.239-100.943zm17.052 150.519h-35v-18h35zm-20.1-69.237a2.316 2.316 0 1 1 2.316 2.32 2.321 2.321 0 0 1 -2.316-2.32zm34.087 10.669a45.3 45.3 0 0 0 -13.903 28.568h-12.084v-26.147a14.326 14.326 0 1 0 -12-.212v26.359h-11.276a42.248 42.248 0 0 0 -13.665-28.34 46.186 46.186 0 0 1 31.341-80.207c.144 0 .291.014.435.015a46.144 46.144 0 0 1 31.156 79.964z" fill="#284268"/><path d="m363.828 275.263a112.071 112.071 0 0 0 -50.628 12.023 59.4 59.4 0 0 0 -20.557-19.053 26.865 26.865 0 0 0 -4.473-1.994l-31.329-10.639a82.838 82.838 0 0 0 4.907-33.915l-1.748-27.176v-30.489a24.15 24.15 0 0 0 16.61-29.206 20.007 20.007 0 0 0 -16.389-14.914l1.423-20.862a82.172 82.172 0 0 0 -17.569-56.786c-6.973-8.818-16.5-16.436-29.127-23.288-16.2-8.792-35.791-10.318-56.657-4.409a104.656 104.656 0 0 0 -26.876 11.765l-.027-.035a82.006 82.006 0 0 0 -34.295 72.754l1.445 20.942a19.882 19.882 0 0 0 -16.416 14.834 24.5 24.5 0 0 0 16.878 29.214v30.577l-1.891 27.079a82.716 82.716 0 0 0 4.731 33.815l-32.051 10.87a20.493 20.493 0 0 0 -3.122 1.33 60.37 60.37 0 0 0 -31.5 47.779c-.013.166-.167.332-.167.5v88.09a5.933 5.933 0 0 0 5.933 5.931h212.132a112.889 112.889 0 1 0 110.763-134.737zm-61.067 18.013q-3.6 2.326-7.009 4.912a63.067 63.067 0 0 1 4.8-7.889c.777.958 1.507 1.956 2.209 2.977zm-93.539-263.764c11.17 6.063 19.49 12.665 25.437 20.185a70.088 70.088 0 0 1 15 48.515l-1.41 20.453c-17.508-5.485-22.567-24.582-22.79-25.46a6 6 0 0 0 -5.459-4.551c-55.961-3.427-67.042-17.873-77.975-54.668 10.516-5.586 40.657-18.886 67.197-4.474zm-77.474 11.9c3.4 10.8 7.09 20.005 12.1 27.718a84.3 84.3 0 0 0 -34.551 32.378l-.228-3.294a69.981 69.981 0 0 1 22.679-56.804zm-38.325 99.205a12.388 12.388 0 0 1 .355-2.955 7.819 7.819 0 0 1 7.873-5.913 8.766 8.766 0 0 1 1.618.148 5.962 5.962 0 0 0 1.115.1h.583a5.982 5.982 0 0 0 5.842-4.641c9.018-28.286 26.428-42 40.761-48.639 12.289 12.248 31.1 19.2 63.612 21.634 3.336 8.9 13.393 28.718 37.506 31.5a6.019 6.019 0 0 0 1.072.142h.525a6.014 6.014 0 0 0 1.115-.15 8.021 8.021 0 0 1 9.492 5.843 12.258 12.258 0 0 1 .355 2.936 12.39 12.39 0 0 1 -12.399 12.378h-1.248a6.012 6.012 0 0 0 -6 5.82c-.572 17.609-8 35.616-20.389 49.391-12.817 14.255-29.1 22.109-45.856 22.109s-33.038-7.849-45.856-22.1c-12.385-13.774-19.816-31.787-20.388-49.4a6.013 6.013 0 0 0 -6-5.819h-1.3a12.4 12.4 0 0 1 -12.388-12.384zm151.943 111.141-26.366-8.881v-13.41c6-3.676 10.433-8.094 15.047-13.226a93.216 93.216 0 0 0 13.742-20.025l1.837 26.294a70.735 70.735 0 0 1 -4.26 29.248zm-175.366 146.242h-23v-81.766a49.2 49.2 0 0 1 10.946-26.249 64.782 64.782 0 0 1 12.054 37.446zm12 0v-70.569a76.643 76.643 0 0 0 -15.094-45.742q.177-.129.356-.256a36.331 36.331 0 0 1 9.488-4.805l55.295-18.66-32.319 29.9a6 6 0 0 0 -.587 8.182l11.652 14.378-7.6 9.54a5.943 5.943 0 0 0 -1.125 5.112l17.794 72.92zm57 0h-6.789l-17.787-72.908 8.757-10.978a5.977 5.977 0 0 0 -.032-7.5l-11.268-13.758 27.119-25.196zm0-155.124-25.917 8.786a70.591 70.591 0 0 1 -4.025-29.152l1.815-26.318a92.478 92.478 0 0 0 13.589 20.049 93.559 93.559 0 0 0 14.538 13.013zm68 155.124h-56v-116.213a64.756 64.756 0 0 0 56-.009zm0-129.9a52.751 52.751 0 0 1 -56 0v-31.99a66.837 66.837 0 0 0 56 .132zm12 129.9v-130.256l27.24 25.113-11.1 13.758a6 6 0 0 0 .015 7.515l8.756 10.962-17.788 72.908zm144.828 91.033a100.924 100.924 0 0 1 -100.882-100.819c0-2.259.075-4.563.224-6.8a5.984 5.984 0 0 0 -5.951-6.414h-.061a5.966 5.966 0 0 0 -5.957 5.564c-.168 2.5-.255 5.094-.255 7.634 0 3.3.151 6.57.43 9.8h-12.9l17.791-72.923a5.962 5.962 0 0 0 -1.136-5.142l-7.587-9.518 11.656-14.372a6 6 0 0 0 -.588-8.18l-32.359-29.934 56.94 19.238a23.205 23.205 0 0 1 4.251 1.911 48.483 48.483 0 0 1 4.362 2.865 74.722 74.722 0 0 0 -14.062 33.348 113.439 113.439 0 0 0 -14.083 20.985 5.975 5.975 0 0 0 5.3 8.724h.087a5.964 5.964 0 0 0 5.286-3.213 100.844 100.844 0 1 1 89.5 147.246z" fill="#284268"/></svg>