<svg id="Icons" enable-background="new 0 0 512 512" height="512" viewBox="0 0 512 512" width="512" xmlns="http://www.w3.org/2000/svg"><g><g><circle cx="256" cy="256" fill="#528f66" r="256"/><circle cx="256" cy="256" fill="#53b976" r="189.426"/></g><g><path d="m378.847 130.353c-8.519-7.892-19.195-13.196-30.911-15.509-4.411-.873-8.98-1.324-13.627-1.324-18.519 0-35.832 7.009-48.763 19.744-14.647 14.431-22.392 35.009-22.392 59.498v166.916c0 21.813-6.735 39.969-19.46 52.508-11.088 10.921-25.97 16.931-41.891 16.931-8.235 0-16.666-1.725-24.372-5.274h-.01c-16.96-7.823-30.372-24.499-30.372-51.156v-73.594h-9.804v73.594c0 20.206 6.921 37.283 20.019 49.401 7.451 6.892 16.539 11.814 26.529 14.49 5.745 1.549 11.804 2.343 18.009 2.343 18.519 0 35.832-7.009 48.763-19.745 14.647-14.431 22.391-35.009 22.391-59.498v-166.915c0-21.813 6.735-39.969 19.46-52.508 11.088-10.921 25.97-16.931 41.891-16.931 6.333 0 12.784 1.02 18.921 3.108 19.441 6.588 35.832 23.862 35.832 53.322 0 2.706 2.196 4.902 4.902 4.902s4.902-2.196 4.902-4.902c.003-20.206-6.919-37.283-20.017-49.401z" fill="#c1b7d3"/><g><g><g><path d="m222.19 176.669v121.019c0 4.841-2.919 8.992-7.092 10.803h-.006c-1.432.618-3.008.964-4.669.964h-139.582c-1.66 0-3.237-.345-4.669-.964-4.173-1.805-7.098-5.961-7.098-10.803v-121.019l81.558-81.806z" fill="#fbcb74"/><path d="m222.19 176.669v121.019c0 4.841-2.919 8.992-7.092 10.803h-.006c-4.167-1.811-7.092-5.961-7.092-10.803v-121.019c0-4.836 2.925-8.986 7.092-10.803h.006c4.172 1.811 7.092 5.967 7.092 10.803z" fill="#faefdc"/><path d="m73.264 176.669v121.019c0 4.841-2.919 8.998-7.092 10.803-4.173-1.805-7.098-5.961-7.098-10.803v-121.019c0-4.836 2.925-8.992 7.098-10.803 4.173 1.811 7.092 5.967 7.092 10.803z" fill="#deb36f"/><path d="m190.268 170.383c0 3.918-3.177 7.095-7.095 7.095h-85.082c-3.918 0-7.095-3.177-7.095-7.095s3.177-7.095 7.095-7.095h85.082c3.918 0 7.095 3.176 7.095 7.095z" fill="#fbd9a3"/></g><g><path d="m172.565 274.949h-63.864c-7.341 0-13.292-5.951-13.292-13.292v-63.864c0-7.341 5.951-13.292 13.292-13.292h63.864c7.341 0 13.292 5.951 13.292 13.292v63.864c0 7.341-5.951 13.292-13.292 13.292z" fill="#c4983d"/><g><g><path d="m137.999 199.804v19.771c0 .042 0 .095-.011.137-.063 4.089-3.394 7.377-7.504 7.377h-19.771c-4.152 0-7.525-3.362-7.525-7.514v-19.771c0-4.11 3.299-7.451 7.388-7.514.042-.01.095-.01.137-.01h19.771c4.153-.001 7.515 3.372 7.515 7.524z" fill="#6052a3"/><path d="m137.999 199.804v19.771c0 .042 0 .095-.011.137-.042.011-.095.011-.137.011h-9.548c-9.801 0-17.737-7.946-17.737-17.737v-9.559c0-.042 0-.095.011-.137.042-.01.095-.01.137-.01h19.771c4.152-.001 7.514 3.372 7.514 7.524z" fill="#57409b"/><path d="m128.847 216.328c-2.521 0-4.565-2.044-4.565-4.565v-11.28c0-2.521 2.044-4.565 4.565-4.565s4.565 2.044 4.565 4.565v11.28c.001 2.521-2.043 4.565-4.565 4.565z" fill="#9175a7"/></g><g><path d="m178.079 199.804v19.771c0 .042 0 .095-.011.137-.063 4.089-3.394 7.377-7.504 7.377h-19.771c-4.152 0-7.525-3.362-7.525-7.514v-19.771c0-4.11 3.299-7.451 7.388-7.514.042-.01.095-.01.137-.01h19.771c4.153-.001 7.515 3.372 7.515 7.524z" fill="#6052a3"/><path d="m178.079 199.804v19.771c0 .042 0 .095-.011.137-.042.011-.095.011-.137.011h-9.548c-9.801 0-17.737-7.946-17.737-17.737v-9.559c0-.042 0-.095.011-.137.042-.01.095-.01.137-.01h19.771c4.152-.001 7.514 3.372 7.514 7.524z" fill="#57409b"/><path d="m168.928 216.328c-2.521 0-4.565-2.044-4.565-4.565v-11.28c0-2.521 2.044-4.565 4.565-4.565s4.565 2.044 4.565 4.565v11.28c0 2.521-2.044 4.565-4.565 4.565z" fill="#9175a7"/></g><g><path d="m137.999 239.884v19.771c0 .042 0 .095-.011.137-.063 4.089-3.394 7.377-7.504 7.377h-19.771c-4.152 0-7.525-3.362-7.525-7.514v-19.771c0-4.11 3.299-7.451 7.388-7.514.042-.01.095-.01.137-.01h19.771c4.153-.001 7.515 3.372 7.515 7.524z" fill="#6052a3"/><path d="m137.999 239.884v19.771c0 .042 0 .095-.011.137-.042.011-.095.011-.137.011h-9.548c-9.801 0-17.737-7.947-17.737-17.737v-9.559c0-.042 0-.095.011-.137.042-.01.095-.01.137-.01h19.771c4.152-.001 7.514 3.372 7.514 7.524z" fill="#57409b"/><path d="m128.847 256.408c-2.521 0-4.565-2.044-4.565-4.565v-11.28c0-2.521 2.044-4.565 4.565-4.565s4.565 2.044 4.565 4.565v11.28c.001 2.521-2.043 4.565-4.565 4.565z" fill="#9175a7"/></g><g><path d="m178.079 239.884v19.771c0 .042 0 .095-.011.137-.063 4.089-3.394 7.377-7.504 7.377h-19.771c-4.152 0-7.525-3.362-7.525-7.514v-19.771c0-4.11 3.299-7.451 7.388-7.514.042-.01.095-.01.137-.01h19.771c4.153-.001 7.515 3.372 7.515 7.524z" fill="#6052a3"/><path d="m178.079 239.884v19.771c0 .042 0 .095-.011.137-.042.011-.095.011-.137.011h-9.548c-9.801 0-17.737-7.947-17.737-17.737v-9.559c0-.042 0-.095.011-.137.042-.01.095-.01.137-.01h19.771c4.152-.001 7.514 3.372 7.514 7.524z" fill="#57409b"/><path d="m168.928 256.408c-2.521 0-4.565-2.044-4.565-4.565v-11.28c0-2.521 2.044-4.565 4.565-4.565s4.565 2.044 4.565 4.565v11.28c0 2.521-2.044 4.565-4.565 4.565z" fill="#9175a7"/></g></g></g><g><path d="m251.923 194.38c0 2.524-.964 5.042-2.886 6.964-3.866 3.866-10.145 3.844-13.984-.05l-87.408-88.717c-3.855-3.917-10.173-3.917-14.028 0l-87.407 88.717c-1.928 1.956-4.474 2.936-7.014 2.936-2.524 0-5.048-.964-6.97-2.886-3.248-3.248-3.749-8.201-1.515-11.978.412-.696.919-1.354 1.515-1.95l101.459-101.452c3.844-3.85 10.084-3.844 13.928 0l101.425 101.453c.596.596 1.103 1.254 1.515 1.95.914 1.542 1.37 3.275 1.37 5.013z" fill="#e9465e"/><path d="m250.553 189.366c-.412.696-.919 1.354-1.515 1.95v.006c-3.866 3.866-10.145 3.839-13.984-.056l-87.408-88.717c-3.855-3.917-10.173-3.917-14.028 0l-87.408 88.717c-1.928 1.956-4.474 2.936-7.02 2.936-2.524 0-5.042-.958-6.964-2.88-.602-.602-1.103-1.259-1.515-1.956.412-.696.919-1.354 1.515-1.95l101.459-101.452c3.844-3.85 10.084-3.844 13.928 0l101.425 101.453c.596.595 1.103 1.253 1.515 1.949z" fill="#ee6781"/><g fill="#f789a1"><path d="m71.478 157.195-.288-.283c-2.351-2.307-2.368-6.089-.039-8.418l38.235-38.233c2.299-2.299 6.022-2.316 8.341-.037 2.336 2.295 2.367 6.051.068 8.384l-37.947 38.516c-2.293 2.328-6.038 2.359-8.37.071z"/><path d="m209.793 157.194.282-.276c2.357-2.31 2.376-6.099.043-8.433l-38.212-38.223c-2.3-2.301-6.024-2.32-8.348-.044-2.346 2.298-2.38 6.064-.075 8.404l37.931 38.499c2.294 2.33 6.042 2.362 8.379.073z"/></g></g></g><g><path d="m207.827 99.58v46.615l-18.714-18.719v-27.896c0-2.607 2.111-4.719 4.713-4.719h9.287c2.602 0 4.714 2.111 4.714 4.719z" fill="#c0405c"/><path d="m207.827 99.58v39.695l-7.538-7.544c-2.73-2.724-4.256-6.424-4.256-10.273v-21.878c0-2.607 2.111-4.719 4.713-4.719h2.368c2.601 0 4.713 2.111 4.713 4.719z" fill="#e9465e"/></g></g><g><g><path d="m272.958 317.524v42.154c0 24.489-7.745 45.068-22.392 59.498-7.715 7.598-16.98 13.157-27.136 16.402-6.882 2.196-14.156 3.343-21.627 3.343-6.206 0-12.264-.794-18.009-2.343-2.402-4.078-4.529-8.333-6.363-12.735 7.706 3.549 16.137 5.274 24.372 5.274 3.471 0 6.892-.284 10.245-.843 11.99-2.01 22.98-7.549 31.646-16.088 12.725-12.539 19.46-30.695 19.46-52.508v-41.517c3.226-.372 6.491-.588 9.804-.637z" fill="#ebd9ea"/><path d="m353.231 126.432c-6.137-2.088-12.588-3.108-18.921-3.108-8.863 0-17.411 1.863-25.156 5.402-6.166 2.814-11.823 6.686-16.735 11.529-12.725 12.539-19.46 30.695-19.46 52.508v75.694c-3.216.568-6.49.98-9.804 1.245v-76.939c0-24.489 7.745-45.067 22.392-59.498 4.647-4.578 9.853-8.411 15.48-11.441 10.039-5.421 21.411-8.303 33.283-8.303 4.647 0 9.215.451 13.627 1.324 2 3.734 3.764 7.597 5.294 11.587z" fill="#ebd9ea"/><g fill="#fff"><path d="m309.153 128.726c-6.166 2.814-11.823 6.686-16.735 11.529-12.725 12.539-19.46 30.695-19.46 52.508v18.019c-3.363-.059-6.647-.461-9.804-1.167v-16.853c0-24.489 7.745-45.067 22.392-59.498 4.647-4.578 9.853-8.411 15.48-11.441 2.961 2.001 5.686 4.315 8.127 6.903z"/><path d="m272.958 352.493v7.186c0 24.489-7.745 45.068-22.392 59.498-7.715 7.598-16.98 13.157-27.136 16.402-4.137-1.902-7.961-4.363-11.382-7.304 11.99-2.01 22.98-7.549 31.646-16.088 12.725-12.539 19.46-30.695 19.46-52.508v-12.901c3.501 1.519 6.795 3.45 9.804 5.715z"/></g></g><g><g><path d="m462.654 218.17v100.575c0 10.323-2.274 20.107-6.353 28.892-10.911 23.509-34.715 39.802-62.331 39.802h-.01c-37.93 0-68.684-30.754-68.684-68.694v-100.575c0-11.49 5.147-21.784 13.274-28.686 6.559-5.588 15.068-8.961 24.372-8.961h62.086c20.794.001 37.646 16.863 37.646 37.647z" fill="#c2aacf"/></g><g><path d="m462.654 218.17v100.575c0 10.323-2.274 20.107-6.353 28.892-.725.784-1.461 1.559-2.216 2.314-12.431 12.431-29.607 20.117-48.577 20.117-37.94 0-68.694-30.754-68.694-68.694v-100.566c0-3.941.608-7.745 1.735-11.323 6.559-5.588 15.068-8.961 24.372-8.961h62.086c20.795 0 37.647 16.862 37.647 37.646z" fill="#ebd9ea"/></g><g><g><path d="m388.05 180.528h11.83v97.129h-11.83z" fill="#c2aacf"/></g><g><path d="m388.05 208.965h11.83v137.384h-11.83z" fill="#c2aacf" transform="matrix(0 -1 1 0 116.308 671.622)"/></g></g><g><g><path d="m412.616 213.121v24.039c0 .362-.01.725-.039 1.088.01.049 0 .108-.01.157-.02.363-.049.726-.098 1.089-.039.294-.078.578-.137.872-.02.157-.049.324-.088.481-.059.294-.118.588-.196.882-2.039 8.088-9.363 14.078-18.078 14.078h-.01c-9.206 0-16.852-6.676-18.362-15.441-.186-1.039-.284-2.117-.284-3.205v-24.039c0-.421.01-.843.039-1.255.167-2.451.794-4.764 1.824-6.863.872-1.823 2.049-3.49 3.451-4.921 3.382-3.46 8.108-5.617 13.333-5.617h.01c1.059 0 2.098.088 3.108.265.765.127 1.51.304 2.235.52.167.049.324.098.48.147.794.265 1.569.578 2.304.941.196.088.382.186.569.284.216.108.431.225.637.353.422.245.824.5 1.225.775.02.01.039.02.059.039.382.255.745.539 1.108.833.176.147.353.294.52.431.216.186.431.392.647.598.147.137.294.284.431.431.196.186.373.382.559.588.157.167.304.343.451.529.157.186.314.372.471.569.765 1 1.431 2.088 1.99 3.235.382.794.706 1.608.971 2.451.088.255.167.519.235.785.098.362.186.725.255 1.098.049.236.098.471.137.706 0 .02.01.029.01.049.039.245.069.481.098.726.02.088.029.167.029.255.029.265.049.529.069.794.038.41.047.832.047 1.253z" fill="#57409b"/></g><g><path d="m412.616 213.121v24.039c0 .362-.01.725-.039 1.088.01.049 0 .108-.01.157-.02.363-.049.726-.098 1.089-.039.294-.078.578-.137.872-.02.157-.049.324-.088.481-.059.294-.118.588-.196.882-2.863 2.853-6.814 4.628-11.186 4.628-5.019 0-9.5-2.343-12.392-5.99-1.167-1.451-2.069-3.117-2.657-4.921-.51-1.549-.784-3.206-.784-4.922v-20.411c0-1.784.294-3.51.843-5.108.618-1.814 1.549-3.48 2.745-4.921 2.127-2.608 5.078-4.529 8.461-5.353.765.127 1.51.304 2.235.52.167.049.324.098.48.147.794.265 1.569.578 2.304.941.196.088.382.186.569.284.216.108.431.225.637.353.422.245.824.5 1.225.775.02.01.039.02.059.039.382.255.745.539 1.108.833.176.147.353.294.52.431.216.186.431.392.647.598.147.137.294.284.431.431.196.186.373.382.559.588.157.167.304.343.451.529.157.186.314.372.471.569.765 1 1.431 2.088 1.99 3.235.382.794.706 1.608.971 2.451.088.255.167.519.235.785.098.362.186.725.255 1.098.049.236.098.471.137.706 0 .02.01.029.01.049.039.245.069.481.098.726.02.088.029.167.029.255.029.265.049.529.069.794.039.41.048.832.048 1.253z" fill="#6052a3"/></g><g><path d="m375.314 223.654h37.303v4.924h-37.303z" fill="#57409b"/></g><g><path d="m412.616 213.121v3.667h-37.303v-3.667c0-.421.01-.843.039-1.255h37.215c.04.412.049.834.049 1.255z" fill="#57409b"/></g><g><path d="m410.763 205.004h-33.587c.872-1.823 2.049-3.49 3.451-4.921h26.666c.196.186.373.382.559.588.157.167.304.343.451.529.157.186.314.372.471.569.764 1 1.431 2.088 1.989 3.235z" fill="#57409b"/></g><g><path d="m412.616 235.444v1.716c0 .362-.01.725-.039 1.088.01.049 0 .108-.01.157-.02.363-.049.726-.098 1.089-.039.294-.078.578-.137.872h-36.734c-.186-1.039-.284-2.117-.284-3.205v-1.716h37.302z" fill="#57409b"/></g><g><path d="m407.371 210.954v20.696c0 1.402-.441 2.716-1.186 3.794-1.206 1.754-3.225 2.911-5.519 2.911-2.284 0-4.314-1.157-5.519-2.911-.745-1.079-1.186-2.393-1.186-3.794v-20.696c0-2.588 1.48-4.843 3.637-5.951.922-.48 1.961-.745 3.069-.745s2.147.265 3.069.745c.618.314 1.186.726 1.676 1.216 1.205 1.216 1.959 2.883 1.959 4.735z" fill="#9175a7"/></g></g><g><g><path d="m393.96 223.65h13.411v4.931h-13.411z" fill="#6c53a2"/></g><g><path d="m393.96 211.866h13.411v4.921h-13.411z" fill="#6c53a2"/></g><g><path d="m403.734 205.004h-6.137c.922-.48 1.961-.745 3.069-.745s2.147.265 3.068.745z" fill="#6c53a2"/></g><g><path d="m406.185 235.444c-1.206 1.754-3.225 2.911-5.519 2.911-2.284 0-4.314-1.157-5.519-2.911z" fill="#6c53a2"/></g></g><g><path d="m436.469 254.723c-6.768 0-12.255-5.487-12.255-12.255v-26.235c0-6.768 5.487-12.255 12.255-12.255s12.255 5.487 12.255 12.255v26.235c0 6.768-5.487 12.255-12.255 12.255z" fill="#fff"/></g><g><path d="m356.18 254.723c-6.768 0-12.255-5.487-12.255-12.255v-26.235c0-6.768 5.487-12.255 12.255-12.255s12.255 5.487 12.255 12.255v26.235c0 6.768-5.487 12.255-12.255 12.255z" fill="#fff"/></g><g><path d="m397.597 357.933c-6.768 0-12.255-5.487-12.255-12.255s5.486-12.255 12.255-12.255c17.263 0 26.618-5.319 26.618-33.377 0-6.768 5.486-12.255 12.255-12.255 6.768 0 12.255 5.487 12.255 12.255 0 17.302-3.053 29.771-9.609 39.241-8.565 12.373-22.533 18.646-41.519 18.646z" fill="#fff"/></g></g></g></g></g></svg>