<svg id="Layer_1" height="512" viewBox="0 0 512 512" width="512" xmlns="http://www.w3.org/2000/svg" data-name="Layer 1"><path d="m420 248.49v-.49h-163.19c-20.22 0-29.09 10.27-34.14 21.14a59.127 59.127 0 0 1 -14.54 19.4 60.711 60.711 0 0 1 -39.77 15.46l-11.96-.15.46 156.55c0 .3 0 .6-.01.6h19.45a130.893 130.893 0 0 1 69.12 19.94c10.38 6.46 21.55 10.015 33.18 11.875s23.72 2.185 35.94 2.185h68.55a23.5 23.5 0 0 0 0-47h10.73a23.5 23.5 0 1 0 0-47h-.73a24.183 24.183 0 0 0 17.128-7.25 24.461 24.461 0 0 0 -17.218-41.68l2.34-.07a22.044 22.044 0 0 0 15.56-37.625 21.792 21.792 0 0 0 -15.56-6.375l-88.37-.135-.007-12.865h74.867c25.52 0 38.17-20.9 38.17-46.51z" fill="#ffd8b7"/><path d="m156.4 303.61a32.431 32.431 0 0 0 -64.4 5.45v151.39a32.431 32.431 0 0 0 64.85.89z" fill="#5fcda4"/><path d="m409.944 77.17c-1.25-27.63-19.657-51.07-44.377-60.1l.021 60.52-45.309-.01-.02-60.58a67.431 67.431 0 0 0 -32.259 101.34 104.6 104.6 0 0 1 18.91 59.58l.295 129.665 71.795.415-.025-129.894a101.346 101.346 0 0 1 18.653-58.873 66.754 66.754 0 0 0 12.316-42.063z" fill="#b0b5ca"/><path d="m120 460.45v-151.39a32.433 32.433 0 0 1 18.428-29.26 32.438 32.438 0 0 0 -46.428 29.26v151.39a32.438 32.438 0 0 0 46.428 29.258 32.434 32.434 0 0 1 -18.428-29.258z" fill="#51af89"/><path d="m393.574 36.454a68.066 68.066 0 0 0 -28.007-19.384l.021 60.514 28 .006z" fill="#959db5"/><path d="m334.91 177.92a104.6 104.6 0 0 0 -18.91-59.58 67.629 67.629 0 0 1 4.266-81.9l-.007-19.44a67.431 67.431 0 0 0 -32.259 101.34 104.6 104.6 0 0 1 18.91 59.58l.295 129.665h28z" fill="#959db5"/><path d="m354.67 195.11.05 112.68h-22.91l-.05-112.68a11.455 11.455 0 1 1 22.91 0z" fill="#ccd3df"/><g fill="#284268"><path d="m420 242h-34.973l-.027-63.924a95.836 95.836 0 0 1 17.522-55.367 72.365 72.365 0 0 0 13.422-45.809c-1.317-29.078-20.731-55.385-48.31-65.463a6 6 0 0 0 -8.059 5.637l.012 54.519-33.312-.007-.012-54.586a6 6 0 0 0 -8.034-5.643 73.421 73.421 0 0 0 -35.158 110.4 98.435 98.435 0 0 1 17.841 56.169l.028 64.074h-44.132c-18.875 0-31.82 7.91-39.577 24.61a54.587 54.587 0 0 1 -48.87 31.39h-7.339c-4.966-16-18.8-26.677-35.492-27.116a38.334 38.334 0 0 0 -39.53 38.177v150.592c0 20.986 16.492 38.493 37.47 39.044a38.019 38.019 0 0 0 38.9-31.7h13.93a124.833 124.833 0 0 1 65.948 19.031c21.952 13.672 46.719 14.972 72.288 14.972h68.549a29.508 29.508 0 0 0 21.88-49.215 29.63 29.63 0 0 0 6.4-51.209 30.3 30.3 0 0 0 .42-47.936 27.985 27.985 0 0 0 -16.449-50.64h-10.336v-1.115c25-1.6 41-21.877 41-52.4v-.9c0-3.316-2.688-5.585-6-5.585zm-8.653 88a15.992 15.992 0 0 1 -16.01 16h-34.653a6 6 0 1 0 0 12h32.4a18.5 18.5 0 0 1 0 37h-32.4a6 6 0 0 0 -.043 12h33.178a17.5 17.5 0 1 1 0 35h-47.772a6 6 0 0 0 0 12h37.038a17.5 17.5 0 0 1 0 35h-68.549c-23.762 0-46.685-1.162-65.949-13.156a136.822 136.822 0 0 0 -72.287-20.844h-13.3v-71a6 6 0 0 0 -12 0v75.81c0 14.382-11.222 26.572-25.595 27.054a26.521 26.521 0 0 1 -27.405-26.416v-150.748c0-14.381 11.222-26.571 25.6-27.054a26.52 26.52 0 0 1 27.4 26.415v32.939a6 6 0 0 0 12 0v-32h5.361a67.4 67.4 0 0 0 59.754-38.214c3.865-8.322 10.619-17.786 28.693-17.786h44.138l.019 43.491a12.4 12.4 0 0 1 -2.72-6.5 6 6 0 1 0 -11.93 1.325 24.222 24.222 0 0 0 24.019 21.684h85a15.992 15.992 0 0 1 16.012 16zm-73.587-134.876a5.373 5.373 0 0 1 1.5-3.886 6.044 6.044 0 0 1 3.745-1.6 5.57 5.57 0 0 1 5.56 5.479l.1 106.888h-10.857zm22.928 106.876-.034-106.709a17.319 17.319 0 0 0 -17.436-17.291 17.155 17.155 0 0 0 -17.453 17.208l.043 106.792h-12.841l-.055-124.076a110.354 110.354 0 0 0 -19.975-62.99 60.6 60.6 0 0 1 -10.727-34.68 61.324 61.324 0 0 1 32.055-53.973l.012 51.4a6.088 6.088 0 0 0 6 6.1l45.31.219a6.213 6.213 0 0 0 4.243-1.962 6.481 6.481 0 0 0 1.757-4.449l-.011-51.25c18.736 10.155 31.412 29.736 32.38 51.1a60.478 60.478 0 0 1 -11.2 38.292 107.945 107.945 0 0 0 -19.756 62.349l.054 123.92zm24.36-13.15-.015-34.85h28.767c-1.311 16.131-9.423 33.15-28.752 34.85z"/><path d="m129 332.587a6 6 0 0 0 -6 6v89.235a6 6 0 0 0 12 0v-89.235a6 6 0 0 0 -6-6z"/><path d="m129 303.278a6 6 0 0 0 -6 6v6.074a6 6 0 0 0 12 0v-6.074a6 6 0 0 0 -6-6z"/></g></svg>