<svg id="Icons" enable-background="new 0 0 512 512" height="512" viewBox="0 0 512 512" width="512" xmlns="http://www.w3.org/2000/svg"><g><circle cx="256" cy="256" fill="#53b976" r="256"/><g><g><g><path d="m95.49 300.42c.081 13.894-11.394 25.759-25.71 25.71-26.94-.31-35.384-35.896-12.01-48.45 16.687-9.139 37.985 3.633 37.72 22.74z" fill="#755c8e"/><path d="m95.49 300.42c0 3.65-.76 7.13-2.14 10.28-21.262 9.347-43.192-12.612-33.85-33.86 16.503-7.53 36.301 5.351 35.99 23.58z" fill="#9175a7"/></g><g><g><g><path d="m72.906 255.275h-6.262v22.652c0 1.729 1.402 3.131 3.131 3.131s3.131-1.402 3.131-3.131z" fill="#755c8e"/><path d="m76.995 255.275c0-3.987-3.232-7.22-7.22-7.22-9.557.33-9.555 14.111 0 14.439 3.987.001 7.22-3.232 7.22-7.219z" fill="#9175a7"/></g><g><path d="m66.644 345.555h6.262v-22.652c0-1.729-1.402-3.131-3.131-3.131s-3.131 1.402-3.131 3.131z" fill="#755c8e"/><path d="m62.555 345.555c0 3.987 3.232 7.22 7.22 7.22 9.557-.33 9.555-14.111 0-14.439-3.987-.001-7.22 3.232-7.22 7.219z" fill="#9175a7"/></g></g><g><g><path d="m24.635 297.284v6.262h22.652c1.729 0 3.131-1.402 3.131-3.131s-1.402-3.131-3.131-3.131z" fill="#755c8e"/><path d="m24.635 293.195c-3.987 0-7.22 3.232-7.22 7.22.33 9.557 14.111 9.555 14.439 0 .001-3.987-3.232-7.22-7.219-7.22z" fill="#9175a7"/></g><g><path d="m114.915 303.546v-6.262h-22.652c-1.729 0-3.131 1.402-3.131 3.131s1.402 3.131 3.131 3.131z" fill="#755c8e"/><path d="m114.915 307.635c3.987 0 7.22-3.232 7.22-7.22-.33-9.557-14.111-9.555-14.439 0-.001 3.987 3.232 7.22 7.219 7.22z" fill="#9175a7"/></g></g><g><g><path d="m35.642 330.12 4.428 4.428 16.017-16.017c1.223-1.223 1.223-3.205 0-4.428s-3.205-1.223-4.428 0z" fill="#755c8e"/><path d="m32.751 327.229c-2.819 2.819-2.819 7.391 0 10.21 6.991 6.524 16.734-3.222 10.21-10.21-2.819-2.82-7.39-2.82-10.21 0z" fill="#9175a7"/></g><g><path d="m103.908 270.71-4.428-4.428-16.017 16.017c-1.223 1.223-1.223 3.205 0 4.428s3.205 1.223 4.428 0z" fill="#755c8e"/><path d="m106.799 273.601c2.819-2.819 2.819-7.391 0-10.21-6.991-6.524-16.734 3.222-10.21 10.21 2.819 2.82 7.39 2.82 10.21 0z" fill="#9175a7"/></g></g><g><g><path d="m99.48 334.548 4.428-4.428-16.017-16.017c-1.223-1.223-3.205-1.223-4.428 0s-1.223 3.205 0 4.428z" fill="#755c8e"/><path d="m96.589 337.439c2.819 2.819 7.391 2.819 10.21 0 6.524-6.991-3.222-16.734-10.21-10.21-2.82 2.819-2.82 7.39 0 10.21z" fill="#9175a7"/></g><g><path d="m40.07 266.282-4.428 4.428 16.017 16.017c1.223 1.223 3.205 1.223 4.428 0s1.223-3.205 0-4.428z" fill="#755c8e"/><path d="m42.961 263.391c-2.819-2.819-7.391-2.819-10.21 0-6.524 6.991 3.222 16.734 10.21 10.21 2.82-2.819 2.82-7.39 0-10.21z" fill="#9175a7"/></g></g></g></g><g><g><path d="m140.63 137.394c.081 13.894-11.394 25.759-25.71 25.71-26.94-.31-35.384-35.896-12.01-48.45 16.687-9.139 37.985 3.633 37.72 22.74z" fill="#755c8e"/><path d="m140.63 137.394c0 3.65-.76 7.13-2.14 10.28-21.262 9.347-43.192-12.612-33.85-33.86 16.503-7.53 36.301 5.351 35.99 23.58z" fill="#9175a7"/></g><g><g><g><path d="m118.046 92.249h-6.262v22.652c0 1.729 1.402 3.131 3.131 3.131s3.131-1.402 3.131-3.131z" fill="#755c8e"/><path d="m122.135 92.249c0-3.987-3.232-7.22-7.22-7.22-9.557.33-9.555 14.111 0 14.439 3.987.001 7.22-3.232 7.22-7.219z" fill="#9175a7"/></g><g><path d="m111.784 182.529h6.262v-22.652c0-1.729-1.402-3.131-3.131-3.131s-3.131 1.402-3.131 3.131z" fill="#755c8e"/><path d="m107.695 182.529c0 3.987 3.232 7.22 7.22 7.22 9.557-.33 9.555-14.111 0-14.439-3.987-.001-7.22 3.232-7.22 7.219z" fill="#9175a7"/></g></g><g><g><path d="m69.775 134.258v6.262h22.652c1.729 0 3.131-1.402 3.131-3.131s-1.402-3.131-3.131-3.131z" fill="#755c8e"/><path d="m69.775 130.169c-3.987 0-7.22 3.232-7.22 7.22.33 9.557 14.111 9.555 14.439 0 .001-3.987-3.232-7.22-7.219-7.22z" fill="#9175a7"/></g><g><path d="m160.055 140.52v-6.262h-22.652c-1.729 0-3.131 1.402-3.131 3.131s1.402 3.131 3.131 3.131z" fill="#755c8e"/><path d="m160.055 144.609c3.987 0 7.22-3.232 7.22-7.22-.33-9.557-14.111-9.555-14.439 0-.001 3.987 3.232 7.22 7.219 7.22z" fill="#9175a7"/></g></g><g><g><path d="m80.782 167.094 4.428 4.428 16.017-16.017c1.223-1.223 1.223-3.205 0-4.428s-3.205-1.223-4.428 0z" fill="#755c8e"/><path d="m77.891 164.203c-2.819 2.819-2.819 7.391 0 10.21 6.991 6.524 16.734-3.222 10.21-10.21-2.819-2.82-7.39-2.82-10.21 0z" fill="#9175a7"/></g><g><path d="m149.048 107.684-4.428-4.428-16.017 16.017c-1.223 1.223-1.223 3.205 0 4.428s3.205 1.223 4.428 0z" fill="#755c8e"/><path d="m151.939 110.575c2.819-2.819 2.819-7.391 0-10.21-6.991-6.524-16.734 3.222-10.21 10.21 2.819 2.82 7.391 2.82 10.21 0z" fill="#9175a7"/></g></g><g><g><path d="m144.62 171.522 4.428-4.428-16.017-16.017c-1.223-1.223-3.205-1.223-4.428 0s-1.223 3.205 0 4.428z" fill="#755c8e"/><path d="m141.729 174.413c2.819 2.819 7.391 2.819 10.21 0 6.524-6.991-3.222-16.734-10.21-10.21-2.82 2.819-2.82 7.391 0 10.21z" fill="#9175a7"/></g><g><path d="m85.21 103.256-4.428 4.428 16.017 16.017c1.223 1.223 3.205 1.223 4.428 0s1.223-3.205 0-4.428z" fill="#755c8e"/><path d="m88.101 100.365c-2.819-2.819-7.391-2.819-10.21 0-6.524 6.991 3.222 16.734 10.21 10.21 2.82-2.819 2.82-7.39 0-10.21z" fill="#9175a7"/></g></g></g></g><g><g><path d="m255.356 36.205c.081 13.894-11.394 25.759-25.71 25.71-26.94-.31-35.384-35.896-12.01-48.45 16.688-9.139 37.986 3.633 37.72 22.74z" fill="#755c8e"/><path d="m255.356 36.205c0 3.65-.76 7.13-2.14 10.28-21.262 9.347-43.192-12.612-33.85-33.86 16.503-7.53 36.302 5.351 35.99 23.58z" fill="#9175a7"/></g><g><g><g><path d="m232.77 1.04v12.67c0 1.733-1.405 3.127-3.13 3.13-1.73 0-3.13-1.4-3.13-3.13v-12.03c2.08-.24 4.17-.45 6.26-.64z" fill="#755c8e"/></g><g><path d="m226.51 81.34h6.262v-22.651c0-1.729-1.402-3.131-3.131-3.131s-3.131 1.402-3.131 3.131z" fill="#755c8e"/><path d="m222.422 81.34c0 3.987 3.232 7.22 7.22 7.22 9.557-.33 9.555-14.111 0-14.439-3.988 0-7.22 3.232-7.22 7.219z" fill="#9175a7"/></g></g><g><g><path d="m184.501 33.069v6.262h22.652c1.729 0 3.131-1.402 3.131-3.131s-1.402-3.131-3.131-3.131z" fill="#755c8e"/><path d="m184.501 28.981c-3.987 0-7.22 3.232-7.22 7.22.33 9.557 14.111 9.555 14.439 0 .001-3.988-3.231-7.22-7.219-7.22z" fill="#9175a7"/></g><g><path d="m274.781 39.331v-6.262h-22.651c-1.729 0-3.131 1.402-3.131 3.131s1.402 3.131 3.131 3.131z" fill="#755c8e"/><path d="m274.781 43.42c3.987 0 7.22-3.232 7.22-7.22-.33-9.557-14.111-9.555-14.439 0 0 3.988 3.232 7.22 7.219 7.22z" fill="#9175a7"/></g></g><g><g><path d="m195.509 65.905 4.428 4.428 16.017-16.017c1.223-1.223 1.223-3.205 0-4.428s-3.205-1.223-4.428 0z" fill="#755c8e"/><path d="m192.618 63.014c-2.819 2.819-2.819 7.391 0 10.21 6.991 6.524 16.734-3.222 10.21-10.21-2.82-2.819-7.391-2.819-10.21 0z" fill="#9175a7"/></g><g><path d="m263.774 6.495-4.428-4.428-16.017 16.017c-1.223 1.223-1.223 3.205 0 4.428s3.205 1.223 4.428 0z" fill="#755c8e"/><path d="m266.67 9.39c-6.449 6.144-16.023-2.171-10.91-9.39 3.948-.003 7.882.086 11.79.26 1.89 2.81 1.59 6.65-.88 9.13z" fill="#9175a7"/></g></g><g><g><path d="m259.346 70.333 4.428-4.428-16.017-16.017c-1.223-1.223-3.205-1.223-4.428 0s-1.223 3.205 0 4.428z" fill="#755c8e"/><path d="m256.455 73.224c2.819 2.819 7.391 2.819 10.21 0 6.524-6.991-3.222-16.734-10.21-10.21-2.819 2.819-2.819 7.391 0 10.21z" fill="#9175a7"/></g><g><path d="m216.87 20.3c.085 2.67-3.482 4.22-5.34 2.21 0 0-2.14-2.14-2.14-2.14-2.759-2.756-10.677-10.665-13.32-13.31 2.39-.58 4.8-1.12 7.23-1.63.271.271 9.872 9.872 10.52 10.52.983 1.081 3.225 2.689 3.05 4.35z" fill="#755c8e"/><path d="m204.89 5.1c-.654 6.632-9.681 8.789-13.26 3.06 4.393-1.13 8.802-2.151 13.26-3.06z" fill="#9175a7"/></g></g></g></g><g><g><path d="m322.997 438.848c.081 13.894-11.394 25.759-25.71 25.71-26.94-.31-35.384-35.896-12.01-48.45 16.688-9.138 37.986 3.633 37.72 22.74z" fill="#755c8e"/><path d="m322.997 438.848c0 3.65-.76 7.13-2.14 10.28-21.262 9.347-43.192-12.612-33.85-33.86 16.503-7.53 36.302 5.351 35.99 23.58z" fill="#9175a7"/></g><g><g><g><path d="m300.413 393.703h-6.262v22.652c0 1.729 1.402 3.131 3.131 3.131s3.131-1.402 3.131-3.131z" fill="#755c8e"/><path d="m304.502 393.703c0-3.987-3.232-7.22-7.22-7.22-9.557.33-9.555 14.111 0 14.439 3.988.001 7.22-3.231 7.22-7.219z" fill="#9175a7"/></g><g><path d="m294.151 483.983h6.262v-22.652c0-1.729-1.402-3.131-3.131-3.131s-3.131 1.402-3.131 3.131z" fill="#755c8e"/><path d="m290.063 483.983c0 3.987 3.232 7.22 7.22 7.22 9.557-.33 9.555-14.111 0-14.439-3.988 0-7.22 3.232-7.22 7.219z" fill="#9175a7"/></g></g><g><g><path d="m252.142 435.712v6.262h22.652c1.729 0 3.131-1.402 3.131-3.131s-1.402-3.131-3.131-3.131z" fill="#755c8e"/><path d="m252.142 431.624c-3.987 0-7.22 3.232-7.22 7.22.33 9.557 14.111 9.555 14.439 0 .001-3.988-3.231-7.22-7.219-7.22z" fill="#9175a7"/></g><g><path d="m342.422 441.974v-6.262h-22.652c-1.729 0-3.131 1.402-3.131 3.131s1.402 3.131 3.131 3.131z" fill="#755c8e"/><path d="m342.422 446.063c3.987 0 7.22-3.232 7.22-7.22-.33-9.557-14.111-9.555-14.439 0 0 3.988 3.232 7.22 7.219 7.22z" fill="#9175a7"/></g></g><g><g><path d="m263.15 468.548 4.428 4.428 16.017-16.017c1.223-1.223 1.223-3.205 0-4.428s-3.205-1.223-4.428 0z" fill="#755c8e"/><path d="m260.258 465.657c-2.819 2.819-2.819 7.391 0 10.21 6.991 6.524 16.734-3.222 10.21-10.21-2.819-2.819-7.39-2.819-10.21 0z" fill="#9175a7"/></g><g><path d="m331.415 409.138-4.428-4.428-16.017 16.017c-1.223 1.223-1.223 3.205 0 4.428s3.205 1.223 4.428 0z" fill="#755c8e"/><path d="m334.306 412.03c2.819-2.819 2.819-7.391 0-10.21-6.991-6.524-16.734 3.222-10.21 10.21 2.82 2.819 7.391 2.819 10.21 0z" fill="#9175a7"/></g></g><g><g><path d="m326.987 472.976 4.428-4.428-16.017-16.017c-1.223-1.223-3.205-1.223-4.428 0s-1.223 3.205 0 4.428z" fill="#755c8e"/><path d="m324.096 475.867c2.819 2.819 7.391 2.819 10.21 0 6.524-6.991-3.222-16.734-10.21-10.21-2.819 2.82-2.819 7.391 0 10.21z" fill="#9175a7"/></g><g><path d="m267.577 404.711-4.428 4.428 16.017 16.017c1.223 1.223 3.205 1.223 4.428 0s1.223-3.205 0-4.428z" fill="#755c8e"/><path d="m270.469 401.819c-2.819-2.819-7.391-2.819-10.21 0-6.524 6.991 3.222 16.734 10.21 10.21 2.819-2.819 2.819-7.39 0-10.21z" fill="#9175a7"/></g></g></g></g><g><g><path d="m471.169 351.212c.081 13.894-11.394 25.759-25.71 25.71-26.94-.31-35.384-35.896-12.01-48.45 16.687-9.139 37.985 3.633 37.72 22.74z" fill="#755c8e"/><path d="m471.169 351.212c0 3.65-.76 7.13-2.14 10.28-21.262 9.347-43.192-12.612-33.85-33.86 16.503-7.531 36.301 5.351 35.99 23.58z" fill="#9175a7"/></g><g><g><g><path d="m448.585 306.067h-6.262v22.652c0 1.729 1.402 3.131 3.131 3.131s3.131-1.402 3.131-3.131z" fill="#755c8e"/><path d="m452.673 306.067c0-3.987-3.232-7.22-7.22-7.22-9.557.33-9.555 14.111 0 14.439 3.988 0 7.22-3.232 7.22-7.219z" fill="#9175a7"/></g><g><path d="m442.323 396.347h6.262v-22.652c0-1.729-1.402-3.131-3.131-3.131s-3.131 1.402-3.131 3.131z" fill="#755c8e"/><path d="m438.234 396.347c0 3.987 3.232 7.22 7.22 7.22 9.557-.33 9.555-14.111 0-14.439-3.988-.001-7.22 3.231-7.22 7.219z" fill="#9175a7"/></g></g><g><g><path d="m400.314 348.076v6.262h22.652c1.729 0 3.131-1.402 3.131-3.131s-1.402-3.131-3.131-3.131z" fill="#755c8e"/><path d="m400.314 343.987c-3.987 0-7.22 3.232-7.22 7.22.33 9.557 14.111 9.555 14.439 0 0-3.988-3.232-7.22-7.219-7.22z" fill="#9175a7"/></g><g><path d="m490.594 354.338v-6.262h-22.652c-1.729 0-3.131 1.402-3.131 3.131s1.402 3.131 3.131 3.131z" fill="#755c8e"/><path d="m495.69 346.09c-1.56 4.16-3.23 8.27-5 12.33-5.288.218-8.963-5.754-6.6-10.34 1.902-4.366 8.314-5.482 11.6-1.99z" fill="#9175a7"/></g></g><g><g><path d="m411.321 380.912 4.428 4.428 16.017-16.017c1.223-1.223 1.223-3.205 0-4.428s-3.205-1.223-4.428 0z" fill="#755c8e"/><path d="m408.43 378.021c-2.819 2.819-2.819 7.391 0 10.21 6.991 6.524 16.734-3.222 10.21-10.21-2.82-2.82-7.391-2.82-10.21 0z" fill="#9175a7"/></g><g><path d="m479.586 321.502-4.428-4.428-16.017 16.017c-1.223 1.223-1.223 3.205 0 4.428s3.205 1.223 4.428 0z" fill="#755c8e"/><path d="m482.477 324.393c2.819-2.819 2.819-7.391 0-10.21-6.991-6.524-16.734 3.222-10.21 10.21 2.82 2.819 7.391 2.819 10.21 0z" fill="#9175a7"/></g></g><g><g><path d="m479.54 380.86c-.05.08-.1.16-.14.24l-4.24 4.24-16.02-16.02c-1.228-1.222-1.223-3.206 0-4.43 1.22-1.22 3.21-1.22 4.43 0z" fill="#755c8e"/><path d="m481.53 377.22c-2.265 4.228-4.658 8.383-7.17 12.46-9.269-4.8-1.602-18.052 7.17-12.46z" fill="#9175a7"/></g><g><path d="m415.749 317.074-4.428 4.428 16.017 16.017c1.223 1.223 3.205 1.223 4.428 0s1.223-3.205 0-4.428z" fill="#755c8e"/><path d="m418.64 314.183c-2.819-2.819-7.391-2.819-10.21 0-6.524 6.991 3.222 16.734 10.21 10.21 2.819-2.819 2.819-7.391 0-10.21z" fill="#9175a7"/></g></g></g></g><g><g><path d="m471.169 199.877c.081 13.894-11.394 25.759-25.71 25.71-26.94-.31-35.384-35.896-12.01-48.45 16.687-9.139 37.985 3.633 37.72 22.74z" fill="#755c8e"/><path d="m471.169 199.877c0 3.65-.76 7.13-2.14 10.28-21.262 9.347-43.192-12.612-33.85-33.86 16.503-7.531 36.301 5.351 35.99 23.58z" fill="#9175a7"/></g><g><g><g><path d="m448.585 154.732h-6.262v22.652c0 1.729 1.402 3.131 3.131 3.131s3.131-1.402 3.131-3.131z" fill="#755c8e"/><path d="m452.673 154.732c0-3.987-3.232-7.22-7.22-7.22-9.557.33-9.555 14.111 0 14.439 3.988 0 7.22-3.232 7.22-7.219z" fill="#9175a7"/></g><g><path d="m442.323 245.012h6.262v-22.652c0-1.729-1.402-3.131-3.131-3.131s-3.131 1.402-3.131 3.131z" fill="#755c8e"/><path d="m438.234 245.012c0 3.987 3.232 7.22 7.22 7.22 9.557-.33 9.555-14.111 0-14.439-3.988-.001-7.22 3.232-7.22 7.219z" fill="#9175a7"/></g></g><g><g><path d="m400.314 196.741v6.262h22.652c1.729 0 3.131-1.402 3.131-3.131s-1.402-3.131-3.131-3.131z" fill="#755c8e"/><path d="m400.314 192.652c-3.987 0-7.22 3.232-7.22 7.22.33 9.557 14.111 9.555 14.439 0 0-3.987-3.232-7.22-7.219-7.22z" fill="#9175a7"/></g><g><path d="m490.594 203.003v-6.262h-22.652c-1.729 0-3.131 1.402-3.131 3.131s1.402 3.131 3.131 3.131z" fill="#755c8e"/><path d="m490.594 207.091c3.987 0 7.22-3.232 7.22-7.22-.33-9.557-14.111-9.555-14.439 0-.001 3.988 3.231 7.22 7.219 7.22z" fill="#9175a7"/></g></g><g><g><path d="m411.321 229.577 4.428 4.428 16.017-16.017c1.223-1.223 1.223-3.205 0-4.428s-3.205-1.223-4.428 0z" fill="#755c8e"/><path d="m408.43 226.686c-2.819 2.819-2.819 7.391 0 10.21 6.991 6.524 16.734-3.222 10.21-10.21-2.82-2.82-7.391-2.82-10.21 0z" fill="#9175a7"/></g><g><path d="m479.586 170.167-4.428-4.428-16.017 16.017c-1.223 1.223-1.223 3.205 0 4.428s3.205 1.223 4.428 0z" fill="#755c8e"/><path d="m482.477 173.058c2.819-2.819 2.819-7.391 0-10.21-6.991-6.524-16.734 3.222-10.21 10.21 2.82 2.82 7.391 2.82 10.21 0z" fill="#9175a7"/></g></g><g><g><path d="m475.158 234.005 4.428-4.428-16.017-16.017c-1.223-1.223-3.205-1.223-4.428 0s-1.223 3.205 0 4.428z" fill="#755c8e"/><path d="m472.267 236.896c2.819 2.819 7.391 2.819 10.21 0 6.524-6.991-3.222-16.734-10.21-10.21-2.819 2.819-2.819 7.39 0 10.21z" fill="#9175a7"/></g><g><path d="m415.749 165.739-4.428 4.428 16.017 16.017c1.223 1.223 3.205 1.223 4.428 0s1.223-3.205 0-4.428z" fill="#755c8e"/><path d="m418.64 162.848c-2.819-2.819-7.391-2.819-10.21 0-6.524 6.991 3.222 16.734 10.21 10.21 2.819-2.819 2.819-7.391 0-10.21z" fill="#9175a7"/></g></g></g></g><g><g><path d="m426.4 64.95c-8.726-7.793-18.008-14.991-27.73-21.54h-.01l-3.61-2.39c-19.704 7.965-21.711 35.323-3.36 46.04h.01c15.612 9.299 36.105-.686 38.46-18.69z" fill="#755c8e"/><path d="m426.4 64.95c-8.726-7.793-18.008-14.991-27.73-21.54h-.01l-3.61-2.39c-1.29.52-2.52 1.14-3.69 1.85-6.43 22.316 18.23 41.143 38.06 29.05.33-1.15.58-2.34.74-3.55z" fill="#9175a7"/></g><g><g><g><path d="m401.99 45.69c-1.53.16-2.93-.83-3.32-2.28 1.12.75 2.22 1.51 3.32 2.28z" fill="#755c8e"/></g><g><path d="m407.596 110.024 6.206-.835-3.02-22.45c-.231-1.714-1.807-2.916-3.52-2.686-1.714.231-2.916 1.807-2.686 3.52z" fill="#755c8e"/><path d="m403.544 110.569c.532 3.952 4.166 6.724 8.118 6.193 9.428-1.601 7.588-15.258-1.925-14.31-3.952.531-6.725 4.165-6.193 8.117z" fill="#9175a7"/></g></g><g><g><path d="m359.527 67.784.835 6.206 22.45-3.02c1.714-.231 2.916-1.807 2.686-3.521s-1.807-2.916-3.521-2.686z" fill="#755c8e"/><path d="m358.982 63.732c-3.952.532-6.724 4.166-6.193 8.118 1.601 9.428 15.258 7.588 14.31-1.925-.531-3.952-4.166-6.725-8.117-6.193z" fill="#9175a7"/></g><g><path d="m426.4 64.95c-1.12-.21-2.06-1.02-2.41-2.12.81.7 1.62 1.41 2.41 2.12z" fill="#755c8e"/></g></g><g><g><path d="m374.813 98.859 4.979 3.798 13.739-18.01c1.049-1.375.785-3.34-.59-4.388-1.375-1.049-3.34-.785-4.388.59z" fill="#755c8e"/><path d="m371.563 96.38c-2.418 3.17-1.809 7.701 1.361 10.119 7.799 5.534 16.155-5.424 8.758-11.48-3.171-2.419-7.701-1.81-10.119 1.361z" fill="#9175a7"/></g></g><g><g><path d="m438.671 94.737 3.798-4.979-18.009-13.738c-1.375-1.049-3.34-.785-4.388.59s-.785 3.34.59 4.388z" fill="#755c8e"/><path d="m436.192 97.988c3.17 2.418 7.701 1.809 10.119-1.361 5.534-7.799-5.424-16.155-11.48-8.758-2.419 3.17-1.81 7.701 1.361 10.119z" fill="#9175a7"/></g><g><path d="m370.691 35.001-3.798 4.979 18.01 13.739c1.375 1.049 3.34.785 4.388-.59 1.049-1.375.785-3.34-.59-4.388z" fill="#755c8e"/><path d="m373.171 31.751c-3.17-2.418-7.701-1.809-10.119 1.361-5.534 7.799 5.424 16.155 11.48 8.758 2.419-3.171 1.809-7.701-1.361-10.119z" fill="#9175a7"/></g></g></g></g><g><g><path d="m140.47 465.23c-.689 5.755-3.415 11.296-7.57 15.28-1.49-.82-2.95-1.65-4.41-2.49-13.147-7.548-25.583-16.279-37.19-26.03 4.75-11.446 17.914-17.966 29.86-14.84 12.451 2.973 20.988 15.397 19.31 28.08z" fill="#755c8e"/><path d="m140.47 465.23c-.534 4.507-2.378 9.005-5.13 12.55-2.22.39-4.53.48-6.85.24-6.71-3.848-13.248-8.02-19.56-12.47-5.267-8.368-4.668-20.9 1.74-28.8 16.705-3.009 32.036 11.647 29.8 28.48z" fill="#9175a7"/></g><g><g><g><path d="m128.89 419.059-6.077-1.513-5.472 21.981c-.418 1.678.604 3.377 2.282 3.795s3.377-.604 3.795-2.282z" fill="#755c8e"/><path d="m132.857 420.047c.963-3.869-1.392-7.787-5.262-8.75-9.354-1.988-12.681 11.384-3.488 14.012 3.869.963 7.787-1.393 8.75-5.262z" fill="#9175a7"/></g></g><g><g><path d="m96.17 455.98c-1.06-.84-2.1-1.69-3.15-2.56 1.496.225 2.838 1.039 3.15 2.56z" fill="#755c8e"/></g><g><path d="m157.993 476.049 1.513-6.077-21.981-5.472c-1.678-.418-3.377.604-3.795 2.282s.604 3.377 2.282 3.795z" fill="#755c8e"/><path d="m157.005 480.017c3.869.963 7.787-1.392 8.75-5.262 1.988-9.354-11.384-12.681-14.012-3.488-.963 3.869 1.393 7.786 5.262 8.75z" fill="#9175a7"/></g></g><g><g><path d="m155.244 441.527-3.227-5.367-19.412 11.673c-1.482.891-1.961 2.815-1.07 4.297s2.815 1.961 4.297 1.07z" fill="#755c8e"/><path d="m157.351 445.03c3.417-2.055 4.521-6.491 2.467-9.908-5.208-8.02-17.016-.917-12.374 7.441 2.054 3.418 6.49 4.522 9.907 2.467z" fill="#9175a7"/></g></g><g><g><path d="m94.367 421.808-5.367 3.227 11.673 19.412c.891 1.482 2.815 1.961 4.297 1.07s1.961-2.815 1.07-4.297z" fill="#755c8e"/><path d="m97.871 419.701c-2.055-3.417-6.491-4.521-9.908-2.467-8.02 5.208-.917 17.016 7.441 12.374 3.417-2.055 4.522-6.49 2.467-9.907z" fill="#9175a7"/></g></g></g></g></g><g><g><g><g><path d="m357.719 209.558v150.937c0 6.038-3.641 11.215-8.846 13.473h-.007c-1.786.771-3.752 1.202-5.823 1.202h-174.09c-2.071 0-4.037-.431-5.823-1.202-5.204-2.251-8.852-7.435-8.852-13.473v-150.937l101.72-102.03z" fill="#fbcb74"/><path d="m357.719 209.558v150.937c0 6.038-3.641 11.215-8.846 13.473h-.007c-5.198-2.258-8.846-7.435-8.846-13.473v-150.937c0-6.031 3.648-11.208 8.846-13.473h.007c5.205 2.258 8.846 7.442 8.846 13.473z" fill="#faefdc"/><path d="m171.976 209.558v150.937c0 6.038-3.641 11.222-8.846 13.473-5.204-2.251-8.852-7.435-8.852-13.473v-150.937c0-6.031 3.648-11.215 8.852-13.473 5.205 2.258 8.846 7.442 8.846 13.473z" fill="#deb36f"/><path d="m317.905 201.717c0 4.887-3.962 8.849-8.849 8.849h-106.116c-4.887 0-8.849-3.962-8.849-8.849s3.962-8.849 8.849-8.849h106.116c4.887 0 8.849 3.962 8.849 8.849z" fill="#fbd9a3"/><path d="m330.855 210.566h-149.713c-5.062 0-9.166 4.104-9.166 9.166v130.591c0 5.062 4.104 9.166 9.166 9.166h149.713c5.062 0 9.166-4.104 9.166-9.166v-130.591c-.001-5.062-4.104-9.166-9.166-9.166z" fill="#c0405c"/></g><g><path d="m394.803 231.647c0 3.148-1.202 6.288-3.599 8.686-4.822 4.822-12.653 4.795-17.441-.063l-109.017-110.649c-4.808-4.885-12.688-4.885-17.497 0l-109.015 110.65c-2.404 2.439-5.58 3.662-8.748 3.662-3.148 0-6.295-1.202-8.693-3.599-4.051-4.051-4.676-10.228-1.89-14.939.514-.869 1.146-1.688 1.89-2.432l126.54-126.535c4.794-4.801 12.577-4.795 17.371 0l126.499 126.534c.743.744 1.376 1.563 1.89 2.432 1.14 1.925 1.71 4.086 1.71 6.253z" fill="#e9465e"/><path d="m393.094 225.394c-.514.869-1.146 1.689-1.89 2.432v.007c-4.822 4.822-12.653 4.788-17.441-.07l-109.017-110.649c-4.808-4.885-12.688-4.885-17.497 0l-109.015 110.649c-2.404 2.439-5.58 3.662-8.755 3.662-3.148 0-6.288-1.195-8.686-3.592-.75-.75-1.376-1.57-1.89-2.439.514-.869 1.146-1.688 1.89-2.432l126.54-126.534c4.794-4.801 12.577-4.795 17.371 0l126.499 126.534c.744.743 1.377 1.563 1.891 2.432z" fill="#ee6781"/><g fill="#f789a1"><path d="m169.748 185.269-.359-.352c-2.932-2.878-2.954-7.594-.049-10.499l47.688-47.685c2.868-2.868 7.511-2.888 10.404-.046 2.914 2.863 2.952 7.547.085 10.457l-47.328 48.037c-2.862 2.903-7.533 2.942-10.441.088z"/><path d="m342.257 185.267.351-.344c2.939-2.881 2.963-7.607.053-10.517l-47.659-47.672c-2.869-2.87-7.513-2.894-10.412-.055-2.926 2.866-2.968 7.564-.094 10.481l47.308 48.016c2.864 2.907 7.539 2.947 10.453.091z"/></g></g></g><g><path d="m339.805 113.41v58.139l-23.34-23.347v-34.792c0-3.252 2.633-5.885 5.878-5.885h11.583c3.246 0 5.879 2.633 5.879 5.885z" fill="#c0405c"/><path d="m339.805 113.41v49.509l-9.401-9.408c-3.405-3.398-5.309-8.012-5.309-12.813v-27.288c0-3.252 2.634-5.885 5.879-5.885h2.953c3.245 0 5.878 2.633 5.878 5.885z" fill="#e9465e"/></g></g><g><g><g><path d="m329.968 300.372c0 .729-.123 1.431-.355 2.085-.314.901-.83 1.708-1.491 2.369-1.14 1.14-2.717 1.846-4.455 1.846h-135.338c-3.479 0-6.301-2.821-6.301-6.301 0-1.738.706-3.315 1.846-4.455.96-.96 2.235-1.611 3.651-1.79.262-.034.531-.052.803-.052h135.338c3.48.001 6.302 2.819 6.302 6.298z" fill="#d48d77"/><path d="m329.968 300.372c0 .729-.123 1.431-.355 2.085-.262.034-.531.052-.804.052h-135.337c-3.479 0-6.301-2.822-6.301-6.301 0-.729.123-1.431.355-2.082.262-.034.531-.052.803-.052h135.338c3.479.001 6.301 2.819 6.301 6.298z" fill="#eea47d"/><path d="m307.009 302.51h-81.89c-2.329 0-4.217-1.888-4.217-4.217s1.888-4.217 4.217-4.217h81.89c2.329 0 4.217 1.888 4.217 4.217s-1.888 4.217-4.217 4.217z" fill="#f5b890"/></g><g><path d="m197.945 306.673h116.107v52.816h-116.107z" fill="#a26d5a"/><path d="m205.711 319.42c0-2.691 2.179-4.869 4.869-4.869h90.836c2.691 0 4.869 2.179 4.869 4.869v40.069h-100.574z" fill="#c17e62"/><path d="m295.426 327.691h-62.998c-3.629 0-6.57-2.942-6.57-6.57 0-3.629 2.942-6.57 6.57-6.57h62.998c3.629 0 6.57 2.942 6.57 6.57 0 3.629-2.942 6.57-6.57 6.57z" fill="#d48d77"/></g></g><g><g><path d="m271.431 282.225v11.85h28.892v-11.85c0-5.937-4.811-10.751-10.752-10.751h-7.389c-5.94-.001-10.751 4.814-10.751 10.751z" fill="#dd5e26"/><path d="m271.431 282.225v11.85h22.011v-11.85c0-5.937-4.811-10.751-10.752-10.751h-.508c-5.94-.001-10.751 4.814-10.751 10.751z" fill="#ea792e"/></g><g><path d="m281.103 266.959v5.184c0 2.637 2.138 4.772 4.775 4.772.884 0 1.713-.241 2.422-.66 1.406-.828 2.35-2.36 2.35-4.112v-5.184z" fill="#f5b890"/><path d="m290.65 266.959v5.184c0 1.752-.944 3.284-2.35 4.112v-5.541c-1.66.693-3.485 1.076-5.399 1.076-.611 0-1.211-.04-1.799-.112v-4.719z" fill="#d48d77"/></g><g><g><g><path d="m299.312 251.388h-2.367v-7.407h2.367c2.046 0 3.704 1.658 3.704 3.704 0 2.045-1.658 3.703-3.704 3.703z" fill="#d48d77"/><path d="m299.432 249.274h-2.487v-3.179h2.487c.878 0 1.589.712 1.589 1.589 0 .878-.712 1.59-1.589 1.59z" fill="#c17e62"/></g><g><path d="m267.82 243.981h1.037v7.407h-1.037c-2.046 0-3.704-1.658-3.704-3.704.001-2.045 1.659-3.703 3.704-3.703z" fill="#d48d77"/><path d="m267.701 246.095h1.156v3.179h-1.156c-.878 0-1.589-.712-1.589-1.589 0-.878.711-1.59 1.589-1.59z" fill="#c17e62"/></g></g><g><path d="m268.857 235.737v19.51c0 3.878 1.571 7.389 4.112 9.93 1.835 1.832 4.171 3.158 6.785 3.759 1.013.231 2.066.353 3.148.353 7.755 0 14.045-6.287 14.045-14.042v-19.51c0-4.25-3.449-7.696-7.699-7.696h-12.695c-.746 0-1.465.106-2.148.307-3.205.928-5.548 3.884-5.548 7.389z" fill="#d48d77"/><path d="m268.857 235.737v19.51c0 3.878 1.571 7.389 4.112 9.93 1.835 1.832 4.171 3.158 6.785 3.759 6.244-1.429 10.897-7.016 10.897-13.689v-7.465c0-9.712-7.009-17.784-16.246-19.434-3.205.928-5.548 3.884-5.548 7.389z" fill="#f5b890"/><g fill="#eea47d"><path d="m278.93 248.665h2.863c1.176 0 2.129.953 2.129 2.129s-.953 2.129-2.129 2.129h-2.863c-1.176 0-2.129-.953-2.129-2.129 0-1.175.953-2.129 2.129-2.129z"/><path d="m279.309 228.041h3.592v22.07h-3.592z" transform="matrix(-1 0 0 -1 562.21 478.152)"/></g><g fill="#334353"><path d="m286.712 240.337c1.075 0 1.946.871 1.946 1.946v3.396c0 1.075-.871 1.946-1.946 1.946s-1.946-.871-1.946-1.946v-3.396c.001-1.075.872-1.946 1.946-1.946z"/><path d="m275.498 240.337c1.075 0 1.946.871 1.946 1.946v3.396c0 1.075-.871 1.946-1.946 1.946s-1.946-.871-1.946-1.946v-3.396c0-1.075.871-1.946 1.946-1.946z"/></g><g><path d="m282.393 260.771c3.371 0 6.113-2.742 6.113-6.113 0-.638-.517-1.155-1.155-1.155s-1.155.517-1.155 1.155c0 2.097-1.706 3.803-3.803 3.803-.638 0-1.155.517-1.155 1.155-.001.638.517 1.155 1.155 1.155z" fill="#c17e62"/></g></g><g><path d="m296.945 251.388h2.367c.414 0 .811-.071 1.182-.196v.987c0 1.964-1.592 3.556-3.556 3.556z" fill="#3e4e60"/><path d="m296.936 244.062h2.378c.396 0 .77.078 1.128.193l.06.003v-9.736c0-4.518-3.662-8.18-8.18-8.18h-9.494v2.043c0 2.666 2.161 4.828 4.828 4.828 1.633 0 2.957 1.324 2.957 2.957v1.736c0 3.4 2.756 6.156 6.156 6.156l.167.009z" fill="#3e4e60"/><path d="m267.067 230.219c0 1.016-.823 1.839-1.839 1.839-.437 0-.861-.156-1.193-.44l-2.198-1.875c-.782-.667-1.986-.111-1.986.916v2.593c0 3.63 2.942 6.572 6.572 6.572 1.509 0 2.955-.599 4.022-1.666l2.332-2.332c1.673-1.673 3.943-2.613 6.309-2.613h10.021c1.897 0 3.435-1.538 3.435-3.435s-1.538-3.435-3.435-3.435h-18.164c-2.141 0-3.876 1.735-3.876 3.876z" fill="#3f5d77"/></g></g><g><path d="m288.506 288.289h9.366v5.787h-9.366z" fill="#d48d77" transform="matrix(-1 0 0 -1 586.377 582.364)"/><path d="m288.506 288.289h4.936v5.787h-4.936z" fill="#f5b890" transform="matrix(-1 0 0 -1 581.948 582.364)"/></g></g><g><g><path d="m252.538 239.208v35.174c0 .959-.285 1.855-.778 2.606-.618.959-1.57 1.675-2.696 1.987-.41.118-.848.181-1.292.181h-53.914c-.452 0-.882-.062-1.292-.181-1.126-.313-2.078-1.028-2.696-1.987-.493-.75-.778-1.647-.778-2.606v-35.174c0-.445.063-.882.181-1.292.445-1.591 1.695-2.849 3.294-3.294.41-.118.848-.181 1.292-.181h53.914c.452 0 .882.063 1.292.181 1.591.445 2.849 1.695 3.294 3.294.116.409.179.847.179 1.292z" fill="#c2aacf"/><path d="m251.759 276.987c-.848 1.306-2.314 2.168-3.988 2.168h-53.914c-1.675 0-3.141-.862-3.988-2.168 1.883-5.378 7.004-9.228 13.015-9.228h35.855c6.016 0 11.137 3.85 13.02 9.228z" fill="#9175a7"/><path d="m196.039 239.208v35.174c0 .959-.285 1.855-.778 2.606-.618.959-1.57 1.675-2.696 1.987-1.126-.313-2.078-1.028-2.696-1.987-.493-.75-.778-1.647-.778-2.606v-35.174c0-2.182 1.466-4.023 3.474-4.586 2.008.562 3.474 2.404 3.474 4.586z" fill="#a583bb"/><path d="m252.538 239.208v35.174c0 .959-.285 1.855-.778 2.606-.618.959-1.57 1.675-2.696 1.987-1.126-.313-2.078-1.028-2.696-1.987-.493-.75-.778-1.647-.778-2.606v-35.174c0-2.189 1.473-4.03 3.474-4.586 2.001.555 3.474 2.397 3.474 4.586z" fill="#decee5"/><path d="m207.278 240.927h27.072c1.741 0 3.153-1.412 3.153-3.153s-1.412-3.153-3.153-3.153h-27.072c-1.741 0-3.153 1.412-3.153 3.153 0 1.742 1.412 3.153 3.153 3.153z" fill="#ebd9ea"/></g><path d="m225.297 273.125h-8.966c-1.587 0-2.874 1.287-2.874 2.874v11.841h14.715v-11.84c-.001-1.588-1.288-2.875-2.875-2.875z" fill="#a583bb"/><g><path d="m237.672 287.84h-33.716c-1.722 0-3.117 1.396-3.117 3.117 0 1.722 1.396 3.117 3.117 3.117h33.716c1.722 0 3.117-1.396 3.117-3.117s-1.395-3.117-3.117-3.117z" fill="#c2aacf"/><path d="m231.208 287.84h-20.789c-1.062 0-1.922.861-1.922 1.922 0 1.062.861 1.922 1.922 1.922h20.789c1.062 0 1.922-.861 1.922-1.922s-.86-1.922-1.922-1.922z" fill="#decee5"/></g></g></g></g></g></svg>