<svg id="Capa_1" enable-background="new 0 0 512 512" height="512" viewBox="0 0 512 512" width="512" xmlns="http://www.w3.org/2000/svg"><g><g><path d="m497.677 161.648-88.314-88.755c-3.753-3.772-7.855-5.893-13.176-5.893l-10.687-1h-358l-4 1c-8.284 0-15 6.716-15 15v348c0 8.284 6.716 15 15 15h465c8.284 0 15-6.716 15-15l1-4v-241.5l-1-9.745c0-5.287-2.093-9.359-5.823-13.107z" fill="#b2e5fb"/><path d="m32.644 426c-2.841 0-5.144-2.303-5.144-5.144v-354.856h-5c-8.284 0-15 6.716-15 15v350c0 8.284 6.716 15 15 15h467c8.284 0 15-6.716 15-15v-5z" fill="#98e0f9"/><path d="m504.5 174.755c0-2.875-.619-5.686-1.783-8.255-.977-2.156-4.338-2.142-6.039-3.852l-88.314-88.755c-1.71-1.719-1.7-5.095-3.863-6.083-2.585-1.181-5.417-1.81-8.314-1.81h-10.687v93.5c0 13.807 11.193 25 25 25h94z" fill="#98e0f9"/><path d="m404.5 67.811v83.689c0 8.284 6.716 15 15 15h83.217c-.425-.937-1.01-2.037-1.819-3.195-.756-1.083-1.529-1.962-2.221-2.657-29.438-29.585-58.876-59.17-88.314-88.755-.706-.709-1.609-1.511-2.729-2.293-1.136-.793-2.215-1.37-3.134-1.789z" fill="#b2e5fb"/><g fill="#f8f7f7"><circle cx="262.248" cy="144.515" r="14.983"/><path d="m82.5 123.466c0-4.366-5.203-6.635-8.402-3.664l-22.652 21.034c-2.13 1.978-2.13 5.35 0 7.328l22.652 21.034c3.199 2.971 8.402.702 8.402-3.664z"/></g></g><g><path d="m241.29 152c3.096 8.729 11.432 15 21.21 15 12.407 0 22.5-10.094 22.5-22.5s-10.093-22.5-22.5-22.5c-9.777 0-18.114 6.271-21.21 15h-36.29v-1.5c0-9.649-7.851-17.5-17.5-17.5h-50c-9.649 0-17.5 7.851-17.5 17.5v1.5h-30v-13.534c.27-9.643-12.545-16.748-21.006-9.16l-22.652 21.035c-2.538 2.356-3.994 5.695-3.994 9.159s1.456 6.803 3.994 9.159v.001l22.652 21.034c6.447 6.679 20.887 2.43 21.005-9.16v-13.534h30v56h-32.499c-6.893 0-12.5 5.607-12.5 12.5v30c0 4.143 3.358 7.5 7.5 7.5s7.5-3.357 7.5-7.5v-27.5h30v7.5c0 9.649 7.851 17.5 17.5 17.5h50c9.649 0 17.5-7.851 17.5-17.5v-7.5h65.044c3.651 25.407 25.554 45 51.956 45s48.304-19.593 51.956-45h43.044v53.097c0 3.819 1.71 7.378 4.691 9.761l23.124 18.499c2.851 2.436 7.451 2.306 10.542-1.171 2.752-3.096 2.063-7.954-1.171-10.542l-22.186-17.748v-54.396c0-6.893-5.607-12.5-12.5-12.5h-45.544c-3.651-25.407-25.554-45-51.956-45s-48.304 19.593-51.956 45h-65.044v-56zm21.21-15c4.136 0 7.5 3.364 7.5 7.5s-3.364 7.5-7.5 7.5-7.5-3.364-7.5-7.5 3.364-7.5 7.5-7.5zm-187.5 22.801-16.478-15.301 16.478-15.301zm215.729 35.034 20.665 20.665-20.665 20.665c-3.931-5.93-6.229-13.032-6.229-20.665s2.297-14.735 6.229-20.665zm10.606 51.936 20.665-20.664 20.665 20.665c-5.93 3.931-13.033 6.228-20.665 6.228s-14.735-2.297-20.665-6.229zm51.936-51.936c3.931 5.93 6.229 13.032 6.229 20.665s-2.297 14.735-6.229 20.665l-20.664-20.665zm-10.606-10.606-20.665 20.664-20.665-20.665c5.93-3.931 13.033-6.228 20.665-6.228s14.735 2.297 20.665 6.229zm-152.665 46.271c0 1.379-1.122 2.5-2.5 2.5h-50c-1.378 0-2.5-1.121-2.5-2.5v-95c0-1.379 1.122-2.5 2.5-2.5h50c1.378 0 2.5 1.121 2.5 2.5z"/><path d="m417 318.5v48.5h-33.553c-4.142 0-7.5 3.357-7.5 7.5s3.358 7.5 7.5 7.5h36.053c6.893 0 12.5-5.607 12.5-12.5v-51c0-4.143-3.358-7.5-7.5-7.5s-7.5 3.357-7.5 7.5z"/><path d="m192.5 409.5c4.142 0 7.5-3.357 7.5-7.5v-55c0-4.143-3.358-7.5-7.5-7.5s-7.5 3.357-7.5 7.5v20h-95v-81.5c0-4.143-3.358-7.5-7.5-7.5s-7.5 3.357-7.5 7.5v84c0 6.893 5.607 12.5 12.5 12.5h97.5v20c0 4.143 3.358 7.5 7.5 7.5z"/><path d="m215 364.5v20c0 4.143 3.358 7.5 7.5 7.5s7.5-3.357 7.5-7.5v-20c0-4.143-3.358-7.5-7.5-7.5s-7.5 3.357-7.5 7.5z"/><path d="m311.5 397c4.142 0 7.5-3.357 7.5-7.5v-7.5h29.447c4.142 0 7.5-3.357 7.5-7.5s-3.358-7.5-7.5-7.5h-29.447v-7.5c0-4.143-3.358-7.5-7.5-7.5s-7.5 3.357-7.5 7.5v30c0 4.143 3.358 7.5 7.5 7.5z"/><path d="m281.5 409.5c4.142 0 7.5-3.357 7.5-7.5v-55c0-4.143-3.358-7.5-7.5-7.5s-7.5 3.357-7.5 7.5v20h-21.5c-4.142 0-7.5 3.357-7.5 7.5s3.358 7.5 7.5 7.5h21.5v20c0 4.143 3.358 7.5 7.5 7.5z"/><path d="m312 298.5c0-4.143-3.358-7.5-7.5-7.5h-42c-4.142 0-7.5 3.357-7.5 7.5s3.358 7.5 7.5 7.5h42c4.142 0 7.5-3.357 7.5-7.5z"/><path d="m240 298.5c0-4.143-3.358-7.5-7.5-7.5h-12.5v-12.5c0-4.143-3.358-7.5-7.5-7.5s-7.5 3.357-7.5 7.5v12.5h-12.5c-4.142 0-7.5 3.357-7.5 7.5s3.358 7.5 7.5 7.5h12.5v12.5c0 4.143 3.358 7.5 7.5 7.5s7.5-3.357 7.5-7.5v-12.5h12.5c4.142 0 7.5-3.357 7.5-7.5z"/><path d="m503.994 155.358-88.313-88.755c-5.124-5.149-12.229-8.104-19.494-8.104h-148.687c-4.142 0-7.5 3.357-7.5 7.5s3.358 7.5 7.5 7.5h148.687c.272 0 .543.023.813.041v77.96c0 12.406 10.093 22.5 22.5 22.5h77.463c.015.251.037.501.037.755v86.245c0 4.143 3.358 7.5 7.5 7.5s7.5-3.357 7.5-7.5v-86.245c0-7.319-2.843-14.208-8.006-19.397zm-91.994-3.858v-67.329l74.457 74.829h-66.957c-4.136 0-7.5-3.364-7.5-7.5z"/><path d="m504.5 288.5c-4.142 0-7.5 3.357-7.5 7.5v135c0 4.136-3.364 7.5-7.5 7.5h-467c-4.136 0-7.5-3.364-7.5-7.5v-350c0-4.136 3.364-7.5 7.5-7.5h190c4.142 0 7.5-3.357 7.5-7.5s-3.358-7.5-7.5-7.5h-190c-12.407 0-22.5 10.094-22.5 22.5v350c0 12.406 10.093 22.5 22.5 22.5h467c12.407 0 22.5-10.094 22.5-22.5v-135c0-4.143-3.358-7.5-7.5-7.5z"/></g></g></svg>