<svg id="Icons" enable-background="new 0 0 512 512" height="512" viewBox="0 0 512 512" width="512" xmlns="http://www.w3.org/2000/svg"><g><circle cx="256" cy="256" fill="#f39e22" r="256"/><g><g><path d="m263.333 473.628c-5.069.171-10.197.167-15.239-.011-2.705-.096-4.82-2.366-4.725-5.071.096-2.704 2.369-4.81 5.07-4.724 6.27.222 12.659.161 18.931-.182 2.707-.137 5.013 1.924 5.161 4.626s-1.923 5.013-4.626 5.161c-1.52.083-3.043.15-4.572.201zm42.758-5.775c-2.279.077-4.372-1.452-4.925-3.755-.632-2.631.989-5.277 3.621-5.909 6.111-1.468 12.226-3.236 18.175-5.257 2.561-.869 5.345.502 6.216 3.065.87 2.563-.502 5.346-3.065 6.216-6.231 2.116-12.637 3.969-19.038 5.506-.329.079-.659.123-.984.134zm-96.042.894c-.403.014-.815-.022-1.227-.114-6.428-1.422-12.866-3.158-19.135-5.162-2.578-.824-4-3.582-3.176-6.159.823-2.579 3.584-4 6.159-3.176 5.985 1.913 12.131 3.571 18.268 4.928 2.643.585 4.311 3.201 3.727 5.843-.493 2.23-2.434 3.766-4.616 3.84zm150.015-22.029c-1.773.06-3.517-.849-4.445-2.503-1.323-2.361-.481-5.348 1.88-6.67 5.482-3.071 10.889-6.434 16.073-9.995 2.229-1.533 5.281-.967 6.814 1.265 1.532 2.231.965 5.282-1.265 6.814-5.429 3.729-11.091 7.251-16.831 10.466-.706.395-1.468.597-2.226.623zm-204.348 1.884c-.835.028-1.687-.157-2.476-.58-5.797-3.109-11.523-6.524-17.019-10.151-2.259-1.491-2.882-4.53-1.391-6.789s4.53-2.882 6.789-1.391c5.248 3.464 10.717 6.725 16.253 9.694 2.385 1.279 3.282 4.25 2.003 6.635-.857 1.595-2.471 2.525-4.159 2.582zm250.586-36.833c-1.312.044-2.639-.436-3.639-1.44-1.909-1.918-1.903-5.021.015-6.93 4.455-4.436 8.76-9.129 12.795-13.948 1.737-2.075 4.83-2.349 6.903-.612 2.075 1.738 2.349 4.828.612 6.903-4.225 5.046-8.731 9.959-13.396 14.603-.912.909-2.095 1.384-3.29 1.424zm-297.461 2.758c-1.275.043-2.564-.408-3.557-1.361-4.752-4.557-9.351-9.384-13.668-14.348-1.776-2.042-1.561-5.137.481-6.913s5.136-1.561 6.913.481c4.125 4.741 8.517 9.353 13.057 13.706 1.954 1.873 2.019 4.975.146 6.929-.921.961-2.139 1.465-3.372 1.506zm332.61-48.833c-.871.029-1.762-.173-2.576-.635-2.355-1.335-3.182-4.325-1.848-6.68 3.099-5.468 5.983-11.144 8.571-16.87 1.115-2.466 4.013-3.562 6.484-2.448 2.466 1.115 3.562 4.017 2.447 6.484-2.71 5.997-5.73 11.94-8.975 17.667-.873 1.541-2.455 2.427-4.103 2.482zm-368.619 3.419c-1.733.058-3.443-.806-4.387-2.404-3.353-5.668-6.482-11.558-9.302-17.506-1.159-2.446-.116-5.368 2.329-6.527 2.446-1.157 5.368-.117 6.527 2.329 2.691 5.679 5.679 11.302 8.88 16.714 1.378 2.329.607 5.335-1.723 6.712-.731.434-1.53.655-2.324.682zm390.043-57.262c-.44.015-.89-.03-1.338-.14-2.629-.646-4.235-3.301-3.589-5.929 1.499-6.097 2.734-12.342 3.672-18.561.403-2.677 2.905-4.521 5.576-4.115 2.677.403 4.519 2.9 4.115 5.576-.981 6.514-2.276 13.055-3.845 19.441-.535 2.179-2.454 3.656-4.591 3.728zm-412.45 3.801c-2.232.075-4.301-1.392-4.898-3.643-1.685-6.355-3.097-12.871-4.197-19.366-.452-2.668 1.345-5.198 4.013-5.65 2.663-.457 5.198 1.345 5.65 4.013 1.051 6.202 2.399 12.424 4.008 18.492.693 2.616-.865 5.299-3.481 5.993-.366.096-.733.149-1.095.161zm418.473-61.435c-2.705.091-4.972-2.028-5.063-4.732l-.017-.485c-.213-6.303-.712-12.652-1.484-18.869-.334-2.686 1.573-5.133 4.258-5.467 2.705-.327 5.134 1.574 5.467 4.259.808 6.507 1.331 13.151 1.554 19.746l.016.484c.092 2.706-2.026 4.972-4.731 5.064zm-425.563 3.921c-.076.003-.152.004-.229.002-2.706-.033-4.873-2.254-4.84-4.96.08-6.594.463-13.248 1.136-19.779.278-2.692 2.681-4.648 5.378-4.372 2.692.278 4.649 2.686 4.372 5.378-.643 6.236-1.009 12.593-1.086 18.892-.032 2.63-2.13 4.751-4.731 4.839zm415.78-61.519c-2.142.072-4.157-1.278-4.835-3.422-1.893-5.988-4.089-11.963-6.525-17.76-1.048-2.495.124-5.368 2.618-6.416 2.494-1.05 5.369.123 6.417 2.619 2.552 6.071 4.852 12.33 6.835 18.603.816 2.58-.614 5.334-3.195 6.15-.437.138-.879.211-1.315.226zm-407.204 4.215c-.51.017-1.032-.046-1.548-.197-2.597-.763-4.083-3.487-3.32-6.084 1.855-6.311 4.026-12.614 6.453-18.733.998-2.516 3.848-3.745 6.362-2.749 2.515.998 3.746 3.846 2.749 6.362-2.317 5.842-4.389 11.858-6.16 17.883-.612 2.081-2.481 3.449-4.536 3.518zm382.331-56.561c-1.653.056-3.293-.726-4.267-2.209-3.445-5.248-7.177-10.409-11.095-15.338-1.683-2.119-1.33-5.202.788-6.885 2.121-1.684 5.201-1.331 6.886.788 4.1 5.16 8.008 10.563 11.615 16.058 1.485 2.263.854 5.301-1.408 6.786-.779.511-1.651.771-2.519.8zm-358.543 3.733c-.943.032-1.905-.208-2.764-.746-2.293-1.438-2.986-4.462-1.549-6.755 3.494-5.574 7.288-11.056 11.276-16.294 1.639-2.154 4.713-2.57 6.868-.931 2.153 1.639 2.57 4.714.931 6.868-3.809 5.003-7.432 10.24-10.77 15.564-.9 1.432-2.419 2.241-3.992 2.294zm320.452-47.425c-1.199.04-2.414-.356-3.388-1.207-4.739-4.14-9.72-8.108-14.805-11.795-2.191-1.589-2.678-4.653-1.09-6.844 1.588-2.19 4.651-2.68 6.844-1.09 5.323 3.86 10.537 8.014 15.498 12.347 2.039 1.78 2.247 4.876.467 6.915-.929 1.064-2.217 1.63-3.526 1.674zm-283.289 2.945c-1.386.047-2.782-.491-3.79-1.596-1.823-2-1.679-5.1.321-6.923 4.866-4.434 9.992-8.698 15.237-12.672 2.157-1.635 5.231-1.211 6.865.946 1.635 2.157 1.211 5.231-.946 6.865-5.009 3.796-9.906 7.868-14.554 12.105-.895.815-2.011 1.237-3.133 1.275zm234.876-34.799c-.761.026-1.538-.126-2.273-.476-5.676-2.711-11.539-5.188-17.427-7.364-2.538-.938-3.836-3.757-2.898-6.295.938-2.539 3.757-3.837 6.296-2.898 6.167 2.279 12.307 4.874 18.253 7.712 2.442 1.166 3.476 4.092 2.31 6.534-.815 1.708-2.492 2.727-4.261 2.787zm-187.132 1.937c-1.851.062-3.659-.932-4.545-2.696-1.216-2.418-.243-5.364 2.175-6.58 5.882-2.96 11.972-5.681 18.1-8.09 2.517-.99 5.363.249 6.353 2.768s-.25 5.363-2.768 6.353c-5.85 2.299-11.664 4.898-17.28 7.723-.655.33-1.348.498-2.035.522zm131.927-19.513c-.329.011-.665-.011-1.002-.069-6.184-1.066-12.501-1.86-18.773-2.358-2.697-.215-4.71-2.576-4.496-5.274.215-2.697 2.569-4.707 5.273-4.496 6.568.523 13.183 1.354 19.66 2.47 2.667.46 4.456 2.995 3.997 5.661-.402 2.33-2.386 3.99-4.659 4.066zm-77.085.81c-2.366.08-4.506-1.569-4.97-3.967-.514-2.657 1.223-5.228 3.88-5.742 6.45-1.248 13.045-2.216 19.603-2.877 2.686-.278 5.096 1.692 5.367 4.385s-1.692 5.095-4.385 5.367c-6.263.631-12.563 1.556-18.722 2.747-.259.05-.517.079-.773.087z" fill="#f9c744"/></g><g><g><g><path d="m319.064 392.251v28.669h69.895v-28.669c0-14.362-11.64-26.01-26.01-26.01h-17.875c-14.37 0-26.01 11.648-26.01 26.01z" fill="#57409b"/><path d="m319.064 392.251v28.669h53.25v-28.669c0-14.362-11.64-26.01-26.01-26.01h-1.229c-14.371 0-26.011 11.648-26.011 26.01z" fill="#6052a3"/></g><g><path d="m342.464 355.32v12.542c0 6.379 5.173 11.544 11.552 11.544 2.139 0 4.143-.583 5.86-1.597 3.401-2.004 5.684-5.708 5.684-9.947v-12.542z" fill="#9b5b42"/><path d="m365.56 355.32v12.542c0 4.239-2.283 7.944-5.684 9.947v-13.404c-4.016 1.677-8.431 2.603-13.061 2.603-1.477 0-2.93-.096-4.351-.271v-11.417z" fill="#8e4e3f"/></g><g><g><path d="m312.837 279.789v47.198c0 9.381 3.8 17.875 9.947 24.022 4.439 4.431 10.091 7.64 16.414 9.093 2.451.559 4.998.854 7.616.854 18.761 0 33.977-15.208 33.977-33.97v-47.198c0-10.283-8.343-18.617-18.625-18.617h-30.712c-1.804 0-3.545.255-5.197.742-7.751 2.244-13.42 9.397-13.42 17.876z" fill="#8e4e3f"/><path d="m312.837 279.789v47.198c0 9.381 3.8 17.875 9.947 24.022 4.439 4.431 10.091 7.64 16.414 9.093 15.105-3.457 26.361-16.973 26.361-33.115v-18.059c0-23.495-16.957-43.023-39.302-47.014-7.751 2.243-13.42 9.396-13.42 17.875z" fill="#9b5b42"/><g fill="#8e4e3f"><path d="m337.207 311.065h6.927c2.845 0 5.151 2.306 5.151 5.151s-2.306 5.151-5.151 5.151h-6.927c-2.845 0-5.151-2.306-5.151-5.151s2.306-5.151 5.151-5.151z"/><path d="m338.124 261.17h8.689v53.391h-8.689z" transform="matrix(-1 0 0 -1 684.938 575.731)"/></g><g fill="#334353"><path d="m356.034 290.916c2.6 0 4.707 2.108 4.707 4.707v8.216c0 2.6-2.108 4.707-4.707 4.707-2.6 0-4.707-2.108-4.707-4.707v-8.216c0-2.599 2.108-4.707 4.707-4.707z"/><path d="m328.903 290.916c2.6 0 4.707 2.108 4.707 4.707v8.216c0 2.6-2.108 4.707-4.707 4.707-2.6 0-4.707-2.108-4.707-4.707v-8.216c0-2.599 2.108-4.707 4.707-4.707z"/></g><g><path d="m345.584 340.351c8.155 0 14.789-6.634 14.789-14.789 0-1.543-1.251-2.794-2.794-2.794s-2.794 1.251-2.794 2.794c0 5.073-4.127 9.2-9.201 9.2-1.543 0-2.794 1.251-2.794 2.794s1.25 2.795 2.794 2.795z" fill="#723e33"/></g></g><g><path d="m308.128 283.166c0-11.66 4.73-22.22 12.37-29.86 5.45-5.45 12.39-9.42 20.15-11.25 3.12-.73 6.37-1.12 9.71-1.12 23.33 0 42.23 18.9 42.23 42.23l-.075 46.2c-.019 11.924-9.691 21.58-21.615 21.58 6.114-6.143 9.895-14.609 9.895-23.959v-39.121h-33.203c-7.991 0-14.469-6.478-14.469-14.47 0 7.991-6.478 14.47-14.47 14.47h-5.813v39.121c0 9.349 3.776 17.817 9.887 23.959-8.062 0-14.597-6.535-14.597-14.597z" fill="#442a21"/><path d="m308.128 283.166c0-11.66 4.73-22.22 12.37-29.86 5.45-5.45 12.39-9.42 20.15-11.25 18.64 4.39 32.52 21.12 32.52 41.11v4.7h-25.578c-7.991 0-14.469-6.478-14.469-14.47 0 7.991-6.478 14.47-14.47 14.47h-5.813v39.121c0 9.349 3.776 17.817 9.887 23.959-8.062 0-14.597-6.535-14.597-14.597z" fill="#543029"/></g><g><g><path d="m386.515 317.652h-5.727v-17.92h5.727c4.949 0 8.96 4.012 8.96 8.96s-4.011 8.96-8.96 8.96z" fill="#8e4e3f"/><path d="m386.804 312.537h-6.016v-7.69h6.016c2.123 0 3.845 1.721 3.845 3.845 0 2.123-1.721 3.845-3.845 3.845z" fill="#723e33"/></g><g><path d="m310.33 299.732h2.508v17.92h-2.508c-4.948 0-8.96-4.012-8.96-8.96 0-4.949 4.012-8.96 8.96-8.96z" fill="#8e4e3f"/><path d="m310.041 304.847h2.797v7.69h-2.797c-2.123 0-3.845-1.721-3.845-3.845.001-2.124 1.722-3.845 3.845-3.845z" fill="#723e33"/></g></g></g><g><path d="m360.373 406.921h22.658v13.999h-22.658z" fill="#8e4e3f" transform="matrix(-1 0 0 -1 743.403 827.841)"/><path d="m360.373 406.921h11.941v13.999h-11.941z" fill="#9b5b42" transform="matrix(-1 0 0 -1 732.687 827.841)"/></g></g><g><g><g><path d="m451.8 420.92c-5.97 7.09-12.33 13.86-19.04 20.25-3.6 3.45-7.3 6.78-11.09 10h-292.47c-8.36 0-15.13-6.77-15.13-15.13 0-4.17 1.7-7.96 4.43-10.7 2.31-2.3 5.37-3.86 8.77-4.29.63-.09 1.27-.13 1.93-.13z" fill="#d48d77"/><path d="m451.8 420.92c-5.97 7.09-12.33 13.86-19.04 20.25h-291.21c-8.36 0-15.13-6.77-15.13-15.13 0-1.75.29-3.43.85-4.99.63-.09 1.27-.13 1.93-.13z" fill="#eea47d"/><path d="m414.187 441.174h-196.645c-5.593 0-10.127-4.534-10.127-10.127s4.534-10.127 10.127-10.127h196.645c5.593 0 10.127 4.534 10.127 10.127s-4.534 10.127-10.127 10.127z" fill="#f5b890"/></g><g><path d="m152.29 451.17v38.94c6.09 2.71 12.31 5.19 18.65 7.41 26.61 9.38 55.24 14.48 85.06 14.48 25.12 0 49.39-3.62 72.32-10.36 23.34-6.86 45.28-16.96 65.33-29.77h.01c.92-.59 1.84-1.18 2.76-1.78 8.81-5.8 17.24-12.12 25.25-18.92z" fill="#a26d5a"/><path d="m182.63 470.09c-6.46 0-11.69 5.23-11.69 11.69v15.74c26.61 9.38 55.24 14.48 85.06 14.48 25.12 0 49.39-3.62 72.32-10.36 23.34-6.86 45.28-16.96 65.33-29.77h.01c.92-.59 1.84-1.18 2.76-1.78z" fill="#c17e62"/><path d="m393.65 471.87c-20.05 12.81-41.99 22.91-65.33 29.77h-93.23c-8.71 0-15.78-7.06-15.78-15.77 0-4.36 1.77-8.31 4.62-11.16 2.86-2.85 6.81-4.62 11.16-4.62h151.28c2.62 0 5.1.64 7.28 1.78z" fill="#d48d77"/></g></g><g><g><path d="m280.384 289.165v84.464c0 2.303-.684 4.455-1.869 6.257-1.485 2.303-3.771 4.021-6.474 4.772-.984.284-2.036.434-3.104.434h-129.465c-1.085 0-2.119-.15-3.104-.434-2.703-.751-4.989-2.469-6.474-4.772-1.185-1.802-1.869-3.955-1.869-6.257v-84.464c0-1.068.15-2.119.434-3.104 1.068-3.821 4.071-6.841 7.909-7.909.985-.284 2.036-.434 3.104-.434h129.465c1.085 0 2.119.15 3.104.434 3.821 1.068 6.841 4.071 7.909 7.909.284.985.434 2.036.434 3.104z" fill="#c2aacf"/><path d="m278.515 379.886c-2.036 3.137-5.556 5.206-9.578 5.206h-129.465c-4.021 0-7.542-2.069-9.578-5.206 4.522-12.915 16.819-22.159 31.253-22.159h86.099c14.45 0 26.747 9.244 31.269 22.159z" fill="#9175a7"/><path d="m144.712 289.165v84.464c0 2.303-.684 4.455-1.869 6.257-1.485 2.303-3.771 4.021-6.474 4.772-2.703-.751-4.989-2.469-6.474-4.772-1.185-1.802-1.869-3.955-1.869-6.257v-84.464c0-5.239 3.521-9.661 8.343-11.013 4.822 1.352 8.343 5.773 8.343 11.013z" fill="#a583bb"/><path d="m280.384 289.165v84.464c0 2.303-.684 4.455-1.869 6.257-1.485 2.303-3.771 4.021-6.474 4.772-2.703-.751-4.989-2.469-6.474-4.772-1.185-1.802-1.869-3.955-1.869-6.257v-84.464c0-5.256 3.537-9.678 8.343-11.013 4.806 1.335 8.343 5.757 8.343 11.013z" fill="#decee5"/><path d="m171.701 293.294h65.008c4.181 0 7.571-3.39 7.571-7.571s-3.39-7.571-7.571-7.571h-65.008c-4.181 0-7.571 3.39-7.571 7.571 0 4.182 3.389 7.571 7.571 7.571z" fill="#ebd9ea"/></g><path d="m214.97 370.613h-21.53c-3.812 0-6.902 3.09-6.902 6.902v28.433h35.335v-28.433c0-3.812-3.091-6.902-6.903-6.902z" fill="#a583bb"/><g><path d="m244.687 405.948h-80.964c-4.134 0-7.486 3.352-7.486 7.486s3.352 7.486 7.486 7.486h80.964c4.134 0 7.486-3.352 7.486-7.486 0-4.135-3.352-7.486-7.486-7.486z" fill="#c2aacf"/><path d="m229.165 405.948h-49.921c-2.549 0-4.616 2.066-4.616 4.616 0 2.549 2.066 4.616 4.616 4.616h49.921c2.549 0 4.616-2.066 4.616-4.616s-2.066-4.616-4.616-4.616z" fill="#decee5"/></g></g></g></g></g><g><g><path d="m340.67 157.05c0 16.792-4.891 32.446-13.317 45.613-15.051 23.491-41.38 39.057-71.353 39.057-46.758 0-84.67-37.905-84.67-84.67 0-29.526 15.119-55.523 38.034-70.676 13.371-8.846 29.404-13.994 46.636-13.994 46.765 0 84.67 37.912 84.67 84.67z" fill="#4fcae8"/><path d="m325.883 171.837c0 16.792-4.891 32.446-13.317 45.613-1.409 2.201-2.919 4.335-4.525 6.394 0 0-.007.007-.007.014-14.353 11.19-32.412 17.862-52.035 17.862-46.758 0-84.67-37.905-84.67-84.67 0-19.61 6.665-37.661 17.862-52.015 1.741-1.362 3.536-2.655 5.385-3.874 13.371-8.846 29.404-13.994 46.636-13.994 46.766 0 84.671 37.912 84.671 84.67z" fill="#22a8b9"/><path d="m241.213 87.167c-13.268 0-25.818 3.062-36.997 8.504-5.236 11.009-8.176 23.319-8.176 36.317 0 46.758 37.905 84.67 84.67 84.67 13.271 0 25.821-3.061 36.999-8.501 5.233-11.01 8.174-23.321 8.174-36.32 0-46.758-37.905-84.67-84.67-84.67z" fill="#22bce0"/><path d="m340.65 158.743c.013-.562.02-1.131.02-1.693s-.007-1.131-.02-1.693h-43.663c-.115-12.768-1.612-24.846-4.193-35.629 11.163-4.538 20.361-11.075 26.539-18.878-.759-.853-1.531-1.687-2.323-2.506-3.123 4.051-7.194 7.817-12.125 11.17-3.942 2.676-8.277 4.985-12.924 6.909-6.963-26.173-20.45-43.94-35.961-44.042h-.203c-15.539.054-29.052 17.835-36.022 44.042-4.647-1.924-8.982-4.234-12.924-6.909-4.884-3.312-8.907-7.024-12.01-11.021-.786.82-1.558 1.66-2.31 2.52 6.171 7.735 15.322 14.211 26.41 18.715-2.581 10.784-4.078 22.861-4.193 35.629h-43.398c-.014.562-.02 1.131-.02 1.693s.007 1.131.02 1.693h43.398c.108 12.294 1.504 23.945 3.908 34.417-11.292 4.64-20.558 11.319-26.681 19.298.752.867 1.517 1.72 2.303 2.554 3.177-4.274 7.397-8.237 12.572-11.752 3.854-2.615 8.081-4.884 12.612-6.78 6.875 26.864 20.558 45.187 36.334 45.241h.204c15.749-.108 29.411-18.411 36.273-45.241 4.532 1.897 8.758 4.166 12.612 6.78 5.236 3.556 9.497 7.58 12.687 11.915.786-.833 1.558-1.687 2.31-2.554-6.123-8.047-15.437-14.787-26.803-19.461 2.405-10.472 3.8-22.123 3.908-34.417zm-110.823-60.082c7.173-14.76 16.419-22.895 26.038-22.895s18.865 8.135 26.038 22.895c2.77 5.697 5.08 12.091 6.896 18.993-9.984 3.658-21.228 5.602-32.933 5.602s-22.949-1.944-32.933-5.602c1.814-6.902 4.123-13.296 6.894-18.993zm52.075 116.784c-7.173 14.76-16.419 22.888-26.038 22.888s-18.864-8.128-26.038-22.888c-2.933-6.029-5.351-12.843-7.207-20.212 10.059-3.732 21.418-5.717 33.245-5.717 11.834 0 23.193 1.985 33.252 5.717-1.863 7.369-4.281 14.184-7.214 20.212zm8.007-23.511c-10.133-3.705-21.73-5.805-34.044-5.805s-23.904 2.1-34.037 5.805c-2.317-10.276-3.583-21.527-3.692-33.191h75.464c-.108 11.665-1.375 22.915-3.691 33.191zm-71.773-36.577c.108-12.132 1.483-23.816 3.976-34.417 10.066 3.644 21.554 5.703 33.753 5.703s23.694-2.059 33.76-5.703c2.493 10.601 3.868 22.285 3.976 34.417z" fill="#cde6f6"/></g><g><g><path d="m303.377 130.327v51.969c0 1.755-.47 3.402-1.291 4.819-1.067 1.852-2.738 3.317-4.74 4.119-1.11.452-2.328.7-3.6.7h-75.484c-1.279 0-2.497-.247-3.607-.7-2.002-.808-3.673-2.268-4.74-4.119-.82-1.417-1.291-3.064-1.291-4.819v-51.969c0-4.047 2.491-7.515 6.031-8.938 1.11-.452 2.328-.7 3.607-.7h75.484c1.273 0 2.491.247 3.6.7 3.534 1.424 6.031 4.885 6.031 8.938z" fill="#d48d77"/><path d="m220.685 130.327v51.969c0 4.053-2.497 7.515-6.031 8.938-3.54-1.423-6.031-4.891-6.031-8.938v-51.969c0-4.047 2.491-7.515 6.031-8.938 3.535 1.424 6.031 4.885 6.031 8.938z" fill="#c17e62"/><path d="m303.377 130.327v51.969c0 1.755-.47 3.402-1.291 4.819-1.067 1.852-2.738 3.317-4.74 4.119-2.002-.808-3.673-2.268-4.74-4.119-.82-1.417-1.291-3.064-1.291-4.819v-51.969c0-4.047 2.491-7.515 6.031-8.938 3.534 1.424 6.031 4.885 6.031 8.938z" fill="#eea47d"/><path d="m302.086 187.115c-1.665 2.883-4.777 4.819-8.341 4.819h-75.484c-1.279 0-2.497-.247-3.607-.7-2.002-.808-3.673-2.268-4.74-4.119 1.067-1.852 2.738-3.311 4.74-4.119 1.11-.452 2.328-.7 3.607-.7h75.484c3.564 0 6.677 1.936 8.341 4.819z" fill="#a26d5a"/></g><g><path d="m291.75 160.502h-71.5c-6.421 0-11.627-5.206-11.627-11.627v-5.328h94.753v5.328c.001 6.421-5.205 11.627-11.626 11.627z" fill="#a26d5a"/><path d="m303.377 130.327v15.958c0 4.192-3.402 7.593-7.593 7.593h-79.567c-4.192 0-7.593-3.402-7.593-7.593v-15.958c0-4.047 2.491-7.515 6.031-8.938 1.11-.452 2.328-.7 3.607-.7h75.484c1.273 0 2.491.247 3.6.7 3.534 1.424 6.031 4.885 6.031 8.938z" fill="#c17e62"/><path d="m220.685 130.327v23.551h-4.469c-4.192 0-7.593-3.402-7.593-7.593v-15.958c0-4.047 2.491-7.515 6.031-8.938 3.535 1.424 6.031 4.885 6.031 8.938z" fill="#a26d5a"/><path d="m303.377 130.327v15.958c0 4.192-3.402 7.593-7.593 7.593h-4.469v-23.551c0-4.047 2.491-7.515 6.031-8.938 3.534 1.424 6.031 4.885 6.031 8.938z" fill="#d48d77"/><path d="m281.177 125.765h-50.355c-2.918 0-5.283 2.365-5.283 5.283s2.365 5.283 5.283 5.283h50.355c2.918 0 5.283-2.365 5.283-5.283.001-2.917-2.365-5.283-5.283-5.283z" fill="#d48d77"/><path d="m278.356 132.551h-31.892c-1.874 0-3.393-1.519-3.393-3.393s1.519-3.393 3.393-3.393h31.892c1.874 0 3.393 1.519 3.393 3.393-.001 1.874-1.52 3.393-3.393 3.393z" fill="#eea47d"/></g><g><g><path d="m233.332 144.349c-.682-.507-1.526-.802-2.443-.802h-6.079c-.911 0-1.755.296-2.437.802-1.025.742-1.689 1.954-1.689 3.323v12.412c0 1.369.663 2.581 1.689 3.323.682.507 1.526.802 2.437.802h6.079c.917 0 1.761-.296 2.443-.802 1.019-.748 1.683-1.96 1.683-3.323v-12.412c0-1.363-.663-2.575-1.683-3.323zm-1.687 13.75c0 1.327-1.076 2.403-2.403 2.403h-2.78c-1.327 0-2.403-1.076-2.403-2.403v-8.44c0-1.327 1.076-2.403 2.403-2.403h2.78c1.327 0 2.403 1.076 2.403 2.403z" fill="#f9c744"/><path d="m235.015 147.672v12.412c0 1.363-.663 2.575-1.683 3.323-1.025-.748-1.689-1.96-1.689-3.323v-12.412c0-1.363.663-2.575 1.689-3.323 1.02.748 1.683 1.96 1.683 3.323z" fill="#fad98f"/><path d="m224.057 147.672v12.412c0 1.363-.663 2.575-1.683 3.323-1.025-.742-1.689-1.954-1.689-3.323v-12.412c0-1.369.663-2.581 1.689-3.323 1.019.748 1.683 1.96 1.683 3.323z" fill="#f39e22"/><path d="m233.332 144.349c-.682-.507-1.526-.802-2.443-.802h-3.878c.221 1.358.741 2.613 1.482 3.708h.748c1.327 0 2.403 1.076 2.403 2.403v.503c1.02.575 2.157.968 3.37 1.124v-3.613c.001-1.363-.662-2.575-1.682-3.323z" fill="#faefdc"/></g><g><path d="m289.632 144.349c-.682-.507-1.526-.802-2.443-.802h-6.079c-.911 0-1.755.296-2.436.802-1.025.742-1.689 1.954-1.689 3.323v12.412c0 1.369.663 2.581 1.689 3.323.681.507 1.526.802 2.436.802h6.079c.917 0 1.761-.296 2.443-.802 1.019-.748 1.683-1.96 1.683-3.323v-12.412c0-1.363-.664-2.575-1.683-3.323zm-1.687 13.75c0 1.327-1.076 2.403-2.403 2.403h-2.78c-1.327 0-2.403-1.076-2.403-2.403v-8.44c0-1.327 1.076-2.403 2.403-2.403h2.78c1.327 0 2.403 1.076 2.403 2.403z" fill="#f9c744"/><path d="m291.315 147.672v12.412c0 1.363-.663 2.575-1.683 3.323-1.025-.748-1.689-1.96-1.689-3.323v-12.412c0-1.363.663-2.575 1.689-3.323 1.019.748 1.683 1.96 1.683 3.323z" fill="#fad98f"/><path d="m280.356 147.672v12.412c0 1.363-.663 2.575-1.683 3.323-1.025-.742-1.689-1.954-1.689-3.323v-12.412c0-1.369.663-2.581 1.689-3.323 1.02.748 1.683 1.96 1.683 3.323z" fill="#f39e22"/><path d="m289.632 144.349c-.682-.507-1.526-.802-2.443-.802h-3.878c.221 1.358.741 2.613 1.482 3.708h.748c1.327 0 2.403 1.076 2.403 2.403v.503c1.02.575 2.157.968 3.37 1.124v-3.613c.001-1.363-.663-2.575-1.682-3.323z" fill="#faefdc"/></g></g><g><path d="m276.985 111.685v9.004h-7.231v-5.729c0-3.172-2.575-5.748-5.754-5.748h-15.994c-3.178 0-5.754 2.575-5.754 5.748v5.729h-7.231v-9.004c0-.947.151-1.858.422-2.708 1.146-3.57 4.493-6.158 8.443-6.158h24.233c3.95 0 7.298 2.587 8.443 6.158.272.851.423 1.761.423 2.708z" fill="#a26d5a"/><path d="m276.563 108.977c-.965 3.438-3.51 6.206-6.809 7.478v-1.496c0-3.172-2.575-5.748-5.754-5.748h-15.994c-3.178 0-5.754 2.575-5.754 5.748v1.496c-1.484-.573-2.816-1.447-3.92-2.551-1.351-1.351-2.358-3.04-2.889-4.927 1.146-3.57 4.493-6.158 8.443-6.158h24.233c3.951.001 7.298 2.588 8.444 6.158z" fill="#c17e62"/><path d="m267.971 109.213h-18.593c-1.728 0-3.128-1.401-3.128-3.128v-.136c0-1.728 1.401-3.128 3.128-3.128h18.593c1.728 0 3.128 1.401 3.128 3.128v.136c.001 1.727-1.4 3.128-3.128 3.128z" fill="#d48d77"/></g></g></g></g></svg>