<svg id="Icons" enable-background="new 0 0 512 512" height="512" viewBox="0 0 512 512" width="512" xmlns="http://www.w3.org/2000/svg"><g><circle cx="256" cy="256" fill="#22bce0" r="256"/><g><path d="m245.664 470.671c-.082 0-.164-.002-.247-.006-6.802-.33-13.648-.988-20.349-1.954-2.733-.395-4.629-2.93-4.235-5.663s2.932-4.618 5.663-4.235c6.389.922 12.918 1.549 19.407 1.864 2.758.134 4.885 2.479 4.751 5.236-.13 2.676-2.34 4.758-4.99 4.758zm39.848-1.809c-2.452 0-4.593-1.806-4.945-4.304-.385-2.734 1.52-5.264 4.254-5.648 6.42-.904 12.863-2.127 19.151-3.635 2.687-.645 5.384 1.011 6.028 3.696.644 2.686-1.011 5.384-3.696 6.028-6.597 1.582-13.355 2.864-20.089 3.812-.236.035-.471.051-.703.051zm-98.493-9.538c-.545 0-1.099-.089-1.642-.278-6.408-2.229-12.791-4.797-18.971-7.635-2.509-1.152-3.61-4.121-2.458-6.63 1.152-2.51 4.121-3.61 6.63-2.458 5.891 2.705 11.975 5.153 18.082 7.277 2.608.907 3.987 3.757 3.081 6.365-.718 2.065-2.653 3.359-4.722 3.359zm155.855-7.165c-1.899 0-3.715-1.088-4.554-2.93-1.144-2.513-.034-5.478 2.479-6.622 5.894-2.683 11.728-5.683 17.339-8.916 2.395-1.379 5.451-.556 6.829 1.836 1.379 2.393.557 5.449-1.835 6.828-5.886 3.392-12.006 6.539-18.189 9.354-.672.306-1.377.45-2.069.45zm-208.894-20.323c-1.007 0-2.023-.303-2.905-.934-5.522-3.95-10.921-8.214-16.048-12.673-2.083-1.812-2.304-4.97-.492-7.054 1.813-2.084 4.971-2.305 7.054-.491 4.889 4.251 10.038 8.317 15.304 12.085 2.246 1.606 2.764 4.729 1.157 6.976-.975 1.364-2.511 2.091-4.07 2.091zm259.188-11.923c-1.403 0-2.797-.587-3.786-1.731-1.806-2.089-1.575-5.246.514-7.052 4.901-4.235 9.658-8.755 14.139-13.434 1.91-1.995 5.075-2.063 7.069-.153 1.995 1.91 2.063 5.075.153 7.069-4.698 4.906-9.685 9.645-14.823 14.084-.944.817-2.108 1.217-3.266 1.217zm-302.358-29.37c-1.482 0-2.949-.656-3.936-1.912-4.195-5.343-8.183-10.949-11.853-16.664-1.492-2.323-.818-5.416 1.506-6.908 2.323-1.492 5.417-.818 6.909 1.506 3.499 5.448 7.301 10.795 11.303 15.891 1.705 2.172 1.327 5.315-.845 7.021-.915.717-2.004 1.066-3.084 1.066zm341.579-15.69c-.93 0-1.871-.26-2.711-.803-2.318-1.5-2.982-4.596-1.482-6.914 3.518-5.438 6.814-11.109 9.798-16.855 1.272-2.452 4.29-3.408 6.741-2.134 2.451 1.272 3.406 4.291 2.134 6.741-3.129 6.027-6.587 11.976-10.276 17.68-.958 1.478-2.565 2.285-4.204 2.285zm-371.423-36.063c-1.986 0-3.864-1.19-4.645-3.147-2.519-6.309-4.76-12.813-6.664-19.336-.773-2.65.748-5.427 3.399-6.2 2.653-.771 5.427.749 6.201 3.399 1.814 6.216 3.951 12.417 6.351 18.43 1.024 2.564-.225 5.474-2.79 6.497-.607.243-1.235.357-1.852.357zm396.381-18.212c-.469 0-.946-.066-1.418-.206-2.648-.782-4.161-3.563-3.378-6.212 1.833-6.203 3.387-12.574 4.62-18.936.525-2.711 3.144-4.487 5.86-3.957 2.711.525 4.482 3.148 3.957 5.859-1.294 6.674-2.925 13.358-4.848 19.867-.642 2.176-2.634 3.585-4.793 3.585zm-410.359-39.863c-2.552 0-4.731-1.944-4.973-4.536-.621-6.662-.935-13.451-.935-20.179v-.232c0-2.762 2.239-5 5-5s5 2.238 5 5v.232c0 6.419.3 12.896.892 19.251.256 2.75-1.765 5.187-4.515 5.442-.157.015-.314.022-.469.022zm418.932-19.25c-.005 0-.011 0-.016 0-2.762-.009-4.993-2.254-4.984-5.016v-.449c0-6.494-.307-13.048-.913-19.479-.259-2.749 1.76-5.188 4.509-5.446 2.756-.267 5.188 1.76 5.447 4.509.635 6.74.957 13.609.957 20.416v.48c-.009 2.756-2.246 4.985-5 4.985zm-416.038-40.413c-.313 0-.631-.029-.951-.091-2.711-.522-4.486-3.145-3.964-5.855 1.285-6.673 2.909-13.359 4.825-19.872.779-2.65 3.56-4.164 6.208-3.386 2.649.78 4.165 3.56 3.385 6.208-1.827 6.208-3.375 12.581-4.6 18.94-.46 2.393-2.555 4.056-4.903 4.056zm407.593-19.18c-2.163 0-4.157-1.414-4.796-3.595-1.819-6.209-3.963-12.408-6.372-18.424-1.026-2.563.219-5.474 2.783-6.5s5.475.22 6.5 2.783c2.527 6.312 4.776 12.814 6.685 19.328.776 2.65-.743 5.428-3.393 6.204-.468.139-.942.204-1.407.204zm-388.017-37.249c-.774 0-1.56-.181-2.295-.561-2.452-1.271-3.411-4.287-2.141-6.739 3.123-6.031 6.573-11.983 10.257-17.691 1.498-2.319 4.593-2.986 6.912-1.49 2.32 1.497 2.987 4.592 1.49 6.912-3.512 5.442-6.802 11.117-9.779 16.867-.889 1.718-2.635 2.702-4.444 2.702zm363.192-17.083c-1.644 0-3.253-.81-4.209-2.295-3.5-5.439-7.31-10.782-11.32-15.879-1.708-2.17-1.333-5.313.837-7.021 2.17-1.707 5.313-1.333 7.021.838 4.206 5.344 8.2 10.946 11.871 16.65 1.494 2.322.824 5.416-1.499 6.91-.836.539-1.774.797-2.701.797zm-328.458-31.527c-1.241 0-2.485-.46-3.453-1.385-1.997-1.908-2.069-5.073-.161-7.069 4.695-4.914 9.677-9.657 14.808-14.101 2.087-1.808 5.245-1.582 7.053.508 1.808 2.087 1.581 5.245-.507 7.053-4.894 4.237-9.646 8.762-14.124 13.448-.982 1.028-2.298 1.546-3.616 1.546zm289.322-13.623c-1.162 0-2.329-.402-3.275-1.224-4.897-4.25-10.051-8.311-15.317-12.069-2.248-1.604-2.769-4.727-1.165-6.974 1.604-2.248 4.726-2.771 6.975-1.165 5.522 3.941 10.926 8.199 16.061 12.655 2.086 1.81 2.31 4.968.5 7.054-.989 1.139-2.38 1.723-3.779 1.723zm-242.345-23.297c-1.728 0-3.408-.896-4.334-2.5-1.381-2.392-.562-5.45 1.829-6.831 5.886-3.399 12.002-6.552 18.177-9.372 2.512-1.144 5.478-.04 6.625 2.473 1.147 2.512.04 5.478-2.472 6.625-5.887 2.688-11.718 5.693-17.33 8.935-.787.453-1.647.67-2.495.67zm192.124-9.056c-.697 0-1.404-.146-2.078-.455-5.888-2.695-11.974-5.137-18.091-7.256-2.609-.904-3.991-3.753-3.087-6.361.905-2.608 3.753-3.989 6.361-3.088 6.417 2.224 12.802 4.785 18.979 7.613 2.511 1.149 3.614 4.116 2.465 6.627-.841 1.837-2.654 2.92-4.549 2.92zm-136.661-13.12c-2.257 0-4.305-1.539-4.857-3.83-.647-2.685 1.005-5.385 3.689-6.032 6.601-1.59 13.358-2.88 20.085-3.834 2.727-.395 5.264 1.514 5.653 4.248.388 2.734-1.515 5.265-4.249 5.652-6.413.91-12.855 2.14-19.147 3.656-.392.095-.787.14-1.174.14zm79.362-3.71c-.236 0-.474-.017-.714-.052-6.396-.914-12.926-1.534-19.408-1.842-2.758-.131-4.888-2.473-4.758-5.231.131-2.758 2.48-4.884 5.231-4.757 6.796.322 13.643.972 20.351 1.932 2.733.391 4.633 2.924 4.242 5.657-.357 2.493-2.496 4.293-4.944 4.293z" fill="#83d5ef"/></g><g><g><g><g><path d="m377.896 204.087v180.878c0 7.236-4.363 13.44-10.6 16.146h-.008c-2.14.924-4.497 1.441-6.978 1.441h-208.624c-2.481 0-4.838-.516-6.978-1.441-6.237-2.698-10.609-8.91-10.609-16.146v-180.878l121.899-122.268z" fill="#fbcb74"/><path d="m377.896 204.087v180.878c0 7.236-4.363 13.44-10.6 16.146h-.008c-6.229-2.706-10.6-8.91-10.6-16.146v-180.878c0-7.228 4.372-13.431 10.6-16.146h.008c6.237 2.707 10.6 8.919 10.6 16.146z" fill="#faefdc"/><path d="m155.309 204.087v180.878c0 7.236-4.363 13.448-10.6 16.146-6.237-2.698-10.609-8.91-10.609-16.146v-180.878c0-7.228 4.372-13.44 10.609-16.146 6.236 2.707 10.6 8.919 10.6 16.146z" fill="#deb36f"/></g><g><path d="m422.337 230.559c0 3.772-1.441 7.536-4.313 10.409-5.779 5.779-15.163 5.746-20.901-.075l-130.641-132.599c-5.762-5.854-15.205-5.854-20.967 0l-130.642 132.598c-2.881 2.923-6.687 4.388-10.484 4.388-3.772 0-7.544-1.441-10.417-4.313-4.855-4.855-5.604-12.257-2.265-17.903.616-1.041 1.374-2.023 2.265-2.914l151.642-151.633c5.746-5.754 15.072-5.746 20.817 0l151.592 151.633c.891.891 1.649 1.874 2.265 2.914 1.366 2.307 2.049 4.897 2.049 7.495z" fill="#e9465e"/><path d="m420.288 223.064c-.616 1.041-1.374 2.023-2.265 2.914v.008c-5.779 5.779-15.163 5.737-20.901-.083l-130.64-132.597c-5.762-5.854-15.205-5.854-20.967 0l-130.642 132.598c-2.881 2.923-6.687 4.388-10.492 4.388-3.772 0-7.536-1.432-10.409-4.305-.899-.899-1.649-1.882-2.265-2.923.616-1.041 1.374-2.023 2.265-2.914l151.642-151.633c5.746-5.754 15.072-5.746 20.817 0l151.592 151.633c.891.891 1.649 1.874 2.265 2.914z" fill="#ee6781"/><g fill="#f789a1"><path d="m152.638 174.98-.43-.422c-3.513-3.448-3.54-9.1-.059-12.581l57.147-57.144c3.437-3.436 9.001-3.461 12.467-.055 3.492 3.431 3.538 9.044.102 12.531l-56.717 57.566c-3.427 3.479-9.024 3.526-12.51.105z"/><path d="m359.367 174.979.421-.413c3.522-3.453 3.551-9.116.064-12.604l-57.113-57.128c-3.438-3.439-9.003-3.468-12.477-.066-3.507 3.434-3.557 9.064-.112 12.56l56.692 57.541c3.431 3.483 9.033 3.532 12.525.11z"/></g></g></g><g><path d="m356.429 88.868v69.671l-27.97-27.979v-41.692c0-3.897 3.156-7.053 7.045-7.053h13.881c3.888 0 7.044 3.156 7.044 7.053z" fill="#c0405c"/><path d="m356.429 88.868v59.329l-11.266-11.275c-4.08-4.072-6.362-9.601-6.362-15.355v-32.7c0-3.897 3.156-7.053 7.045-7.053h3.539c3.888.001 7.044 3.157 7.044 7.054z" fill="#e9465e"/></g></g><g><path d="m268.5 402.552v-60.262h10.995c14.038 0 25.458-11.421 25.458-25.458v-22.158h26.665c1.933 0 3.5-1.567 3.5-3.5s-1.567-3.5-3.5-3.5h-26.665v-61.728c0-1.933-1.567-3.5-3.5-3.5s-3.5 1.567-3.5 3.5v90.886c0 10.178-8.28 18.458-18.458 18.458h-10.995v-61.567c0-1.933-1.567-3.5-3.5-3.5s-3.5 1.567-3.5 3.5v94.134h-33.307v-64.037c0-1.933-1.567-3.5-3.5-3.5s-3.5 1.567-3.5 3.5v31.471h-9.936c-8.881 0-16.107-7.226-16.107-16.107v-69.425h23.817c11.888 0 21.56-9.672 21.56-21.56v-22.826h18.614c12.975 0 23.531-10.556 23.531-23.531v-27.099c0-1.933-1.567-3.5-3.5-3.5s-3.5 1.567-3.5 3.5v27.099c0 9.115-7.416 16.531-16.531 16.531h-18.614v-20.858c0-1.933-1.567-3.5-3.5-3.5s-3.5 1.567-3.5 3.5v50.685c0 8.028-6.532 14.56-14.56 14.56h-23.817v-17.112c0-1.933-1.567-3.5-3.5-3.5s-3.5 1.567-3.5 3.5v93.537c0 12.741 10.366 23.107 23.107 23.107h9.936v25.566h-29.543c-1.933 0-3.5 1.567-3.5 3.5s1.567 3.5 3.5 3.5h69.85v27.695h7z" fill="#cde6f6"/><g><g><circle cx="301.453" cy="225.946" fill="#faefdc" r="15.082"/></g><g><circle cx="265" cy="273.723" fill="#faefdc" r="15.082"/></g><g><circle cx="224.693" cy="303.819" fill="#faefdc" r="15.082"/></g><g><circle cx="191.65" cy="371.356" fill="#faefdc" r="15.082"/></g><g><circle cx="191.65" cy="225.645" fill="#faefdc" r="15.082"/></g><g><circle cx="237.028" cy="177.514" fill="#faefdc" r="15.082"/></g><g><circle cx="279.172" cy="154.742" fill="#faefdc" r="15.082"/></g><g><circle cx="331.617" cy="291.174" fill="#faefdc" r="15.082"/></g></g></g></g></g></svg>