<svg id="Icons" enable-background="new 0 0 512 512" height="512" viewBox="0 0 512 512" width="512" xmlns="http://www.w3.org/2000/svg"><g><circle cx="256" cy="256" fill="#53b976" r="256"/><g><path d="m245.664 470.671c-.082 0-.164-.002-.247-.006-6.802-.33-13.648-.988-20.349-1.954-2.733-.395-4.629-2.93-4.235-5.663s2.929-4.618 5.663-4.235c6.389.922 12.918 1.549 19.407 1.864 2.758.134 4.885 2.479 4.751 5.236-.13 2.676-2.34 4.758-4.99 4.758zm39.847-1.809c-2.453 0-4.594-1.806-4.945-4.304-.385-2.734 1.52-5.264 4.254-5.648 6.42-.904 12.863-2.127 19.15-3.635 2.685-.645 5.385 1.012 6.028 3.696.644 2.686-1.011 5.384-3.696 6.028-6.596 1.582-13.354 2.864-20.088 3.812-.236.035-.472.051-.703.051zm-98.492-9.538c-.545 0-1.099-.089-1.642-.278-6.408-2.229-12.791-4.797-18.971-7.635-2.509-1.152-3.61-4.121-2.458-6.63 1.153-2.51 4.122-3.61 6.63-2.458 5.891 2.705 11.975 5.153 18.082 7.277 2.608.907 3.987 3.757 3.081 6.365-.718 2.065-2.653 3.359-4.722 3.359zm155.855-7.165c-1.899 0-3.715-1.088-4.554-2.93-1.144-2.513-.034-5.478 2.479-6.622 5.895-2.684 11.729-5.684 17.339-8.916 2.394-1.378 5.449-.557 6.828 1.836s.557 5.449-1.836 6.828c-5.885 3.392-12.004 6.538-18.188 9.354-.671.306-1.376.45-2.068.45zm-208.894-20.323c-1.007 0-2.023-.303-2.905-.934-5.522-3.95-10.921-8.214-16.048-12.673-2.083-1.812-2.304-4.97-.492-7.054s4.971-2.305 7.054-.491c4.889 4.251 10.038 8.317 15.304 12.085 2.246 1.606 2.764 4.729 1.157 6.976-.975 1.364-2.511 2.091-4.07 2.091zm259.187-11.923c-1.402 0-2.797-.587-3.785-1.731-1.806-2.089-1.575-5.246.515-7.052 4.904-4.238 9.661-8.758 14.138-13.434 1.909-1.994 5.072-2.063 7.069-.153 1.994 1.909 2.063 5.074.153 7.069-4.693 4.902-9.681 9.641-14.823 14.084-.945.817-2.109 1.217-3.267 1.217zm-302.357-29.37c-1.482 0-2.949-.656-3.936-1.912-4.195-5.343-8.183-10.949-11.853-16.664-1.492-2.323-.818-5.416 1.506-6.908s5.417-.818 6.909 1.506c3.499 5.448 7.301 10.795 11.303 15.891 1.705 2.172 1.327 5.315-.845 7.021-.915.717-2.004 1.066-3.084 1.066zm341.579-15.69c-.931 0-1.871-.26-2.711-.803-2.318-1.499-2.982-4.595-1.482-6.914 3.52-5.441 6.816-11.113 9.798-16.855 1.271-2.452 4.29-3.408 6.741-2.134 2.451 1.272 3.406 4.291 2.134 6.741-3.127 6.023-6.585 11.972-10.276 17.68-.958 1.478-2.565 2.285-4.204 2.285zm-371.423-36.063c-1.986 0-3.864-1.19-4.645-3.147-2.519-6.309-4.76-12.813-6.664-19.336-.773-2.65.748-5.427 3.399-6.2 2.653-.771 5.427.749 6.201 3.399 1.814 6.216 3.951 12.417 6.351 18.43 1.024 2.564-.225 5.474-2.79 6.497-.607.243-1.235.357-1.852.357zm396.382-18.212c-.469 0-.945-.066-1.419-.206-2.647-.782-4.16-3.563-3.378-6.212 1.832-6.201 3.387-12.573 4.621-18.937.525-2.711 3.152-4.479 5.86-3.956 2.711.525 4.482 3.149 3.956 5.86-1.294 6.675-2.925 13.359-4.848 19.866-.642 2.176-2.633 3.585-4.792 3.585zm-410.36-39.863c-2.552 0-4.731-1.944-4.973-4.536-.621-6.662-.935-13.451-.935-20.179v-.232c0-2.762 2.239-5 5-5s5 2.238 5 5v.232c0 6.419.3 12.896.892 19.251.256 2.75-1.765 5.187-4.515 5.442-.157.015-.314.022-.469.022zm418.931-19.25c-2.762 0-5-2.238-5-5l.001-.496c0-6.465-.308-13.019-.913-19.446-.26-2.75 1.759-5.188 4.508-5.447 2.758-.269 5.188 1.758 5.447 4.508.636 6.739.958 13.608.958 20.417l-.001.465c0 2.761-2.238 4.999-5 4.999zm-416.037-40.413c-.313 0-.631-.029-.951-.091-2.711-.522-4.486-3.145-3.964-5.855 1.285-6.673 2.909-13.359 4.825-19.872.78-2.65 3.56-4.164 6.208-3.386 2.649.78 4.165 3.56 3.385 6.208-1.827 6.208-3.375 12.581-4.6 18.94-.46 2.393-2.555 4.056-4.903 4.056zm407.594-19.18c-2.163 0-4.157-1.414-4.796-3.595-1.82-6.209-3.964-12.408-6.372-18.424-1.026-2.563.22-5.474 2.783-6.5 2.564-1.028 5.475.22 6.5 2.783 2.527 6.312 4.776 12.814 6.685 19.328.777 2.65-.742 5.428-3.392 6.204-.47.139-.944.204-1.408.204zm-388.018-37.249c-.774 0-1.56-.181-2.295-.561-2.452-1.271-3.411-4.287-2.141-6.739 3.123-6.031 6.573-11.983 10.257-17.691 1.497-2.319 4.593-2.986 6.912-1.49 2.32 1.497 2.987 4.592 1.49 6.912-3.512 5.442-6.802 11.117-9.779 16.867-.889 1.718-2.635 2.702-4.444 2.702zm363.192-17.083c-1.644 0-3.253-.81-4.209-2.295-3.503-5.441-7.312-10.784-11.321-15.878-1.708-2.17-1.334-5.314.836-7.021s5.313-1.333 7.021.836c4.205 5.343 8.199 10.944 11.872 16.651 1.495 2.321.824 5.416-1.498 6.91-.836.539-1.774.797-2.701.797zm-328.458-31.527c-1.241 0-2.485-.46-3.453-1.385-1.997-1.908-2.069-5.073-.161-7.069 4.695-4.914 9.677-9.657 14.808-14.101 2.087-1.808 5.244-1.582 7.053.508 1.808 2.087 1.581 5.245-.507 7.053-4.894 4.237-9.646 8.762-14.124 13.448-.982 1.028-2.298 1.546-3.616 1.546zm289.322-13.623c-1.162 0-2.329-.402-3.275-1.224-4.898-4.25-10.052-8.311-15.316-12.069-2.248-1.604-2.77-4.727-1.165-6.974 1.604-2.248 4.729-2.77 6.974-1.165 5.521 3.94 10.926 8.198 16.062 12.655 2.086 1.81 2.31 4.968.5 7.054-.99 1.139-2.382 1.723-3.78 1.723zm-242.345-23.297c-1.728 0-3.408-.896-4.334-2.5-1.381-2.392-.562-5.45 1.829-6.831 5.886-3.399 12.002-6.552 18.177-9.372 2.512-1.144 5.479-.04 6.625 2.473 1.147 2.512.04 5.478-2.472 6.625-5.887 2.688-11.718 5.693-17.33 8.935-.787.453-1.647.67-2.495.67zm192.124-9.056c-.696 0-1.403-.146-2.078-.455-5.888-2.695-11.974-5.137-18.091-7.256-2.608-.904-3.991-3.753-3.087-6.362.905-2.607 3.749-3.988 6.362-3.087 6.417 2.225 12.802 4.785 18.978 7.613 2.511 1.149 3.614 4.116 2.465 6.627-.84 1.837-2.654 2.92-4.549 2.92zm-136.661-13.12c-2.257 0-4.305-1.539-4.857-3.83-.647-2.685 1.005-5.385 3.689-6.032 6.601-1.59 13.358-2.88 20.085-3.834 2.724-.395 5.264 1.514 5.653 4.248.388 2.734-1.515 5.265-4.249 5.652-6.413.91-12.855 2.14-19.147 3.656-.392.095-.787.14-1.174.14zm79.361-3.71c-.235 0-.474-.017-.714-.052-6.396-.914-12.927-1.534-19.409-1.842-2.758-.131-4.888-2.473-4.757-5.231s2.471-4.884 5.231-4.757c6.796.322 13.643.972 20.351 1.932 2.733.391 4.633 2.924 4.241 5.657-.356 2.493-2.495 4.293-4.943 4.293z" fill="#9acdae"/></g><g><g><g><path d="m430.72 136.436v111.342c0 4.454-2.686 8.273-6.525 9.939h-.005c-1.317.569-2.768.887-4.295.887h-128.422c-1.527 0-2.978-.318-4.295-.887-3.839-1.661-6.53-5.485-6.53-9.939v-111.342l75.036-75.264z" fill="#fbcb74"/><path d="m430.72 136.436v111.342c0 4.454-2.686 8.273-6.525 9.939h-.005c-3.834-1.666-6.525-5.485-6.525-9.939v-111.342c0-4.449 2.691-8.268 6.525-9.939h.005c3.839 1.666 6.525 5.49 6.525 9.939z" fill="#faefdc"/><path d="m293.703 136.436v111.342c0 4.454-2.686 8.278-6.525 9.939-3.839-1.661-6.53-5.485-6.53-9.939v-111.342c0-4.449 2.691-8.273 6.53-9.939 3.839 1.666 6.525 5.49 6.525 9.939z" fill="#deb36f"/><path d="m401.351 130.652c0 3.605-2.923 6.528-6.528 6.528h-78.278c-3.605 0-6.528-2.923-6.528-6.528s2.923-6.528 6.528-6.528h78.278c3.605 0 6.528 2.923 6.528 6.528z" fill="#fbd9a3"/></g><g><path d="m385.063 226.856h-58.757c-6.754 0-12.229-5.475-12.229-12.229v-58.757c0-6.754 5.475-12.229 12.229-12.229h58.757c6.754 0 12.229 5.475 12.229 12.229v58.757c.001 6.754-5.474 12.229-12.229 12.229z" fill="#c4983d"/><g><g><path d="m353.261 157.72v18.19c0 .039 0 .087-.01.126-.058 3.762-3.122 6.787-6.904 6.787h-18.19c-3.82 0-6.923-3.093-6.923-6.914v-18.19c0-3.782 3.035-6.855 6.797-6.914.039-.01.087-.01.126-.01h18.19c3.821.002 6.914 3.105 6.914 6.925z" fill="#6052a3"/><path d="m353.261 157.72v18.19c0 .039 0 .087-.01.126-.039.01-.087.01-.126.01h-8.785c-9.018 0-16.319-7.311-16.319-16.319v-8.795c0-.039 0-.087.01-.126.039-.01.087-.01.126-.01h18.19c3.821.001 6.914 3.104 6.914 6.924z" fill="#57409b"/><path d="m344.841 172.923c-2.32 0-4.2-1.881-4.2-4.2v-10.378c0-2.32 1.881-4.2 4.2-4.2 2.32 0 4.2 1.881 4.2 4.2v10.378c.001 2.319-1.88 4.2-4.2 4.2z" fill="#9175a7"/></g><g><path d="m390.136 157.72v18.19c0 .039 0 .087-.01.126-.058 3.762-3.122 6.787-6.904 6.787h-18.19c-3.82 0-6.923-3.093-6.923-6.914v-18.19c0-3.782 3.035-6.855 6.797-6.914.039-.01.087-.01.126-.01h18.19c3.821.002 6.914 3.105 6.914 6.925z" fill="#6052a3"/><path d="m390.136 157.72v18.19c0 .039 0 .087-.01.126-.039.01-.087.01-.126.01h-8.785c-9.018 0-16.319-7.311-16.319-16.319v-8.795c0-.039 0-.087.01-.126.039-.01.087-.01.126-.01h18.19c3.821.001 6.914 3.104 6.914 6.924z" fill="#57409b"/><path d="m381.717 172.923c-2.32 0-4.2-1.881-4.2-4.2v-10.378c0-2.32 1.881-4.2 4.2-4.2 2.32 0 4.2 1.881 4.2 4.2v10.378c0 2.319-1.88 4.2-4.2 4.2z" fill="#9175a7"/></g><g><path d="m353.261 194.596v18.19c0 .039 0 .087-.01.126-.058 3.762-3.122 6.787-6.904 6.787h-18.19c-3.82 0-6.923-3.093-6.923-6.914v-18.19c0-3.782 3.035-6.855 6.797-6.914.039-.01.087-.01.126-.01h18.19c3.821.002 6.914 3.104 6.914 6.925z" fill="#6052a3"/><path d="m353.261 194.596v18.19c0 .039 0 .087-.01.126-.039.01-.087.01-.126.01h-8.785c-9.018 0-16.319-7.311-16.319-16.319v-8.795c0-.039 0-.087.01-.126.039-.01.087-.01.126-.01h18.19c3.821.001 6.914 3.103 6.914 6.924z" fill="#57409b"/><path d="m344.841 209.798c-2.32 0-4.2-1.881-4.2-4.2v-10.378c0-2.32 1.881-4.2 4.2-4.2 2.32 0 4.2 1.881 4.2 4.2v10.378c.001 2.32-1.88 4.2-4.2 4.2z" fill="#9175a7"/></g><g><path d="m390.136 194.596v18.19c0 .039 0 .087-.01.126-.058 3.762-3.122 6.787-6.904 6.787h-18.19c-3.82 0-6.923-3.093-6.923-6.914v-18.19c0-3.782 3.035-6.855 6.797-6.914.039-.01.087-.01.126-.01h18.19c3.821.002 6.914 3.104 6.914 6.925z" fill="#6052a3"/><path d="m390.136 194.596v18.19c0 .039 0 .087-.01.126-.039.01-.087.01-.126.01h-8.785c-9.018 0-16.319-7.311-16.319-16.319v-8.795c0-.039 0-.087.01-.126.039-.01.087-.01.126-.01h18.19c3.821.001 6.914 3.103 6.914 6.924z" fill="#57409b"/><path d="m381.717 209.798c-2.32 0-4.2-1.881-4.2-4.2v-10.378c0-2.32 1.881-4.2 4.2-4.2 2.32 0 4.2 1.881 4.2 4.2v10.378c0 2.32-1.88 4.2-4.2 4.2z" fill="#9175a7"/></g></g></g><g><path d="m458.076 152.731c0 2.322-.887 4.639-2.655 6.407-3.557 3.557-9.334 3.537-12.866-.046l-80.418-81.623c-3.547-3.603-9.36-3.603-12.907 0l-80.418 81.623c-1.774 1.799-4.116 2.701-6.453 2.701-2.322 0-4.644-.887-6.412-2.655-2.988-2.988-3.45-7.545-1.394-11.02.379-.641.846-1.246 1.394-1.794l93.345-93.34c3.537-3.542 9.278-3.537 12.814 0l93.315 93.34c.548.548 1.015 1.153 1.394 1.794.841 1.419 1.261 3.013 1.261 4.613z" fill="#e9465e"/><path d="m456.815 148.117c-.379.641-.846 1.246-1.394 1.794v.005c-3.557 3.557-9.334 3.532-12.866-.051l-80.418-81.623c-3.547-3.603-9.36-3.603-12.907 0l-80.418 81.623c-1.774 1.799-4.116 2.701-6.458 2.701-2.322 0-4.639-.882-6.407-2.65-.554-.554-1.015-1.158-1.394-1.799.379-.641.846-1.246 1.394-1.794l93.345-93.34c3.537-3.542 9.278-3.537 12.814 0l93.315 93.34c.548.549 1.015 1.154 1.394 1.794z" fill="#ee6781"/><g fill="#f789a1"><path d="m292.059 118.518-.265-.26c-2.163-2.123-2.179-5.602-.036-7.745l35.178-35.176c2.115-2.115 5.54-2.13 7.674-.034 2.15 2.112 2.178 5.567.063 7.714l-34.913 35.436c-2.11 2.142-5.555 2.171-7.701.065z"/><path d="m419.314 118.517.259-.254c2.168-2.125 2.186-5.611.039-7.758l-35.157-35.166c-2.116-2.117-5.542-2.135-7.681-.041-2.159 2.114-2.189 5.579-.069 7.732l34.897 35.42c2.114 2.144 5.563 2.174 7.712.067z"/></g></g></g></g><g><g><path d="m183.668 135.974v208.014c0 4.446-2.473 8.302-6.112 10.282h-.007c-1.659.904-3.557 1.412-5.574 1.412h-87.494c-2.017 0-3.915-.508-5.574-1.412-3.647-1.98-6.12-5.836-6.12-10.282v-208.014c0-2.092.553-4.057 1.524-5.754 1.069-1.913 2.668-3.482 4.595-4.528 1.659-.904 3.557-1.412 5.574-1.412h87.493c2.017 0 3.915.508 5.574 1.412h.007c1.92 1.046 3.519 2.615 4.595 4.521.966 1.696 1.519 3.662 1.519 5.761z" fill="#ebd9ea"/><path d="m183.668 135.974v208.014c0 4.446-2.473 8.302-6.112 10.282h-.007c-3.647-1.98-6.12-5.836-6.12-10.282v-208.014c0-4.439 2.473-8.302 6.12-10.282h.007c3.638 1.981 6.112 5.844 6.112 10.282z" fill="#f9eaf9"/><path d="m85.026 135.974v208.014c0 4.446-2.473 8.302-6.12 10.282-3.647-1.98-6.12-5.836-6.12-10.282v-208.014c0-4.439 2.473-8.302 6.12-10.282 3.647 1.981 6.12 5.844 6.12 10.282z" fill="#c2aacf"/><path d="m118.442 124.279h19.571v179.904h-19.571z" fill="#decee5"/><g fill="#fff"><path d="m182.151 130.213c-2.1 3.811-6.157 6.396-10.812 6.396h-86.223c-3.4 0-6.486-1.382-8.72-3.609-.822-.822-1.524-1.756-2.085-2.78 1.069-1.913 2.668-3.482 4.595-4.528 1.659-.904 3.557-1.412 5.574-1.412h87.493c2.017 0 3.915.508 5.574 1.412h.007c1.922 1.047 3.521 2.616 4.597 4.521z"/><path d="m177.548 279.836c-3.38 0-6.12-2.74-6.12-6.12v-108.492c0-3.38 2.74-6.12 6.12-6.12s6.12 2.74 6.12 6.12v108.492c0 3.38-2.74 6.12-6.12 6.12z"/></g></g><g><g><g><path d="m118.442 150.616v18.978c0 .041 0 .091-.01.132-.061 3.925-3.257 7.081-7.203 7.081h-18.977c-3.986 0-7.223-3.227-7.223-7.213v-18.978c0-3.945 3.166-7.152 7.091-7.213.041-.01.091-.01.132-.01h18.978c3.985 0 7.212 3.237 7.212 7.223z" fill="#c2aacf"/><path d="m113.169 153.61v12.988c0 .028 0 .062-.007.09-.042 2.686-2.229 4.846-4.929 4.846h-12.988c-2.728 0-4.943-2.208-4.943-4.936v-12.988c0-2.7 2.167-4.895 4.853-4.936.028-.007.062-.007.09-.007h12.988c2.728-.001 4.936 2.215 4.936 4.943z" fill="#6052a3"/><path d="m113.169 153.61v12.988c0 .028 0 .062-.007.09-.028.007-.062.007-.09.007h-6.272c-6.439 0-11.652-5.22-11.652-11.652v-6.279c0-.028 0-.062.007-.09.028-.007.062-.007.09-.007h12.988c2.728-.001 4.936 2.215 4.936 4.943z" fill="#57409b"/><path d="m107.158 164.464c-1.656 0-2.999-1.343-2.999-2.999v-7.41c0-1.656 1.343-2.999 2.999-2.999s2.999 1.343 2.999 2.999v7.41c0 1.656-1.343 2.999-2.999 2.999z" fill="#9175a7"/></g><g><path d="m171.428 150.616v18.978c0 .041 0 .091-.01.132-.061 3.925-3.257 7.081-7.203 7.081h-18.978c-3.986 0-7.223-3.227-7.223-7.213v-18.978c0-3.945 3.166-7.152 7.091-7.213.04-.01.091-.01.132-.01h18.978c3.986 0 7.213 3.237 7.213 7.223z" fill="#c2aacf"/><path d="m166.154 153.61v12.988c0 .028 0 .062-.007.09-.042 2.686-2.229 4.846-4.929 4.846h-12.988c-2.728 0-4.943-2.208-4.943-4.936v-12.988c0-2.7 2.167-4.895 4.853-4.936.028-.007.062-.007.09-.007h12.988c2.728-.001 4.936 2.215 4.936 4.943z" fill="#6052a3"/><path d="m166.154 153.61v12.988c0 .028 0 .062-.007.09-.028.007-.062.007-.09.007h-6.272c-6.439 0-11.652-5.22-11.652-11.652v-6.279c0-.028 0-.062.007-.09.028-.007.062-.007.09-.007h12.988c2.728-.001 4.936 2.215 4.936 4.943z" fill="#57409b"/><path d="m160.143 164.464c-1.656 0-2.999-1.343-2.999-2.999v-7.41c0-1.656 1.343-2.999 2.999-2.999s2.999 1.343 2.999 2.999v7.41c0 1.656-1.343 2.999-2.999 2.999z" fill="#9175a7"/></g></g><g><g><path d="m118.442 190.813v18.978c0 .04 0 .091-.01.132-.061 3.925-3.257 7.081-7.203 7.081h-18.977c-3.986 0-7.223-3.227-7.223-7.213v-18.978c0-3.945 3.166-7.152 7.091-7.213.041-.01.091-.01.132-.01h18.978c3.985 0 7.212 3.238 7.212 7.223z" fill="#c2aacf"/><path d="m113.169 193.807v12.988c0 .028 0 .062-.007.09-.042 2.686-2.229 4.846-4.929 4.846h-12.988c-2.728 0-4.943-2.208-4.943-4.936v-12.988c0-2.7 2.167-4.895 4.853-4.936.028-.007.062-.007.09-.007h12.988c2.728 0 4.936 2.215 4.936 4.943z" fill="#6052a3"/><path d="m113.169 193.807v12.988c0 .028 0 .062-.007.09-.028.007-.062.007-.09.007h-6.272c-6.439 0-11.652-5.22-11.652-11.652v-6.279c0-.028 0-.062.007-.09.028-.007.062-.007.09-.007h12.988c2.728 0 4.936 2.215 4.936 4.943z" fill="#57409b"/><path d="m107.158 204.661c-1.656 0-2.999-1.343-2.999-2.999v-7.41c0-1.656 1.343-2.999 2.999-2.999s2.999 1.343 2.999 2.999v7.41c0 1.657-1.343 2.999-2.999 2.999z" fill="#9175a7"/></g><g><path d="m171.428 190.813v18.978c0 .04 0 .091-.01.132-.061 3.925-3.257 7.081-7.203 7.081h-18.978c-3.986 0-7.223-3.227-7.223-7.213v-18.978c0-3.945 3.166-7.152 7.091-7.213.04-.01.091-.01.132-.01h18.978c3.986 0 7.213 3.238 7.213 7.223z" fill="#c2aacf"/><path d="m166.154 193.807v12.988c0 .028 0 .062-.007.09-.042 2.686-2.229 4.846-4.929 4.846h-12.988c-2.728 0-4.943-2.208-4.943-4.936v-12.988c0-2.7 2.167-4.895 4.853-4.936.028-.007.062-.007.09-.007h12.988c2.728 0 4.936 2.215 4.936 4.943z" fill="#6052a3"/><path d="m166.154 193.807v12.988c0 .028 0 .062-.007.09-.028.007-.062.007-.09.007h-6.272c-6.439 0-11.652-5.22-11.652-11.652v-6.279c0-.028 0-.062.007-.09.028-.007.062-.007.09-.007h12.988c2.728 0 4.936 2.215 4.936 4.943z" fill="#57409b"/><path d="m160.143 204.661c-1.656 0-2.999-1.343-2.999-2.999v-7.41c0-1.656 1.343-2.999 2.999-2.999s2.999 1.343 2.999 2.999v7.41c0 1.657-1.343 2.999-2.999 2.999z" fill="#9175a7"/></g></g><g><g><path d="m118.442 231.011v18.978c0 .04 0 .091-.01.132-.061 3.925-3.257 7.081-7.203 7.081h-18.977c-3.986 0-7.223-3.227-7.223-7.213v-18.978c0-3.945 3.166-7.152 7.091-7.213.041-.01.091-.01.132-.01h18.978c3.985 0 7.212 3.237 7.212 7.223z" fill="#c2aacf"/><path d="m113.169 234.004v12.988c0 .028 0 .062-.007.09-.042 2.686-2.229 4.846-4.929 4.846h-12.988c-2.728 0-4.943-2.208-4.943-4.936v-12.988c0-2.7 2.167-4.895 4.853-4.936.028-.007.062-.007.09-.007h12.988c2.728 0 4.936 2.216 4.936 4.943z" fill="#6052a3"/><path d="m113.169 234.004v12.988c0 .028 0 .062-.007.09-.028.007-.062.007-.09.007h-6.272c-6.439 0-11.652-5.22-11.652-11.652v-6.279c0-.028 0-.062.007-.09.028-.007.062-.007.09-.007h12.988c2.728 0 4.936 2.216 4.936 4.943z" fill="#57409b"/><path d="m107.158 244.859c-1.656 0-2.999-1.343-2.999-2.999v-7.41c0-1.656 1.343-2.999 2.999-2.999s2.999 1.343 2.999 2.999v7.41c0 1.656-1.343 2.999-2.999 2.999z" fill="#9175a7"/></g><g><path d="m171.428 231.011v18.978c0 .04 0 .091-.01.132-.061 3.925-3.257 7.081-7.203 7.081h-18.978c-3.986 0-7.223-3.227-7.223-7.213v-18.978c0-3.945 3.166-7.152 7.091-7.213.04-.01.091-.01.132-.01h18.978c3.986 0 7.213 3.237 7.213 7.223z" fill="#c2aacf"/><path d="m166.154 234.004v12.988c0 .028 0 .062-.007.09-.042 2.686-2.229 4.846-4.929 4.846h-12.988c-2.728 0-4.943-2.208-4.943-4.936v-12.988c0-2.7 2.167-4.895 4.853-4.936.028-.007.062-.007.09-.007h12.988c2.728 0 4.936 2.216 4.936 4.943z" fill="#6052a3"/><path d="m166.154 234.004v12.988c0 .028 0 .062-.007.09-.028.007-.062.007-.09.007h-6.272c-6.439 0-11.652-5.22-11.652-11.652v-6.279c0-.028 0-.062.007-.09.028-.007.062-.007.09-.007h12.988c2.728 0 4.936 2.216 4.936 4.943z" fill="#57409b"/><path d="m160.143 244.859c-1.656 0-2.999-1.343-2.999-2.999v-7.41c0-1.656 1.343-2.999 2.999-2.999s2.999 1.343 2.999 2.999v7.41c0 1.656-1.343 2.999-2.999 2.999z" fill="#9175a7"/></g></g><g><g><path d="m118.442 271.208v18.978c0 .04 0 .091-.01.132-.061 3.925-3.257 7.081-7.203 7.081h-18.977c-3.986 0-7.223-3.227-7.223-7.213v-18.978c0-3.945 3.166-7.152 7.091-7.213.041-.01.091-.01.132-.01h18.978c3.985 0 7.212 3.237 7.212 7.223z" fill="#c2aacf"/><path d="m113.169 274.202v12.988c0 .028 0 .062-.007.09-.042 2.686-2.229 4.846-4.929 4.846h-12.988c-2.728 0-4.943-2.208-4.943-4.936v-12.988c0-2.7 2.167-4.895 4.853-4.936.028-.007.062-.007.09-.007h12.988c2.728 0 4.936 2.215 4.936 4.943z" fill="#6052a3"/><path d="m113.169 274.202v12.988c0 .028 0 .062-.007.09-.028.007-.062.007-.09.007h-6.272c-6.439 0-11.652-5.22-11.652-11.652v-6.279c0-.028 0-.062.007-.09.028-.007.062-.007.09-.007h12.988c2.728 0 4.936 2.215 4.936 4.943z" fill="#57409b"/><path d="m107.158 285.056c-1.656 0-2.999-1.343-2.999-2.999v-7.41c0-1.656 1.343-2.999 2.999-2.999s2.999 1.343 2.999 2.999v7.41c0 1.657-1.343 2.999-2.999 2.999z" fill="#9175a7"/></g><g><path d="m171.428 271.208v18.978c0 .04 0 .091-.01.132-.061 3.925-3.257 7.081-7.203 7.081h-18.978c-3.986 0-7.223-3.227-7.223-7.213v-18.978c0-3.945 3.166-7.152 7.091-7.213.04-.01.091-.01.132-.01h18.978c3.986 0 7.213 3.237 7.213 7.223z" fill="#c2aacf"/><path d="m166.154 274.202v12.988c0 .028 0 .062-.007.09-.042 2.686-2.229 4.846-4.929 4.846h-12.988c-2.728 0-4.943-2.208-4.943-4.936v-12.988c0-2.7 2.167-4.895 4.853-4.936.028-.007.062-.007.09-.007h12.988c2.728 0 4.936 2.215 4.936 4.943z" fill="#6052a3"/><path d="m166.154 274.202v12.988c0 .028 0 .062-.007.09-.028.007-.062.007-.09.007h-6.272c-6.439 0-11.652-5.22-11.652-11.652v-6.279c0-.028 0-.062.007-.09.028-.007.062-.007.09-.007h12.988c2.728 0 4.936 2.215 4.936 4.943z" fill="#57409b"/><path d="m160.143 285.056c-1.656 0-2.999-1.343-2.999-2.999v-7.41c0-1.656 1.343-2.999 2.999-2.999s2.999 1.343 2.999 2.999v7.41c0 1.657-1.343 2.999-2.999 2.999z" fill="#9175a7"/></g></g></g><g><g><path d="m159.595 352.282h-62.738c-1.878 0-3.4 1.522-3.4 3.4s1.522 3.4 3.4 3.4h62.738c1.878 0 3.4-1.522 3.4-3.4s-1.522-3.4-3.4-3.4z" fill="#f9eaf9"/><path d="m148.345 345.482h-40.234c-1.878 0-3.4 1.522-3.4 3.4s1.522 3.4 3.4 3.4h40.234c1.878 0 3.4-1.522 3.4-3.4s-1.522-3.4-3.4-3.4z" fill="#fff"/></g><g><path d="m113.169 309.36h30.118v36.122h-30.118z" fill="#c2aacf"/><path d="m118.442 309.36h19.571v36.122h-19.571z" fill="#6052a3"/><path d="m127.108 309.36h2.24v36.122h-2.24z" fill="#57409b"/></g><g><g><g><path d="m154.354 309.362h5.238v42.921h-5.238z" fill="#9175a7"/><path d="m159.592 309.362v40.291c-1.876-.105-3.355-1.651-3.355-3.557v-36.734z" fill="#a583bb"/><path d="m157.915 341.349c-.926 0-1.678-.751-1.678-1.678v-15.715c0-.926.751-1.678 1.678-1.678.926 0 1.678.751 1.678 1.678v15.715c-.001.927-.752 1.678-1.678 1.678z" fill="#c2aacf"/></g><g><path d="m96.857 309.362h5.238v42.921h-5.238z" fill="#9175a7"/><path d="m102.095 309.362v40.291c-1.876-.105-3.355-1.651-3.355-3.557v-36.734z" fill="#a583bb"/><path d="m100.417 341.349c-.926 0-1.678-.751-1.678-1.678v-15.715c0-.926.751-1.678 1.678-1.678.926 0 1.678.751 1.678 1.678v15.715c0 .927-.751 1.678-1.678 1.678z" fill="#c2aacf"/></g></g><g><path d="m162.783 308.039v6.688c0 2.302-2.952 3.258-4.297 1.397-1.091-1.509-2.167-3.026-4.349-3.026-4.319 0-4.319 5.978-8.638 5.978s-4.319-5.978-8.638-5.978-4.319 5.978-8.638 5.978-4.319-5.978-8.638-5.978-4.319 5.978-8.638 5.978-4.319-5.978-8.638-5.978c-2.174 0-3.258 1.517-4.341 3.019-1.353 1.868-4.297.904-4.297-1.397v-6.68c0-2.13 1.726-3.856 3.856-3.856h61.4c2.13-.001 3.856 1.725 3.856 3.855z" fill="#c0405c"/><path d="m162.783 308.039v3.542c0 2.302-2.952 3.265-4.297 1.397-1.091-1.502-2.167-3.026-4.349-3.026-4.319 0-4.319 5.978-8.638 5.978s-4.319-5.978-8.638-5.978-4.319 5.978-8.638 5.978-4.319-5.978-8.638-5.978-4.319 5.978-8.638 5.978-4.319-5.978-8.638-5.978c-2.174 0-3.258 1.517-4.341 3.019-1.353 1.868-4.297.904-4.297-1.397v-3.534c0-2.13 1.726-3.856 3.856-3.856h61.4c2.13-.001 3.856 1.725 3.856 3.855z" fill="#e9465e"/><path d="m158.397 304.183h-60.338c-.842 0-1.524.682-1.524 1.524s.682 1.524 1.524 1.524h60.339c.842 0 1.524-.682 1.524-1.524-.001-.841-.683-1.524-1.525-1.524z" fill="#ee6781"/></g></g></g></g><g><g><path d="m417.345 341.267v82.816c0 1.801-.308 3.536-.878 5.143-2.118 6.033-7.86 10.354-14.615 10.354h-136.921c-6.751 0-12.497-4.316-14.619-10.345-.57-1.612-.878-3.346-.878-5.151v-112.751c0-.595.042-1.181.131-1.751.844-5.789 5.831-10.236 11.856-10.236h39.988c6.025 0 11.012 4.447 11.856 10.236.089.57.131 1.156.131 1.751v14.438h88.457c8.556 0 15.492 6.936 15.492 15.496z" fill="#dd8c29"/><path d="m416.468 429.227c-2.118 6.033-7.86 10.354-14.615 10.354h-136.922c-6.751 0-12.497-4.316-14.619-10.345.57-1.359 1.397-2.578 2.422-3.599 2.034-2.038 4.852-3.299 7.957-3.299h145.398c4.67-.001 8.67 2.843 10.379 6.889z" fill="#c68132"/><path d="m417.345 341.267v73.361c-67.75-7.864-123.986-53.49-147.103-115.282h31.166c6.62 0 11.986 5.367 11.986 11.986v14.438h88.457c8.558.001 15.494 6.937 15.494 15.497z" fill="#f39e22"/><g fill="#f9c744"><path d="m395.322 343.414h-73.105c-4.872 0-8.822-3.95-8.822-8.822s3.95-8.822 8.822-8.822h73.105c4.872 0 8.822 3.95 8.822 8.822-.001 4.872-3.95 8.822-8.822 8.822z"/><path d="m313.265 309.582c-.641 3.434-3.654 6.033-7.274 6.033h-49.152c-3.62 0-6.632-2.599-7.274-6.033.844-5.789 5.831-10.236 11.856-10.236h39.988c6.025 0 11.012 4.447 11.856 10.236z"/></g></g><g><g><path d="m368.353 372.531c-3.001-3.346-7.378-5.452-12.225-5.452-2.292 0-4.474.469-6.455 1.323-1.463.625-2.814 1.461-4.023 2.464-.142-3.678-1.125-7.139-2.758-10.201l1.804.337-5.326-5.295c-.461-.499-.943-.978-1.445-1.436l-.033-.033v.003c-4.336-3.943-10.136-6.304-16.491-6.165-12.664.277-22.983 10.649-23.2 23.314-.001.083-.002.167-.003.25-.024 3.461-2.74 6.296-6.198 6.412-.103.003-.205.008-.308.013-8.235.428-14.953 7.051-15.485 15.279-.413 6.394 2.842 12.064 7.866 15.112 2.475 1.502 5.381 2.368 8.49 2.368h85.9c6.552 0 12.059-5.192 12.143-11.744.025-1.981-.433-3.851-1.265-5.502-1.958-3.888-5.985-6.553-10.636-6.553-.197 0-.392.005-.586.016-2.558.124-4.902 1.056-6.787 2.546.762-1.891 1.186-3.954 1.186-6.118 0-2.299-.475-4.488-1.33-6.474l1.862.232z" fill="#decee5"/></g><g><path d="m390.588 399.614c-.357 6.335-5.768 11.209-12.113 11.209h-85.912c-3.109 0-6.015-.866-8.49-2.368-1.576-2.593-2.451-5.659-2.364-8.936.227-8.558 7.158-15.588 15.712-15.932.108-.004.217-.008.325-.01 3.514-.073 6.272-2.933 6.355-6.446.006-.259.016-.519.031-.78.663-11.925 10.277-21.605 22.198-22.339 5.618-.346 10.849 1.264 15.075 4.219 3.629 2.53 6.514 6.052 8.268 10.171.011.025.021.05.032.075 1.476 3.492 5.173 5.427 8.888 4.672 1.059-.215 2.155-.328 3.277-.328 3.054 0 5.912.836 8.36 2.29 4.22 2.505 7.217 6.851 7.89 11.929.094.71.142 1.436.142 2.173 0 .048 0 .096-.001.144-.017 1.987 1.753 3.463 3.712 3.126.657-.113 1.332-.172 2.022-.172 1.923 0 3.739.456 5.346 1.266.907 1.799 1.37 3.858 1.247 6.037z" fill="#f9eaf9"/></g><g><g><path d="m343.334 377.078c-1.569 0-3.095-.813-3.939-2.268-1.805-3.113-4.714-5.337-8.192-6.262-3.478-.926-7.107-.441-10.22 1.364-2.173 1.26-4.956.519-6.216-1.653-1.26-2.173-.52-4.955 1.653-6.215 5.215-3.023 11.295-3.835 17.121-2.286s10.699 5.275 13.722 10.49c1.26 2.173.52 4.956-1.653 6.215-.717.417-1.502.615-2.276.615z" fill="#fff"/></g><g><path d="m318.278 400.974c-1.126 0-2.254-.415-3.134-1.253-1.82-1.731-1.892-4.61-.161-6.43 4.155-4.368 9.762-6.856 15.788-7.007 6.029-.139 11.75 2.055 16.118 6.21 1.82 1.731 1.892 4.61.16 6.43-1.731 1.82-4.61 1.892-6.43.161-2.607-2.48-6.026-3.798-9.622-3.707-3.597.09-6.944 1.575-9.425 4.183-.892.94-2.092 1.413-3.294 1.413z" fill="#fff"/></g><g><path d="m371.001 394.948c-2.013 0-3.853-1.347-4.393-3.384-.993-3.747-4.644-6.042-8.142-5.115-2.428.643-4.918-.804-5.561-3.232s.804-4.917 3.232-5.56c8.343-2.211 16.986 2.983 19.263 11.578.643 2.428-.804 4.918-3.231 5.561-.391.103-.783.152-1.168.152z" fill="#fff"/></g><g><path d="m290.288 406.214c-.118 0-.236-.005-.355-.014-2.504-.194-4.377-2.38-4.184-4.885.325-4.205 2.326-8.017 5.634-10.734 3.253-2.671 7.39-3.962 11.65-3.633 2.504.194 4.377 2.38 4.184 4.885-.194 2.504-2.379 4.381-4.885 4.184-1.909-.147-3.746.419-5.176 1.593-1.375 1.129-2.206 2.694-2.338 4.405-.185 2.387-2.177 4.199-4.53 4.199z" fill="#fff"/></g></g></g></g></g></svg>