<svg id="Capa_1" enable-background="new 0 0 512 512" height="512" viewBox="0 0 512 512" width="512" xmlns="http://www.w3.org/2000/svg"><g><g><g><path d="m69.5 102.716v40l-13.727 4.677-14.634-4.677-.828-38.534c0-8.29 5.908-16.466 14.188-16.466 4.14 0 7.89 1.68 10.6 4.39 2.721 2.72 4.401 6.46 4.401 10.61z" fill="#7dc3ee"/><path d="m74.5 272.635v46.08l-2.234 15h-34.183l-1.036-61.271c0-.95.03-1.9.1-2.85l4.964-66.948c.07-.95.1-1.9.1-2.85l-.661-57.081h27.95v57.07c0 .95.03 1.9.1 2.85l4.8 67.15c.07.951.1 1.901.1 2.85z" fill="#f8f7f7"/><path d="m54.5 87.716v55l-7.5 2.916-7.5-2.916v-40c0-8.29 6.72-15 15-15z" fill="#64acdc"/><path d="m52.5 318.716c-1.657 0-3-1.343-3-3v-43.08c0-.95.03-1.9.1-2.85l4.8-67.15c.07-.95.1-1.9.1-2.85v-57.07h-15v57.07c0 .95-.03 1.9-.1 2.85l-4.8 67.15c-.07.95-.1 1.9-.1 2.85v46.08 15l17.839 8.98 22.161-8.98v-15z" fill="#e8e8e8"/></g><g><path d="m472.5 102.716v40l-13.727 4.677-14.634-4.677-.828-38.534c0-8.29 5.908-16.466 14.188-16.466 4.14 0 7.89 1.68 10.6 4.39 2.721 2.72 4.401 6.46 4.401 10.61z" fill="#7dc3ee"/><path d="m477.5 272.635v46.08l-2.234 15h-34.183l-1.036-61.271c0-.95.03-1.9.1-2.85l4.964-66.948c.07-.95.1-1.9.1-2.85l-.661-57.081h27.95v57.07c0 .95.03 1.9.1 2.85l4.8 67.15c.07.951.1 1.901.1 2.85z" fill="#f8f7f7"/><path d="m457.5 87.716v55l-7.5 2.916-7.5-2.916v-40c0-8.29 6.72-15 15-15z" fill="#64acdc"/><path d="m455.5 318.716c-1.657 0-3-1.343-3-3v-43.08c0-.95.03-1.9.1-2.85l4.8-67.15c.07-.95.1-1.9.1-2.85v-57.07h-15v57.07c0 .95-.03 1.9-.1 2.85l-4.8 67.15c-.07.95-.1 1.9-.1 2.85v46.08 15l17.839 8.98 22.161-8.98v-15z" fill="#e8e8e8"/></g><g><path d="m350 102.716v40l-13.727 4.677-14.634-4.677-.828-38.534c0-8.29 5.908-16.466 14.188-16.466 4.14 0 7.89 1.68 10.6 4.39 2.721 2.72 4.401 6.46 4.401 10.61z" fill="#7dc3ee"/><path d="m355 272.635v46.08l-2.234 15h-34.183l-1.036-61.271c0-.95.03-1.9.1-2.85l4.964-66.948c.07-.95.1-1.9.1-2.85l-.661-57.081h27.95v57.07c0 .95.03 1.9.1 2.85l4.8 67.15c.07.951.1 1.901.1 2.85z" fill="#f8f7f7"/><path d="m335 87.716v55l-7.5 2.916-7.5-2.916v-40c0-8.29 6.72-15 15-15z" fill="#64acdc"/><path d="m333 318.716c-1.657 0-3-1.343-3-3v-43.08c0-.95.03-1.9.1-2.85l4.8-67.15c.07-.95.1-1.9.1-2.85v-57.07h-15v57.07c0 .95-.03 1.9-.1 2.85l-4.8 67.15c-.07.95-.1 1.9-.1 2.85v46.08 15l17.839 8.98 22.161-8.98v-15z" fill="#e8e8e8"/></g><g><path d="m192 102.716v40l-13.727 4.677-14.634-4.677-.828-38.534c0-8.29 5.908-16.466 14.188-16.466 4.14 0 7.89 1.68 10.6 4.39 2.721 2.72 4.401 6.46 4.401 10.61z" fill="#7dc3ee"/><path d="m197 272.635v46.08l-2.234 15h-34.183l-1.036-61.271c0-.95.03-1.9.1-2.85l4.964-66.948c.07-.95.1-1.9.1-2.85l-.661-57.081h27.95v57.07c0 .95.03 1.9.1 2.85l4.8 67.15c.07.951.1 1.901.1 2.85z" fill="#f8f7f7"/><path d="m177 87.716v55l-7.5 2.916-7.5-2.916v-40c0-8.29 6.72-15 15-15z" fill="#64acdc"/><path d="m175 318.716c-1.657 0-3-1.343-3-3v-43.08c0-.95.03-1.9.1-2.85l4.8-67.15c.07-.95.1-1.9.1-2.85v-57.07h-15v57.07c0 .95-.03 1.9-.1 2.85l-4.8 67.15c-.07.95-.1 1.9-.1 2.85v46.08 15l17.839 8.98 22.161-8.98v-15z" fill="#e8e8e8"/></g><path d="m489.073 458.107h-471.573l5.555-49.394-5.555-49.394h477v79.397z" fill="#f8f7f7"/><g><path d="m498.5 362.712h-485c-2.761 0-5-2.239-5-5v-18c0-2.761 2.239-5 5-5l8-1h478c2.761 0 5 2.239 5 5v11.002l-1 7.998c0 2.761-2.239 5-5 5z" fill="#7dc3ee"/><path d="m504.5 349.714v9c0 2.761-2.239 5-5 5h-487c-2.761 0-5-2.239-5-5v-20c0-2.761 2.239-5 5-5h9v13c0 1.657 1.343 3 3 3z" fill="#64acdc"/></g><path d="m494.5 438.716v15l-233.317 4.81-243.683-4.81v-90h15v72c0 1.657 1.343 3 3 3z" fill="#e8e8e8"/><g><path d="m498.5 482.713h-485c-2.761 0-5-2.239-5-5v-18c0-2.761 2.239-5 5-5l8-1h478c2.761 0 5 2.239 5 5v11.002l-1 7.998c0 2.762-2.239 5-5 5z" fill="#7dc3ee"/><path d="m504.5 469.716v9c0 2.761-2.239 5-5 5h-487c-2.761 0-5-2.239-5-5v-20c0-2.761 2.239-5 5-5h9v13c0 1.657 1.343 3 3 3z" fill="#64acdc"/></g><g fill="#b3e59f"><circle cx="180.5" cy="408.713" r="15"/><circle cx="120.5" cy="408.713" r="15"/></g></g><g><path d="m512 358.713v-20c0-6.893-5.607-12.5-12.5-12.5h-14.5v-53.573c0-1.119-.04-2.257-.12-3.384l-4.797-67.151c-.056-.772-.083-1.553-.083-2.318v-97.073c0-12.406-10.094-22.5-22.5-22.5s-22.5 10.094-22.5 22.5v97.073c0 .766-.027 1.546-.082 2.315l-4.798 67.157c-.08 1.124-.12 2.262-.12 3.381v53.573h-67v-53.761c0-1.119-.04-2.257-.12-3.384l-4.797-67.151c-.056-.772-.083-1.553-.083-2.318v-97.073c0-12.406-10.094-22.5-22.5-22.5s-22.5 10.094-22.5 22.5v97.073c0 .766-.027 1.546-.082 2.315l-4.798 67.157c-.08 1.124-.12 2.262-.12 3.381v53.761h-103.5v-53.573c0-1.119-.04-2.257-.12-3.384l-4.797-67.151c-.056-.772-.083-1.553-.083-2.318v-97.073c0-12.406-10.094-22.5-22.5-22.5s-22.5 10.094-22.5 22.5v97.073c0 .766-.027 1.546-.082 2.315l-4.798 67.157c-.08 1.124-.12 2.262-.12 3.381v53.573h-67.5v-53.573c0-1.119-.04-2.257-.12-3.384l-4.797-67.151c-.056-.772-.083-1.553-.083-2.318v-97.073c0-12.406-10.094-22.5-22.5-22.5s-22.5 10.093-22.5 22.499v59.812c0 4.143 3.357 7.5 7.5 7.5s7.5-3.357 7.5-7.5v-12.312h15v49.573c0 1.119.04 2.257.12 3.384l4.797 67.151c.056.772.083 1.553.083 2.318v53.573h-25v-53.572c0-.766.027-1.546.082-2.315.35-8.143 5.048-64.148 4.918-72.799 0-4.143-3.357-7.5-7.5-7.5s-7.5 3.357-7.5 7.5c.187 6.859-4.665 65.634-4.88 71.733-.08 1.124-.12 2.262-.12 3.381v53.573h-14.5c-6.893 0-12.5 5.607-12.5 12.5v20c0 6.037 4.301 11.087 10 12.248v75.504c-5.699 1.161-10 6.211-10 12.248v20c0 6.893 5.607 12.5 12.5 12.5h379c4.143 0 7.5-3.357 7.5-7.5s-3.357-7.5-7.5-7.5h-376.5v-15h482v15h-70.5c-4.143 0-7.5 3.357-7.5 7.5s3.357 7.5 7.5 7.5h73c6.893 0 12.5-5.607 12.5-12.5v-20c0-6.037-4.301-11.087-10-12.248v-75.504c5.699-1.161 10-6.211 10-12.248zm-450-223.5h-15v-32.5c0-4.136 3.364-7.5 7.5-7.5s7.5 3.364 7.5 7.5zm388-32.5c0-4.136 3.364-7.5 7.5-7.5s7.5 3.364 7.5 7.5v32.5h-15zm-5 169.927c0-.766.027-1.546.082-2.315l4.798-67.157c.08-1.124.12-2.262.12-3.381v-49.573h15v49.573c0 1.119.04 2.257.12 3.384l4.797 67.151c.056.772.083 1.553.083 2.318v53.573h-25zm-117-170.114c0-4.136 3.364-7.5 7.5-7.5s7.5 3.364 7.5 7.5v32.5h-15zm-5 169.926c0-.766.027-1.546.082-2.315l4.798-67.157c.08-1.124.12-2.262.12-3.381v-49.573h15v49.573c0 1.119.04 2.257.12 3.384l4.797 67.151c.056.772.083 1.553.083 2.318v53.761h-25zm-153.5-169.739c0-4.136 3.364-7.5 7.5-7.5s7.5 3.364 7.5 7.5v32.5h-15zm-5 169.927c0-.766.027-1.546.082-2.315l4.798-67.157c.08-1.124.12-2.262.12-3.381v-49.573h15v49.573c0 1.119.04 2.257.12 3.384l4.797 67.151c.056.772.083 1.553.083 2.318v53.573h-25zm332.5 83.573h-248.426c-4.143 0-7.5 3.357-7.5 7.5s3.357 7.5 7.5 7.5h238.426v75h-462v-75h188.574c4.143 0 7.5-3.357 7.5-7.5s-3.357-7.5-7.5-7.5h-198.574v-15h482z"/><path d="m180.5 386.213c-12.406 0-22.5 10.094-22.5 22.5s10.094 22.5 22.5 22.5 22.5-10.094 22.5-22.5-10.094-22.5-22.5-22.5zm0 30c-4.136 0-7.5-3.364-7.5-7.5s3.364-7.5 7.5-7.5 7.5 3.364 7.5 7.5-3.364 7.5-7.5 7.5z"/><path d="m120.5 386.213c-12.406 0-22.5 10.094-22.5 22.5s10.094 22.5 22.5 22.5 22.5-10.094 22.5-22.5-10.094-22.5-22.5-22.5zm0 30c-4.136 0-7.5-3.364-7.5-7.5s3.364-7.5 7.5-7.5 7.5 3.364 7.5 7.5-3.364 7.5-7.5 7.5z"/><path d="m218 404.092v10c0 4.143 3.357 7.5 7.5 7.5s7.5-3.357 7.5-7.5v-10c0-4.143-3.357-7.5-7.5-7.5s-7.5 3.357-7.5 7.5z"/><path d="m255.5 421.592c4.143 0 7.5-3.357 7.5-7.5v-10c0-4.143-3.357-7.5-7.5-7.5s-7.5 3.357-7.5 7.5v10c0 4.143 3.357 7.5 7.5 7.5z"/><path d="m285.5 421.592c4.143 0 7.5-3.357 7.5-7.5v-10c0-4.143-3.357-7.5-7.5-7.5s-7.5 3.357-7.5 7.5v10c0 4.143 3.357 7.5 7.5 7.5z"/><path d="m376.5 421.592c4.143 0 7.5-3.357 7.5-7.5v-10c0-4.143-3.357-7.5-7.5-7.5s-7.5 3.357-7.5 7.5v10c0 4.143 3.357 7.5 7.5 7.5z"/><path d="m406.5 421.592c4.143 0 7.5-3.357 7.5-7.5v-10c0-4.143-3.357-7.5-7.5-7.5s-7.5 3.357-7.5 7.5v10c0 4.143 3.357 7.5 7.5 7.5z"/><path d="m320.635 404.971c6.6-4.361 15.131-4.361 21.73 0 1.273.841 2.708 1.243 4.128 1.243 2.435 0 4.822-1.184 6.265-3.366 2.283-3.456 1.332-8.109-2.123-10.393-11.625-7.68-26.645-7.68-38.27 0-3.455 2.283-4.406 6.937-2.123 10.393 2.283 3.455 6.935 4.406 10.393 2.123z"/><path d="m20.1 61.643c-3.352 2.435-4.094 7.125-1.659 10.476 2.436 3.353 7.125 4.097 10.476 1.659 15.303-11.117 35.865-11.117 51.168 0 1.331.968 2.873 1.434 4.402 1.434 2.318-.001 4.606-1.073 6.073-3.093 2.435-3.351 1.692-8.041-1.659-10.476-20.577-14.949-48.225-14.949-68.801 0z"/><path d="m423.1 61.643c-3.352 2.435-4.094 7.125-1.659 10.476 2.436 3.353 7.126 4.097 10.476 1.659 15.303-11.117 35.865-11.117 51.168 0 1.331.968 2.873 1.434 4.402 1.434 2.318-.001 4.606-1.073 6.073-3.093 2.435-3.351 1.692-8.041-1.659-10.476-20.577-14.949-48.225-14.949-68.801 0z"/><path d="m12.743 49.406c24.977-18.146 58.537-18.146 83.514 0 1.331.968 2.873 1.434 4.402 1.434 2.318-.001 4.606-1.073 6.073-3.093 2.435-3.351 1.692-8.041-1.659-10.476-30.25-21.979-70.896-21.979-101.146 0-3.352 2.435-4.094 7.125-1.659 10.476 2.435 3.351 7.125 4.096 10.475 1.659z"/><path d="m415.743 49.406c24.977-18.146 58.537-18.146 83.514 0 1.331.968 2.873 1.434 4.402 1.434 2.318-.001 4.606-1.073 6.073-3.093 2.435-3.351 1.692-8.041-1.659-10.476-30.25-21.979-70.896-21.979-101.146 0-3.352 2.435-4.094 7.125-1.659 10.476s7.125 4.096 10.475 1.659z"/><path d="m142.6 61.643c-3.352 2.435-4.094 7.125-1.659 10.476 2.436 3.353 7.125 4.097 10.476 1.659 15.303-11.117 35.865-11.117 51.168 0 1.331.968 2.873 1.434 4.402 1.434 2.318-.001 4.606-1.073 6.073-3.093 2.435-3.351 1.692-8.041-1.659-10.476-20.577-14.949-48.225-14.949-68.801 0z"/><path d="m300.6 61.643c-3.352 2.435-4.094 7.125-1.659 10.476 2.436 3.353 7.125 4.097 10.476 1.659 15.303-11.117 35.865-11.117 51.168 0 1.331.968 2.873 1.434 4.402 1.434 2.318-.001 4.606-1.073 6.073-3.093 2.435-3.351 1.692-8.041-1.659-10.476-20.577-14.949-48.225-14.949-68.801 0z"/><path d="m135.243 49.406c24.977-18.146 58.537-18.146 83.514 0 1.331.968 2.873 1.434 4.402 1.434 2.318-.001 4.606-1.073 6.073-3.093 2.435-3.351 1.692-8.041-1.659-10.476-30.25-21.979-70.896-21.979-101.146 0-3.352 2.435-4.094 7.125-1.659 10.476s7.126 4.096 10.475 1.659z"/><path d="m293.243 49.406c24.977-18.146 58.537-18.146 83.514 0 1.331.968 2.873 1.434 4.402 1.434 2.318-.001 4.606-1.073 6.073-3.093 2.435-3.351 1.692-8.041-1.659-10.476-30.25-21.979-70.896-21.979-101.146 0-3.352 2.435-4.094 7.125-1.659 10.476s7.126 4.096 10.475 1.659z"/><path d="m331.5 416.713c-4.143 0-7.501 3.358-7.501 7.501s3.358 7.501 7.501 7.501 7.501-3.358 7.501-7.501-3.358-7.501-7.501-7.501z"/></g></g></svg>