<svg id="Capa_1" enable-background="new 0 0 512 512" height="512" viewBox="0 0 512 512" width="512" xmlns="http://www.w3.org/2000/svg"><g><g><path d="m472.853 501.422-433.486 2.078c-16.569 0-30-13.431-30-30l1.436-265.697c0-10.255 1.842-22.61 9.692-28.021 4.833-3.331 10.692-5.282 17.006-5.282h437c16.569 0 30 13.431 30 30v270c0 6.213-1.889 11.985-5.124 16.773-5.392 7.98-16.168 10.149-26.524 10.149z" fill="#b6c4cf"/><g><path d="m97.5 277.5h317v227h-317z" fill="#9facba"/></g><path d="m499.21 491.5c-5.4 7.86-14.45 13-24.71 13h-437c-16.57 0-30-13.43-30-30v-270c0-10.26 5.14-19.31 13-24.71v294.71c0 9.37 7.63 17 17 17z" fill="#9facba"/><path d="m97.5 491.5h317v13h-317z" fill="#8d9ca8"/><path d="m411.202 57.94h-313.702l6.216 98.234-6.216 107.326h317v-185.688z" fill="#e8e8e8"/><path d="m414.5 61.881v15.932h-298c-2.209 0-4 1.791-4 4v182.5h-15v-202.515l155.855-5.697z" fill="#d8d8d8"/><path d="m422.5 7.5h-333c-.336 0-.67.011-1 .033-7.818.515-13.188 9.464-13.188 17.412l.853 21.55c0 8.284 6.716 15 15 15l329.986-.028c7.948 0 15.801-5.15 16.316-12.967.022-.331.033-.664.033-1v-25c0-8.284-6.716-15-15-15z" fill="#f8f7f7"/><path d="m437.46 48.5c-.51 7.82-7.02 14-14.96 14h-333c-8.28 0-15-6.72-15-15v-25c0-7.94 6.18-14.45 14-14.96v32.96c0 4.42 3.58 8 8 8z" fill="#e8e8e8"/><path d="m301 304.495h-90v34.005l2.862 15.509-2.862 18.496h90l-2.587-17.01 2.587-16.995z" fill="#f8f7f7"/><path d="m176 383.5h-16l-3 1c-5.523 0-10 4.477-10 10v53c0 5.523 4.477 10 10 10h19l3.128-41.509z" fill="#f8f7f7"/><path d="m176 444.5 3.128 6.94-3.128 7.06h-20c-5.523 0-10-4.477-10-10v-55c0-5.523 4.477-10 10-10h4v57c0 2.209 1.791 4 4 4z" fill="#e8e8e8"/><path d="m356 383.5h-6l-14 4.307v69.693h19c5.523 0 10-4.477 10-10l1-3v-51c0-5.523-4.477-10-10-10z" fill="#f8f7f7"/><path d="m366 444.5v4c0 5.523-4.477 10-10 10h-20l-4.064-35.243 4.064-39.757h14v58c0 1.657 1.343 3 3 3z" fill="#e8e8e8"/><g fill="#9facba"><circle cx="52.5" cy="458.5" r="15"/><circle cx="52.5" cy="219.5" r="15"/><circle cx="459" cy="458.5" r="15"/><circle cx="459" cy="219.5" r="15"/></g><path d="m241 368.5h-50l-2 1c-6.627 0-12 5.373-12 12v79c0 6.627 5.373 12 12 12h134c6.627 0 12-5.373 12-12l1-2v-78c0-6.627-5.373-12-12-12z" fill="#f8f7f7"/><path d="m336 458.5v3c0 6.627-5.373 12-12 12h-136c-6.627 0-12-5.373-12-12v-81c0-6.627 5.373-12 12-12h3v85c0 2.761 2.239 5 5 5z" fill="#e8e8e8"/><path d="m211 338.5v30h27c1.657 0 3 1.343 3 3v69c0 1.657 1.343 3 3 3h24c1.657 0 3-1.343 3-3v-69c0-1.657 1.343-3 3-3h27v-30z" fill="#e8e8e8"/><path d="m422.5 253.5h-333c-.336 0-.67.011-1 .033-7.818.515-12.197 9.849-12.197 17.797l-.028 20.229c0 8.284 6.716 15 15 15l328.954-.22c7.948 0 16.723-4.021 17.238-11.839.022-.331.033-.664.033-1v-25c0-8.284-6.716-15-15-15z" fill="#f8f7f7"/><path d="m437.46 294.5c-.51 7.82-7.02 14-14.96 14h-333c-8.28 0-15-6.72-15-15v-25c0-7.94 6.18-14.45 14-14.96v32.96c0 4.42 3.58 8 8 8z" fill="#e8e8e8"/></g><g><path d="m504.5 275.691c4.143 0 7.5-3.357 7.5-7.5v-63.691c0-20.678-16.822-37.5-37.5-37.5h-52.5v-97h.5c12.406 0 22.5-10.094 22.5-22.5v-25c0-12.406-10.094-22.5-22.5-22.5h-230c-4.143 0-7.5 3.357-7.5 7.5s3.357 7.5 7.5 7.5h230c4.136 0 7.5 3.364 7.5 7.5v25c0 4.136-3.364 7.5-7.5 7.5h-333c-4.136 0-7.5-3.364-7.5-7.5v-25c0-4.136 3.364-7.5 7.5-7.5h67.521c4.143 0 7.5-3.357 7.5-7.5s-3.357-7.5-7.5-7.5h-67.521c-12.406 0-22.5 10.094-22.5 22.5v25c0 12.406 10.094 22.5 22.5 22.5h.5v97h-52.5c-20.678 0-37.5 16.822-37.5 37.5v270c0 20.678 16.822 37.5 37.5 37.5h437c20.678 0 37.5-16.822 37.5-37.5v-171.309c0-4.143-3.357-7.5-7.5-7.5s-7.5 3.357-7.5 7.5v171.309c0 12.406-10.094 22.5-22.5 22.5h-52.5v-181c11.972.391 23.004-9.976 23-22.5v-25c.109-12.005-10.452-22.756-23-22.5v-64h52.5c12.406 0 22.5 10.094 22.5 22.5v63.691c0 4.143 3.357 7.5 7.5 7.5zm-97.5 221.309h-302v-81.979c0-4.143-3.357-7.5-7.5-7.5s-7.5 3.357-7.5 7.5v81.979h-52.5c-12.406 0-22.5-10.094-22.5-22.5v-270c0-12.406 10.094-22.5 22.5-22.5h52.5v64c-11.972-.391-23.004 9.976-23 22.5v25c-.109 12.005 10.452 22.756 23 22.5v64.021c0 4.143 3.357 7.5 7.5 7.5s7.5-3.357 7.5-7.5v-64.021h98.5v45h-15.5c-9.201 0-16.915 6.414-18.955 15h-13.045c-9.649 0-17.5 7.851-17.5 17.5v55c0 9.649 7.851 17.5 17.5 17.5h13.045c2.04 8.586 9.754 15 18.955 15h57.574c4.143 0 7.5-3.357 7.5-7.5s-3.357-7.5-7.5-7.5h-57.574c-2.481 0-4.5-2.019-4.5-4.5v-81c0-2.481 2.019-4.5 4.5-4.5h45.5v64.5c0 5.79 4.71 10.5 10.5 10.5h24c5.79 0 10.5-4.71 10.5-10.5v-64.5h45.5c2.481 0 4.5 2.019 4.5 4.5v81c0 2.481-2.019 4.5-4.5 4.5h-43.426c-4.143 0-7.5 3.357-7.5 7.5s3.357 7.5 7.5 7.5h43.426c9.201 0 16.915-6.414 18.955-15h13.045c9.649 0 17.5-7.851 17.5-17.5v-55c0-9.649-7.851-17.5-17.5-17.5h-13.045c-2.04-8.586-9.754-15-18.955-15h-15.5v-45h98.5zm-133-136c-5.79 0-10.5 4.71-10.5 10.5v64.5h-15v-64.5c0-5.79-4.71-10.5-10.5-10.5h-19.5v-15h75v15zm19.5-30h-75v-15h75zm-137.5 120c-1.379 0-2.5-1.121-2.5-2.5v-55c0-1.379 1.121-2.5 2.5-2.5h12.5v60zm200-60c1.379 0 2.5 1.121 2.5 2.5v55c0 1.379-1.121 2.5-2.5 2.5h-12.5v-60zm74-122.5v25c0 4.136-3.364 7.5-7.5 7.5-98.499 0-234.755 0-333 0-4.136 0-7.5-3.364-7.5-7.5v-25c0-4.136 3.364-7.5 7.5-7.5h333c4.136 0 7.5 3.364 7.5 7.5zm-325-22.5v-176h302v176z"/><path d="m52.5 436c-12.406 0-22.5 10.094-22.5 22.5s10.094 22.5 22.5 22.5 22.5-10.094 22.5-22.5-10.094-22.5-22.5-22.5zm0 30c-4.136 0-7.5-3.364-7.5-7.5s3.364-7.5 7.5-7.5 7.5 3.364 7.5 7.5-3.364 7.5-7.5 7.5z"/><path d="m52.5 242c12.406 0 22.5-10.094 22.5-22.5s-10.094-22.5-22.5-22.5-22.5 10.094-22.5 22.5 10.094 22.5 22.5 22.5zm0-30c4.136 0 7.5 3.364 7.5 7.5s-3.364 7.5-7.5 7.5-7.5-3.364-7.5-7.5 3.364-7.5 7.5-7.5z"/><path d="m459 436c-12.406 0-22.5 10.094-22.5 22.5s10.094 22.5 22.5 22.5 22.5-10.094 22.5-22.5-10.094-22.5-22.5-22.5zm0 30c-4.136 0-7.5-3.364-7.5-7.5s3.364-7.5 7.5-7.5 7.5 3.364 7.5 7.5-3.364 7.5-7.5 7.5z"/><path d="m459 197c-12.406 0-22.5 10.094-22.5 22.5s10.094 22.5 22.5 22.5 22.5-10.094 22.5-22.5-10.094-22.5-22.5-22.5zm0 30c-4.136 0-7.5-3.364-7.5-7.5s3.364-7.5 7.5-7.5 7.5 3.364 7.5 7.5-3.364 7.5-7.5 7.5z"/></g></g></svg>