<svg id="Icons" enable-background="new 0 0 512 512" height="512" viewBox="0 0 512 512" width="512" xmlns="http://www.w3.org/2000/svg"><g><g><circle cx="256" cy="256" fill="#57409b" r="256"/><path d="m512 256c0 47.52-12.95 92.02-35.52 130.15-37.84 29.48-85.42 47.03-137.11 47.03-123.37 0-223.39-100.01-223.39-223.38 0-96.28 60.91-178.33 146.3-209.73 138.48 3.34 249.72 116.65 249.72 255.93z" fill="#6052a3"/></g><g><g><g><path d="m239.82 282.92v141.74c0 5.67-3.42 10.53-8.31 12.65-1.68.73-3.53 1.13-5.47 1.13h-149.63c-3.84-3.79-7.56-7.69-11.17-11.71-5.82-6.5-11.32-13.31-16.46-20.39v-123.42l11.03-11.07 84.49-84.74z" fill="#fbcb74"/><path d="m239.82 282.925v141.738c0 5.67-3.419 10.531-8.306 12.652h-.007c-4.881-2.121-8.306-6.982-8.306-12.652v-141.738c0-5.664 3.426-10.525 8.306-12.652h.007c4.887 2.12 8.306 6.988 8.306 12.652z" fill="#faefdc"/><path d="m65.4 282.92v141.74c0 .7-.05 1.39-.16 2.07-5.82-6.5-11.32-13.31-16.46-20.39v-123.42c0-5.66 3.42-10.53 8.31-12.65.97.42 1.88.95 2.72 1.58 3.39 2.5 5.59 6.53 5.59 11.07z" fill="#deb36f"/><path d="m202.433 275.562c0 4.589-3.72 8.31-8.31 8.31h-99.648c-4.589 0-8.31-3.72-8.31-8.31 0-4.589 3.72-8.31 8.31-8.31h99.648c4.59 0 8.31 3.721 8.31 8.31z" fill="#fbd9a3"/></g><g><path d="m181.7 398.03h-74.797c-8.598 0-15.568-6.97-15.568-15.568v-74.797c0-8.598 6.97-15.568 15.568-15.568h74.797c8.598 0 15.568 6.97 15.568 15.568v74.797c0 8.598-6.97 15.568-15.568 15.568z" fill="#c4983d"/><g><g><path d="m141.215 310.02v23.156c0 .049 0 .111-.012.16-.074 4.789-3.975 8.64-8.789 8.64h-23.156c-4.863 0-8.813-3.938-8.813-8.801v-23.155c0-4.814 3.864-8.727 8.653-8.801.049-.012.111-.012.16-.012h23.156c4.864 0 8.801 3.95 8.801 8.813z" fill="#6052a3"/><path d="m141.215 310.02v23.156c0 .049 0 .111-.012.16-.049.012-.111.012-.16.012h-11.183c-11.48 0-20.774-9.307-20.774-20.774v-11.194c0-.049 0-.111.012-.16.049-.012.111-.012.16-.012h23.156c4.864-.001 8.801 3.949 8.801 8.812z" fill="#57409b"/><path d="m130.497 329.373c-2.953 0-5.347-2.394-5.347-5.347v-13.211c0-2.953 2.394-5.347 5.347-5.347s5.347 2.394 5.347 5.347v13.211c0 2.953-2.394 5.347-5.347 5.347z" fill="#9175a7"/></g><g><path d="m188.157 310.02v23.156c0 .049 0 .111-.012.16-.074 4.789-3.975 8.64-8.789 8.64h-23.156c-4.863 0-8.813-3.938-8.813-8.801v-23.155c0-4.814 3.864-8.727 8.653-8.801.049-.012.111-.012.16-.012h23.156c4.864 0 8.801 3.95 8.801 8.813z" fill="#6052a3"/><path d="m188.157 310.02v23.156c0 .049 0 .111-.012.16-.049.012-.111.012-.16.012h-11.183c-11.48 0-20.774-9.307-20.774-20.774v-11.194c0-.049 0-.111.012-.16.049-.012.111-.012.16-.012h23.156c4.864-.001 8.801 3.949 8.801 8.812z" fill="#57409b"/><path d="m177.439 329.373c-2.953 0-5.347-2.394-5.347-5.347v-13.211c0-2.953 2.394-5.347 5.347-5.347s5.347 2.394 5.347 5.347v13.211c0 2.953-2.394 5.347-5.347 5.347z" fill="#9175a7"/></g><g><path d="m141.215 356.962v23.156c0 .049 0 .111-.012.16-.074 4.789-3.975 8.64-8.789 8.64h-23.156c-4.863 0-8.813-3.938-8.813-8.801v-23.156c0-4.814 3.864-8.727 8.653-8.801.049-.012.111-.012.16-.012h23.156c4.864.001 8.801 3.951 8.801 8.814z" fill="#6052a3"/><path d="m141.215 356.962v23.156c0 .049 0 .111-.012.16-.049.012-.111.012-.16.012h-11.183c-11.48 0-20.774-9.307-20.774-20.774v-11.196c0-.049 0-.111.012-.16.049-.012.111-.012.16-.012h23.156c4.864.001 8.801 3.951 8.801 8.814z" fill="#57409b"/><path d="m130.497 376.315c-2.953 0-5.347-2.394-5.347-5.347v-13.211c0-2.953 2.394-5.347 5.347-5.347s5.347 2.394 5.347 5.347v13.211c0 2.953-2.394 5.347-5.347 5.347z" fill="#9175a7"/></g><g><path d="m188.157 356.962v23.156c0 .049 0 .111-.012.16-.074 4.789-3.975 8.64-8.789 8.64h-23.156c-4.863 0-8.813-3.938-8.813-8.801v-23.156c0-4.814 3.864-8.727 8.653-8.801.049-.012.111-.012.16-.012h23.156c4.864.001 8.801 3.951 8.801 8.814z" fill="#6052a3"/><path d="m188.157 356.962v23.156c0 .049 0 .111-.012.16-.049.012-.111.012-.16.012h-11.183c-11.48 0-20.774-9.307-20.774-20.774v-11.196c0-.049 0-.111.012-.16.049-.012.111-.012.16-.012h23.156c4.864.001 8.801 3.951 8.801 8.814z" fill="#57409b"/><path d="m177.439 376.315c-2.953 0-5.347-2.394-5.347-5.347v-13.211c0-2.953 2.394-5.347 5.347-5.347s5.347 2.394 5.347 5.347v13.211c0 2.953-2.394 5.347-5.347 5.347z" fill="#9175a7"/></g></g></g><g><path d="m274.644 303.668c0 2.956-1.129 5.905-3.38 8.156-4.528 4.528-11.882 4.502-16.378-.059l-102.372-103.905c-4.515-4.587-11.915-4.587-16.43 0l-102.372 103.905c-2.258 2.29-5.24 3.439-8.215 3.439-2.956 0-5.912-1.129-8.163-3.38-3.804-3.804-4.391-9.605-1.775-14.029.483-.816 1.077-1.586 1.775-2.284l118.828-118.821c4.502-4.509 11.81-4.502 16.313 0l118.789 118.822c.698.698 1.292 1.468 1.775 2.284 1.07 1.807 1.605 3.836 1.605 5.872z" fill="#e9465e"/><path d="m273.039 297.795c-.483.816-1.077 1.586-1.775 2.284v.007c-4.528 4.528-11.882 4.496-16.378-.065l-102.372-103.906c-4.515-4.587-11.915-4.587-16.43 0l-102.372 103.905c-2.258 2.29-5.24 3.439-8.222 3.439-2.956 0-5.905-1.122-8.156-3.373-.705-.705-1.292-1.475-1.775-2.29.483-.816 1.077-1.586 1.775-2.284l118.828-118.822c4.502-4.509 11.81-4.502 16.313 0l118.789 118.822c.699.698 1.292 1.468 1.775 2.283z" fill="#ee6781"/><g fill="#f789a1"><path d="m63.306 260.116-.337-.331c-2.753-2.702-2.774-7.131-.046-9.859l44.781-44.779c2.693-2.693 7.053-2.712 9.769-.043 2.736 2.688 2.772 7.087.08 9.82l-44.444 45.11c-2.686 2.725-7.072 2.762-9.803.082z"/><path d="m225.3 260.115.33-.323c2.76-2.705 2.783-7.143.05-9.876l-44.754-44.767c-2.694-2.695-7.055-2.718-9.777-.052-2.748 2.691-2.787 7.103-.088 9.842l44.424 45.09c2.689 2.729 7.079 2.767 9.815.086z"/></g></g></g></g><g><g><g><path d="m433.098 100.548v87.797c0 1.91-.327 3.748-.93 5.452-2.245 6.396-8.333 10.976-15.494 10.976h-145.156c-7.156 0-13.249-4.576-15.498-10.967-.604-1.709-.93-3.547-.93-5.461v-119.532c0-.631.045-1.252.139-1.856.895-6.137 6.181-10.851 12.569-10.851h42.393c6.387 0 11.674 4.714 12.569 10.851.094.604.139 1.226.139 1.856v15.306h93.777c9.069 0 16.422 7.353 16.422 16.429z" fill="#dd8c29"/><path d="m432.168 193.797c-2.245 6.396-8.333 10.976-15.494 10.976h-145.156c-7.156 0-13.249-4.576-15.498-10.967.604-1.44 1.48-2.733 2.567-3.815 2.156-2.16 5.144-3.498 8.436-3.498h154.142c4.951 0 9.191 3.014 11.003 7.304z" fill="#c68132"/><path d="m433.098 100.548v77.773c-71.824-8.337-131.443-56.706-155.949-122.215h33.041c7.018 0 12.707 5.689 12.707 12.707v15.306h93.777c9.071 0 16.424 7.353 16.424 16.429z" fill="#f39e22"/><g fill="#f9c744"><path d="m409.75 102.823h-77.501c-5.165 0-9.352-4.187-9.352-9.352s4.187-9.352 9.352-9.352h77.501c5.165 0 9.352 4.187 9.352 9.352s-4.187 9.352-9.352 9.352z"/><path d="m322.758 66.957c-.68 3.641-3.873 6.396-7.711 6.396h-52.108c-3.838 0-7.031-2.755-7.711-6.396.895-6.137 6.181-10.851 12.569-10.851h42.393c6.387 0 11.674 4.714 12.568 10.851z"/></g></g><g><g><path d="m381.159 133.691c-3.181-3.547-7.821-5.779-12.961-5.779-2.43 0-4.743.498-6.843 1.403-1.551.663-2.983 1.549-4.265 2.612-.15-3.899-1.193-7.568-2.923-10.815l1.913.358-5.646-5.613c-.489-.529-1-1.037-1.532-1.523l-.035-.035v.003c-4.596-4.18-10.745-6.683-17.483-6.536-13.425.293-24.365 11.289-24.595 24.716-.001.088-.003.177-.003.265-.025 3.669-2.904 6.675-6.571 6.798-.109.004-.218.008-.327.014-8.73.454-15.853 7.475-16.417 16.198-.438 6.778 3.013 12.789 8.339 16.02 2.624 1.592 5.704 2.51 9.001 2.51h91.066c6.946 0 12.784-5.505 12.873-12.45.027-2.1-.459-4.083-1.341-5.833-2.075-4.122-6.345-6.947-11.275-6.947-.209 0-.415.005-.621.017-2.711.131-5.197 1.119-7.195 2.699.808-2.005 1.257-4.192 1.257-6.486 0-2.438-.503-4.758-1.41-6.864l1.974.246z" fill="#decee5"/></g><g><path d="m404.732 162.403c-.378 6.716-6.114 11.884-12.841 11.884h-91.078c-3.296 0-6.377-.918-9.001-2.51-1.671-2.749-2.598-5.999-2.506-9.474.241-9.073 7.588-16.526 16.657-16.89.115-.005.23-.008.344-.011 3.725-.078 6.65-3.109 6.737-6.834.006-.275.017-.551.033-.827.703-12.642 10.895-22.904 23.533-23.682 5.956-.367 11.502 1.34 15.981 4.473 3.847 2.682 6.906 6.416 8.765 10.782.011.027.023.053.034.08 1.565 3.702 5.485 5.754 9.423 4.953 1.122-.228 2.284-.348 3.474-.348 3.238 0 6.267.886 8.862 2.427 4.474 2.656 7.651 7.263 8.365 12.647.1.753.151 1.522.151 2.304 0 .051 0 .102-.001.152-.018 2.107 1.859 3.671 3.935 3.314.697-.12 1.413-.182 2.144-.182 2.039 0 3.964.483 5.668 1.342.961 1.907 1.451 4.09 1.321 6.4z" fill="#f9eaf9"/></g><g><g><path d="m354.636 138.512c-1.663 0-3.281-.861-4.176-2.404-1.913-3.3-4.998-5.658-8.684-6.638-3.687-.982-7.535-.467-10.835 1.446-2.304 1.336-5.254.551-6.589-1.753-1.335-2.303-.551-5.253 1.753-6.589 5.529-3.205 11.974-4.065 18.15-2.423 6.176 1.643 11.342 5.592 14.548 11.121 1.335 2.303.551 5.254-1.753 6.589-.761.441-1.593.651-2.414.651z" fill="#fff"/></g><g><path d="m328.073 163.846c-1.194 0-2.389-.44-3.322-1.328-1.929-1.835-2.006-4.887-.17-6.816 4.405-4.63 10.349-7.268 16.737-7.428 6.392-.148 12.457 2.178 17.087 6.583 1.929 1.835 2.005 4.887.17 6.816-1.835 1.93-4.887 2.006-6.816.17-2.764-2.63-6.388-4.026-10.2-3.93-3.814.095-7.362 1.67-9.991 4.434-.949.996-2.221 1.499-3.495 1.499z" fill="#fff"/></g><g><path d="m383.966 157.457c-2.134 0-4.085-1.428-4.657-3.588-1.052-3.972-4.923-6.405-8.631-5.423-2.574.681-5.213-.852-5.895-3.426s.852-5.213 3.426-5.895c8.845-2.344 18.007 3.163 20.421 12.274.682 2.574-.852 5.213-3.426 5.895-.413.111-.829.163-1.238.163z" fill="#fff"/></g><g><path d="m298.4 169.401c-.125 0-.25-.005-.377-.015-2.655-.205-4.641-2.524-4.435-5.178.344-4.458 2.466-8.499 5.973-11.379 3.449-2.832 7.835-4.2 12.35-3.851 2.655.205 4.641 2.524 4.435 5.179-.205 2.655-2.522 4.644-5.179 4.435-2.023-.156-3.971.444-5.487 1.689-1.458 1.197-2.339 2.856-2.479 4.67-.195 2.528-2.307 4.449-4.801 4.45z" fill="#fff"/></g></g></g></g><g id="Arrow_4_"><path d="m306.231 219.706-20.23-35.898c-1.012-1.795-2.912-2.905-4.972-2.905s-3.96 1.108-4.973 2.906l-20.23 35.897c-.996 1.767-.98 3.93.044 5.681 1.024 1.753 2.9 2.829 4.928 2.829h14.523v48.566c0 3.153 2.556 5.708 5.708 5.708 3.153 0 5.708-2.556 5.708-5.708v-48.566h14.522c1.534 0 2.98-.615 4.037-1.672.342-.342.643-.729.892-1.157 1.022-1.75 1.039-3.914.043-5.681z" fill="#53b976"/><path d="m299.164 218.509c-2.73 1.576-6.221.641-7.797-2.089l-9.937-17.211c-1.576-2.73-.641-6.221 2.089-7.797s6.221-.641 7.797 2.089l9.937 17.211c1.577 2.73.641 6.221-2.089 7.797z" fill="#9acdae"/></g><g><g><path d="m433.098 260.788v66.151c0 2.234-.599 4.33-1.643 6.134-1.359 2.357-3.485 4.222-6.034 5.243-1.413.576-2.963.89-4.583.89h-96.083c-1.627 0-3.178-.315-4.591-.89-2.549-1.029-4.675-2.887-6.034-5.243-1.044-1.804-1.643-3.9-1.643-6.134v-66.151c0-5.151 3.171-9.565 7.677-11.377 1.413-.576 2.963-.891 4.591-.891h96.083c1.62 0 3.171.315 4.583.891 4.499 1.812 7.677 6.218 7.677 11.377z" fill="#d48d77"/><path d="m327.841 260.788v66.151c0 5.159-3.178 9.565-7.677 11.377-4.506-1.812-7.677-6.226-7.677-11.377v-66.151c0-5.151 3.171-9.565 7.677-11.377 4.499 1.812 7.677 6.218 7.677 11.377z" fill="#c17e62"/><path d="m433.098 260.788v66.151c0 2.234-.599 4.33-1.643 6.134-1.359 2.357-3.485 4.222-6.034 5.243-2.549-1.029-4.675-2.887-6.034-5.243-1.044-1.804-1.643-3.9-1.643-6.134v-66.151c0-5.151 3.171-9.565 7.677-11.377 4.499 1.812 7.677 6.218 7.677 11.377z" fill="#eea47d"/><path d="m431.455 333.073c-2.119 3.67-6.08 6.134-10.617 6.134h-96.083c-1.627 0-3.178-.315-4.591-.89-2.549-1.029-4.675-2.887-6.034-5.243 1.359-2.357 3.485-4.215 6.034-5.243 1.413-.576 2.963-.89 4.591-.89h96.083c4.537-.002 8.499 2.463 10.617 6.132z" fill="#a26d5a"/></g><g><path d="m418.298 299.197h-91.011c-8.174 0-14.8-6.626-14.8-14.8v-6.782h120.611v6.782c0 8.174-6.626 14.8-14.8 14.8z" fill="#a26d5a"/><path d="m433.098 260.788v20.313c0 5.335-4.33 9.665-9.665 9.665h-101.28c-5.335 0-9.665-4.33-9.665-9.665v-20.313c0-5.151 3.171-9.565 7.677-11.377 1.413-.576 2.963-.891 4.591-.891h96.083c1.62 0 3.171.315 4.583.891 4.498 1.812 7.676 6.218 7.676 11.377z" fill="#c17e62"/><path d="m327.841 260.788v29.978h-5.689c-5.335 0-9.665-4.33-9.665-9.665v-20.313c0-5.151 3.171-9.565 7.677-11.377 4.499 1.812 7.677 6.218 7.677 11.377z" fill="#a26d5a"/><path d="m433.098 260.788v20.313c0 5.335-4.33 9.665-9.665 9.665h-5.689v-29.978c0-5.151 3.171-9.565 7.677-11.377 4.499 1.812 7.677 6.218 7.677 11.377z" fill="#d48d77"/><path d="m404.841 254.981h-64.096c-3.714 0-6.725 3.011-6.725 6.725s3.011 6.725 6.725 6.725h64.096c3.714 0 6.725-3.011 6.725-6.725s-3.011-6.725-6.725-6.725z" fill="#d48d77"/><path d="m401.249 263.618h-40.595c-2.385 0-4.319-1.934-4.319-4.319s1.934-4.319 4.319-4.319h40.595c2.385 0 4.319 1.934 4.319 4.319 0 2.386-1.934 4.319-4.319 4.319z" fill="#eea47d"/></g><g><g><path d="m343.939 278.637c-.867-.645-1.942-1.021-3.109-1.021h-7.738c-1.159 0-2.234.376-3.101 1.021-1.305.944-2.15 2.487-2.15 4.23v15.799c0 1.743.844 3.286 2.15 4.23.867.645 1.942 1.021 3.101 1.021h7.738c1.167 0 2.242-.376 3.109-1.021 1.297-.952 2.142-2.495 2.142-4.23v-15.799c0-1.735-.844-3.278-2.142-4.23zm-2.147 17.501c0 1.69-1.37 3.059-3.059 3.059h-3.539c-1.689 0-3.059-1.37-3.059-3.059v-10.744c0-1.689 1.37-3.059 3.059-3.059h3.539c1.69 0 3.059 1.37 3.059 3.059z" fill="#f9c744"/><path d="m346.081 282.867v15.799c0 1.735-.844 3.278-2.142 4.23-1.305-.952-2.15-2.495-2.15-4.23v-15.799c0-1.735.844-3.278 2.15-4.23 1.298.952 2.142 2.495 2.142 4.23z" fill="#fad98f"/><path d="m332.132 282.867v15.799c0 1.735-.844 3.278-2.142 4.23-1.305-.944-2.15-2.487-2.15-4.23v-15.799c0-1.743.844-3.286 2.15-4.23 1.298.952 2.142 2.495 2.142 4.23z" fill="#f39e22"/><path d="m343.939 278.637c-.867-.645-1.942-1.021-3.109-1.021h-4.936c.281 1.728.943 3.327 1.886 4.719h.953c1.69 0 3.059 1.37 3.059 3.059v.64c1.299.732 2.746 1.233 4.289 1.431v-4.598c0-1.735-.844-3.278-2.142-4.23z" fill="#faefdc"/></g><g><path d="m415.603 278.637c-.867-.645-1.942-1.021-3.109-1.021h-7.738c-1.159 0-2.234.376-3.101 1.021-1.305.944-2.15 2.487-2.15 4.23v15.799c0 1.743.844 3.286 2.15 4.23.867.645 1.942 1.021 3.101 1.021h7.738c1.167 0 2.242-.376 3.109-1.021 1.297-.952 2.142-2.495 2.142-4.23v-15.799c0-1.735-.845-3.278-2.142-4.23zm-2.148 17.501c0 1.69-1.37 3.059-3.059 3.059h-3.539c-1.689 0-3.059-1.37-3.059-3.059v-10.744c0-1.689 1.37-3.059 3.059-3.059h3.539c1.69 0 3.059 1.37 3.059 3.059z" fill="#f9c744"/><path d="m417.745 282.867v15.799c0 1.735-.844 3.278-2.142 4.23-1.305-.952-2.15-2.495-2.15-4.23v-15.799c0-1.735.844-3.278 2.15-4.23 1.297.952 2.142 2.495 2.142 4.23z" fill="#fad98f"/><path d="m403.796 282.867v15.799c0 1.735-.844 3.278-2.142 4.23-1.305-.944-2.15-2.487-2.15-4.23v-15.799c0-1.743.844-3.286 2.15-4.23 1.297.952 2.142 2.495 2.142 4.23z" fill="#f39e22"/><path d="m415.603 278.637c-.867-.645-1.942-1.021-3.109-1.021h-4.936c.281 1.728.943 3.327 1.886 4.719h.953c1.69 0 3.059 1.37 3.059 3.059v.64c1.299.732 2.746 1.233 4.289 1.431v-4.598c0-1.735-.845-3.278-2.142-4.23z" fill="#faefdc"/></g></g><g><path d="m399.504 237.059v11.462h-9.204v-7.293c0-4.038-3.278-7.316-7.324-7.316h-20.359c-4.046 0-7.324 3.278-7.324 7.316v7.293h-9.205v-11.462c0-1.205.192-2.364.537-3.447 1.459-4.545 5.719-7.838 10.748-7.838h30.846c5.028 0 9.289 3.293 10.748 7.838.345 1.083.537 2.242.537 3.447z" fill="#a26d5a"/><path d="m398.967 233.612c-1.228 4.376-4.468 7.899-8.667 9.519v-1.904c0-4.038-3.278-7.316-7.324-7.316h-20.359c-4.046 0-7.324 3.278-7.324 7.316v1.904c-1.889-.729-3.585-1.842-4.99-3.247-1.72-1.72-3.002-3.869-3.677-6.272 1.459-4.545 5.719-7.838 10.748-7.838h30.846c5.028 0 9.288 3.293 10.747 7.838z" fill="#c17e62"/><path d="m388.031 233.911h-23.667c-2.199 0-3.982-1.783-3.982-3.982v-.174c0-2.199 1.783-3.982 3.982-3.982h23.667c2.199 0 3.982 1.783 3.982 3.982v.174c0 2.2-1.783 3.982-3.982 3.982z" fill="#d48d77"/></g></g></g></g></svg>