<svg id="Icons" enable-background="new 0 0 512 512" height="512" viewBox="0 0 512 512" width="512" xmlns="http://www.w3.org/2000/svg"><g><circle cx="256" cy="256" fill="#22bce0" r="256"/><g><path d="m282.749 469.263c-2.596.14-4.896-1.749-5.225-4.368-.345-2.74 1.596-5.241 4.336-5.585 6.429-.809 12.89-1.938 19.203-3.355 2.704-.605 5.369 1.09 5.974 3.784s-1.089 5.369-3.784 5.974c-6.623 1.486-13.4 2.67-20.144 3.519-.12.014-.241.024-.36.031zm-39.875 1.227c-.195.01-.392.01-.591-.003-6.79-.429-13.626-1.186-20.319-2.251-2.727-.434-4.586-2.997-4.152-5.724s2.993-4.587 5.724-4.152c6.381 1.015 12.901 1.738 19.378 2.147 2.756.174 4.849 2.549 4.675 5.305-.163 2.557-2.219 4.543-4.715 4.678zm97.47-17.091c-2.022.109-3.992-1.025-4.852-2.989-1.107-2.53.046-5.478 2.576-6.586 5.928-2.595 11.806-5.509 17.469-8.662 2.413-1.342 5.457-.477 6.801 1.936 1.343 2.413.476 5.458-1.936 6.801-5.94 3.307-12.105 6.363-18.323 9.085-.566.249-1.153.383-1.735.415zm-155.95 4.889c-.653.035-1.324-.058-1.978-.296-6.38-2.324-12.725-4.985-18.86-7.913-2.492-1.189-3.549-4.173-2.36-6.666 1.19-2.492 4.174-3.547 6.666-2.359 5.848 2.789 11.895 5.327 17.975 7.541 2.595.945 3.932 3.815 2.988 6.409-.707 1.941-2.491 3.179-4.431 3.284zm206.713-36.398c-1.517.082-3.053-.526-4.104-1.78-1.775-2.116-1.498-5.27.617-7.044 4.962-4.162 9.785-8.612 14.332-13.225 1.94-1.966 5.105-1.989 7.071-.05s1.989 5.104.05 7.071c-4.768 4.837-9.824 9.502-15.027 13.866-.862.723-1.896 1.105-2.939 1.162zm-259.342 8.138c-1.118.06-2.264-.253-3.236-.97-5.464-4.033-10.8-8.376-15.858-12.906-2.057-1.842-2.231-5.004-.389-7.061s5.004-2.231 7.061-.389c4.824 4.321 9.913 8.463 15.125 12.309 2.222 1.64 2.694 4.77 1.054 6.992-.924 1.251-2.318 1.947-3.757 2.025zm299.215-52.621c-1.041.056-2.108-.212-3.042-.835-2.297-1.534-2.916-4.638-1.382-6.935 3.601-5.393 6.979-11.015 10.041-16.711 1.307-2.432 4.34-3.345 6.772-2.036 2.432 1.308 3.344 4.34 2.036 6.772-3.212 5.975-6.756 11.872-10.532 17.528-.911 1.362-2.374 2.135-3.893 2.217zm-341.775 10.7c-1.598.086-3.209-.594-4.251-1.962-4.119-5.405-8.024-11.07-11.609-16.836-1.458-2.346-.738-5.428 1.607-6.886 2.347-1.457 5.428-.738 6.886 1.607 3.418 5.499 7.142 10.9 11.07 16.054 1.674 2.197 1.25 5.334-.946 7.008-.829.63-1.791.963-2.757 1.015zm367.519-64.604c-.578.031-1.171-.038-1.756-.22-2.637-.821-4.109-3.624-3.288-6.26 1.923-6.177 3.571-12.525 4.896-18.868.565-2.703 3.216-4.434 5.917-3.871 2.703.565 4.436 3.214 3.871 5.917-1.391 6.654-3.119 13.314-5.137 19.794-.637 2.051-2.477 3.398-4.503 3.508zm-396.608 12.419c-2.111.114-4.144-1.129-4.939-3.209-2.427-6.347-4.573-12.885-6.38-19.432-.735-2.662.828-5.415 3.49-6.15 2.663-.735 5.415.828 6.15 3.49 1.722 6.24 3.768 12.472 6.08 18.521.986 2.579-.305 5.47-2.885 6.456-.499.191-1.01.297-1.516.324zm406.049-71.403c-.121.007-.243.009-.365.007-2.761-.05-4.959-2.328-4.909-5.089l.006-.383c.071-4.785-.023-9.596-.279-14.328-.093-1.724-.21-3.472-.346-5.197-.218-2.753 1.837-5.161 4.589-5.38 2.764-.196 5.161 1.836 5.38 4.589.143 1.808.265 3.64.363 5.447.268 4.96.367 10.003.293 14.988l-.007.443c-.048 2.639-2.131 4.762-4.725 4.903zm-419.171 13.127c-2.701.146-5.039-1.89-5.252-4.601-.136-1.737-.252-3.482-.346-5.231-.268-4.96-.367-10.003-.293-14.988l.004-.214c.041-2.761 2.312-4.964 5.074-4.925 2.761.041 4.966 2.313 4.925 5.074l-.004.245c-.07 4.725.024 9.537.28 14.268.09 1.668.2 3.33.33 4.987.216 2.753-1.84 5.16-4.593 5.376-.042.004-.083.007-.125.009zm411.597-72.809c-2.294.124-4.445-1.354-5.083-3.659-1.728-6.238-3.781-12.467-6.1-18.516-.989-2.578.3-5.47 2.878-6.459 2.578-.988 5.47.3 6.459 2.878 2.434 6.346 4.587 12.882 6.4 19.426.737 2.661-.822 5.417-3.483 6.154-.357.099-.716.157-1.071.176zm-407.834 13.188c-.424.023-.857-.008-1.291-.099-2.704-.562-4.44-3.21-3.877-5.913 1.384-6.656 3.106-13.317 5.117-19.8.818-2.637 3.62-4.112 6.257-3.294 2.638.818 4.112 3.619 3.294 6.257-1.917 6.178-3.557 12.528-4.878 18.873-.472 2.269-2.412 3.857-4.622 3.976zm383.813-67.882c-1.762.095-3.52-.747-4.518-2.349-3.423-5.495-7.153-10.892-11.086-16.043-1.676-2.194-1.255-5.333.939-7.008 2.195-1.677 5.332-1.255 7.008.939 4.124 5.401 8.036 11.062 11.626 16.824 1.46 2.344.744 5.428-1.6 6.888-.74.461-1.555.705-2.369.749zm-363.407 11.745c-.884.048-1.792-.139-2.629-.588-2.433-1.305-3.348-4.336-2.042-6.77 3.208-5.981 6.746-11.881 10.514-17.538 1.531-2.298 4.636-2.92 6.933-1.389 2.298 1.531 2.92 4.635 1.389 6.933-3.593 5.393-6.966 11.019-10.025 16.721-.855 1.596-2.454 2.54-4.14 2.631zm324.941-57.465c-1.275.069-2.575-.347-3.602-1.265-4.83-4.318-9.923-8.454-15.137-12.293-2.223-1.637-2.699-4.767-1.062-6.991 1.637-2.223 4.767-2.699 6.991-1.062 5.467 4.026 10.807 8.362 15.872 12.89 2.058 1.841 2.236 5.001.395 7.06-.922 1.033-2.176 1.592-3.457 1.661zm-289.496 9.37c-1.355.073-2.735-.402-3.778-1.429-1.968-1.937-1.994-5.102-.058-7.071 4.762-4.841 9.814-9.511 15.013-13.881 2.115-1.777 5.269-1.502 7.045.61 1.777 2.114 1.503 5.268-.61 7.045-4.959 4.168-9.777 8.622-14.319 13.24-.91.925-2.092 1.422-3.293 1.486zm239.755-42.457c-.806.044-1.634-.108-2.414-.479-5.848-2.783-11.899-5.314-17.984-7.524-2.596-.942-3.936-3.811-2.993-6.406.942-2.596 3.809-3.938 6.406-2.993 6.384 2.318 12.732 4.973 18.868 7.892 2.493 1.186 3.554 4.17 2.367 6.663-.816 1.714-2.479 2.751-4.25 2.847zm-192.245 6.23c-1.847.1-3.678-.833-4.64-2.557-1.346-2.411-.482-5.457 1.93-6.803 5.937-3.314 12.098-6.377 18.314-9.104 2.526-1.109 5.478.04 6.588 2.569 1.11 2.528-.04 5.478-2.569 6.588-5.925 2.6-11.799 5.521-17.459 8.68-.689.384-1.428.587-2.164.627zm135.196-23.904c-.346.019-.699.002-1.056-.055-6.381-1.009-12.901-1.724-19.38-2.127-2.756-.171-4.851-2.544-4.68-5.301.171-2.756 2.547-4.85 5.301-4.68 6.792.422 13.63 1.172 20.321 2.231 2.727.431 4.589 2.992 4.158 5.719-.375 2.372-2.36 4.088-4.664 4.213zm-79.415 2.547c-2.392.129-4.597-1.48-5.142-3.894-.608-2.694 1.084-5.37 3.778-5.977 6.621-1.493 13.397-2.684 20.14-3.54 2.732-.354 5.242 1.591 5.59 4.331.348 2.739-1.591 5.242-4.331 5.59-6.428.816-12.888 1.951-19.199 3.375-.28.061-.56.1-.836.115z" fill="#83d5ef"/></g><g><g><g><g><g><path d="m230.12 333.26c-29.35 40.1-51.33 58.03-71.78 58.03-35.11-.76-44.2-43.62-52.99-81.01l10.94-2.51 21.22-4.87c3.54 15.39 7.38 31.37 12.13 42.71 1.429 3.404 2.739 5.903 3.874 7.733 2.206 3.557 6.843 4.718 10.455 2.604 6.64-3.886 19.118-14.306 39.51-42.177l14.75 10.79z" fill="#dd5e26"/><path d="m218.23 324.56c-23.67 36.55-41.74 52.98-58.59 52.98-27.24-.69-36.29-35.53-43.35-69.77l21.22-4.87c3.54 15.39 7.38 31.37 12.13 42.71 1.429 3.404 2.739 5.903 3.874 7.733 2.206 3.557 6.843 4.718 10.455 2.604 6.64-3.886 19.118-14.306 39.51-42.177z" fill="#ea792e"/></g><g><path d="m141.31 306.23v-28.92c0-4.06-3.28-7.34-7.34-7.34h-3.89c-4.06 0-7.34 3.28-7.34 7.34v10.34l-22.59-22.59c-1.9-1.89-4.97-1.89-6.86 0l-1.82 1.82c-1.89 1.9-1.89 4.97 0 6.86l-4.89-4.89c-1.9-1.89-4.97-1.89-6.86 0l-1.82 1.82c-1.89 1.89-1.89 4.97 0 6.86l5.41 5.41c-1.89-1.89-4.96-1.89-6.86 0l-1.82 1.82c-1.89 1.9-1.89 4.97 0 6.86l9.98 9.98c-1.89-1.89-4.96-1.89-6.86 0l-1.82 1.82c-1.89 1.89-1.89 4.96 0 6.86l21.99 21.99c3.31 3.31 7.65 4.96 11.98 4.96.19 0 .39 0 .58-.01 4.14-.14 8.24-1.79 11.39-4.95l14.81-14.81c2.97-2.97 4.65-7.01 4.65-11.22z" fill="#f5b890"/><g><g><path d="m110.457 289.091-.369-.369-16.798-16.799c-1.894-1.894-1.894-4.965 0-6.859l-1.82 1.82c-1.894 1.894-1.894 4.965 0 6.859l18.987 18.987s1.005-2.634 0-3.639z" fill="#d48d77"/></g><g><path d="m93.621 306.969-.369-.369-16.798-16.798c-1.894-1.894-1.894-4.965 0-6.859l-1.82 1.82c-1.894 1.894-1.894 4.965 0 6.859l18.987 18.987s1.005-2.635 0-3.64z" fill="#d48d77"/></g><g><path d="m99.886 295.877-.369-.369-19.799-19.798c-1.894-1.894-1.894-4.965 0-6.859l-1.819 1.82c-1.894 1.894-1.894 4.965 0 6.859l21.987 21.987c0-.001 1.005-2.635 0-3.64z" fill="#d48d77"/></g><g fill="#d48d77"><path d="m122.736 277.307v10.345l3.925 3.925v-14.3c0-4.038 3.273-7.311 7.311-7.311h-3.895c-4.054 0-7.341 3.287-7.341 7.341z"/><path d="m121.837 332.27c-3.066 3.076-7.034 4.709-11.061 4.924-.047.003-.094.009-.141.011-.063.003-.125.013-.188.015l-.005-.015c-4.525.156-9.099-1.484-12.554-4.939l-21.987-21.987c-1.894-1.894-1.894-4.965 0-6.859l1.82-1.82c-1.894 1.894-1.894 4.965 0 6.859l19.799 19.799c.03.032.061.064.092.096 3.557 3.699 10.396 5.117 15.366 3.273 2.717-1.008 5.707-.983 8.282.345z"/></g></g></g></g><g><g><path d="m271.88 333.26c29.35 40.1 51.33 58.03 71.78 58.03 35.11-.76 44.2-43.62 52.99-81.01l-10.94-2.51-21.22-4.87c-3.54 15.39-7.38 31.37-12.13 42.71-1.429 3.404-2.739 5.903-3.874 7.733-2.206 3.557-6.843 4.718-10.456 2.604-6.64-3.886-19.118-14.306-39.51-42.177l-14.75 10.79z" fill="#dd5e26"/><path d="m283.771 324.56c23.67 36.55 41.74 52.98 58.59 52.98 27.24-.69 36.29-35.53 43.35-69.77l-21.22-4.87c-3.54 15.39-7.38 31.37-12.13 42.71-1.429 3.404-2.739 5.903-3.874 7.733-2.206 3.557-6.843 4.718-10.456 2.604-6.64-3.886-19.118-14.306-39.51-42.177z" fill="#ea792e"/></g><g><path d="m360.67 306.24c0 4.21 1.68 8.25 4.65 11.22l14.81 14.81c3.15 3.16 7.25 4.81 11.39 4.95.19.01.39.01.58.01 4.33 0 8.67-1.65 11.98-4.96l21.99-21.99c1.89-1.9 1.89-4.97 0-6.86l-1.82-1.82c-1.9-1.89-4.97-1.89-6.86 0l9.98-9.98c1.89-1.89 1.89-4.96 0-6.86l-1.82-1.82c-1.9-1.89-4.97-1.89-6.86 0l5.41-5.41c1.89-1.89 1.89-4.97 0-6.86l-1.82-1.82c-1.89-1.89-4.96-1.89-6.86 0l-4.89 4.89c1.89-1.89 1.89-4.96 0-6.86l-1.82-1.82c-1.89-1.89-4.96-1.89-6.86 0l-22.59 22.59v-10.34c0-4.06-3.28-7.34-7.34-7.34h-3.89c-4.06 0-7.34 3.28-7.34 7.34v28.92z" fill="#f5b890"/><g><g><path d="m391.543 289.091.369-.369 16.798-16.798c1.894-1.894 1.894-4.965 0-6.859l1.82 1.82c1.894 1.894 1.894 4.965 0 6.859l-18.987 18.987c0-.001-1.005-2.635 0-3.64z" fill="#d48d77"/></g><g><path d="m408.379 306.969.369-.369 16.798-16.798c1.894-1.894 1.894-4.965 0-6.859l1.82 1.82c1.894 1.894 1.894 4.965 0 6.859l-18.987 18.987s-1.005-2.635 0-3.64z" fill="#d48d77"/></g><g><path d="m402.114 295.877.369-.369 19.799-19.799c1.894-1.894 1.894-4.965 0-6.859l1.819 1.82c1.894 1.894 1.894 4.965 0 6.859l-21.987 21.987s-1.005-2.634 0-3.639z" fill="#d48d77"/></g><g fill="#d48d77"><path d="m379.264 277.307v10.345l-3.925 3.925v-14.3c0-4.038-3.273-7.311-7.311-7.311h3.895c4.054 0 7.341 3.287 7.341 7.341z"/><path d="m380.163 332.27c3.066 3.076 7.034 4.709 11.061 4.924.047.003.094.009.141.011.063.003.125.013.188.015l.005-.015c4.525.156 9.099-1.484 12.554-4.939l21.987-21.987c1.894-1.894 1.894-4.965 0-6.859l-1.82-1.82c1.894 1.894 1.894 4.965 0 6.859l-19.799 19.799c-.03.032-.061.064-.092.096-3.557 3.699-10.396 5.117-15.366 3.273-2.717-1.008-5.707-.983-8.282.345z"/></g></g></g></g></g><g><path d="m311.48 342.27v163.7c-17.86 3.95-36.43 6.03-55.48 6.03-12.45 0-24.7-.89-36.68-2.61-9.79-1.4-19.4-3.36-28.8-5.85v-161.27c0-24.86 20.14-45.02 45.01-45.02h30.94c24.87 0 45.01 20.16 45.01 45.02z" fill="#dd5e26"/><path d="m311.48 342.27v163.7c-17.86 3.95-36.43 6.03-55.48 6.03-12.45 0-24.7-.89-36.68-2.61v-167.12c0-24.86 20.15-45.02 45.02-45.02h2.13c24.87 0 45.01 20.16 45.01 45.02z" fill="#ea792e"/><g><path d="m311.48 464.89v41.08c-17.86 3.95-36.43 6.03-55.48 6.03-12.45 0-24.7-.89-36.68-2.61-9.79-1.4-19.4-3.36-28.8-5.85v-38.65z" fill="#3e4e60"/><path d="m311.48 464.89v41.08c-17.86 3.95-36.43 6.03-55.48 6.03-12.45 0-24.7-.89-36.68-2.61v-44.5z" fill="#3f5d77"/></g></g><g><path d="m270.987 278.35v21.707c0 11.04-8.953 19.98-19.994 19.98-3.703 0-7.171-1.009-10.142-2.763-5.886-3.468-9.838-9.879-9.838-17.216v-21.708z" fill="#f5b890"/><path d="m231.013 278.35v21.707c0 7.337 3.952 13.748 9.838 17.216v-23.199c6.95 2.902 14.591 4.504 22.605 4.504 2.556 0 5.071-.166 7.531-.47v-19.758z" fill="#d48d77"/></g><g><g><g><path d="m194.745 213.157h9.911v-31.015h-9.911c-8.565 0-15.507 6.943-15.507 15.507 0 8.565 6.943 15.508 15.507 15.508z" fill="#d48d77"/><path d="m194.245 204.304h10.412v-13.309h-10.412c-3.675 0-6.654 2.979-6.654 6.654 0 3.676 2.979 6.655 6.654 6.655z" fill="#c17e62"/></g><g><path d="m326.601 182.142h-4.341v31.015h4.341c8.565 0 15.507-6.943 15.507-15.507.001-8.565-6.942-15.508-15.507-15.508z" fill="#d48d77"/><path d="m327.101 190.995h-4.841v13.309h4.841c3.675 0 6.654-2.979 6.654-6.654.001-3.675-2.979-6.655-6.654-6.655z" fill="#c17e62"/></g></g><g><path d="m322.262 147.626v81.687c0 16.235-6.577 30.937-17.216 41.576-7.682 7.668-17.465 13.223-28.408 15.738-4.242.967-8.65 1.478-13.182 1.478-32.47 0-58.806-26.322-58.806-58.792v-81.687c0-17.797 14.439-32.222 32.235-32.222h53.155c3.122 0 6.135.442 8.995 1.285 13.417 3.883 23.227 16.263 23.227 30.937z" fill="#d48d77"/><path d="m322.262 147.626v81.687c0 16.235-6.577 30.937-17.216 41.576-7.682 7.668-17.465 13.223-28.408 15.738-26.142-5.983-45.624-29.375-45.624-57.314v-31.254c0-40.664 29.348-74.461 68.022-81.369 13.416 3.882 23.226 16.262 23.226 30.936z" fill="#f5b890"/><g fill="#eea47d"><path d="m280.085 201.757h-11.988c-4.924 0-8.915 3.991-8.915 8.915s3.991 8.915 8.915 8.915h11.988c4.924 0 8.915-3.991 8.915-8.915s-3.991-8.915-8.915-8.915z"/><path d="m263.459 115.403h15.039v92.405h-15.039z"/></g><g fill="#334353"><path d="m247.5 166.885c-4.499 0-8.147 3.648-8.147 8.147v14.22c0 4.499 3.648 8.147 8.147 8.147s8.147-3.648 8.147-8.147v-14.22c0-4.499-3.648-8.147-8.147-8.147z"/><path d="m294.456 166.885c-4.499 0-8.147 3.648-8.147 8.147v14.22c0 4.499 3.648 8.147 8.147 8.147s8.147-3.648 8.147-8.147v-14.22c0-4.499-3.647-8.147-8.147-8.147z"/></g><g><path d="m265.587 252.444c-14.114 0-25.596-11.482-25.596-25.596 0-2.671 2.165-4.836 4.836-4.836s4.836 2.165 4.836 4.836c0 8.78 7.143 15.923 15.924 15.923 2.671 0 4.836 2.165 4.836 4.836s-2.165 4.837-4.836 4.837z" fill="#c17e62"/></g></g><g><path d="m204.657 213.157h-9.912c-1.733 0-3.394-.297-4.95-.821v4.134c0 8.224 6.667 14.89 14.89 14.89z" fill="#3e4e60"/><path d="m204.681 182.127h-9.909c-1.649 0-3.208.327-4.699.804l-.249.013v-40.568c0-18.824 15.26-34.084 34.084-34.084h39.562v8.514c0 11.11-9.007 20.117-20.117 20.117-6.804 0-12.32 5.516-12.32 12.32v7.232c0 14.168-11.485 25.653-25.653 25.653l-.698.037v-.038z" fill="#3e4e60"/><path d="m329.141 124.442c0 4.232 3.431 7.663 7.663 7.663 1.823 0 3.586-.65 4.972-1.832l9.159-7.811c3.258-2.779 8.276-.463 8.276 3.819v10.805c0 15.124-12.261 27.385-27.385 27.385-6.286 0-12.314-2.497-16.759-6.942l-9.716-9.716c-6.972-6.972-16.429-10.889-26.289-10.889h-41.757c-7.906 0-14.315-6.409-14.315-14.315s6.409-14.315 14.315-14.315h75.686c8.92-.002 16.15 7.229 16.15 16.148z" fill="#3f5d77"/></g></g></g></g><g><g><g><path d="m148.431 180.355v69.71c0 2.789-1.682 5.18-4.085 6.223h-.003c-.825.356-1.733.555-2.689.555h-80.404c-.956 0-1.865-.199-2.689-.555-2.404-1.04-4.088-3.434-4.088-6.223v-69.71l46.979-47.122z" fill="#fbcb74"/><path d="m148.431 180.355v69.71c0 2.789-1.682 5.18-4.085 6.223h-.003c-2.4-1.043-4.085-3.434-4.085-6.223v-69.71c0-2.786 1.685-5.176 4.085-6.223h.003c2.403 1.043 4.085 3.438 4.085 6.223z" fill="#faefdc"/><path d="m62.646 180.355v69.71c0 2.789-1.682 5.183-4.085 6.223-2.404-1.04-4.088-3.434-4.088-6.223v-69.71c0-2.786 1.685-5.18 4.088-6.223 2.403 1.043 4.085 3.438 4.085 6.223z" fill="#deb36f"/><path d="m130.043 176.734c0 2.257-1.83 4.087-4.087 4.087h-49.009c-2.257 0-4.087-1.83-4.087-4.087s1.83-4.087 4.087-4.087h49.009c2.257 0 4.087 1.83 4.087 4.087z" fill="#fbd9a3"/></g><g><path d="m119.846 236.966h-36.787c-4.229 0-7.657-3.428-7.657-7.657v-36.787c0-4.229 3.428-7.657 7.657-7.657h36.787c4.229 0 7.657 3.428 7.657 7.657v36.787c-.001 4.229-3.429 7.657-7.657 7.657z" fill="#c4983d"/><g><g><path d="m99.934 193.681v11.389c0 .024 0 .055-.006.079-.036 2.355-1.955 4.25-4.322 4.25h-11.389c-2.392 0-4.335-1.937-4.335-4.328v-11.389c0-2.368 1.9-4.292 4.256-4.328.024-.006.055-.006.079-.006h11.389c2.392-.001 4.328 1.941 4.328 4.333z" fill="#6052a3"/><path d="m99.934 193.681v11.389c0 .024 0 .055-.006.079-.024.006-.055.006-.079.006h-5.5c-5.646 0-10.217-4.577-10.217-10.217v-5.506c0-.024 0-.055.006-.079.024-.006.055-.006.079-.006h11.389c2.392 0 4.328 1.942 4.328 4.334z" fill="#57409b"/><path d="m94.663 203.199c-1.452 0-2.63-1.177-2.63-2.63v-6.497c0-1.452 1.177-2.63 2.63-2.63 1.452 0 2.63 1.177 2.63 2.63v6.497c0 1.453-1.178 2.63-2.63 2.63z" fill="#9175a7"/></g><g><path d="m123.022 193.681v11.389c0 .024 0 .055-.006.079-.036 2.355-1.955 4.25-4.322 4.25h-11.389c-2.392 0-4.335-1.937-4.335-4.328v-11.389c0-2.368 1.9-4.292 4.256-4.328.024-.006.055-.006.079-.006h11.389c2.391-.001 4.328 1.941 4.328 4.333z" fill="#6052a3"/><path d="m123.022 193.681v11.389c0 .024 0 .055-.006.079-.024.006-.055.006-.079.006h-5.5c-5.646 0-10.217-4.577-10.217-10.217v-5.506c0-.024 0-.055.006-.079.024-.006.055-.006.079-.006h11.389c2.391 0 4.328 1.942 4.328 4.334z" fill="#57409b"/><path d="m117.75 203.199c-1.452 0-2.63-1.177-2.63-2.63v-6.497c0-1.452 1.177-2.63 2.63-2.63 1.452 0 2.63 1.177 2.63 2.63v6.497c0 1.453-1.177 2.63-2.63 2.63z" fill="#9175a7"/></g><g><path d="m99.934 216.768v11.389c0 .024 0 .055-.006.079-.036 2.355-1.955 4.25-4.322 4.25h-11.389c-2.392 0-4.335-1.937-4.335-4.328v-11.389c0-2.368 1.9-4.292 4.256-4.328.024-.006.055-.006.079-.006h11.389c2.392-.001 4.328 1.942 4.328 4.333z" fill="#6052a3"/><path d="m99.934 216.768v11.389c0 .024 0 .055-.006.079-.024.006-.055.006-.079.006h-5.5c-5.646 0-10.217-4.577-10.217-10.217v-5.506c0-.024 0-.055.006-.079.024-.006.055-.006.079-.006h11.389c2.392 0 4.328 1.943 4.328 4.334z" fill="#57409b"/><path d="m94.663 226.287c-1.452 0-2.63-1.177-2.63-2.63v-6.497c0-1.452 1.177-2.63 2.63-2.63 1.452 0 2.63 1.177 2.63 2.63v6.497c0 1.452-1.178 2.63-2.63 2.63z" fill="#9175a7"/></g><g><path d="m123.022 216.768v11.389c0 .024 0 .055-.006.079-.036 2.355-1.955 4.25-4.322 4.25h-11.389c-2.392 0-4.335-1.937-4.335-4.328v-11.389c0-2.368 1.9-4.292 4.256-4.328.024-.006.055-.006.079-.006h11.389c2.391-.001 4.328 1.942 4.328 4.333z" fill="#6052a3"/><path d="m123.022 216.768v11.389c0 .024 0 .055-.006.079-.024.006-.055.006-.079.006h-5.5c-5.646 0-10.217-4.577-10.217-10.217v-5.506c0-.024 0-.055.006-.079.024-.006.055-.006.079-.006h11.389c2.391 0 4.328 1.943 4.328 4.334z" fill="#57409b"/><path d="m117.75 226.287c-1.452 0-2.63-1.177-2.63-2.63v-6.497c0-1.452 1.177-2.63 2.63-2.63 1.452 0 2.63 1.177 2.63 2.63v6.497c0 1.452-1.177 2.63-2.63 2.63z" fill="#9175a7"/></g></g></g><g><path d="m165.558 190.557c0 1.454-.555 2.904-1.662 4.011-2.227 2.227-5.844 2.214-8.055-.029l-50.349-51.103c-2.221-2.256-5.86-2.256-8.081 0l-50.349 51.104c-1.11 1.126-2.577 1.691-4.04 1.691-1.454 0-2.908-.555-4.015-1.662-1.871-1.871-2.16-4.724-.873-6.9.237-.401.53-.78.873-1.123l58.442-58.439c2.214-2.218 5.809-2.214 8.023 0l58.423 58.439c.343.343.635.722.873 1.123.527.889.79 1.887.79 2.888z" fill="#e9465e"/><path d="m164.768 187.669c-.237.401-.53.78-.873 1.123v.003c-2.227 2.227-5.844 2.211-8.055-.032l-50.349-51.103c-2.221-2.256-5.86-2.256-8.081 0l-50.349 51.103c-1.11 1.126-2.577 1.691-4.044 1.691-1.454 0-2.904-.552-4.011-1.659-.347-.347-.635-.725-.873-1.126.237-.401.53-.78.873-1.123l58.442-58.439c2.214-2.218 5.809-2.214 8.023 0l58.423 58.439c.345.343.637.722.874 1.123z" fill="#ee6781"/><g fill="#f789a1"><path d="m61.617 169.137-.166-.163c-1.354-1.329-1.364-3.507-.023-4.849l22.024-22.023c1.324-1.324 3.469-1.334 4.805-.021 1.346 1.322 1.363 3.486.039 4.829l-21.859 22.186c-1.32 1.341-3.477 1.36-4.82.041z"/><path d="m141.289 169.137.162-.159c1.357-1.331 1.369-3.513.025-4.857l-22.011-22.017c-1.325-1.325-3.47-1.337-4.809-.025-1.351 1.324-1.371 3.493-.043 4.841l21.849 22.176c1.323 1.341 3.482 1.36 4.827.041z"/></g></g></g><g><path d="m140.157 135.95v26.851l-10.78-10.783v-16.068c0-1.502 1.216-2.718 2.715-2.718h5.35c1.499-.001 2.715 1.216 2.715 2.718z" fill="#c0405c"/><path d="m140.157 135.95v22.865l-4.342-4.345c-1.573-1.569-2.452-3.7-2.452-5.918v-12.602c0-1.502 1.216-2.718 2.715-2.718h1.364c1.499-.001 2.715 1.216 2.715 2.718z" fill="#e9465e"/></g></g><g><g><path d="m480.278 185.472v60.205c0 2.033-.545 3.941-1.495 5.582-1.237 2.145-3.172 3.843-5.492 4.772-1.286.524-2.697.81-4.171.81h-87.447c-1.481 0-2.893-.286-4.178-.81-2.32-.936-4.255-2.627-5.492-4.772-.95-1.642-1.495-3.549-1.495-5.582v-60.205c0-4.688 2.886-8.706 6.987-10.354 1.286-.524 2.697-.81 4.178-.81h87.447c1.474 0 2.886.286 4.171.81 4.095 1.649 6.987 5.659 6.987 10.354z" fill="#d48d77"/><path d="m384.482 185.472v60.205c0 4.695-2.893 8.706-6.987 10.354-4.101-1.649-6.987-5.666-6.987-10.354v-60.205c0-4.688 2.886-8.706 6.987-10.354 4.095 1.649 6.987 5.659 6.987 10.354z" fill="#c17e62"/><path d="m480.278 185.472v60.205c0 2.033-.545 3.941-1.495 5.582-1.237 2.145-3.172 3.843-5.492 4.772-2.32-.936-4.255-2.627-5.492-4.772-.95-1.642-1.495-3.549-1.495-5.582v-60.205c0-4.688 2.886-8.706 6.987-10.354 4.095 1.649 6.987 5.659 6.987 10.354z" fill="#eea47d"/><path d="m478.783 251.26c-1.928 3.34-5.534 5.582-9.663 5.582h-87.447c-1.481 0-2.893-.286-4.178-.81-2.32-.936-4.255-2.627-5.492-4.772 1.237-2.145 3.172-3.836 5.492-4.772 1.286-.524 2.697-.81 4.178-.81h87.447c4.13 0 7.735 2.243 9.663 5.582z" fill="#a26d5a"/></g><g><path d="m466.809 220.429h-82.831c-7.439 0-13.469-6.03-13.469-13.469v-6.172h109.77v6.172c-.001 7.439-6.031 13.469-13.47 13.469z" fill="#a26d5a"/><path d="m480.278 185.472v18.487c0 4.856-3.941 8.796-8.796 8.796h-92.177c-4.856 0-8.796-3.941-8.796-8.796v-18.487c0-4.688 2.886-8.706 6.987-10.354 1.286-.524 2.697-.81 4.178-.81h87.447c1.474 0 2.886.286 4.171.81 4.094 1.649 6.986 5.659 6.986 10.354z" fill="#c17e62"/><path d="m384.482 185.472v27.284h-5.177c-4.856 0-8.796-3.941-8.796-8.796v-18.487c0-4.688 2.886-8.706 6.987-10.354 4.094 1.648 6.986 5.658 6.986 10.353z" fill="#a26d5a"/><path d="m480.278 185.472v18.487c0 4.856-3.941 8.796-8.796 8.796h-5.177v-27.284c0-4.688 2.886-8.706 6.987-10.354 4.094 1.65 6.986 5.66 6.986 10.355z" fill="#d48d77"/><path d="m454.561 180.188h-58.335c-3.38 0-6.12 2.74-6.12 6.12s2.74 6.12 6.12 6.12h58.335c3.38 0 6.12-2.74 6.12-6.12s-2.74-6.12-6.12-6.12z" fill="#d48d77"/><path d="m451.292 188.048h-36.947c-2.171 0-3.93-1.76-3.93-3.93 0-2.171 1.76-3.93 3.93-3.93h36.947c2.171 0 3.93 1.76 3.93 3.93 0 2.171-1.759 3.93-3.93 3.93z" fill="#eea47d"/></g><g><g><path d="m399.133 201.717c-.79-.587-1.768-.929-2.83-.929h-7.043c-1.055 0-2.033.342-2.823.929-1.188.859-1.956 2.264-1.956 3.85v14.379c0 1.586.769 2.99 1.956 3.85.79.587 1.768.929 2.823.929h7.043c1.062 0 2.04-.342 2.83-.929 1.181-.866 1.949-2.271 1.949-3.85v-14.379c.001-1.579-.768-2.984-1.949-3.85zm-1.954 15.928c0 1.538-1.246 2.784-2.784 2.784h-3.221c-1.538 0-2.784-1.246-2.784-2.784v-9.778c0-1.538 1.246-2.784 2.784-2.784h3.221c1.538 0 2.784 1.246 2.784 2.784z" fill="#f9c744"/><path d="m401.083 205.567v14.379c0 1.579-.769 2.983-1.949 3.85-1.188-.866-1.956-2.271-1.956-3.85v-14.379c0-1.579.769-2.983 1.956-3.85 1.18.866 1.949 2.271 1.949 3.85z" fill="#fad98f"/><path d="m388.388 205.567v14.379c0 1.579-.769 2.983-1.949 3.85-1.188-.859-1.956-2.264-1.956-3.85v-14.379c0-1.586.769-2.99 1.956-3.85 1.18.866 1.949 2.271 1.949 3.85z" fill="#f39e22"/><path d="m399.133 201.717c-.79-.587-1.768-.929-2.83-.929h-4.493c.256 1.573.858 3.028 1.716 4.295h.867c1.538 0 2.784 1.246 2.784 2.784v.583c1.182.666 2.499 1.122 3.904 1.302v-4.185c.002-1.579-.767-2.984-1.948-3.85z" fill="#faefdc"/></g><g><path d="m464.355 201.717c-.79-.587-1.768-.929-2.83-.929h-7.043c-1.055 0-2.033.342-2.823.929-1.188.859-1.956 2.264-1.956 3.85v14.379c0 1.586.769 2.99 1.956 3.85.79.587 1.768.929 2.823.929h7.043c1.062 0 2.04-.342 2.83-.929 1.181-.866 1.949-2.271 1.949-3.85v-14.379c.001-1.579-.768-2.984-1.949-3.85zm-1.954 15.928c0 1.538-1.246 2.784-2.784 2.784h-3.221c-1.538 0-2.784-1.246-2.784-2.784v-9.778c0-1.538 1.246-2.784 2.784-2.784h3.221c1.538 0 2.784 1.246 2.784 2.784z" fill="#f9c744"/><path d="m466.305 205.567v14.379c0 1.579-.769 2.983-1.949 3.85-1.188-.866-1.956-2.271-1.956-3.85v-14.379c0-1.579.769-2.983 1.956-3.85 1.18.866 1.949 2.271 1.949 3.85z" fill="#fad98f"/><path d="m453.61 205.567v14.379c0 1.579-.769 2.983-1.949 3.85-1.188-.859-1.956-2.264-1.956-3.85v-14.379c0-1.586.769-2.99 1.956-3.85 1.18.866 1.949 2.271 1.949 3.85z" fill="#f39e22"/><path d="m464.355 201.717c-.79-.587-1.768-.929-2.83-.929h-4.493c.256 1.573.858 3.028 1.716 4.295h.867c1.538 0 2.784 1.246 2.784 2.784v.583c1.182.666 2.499 1.122 3.904 1.302v-4.185c.002-1.579-.767-2.984-1.948-3.85z" fill="#faefdc"/></g></g><g><path d="m449.704 163.876v10.431h-8.377v-6.637c0-3.675-2.983-6.658-6.665-6.658h-18.529c-3.682 0-6.665 2.983-6.665 6.658v6.637h-8.377v-10.431c0-1.097.175-2.152.489-3.137 1.328-4.136 5.205-7.134 9.782-7.134h28.073c4.576 0 8.454 2.997 9.782 7.134.312.985.487 2.04.487 3.137z" fill="#a26d5a"/><path d="m449.215 160.739c-1.118 3.982-4.066 7.189-7.888 8.664v-1.733c0-3.675-2.983-6.658-6.665-6.658h-18.529c-3.682 0-6.665 2.983-6.665 6.658v1.733c-1.719-.664-3.263-1.677-4.541-2.955-1.565-1.565-2.732-3.521-3.347-5.708 1.328-4.136 5.205-7.134 9.782-7.134h28.073c4.575 0 8.452 2.997 9.78 7.133z" fill="#c17e62"/><path d="m439.262 161.012h-21.54c-2.002 0-3.624-1.623-3.624-3.624v-.158c0-2.002 1.623-3.624 3.624-3.624h21.54c2.002 0 3.624 1.623 3.624 3.624v.158c0 2.001-1.623 3.624-3.624 3.624z" fill="#d48d77"/></g></g></g></svg>