<svg id="Capa_1" enable-background="new 0 0 512 512" height="512" viewBox="0 0 512 512" width="512" xmlns="http://www.w3.org/2000/svg"><g><g><path d="m297.418 304.158h-70.768l-11.069-1c-2.152 0-4.063-1.377-4.743-3.419l-8.86-25.581h108.045l-3.333 13-4.527 13.581c-.682 2.042-2.592 3.419-4.745 3.419z" fill="#f8f7f7"/><path d="m306.69 287.158h-81.547c-2.048 0-3.494 2.007-2.846 3.949l4.353 13.051h-12.065c-2.153 0-4.064-1.378-4.745-3.42l-8.86-26.58 56.28-2.817 53.76 2.817z" fill="#e8e8e8"/><path d="m433.028 244.158h-354.413l-30.53-91.695 418.35.391-25.768 77.303z" fill="#f8f7f7"/><path d="m440.67 230.158-4.67 14-175.294 4.312-184.706-4.312-30.53-91.695h14.76l25.176 75.644c.408 1.225 1.555 2.051 2.846 2.051z" fill="#e8e8e8"/><path d="m435 273.158h-358c-2.761 0-5-2.239-5-5v-18c0-2.761 2.239-5 5-5l7-1h352c2.761 0 5 2.239 5 5v12l-1 7c0 2.762-2.239 5-5 5z" fill="#b6c4cf"/><path d="m441 261.158v8c0 2.761-2.239 5-5 5h-360c-2.761 0-5-2.239-5-5v-20c0-2.761 2.239-5 5-5h8v14c0 1.657 1.343 3 3 3z" fill="#9facba"/><g fill="#e8e8e8"><path d="m295.5 214.158h-80c-2.761 0-5-2.239-5-5v-20c0-2.761 2.239-5 5-5h80c2.761 0 5 2.239 5 5v20c0 2.762-2.239 5-5 5z"/><path d="m176 214.158h-75.896c-2.152 0-4.063-1.377-4.743-3.419l-6.667-20c-1.079-3.238 1.331-6.581 4.743-6.581h82.563c2.761 0 5 2.239 5 5v20c0 2.762-2.239 5-5 5z"/><path d="m411.896 214.158h-75.896c-2.761 0-5-2.239-5-5v-20c0-2.761 2.239-5 5-5h82.563c3.413 0 5.823 3.343 4.743 6.581l-6.667 20c-.68 2.042-2.591 3.419-4.743 3.419z"/></g><path d="m445 62.158h-378v-29c0-5.523 4.477-10 10-10l4-1h107.5l7.032 1.945 7.968-1.945h15l5.739 1.945 9.261-1.945h15l7.532 1.945 7.468-1.945h15l6.289 1.945 8.711-1.945h15l6.564 1.945 8.436-1.945h112.5c5.523 0 10 4.477 10 10v15z" fill="#b6c4cf"/><path d="m446 47.158v15l-185.294 4.14-194.706-4.14v-30c0-5.523 4.477-10 10-10h5v22c0 1.657 1.343 3 3 3z" fill="#9facba"/><path d="m503.71 112.158c-.5 2.12-1.24 4.19-2.18 6.17l-10.28 21.33-5.02 7.34c-1.67 3.46-5.17 5.66-9.01 5.66h-442.44c-3.84 0-7.34-2.2-9.01-5.66l-14.3-28.67c-.94-1.98-1.68-4.05-2.18-6.17l254.21-5.156z" fill="#e8e8e8"/><path d="m504.5 72.658v32.65c0 2.31-.27 4.61-.79 6.85h-494.42c-.52-2.24-.79-4.54-.79-6.85v-31.65c0-5.52 4.48-10 10-10l3-1h473c5.52 0 10 4.48 10 10z" fill="#f8f7f7"/><path d="m491.25 139.658-4.02 8.34c-1.67 3.46-5.17 5.66-9.01 5.66h-444.44c-3.84 0-7.34-2.2-9.01-5.66l-14.3-29.67c-.94-1.98-1.68-4.05-2.18-6.17l6.98-2.954 7.77 2.954c.01.03.03.06.04.09l11.58 24.02c1 2.07 3.1 3.39 5.4 3.39z" fill="#d8d8d8"/><path d="m23.04 112.158h-14.75c-.52-2.24-.79-4.54-.79-6.85v-32.65c0-5.52 4.48-10 10-10h4v42.65c0 1.22.14 2.46.42 3.64.25 1.09.64 2.19 1.12 3.21z" fill="#e8e8e8"/></g><g><path d="m494.5 53.908h-41v-23c0-9.649-7.851-17.5-17.5-17.5h-279.298c-4.142 0-7.5 3.357-7.5 7.5s3.358 7.5 7.5 7.5h31.798v25.5h-115v-23c0-1.379 1.122-2.5 2.5-2.5h45.702c4.142 0 7.5-3.357 7.5-7.5s-3.358-7.5-7.5-7.5h-45.702c-9.649 0-17.5 7.851-17.5 17.5v23h-41c-9.649 0-17.5 7.851-17.5 17.5v32.648c0 5.603 1.286 11.232 3.718 16.28l14.298 29.669c2.899 6.016 9.087 9.902 15.765 9.902h6.646l26.482 79.447c-2.107 2.239-3.41 5.244-3.41 8.553v20c0 6.893 5.607 12.5 12.5 12.5h119.572l7.151 21.453c1.704 5.112 6.47 8.547 11.859 8.547h82.837c5.389 0 10.155-3.435 11.859-8.547l7.151-21.453h119.572c6.893 0 12.5-5.607 12.5-12.5v-20c0-3.31-1.302-6.315-3.409-8.553l26.482-79.447h6.646c6.678 0 12.866-3.887 15.765-9.902l14.298-29.669c2.433-5.048 3.718-10.678 3.718-16.28v-32.648c0-9.649-7.851-17.5-17.5-17.5zm-56-23v23h-115v-25.5h112.5c1.378 0 2.5 1.121 2.5 2.5zm-205 23v-25.5h15v25.5zm30-25.5h15v25.5h-15zm30 0h15v25.5h-15zm-90 0h15v25.5h-15zm92.117 267h-79.233l-5-15h89.233zm134.977-60h-272.153c-4.142 0-7.5 3.357-7.5 7.5s3.358 7.5 7.5 7.5h275.059v15h-355v-15h44.941c4.142 0 7.5-3.357 7.5-7.5s-3.358-7.5-7.5-7.5h-42.035l-25.167-75.5h399.521zm49.877-91.914c-.414.859-1.298 1.414-2.252 1.414h-444.438c-.954 0-1.838-.555-2.252-1.414l-12.09-25.086h252.88c4.142 0 7.5-3.357 7.5-7.5s-3.358-7.5-7.5-7.5h-257.319v-32c0-1.379 1.122-2.5 2.5-2.5h477c1.378 0 2.5 1.121 2.5 2.5v32h-189.681c-4.142 0-7.5 3.357-7.5 7.5s3.358 7.5 7.5 7.5h185.241z"/><path d="m215.5 220.408h80c6.893 0 12.5-5.607 12.5-12.5v-20c0-6.893-5.607-12.5-12.5-12.5h-80c-6.893 0-12.5 5.607-12.5 12.5v20c0 6.893 5.607 12.5 12.5 12.5zm2.5-30h75v15h-75z"/><path d="m81.579 191.861 6.667 20c1.704 5.112 6.47 8.547 11.859 8.547h75.895c6.893 0 12.5-5.607 12.5-12.5v-20c0-6.893-5.607-12.5-12.5-12.5h-82.563c-4.007 0-7.798 1.94-10.141 5.191s-2.984 7.462-1.717 11.262zm91.921-1.453v15h-71.594l-5-15z"/><path d="m336 220.408h75.896c5.389 0 10.155-3.435 11.859-8.547l6.666-19.999c1.268-3.802.626-8.012-1.717-11.263s-6.134-5.191-10.141-5.191h-82.563c-6.893 0-12.5 5.607-12.5 12.5v20c0 6.893 5.607 12.5 12.5 12.5zm2.5-30h76.594l-5 15h-71.594z"/><g><path d="m306.394 498.592c-1.309 0-2.634-.343-3.839-1.062-3.556-2.125-4.716-6.729-2.592-10.285.939-1.572 1.83-3.037 2.671-4.421 6.27-10.315 8.865-14.585 8.865-24.838 0-7.358-2.977-12.176-6.424-17.754-3.783-6.121-8.071-13.059-8.071-23.244 0-13.284 5.37-25.528 15.961-36.392 2.757-3.418 7.796-4 11.076-.999 3.457 3.124 3.159 8.468-.335 11.469-2.894 2.97-11.702 12.004-11.702 25.922 0 5.924 2.573 10.088 5.831 15.358 3.86 6.246 8.665 14.021 8.665 25.64 0 14.454-4.395 21.685-11.047 32.629-.822 1.354-1.693 2.786-2.612 4.323-1.406 2.35-3.895 3.654-6.447 3.654z"/></g><g><path d="m194.892 498.592c-1.309 0-2.634-.343-3.839-1.062-3.556-2.125-4.716-6.729-2.592-10.285.939-1.572 1.83-3.037 2.671-4.421 6.27-10.315 8.865-14.585 8.865-24.838 0-7.358-2.977-12.176-6.424-17.754-3.783-6.121-8.071-13.059-8.071-23.244 0-13.284 5.37-25.528 15.961-36.392 2.756-3.418 7.796-4.001 11.076-.999 3.457 3.124 3.159 8.468-.335 11.469-2.894 2.97-11.702 12.004-11.702 25.922 0 5.924 2.573 10.088 5.831 15.358 3.86 6.246 8.665 14.021 8.665 25.64 0 14.454-4.395 21.685-11.047 32.629-.822 1.354-1.693 2.786-2.612 4.323-1.406 2.35-3.895 3.654-6.447 3.654z"/></g><g><path d="m250.643 453.79c-1.252 0-2.522-.313-3.689-.976-6.297-3.482-3.251-10.656-.029-15.105 6.24-10.807 8.823-15.279 8.823-26.215 0-7.985-3.023-13.173-6.524-19.181-3.736-6.41-7.971-13.677-7.971-24.2 0-13.826 5.324-26.597 15.823-37.959 2.666-3.506 7.693-4.242 11.064-1.318 3.551 3.04 3.378 8.403-.048 11.499-2.928 3.169-11.839 12.812-11.839 27.778 0 6.472 2.617 10.962 5.931 16.648 4.014 6.888 8.564 14.695 8.564 26.732 0 14.955-4.31 22.419-10.833 33.716-.86 1.489-1.773 3.07-2.739 4.775-1.38 2.438-3.92 3.806-6.533 3.806z"/></g></g></g></svg>