<svg id="Icons" enable-background="new 0 0 512 512" height="512" viewBox="0 0 512 512" width="512" xmlns="http://www.w3.org/2000/svg"><g><g><circle cx="256" cy="256" fill="#e9465e" r="256"/><g><path d="m252.579 470.896c-.026 0-.053 0-.079-.001-6.809-.105-13.673-.537-20.403-1.282-2.745-.304-4.723-2.775-4.419-5.521.304-2.743 2.774-4.717 5.52-4.419 6.417.711 12.964 1.122 19.458 1.224 2.761.043 4.965 2.315 4.922 5.077-.043 2.734-2.274 4.922-4.999 4.922zm39.77-3.121c-2.385 0-4.496-1.712-4.92-4.142-.475-2.721 1.346-5.311 4.066-5.785 6.388-1.114 12.788-2.549 19.021-4.264 2.664-.731 5.415.833 6.147 3.495s-.832 5.415-3.495 6.147c-6.54 1.799-13.253 3.304-19.954 4.473-.291.052-.58.076-.865.076zm-98.755-6.286c-.492 0-.993-.073-1.487-.227-6.484-2.019-12.949-4.376-19.214-7.007-2.546-1.069-3.743-4-2.674-6.546 1.07-2.547 4.002-3.741 6.546-2.675 5.972 2.509 12.134 4.756 18.314 6.679 2.637.821 4.109 3.624 3.288 6.261-.667 2.142-2.642 3.515-4.773 3.515zm155.533-12.297c-1.841 0-3.611-1.02-4.484-2.781-1.226-2.474-.214-5.474 2.26-6.7 5.792-2.87 11.524-6.06 17.036-9.48 2.346-1.457 5.429-.734 6.885 1.611 1.457 2.346.735 5.429-1.611 6.885-5.781 3.588-11.793 6.935-17.869 9.945-.714.353-1.471.52-2.217.52zm-209.454-13.427c-.954 0-1.917-.272-2.77-.841-5.646-3.765-11.183-7.849-16.456-12.138-2.142-1.742-2.466-4.892-.724-7.034s4.891-2.466 7.034-.724c5.029 4.091 10.309 7.985 15.693 11.575 2.297 1.532 2.918 4.637 1.386 6.934-.961 1.445-2.547 2.228-4.163 2.228zm258.656-20.457c-1.347 0-2.69-.541-3.675-1.608-1.873-2.029-1.747-5.192.282-7.065 4.758-4.392 9.363-9.065 13.688-13.892 1.843-2.056 5.005-2.229 7.061-.387 2.057 1.843 2.229 5.004.387 7.061-4.535 5.06-9.363 9.961-14.352 14.565-.962.887-2.178 1.326-3.391 1.326zm-303.163-19.394c-1.426 0-2.842-.606-3.832-1.784-4.374-5.208-8.543-10.68-12.395-16.264-1.568-2.273-.996-5.388 1.278-6.955 2.272-1.567 5.387-.995 6.955 1.277 3.672 5.325 7.649 10.543 11.82 15.51 1.776 2.115 1.501 5.269-.614 7.045-.937.787-2.078 1.171-3.212 1.171zm340.878-26.935c-.876 0-1.765-.23-2.571-.716-2.367-1.422-3.132-4.494-1.71-6.86 3.338-5.555 6.446-11.331 9.237-17.171 1.19-2.492 4.177-3.549 6.667-2.354 2.492 1.19 3.546 4.176 2.355 6.667-2.928 6.125-6.188 12.185-9.688 18.009-.937 1.559-2.592 2.425-4.29 2.425zm-372.408-23.807c-1.925 0-3.76-1.118-4.583-2.995-2.725-6.223-5.18-12.65-7.297-19.105-.86-2.624.569-5.448 3.193-6.309 2.626-.859 5.449.569 6.309 3.193 2.018 6.151 4.357 12.278 6.955 18.209 1.108 2.529-.044 5.478-2.574 6.586-.652.286-1.333.421-2.003.421zm395.567-31.262c-.417 0-.839-.052-1.261-.162-2.673-.694-4.276-3.424-3.582-6.097 1.628-6.263 2.972-12.682 3.994-19.079.436-2.728 3.003-4.582 5.727-4.148 2.727.436 4.584 3 4.148 5.727-1.073 6.711-2.482 13.446-4.19 20.017-.585 2.25-2.614 3.742-4.836 3.742zm-411.453-26.319c-2.482 0-4.635-1.847-4.954-4.374-.84-6.646-1.378-13.424-1.599-20.148l-.007-.223c-.091-2.76 2.073-5.07 4.833-5.161 2.766-.102 5.07 2.072 5.162 4.833l.007.223c.211 6.415.724 12.883 1.525 19.223.346 2.739-1.594 5.241-4.333 5.588-.214.025-.426.039-.634.039zm418.068-33.051c-2.693 0-4.915-2.143-4.995-4.853l-.014-.427c-.214-6.493-.737-13.033-1.554-19.438-.35-2.739 1.588-5.243 4.327-5.593 2.74-.35 5.243 1.588 5.593 4.327.857 6.714 1.405 13.569 1.628 20.374l.015.46c.082 2.761-2.09 5.064-4.85 5.146-.05.003-.1.004-.15.004zm-417.139-26.682c-.26 0-.524-.021-.789-.062-2.728-.433-4.588-2.994-4.155-5.722 1.064-6.709 2.467-13.444 4.169-20.021.691-2.673 3.417-4.279 6.093-3.588 2.673.692 4.279 3.42 3.587 6.094-1.622 6.268-2.959 12.688-3.973 19.082-.39 2.462-2.515 4.217-4.932 4.217zm406.743-32.582c-2.101 0-4.056-1.334-4.749-3.438-2.023-6.149-4.37-12.274-6.974-18.203-1.11-2.528.039-5.479 2.567-6.589 2.53-1.109 5.479.04 6.589 2.567 2.732 6.221 5.194 12.646 7.317 19.099.863 2.622-.563 5.449-3.187 6.312-.518.171-1.045.252-1.563.252zm-389.034-24.463c-.721 0-1.454-.156-2.148-.487-2.493-1.188-3.55-4.173-2.362-6.665 2.92-6.126 6.173-12.188 9.669-18.02 1.419-2.367 4.49-3.139 6.859-1.717 2.368 1.42 3.137 4.491 1.717 6.859-3.333 5.559-6.435 11.339-9.218 17.18-.857 1.8-2.649 2.85-4.517 2.85zm362.434-29.024c-1.587 0-3.147-.753-4.118-2.157-3.682-5.326-7.664-10.54-11.836-15.495-1.779-2.113-1.508-5.267.604-7.046 2.112-1.775 5.267-1.507 7.045.604 4.375 5.197 8.552 10.664 12.413 16.251 1.57 2.271 1.001 5.386-1.271 6.956-.866.6-1.857.887-2.837.887zm-329.321-20.702c-1.187 0-2.377-.42-3.331-1.272-2.059-1.841-2.235-5.002-.394-7.061 4.529-5.065 9.353-9.971 14.336-14.581 2.027-1.873 5.191-1.752 7.066.275s1.752 5.19-.275 7.066c-4.752 4.396-9.353 9.074-13.673 13.905-.987 1.105-2.355 1.668-3.729 1.668zm288.72-23.135c-1.107 0-2.221-.365-3.148-1.117-5.033-4.085-10.317-7.974-15.706-11.56-2.299-1.53-2.923-4.634-1.393-6.933 1.529-2.299 4.633-2.922 6.932-1.394 5.651 3.761 11.192 7.838 16.469 12.12 2.144 1.74 2.472 4.89.731 7.033-.987 1.219-2.43 1.851-3.885 1.851zm-242.982-15.311c-1.67 0-3.303-.837-4.25-2.359-1.459-2.345-.741-5.428 1.604-6.887 5.773-3.593 11.781-6.945 17.859-9.965 2.475-1.229 5.475-.221 6.703 2.253 1.229 2.473.22 5.474-2.252 6.702-5.794 2.879-11.522 6.075-17.026 9.5-.823.511-1.736.756-2.638.756zm191.725-15.371c-.644 0-1.298-.125-1.929-.389-5.974-2.502-12.138-4.742-18.321-6.659-2.637-.817-4.113-3.619-3.295-6.256.818-2.638 3.616-4.117 6.257-3.295 6.486 2.011 12.953 4.361 19.221 6.985 2.547 1.066 3.748 3.996 2.681 6.543-.803 1.917-2.659 3.071-4.614 3.071zm-137.024-8.616c-2.193 0-4.205-1.454-4.817-3.67-.735-2.662.827-5.416 3.489-6.15 6.543-1.807 13.255-3.319 19.948-4.495 2.721-.468 5.312 1.34 5.79 4.06s-1.34 5.312-4.06 5.79c-6.381 1.121-12.779 2.562-19.017 4.284-.444.123-.892.181-1.333.181zm79.199-6.322c-.182 0-.366-.01-.551-.029-6.422-.704-12.969-1.108-19.459-1.203-2.761-.04-4.967-2.311-4.927-5.071s2.336-4.998 5.072-4.927c6.804.099 13.669.522 20.403 1.26 2.745.301 4.727 2.771 4.426 5.515-.281 2.56-2.447 4.455-4.964 4.455z" fill="#ee6781"/></g></g><g><g><g><path d="m296.44 268.93v143.4c0 4.84-1.3 9.39-3.56 13.3-.18.32-.37.63-.56.93-.14.22-.29.44-.44.66-.13.19-.26.38-.4.57-.33.47-.67.92-1.04 1.36-.13.17-.27.33-.41.49-.6.71-1.24 1.38-1.91 2.02-.27.25-.54.5-.82.74-.3.26-.6.52-.92.76-.83.67-1.7 1.28-2.62 1.84-.32.19-.63.38-.96.56-.48.27-.97.52-1.47.76s-1.01.46-1.52.67h-.01c-.01.01-.03.01-.04.01-.33.14-.67.27-1.01.39-.39.14-.78.27-1.18.39-.87.27-1.76.49-2.67.66-.28.06-.57.11-.85.15-.19.03-.37.06-.56.08-.34.05-.68.09-1.02.12-.36.04-.72.07-1.08.08-.19.02-.37.03-.56.03-.32.01-.65.02-.97.02h-192.96c-4.27-4.19-8.4-8.52-12.38-13-3.6-4.06-7.08-8.23-10.43-12.52-6.97-8.93-13.36-18.34-19.11-28.17v-116.3c0-11.17 6.87-20.74 16.64-24.67 3.06-1.24 6.43-1.93 9.95-1.93h208.29c3.52 0 6.88.69 9.94 1.93 9.75 3.93 16.64 13.48 16.64 24.67z" fill="#d48d77"/><path d="m68.26 268.93v143.4c0 4.97-1.36 9.62-3.74 13.59-3.6-4.06-7.08-8.23-10.43-12.52-6.97-8.93-13.36-18.34-19.11-28.17v-116.3c0-11.17 6.87-20.74 16.64-24.67 9.75 3.93 16.64 13.48 16.64 24.67z" fill="#c17e62"/><path d="m296.441 268.928v143.403c0 4.843-1.298 9.386-3.561 13.297-2.946 5.109-7.555 9.153-13.08 11.366-5.525-2.23-10.135-6.257-13.08-11.366-2.263-3.911-3.561-8.454-3.561-13.297v-143.403c0-11.167 6.873-20.736 16.642-24.663 9.75 3.927 16.64 13.479 16.64 24.663z" fill="#eea47d"/><path d="m292.88 425.63c-.18.32-.37.63-.56.93-.14.22-.29.44-.44.66-.13.19-.26.38-.4.57-.33.47-.67.92-1.04 1.36-.13.17-.27.33-.41.49-.6.71-1.24 1.38-1.91 2.02-.27.25-.54.5-.82.74-.3.26-.6.52-.92.76-.83.67-1.7 1.28-2.62 1.84-.31.2-.63.38-.96.56-.48.27-.97.52-1.47.76s-1.01.46-1.52.67h-.01c-.01.01-.03.01-.04.01-.33.14-.67.27-1.01.39-.39.14-.78.27-1.18.39-.87.27-1.76.49-2.67.66-.28.06-.57.11-.85.15-.19.03-.37.06-.56.08-.34.05-.68.09-1.02.12-.36.04-.72.07-1.08.08-.19.02-.37.03-.56.03-.32.01-.65.02-.97.02h-192.96c-4.27-4.19-8.4-8.52-12.38-13-3.6-4.06-7.08-8.23-10.43-12.52 2.37-.7 4.88-1.07 7.48-1.07h208.29c9.84 0 18.43 5.34 23.02 13.3z" fill="#a26d5a"/></g><g><path d="m264.358 352.191h-197.295c-17.719 0-32.083-14.364-32.083-32.083v-14.701h261.46v14.701c.001 17.719-14.363 32.083-32.082 32.083z" fill="#a26d5a"/><path d="m296.441 268.928v44.034c0 11.566-9.386 20.952-20.952 20.952h-219.556c-11.566 0-20.952-9.386-20.952-20.952v-44.034c0-11.167 6.873-20.736 16.642-24.663 3.062-1.248 6.424-1.931 9.952-1.931h208.29c3.511 0 6.873.682 9.935 1.931 9.751 3.927 16.641 13.479 16.641 24.663z" fill="#c17e62"/><path d="m68.264 268.928v64.986h-12.331c-11.566 0-20.952-9.386-20.952-20.952v-44.034c0-11.167 6.873-20.736 16.642-24.663 9.751 3.927 16.641 13.479 16.641 24.663z" fill="#a26d5a"/><path d="m296.441 268.928v44.034c0 11.566-9.386 20.952-20.952 20.952h-12.332v-64.986c0-11.167 6.873-20.736 16.642-24.663 9.752 3.927 16.642 13.479 16.642 24.663z" fill="#d48d77"/><path d="m235.185 256.339h-138.948c-8.051 0-14.578 6.527-14.578 14.578s6.527 14.578 14.578 14.578h138.948c8.051 0 14.578-6.527 14.578-14.578s-6.527-14.578-14.578-14.578z" fill="#d48d77"/><path d="m227.398 275.063h-88.003c-5.17 0-9.362-4.191-9.362-9.362 0-5.17 4.191-9.362 9.362-9.362h88.003c5.17 0 9.362 4.191 9.362 9.362s-4.191 9.362-9.362 9.362z" fill="#eea47d"/></g><g><g><path d="m103.162 307.62c-1.881-1.398-4.21-2.213-6.74-2.213h-16.775c-2.513 0-4.843.815-6.723 2.213-2.829 2.047-4.66 5.392-4.66 9.17v34.249c0 3.778 1.831 7.123 4.66 9.17 1.881 1.398 4.21 2.213 6.723 2.213h16.775c2.53 0 4.859-.815 6.74-2.213 2.812-2.064 4.643-5.409 4.643-9.17v-34.249c0-3.761-1.83-7.106-4.643-9.17zm-4.655 37.939c0 3.663-2.969 6.632-6.632 6.632h-7.671c-3.662 0-6.631-2.969-6.631-6.632v-23.29c0-3.662 2.969-6.631 6.631-6.631h7.671c3.663 0 6.632 2.969 6.632 6.631z" fill="#f9c744"/><path d="m107.805 316.79v34.249c0 3.761-1.831 7.106-4.643 9.17-2.829-2.064-4.66-5.409-4.66-9.17v-34.249c0-3.761 1.831-7.106 4.66-9.17 2.813 2.064 4.643 5.409 4.643 9.17z" fill="#fad98f"/><path d="m77.567 316.79v34.249c0 3.761-1.831 7.106-4.643 9.17-2.829-2.047-4.66-5.392-4.66-9.17v-34.249c0-3.778 1.831-7.123 4.66-9.17 2.812 2.064 4.643 5.409 4.643 9.17z" fill="#f39e22"/><path d="m103.162 307.62c-1.881-1.398-4.21-2.213-6.74-2.213h-10.7c.61 3.747 2.044 7.212 4.088 10.231h2.065c3.663 0 6.632 2.969 6.632 6.631v1.388c2.815 1.587 5.952 2.672 9.299 3.102v-9.968c-.001-3.762-1.831-7.107-4.644-9.171z" fill="#faefdc"/></g><g><path d="m258.514 307.62c-1.881-1.398-4.21-2.213-6.74-2.213h-16.775c-2.513 0-4.843.815-6.723 2.213-2.829 2.047-4.66 5.392-4.66 9.17v34.249c0 3.778 1.831 7.123 4.66 9.17 1.881 1.398 4.21 2.213 6.723 2.213h16.775c2.53 0 4.859-.815 6.74-2.213 2.812-2.064 4.643-5.409 4.643-9.17v-34.249c0-3.761-1.831-7.106-4.643-9.17zm-4.656 37.939c0 3.663-2.969 6.632-6.632 6.632h-7.671c-3.662 0-6.631-2.969-6.631-6.632v-23.29c0-3.662 2.969-6.631 6.631-6.631h7.671c3.663 0 6.632 2.969 6.632 6.631z" fill="#f9c744"/><path d="m263.157 316.79v34.249c0 3.761-1.831 7.106-4.643 9.17-2.829-2.064-4.66-5.409-4.66-9.17v-34.249c0-3.761 1.831-7.106 4.66-9.17 2.812 2.064 4.643 5.409 4.643 9.17z" fill="#fad98f"/><path d="m232.919 316.79v34.249c0 3.761-1.831 7.106-4.643 9.17-2.829-2.047-4.66-5.392-4.66-9.17v-34.249c0-3.778 1.831-7.123 4.66-9.17 2.812 2.064 4.643 5.409 4.643 9.17z" fill="#f39e22"/><path d="m258.514 307.62c-1.881-1.398-4.21-2.213-6.74-2.213h-10.701c.61 3.747 2.044 7.212 4.088 10.231h2.065c3.663 0 6.632 2.969 6.632 6.631v1.388c2.815 1.587 5.952 2.672 9.299 3.102v-9.968c0-3.762-1.831-7.107-4.643-9.171z" fill="#faefdc"/></g></g><g><path d="m223.616 217.488v24.846h-19.954v-15.81c0-8.754-7.106-15.86-15.876-15.86h-44.134c-8.77 0-15.876 7.106-15.876 15.86v15.81h-19.954v-24.846c0-2.613.416-5.126 1.165-7.472 3.162-9.852 12.398-16.991 23.299-16.991h66.867c10.9 0 20.137 7.139 23.299 16.991.748 2.346 1.164 4.859 1.164 7.472z" fill="#a26d5a"/><path d="m222.451 210.015c-2.663 9.486-9.686 17.124-18.789 20.636v-4.127c0-8.754-7.106-15.86-15.876-15.86h-44.134c-8.77 0-15.876 7.106-15.876 15.86v4.127c-4.094-1.581-7.772-3.994-10.817-7.04-3.728-3.728-6.507-8.387-7.972-13.596 3.162-9.852 12.398-16.991 23.299-16.991h66.867c10.9 0 20.136 7.139 23.298 16.991z" fill="#c17e62"/><path d="m198.744 210.664h-51.306c-4.767 0-8.632-3.865-8.632-8.632v-.376c0-4.767 3.865-8.632 8.632-8.632h51.306c4.767 0 8.632 3.865 8.632 8.632v.376c0 4.768-3.864 8.632-8.632 8.632z" fill="#d48d77"/></g></g><g><g id="Speech-bubble_12_"><path d="m352.127 271.908c4.569 0 9.045-2.231 11.734-6.339l45.178-69.045c4.235-6.473 2.422-15.155-4.052-19.39-6.473-4.236-15.153-2.421-19.39 4.052l-45.177 69.044c-4.235 6.473-2.422 15.155 4.052 19.39 2.364 1.547 5.026 2.288 7.655 2.288z" fill="#ebd9ea"/><path d="m478.85 129.93v35.78c0 12.34-4.18 23.69-11.2 32.74-9.77 12.58-25.04 20.67-42.2 20.67h-135.29c-17.16 0-32.43-8.09-42.19-20.67-7.03-9.05-11.21-20.4-11.21-32.74v-87.48c0-12.34 4.18-23.69 11.21-32.73 9.76-12.58 25.03-20.67 42.19-20.67h75.94c35.35 16.86 66.22 41.59 90.34 71.92 8.3 10.43 15.8 21.52 22.41 33.18z" fill="#ebd9ea"/><path d="m478.85 129.93v35.78c0 12.34-4.18 23.69-11.2 32.74-7.03-9.05-11.21-20.4-11.21-32.74v-68.96c8.3 10.43 15.8 21.52 22.41 33.18z" fill="#fff"/><path d="m259.17 78.226v87.48c0 12.34-4.18 23.69-11.2 32.74-7.03-9.05-11.21-20.4-11.21-32.74v-87.48c0-12.34 4.18-23.69 11.21-32.73 7.02 9.04 11.2 20.39 11.2 32.73z" fill="#c1b7d3"/></g><g><g><g><path d="m406.026 105.384v71.554c0 2.863-1.726 5.317-4.193 6.387h-.003c-.847.366-1.779.57-2.76.57h-82.53c-.982 0-1.914-.204-2.76-.57-2.467-1.067-4.197-3.525-4.197-6.387v-71.554l48.222-48.369z" fill="#fbcb74"/><path d="m406.026 105.384v71.554c0 2.863-1.726 5.317-4.193 6.387h-.003c-2.464-1.071-4.193-3.525-4.193-6.387v-71.554c0-2.859 1.729-5.313 4.193-6.387h.003c2.467 1.07 4.193 3.528 4.193 6.387z" fill="#faefdc"/><path d="m317.972 105.384v71.554c0 2.863-1.726 5.32-4.193 6.387-2.467-1.067-4.197-3.525-4.197-6.387v-71.554c0-2.859 1.729-5.317 4.197-6.387 2.467 1.07 4.193 3.528 4.193 6.387z" fill="#deb36f"/><path d="m387.152 101.667c0 2.317-1.878 4.195-4.195 4.195h-50.306c-2.317 0-4.195-1.878-4.195-4.195s1.878-4.195 4.195-4.195h50.306c2.317 0 4.195 1.878 4.195 4.195z" fill="#fbd9a3"/></g><g><path d="m376.685 163.493h-37.76c-4.341 0-7.859-3.519-7.859-7.859v-37.76c0-4.34 3.519-7.859 7.859-7.859h37.76c4.341 0 7.859 3.519 7.859 7.859v37.76c0 4.34-3.518 7.859-7.859 7.859z" fill="#c4983d"/><g><g><path d="m356.247 119.062v11.69c0 .025 0 .056-.006.081-.037 2.418-2.006 4.362-4.437 4.362h-11.69c-2.455 0-4.449-1.988-4.449-4.443v-11.69c0-2.43 1.95-4.406 4.368-4.443.025-.006.056-.006.081-.006h11.69c2.456 0 4.443 1.994 4.443 4.449z" fill="#6052a3"/><path d="m356.247 119.062v11.69c0 .025 0 .056-.006.081-.025.006-.056.006-.081.006h-5.646c-5.795 0-10.487-4.698-10.487-10.487v-5.652c0-.025 0-.056.006-.081.025-.006.056-.006.081-.006h11.69c2.456 0 4.443 1.994 4.443 4.449z" fill="#57409b"/><path d="m350.837 128.832c-1.491 0-2.699-1.209-2.699-2.699v-6.669c0-1.491 1.209-2.699 2.699-2.699 1.491 0 2.699 1.209 2.699 2.699v6.669c0 1.491-1.209 2.699-2.699 2.699z" fill="#9175a7"/></g><g><path d="m379.945 119.062v11.69c0 .025 0 .056-.006.081-.037 2.418-2.007 4.362-4.437 4.362h-11.69c-2.455 0-4.449-1.988-4.449-4.443v-11.69c0-2.43 1.95-4.406 4.368-4.443.025-.006.056-.006.081-.006h11.69c2.456 0 4.443 1.994 4.443 4.449z" fill="#6052a3"/><path d="m379.945 119.062v11.69c0 .025 0 .056-.006.081-.025.006-.056.006-.081.006h-5.646c-5.795 0-10.487-4.698-10.487-10.487v-5.652c0-.025 0-.056.006-.081.025-.006.056-.006.081-.006h11.69c2.456 0 4.443 1.994 4.443 4.449z" fill="#57409b"/><path d="m374.535 128.832c-1.491 0-2.699-1.209-2.699-2.699v-6.669c0-1.491 1.209-2.699 2.699-2.699 1.491 0 2.699 1.209 2.699 2.699v6.669c0 1.491-1.209 2.699-2.699 2.699z" fill="#9175a7"/></g><g><path d="m356.247 142.76v11.69c0 .025 0 .056-.006.081-.037 2.418-2.006 4.362-4.437 4.362h-11.69c-2.455 0-4.449-1.988-4.449-4.443v-11.69c0-2.43 1.95-4.406 4.368-4.443.025-.006.056-.006.081-.006h11.69c2.456 0 4.443 1.994 4.443 4.449z" fill="#6052a3"/><path d="m356.247 142.76v11.69c0 .025 0 .056-.006.081-.025.006-.056.006-.081.006h-5.646c-5.795 0-10.487-4.698-10.487-10.487v-5.652c0-.025 0-.056.006-.081.025-.006.056-.006.081-.006h11.69c2.456 0 4.443 1.994 4.443 4.449z" fill="#57409b"/><path d="m350.837 152.53c-1.491 0-2.699-1.209-2.699-2.699v-6.669c0-1.491 1.209-2.699 2.699-2.699 1.491 0 2.699 1.209 2.699 2.699v6.669c0 1.491-1.209 2.699-2.699 2.699z" fill="#9175a7"/></g><g><path d="m379.945 142.76v11.69c0 .025 0 .056-.006.081-.037 2.418-2.007 4.362-4.437 4.362h-11.69c-2.455 0-4.449-1.988-4.449-4.443v-11.69c0-2.43 1.95-4.406 4.368-4.443.025-.006.056-.006.081-.006h11.69c2.456 0 4.443 1.994 4.443 4.449z" fill="#6052a3"/><path d="m379.945 142.76v11.69c0 .025 0 .056-.006.081-.025.006-.056.006-.081.006h-5.646c-5.795 0-10.487-4.698-10.487-10.487v-5.652c0-.025 0-.056.006-.081.025-.006.056-.006.081-.006h11.69c2.456 0 4.443 1.994 4.443 4.449z" fill="#57409b"/><path d="m374.535 152.53c-1.491 0-2.699-1.209-2.699-2.699v-6.669c0-1.491 1.209-2.699 2.699-2.699 1.491 0 2.699 1.209 2.699 2.699v6.669c0 1.491-1.209 2.699-2.699 2.699z" fill="#9175a7"/></g></g></g><g><path d="m423.607 115.856c0 1.492-.57 2.981-1.706 4.118-2.286 2.286-5.999 2.273-8.268-.03l-51.681-52.455c-2.28-2.316-6.015-2.316-8.295 0l-51.681 52.455c-1.14 1.156-2.645 1.736-4.147 1.736-1.492 0-2.984-.57-4.121-1.706-1.92-1.92-2.217-4.849-.896-7.082.244-.412.544-.8.896-1.153l59.988-59.985c2.273-2.276 5.962-2.273 8.235 0l59.969 59.985c.352.352.652.741.896 1.153.541.911.811 1.936.811 2.964z" fill="#e9465e"/><path d="m422.797 112.891c-.244.412-.544.8-.896 1.153v.003c-2.286 2.286-5.999 2.27-8.268-.033l-51.681-52.455c-2.28-2.316-6.015-2.316-8.295 0l-51.681 52.455c-1.14 1.156-2.645 1.736-4.151 1.736-1.492 0-2.981-.567-4.118-1.703-.356-.356-.652-.744-.896-1.156.244-.412.544-.8.896-1.153l59.988-59.985c2.273-2.276 5.962-2.273 8.235 0l59.969 59.985c.354.353.654.741.898 1.153z" fill="#ee6781"/><g fill="#f789a1"><path d="m316.916 93.869-.17-.167c-1.39-1.364-1.4-3.6-.023-4.977l22.607-22.606c1.359-1.359 3.561-1.369 4.932-.022 1.381 1.357 1.399 3.578.04 4.957l-22.437 22.773c-1.356 1.377-3.57 1.395-4.949.042z"/><path d="m398.696 93.869.167-.163c1.393-1.366 1.405-3.606.025-4.986l-22.593-22.6c-1.36-1.36-3.562-1.372-4.936-.026-1.387 1.359-1.407 3.586-.044 4.969l22.427 22.763c1.357 1.377 3.573 1.396 4.954.043z"/></g></g></g><g><path d="m397.534 59.804v27.562l-11.065-11.068v-16.494c0-1.542 1.248-2.79 2.787-2.79h5.491c1.539 0 2.787 1.248 2.787 2.79z" fill="#c0405c"/><path d="m397.534 59.804v23.47l-4.457-4.46c-1.614-1.611-2.517-3.798-2.517-6.074v-12.936c0-1.542 1.248-2.79 2.787-2.79h1.4c1.539 0 2.787 1.248 2.787 2.79z" fill="#e9465e"/></g></g></g></g></g></svg>