<svg id="Icons" enable-background="new 0 0 512 512" height="512" viewBox="0 0 512 512" width="512" xmlns="http://www.w3.org/2000/svg"><g><circle cx="256" cy="256" fill="#6052a3" r="256"/><g><g><g><path d="m348.247 214.355v90.009c0 1.958-.335 3.843-.954 5.59-2.302 6.557-8.543 11.253-15.884 11.253h-148.814c-7.337 0-13.582-4.691-15.889-11.244-.619-1.752-.954-3.636-.954-5.599v-122.543c0-.647.046-1.284.142-1.903.917-6.291 6.337-11.124 12.885-11.124h43.461c6.548 0 11.968 4.833 12.885 11.124.096.619.142 1.256.142 1.903v15.692h96.14c9.302-.001 16.84 7.538 16.84 16.842z" fill="#dd8c29"/><path d="m347.293 309.954c-2.302 6.557-8.543 11.253-15.884 11.253h-148.814c-7.337 0-13.582-4.691-15.889-11.244.619-1.477 1.518-2.802 2.632-3.911 2.21-2.215 5.273-3.586 8.648-3.586h158.026c5.077 0 9.424 3.09 11.281 7.488z" fill="#c68132"/><path d="m348.247 214.355v79.733c-73.634-8.547-134.754-58.135-159.878-125.295h33.873c7.195 0 13.027 5.833 13.027 13.027v15.692h96.14c9.3 0 16.838 7.539 16.838 16.843z" fill="#f39e22"/><g fill="#f9c744"><path d="m324.311 216.688h-79.454c-5.295 0-9.588-4.293-9.588-9.588s4.293-9.588 9.588-9.588h79.454c5.295 0 9.588 4.293 9.588 9.588s-4.293 9.588-9.588 9.588z"/><path d="m235.127 179.918c-.697 3.733-3.971 6.557-7.905 6.557h-53.422c-3.934 0-7.208-2.825-7.905-6.557.917-6.291 6.337-11.124 12.885-11.124h43.461c6.549-.001 11.969 4.832 12.886 11.124z"/></g></g><g><g><path d="m295 248.334c-3.261-3.636-8.018-5.925-13.287-5.925-2.491 0-4.863.51-7.015 1.438-1.59.679-3.058 1.588-4.372 2.678-.154-3.998-1.223-7.759-2.997-11.087l1.961.367-5.788-5.755c-.501-.543-1.025-1.063-1.57-1.561l-.036-.036v.003c-4.712-4.286-11.016-6.852-17.924-6.701-13.763.301-24.979 11.574-25.215 25.338-.002.091-.003.181-.003.271-.026 3.761-2.977 6.843-6.737 6.969-.111.004-.223.009-.335.014-8.95.465-16.252 7.663-16.83 16.606-.449 6.949 3.088 13.111 8.55 16.424 2.69 1.633 5.848 2.573 9.227 2.573h93.361c7.121 0 13.106-5.643 13.197-12.764.027-2.153-.47-4.186-1.375-5.98-2.128-4.226-6.505-7.122-11.559-7.122-.214 0-.426.005-.637.017-2.78.134-5.328 1.147-7.376 2.767.829-2.056 1.289-4.298 1.289-6.649 0-2.499-.516-4.878-1.446-7.036l2.024.252z" fill="#decee5"/></g><g><path d="m319.166 277.769c-.388 6.885-6.268 12.183-13.165 12.183h-93.373c-3.379 0-6.537-.941-9.227-2.573-1.713-2.818-2.664-6.15-2.569-9.712.247-9.301 7.779-16.942 17.076-17.316.118-.005.236-.008.353-.011 3.819-.08 6.817-3.187 6.907-7.006.007-.282.018-.565.034-.848.721-12.961 11.17-23.481 24.126-24.279 6.106-.376 11.791 1.374 16.384 4.586 3.944 2.75 7.08 6.577 8.986 11.054.012.027.023.054.035.082 1.604 3.795 5.623 5.899 9.66 5.078 1.151-.234 2.342-.357 3.561-.357 3.32 0 6.425.908 9.086 2.489 4.586 2.722 7.844 7.446 8.576 12.965.102.771.154 1.56.154 2.362 0 .052 0 .104-.001.156-.019 2.16 1.906 3.763 4.034 3.398.714-.123 1.448-.187 2.198-.187 2.09 0 4.064.495 5.811 1.376.985 1.954 1.487 4.192 1.354 6.56z" fill="#f9eaf9"/></g><g><g><path d="m267.808 253.276c-1.705 0-3.364-.883-4.281-2.464-1.962-3.383-5.124-5.8-8.903-6.806-3.78-1.007-7.725-.479-11.108 1.483-2.362 1.369-5.386.565-6.755-1.797-1.369-2.361-.565-5.386 1.797-6.755 5.668-3.286 12.276-4.168 18.608-2.485 6.331 1.684 11.628 5.733 14.914 11.401 1.369 2.361.565 5.386-1.797 6.755-.781.453-1.634.668-2.475.668z" fill="#fff"/></g><g><path d="m240.575 279.248c-1.224 0-2.449-.451-3.406-1.362-1.978-1.881-2.056-5.01-.175-6.988 4.516-4.747 10.609-7.451 17.159-7.615 6.553-.151 12.771 2.233 17.518 6.749 1.978 1.881 2.056 5.01.174 6.988-1.881 1.978-5.01 2.056-6.988.175-2.833-2.696-6.549-4.128-10.457-4.029-3.91.098-7.547 1.712-10.243 4.546-.971 1.021-2.275 1.536-3.582 1.536z" fill="#fff"/></g><g><path d="m297.877 272.698c-2.188 0-4.188-1.464-4.775-3.678-1.079-4.072-5.047-6.567-8.849-5.56-2.638.699-5.345-.874-6.044-3.513s.874-5.344 3.512-6.043c9.068-2.403 18.461 3.243 20.936 12.584.699 2.639-.873 5.345-3.512 6.044-.422.113-.849.166-1.268.166z" fill="#fff"/></g><g><path d="m210.155 284.943c-.128 0-.257-.005-.386-.015-2.722-.21-4.757-2.587-4.547-5.309.353-4.57 2.528-8.713 6.123-11.666 3.536-2.904 8.032-4.306 12.661-3.948 2.722.21 4.758 2.587 4.547 5.309-.21 2.722-2.586 4.761-5.309 4.547-2.074-.159-4.071.455-5.626 1.732-1.495 1.228-2.397 2.928-2.541 4.788-.2 2.592-2.365 4.562-4.922 4.562z" fill="#fff"/></g></g></g></g><g><g><g><g><g><path d="m111.992 246.652v57.729c0 2.309-1.393 4.289-3.383 5.153h-.003c-.683.295-1.435.46-2.227.46h-66.584c-.792 0-1.544-.165-2.227-.46-1.991-.861-3.386-2.844-3.386-5.153v-57.729l38.905-39.023z" fill="#fbcb74"/><path d="m111.992 246.652v57.729c0 2.309-1.393 4.289-3.383 5.153h-.003c-1.988-.864-3.383-2.844-3.383-5.153v-57.729c0-2.307 1.395-4.287 3.383-5.153h.003c1.99.863 3.383 2.846 3.383 5.153z" fill="#faefdc"/><path d="m40.951 246.652v57.729c0 2.309-1.393 4.292-3.383 5.153-1.991-.861-3.386-2.844-3.386-5.153v-57.729c0-2.307 1.395-4.289 3.386-5.153 1.991.863 3.383 2.846 3.383 5.153z" fill="#deb36f"/><path d="m96.765 243.653c0 1.869-1.515 3.384-3.384 3.384h-40.587c-1.869 0-3.384-1.515-3.384-3.384s1.515-3.384 3.384-3.384h40.586c1.869-.001 3.385 1.515 3.385 3.384z" fill="#fbd9a3"/><path d="m101.717 247.037h-57.26c-1.936 0-3.506 1.57-3.506 3.506v49.947c0 1.936 1.57 3.506 3.506 3.506h57.26c1.936 0 3.506-1.569 3.506-3.506v-49.947c0-1.936-1.57-3.506-3.506-3.506z" fill="#c0405c"/></g><g><path d="m126.176 255.1c0 1.204-.46 2.405-1.377 3.322-1.844 1.844-4.84 1.834-6.671-.024l-41.695-42.32c-1.839-1.868-4.853-1.868-6.692 0l-41.695 42.32c-.92.933-2.134 1.401-3.346 1.401-1.204 0-2.408-.46-3.325-1.377-1.549-1.549-1.789-3.912-.723-5.714.197-.332.438-.646.723-.93l48.398-48.395c1.834-1.836 4.81-1.834 6.644 0l48.382 48.395c.284.284.526.598.723.93.436.737.654 1.563.654 2.392z" fill="#e9465e"/><path d="m125.522 252.708c-.197.332-.438.646-.723.93v.003c-1.844 1.844-4.84 1.831-6.671-.027l-41.695-42.32c-1.839-1.868-4.853-1.868-6.692 0l-41.695 42.32c-.92.933-2.134 1.401-3.349 1.401-1.204 0-2.405-.457-3.322-1.374-.287-.287-.526-.601-.723-.933.197-.332.438-.646.723-.93l48.398-48.395c1.834-1.836 4.81-1.834 6.644 0l48.382 48.395c.284.285.526.598.723.93z" fill="#ee6781"/><g fill="#f789a1"><path d="m40.099 237.362-.137-.135c-1.121-1.101-1.13-2.904-.019-4.015l18.239-18.238c1.097-1.097 2.873-1.105 3.979-.018 1.114 1.095 1.129 2.886.033 3.999l-18.102 18.373c-1.094 1.111-2.88 1.126-3.993.034z"/><path d="m106.078 237.361.134-.132c1.124-1.102 1.133-2.909.02-4.023l-18.228-18.233c-1.097-1.098-2.874-1.107-3.982-.021-1.119 1.096-1.135 2.893-.036 4.009l18.094 18.365c1.096 1.112 2.884 1.128 3.998.035z"/></g></g></g><g><path d="m105.141 209.878v22.236l-8.927-8.93v-13.307c0-1.244 1.007-2.251 2.248-2.251h4.43c1.241.001 2.249 1.009 2.249 2.252z" fill="#c0405c"/><path d="m105.141 209.878v18.935l-3.596-3.598c-1.302-1.3-2.03-3.064-2.03-4.901v-10.436c0-1.244 1.007-2.251 2.248-2.251h1.129c1.241 0 2.249 1.008 2.249 2.251z" fill="#e9465e"/></g></g><g><g><path d="m96.977 265.553v26.205c0 .885-.237 1.715-.651 2.43-.538.934-1.381 1.673-2.39 2.077-.56.228-1.174.353-1.816.353h-38.062c-.645 0-1.259-.125-1.819-.353-1.01-.408-1.852-1.143-2.39-2.077-.414-.715-.651-1.545-.651-2.43v-26.205c0-2.041 1.256-3.789 3.041-4.507.56-.228 1.174-.353 1.819-.353h38.062c.642 0 1.256.125 1.816.353 1.782.718 3.041 2.463 3.041 4.507z" fill="#d48d77"/><path d="m55.281 265.553v26.205c0 2.044-1.259 3.789-3.041 4.507-1.785-.718-3.041-2.466-3.041-4.507v-26.205c0-2.041 1.256-3.789 3.041-4.507 1.782.718 3.041 2.463 3.041 4.507z" fill="#c17e62"/><path d="m96.977 265.553v26.205c0 .885-.237 1.715-.651 2.43-.538.934-1.381 1.673-2.39 2.077-1.01-.408-1.852-1.143-2.39-2.077-.414-.715-.651-1.545-.651-2.43v-26.205c0-2.041 1.256-3.789 3.041-4.507 1.782.718 3.041 2.463 3.041 4.507z" fill="#eea47d"/><path d="m96.326 294.187c-.839 1.454-2.409 2.43-4.206 2.43h-38.062c-.645 0-1.259-.125-1.819-.353-1.01-.408-1.852-1.143-2.39-2.077.538-.934 1.381-1.67 2.39-2.077.56-.228 1.174-.353 1.819-.353h38.062c1.798.001 3.367.977 4.206 2.43z" fill="#a26d5a"/></g><g><path d="m91.114 280.768h-36.053c-3.238 0-5.863-2.625-5.863-5.863v-2.686h47.778v2.686c.001 3.238-2.624 5.863-5.862 5.863z" fill="#a26d5a"/><path d="m96.977 265.553v8.047c0 2.114-1.715 3.829-3.829 3.829h-40.121c-2.114 0-3.829-1.715-3.829-3.829v-8.047c0-2.041 1.256-3.789 3.041-4.507.56-.228 1.174-.353 1.819-.353h38.062c.642 0 1.256.125 1.816.353 1.782.718 3.041 2.463 3.041 4.507z" fill="#c17e62"/><path d="m55.281 265.553v11.875h-2.253c-2.114 0-3.829-1.715-3.829-3.829v-8.047c0-2.041 1.256-3.789 3.041-4.507 1.782.719 3.041 2.464 3.041 4.508z" fill="#a26d5a"/><path d="m96.977 265.553v8.047c0 2.114-1.715 3.829-3.829 3.829h-2.253v-11.875c0-2.041 1.256-3.789 3.041-4.507 1.782.717 3.041 2.462 3.041 4.506z" fill="#d48d77"/><path d="m85.783 263.253h-25.391c-1.471 0-2.664 1.193-2.664 2.664s1.193 2.664 2.664 2.664h25.391c1.471 0 2.664-1.193 2.664-2.664 0-1.472-1.193-2.664-2.664-2.664z" fill="#d48d77"/><path d="m84.36 266.674h-16.081c-.945 0-1.711-.766-1.711-1.711s.766-1.711 1.711-1.711h16.081c.945 0 1.711.766 1.711 1.711s-.766 1.711-1.711 1.711z" fill="#eea47d"/></g><g><g><path d="m61.658 272.623c-.344-.255-.769-.404-1.232-.404h-3.065c-.459 0-.885.149-1.229.404-.517.374-.851.985-.851 1.676v6.258c0 .69.335 1.302.851 1.676.344.255.769.404 1.229.404h3.065c.462 0 .888-.149 1.232-.404.514-.377.848-.988.848-1.676v-6.258c0-.687-.334-1.299-.848-1.676zm-.851 6.933c0 .669-.543 1.212-1.212 1.212h-1.402c-.669 0-1.212-.543-1.212-1.212v-4.256c0-.669.543-1.212 1.212-1.212h1.402c.669 0 1.212.543 1.212 1.212z" fill="#f9c744"/><path d="m62.506 274.299v6.258c0 .687-.335 1.299-.848 1.676-.517-.377-.851-.988-.851-1.676v-6.258c0-.687.335-1.299.851-1.676.514.377.848.989.848 1.676z" fill="#fad98f"/><path d="m56.981 274.299v6.258c0 .687-.335 1.299-.848 1.676-.517-.374-.851-.985-.851-1.676v-6.258c0-.69.335-1.302.851-1.676.513.377.848.989.848 1.676z" fill="#f39e22"/><path d="m61.658 272.623c-.344-.255-.769-.404-1.232-.404h-1.955c.111.685.374 1.318.747 1.87h.377c.669 0 1.212.543 1.212 1.212v.254c.514.29 1.088.488 1.699.567v-1.822c0-.688-.334-1.3-.848-1.677z" fill="#faefdc"/></g><g><path d="m90.046 272.623c-.344-.255-.769-.404-1.232-.404h-3.065c-.459 0-.885.149-1.229.404-.517.374-.851.985-.851 1.676v6.258c0 .69.335 1.302.851 1.676.344.255.769.404 1.229.404h3.065c.462 0 .888-.149 1.232-.404.514-.377.848-.988.848-1.676v-6.258c.001-.687-.334-1.299-.848-1.676zm-.85 6.933c0 .669-.543 1.212-1.212 1.212h-1.402c-.669 0-1.212-.543-1.212-1.212v-4.256c0-.669.543-1.212 1.212-1.212h1.402c.669 0 1.212.543 1.212 1.212z" fill="#f9c744"/><path d="m90.895 274.299v6.258c0 .687-.335 1.299-.848 1.676-.517-.377-.851-.988-.851-1.676v-6.258c0-.687.335-1.299.851-1.676.513.377.848.989.848 1.676z" fill="#fad98f"/><path d="m85.369 274.299v6.258c0 .687-.335 1.299-.848 1.676-.517-.374-.851-.985-.851-1.676v-6.258c0-.69.335-1.302.851-1.676.514.377.848.989.848 1.676z" fill="#f39e22"/><path d="m90.046 272.623c-.344-.255-.769-.404-1.232-.404h-1.955c.111.685.374 1.318.747 1.87h.377c.669 0 1.212.543 1.212 1.212v.254c.514.29 1.088.488 1.699.567v-1.822c.001-.688-.334-1.3-.848-1.677z" fill="#faefdc"/></g></g><g><path d="m83.669 256.153v4.54h-3.646v-2.889c0-1.6-1.299-2.898-2.901-2.898h-8.065c-1.603 0-2.901 1.299-2.901 2.898v2.889h-3.646v-4.54c0-.477.076-.937.213-1.365.578-1.8 2.266-3.105 4.257-3.105h12.219c1.992 0 3.68 1.305 4.257 3.105.137.428.213.887.213 1.365z" fill="#a26d5a"/><path d="m83.456 254.787c-.487 1.733-1.77 3.129-3.433 3.771v-.754c0-1.6-1.299-2.898-2.901-2.898h-8.065c-1.603 0-2.901 1.299-2.901 2.898v.754c-.748-.289-1.42-.73-1.977-1.286-.681-.681-1.189-1.533-1.457-2.485.578-1.8 2.266-3.105 4.257-3.105h12.219c1.993.001 3.68 1.305 4.258 3.105z" fill="#c17e62"/><path d="m79.124 254.906h-9.375c-.871 0-1.577-.706-1.577-1.577v-.069c0-.871.706-1.577 1.577-1.577h9.375c.871 0 1.577.706 1.577 1.577v.069c.001.871-.706 1.577-1.577 1.577z" fill="#d48d77"/></g></g></g><g><g><g><g><path d="m477.816 246.652v57.729c0 2.309-1.393 4.289-3.383 5.153h-.003c-.683.295-1.435.46-2.227.46h-66.583c-.792 0-1.544-.165-2.227-.46-1.991-.861-3.386-2.844-3.386-5.153v-57.729l38.905-39.023z" fill="#fbcb74"/><path d="m477.816 246.652v57.729c0 2.309-1.393 4.289-3.383 5.153h-.003c-1.988-.864-3.383-2.844-3.383-5.153v-57.729c0-2.307 1.395-4.287 3.383-5.153h.003c1.991.863 3.383 2.846 3.383 5.153z" fill="#faefdc"/><path d="m406.776 246.652v57.729c0 2.309-1.393 4.292-3.383 5.153-1.991-.861-3.386-2.844-3.386-5.153v-57.729c0-2.307 1.395-4.289 3.386-5.153 1.99.863 3.383 2.846 3.383 5.153z" fill="#deb36f"/><path d="m462.589 243.653c0 1.869-1.515 3.384-3.384 3.384h-40.586c-1.869 0-3.384-1.515-3.384-3.384s1.515-3.384 3.384-3.384h40.586c1.869-.001 3.384 1.515 3.384 3.384z" fill="#fbd9a3"/><path d="m467.542 247.037h-57.26c-1.936 0-3.506 1.57-3.506 3.506v49.947c0 1.936 1.569 3.506 3.506 3.506h57.26c1.936 0 3.506-1.569 3.506-3.506v-49.947c-.001-1.936-1.57-3.506-3.506-3.506z" fill="#c0405c"/></g><g><path d="m385.824 255.1c0 1.204.46 2.405 1.377 3.322 1.844 1.844 4.84 1.834 6.671-.024l41.695-42.32c1.839-1.868 4.853-1.868 6.692 0l41.695 42.32c.92.933 2.134 1.401 3.346 1.401 1.204 0 2.408-.46 3.325-1.377 1.549-1.549 1.789-3.912.723-5.714-.197-.332-.439-.646-.723-.93l-48.398-48.395c-1.834-1.836-4.81-1.834-6.644 0l-48.382 48.395c-.284.284-.526.598-.723.93-.436.737-.654 1.563-.654 2.392z" fill="#e9465e"/><path d="m386.478 252.708c.197.332.438.646.723.93v.003c1.844 1.844 4.84 1.831 6.671-.027l41.695-42.32c1.839-1.868 4.853-1.868 6.692 0l41.695 42.32c.92.933 2.134 1.401 3.349 1.401 1.204 0 2.405-.457 3.322-1.374.287-.287.526-.601.723-.933-.197-.332-.439-.646-.723-.93l-48.398-48.395c-1.834-1.836-4.81-1.834-6.644 0l-48.382 48.395c-.284.285-.526.598-.723.93z" fill="#ee6781"/><g fill="#f789a1"><path d="m471.901 237.362.137-.135c1.121-1.101 1.13-2.904.019-4.015l-18.239-18.238c-1.097-1.097-2.873-1.105-3.979-.018-1.114 1.095-1.129 2.886-.033 3.999l18.102 18.373c1.094 1.111 2.88 1.126 3.993.034z"/><path d="m405.922 237.361-.134-.132c-1.124-1.102-1.133-2.909-.02-4.023l18.228-18.233c1.097-1.098 2.874-1.107 3.982-.021 1.119 1.096 1.135 2.893.036 4.009l-18.094 18.365c-1.096 1.112-2.884 1.128-3.998.035z"/></g></g></g><g><path d="m406.859 209.878v22.236l8.927-8.93v-13.307c0-1.244-1.007-2.251-2.248-2.251h-4.43c-1.241.001-2.249 1.009-2.249 2.252z" fill="#c0405c"/><path d="m406.859 209.878v18.935l3.596-3.598c1.302-1.3 2.03-3.064 2.03-4.901v-10.436c0-1.244-1.007-2.251-2.248-2.251h-1.129c-1.241 0-2.249 1.008-2.249 2.251z" fill="#e9465e"/></g></g><g><g><path d="m462.801 265.553v26.205c0 .885-.237 1.715-.651 2.43-.538.934-1.381 1.673-2.39 2.077-.56.228-1.174.353-1.815.353h-38.062c-.645 0-1.259-.125-1.819-.353-1.01-.408-1.852-1.143-2.39-2.077-.414-.715-.651-1.545-.651-2.43v-26.205c0-2.041 1.256-3.789 3.041-4.507.56-.228 1.174-.353 1.819-.353h38.062c.642 0 1.256.125 1.815.353 1.782.718 3.041 2.463 3.041 4.507z" fill="#d48d77"/><path d="m421.105 265.553v26.205c0 2.044-1.259 3.789-3.041 4.507-1.785-.718-3.041-2.466-3.041-4.507v-26.205c0-2.041 1.256-3.789 3.041-4.507 1.782.718 3.041 2.463 3.041 4.507z" fill="#c17e62"/><path d="m462.801 265.553v26.205c0 .885-.237 1.715-.651 2.43-.538.934-1.381 1.673-2.39 2.077-1.01-.408-1.852-1.143-2.39-2.077-.414-.715-.651-1.545-.651-2.43v-26.205c0-2.041 1.256-3.789 3.041-4.507 1.782.718 3.041 2.463 3.041 4.507z" fill="#eea47d"/><path d="m462.15 294.187c-.839 1.454-2.409 2.43-4.206 2.43h-38.062c-.645 0-1.259-.125-1.819-.353-1.01-.408-1.852-1.143-2.39-2.077.538-.934 1.381-1.67 2.39-2.077.56-.228 1.174-.353 1.819-.353h38.062c1.798.001 3.367.977 4.206 2.43z" fill="#a26d5a"/></g><g><path d="m456.939 280.768h-36.053c-3.238 0-5.863-2.625-5.863-5.863v-2.686h47.778v2.686c0 3.238-2.625 5.863-5.862 5.863z" fill="#a26d5a"/><path d="m462.801 265.553v8.047c0 2.114-1.715 3.829-3.829 3.829h-40.121c-2.114 0-3.829-1.715-3.829-3.829v-8.047c0-2.041 1.256-3.789 3.041-4.507.56-.228 1.174-.353 1.819-.353h38.062c.642 0 1.256.125 1.815.353 1.783.718 3.042 2.463 3.042 4.507z" fill="#c17e62"/><path d="m421.105 265.553v11.875h-2.253c-2.114 0-3.829-1.715-3.829-3.829v-8.047c0-2.041 1.256-3.789 3.041-4.507 1.782.719 3.041 2.464 3.041 4.508z" fill="#a26d5a"/><path d="m462.801 265.553v8.047c0 2.114-1.715 3.829-3.829 3.829h-2.253v-11.875c0-2.041 1.256-3.789 3.041-4.507 1.782.717 3.041 2.462 3.041 4.506z" fill="#d48d77"/><path d="m451.608 263.253h-25.391c-1.471 0-2.664 1.193-2.664 2.664s1.193 2.664 2.664 2.664h25.391c1.471 0 2.664-1.193 2.664-2.664 0-1.472-1.193-2.664-2.664-2.664z" fill="#d48d77"/><path d="m450.185 266.674h-16.081c-.945 0-1.711-.766-1.711-1.711s.766-1.711 1.711-1.711h16.081c.945 0 1.711.766 1.711 1.711-.001.945-.766 1.711-1.711 1.711z" fill="#eea47d"/></g><g><g><path d="m427.482 272.623c-.344-.255-.769-.404-1.232-.404h-3.065c-.459 0-.885.149-1.229.404-.517.374-.852.985-.852 1.676v6.258c0 .69.335 1.302.852 1.676.344.255.769.404 1.229.404h3.065c.462 0 .888-.149 1.232-.404.514-.377.848-.988.848-1.676v-6.258c.001-.687-.334-1.299-.848-1.676zm-.85 6.933c0 .669-.543 1.212-1.212 1.212h-1.402c-.669 0-1.212-.543-1.212-1.212v-4.256c0-.669.543-1.212 1.212-1.212h1.402c.669 0 1.212.543 1.212 1.212z" fill="#f9c744"/><path d="m428.331 274.299v6.258c0 .687-.335 1.299-.848 1.676-.517-.377-.852-.988-.852-1.676v-6.258c0-.687.335-1.299.852-1.676.513.377.848.989.848 1.676z" fill="#fad98f"/><path d="m422.805 274.299v6.258c0 .687-.335 1.299-.848 1.676-.517-.374-.852-.985-.852-1.676v-6.258c0-.69.335-1.302.852-1.676.514.377.848.989.848 1.676z" fill="#f39e22"/><path d="m427.482 272.623c-.344-.255-.769-.404-1.232-.404h-1.955c.111.685.374 1.318.747 1.87h.377c.669 0 1.212.543 1.212 1.212v.254c.514.29 1.088.488 1.699.567v-1.822c.001-.688-.334-1.3-.848-1.677z" fill="#faefdc"/></g><g><path d="m455.871 272.623c-.344-.255-.769-.404-1.232-.404h-3.065c-.459 0-.885.149-1.229.404-.517.374-.852.985-.852 1.676v6.258c0 .69.335 1.302.852 1.676.344.255.769.404 1.229.404h3.065c.462 0 .888-.149 1.232-.404.514-.377.848-.988.848-1.676v-6.258c0-.687-.334-1.299-.848-1.676zm-.851 6.933c0 .669-.543 1.212-1.212 1.212h-1.402c-.669 0-1.212-.543-1.212-1.212v-4.256c0-.669.543-1.212 1.212-1.212h1.402c.669 0 1.212.543 1.212 1.212z" fill="#f9c744"/><path d="m456.719 274.299v6.258c0 .687-.335 1.299-.848 1.676-.517-.377-.852-.988-.852-1.676v-6.258c0-.687.335-1.299.852-1.676.514.377.848.989.848 1.676z" fill="#fad98f"/><path d="m451.194 274.299v6.258c0 .687-.335 1.299-.848 1.676-.517-.374-.852-.985-.852-1.676v-6.258c0-.69.335-1.302.852-1.676.513.377.848.989.848 1.676z" fill="#f39e22"/><path d="m455.871 272.623c-.344-.255-.769-.404-1.232-.404h-1.955c.111.685.374 1.318.747 1.87h.377c.669 0 1.212.543 1.212 1.212v.254c.514.29 1.088.488 1.699.567v-1.822c0-.688-.334-1.3-.848-1.677z" fill="#faefdc"/></g></g><g><path d="m449.494 256.153v4.54h-3.646v-2.889c0-1.6-1.299-2.898-2.901-2.898h-8.065c-1.603 0-2.901 1.299-2.901 2.898v2.889h-3.646v-4.54c0-.477.076-.937.213-1.365.578-1.8 2.266-3.105 4.257-3.105h12.219c1.992 0 3.68 1.305 4.257 3.105.137.428.213.887.213 1.365z" fill="#a26d5a"/><path d="m449.281 254.787c-.487 1.733-1.77 3.129-3.433 3.771v-.754c0-1.6-1.299-2.898-2.901-2.898h-8.065c-1.603 0-2.901 1.299-2.901 2.898v.754c-.748-.289-1.42-.73-1.977-1.286-.681-.681-1.189-1.533-1.457-2.485.578-1.8 2.266-3.105 4.257-3.105h12.219c1.992.001 3.68 1.305 4.258 3.105z" fill="#c17e62"/><path d="m444.949 254.906h-9.375c-.871 0-1.577-.706-1.577-1.577v-.069c0-.871.706-1.577 1.577-1.577h9.375c.871 0 1.577.706 1.577 1.577v.069c0 .871-.706 1.577-1.577 1.577z" fill="#d48d77"/></g></g></g><g><g><g><g><path d="m294.904 74.645v57.729c0 2.309-1.393 4.289-3.383 5.153h-.003c-.683.295-1.435.46-2.227.46h-66.584c-.792 0-1.544-.165-2.227-.46-1.991-.861-3.386-2.844-3.386-5.153v-57.729l38.905-39.023z" fill="#fbcb74"/><path d="m294.904 74.645v57.729c0 2.309-1.393 4.289-3.383 5.153h-.003c-1.988-.864-3.383-2.844-3.383-5.153v-57.729c0-2.307 1.395-4.287 3.383-5.153h.003c1.991.864 3.383 2.846 3.383 5.153z" fill="#faefdc"/><path d="m223.863 74.645v57.729c0 2.309-1.393 4.292-3.383 5.153-1.991-.861-3.386-2.844-3.386-5.153v-57.729c0-2.307 1.395-4.289 3.386-5.153 1.991.864 3.383 2.846 3.383 5.153z" fill="#deb36f"/><path d="m279.677 71.646c0 1.869-1.515 3.384-3.384 3.384h-40.586c-1.869 0-3.384-1.515-3.384-3.384s1.515-3.384 3.384-3.384h40.586c1.868 0 3.384 1.515 3.384 3.384z" fill="#fbd9a3"/><path d="m284.63 75.031h-57.26c-1.936 0-3.506 1.57-3.506 3.506v49.947c0 1.936 1.57 3.506 3.506 3.506h57.26c1.936 0 3.506-1.569 3.506-3.506v-49.948c-.001-1.936-1.57-3.505-3.506-3.505z" fill="#c0405c"/></g><g><path d="m309.088 83.093c0 1.204-.46 2.405-1.377 3.322-1.844 1.844-4.84 1.834-6.671-.024l-41.695-42.32c-1.839-1.868-4.853-1.868-6.692 0l-41.695 42.32c-.92.933-2.134 1.401-3.346 1.401-1.204 0-2.408-.46-3.325-1.377-1.549-1.549-1.789-3.912-.723-5.714.197-.332.438-.646.723-.93l48.398-48.395c1.834-1.836 4.81-1.834 6.644 0l48.382 48.395c.284.284.526.598.723.93.436.737.654 1.563.654 2.392z" fill="#e9465e"/><path d="m308.434 80.702c-.197.332-.439.646-.723.93v.003c-1.844 1.844-4.84 1.831-6.671-.027l-41.695-42.32c-1.839-1.868-4.853-1.868-6.692 0l-41.695 42.32c-.92.933-2.134 1.401-3.349 1.401-1.204 0-2.405-.457-3.322-1.374-.287-.287-.526-.601-.723-.933.197-.332.438-.646.723-.93l48.398-48.395c1.834-1.836 4.81-1.834 6.644 0l48.382 48.395c.285.284.526.597.723.93z" fill="#ee6781"/><g fill="#f789a1"><path d="m223.011 65.355-.137-.135c-1.121-1.101-1.13-2.904-.019-4.015l18.239-18.238c1.097-1.097 2.873-1.105 3.979-.017 1.114 1.095 1.129 2.886.033 3.999l-18.102 18.373c-1.094 1.11-2.88 1.125-3.993.033z"/><path d="m288.99 65.355.134-.132c1.124-1.102 1.133-2.909.02-4.023l-18.228-18.233c-1.097-1.097-2.874-1.107-3.982-.021-1.119 1.096-1.135 2.893-.036 4.009l18.094 18.365c1.096 1.111 2.884 1.127 3.998.035z"/></g></g></g><g><path d="m288.053 37.872v22.236l-8.927-8.93v-13.306c0-1.244 1.007-2.251 2.248-2.251h4.43c1.242 0 2.249 1.007 2.249 2.251z" fill="#c0405c"/><path d="m288.053 37.872v18.935l-3.596-3.598c-1.302-1.3-2.03-3.064-2.03-4.901v-10.436c0-1.244 1.007-2.251 2.248-2.251h1.129c1.242 0 2.249 1.007 2.249 2.251z" fill="#e9465e"/></g></g><g><g><path d="m279.889 93.546v26.205c0 .885-.237 1.715-.651 2.43-.538.934-1.381 1.673-2.39 2.077-.56.228-1.174.353-1.816.353h-38.062c-.645 0-1.259-.125-1.819-.353-1.01-.408-1.852-1.143-2.39-2.077-.414-.715-.651-1.545-.651-2.43v-26.205c0-2.041 1.256-3.789 3.041-4.507.56-.228 1.174-.353 1.819-.353h38.062c.642 0 1.256.125 1.816.353 1.782.718 3.041 2.463 3.041 4.507z" fill="#d48d77"/><path d="m238.193 93.546v26.205c0 2.044-1.259 3.789-3.041 4.507-1.785-.718-3.041-2.466-3.041-4.507v-26.205c0-2.041 1.256-3.789 3.041-4.507 1.782.718 3.041 2.463 3.041 4.507z" fill="#c17e62"/><path d="m279.889 93.546v26.205c0 .885-.237 1.715-.651 2.43-.538.934-1.381 1.673-2.39 2.077-1.01-.408-1.852-1.143-2.39-2.077-.414-.715-.651-1.545-.651-2.43v-26.205c0-2.041 1.256-3.789 3.041-4.507 1.782.718 3.041 2.463 3.041 4.507z" fill="#eea47d"/><path d="m279.238 122.181c-.839 1.454-2.409 2.43-4.206 2.43h-38.062c-.645 0-1.259-.125-1.819-.353-1.01-.408-1.852-1.143-2.39-2.077.538-.934 1.381-1.67 2.39-2.077.56-.228 1.174-.353 1.819-.353h38.062c1.798 0 3.367.976 4.206 2.43z" fill="#a26d5a"/></g><g><path d="m274.026 108.761h-36.053c-3.238 0-5.863-2.625-5.863-5.863v-2.686h47.778v2.686c.001 3.238-2.624 5.863-5.862 5.863z" fill="#a26d5a"/><path d="m279.889 93.546v8.047c0 2.114-1.715 3.829-3.829 3.829h-40.12c-2.114 0-3.829-1.715-3.829-3.829v-8.047c0-2.041 1.256-3.789 3.041-4.507.56-.228 1.174-.353 1.819-.353h38.062c.642 0 1.256.125 1.816.353 1.781.718 3.04 2.463 3.04 4.507z" fill="#c17e62"/><path d="m238.193 93.546v11.875h-2.253c-2.114 0-3.829-1.715-3.829-3.829v-8.047c0-2.041 1.256-3.789 3.041-4.507 1.782.719 3.041 2.464 3.041 4.508z" fill="#a26d5a"/><path d="m279.889 93.546v8.047c0 2.114-1.715 3.829-3.829 3.829h-2.253v-11.876c0-2.041 1.256-3.789 3.041-4.507 1.782.718 3.041 2.463 3.041 4.507z" fill="#d48d77"/><path d="m268.695 91.246h-25.391c-1.471 0-2.664 1.193-2.664 2.664s1.193 2.664 2.664 2.664h25.391c1.471 0 2.664-1.193 2.664-2.664 0-1.472-1.192-2.664-2.664-2.664z" fill="#d48d77"/><path d="m267.273 94.667h-16.081c-.945 0-1.711-.766-1.711-1.711s.766-1.711 1.711-1.711h16.081c.945 0 1.711.766 1.711 1.711-.001.945-.767 1.711-1.711 1.711z" fill="#eea47d"/></g><g><g><path d="m244.57 100.617c-.344-.255-.769-.404-1.232-.404h-3.065c-.459 0-.885.149-1.229.404-.517.374-.852.985-.852 1.676v6.258c0 .69.335 1.302.852 1.676.344.255.769.404 1.229.404h3.065c.462 0 .888-.149 1.232-.404.514-.377.848-.988.848-1.676v-6.258c.001-.688-.334-1.299-.848-1.676zm-.851 6.932c0 .669-.543 1.212-1.212 1.212h-1.402c-.669 0-1.212-.543-1.212-1.212v-4.256c0-.669.543-1.212 1.212-1.212h1.402c.669 0 1.212.543 1.212 1.212z" fill="#f9c744"/><path d="m245.419 102.292v6.258c0 .687-.335 1.299-.848 1.676-.517-.377-.852-.988-.852-1.676v-6.258c0-.687.335-1.299.852-1.676.513.378.848.989.848 1.676z" fill="#fad98f"/><path d="m239.893 102.292v6.258c0 .687-.335 1.299-.848 1.676-.517-.374-.852-.985-.852-1.676v-6.258c0-.69.335-1.302.852-1.676.514.378.848.989.848 1.676z" fill="#f39e22"/><path d="m244.57 100.617c-.344-.255-.769-.404-1.232-.404h-1.955c.111.685.374 1.318.747 1.87h.377c.669 0 1.212.543 1.212 1.212v.254c.514.29 1.088.488 1.699.567v-1.822c.001-.689-.334-1.3-.848-1.677z" fill="#faefdc"/></g><g><path d="m272.958 100.617c-.344-.255-.769-.404-1.232-.404h-3.065c-.459 0-.885.149-1.229.404-.517.374-.852.985-.852 1.676v6.258c0 .69.335 1.302.852 1.676.344.255.769.404 1.229.404h3.065c.462 0 .888-.149 1.232-.404.514-.377.848-.988.848-1.676v-6.258c.001-.688-.334-1.299-.848-1.676zm-.85 6.932c0 .669-.543 1.212-1.212 1.212h-1.402c-.669 0-1.212-.543-1.212-1.212v-4.256c0-.669.543-1.212 1.212-1.212h1.402c.669 0 1.212.543 1.212 1.212z" fill="#f9c744"/><path d="m273.807 102.292v6.258c0 .687-.335 1.299-.848 1.676-.517-.377-.852-.988-.852-1.676v-6.258c0-.687.335-1.299.852-1.676.513.378.848.989.848 1.676z" fill="#fad98f"/><path d="m268.281 102.292v6.258c0 .687-.335 1.299-.848 1.676-.517-.374-.852-.985-.852-1.676v-6.258c0-.69.335-1.302.852-1.676.514.378.848.989.848 1.676z" fill="#f39e22"/><path d="m272.958 100.617c-.344-.255-.769-.404-1.232-.404h-1.955c.111.685.374 1.318.747 1.87h.377c.669 0 1.212.543 1.212 1.212v.254c.514.29 1.088.488 1.699.567v-1.822c.001-.689-.334-1.3-.848-1.677z" fill="#faefdc"/></g></g><g><path d="m266.581 84.146v4.54h-3.646v-2.889c0-1.6-1.299-2.898-2.901-2.898h-8.065c-1.603 0-2.901 1.299-2.901 2.898v2.889h-3.646v-4.54c0-.477.076-.937.213-1.365.578-1.8 2.266-3.105 4.257-3.105h12.219c1.992 0 3.68 1.305 4.257 3.105.137.428.213.888.213 1.365z" fill="#a26d5a"/><path d="m266.368 82.781c-.487 1.733-1.77 3.129-3.433 3.771v-.754c0-1.6-1.299-2.898-2.901-2.898h-8.065c-1.603 0-2.901 1.299-2.901 2.898v.754c-.748-.289-1.42-.73-1.977-1.286-.681-.681-1.189-1.533-1.457-2.485.578-1.8 2.266-3.105 4.257-3.105h12.219c1.993 0 3.681 1.304 4.258 3.105z" fill="#c17e62"/><path d="m262.036 82.899h-9.375c-.871 0-1.577-.706-1.577-1.577v-.069c0-.871.706-1.577 1.577-1.577h9.375c.871 0 1.577.706 1.577 1.577v.069c.001.871-.705 1.577-1.577 1.577z" fill="#d48d77"/></g></g></g><g><g><g><g><path d="m294.904 408.658v57.729c0 2.309-1.393 4.289-3.383 5.153h-.003c-.683.295-1.435.46-2.227.46h-66.584c-.792 0-1.544-.165-2.227-.46-1.991-.861-3.386-2.844-3.386-5.153v-57.729l38.905-39.023z" fill="#fbcb74"/><path d="m294.904 408.658v57.729c0 2.309-1.393 4.289-3.383 5.153h-.003c-1.988-.864-3.383-2.844-3.383-5.153v-57.729c0-2.307 1.395-4.287 3.383-5.153h.003c1.991.864 3.383 2.847 3.383 5.153z" fill="#faefdc"/><path d="m223.863 408.658v57.729c0 2.309-1.393 4.292-3.383 5.153-1.991-.861-3.386-2.844-3.386-5.153v-57.729c0-2.307 1.395-4.289 3.386-5.153 1.991.864 3.383 2.847 3.383 5.153z" fill="#deb36f"/><path d="m279.677 405.66c0 1.869-1.515 3.384-3.384 3.384h-40.586c-1.869 0-3.384-1.515-3.384-3.384s1.515-3.384 3.384-3.384h40.586c1.868-.001 3.384 1.514 3.384 3.384z" fill="#fbd9a3"/><path d="m284.63 409.044h-57.26c-1.936 0-3.506 1.569-3.506 3.506v49.947c0 1.936 1.57 3.506 3.506 3.506h57.26c1.936 0 3.506-1.57 3.506-3.506v-49.947c-.001-1.936-1.57-3.506-3.506-3.506z" fill="#c0405c"/></g><g><path d="m202.912 417.107c0 1.204.46 2.405 1.377 3.322 1.844 1.844 4.84 1.834 6.671-.024l41.695-42.32c1.839-1.868 4.853-1.868 6.692 0l41.695 42.32c.92.933 2.134 1.401 3.346 1.401 1.204 0 2.408-.46 3.325-1.377 1.549-1.549 1.789-3.912.723-5.714-.197-.332-.438-.646-.723-.93l-48.398-48.395c-1.834-1.836-4.81-1.834-6.644 0l-48.382 48.395c-.284.284-.526.598-.723.93-.436.736-.654 1.563-.654 2.392z" fill="#e9465e"/><path d="m203.566 414.715c.197.332.438.646.723.93v.003c1.844 1.844 4.84 1.831 6.671-.027l41.695-42.32c1.839-1.868 4.853-1.868 6.692 0l41.695 42.32c.92.933 2.134 1.401 3.349 1.401 1.204 0 2.405-.457 3.322-1.374.287-.287.526-.601.723-.933-.197-.332-.438-.646-.723-.93l-48.398-48.395c-1.834-1.836-4.81-1.834-6.644 0l-48.382 48.395c-.285.284-.526.598-.723.93z" fill="#ee6781"/><g fill="#f789a1"><path d="m288.989 399.369.137-.135c1.121-1.101 1.13-2.904.019-4.015l-18.239-18.238c-1.097-1.097-2.873-1.105-3.979-.018-1.114 1.095-1.129 2.886-.033 3.999l18.102 18.373c1.094 1.11 2.88 1.125 3.993.034z"/><path d="m223.01 399.368-.134-.132c-1.124-1.102-1.133-2.909-.02-4.023l18.228-18.233c1.097-1.098 2.874-1.107 3.982-.021 1.119 1.096 1.135 2.893.036 4.009l-18.094 18.365c-1.096 1.112-2.884 1.127-3.998.035z"/></g></g></g><g><path d="m223.947 371.885v22.236l8.927-8.93v-13.307c0-1.244-1.007-2.251-2.248-2.251h-4.43c-1.242.001-2.249 1.008-2.249 2.252z" fill="#c0405c"/><path d="m223.947 371.885v18.936l3.596-3.598c1.302-1.3 2.03-3.064 2.03-4.901v-10.436c0-1.244-1.007-2.251-2.248-2.251h-1.129c-1.242-.001-2.249 1.006-2.249 2.25z" fill="#e9465e"/></g></g><g><g><path d="m279.889 427.56v26.205c0 .885-.237 1.715-.651 2.43-.538.934-1.381 1.673-2.39 2.077-.56.228-1.174.353-1.816.353h-38.062c-.645 0-1.259-.125-1.819-.353-1.01-.408-1.852-1.143-2.39-2.077-.414-.715-.651-1.545-.651-2.43v-26.205c0-2.041 1.256-3.789 3.041-4.507.56-.228 1.174-.353 1.819-.353h38.062c.642 0 1.256.125 1.816.353 1.782.717 3.041 2.463 3.041 4.507z" fill="#d48d77"/><path d="m238.193 427.56v26.205c0 2.044-1.259 3.789-3.041 4.507-1.785-.718-3.041-2.466-3.041-4.507v-26.205c0-2.041 1.256-3.789 3.041-4.507 1.782.717 3.041 2.463 3.041 4.507z" fill="#c17e62"/><path d="m279.889 427.56v26.205c0 .885-.237 1.715-.651 2.43-.538.934-1.381 1.673-2.39 2.077-1.01-.408-1.852-1.143-2.39-2.077-.414-.715-.651-1.545-.651-2.43v-26.205c0-2.041 1.256-3.789 3.041-4.507 1.782.717 3.041 2.463 3.041 4.507z" fill="#eea47d"/><path d="m279.238 456.194c-.839 1.454-2.409 2.43-4.206 2.43h-38.062c-.645 0-1.259-.125-1.819-.353-1.01-.408-1.852-1.143-2.39-2.077.538-.934 1.381-1.67 2.39-2.077.56-.228 1.174-.353 1.819-.353h38.062c1.798 0 3.367.977 4.206 2.43z" fill="#a26d5a"/></g><g><path d="m274.026 442.775h-36.053c-3.238 0-5.863-2.625-5.863-5.863v-2.686h47.778v2.686c.001 3.238-2.624 5.863-5.862 5.863z" fill="#a26d5a"/><path d="m279.889 427.56v8.047c0 2.114-1.715 3.829-3.829 3.829h-40.12c-2.114 0-3.829-1.715-3.829-3.829v-8.047c0-2.041 1.256-3.789 3.041-4.507.56-.228 1.174-.353 1.819-.353h38.062c.642 0 1.256.125 1.816.353 1.781.717 3.04 2.463 3.04 4.507z" fill="#c17e62"/><path d="m238.193 427.56v11.875h-2.253c-2.114 0-3.829-1.715-3.829-3.829v-8.047c0-2.041 1.256-3.789 3.041-4.507 1.782.718 3.041 2.464 3.041 4.508z" fill="#a26d5a"/><path d="m279.889 427.56v8.047c0 2.114-1.715 3.829-3.829 3.829h-2.253v-11.876c0-2.041 1.256-3.789 3.041-4.507 1.782.717 3.041 2.463 3.041 4.507z" fill="#d48d77"/><path d="m268.695 425.259h-25.391c-1.471 0-2.664 1.193-2.664 2.664s1.193 2.664 2.664 2.664h25.391c1.471 0 2.664-1.193 2.664-2.664s-1.192-2.664-2.664-2.664z" fill="#d48d77"/><path d="m267.273 428.681h-16.081c-.945 0-1.711-.766-1.711-1.711s.766-1.711 1.711-1.711h16.081c.945 0 1.711.766 1.711 1.711-.001.945-.767 1.711-1.711 1.711z" fill="#eea47d"/></g><g><g><path d="m244.57 434.63c-.344-.255-.769-.404-1.232-.404h-3.065c-.459 0-.885.149-1.229.404-.517.374-.852.985-.852 1.676v6.259c0 .69.335 1.302.852 1.676.344.255.769.404 1.229.404h3.065c.462 0 .888-.149 1.232-.404.514-.377.848-.988.848-1.676v-6.259c.001-.688-.334-1.299-.848-1.676zm-.851 6.933c0 .669-.543 1.212-1.212 1.212h-1.402c-.669 0-1.212-.543-1.212-1.212v-4.256c0-.669.543-1.212 1.212-1.212h1.402c.669 0 1.212.543 1.212 1.212z" fill="#f9c744"/><path d="m245.419 436.306v6.259c0 .687-.335 1.299-.848 1.676-.517-.377-.852-.988-.852-1.676v-6.259c0-.687.335-1.299.852-1.676.513.377.848.988.848 1.676z" fill="#fad98f"/><path d="m239.893 436.306v6.259c0 .687-.335 1.299-.848 1.676-.517-.374-.852-.985-.852-1.676v-6.259c0-.69.335-1.302.852-1.676.514.377.848.988.848 1.676z" fill="#f39e22"/><path d="m244.57 434.63c-.344-.255-.769-.404-1.232-.404h-1.955c.111.685.374 1.318.747 1.87h.377c.669 0 1.212.543 1.212 1.212v.254c.514.29 1.088.488 1.699.567v-1.822c.001-.689-.334-1.3-.848-1.677z" fill="#faefdc"/></g><g><path d="m272.958 434.63c-.344-.255-.769-.404-1.232-.404h-3.065c-.459 0-.885.149-1.229.404-.517.374-.852.985-.852 1.676v6.259c0 .69.335 1.302.852 1.676.344.255.769.404 1.229.404h3.065c.462 0 .888-.149 1.232-.404.514-.377.848-.988.848-1.676v-6.259c.001-.688-.334-1.299-.848-1.676zm-.85 6.933c0 .669-.543 1.212-1.212 1.212h-1.402c-.669 0-1.212-.543-1.212-1.212v-4.256c0-.669.543-1.212 1.212-1.212h1.402c.669 0 1.212.543 1.212 1.212z" fill="#f9c744"/><path d="m273.807 436.306v6.259c0 .687-.335 1.299-.848 1.676-.517-.377-.852-.988-.852-1.676v-6.259c0-.687.335-1.299.852-1.676.513.377.848.988.848 1.676z" fill="#fad98f"/><path d="m268.281 436.306v6.259c0 .687-.335 1.299-.848 1.676-.517-.374-.852-.985-.852-1.676v-6.259c0-.69.335-1.302.852-1.676.514.377.848.988.848 1.676z" fill="#f39e22"/><path d="m272.958 434.63c-.344-.255-.769-.404-1.232-.404h-1.955c.111.685.374 1.318.747 1.87h.377c.669 0 1.212.543 1.212 1.212v.254c.514.29 1.088.488 1.699.567v-1.822c.001-.689-.334-1.3-.848-1.677z" fill="#faefdc"/></g></g><g><path d="m266.581 418.16v4.54h-3.646v-2.889c0-1.6-1.299-2.898-2.901-2.898h-8.065c-1.603 0-2.901 1.299-2.901 2.898v2.889h-3.646v-4.54c0-.477.076-.937.213-1.365.578-1.8 2.266-3.105 4.257-3.105h12.219c1.992 0 3.68 1.305 4.257 3.105.137.428.213.887.213 1.365z" fill="#a26d5a"/><path d="m266.368 416.794c-.487 1.733-1.77 3.129-3.433 3.771v-.754c0-1.6-1.299-2.898-2.901-2.898h-8.065c-1.603 0-2.901 1.299-2.901 2.898v.754c-.748-.289-1.42-.73-1.977-1.286-.681-.681-1.189-1.533-1.457-2.485.578-1.8 2.266-3.105 4.257-3.105h12.219c1.993 0 3.681 1.305 4.258 3.105z" fill="#c17e62"/><path d="m262.036 416.913h-9.375c-.871 0-1.577-.706-1.577-1.577v-.069c0-.871.706-1.577 1.577-1.577h9.375c.871 0 1.577.706 1.577 1.577v.069c.001.871-.705 1.577-1.577 1.577z" fill="#d48d77"/></g></g></g></g><g><g><g><path d="m372.947 437.666c.135-.411.214-.833.239-1.254.078-1.304-.359-2.607-1.249-3.609l-8.426-9.495-.025-.028 57.445-50.971c10.646-9.446 11.622-25.792 2.176-36.438-1.815-2.046-4.946-2.233-6.992-.417-2.046 1.815-2.233 4.946-.417 6.992 5.821 6.56 5.22 16.633-1.341 22.455l-57.445 50.971-.025-.028-8.426-9.496c-1.177-1.327-2.969-1.929-4.709-1.581-1.739.347-3.163 1.591-3.74 3.267l-11.735 34.056c-.588 1.705-.21 3.591.985 4.938s3.024 1.946 4.785 1.566l35.211-7.599c1.732-.378 3.138-1.644 3.689-3.329z" fill="#53b976"/><g><path d="m364.509 437.056c-.553-2.7-3.191-4.44-5.89-3.886l-17.019 3.488c-2.7.553-4.44 3.19-3.886 5.89.553 2.7 3.19 4.44 5.89 3.886l17.019-3.488c2.699-.553 4.439-3.19 3.886-5.89z" fill="#9acdae"/></g></g><g><path d="m96.303 169.557c-5.821-6.561-5.22-16.634 1.341-22.455l57.445-50.971.025.028 8.425 9.496c.89 1.003 2.131 1.592 3.435 1.67.422.025.85-.002 1.274-.088 1.739-.346 3.163-1.591 3.741-3.267l11.735-34.056c.587-1.703.21-3.59-.985-4.937s-3.023-1.946-4.785-1.566l-35.21 7.599c-1.734.374-3.138 1.639-3.689 3.325-.552 1.686-.167 3.537 1.01 4.864l8.426 9.497.025.028-57.446 50.969c-10.646 9.446-11.622 25.792-2.176 36.438 1.815 2.046 4.946 2.233 6.992.417 2.045-1.815 2.232-4.945.417-6.991z" fill="#53b976"/><g><path d="m168.646 98.786c-2.615-.871-4.029-3.696-3.158-6.311l5.489-16.483c.871-2.615 3.696-4.029 6.311-3.158s4.029 3.696 3.158 6.311l-5.489 16.483c-.871 2.614-3.696 4.028-6.311 3.158z" fill="#9acdae"/></g></g></g><g><g><path d="m74.334 372.947c.411.135.833.214 1.254.239 1.304.078 2.607-.359 3.609-1.249l9.495-8.426.028-.025 50.971 57.445c9.446 10.646 25.792 11.622 36.438 2.176 2.046-1.815 2.233-4.946.417-6.992-1.815-2.046-4.946-2.233-6.992-.417-6.56 5.821-16.633 5.22-22.455-1.341l-50.971-57.445.028-.025 9.496-8.426c1.327-1.177 1.929-2.969 1.581-4.709-.347-1.739-1.591-3.163-3.267-3.74l-34.056-11.735c-1.705-.588-3.591-.21-4.938.985s-1.946 3.024-1.566 4.785l7.599 35.211c.378 1.732 1.644 3.138 3.329 3.689z" fill="#53b976"/><g><path d="m74.944 364.509c2.7-.553 4.44-3.191 3.886-5.89l-3.488-17.019c-.553-2.7-3.19-4.44-5.89-3.886-2.7.553-4.44 3.19-3.886 5.89l3.488 17.019c.553 2.699 3.191 4.439 5.89 3.886z" fill="#9acdae"/></g></g><g><path d="m342.444 96.303c6.561-5.821 16.634-5.22 22.455 1.341l50.971 57.445-.028.025-9.496 8.425c-1.003.89-1.592 2.131-1.67 3.435-.025.422.002.85.088 1.274.346 1.739 1.591 3.163 3.267 3.741l34.056 11.735c1.703.587 3.59.21 4.937-.985s1.946-3.023 1.566-4.785l-7.599-35.21c-.374-1.734-1.639-3.138-3.325-3.689-1.686-.552-3.537-.167-4.864 1.01l-9.497 8.426-.028.025-50.97-57.446c-9.446-10.646-25.792-11.622-36.438-2.176-2.046 1.815-2.233 4.946-.417 6.992 1.815 2.045 4.946 2.232 6.992.417z" fill="#53b976"/><g><path d="m413.214 168.646c.871-2.615 3.696-4.029 6.311-3.158l16.483 5.489c2.615.871 4.029 3.696 3.158 6.311s-3.696 4.029-6.311 3.158l-16.483-5.489c-2.614-.871-4.028-3.696-3.158-6.311z" fill="#9acdae"/></g></g></g></g></g></g></svg>