<svg id="Capa_1" enable-background="new 0 0 512 512" height="512" viewBox="0 0 512 512" width="512" xmlns="http://www.w3.org/2000/svg"><g><g><g><path d="m400.322 119.864h61.241c7.709 0 13.98 6.28 13.98 14l-.085 308.833c0 6.052-4.77 9.887-10.151 11.837-1.482.537-3.08.83-4.745.83-7.709 0-13.98-6.28-13.98-14v-63c0-24.262-19.71-44-43.937-44h-183.145l.163 27.333 184.622 1.156c7.709 0 13.98 6.28 13.98 14l.387 62.624c0 17.731 8.502 34.933 23.626 41.893 5.571 2.564 11.765 3.994 18.286 3.994 24.227 0 43.937-19.738 43.937-44v-306.5c0-24.262-19.71-44-43.937-44h-61.774z" fill="#f8f7f7"/></g><g><path d="m459.603 106.077c16.544.035 29.937 13.456 29.937 30v305.193c0 7.72-6.27 14-13.98 14l-15 .1v-.01c7.71 0 13.98-6.28 13.98-14v-306.5c0-7.72-6.27-14-13.98-14h-61.24l-.26-14.91z" fill="#e8e8e8"/></g><path d="m397.48 134.136h20c8.284 0 15-4.716 15-13v-30c0-8.284-6.716-15-15-15h-6l-14 2.241z" fill="#b6c4cf"/><path d="m432.48 120.84v.3c0 8.284-6.716 15-15 15h-20l-2.608-30.004 2.608-29.996h14v41.74c0 1.657 1.343 3 3 3h17c.34 0 .67-.01 1-.04z" fill="#9facba"/><path d="m364.046 179.44-325.101 1.211c-16.569 0-30-13.431-30-30l-.385-91.511c0-10.681 4.522-22.563 12.929-27.879 4.633-2.93 10.125-4.626 16.012-4.626h330c16.569 0 30 13.431 30 30v95c0 5.888-1.696 11.379-4.626 16.013-5.317 8.406-18.148 11.792-28.829 11.792z" fill="#f8f7f7"/><path d="m392.86 167.64c-5.29 8.41-14.67 14-25.36 14h-330c-16.57 0-30-13.44-30-30v-95c0-10.69 5.59-20.07 14-25.36v120.36c0 8.82 7.18 16 16 16z" fill="#e8e8e8"/><g><path d="m444.28 482.22c-16.19-6.48-27.65-22.35-27.65-40.86v-63c0-7.7-6.3-14-14-14h-182.97l-.08-15h182.05c16.569 0 30 13.431 30 30v72c0 12.02 4.83 22.92 12.65 30.86z" fill="#e8e8e8"/></g><g><path d="m82.5 157.136c-14.157 0-27.466-5.513-37.477-15.523-10.01-10.011-15.523-23.321-15.523-37.477 0-14.157 5.513-27.467 15.523-37.478 10.01-10.01 23.32-15.522 37.477-15.522s27.466 5.513 37.477 15.522c10.011 10.011 15.523 23.32 15.523 37.478 0 14.156-5.513 27.466-15.523 37.477-10.011 10.01-23.32 15.523-37.477 15.523z" fill="#e8e8e8"/><path d="m114.32 72.316c-6.872-6.872-15.413-11.057-24.318-12.554l-8.011.67-6.992-.67c-4.668.785-9.237 2.309-13.517 4.571-3.885 2.053-6.786 5.146-10.055 8.415-17.574 17.574-17.574 44.683 0 62.257s45.165 18.427 62.739.853c.211-.211.574-.326.779-.539 16.946-17.619 16.738-45.64-.625-63.003z" fill="#b6c4cf"/><path d="m115.1 135.16c-.26.27-.52.54-.78.8-6.871 6.871-15.413 11.055-24.32 12.552l-7.127-.709-7.873.709c-8.907-1.497-17.449-5.681-24.32-12.552-17.57-17.58-17.57-46.07 0-63.64 3.38-3.39 7.18-6.12 11.22-8.2-16.79 17.63-16.53 45.52.78 62.84 14.18 14.18 35.49 16.92 52.42 8.2z" fill="#9facba"/></g><g><path d="m202.5 157.136c-14.157 0-27.466-5.513-37.477-15.523-10.011-10.011-15.523-23.32-15.523-37.477s5.513-27.467 15.523-37.478c10.01-10.01 23.32-15.522 37.477-15.522s27.466 5.513 37.477 15.522c10.011 10.011 15.523 23.32 15.523 37.478 0 14.156-5.513 27.466-15.523 37.477-10.011 10.01-23.32 15.523-37.477 15.523z" fill="#e8e8e8"/><path d="m234.32 72.316c-6.872-6.872-15.413-11.057-24.318-12.554l-8.011.67-6.992-.67c-4.668.785-9.237 2.309-13.517 4.571-3.885 2.053-6.786 5.146-10.055 8.415-17.574 17.574-17.574 44.683 0 62.257s45.165 18.427 62.739.853c.211-.211.574-.326.779-.539 16.946-17.619 16.738-45.64-.625-63.003z" fill="#b6c4cf"/><path d="m235.1 135.16c-.26.27-.52.54-.78.8-6.871 6.871-15.413 11.055-24.32 12.552l-7.127-.709-7.873.709c-8.907-1.497-17.449-5.681-24.32-12.552-17.57-17.58-17.57-46.07 0-63.64 3.38-3.39 7.18-6.12 11.22-8.2-16.79 17.63-16.53 45.52.78 62.84 14.18 14.18 35.49 16.92 52.42 8.2z" fill="#9facba"/></g><g><path d="m322.5 157.136c-14.157 0-27.466-5.513-37.477-15.523-10.011-10.011-15.523-23.32-15.523-37.477s5.513-27.467 15.523-37.478c10.01-10.01 23.32-15.522 37.477-15.522s27.466 5.513 37.477 15.522c10.011 10.011 15.523 23.32 15.523 37.478 0 14.156-5.513 27.466-15.523 37.477-10.011 10.01-23.32 15.523-37.477 15.523z" fill="#e8e8e8"/><path d="m354.32 72.316c-6.872-6.872-15.413-11.057-24.318-12.554l-8.011.67-6.992-.67c-4.668.785-9.237 2.309-13.517 4.571-3.885 2.053-6.786 5.146-10.055 8.415-17.574 17.574-17.574 44.683 0 62.257s45.165 18.427 62.739.853c.211-.211.574-.326.779-.539 16.946-17.619 16.738-45.64-.625-63.003z" fill="#b6c4cf"/><path d="m355.1 135.16c-.26.27-.52.54-.78.8-6.871 6.871-15.413 11.055-24.32 12.552l-7.127-.709-7.873.709c-8.907-1.497-17.449-5.681-24.32-12.552-17.57-17.58-17.57-46.07 0-63.64 3.38-3.39 7.18-6.12 11.22-8.2-16.79 17.63-16.53 45.52.78 62.84 14.18 14.18 35.49 16.92 52.42 8.2z" fill="#9facba"/></g><path d="m112.873 296.468 13.997 2.332 60.589 20.564 1.761 30.719-1.761 29.281-31.597 9.691-42.989 15.624z" fill="#f8f7f7"/><path d="m187.46 364.58 1.76 7.631-1.76 7.149-75.554 25.647-2.062-60.649.581-51.137 16.445 5.58v82.154c0 2.054 2.018 3.501 3.964 2.841z" fill="#e8e8e8"/><path d="m187.459 378.417 19.444.289c7.959 0 14.803-5.432 15.317-13.252.022-.329.28-.755.28-1.09v-30c0-8.284-6.724-15-15.017-15h-6.023l-14.001 1.214z" fill="#b6c4cf"/><path d="m222.46 364.367c0 7.982-5.896 14.993-14.98 14.993h-20.02v-60h14v42.007c0 1.657 1.343 3 3 3z" fill="#9facba"/><g><path d="m74.5 327.761-49.95.413c-8.694 0-17.05-5.891-17.05-14.175 0-8.284 7.048-15 15.742-15h51.258z" fill="#ffd163"/><path d="m74.5 314.001v15h-51.26c-8.69 0-15.74-6.72-15.74-15z" fill="#ffb65f"/></g><g><path d="m74.5 398.491-49.95.413c-8.694 0-17.05-5.891-17.05-14.175 0-8.284 7.048-15 15.742-15h51.258z" fill="#ffd163"/><path d="m74.5 384.731v15h-51.26c-8.69 0-15.74-6.72-15.74-15z" fill="#ffb65f"/></g><path d="m111.047 406.364 1-1.004v-112.996c0-7.18-5.82-13-13-13h-13.043l-1.004 1c-7.18 0-12 5.82-12 13v112c0 7.18 5.82 13 13 13h12.047c7.18 0 13-4.82 13-12z" fill="#f8f7f7"/><path d="m112.044 405.36v1c0 7.18-5.82 13-13 13h-14.04c-7.18 0-13-5.82-13-13v-114c0-7.18 5.82-13 13-13h1v123c0 1.657 1.343 3 3 3z" fill="#e8e8e8"/></g><g><path d="m37.5 189.136h119.5c4.142 0 7.5-3.357 7.5-7.5s-3.358-7.5-7.5-7.5h-119.5c-12.407 0-22.5-10.094-22.5-22.5v-95c0-12.406 10.093-22.5 22.5-22.5h225c4.143 0 7.5-3.357 7.5-7.5s-3.357-7.5-7.5-7.5h-225c-20.678 0-37.5 16.822-37.5 37.5v95c0 20.677 16.822 37.5 37.5 37.5z"/><path d="m460.563 83.364h-21.969c-3.171-8.588-11.439-14.729-21.115-14.729h-12.479v-12c0-20.678-16.822-37.5-37.5-37.5h-70c-4.143 0-7.5 3.357-7.5 7.5s3.357 7.5 7.5 7.5h70c12.406 0 22.5 10.094 22.5 22.5v95c0 12.406-10.094 22.5-22.5 22.5h-175.5c-4.142 0-7.5 3.357-7.5 7.5s3.358 7.5 7.5 7.5h175.5c20.678 0 37.5-16.822 37.5-37.5v-8h12.479c9.878 0 18.283-6.402 21.302-15.271h21.782c3.573 0 6.479 2.916 6.479 6.5v102.136c0 4.143 3.357 7.5 7.5 7.5s7.5-3.357 7.5-7.5v-102.136c0-11.855-9.636-21.5-21.479-21.5h-20.584v-15h20.584c20.091 0 36.437 16.374 36.437 36.5v306.5c0 20.126-16.346 36.5-36.437 36.5s-36.437-16.374-36.437-36.5v-63c0-11.855-9.636-21.5-21.479-21.5h-45.147c-4.143 0-7.5 3.357-7.5 7.5s3.357 7.5 7.5 7.5h45.147c3.573 0 6.479 2.916 6.479 6.5v63c0 28.397 23.074 51.5 51.437 51.5s51.437-23.102 51.437-51.5v-306.5c0-28.397-23.074-51.5-51.437-51.5zm-35.584 37.772c0 4.136-3.364 7.5-7.5 7.5h-12.479v-45h12.479c4.136 0 7.5 3.364 7.5 7.5z"/><path d="m322.5 356.864h-92.5v-15h172.647c20.091 0 36.437 16.374 36.437 36.5v63c0 11.855 9.636 21.5 21.479 21.5s21.479-9.645 21.479-21.5v-169.364c0-4.143-3.357-7.5-7.5-7.5s-7.5 3.357-7.5 7.5v169.364c0 3.584-2.906 6.5-6.479 6.5s-6.479-2.916-6.479-6.5v-63c0-28.397-23.074-51.5-51.437-51.5h-173.938c-3.099-8.729-11.442-15-21.226-15h-18.552l-68.928-23.316c-1.795-9.485-10.132-16.684-20.13-16.684h-14.047c-11.012 0-19.998 8.734-20.456 19.636h-42.128c-12.816 0-23.242 10.094-23.242 22.5s10.426 22.5 23.242 22.5h42.084v25.729h-42.084c-12.816 0-23.242 10.093-23.242 22.5s10.426 22.5 23.242 22.5h42.128c.458 10.901 9.444 19.636 20.456 19.636h14.046c9.999 0 18.335-7.199 20.13-16.684l68.931-23.316h18.549c9.785 0 18.128-6.271 21.226-15h93.792c4.143 0 7.5-3.357 7.5-7.5s-3.357-7.501-7.5-7.501zm-257.174 35.365h-42.084c-4.545 0-8.242-3.364-8.242-7.5s3.697-7.5 8.242-7.5h42.084zm0-70.729h-42.084c-4.545 0-8.242-3.364-8.242-7.5s3.697-7.5 8.242-7.5h42.084zm40.047 84.864c0 3.032-2.467 5.5-5.5 5.5h-14.047c-3.033 0-5.5-2.468-5.5-5.5v-114c0-3.032 2.467-5.5 5.5-5.5h14.046c3.033 0 5.5 2.468 5.5 5.5v114zm74.586-32.299-59.587 20.156v-89.712l59.587 20.156zm35.041-9.701c0 4.136-3.373 7.5-7.518 7.5h-12.523v-45h12.523c4.145 0 7.518 3.364 7.518 7.5z"/><path d="m45.377 67.013c-19.879 18.985-20.614 54.502 0 74.246 9.916 9.916 23.1 15.377 37.123 15.377s27.207-5.461 37.123-15.377c19.879-18.988 20.613-54.501 0-74.247-20.469-20.468-53.775-20.47-74.246.001zm74.623 37.123c0 10.017-3.9 19.434-10.983 26.516-5.281 5.281-11.86 8.791-19.017 10.236v-6.751c0-4.143-3.358-7.5-7.5-7.5s-7.5 3.357-7.5 7.5v6.751c-7.157-1.445-13.736-4.954-19.017-10.236-13.912-13.308-14.891-38.713 0-53.032 5.397-5.397 12.044-8.796 19.017-10.208v7.224c0 4.143 3.358 7.5 7.5 7.5s7.5-3.357 7.5-7.5v-7.224c6.973 1.413 13.62 4.811 19.017 10.207 7.083 7.083 10.983 16.5 10.983 26.517z"/><path d="m165.377 67.013c-19.879 18.985-20.614 54.502 0 74.246 9.916 9.916 23.1 15.377 37.123 15.377s27.207-5.461 37.123-15.377c19.879-18.988 20.613-54.501 0-74.247-20.469-20.468-53.776-20.47-74.246.001zm74.623 37.123c0 10.017-3.9 19.434-10.983 26.516-5.281 5.281-11.86 8.791-19.017 10.236v-6.751c0-4.143-3.358-7.5-7.5-7.5s-7.5 3.357-7.5 7.5v6.751c-7.157-1.445-13.736-4.954-19.017-10.236-13.912-13.308-14.891-38.713 0-53.032 5.397-5.396 12.044-8.795 19.017-10.208v7.224c0 4.143 3.358 7.5 7.5 7.5s7.5-3.357 7.5-7.5v-7.224c6.973 1.413 13.62 4.811 19.017 10.207 7.083 7.083 10.983 16.5 10.983 26.517z"/><path d="m285.377 141.258c9.916 9.917 23.1 15.378 37.123 15.378s27.207-5.461 37.122-15.377c19.88-18.985 20.615-54.501.001-74.247-20.471-20.469-53.775-20.469-74.246 0-19.878 18.985-20.615 54.502 0 74.246zm10.607-63.639c5.396-5.396 12.043-8.795 19.016-10.208v7.224c0 4.143 3.357 7.5 7.5 7.5s7.5-3.357 7.5-7.5v-7.224c6.972 1.413 13.619 4.811 19.016 10.208 13.913 13.309 14.892 38.713 0 53.033-5.28 5.281-11.859 8.79-19.016 10.235v-6.751c0-4.143-3.357-7.5-7.5-7.5s-7.5 3.357-7.5 7.5v6.751c-7.157-1.445-13.736-4.954-19.017-10.236-13.911-13.308-14.891-38.713.001-53.032z"/><circle cx="67.5" cy="104.138" r="7.501"/><circle cx="97.5" cy="104.138" r="7.501"/><circle cx="187.5" cy="104.138" r="7.501"/><circle cx="217.5" cy="104.138" r="7.501"/><circle cx="307.5" cy="104.138" r="7.501"/><circle cx="337.5" cy="104.138" r="7.501"/></g></g></svg>