<svg id="Icons" enable-background="new 0 0 512 512" height="512" viewBox="0 0 512 512" width="512" xmlns="http://www.w3.org/2000/svg"><g><circle cx="256" cy="256" fill="#f39e22" r="256"/><g><path d="m256.19 449.671c-4.467 0-9.01-.157-13.502-.466l-.263-.019c-2.754-.204-4.821-2.602-4.617-5.355s2.606-4.835 5.355-4.617l.178.013c6.386.44 12.785.553 19.029.342 2.727-.11 5.072 2.069 5.164 4.83.092 2.76-2.07 5.072-4.83 5.164-2.153.072-4.345.108-6.514.108zm45.409-5.55c-2.242 0-4.282-1.52-4.849-3.794-.666-2.68.966-5.393 3.646-6.06 6.192-1.54 12.378-3.431 18.383-5.619 2.596-.939 5.466.392 6.41 2.986.945 2.595-.393 5.465-2.986 6.41-6.335 2.308-12.859 4.302-19.393 5.928-.406.101-.812.149-1.211.149zm-97.639-1.738c-.455 0-.917-.062-1.376-.193-6.474-1.85-12.923-4.066-19.169-6.59-2.561-1.034-3.798-3.948-2.764-6.509s3.949-3.799 6.509-2.763c5.921 2.392 12.035 4.493 18.171 6.246 2.655.759 4.193 3.526 3.434 6.181-.627 2.196-2.629 3.628-4.805 3.628zm151.976-21.343c-1.666 0-3.295-.833-4.244-2.349-1.464-2.342-.754-5.427 1.588-6.892 5.414-3.388 10.712-7.099 15.746-11.032 2.178-1.701 5.318-1.314 7.019.862 1.699 2.176 1.313 5.318-.862 7.019-5.306 4.146-10.891 8.059-16.599 11.63-.826.516-1.743.762-2.648.762zm-205.461-3.607c-.964 0-1.938-.278-2.796-.858-5.576-3.77-11.017-7.878-16.171-12.21-2.114-1.776-2.387-4.931-.61-7.044s4.931-2.387 7.045-.61c4.888 4.108 10.048 8.004 15.337 11.579 2.288 1.547 2.889 4.655 1.342 6.942-.966 1.429-2.542 2.201-4.147 2.201zm250.008-35.097c-1.136 0-2.278-.385-3.216-1.174-2.113-1.777-2.385-4.932-.607-7.045 4.109-4.886 8.008-10.045 11.587-15.333 1.546-2.286 4.653-2.887 6.943-1.338 2.286 1.547 2.886 4.656 1.338 6.943-3.772 5.574-7.883 11.014-12.216 16.165-.988 1.176-2.404 1.782-3.829 1.782zm-293.14-5.17c-1.486 0-2.956-.659-3.942-1.92-4.149-5.307-8.063-10.89-11.636-16.595-1.465-2.34-.756-5.426 1.584-6.891 2.342-1.465 5.426-.756 6.892 1.584 3.389 5.411 7.103 10.708 11.038 15.741 1.701 2.176 1.316 5.318-.859 7.02-.915.714-2 1.061-3.077 1.061zm323.59-45.379c-.624 0-1.259-.117-1.873-.366-2.56-1.035-3.796-3.949-2.761-6.51 2.393-5.915 4.497-12.028 6.255-18.169.76-2.655 3.531-4.19 6.183-3.431 2.654.76 4.19 3.527 3.431 6.183-1.854 6.478-4.073 12.927-6.598 19.167-.787 1.945-2.66 3.126-4.637 3.126zm-352.253-6.221c-2.041 0-3.958-1.259-4.698-3.288-2.31-6.331-4.306-12.854-5.935-19.39-.668-2.68.963-5.393 3.643-6.061 2.676-.67 5.393.963 6.061 3.643 1.544 6.194 3.437 12.379 5.626 18.382.946 2.594-.39 5.464-2.984 6.41-.565.207-1.144.304-1.713.304zm365.518-51.281c-.124 0-.248-.004-.374-.014-2.754-.204-4.821-2.602-4.617-5.355l.02-.271c.295-4.285.443-8.598.443-12.838 0-2.126-.037-4.282-.11-6.41-.095-2.76 2.065-5.074 4.825-5.169 2.807-.089 5.074 2.065 5.169 4.825.077 2.242.116 4.514.116 6.754 0 4.468-.157 9.012-.466 13.504l-.024.343c-.195 2.628-2.388 4.631-4.982 4.631zm-376.761-6.669c-2.684 0-4.903-2.129-4.994-4.831-.074-2.188-.112-4.406-.112-6.593 0-4.479.157-9.023.465-13.505l.013-.184c.204-2.754 2.597-4.844 5.355-4.617 2.754.204 4.821 2.602 4.617 5.355l-4.986-.369 4.982.426c0 .008-.007.094-.007.102-.292 4.229-.44 8.541-.44 12.792 0 2.074.036 4.179.106 6.255.094 2.76-2.068 5.072-4.828 5.166-.057.002-.114.003-.171.003zm371.622-52.45c-2.24 0-4.278-1.516-4.847-3.788-1.548-6.189-3.446-12.372-5.642-18.377-.948-2.594.386-5.465 2.979-6.413 2.592-.944 5.465.386 6.413 2.979 2.315 6.334 4.317 12.855 5.95 19.385.67 2.679-.959 5.394-3.638 6.063-.406.102-.814.151-1.215.151zm-364.461-6.132c-.455 0-.916-.062-1.375-.193-2.655-.758-4.194-3.524-3.436-6.18 1.849-6.479 4.063-12.929 6.582-19.172 1.033-2.561 3.948-3.797 6.507-2.766 2.561 1.033 3.799 3.946 2.766 6.508-2.387 5.918-4.487 12.032-6.239 18.174-.626 2.198-2.629 3.629-4.805 3.629zm341.32-48.165c-1.664 0-3.291-.83-4.24-2.344-3.395-5.41-7.113-10.703-11.053-15.732-1.702-2.174-1.32-5.316.854-7.02 2.173-1.7 5.317-1.321 7.02.854 4.152 5.301 8.072 10.881 11.65 16.584 1.468 2.339.761 5.425-1.578 6.893-.826.518-1.746.765-2.653.765zm-316.398-5.322c-.963 0-1.936-.278-2.794-.857-2.288-1.545-2.891-4.653-1.345-6.941 3.766-5.577 7.871-11.02 12.202-16.178 1.776-2.114 4.93-2.39 7.044-.613 2.115 1.776 2.39 4.93.614 7.045-4.108 4.891-8.001 10.053-11.573 15.342-.966 1.429-2.543 2.202-4.148 2.202zm277.63-39.187c-1.134 0-2.273-.384-3.211-1.17-4.897-4.108-10.062-8-15.347-11.565-2.289-1.545-2.894-4.652-1.35-6.941 1.544-2.288 4.651-2.894 6.941-1.35 5.574 3.76 11.019 7.863 16.183 12.196 2.115 1.774 2.392 4.928.616 7.044-.987 1.179-2.404 1.786-3.832 1.786zm-237.374-3.971c-1.485 0-2.955-.658-3.94-1.918-1.702-2.175-1.319-5.317.855-7.02 5.305-4.152 10.887-8.07 16.589-11.644 2.34-1.468 5.426-.759 6.892 1.581s.758 5.426-1.582 6.892c-5.41 3.391-10.704 7.106-15.736 11.046-.914.716-2 1.063-3.078 1.063zm186.788-26.411c-.622 0-1.254-.116-1.867-.363-5.915-2.384-12.03-4.48-18.177-6.232-2.656-.757-4.195-3.523-3.438-6.179.758-2.657 3.521-4.196 6.18-3.438 6.482 1.848 12.934 4.06 19.174 6.574 2.561 1.032 3.801 3.945 2.769 6.507-.786 1.947-2.66 3.131-4.641 3.131zm-135.203-2.272c-2.041 0-3.957-1.258-4.697-3.286-.947-2.594.388-5.465 2.982-6.412 6.332-2.311 12.854-4.311 19.386-5.941 2.673-.672 5.393.958 6.062 3.639.669 2.68-.96 5.394-3.64 6.062-6.193 1.547-12.376 3.442-18.379 5.635-.566.205-1.145.303-1.714.303zm77.692-10.917c-.124 0-.249-.004-.374-.014l-.079-.005c-6.348-.438-12.823-.55-19.124-.332-2.742.115-5.074-2.065-5.168-4.825s2.065-5.074 4.825-5.169c6.644-.229 13.453-.11 20.18.352l.104.008c2.754.204 4.821 2.602 4.617 5.355-.194 2.627-2.388 4.63-4.981 4.63z" fill="#f9c744"/></g><g><g><g><path d="m379.266 354.837c0 24.446-7.12 47.235-19.387 66.406-21.912 34.199-60.242 56.86-103.878 56.86-68.072 0-123.266-55.184-123.266-123.266 0-42.985 22.01-80.833 55.371-102.892 19.466-12.879 42.808-20.373 67.895-20.373 68.081 0 123.265 55.193 123.265 123.265z" fill="#4fcae8"/><path d="m357.738 376.365c0 24.446-7.12 47.235-19.387 66.406-2.051 3.205-4.25 6.311-6.587 9.309 0 0-.01.01-.01.02-20.896 16.291-47.186 26.004-75.754 26.004-68.072 0-123.266-55.184-123.266-123.266 0-28.548 9.703-54.829 26.004-75.724 2.534-1.982 5.148-3.866 7.84-5.641 19.466-12.879 42.808-20.373 67.895-20.373 68.082-.001 123.265 55.192 123.265 123.265z" fill="#22a8b9"/><path d="m234.473 253.099c-19.315 0-37.587 4.458-53.861 12.38-7.622 16.027-11.904 33.949-11.904 52.872 0 68.072 55.184 123.266 123.266 123.266 19.32 0 37.592-4.456 53.864-12.377 7.618-16.028 11.901-33.951 11.901-52.875-.001-68.073-55.184-123.266-123.266-123.266z" fill="#22bce0"/><path d="m379.236 357.303c.02-.818.03-1.647.03-2.465s-.01-1.647-.03-2.465h-63.566c-.168-18.588-2.347-36.171-6.104-51.87 16.251-6.607 29.643-16.123 38.636-27.483-1.104-1.243-2.229-2.455-3.382-3.649-4.546 5.897-10.473 11.38-17.652 16.261-5.739 3.895-12.05 7.258-18.815 10.059-10.137-38.104-29.771-63.97-52.353-64.118h-.296c-22.622.079-42.295 25.965-52.442 64.118-6.765-2.801-13.076-6.163-18.815-10.059-7.11-4.822-12.968-10.226-17.484-16.044-1.144 1.193-2.268 2.416-3.363 3.668 8.984 11.262 22.306 20.689 38.449 27.247-3.757 15.699-5.936 33.282-6.104 51.87h-63.181c-.02.819-.03 1.647-.03 2.465s.01 1.647.03 2.465h63.181c.158 17.898 2.189 34.86 5.69 50.105-16.439 6.755-29.929 16.478-38.843 28.095 1.095 1.262 2.209 2.505 3.353 3.718 4.625-6.222 10.768-11.991 18.302-17.109 5.611-3.806 11.764-7.11 18.362-9.871 10.009 39.11 29.929 65.784 52.896 65.863h.295c22.927-.158 42.818-26.803 52.807-65.863 6.597 2.761 12.751 6.065 18.362 9.871 7.623 5.177 13.826 11.035 18.47 17.346 1.144-1.213 2.268-2.455 3.363-3.718-8.915-11.715-22.474-21.527-39.021-28.331 3.501-15.245 5.532-32.207 5.69-50.105h63.565zm-161.34-87.469c10.443-21.488 23.904-33.331 37.907-33.331s27.464 11.843 37.907 33.331c4.033 8.293 7.396 17.602 10.039 27.651-14.535 5.325-30.905 8.155-47.945 8.155s-33.41-2.83-47.945-8.155c2.641-10.049 6.004-19.358 10.037-27.651zm75.813 170.017c-10.443 21.488-23.904 33.321-37.907 33.321s-27.464-11.833-37.907-33.321c-4.27-8.777-7.79-18.697-10.492-29.426 14.644-5.434 31.181-8.323 48.399-8.323 17.228 0 33.765 2.889 48.409 8.323-2.711 10.729-6.232 20.65-10.502 29.426zm11.656-34.228c-14.752-5.394-31.635-8.451-49.563-8.451s-34.8 3.057-49.553 8.451c-3.373-14.96-5.217-31.339-5.374-48.32h109.865c-.158 16.981-2.002 33.36-5.375 48.32zm-104.489-53.251c.158-17.661 2.16-34.672 5.789-50.105 14.654 5.305 31.378 8.303 49.139 8.303s34.495-2.998 49.148-8.303c3.629 15.433 5.631 32.444 5.789 50.105z" fill="#cde6f6"/></g><g><g><path d="m324.973 315.934v75.659c0 2.555-.685 4.952-1.879 7.015-1.554 2.696-3.986 4.829-6.901 5.997-1.616.659-3.389 1.018-5.242 1.018h-109.893c-1.861 0-3.635-.36-5.251-1.018-2.915-1.177-5.347-3.301-6.901-5.997-1.194-2.063-1.879-4.46-1.879-7.015v-75.659c0-5.892 3.626-10.94 8.78-13.012 1.616-.659 3.389-1.019 5.251-1.019h109.893c1.853 0 3.626.36 5.242 1.019 5.145 2.071 8.78 7.111 8.78 13.012z" fill="#d48d77"/><path d="m204.588 315.934v75.659c0 5.9-3.635 10.94-8.78 13.012-5.154-2.072-8.78-7.121-8.78-13.012v-75.659c0-5.892 3.626-10.94 8.78-13.012 5.145 2.071 8.78 7.111 8.78 13.012z" fill="#c17e62"/><path d="m324.973 315.934v75.659c0 2.555-.685 4.952-1.879 7.015-1.554 2.696-3.986 4.829-6.901 5.997-2.915-1.177-5.347-3.301-6.901-5.997-1.194-2.063-1.879-4.46-1.879-7.015v-75.659c0-5.892 3.626-10.94 8.78-13.012 5.145 2.071 8.78 7.111 8.78 13.012z" fill="#eea47d"/><path d="m323.094 398.607c-2.423 4.197-6.954 7.015-12.143 7.015h-109.893c-1.861 0-3.635-.36-5.251-1.018-2.915-1.177-5.347-3.301-6.901-5.997 1.554-2.695 3.986-4.82 6.901-5.997 1.616-.659 3.389-1.018 5.251-1.018h109.893c5.189 0 9.719 2.819 12.143 7.015z" fill="#a26d5a"/></g><g><path d="m308.046 359.863h-104.092c-9.348 0-16.927-7.578-16.927-16.927v-7.756h137.945v7.756c.001 9.348-7.578 16.927-16.926 16.927z" fill="#a26d5a"/><path d="m324.973 315.934v23.232c0 6.102-4.952 11.054-11.054 11.054h-115.837c-6.102 0-11.054-4.952-11.054-11.054v-23.232c0-5.892 3.626-10.94 8.78-13.012 1.616-.659 3.389-1.019 5.251-1.019h109.893c1.853 0 3.626.36 5.242 1.019 5.144 2.071 8.779 7.111 8.779 13.012z" fill="#c17e62"/><path d="m204.588 315.934v34.286h-6.506c-6.102 0-11.054-4.952-11.054-11.054v-23.232c0-5.892 3.626-10.94 8.78-13.012 5.145 2.071 8.78 7.111 8.78 13.012z" fill="#a26d5a"/><path d="m324.973 315.934v23.232c0 6.102-4.952 11.054-11.054 11.054h-6.506v-34.286c0-5.892 3.626-10.94 8.78-13.012 5.145 2.071 8.78 7.111 8.78 13.012z" fill="#d48d77"/><path d="m292.654 309.292h-73.308c-4.248 0-7.691 3.444-7.691 7.691 0 4.248 3.443 7.691 7.691 7.691h73.308c4.248 0 7.691-3.443 7.691-7.691 0-4.247-3.443-7.691-7.691-7.691z" fill="#d48d77"/><path d="m288.546 319.171h-46.43c-2.728 0-4.939-2.211-4.939-4.939s2.211-4.939 4.939-4.939h46.43c2.728 0 4.939 2.211 4.939 4.939 0 2.727-2.211 4.939-4.939 4.939z" fill="#eea47d"/></g><g><g><path d="m223 336.347c-.992-.738-2.221-1.168-3.556-1.168h-8.85c-1.326 0-2.555.43-3.547 1.168-1.493 1.08-2.458 2.845-2.458 4.838v18.07c0 1.993.966 3.758 2.458 4.838.992.738 2.221 1.168 3.547 1.168h8.85c1.335 0 2.564-.43 3.556-1.168 1.484-1.089 2.45-2.854 2.45-4.838v-18.07c-.001-1.984-.966-3.749-2.45-4.838zm-2.456 20.017c0 1.932-1.566 3.499-3.499 3.499h-4.047c-1.932 0-3.499-1.566-3.499-3.499v-12.288c0-1.932 1.566-3.499 3.499-3.499h4.047c1.932 0 3.499 1.566 3.499 3.499z" fill="#f9c744"/><path d="m225.449 341.185v18.07c0 1.984-.966 3.749-2.45 4.838-1.493-1.089-2.458-2.854-2.458-4.838v-18.07c0-1.984.966-3.749 2.458-4.838 1.485 1.089 2.45 2.854 2.45 4.838z" fill="#fad98f"/><path d="m209.496 341.185v18.07c0 1.984-.966 3.749-2.45 4.838-1.493-1.08-2.458-2.845-2.458-4.838v-18.07c0-1.993.966-3.758 2.458-4.838 1.484 1.089 2.45 2.854 2.45 4.838z" fill="#f39e22"/><path d="m223 336.347c-.992-.738-2.221-1.168-3.556-1.168h-5.646c.322 1.977 1.078 3.805 2.157 5.398h1.09c1.932 0 3.499 1.566 3.499 3.499v.732c1.485.837 3.14 1.41 4.906 1.636v-5.259c-.001-1.984-.966-3.749-2.45-4.838z" fill="#faefdc"/></g><g><path d="m304.963 336.347c-.992-.738-2.221-1.168-3.556-1.168h-8.85c-1.326 0-2.555.43-3.547 1.168-1.493 1.08-2.458 2.845-2.458 4.838v18.07c0 1.993.966 3.758 2.458 4.838.992.738 2.221 1.168 3.547 1.168h8.85c1.335 0 2.564-.43 3.556-1.168 1.484-1.089 2.45-2.854 2.45-4.838v-18.07c-.001-1.984-.967-3.749-2.45-4.838zm-2.457 20.017c0 1.932-1.566 3.499-3.499 3.499h-4.047c-1.932 0-3.499-1.566-3.499-3.499v-12.288c0-1.932 1.566-3.499 3.499-3.499h4.047c1.932 0 3.499 1.566 3.499 3.499z" fill="#f9c744"/><path d="m307.412 341.185v18.07c0 1.984-.966 3.749-2.45 4.838-1.493-1.089-2.458-2.854-2.458-4.838v-18.07c0-1.984.966-3.749 2.458-4.838 1.484 1.089 2.45 2.854 2.45 4.838z" fill="#fad98f"/><path d="m291.459 341.185v18.07c0 1.984-.966 3.749-2.45 4.838-1.493-1.08-2.458-2.845-2.458-4.838v-18.07c0-1.993.966-3.758 2.458-4.838 1.484 1.089 2.45 2.854 2.45 4.838z" fill="#f39e22"/><path d="m304.963 336.347c-.992-.738-2.221-1.168-3.556-1.168h-5.646c.322 1.977 1.078 3.805 2.157 5.398h1.09c1.932 0 3.499 1.566 3.499 3.499v.732c1.485.837 3.14 1.41 4.906 1.636v-5.259c-.001-1.984-.967-3.749-2.45-4.838z" fill="#faefdc"/></g></g><g><path d="m286.551 288.794v13.109h-10.527v-8.341c0-4.618-3.749-8.367-8.376-8.367h-23.285c-4.627 0-8.376 3.749-8.376 8.367v8.341h-10.527v-13.109c0-1.378.219-2.704.615-3.942 1.668-5.198 6.541-8.965 12.292-8.965h35.279c5.751 0 10.624 3.767 12.292 8.965.393 1.238.613 2.564.613 3.942z" fill="#a26d5a"/><path d="m285.936 284.852c-1.405 5.005-5.11 9.035-9.913 10.887v-2.178c0-4.618-3.749-8.367-8.376-8.367h-23.285c-4.627 0-8.376 3.749-8.376 8.367v2.178c-2.16-.834-4.1-2.107-5.707-3.714-1.967-1.967-3.433-4.425-4.206-7.173 1.668-5.198 6.541-8.965 12.292-8.965h35.279c5.751 0 10.624 3.767 12.292 8.965z" fill="#c17e62"/><path d="m273.428 285.194h-27.068c-2.515 0-4.554-2.039-4.554-4.554v-.198c0-2.515 2.039-4.554 4.554-4.554h27.069c2.515 0 4.554 2.039 4.554 4.554v.198c0 2.515-2.039 4.554-4.555 4.554z" fill="#d48d77"/></g></g></g><g><g><path d="m256.009 75.948c-3.722 0-7.35.361-10.844 1.082-9.8 1.937-18.649 6.495-25.828 12.895-11.3 10.084-18.402 24.746-18.402 41.078 0 22.751 30.785 77.826 46.32 104.186 3.931 6.666 13.56 6.666 17.491 0 3.475-5.906 7.748-13.275 12.23-21.384.38-.646.741-1.311 1.101-1.975 15.326-27.803 32.988-63.583 32.988-80.826 0-30.406-24.651-55.056-55.056-55.056zm0 77.009c-1.5 0-2.963-.152-4.368-.418-10.046-2.051-17.586-10.92-17.586-21.536 0-8.147 4.444-15.269 11.053-19.048 3.21-1.842 6.932-2.887 10.901-2.887 12.116 0 21.935 9.818 21.935 21.935s-9.818 21.954-21.935 21.954z" fill="#e9465e"/><path d="m311.065 131.003c0 17.244-17.662 53.023-32.988 80.826-.361.665-.722 1.33-1.101 1.975-11.186-18.858-19.789-39.445-25.334-61.266 1.405.266 2.868.418 4.368.418 12.116 0 21.935-9.838 21.935-21.954 0-12.117-9.819-21.935-21.935-21.935-3.969 0-7.691 1.045-10.901 2.887-.418-5.621-.627-11.3-.627-17.016 0-6.02.228-12.003.684-17.909 3.494-.722 7.122-1.082 10.844-1.082 30.404.001 55.055 24.651 55.055 55.056z" fill="#ee6781"/></g><g><g><g><path d="m300.298 80.834v65.732c0 2.63-1.586 4.884-3.852 5.868h-.003c-.778.336-1.634.523-2.536.523h-75.815c-.902 0-1.758-.188-2.536-.523-2.267-.98-3.855-3.238-3.855-5.868v-65.732l44.298-44.433z" fill="#fbcb74"/><path d="m300.298 80.834v65.732c0 2.63-1.586 4.884-3.852 5.868h-.003c-2.264-.983-3.852-3.238-3.852-5.868v-65.732c0-2.627 1.589-4.881 3.852-5.868h.003c2.266.984 3.852 3.242 3.852 5.868z" fill="#faefdc"/><path d="m219.408 80.834v65.732c0 2.63-1.586 4.887-3.852 5.868-2.267-.98-3.855-3.238-3.855-5.868v-65.732c0-2.627 1.589-4.884 3.855-5.868 2.267.984 3.852 3.242 3.852 5.868z" fill="#deb36f"/><path d="m282.959 77.42c0 2.128-1.725 3.854-3.854 3.854h-46.212c-2.128 0-3.854-1.725-3.854-3.854 0-2.128 1.725-3.854 3.854-3.854h46.212c2.129 0 3.854 1.725 3.854 3.854z" fill="#fbd9a3"/></g><g><path d="m273.344 134.215h-34.688c-3.987 0-7.22-3.232-7.22-7.22v-34.687c0-3.987 3.232-7.22 7.22-7.22h34.688c3.987 0 7.22 3.232 7.22 7.22v34.688c0 3.987-3.233 7.219-7.22 7.219z" fill="#c4983d"/><g><g><path d="m254.569 93.4v10.739c0 .023 0 .052-.006.074-.034 2.221-1.843 4.007-4.076 4.007h-10.739c-2.255 0-4.087-1.826-4.087-4.081v-10.739c0-2.232 1.792-4.047 4.013-4.081.023-.006.051-.006.074-.006h10.739c2.256 0 4.082 1.831 4.082 4.087z" fill="#6052a3"/><path d="m254.569 93.4v10.739c0 .023 0 .052-.006.074-.023.006-.052.006-.074.006h-5.186c-5.324 0-9.634-4.316-9.634-9.634v-5.192c0-.023 0-.051.006-.074.023-.006.051-.006.074-.006h10.739c2.255 0 4.081 1.831 4.081 4.087z" fill="#57409b"/><path d="m249.598 102.375c-1.37 0-2.48-1.11-2.48-2.48v-6.127c0-1.37 1.11-2.48 2.48-2.48s2.48 1.11 2.48 2.48v6.127c0 1.37-1.11 2.48-2.48 2.48z" fill="#9175a7"/></g><g><path d="m276.339 93.4v10.739c0 .023 0 .052-.006.074-.034 2.221-1.843 4.007-4.076 4.007h-10.739c-2.255 0-4.087-1.826-4.087-4.081v-10.739c0-2.232 1.792-4.047 4.013-4.081.023-.006.052-.006.074-.006h10.739c2.256 0 4.082 1.831 4.082 4.087z" fill="#6052a3"/><path d="m276.339 93.4v10.739c0 .023 0 .052-.006.074-.023.006-.052.006-.074.006h-5.186c-5.324 0-9.634-4.316-9.634-9.634v-5.192c0-.023 0-.051.006-.074.023-.006.052-.006.074-.006h10.739c2.255 0 4.081 1.831 4.081 4.087z" fill="#57409b"/><path d="m271.368 102.375c-1.37 0-2.48-1.11-2.48-2.48v-6.127c0-1.37 1.11-2.48 2.48-2.48s2.48 1.11 2.48 2.48v6.127c0 1.37-1.11 2.48-2.48 2.48z" fill="#9175a7"/></g><g><path d="m254.569 115.17v10.739c0 .023 0 .052-.006.074-.034 2.221-1.843 4.007-4.076 4.007h-10.739c-2.255 0-4.087-1.826-4.087-4.081v-10.739c0-2.232 1.792-4.047 4.013-4.081.023-.006.051-.006.074-.006h10.739c2.256-.001 4.082 1.831 4.082 4.087z" fill="#6052a3"/><path d="m254.569 115.17v10.739c0 .023 0 .052-.006.074-.023.006-.052.006-.074.006h-5.186c-5.324 0-9.634-4.316-9.634-9.634v-5.192c0-.023 0-.051.006-.074.023-.006.051-.006.074-.006h10.739c2.255-.001 4.081 1.831 4.081 4.087z" fill="#57409b"/><path d="m249.598 124.145c-1.37 0-2.48-1.11-2.48-2.48v-6.127c0-1.37 1.11-2.48 2.48-2.48s2.48 1.11 2.48 2.48v6.127c0 1.369-1.11 2.48-2.48 2.48z" fill="#9175a7"/></g><g><path d="m276.339 115.17v10.739c0 .023 0 .052-.006.074-.034 2.221-1.843 4.007-4.076 4.007h-10.739c-2.255 0-4.087-1.826-4.087-4.081v-10.739c0-2.232 1.792-4.047 4.013-4.081.023-.006.052-.006.074-.006h10.739c2.256-.001 4.082 1.831 4.082 4.087z" fill="#6052a3"/><path d="m276.339 115.17v10.739c0 .023 0 .052-.006.074-.023.006-.052.006-.074.006h-5.186c-5.324 0-9.634-4.316-9.634-9.634v-5.192c0-.023 0-.051.006-.074.023-.006.052-.006.074-.006h10.739c2.255-.001 4.081 1.831 4.081 4.087z" fill="#57409b"/><path d="m271.368 124.145c-1.37 0-2.48-1.11-2.48-2.48v-6.127c0-1.37 1.11-2.48 2.48-2.48s2.48 1.11 2.48 2.48v6.127c0 1.369-1.11 2.48-2.48 2.48z" fill="#9175a7"/></g></g></g><g><path d="m316.448 90.454c0 1.371-.523 2.739-1.568 3.783-2.1 2.1-5.51 2.088-7.595-.027l-47.476-48.187c-2.094-2.127-5.526-2.127-7.62 0l-47.476 48.187c-1.047 1.062-2.43 1.595-3.81 1.595-1.371 0-2.742-.524-3.786-1.567-1.764-1.764-2.037-4.454-.823-6.506.224-.378.499-.735.823-1.059l55.107-55.104c2.088-2.091 5.477-2.088 7.565 0l55.089 55.104c.324.324.599.681.823 1.059.498.837.747 1.778.747 2.722z" fill="#e9465e"/><path d="m315.703 87.731c-.224.378-.499.735-.823 1.059v.003c-2.1 2.1-5.51 2.085-7.595-.03l-47.476-48.187c-2.094-2.127-5.526-2.127-7.62 0l-47.476 48.187c-1.047 1.062-2.43 1.595-3.813 1.595-1.371 0-2.739-.52-3.783-1.564-.327-.327-.599-.684-.823-1.062.224-.378.499-.735.823-1.059l55.107-55.104c2.088-2.091 5.477-2.088 7.565 0l55.089 55.104c.326.322.601.679.825 1.058z" fill="#ee6781"/><g fill="#f789a1"><path d="m218.438 70.256-.156-.153c-1.277-1.253-1.286-3.307-.021-4.572l20.768-20.766c1.249-1.249 3.271-1.258 4.531-.02 1.269 1.247 1.286 3.287.037 4.554l-20.611 20.92c-1.247 1.264-3.281 1.281-4.548.037z"/><path d="m293.564 70.256.153-.15c1.28-1.255 1.29-3.313.023-4.58l-20.755-20.761c-1.249-1.25-3.272-1.26-4.534-.024-1.274 1.248-1.293 3.294-.041 4.564l20.602 20.911c1.247 1.266 3.283 1.284 4.552.04z"/></g></g></g></g></g></g></g></svg>