<svg id="Icons" enable-background="new 0 0 512 512" height="512" viewBox="0 0 512 512" width="512" xmlns="http://www.w3.org/2000/svg"><g><circle cx="256" cy="256" fill="#53b976" r="256"/><g><g><g><path d="m363.921 94.493c-8.919-9.944-21.928-16.204-36.338-16.204-6.812 0-13.298 1.395-19.185 3.934-4.349 1.858-8.364 4.342-11.957 7.323-.422-10.933-3.344-21.219-8.197-30.322l5.362 1.003-15.829-15.737c-1.37-1.484-2.803-2.908-4.294-4.269l-.098-.097.001.009c-12.886-11.721-30.126-18.739-49.016-18.326-37.64.823-68.313 31.652-68.958 69.295-.004.248-.007.495-.009.742-.07 10.286-8.143 18.714-18.423 19.059-.305.01-.61.023-.916.039-24.476 1.272-44.446 20.957-46.027 45.415-1.229 19.004 8.446 35.857 23.381 44.916 7.357 4.465 15.993 7.037 25.235 7.037h255.322c19.474 0 35.843-15.433 36.092-34.906.075-5.888-1.286-11.448-3.76-16.354-5.819-11.556-17.79-19.478-31.612-19.478-.585 0-1.164.014-1.742.048-7.602.368-14.571 3.137-20.172 7.568 2.266-5.621 3.525-11.753 3.525-18.185 0-6.834-1.411-13.339-3.954-19.243l5.535.69z" fill="#c2aacf"/></g><g><path d="m430.011 174.993c-1.061 18.83-17.143 33.318-36.003 33.318h-255.356c-9.242 0-17.878-2.573-25.235-7.037-4.684-7.708-7.285-16.82-7.026-26.561.675-25.437 21.275-46.333 46.7-47.355.322-.013.644-.023.965-.029 10.444-.218 18.643-8.716 18.889-19.16.018-.771.049-1.544.092-2.32 1.972-35.444 30.547-64.216 65.979-66.397 16.698-1.028 32.247 3.757 44.807 12.541 10.787 7.52 19.362 17.987 24.575 30.231.032.074.063.149.095.224 4.388 10.378 15.377 16.132 26.419 13.887 3.147-.64 6.404-.976 9.74-.976 9.079 0 17.572 2.484 24.847 6.806 12.543 7.445 21.451 20.362 23.452 35.457.279 2.11.422 4.267.422 6.459 0 .142-.001.285-.002.427-.051 5.907 5.211 10.292 11.033 9.292 1.953-.336 3.961-.511 6.01-.511 5.717 0 11.114 1.354 15.891 3.764 2.696 5.344 4.071 11.464 3.706 17.94z" fill="#f0dae2"/></g><g><g><path d="m289.558 108.009c-4.664 0-9.199-2.415-11.707-6.74-5.365-9.253-14.012-15.863-24.348-18.612-10.336-2.753-21.125-1.311-30.378 4.055-6.459 3.745-14.73 1.544-18.475-4.914-3.744-6.458-1.544-14.729 4.914-18.474 15.5-8.986 33.572-11.398 50.888-6.795 17.315 4.605 31.8 15.678 40.787 31.179 3.744 6.458 1.544 14.73-4.914 18.474-2.134 1.239-4.467 1.827-6.767 1.827z" fill="#fff"/></g><g><path d="m215.082 179.037c-3.347 0-6.699-1.235-9.314-3.724-5.409-5.145-5.623-13.701-.477-19.11 12.349-12.982 29.014-20.378 46.925-20.826 17.921-.414 34.926 6.107 47.908 18.457 5.409 5.145 5.622 13.701.477 19.11-5.145 5.41-13.702 5.624-19.111.477-7.749-7.372-17.911-11.288-28.598-11.018-10.693.267-20.641 4.683-28.013 12.432-2.658 2.795-6.225 4.202-9.797 4.202z" fill="#fff"/></g><g><path d="m371.791 161.125c-5.983 0-11.453-4.002-13.058-10.059-2.95-11.136-13.803-17.958-24.2-15.204-7.216 1.91-14.616-2.389-16.528-9.606-1.911-7.216 2.389-14.616 9.606-16.527 24.799-6.573 50.487 8.868 57.255 34.414 1.912 7.216-2.388 14.617-9.605 16.528-1.159.308-2.324.454-3.47.454z" fill="#fff"/></g><g><path d="m131.889 194.612c-.35 0-.702-.014-1.057-.041-7.443-.576-13.011-7.076-12.436-14.519.966-12.498 6.913-23.829 16.746-31.905 9.669-7.941 21.966-11.775 34.626-10.797 7.444.576 13.011 7.076 12.436 14.52-.576 7.443-7.071 13.021-14.519 12.435-5.673-.436-11.133 1.244-15.385 4.735-4.088 3.357-6.557 8.008-6.949 13.094-.547 7.09-6.47 12.477-13.462 12.478z" fill="#fff"/></g></g></g><g><g><path d="m340.624 149.891v93.185c0 3.147-.843 6.099-2.314 8.64-1.914 3.32-4.91 5.948-8.5 7.386-1.99.811-4.174 1.254-6.456 1.254h-135.349c-2.293 0-4.477-.443-6.467-1.254-3.59-1.449-6.586-4.066-8.5-7.386-1.471-2.541-2.314-5.494-2.314-8.64v-93.185c0-7.256 4.466-13.474 10.814-16.026 1.99-.811 4.174-1.254 6.467-1.254h135.349c2.282 0 4.466.443 6.456 1.254 6.337 2.552 10.814 8.759 10.814 16.026z" fill="#d48d77"/><path d="m192.353 149.891v93.185c0 7.267-4.477 13.474-10.814 16.026-6.348-2.552-10.814-8.77-10.814-16.026v-93.185c0-7.256 4.466-13.474 10.814-16.026 6.337 2.552 10.814 8.759 10.814 16.026z" fill="#c17e62"/><path d="m340.624 149.891v93.185c0 3.147-.843 6.099-2.314 8.64-1.914 3.32-4.91 5.948-8.5 7.386-3.59-1.449-6.586-4.066-8.5-7.386-1.471-2.541-2.314-5.494-2.314-8.64v-93.185c0-7.256 4.466-13.474 10.814-16.026 6.337 2.552 10.814 8.759 10.814 16.026z" fill="#eea47d"/><path d="m338.31 251.716c-2.985 5.169-8.565 8.64-14.956 8.64h-135.349c-2.293 0-4.477-.443-6.467-1.254-3.59-1.449-6.586-4.066-8.5-7.386 1.914-3.32 4.91-5.937 8.5-7.386 1.99-.811 4.174-1.254 6.467-1.254h135.349c6.391 0 11.971 3.471 14.956 8.64z" fill="#a26d5a"/></g><g><path d="m319.776 203.996h-128.204c-11.514 0-20.848-9.334-20.848-20.848v-9.553h169.9v9.553c0 11.514-9.334 20.848-20.848 20.848z" fill="#a26d5a"/><path d="m340.624 149.891v28.614c0 7.516-6.099 13.615-13.615 13.615h-142.669c-7.516 0-13.615-6.099-13.615-13.615v-28.614c0-7.256 4.466-13.474 10.814-16.026 1.99-.811 4.174-1.254 6.467-1.254h135.349c2.282 0 4.466.443 6.456 1.254 6.336 2.552 10.813 8.759 10.813 16.026z" fill="#c17e62"/><path d="m192.353 149.891v42.229h-8.013c-7.516 0-13.615-6.099-13.615-13.615v-28.614c0-7.256 4.466-13.474 10.814-16.026 6.337 2.552 10.814 8.759 10.814 16.026z" fill="#a26d5a"/><path d="m340.624 149.891v28.614c0 7.516-6.099 13.615-13.615 13.615h-8.013v-42.229c0-7.256 4.466-13.474 10.814-16.026 6.337 2.552 10.814 8.759 10.814 16.026z" fill="#d48d77"/><path d="m300.819 141.711h-90.29c-5.232 0-9.473 4.241-9.473 9.473s4.241 9.473 9.473 9.473h90.29c5.232 0 9.473-4.241 9.473-9.473s-4.241-9.473-9.473-9.473z" fill="#d48d77"/><path d="m295.76 153.878h-57.185c-3.36 0-6.083-2.724-6.083-6.083 0-3.36 2.724-6.083 6.083-6.083h57.185c3.36 0 6.083 2.724 6.083 6.083s-2.724 6.083-6.083 6.083z" fill="#eea47d"/></g><g><g><path d="m215.03 175.034c-1.222-.908-2.736-1.438-4.38-1.438h-10.901c-1.633 0-3.147.53-4.369 1.438-1.838 1.33-3.028 3.504-3.028 5.959v22.255c0 2.455 1.19 4.628 3.028 5.959 1.222.908 2.736 1.438 4.369 1.438h10.901c1.644 0 3.158-.53 4.38-1.438 1.828-1.341 3.017-3.515 3.017-5.959v-22.255c0-2.445-1.19-4.619-3.017-5.959zm-3.025 24.653c0 2.38-1.929 4.309-4.309 4.309h-4.985c-2.38 0-4.309-1.929-4.309-4.309v-15.134c0-2.38 1.929-4.309 4.309-4.309h4.985c2.38 0 4.309 1.929 4.309 4.309z" fill="#f9c744"/><path d="m218.047 180.992v22.255c0 2.444-1.19 4.618-3.017 5.959-1.838-1.341-3.028-3.515-3.028-5.959v-22.255c0-2.444 1.19-4.618 3.028-5.959 1.827 1.341 3.017 3.515 3.017 5.959z" fill="#fad98f"/><path d="m198.398 180.992v22.255c0 2.444-1.19 4.618-3.017 5.959-1.838-1.33-3.028-3.504-3.028-5.959v-22.255c0-2.455 1.19-4.628 3.028-5.959 1.827 1.341 3.017 3.515 3.017 5.959z" fill="#f39e22"/><path d="m215.03 175.034c-1.222-.908-2.736-1.438-4.38-1.438h-6.953c.396 2.435 1.328 4.686 2.657 6.648h1.342c2.38 0 4.309 1.929 4.309 4.309v.902c1.829 1.031 3.868 1.736 6.042 2.015v-6.478c0-2.444-1.19-4.618-3.017-5.958z" fill="#faefdc"/></g><g><path d="m315.979 175.034c-1.222-.908-2.736-1.438-4.38-1.438h-10.901c-1.633 0-3.147.53-4.369 1.438-1.838 1.33-3.028 3.504-3.028 5.959v22.255c0 2.455 1.19 4.628 3.028 5.959 1.222.908 2.736 1.438 4.369 1.438h10.901c1.644 0 3.158-.53 4.38-1.438 1.828-1.341 3.017-3.515 3.017-5.959v-22.255c0-2.445-1.19-4.619-3.017-5.959zm-3.025 24.653c0 2.38-1.929 4.309-4.309 4.309h-4.985c-2.38 0-4.309-1.929-4.309-4.309v-15.134c0-2.38 1.929-4.309 4.309-4.309h4.985c2.38 0 4.309 1.929 4.309 4.309z" fill="#f9c744"/><path d="m318.996 180.992v22.255c0 2.444-1.19 4.618-3.017 5.959-1.838-1.341-3.028-3.515-3.028-5.959v-22.255c0-2.444 1.19-4.618 3.028-5.959 1.827 1.341 3.017 3.515 3.017 5.959z" fill="#fad98f"/><path d="m299.347 180.992v22.255c0 2.444-1.19 4.618-3.017 5.959-1.838-1.33-3.028-3.504-3.028-5.959v-22.255c0-2.455 1.19-4.628 3.028-5.959 1.827 1.341 3.017 3.515 3.017 5.959z" fill="#f39e22"/><path d="m315.979 175.034c-1.222-.908-2.736-1.438-4.38-1.438h-6.953c.396 2.435 1.328 4.686 2.657 6.648h1.342c2.38 0 4.309 1.929 4.309 4.309v.902c1.829 1.031 3.868 1.736 6.042 2.015v-6.478c0-2.444-1.19-4.618-3.017-5.958z" fill="#faefdc"/></g></g><g><path d="m293.302 116.465v16.145h-12.966v-10.273c0-5.688-4.618-10.306-10.317-10.306h-28.679c-5.699 0-10.317 4.618-10.317 10.306v10.273h-12.966v-16.145c0-1.698.27-3.331.757-4.855 2.055-6.402 8.056-11.041 15.14-11.041h43.451c7.083 0 13.085 4.639 15.14 11.041.486 1.524.757 3.157.757 4.855z" fill="#a26d5a"/><path d="m292.545 111.609c-1.73 6.164-6.294 11.128-12.209 13.409v-2.682c0-5.688-4.618-10.306-10.317-10.306h-28.679c-5.699 0-10.317 4.618-10.317 10.306v2.682c-2.66-1.027-5.05-2.595-7.029-4.574-2.422-2.422-4.228-5.45-5.18-8.835 2.055-6.402 8.056-11.041 15.14-11.041h43.451c7.083 0 13.085 4.639 15.14 11.041z" fill="#c17e62"/><path d="m277.14 112.031h-33.339c-3.098 0-5.609-2.511-5.609-5.609v-.244c0-3.098 2.511-5.609 5.609-5.609h33.339c3.098 0 5.609 2.511 5.609 5.609v.244c0 3.097-2.511 5.609-5.609 5.609z" fill="#d48d77"/></g></g></g><g><g><g><g><path d="m414.937 382.065v55.278c0 2.211-1.333 4.107-3.24 4.934h-.003c-.654.282-1.374.44-2.133.44h-63.758c-.758 0-1.479-.158-2.133-.44-1.906-.825-3.242-2.723-3.242-4.934v-55.278l37.253-37.367z" fill="#fbcb74"/><path d="m414.937 382.065v55.278c0 2.211-1.333 4.107-3.24 4.934h-.003c-1.904-.827-3.24-2.723-3.24-4.934v-55.278c0-2.209 1.336-4.105 3.24-4.934h.003c1.907.827 3.24 2.725 3.24 4.934z" fill="#faefdc"/><path d="m346.912 382.065v55.278c0 2.211-1.333 4.11-3.24 4.934-1.906-.825-3.242-2.723-3.242-4.934v-55.278c0-2.209 1.336-4.107 3.242-4.934 1.907.827 3.24 2.725 3.24 4.934z" fill="#deb36f"/><path d="m400.356 379.193c0 1.79-1.451 3.241-3.241 3.241h-38.863c-1.79 0-3.241-1.451-3.241-3.241s1.451-3.241 3.241-3.241h38.863c1.79.001 3.241 1.452 3.241 3.241z" fill="#fbd9a3"/></g><g><path d="m392.27 426.956h-29.171c-3.353 0-6.072-2.718-6.072-6.072v-29.171c0-3.353 2.718-6.072 6.072-6.072h29.171c3.353 0 6.072 2.718 6.072 6.072v29.171c0 3.354-2.719 6.072-6.072 6.072z" fill="#c4983d"/><g><g><path d="m376.481 392.632v9.031c0 .019 0 .043-.005.063-.029 1.868-1.55 3.37-3.428 3.37h-9.031c-1.897 0-3.437-1.536-3.437-3.432v-9.031c0-1.877 1.507-3.404 3.375-3.432.019-.005.043-.005.063-.005h9.031c1.896-.001 3.432 1.539 3.432 3.436z" fill="#6052a3"/><path d="m376.481 392.632v9.031c0 .019 0 .043-.005.063-.019.005-.043.005-.063.005h-4.361c-4.477 0-8.102-3.63-8.102-8.102v-4.366c0-.019 0-.043.005-.063.019-.005.043-.005.063-.005h9.031c1.896 0 3.432 1.54 3.432 3.437z" fill="#57409b"/><path d="m372.301 400.18c-1.152 0-2.085-.934-2.085-2.085v-5.152c0-1.152.934-2.085 2.085-2.085 1.152 0 2.085.934 2.085 2.085v5.152c0 1.151-.933 2.085-2.085 2.085z" fill="#9175a7"/></g><g><path d="m394.789 392.632v9.031c0 .019 0 .043-.005.063-.029 1.868-1.55 3.37-3.428 3.37h-9.031c-1.897 0-3.437-1.536-3.437-3.432v-9.031c0-1.877 1.507-3.404 3.375-3.432.019-.005.043-.005.063-.005h9.031c1.896-.001 3.432 1.539 3.432 3.436z" fill="#6052a3"/><path d="m394.789 392.632v9.031c0 .019 0 .043-.005.063-.019.005-.043.005-.063.005h-4.361c-4.477 0-8.102-3.63-8.102-8.102v-4.366c0-.019 0-.043.005-.063.019-.005.043-.005.063-.005h9.031c1.896 0 3.432 1.54 3.432 3.437z" fill="#57409b"/><path d="m390.609 400.18c-1.152 0-2.085-.934-2.085-2.085v-5.152c0-1.152.934-2.085 2.085-2.085 1.152 0 2.085.934 2.085 2.085v5.152c0 1.151-.934 2.085-2.085 2.085z" fill="#9175a7"/></g><g><path d="m376.481 410.94v9.031c0 .019 0 .043-.005.063-.029 1.868-1.55 3.37-3.428 3.37h-9.031c-1.897 0-3.437-1.536-3.437-3.432v-9.031c0-1.877 1.507-3.404 3.375-3.432.019-.005.043-.005.063-.005h9.031c1.896-.001 3.432 1.539 3.432 3.436z" fill="#6052a3"/><path d="m376.481 410.94v9.031c0 .019 0 .043-.005.063-.019.005-.043.005-.063.005h-4.361c-4.477 0-8.102-3.63-8.102-8.102v-4.366c0-.019 0-.043.005-.063.019-.005.043-.005.063-.005h9.031c1.896 0 3.432 1.54 3.432 3.437z" fill="#57409b"/><path d="m372.301 418.487c-1.152 0-2.085-.934-2.085-2.085v-5.152c0-1.152.934-2.085 2.085-2.085 1.152 0 2.085.934 2.085 2.085v5.152c0 1.152-.933 2.085-2.085 2.085z" fill="#9175a7"/></g><g><path d="m394.789 410.94v9.031c0 .019 0 .043-.005.063-.029 1.868-1.55 3.37-3.428 3.37h-9.031c-1.897 0-3.437-1.536-3.437-3.432v-9.031c0-1.877 1.507-3.404 3.375-3.432.019-.005.043-.005.063-.005h9.031c1.896-.001 3.432 1.539 3.432 3.436z" fill="#6052a3"/><path d="m394.789 410.94v9.031c0 .019 0 .043-.005.063-.019.005-.043.005-.063.005h-4.361c-4.477 0-8.102-3.63-8.102-8.102v-4.366c0-.019 0-.043.005-.063.019-.005.043-.005.063-.005h9.031c1.896 0 3.432 1.54 3.432 3.437z" fill="#57409b"/><path d="m390.609 418.487c-1.152 0-2.085-.934-2.085-2.085v-5.152c0-1.152.934-2.085 2.085-2.085 1.152 0 2.085.934 2.085 2.085v5.152c0 1.152-.934 2.085-2.085 2.085z" fill="#9175a7"/></g></g></g><g><path d="m428.519 390.155c0 1.153-.44 2.303-1.318 3.181-1.766 1.766-4.634 1.756-6.387-.023l-39.926-40.524c-1.761-1.789-4.647-1.789-6.408 0l-39.926 40.524c-.881.893-2.043 1.341-3.204 1.341-1.153 0-2.306-.44-3.184-1.318-1.484-1.484-1.713-3.746-.692-5.471.188-.318.42-.618.692-.891l46.344-46.341c1.756-1.758 4.606-1.756 6.362 0l46.328 46.341c.272.272.504.573.692.891.418.704.627 1.496.627 2.29z" fill="#e9465e"/><path d="m427.893 387.864c-.188.318-.42.618-.692.891v.003c-1.766 1.766-4.634 1.753-6.387-.025l-39.926-40.524c-1.761-1.789-4.647-1.789-6.408 0l-39.926 40.524c-.881.893-2.043 1.341-3.206 1.341-1.153 0-2.303-.438-3.181-1.316-.275-.275-.504-.575-.692-.893.188-.318.42-.618.692-.891l46.344-46.341c1.756-1.758 4.606-1.756 6.362 0l46.328 46.341c.272.272.504.572.692.89z" fill="#ee6781"/><g fill="#f789a1"><path d="m346.096 373.169-.132-.129c-1.074-1.054-1.082-2.781-.018-3.845l17.465-17.464c1.05-1.05 2.751-1.058 3.81-.017 1.067 1.048 1.081 2.764.031 3.83l-17.333 17.593c-1.047 1.063-2.758 1.078-3.823.032z"/><path d="m409.275 373.169.129-.126c1.076-1.055 1.085-2.786.02-3.852l-17.454-17.459c-1.051-1.051-2.752-1.06-3.813-.02-1.072 1.05-1.087 2.77-.034 3.839l17.326 17.585c1.046 1.064 2.759 1.079 3.826.033z"/></g></g></g><g><path d="m408.377 346.852v21.292l-8.548-8.551v-12.742c0-1.191.964-2.155 2.153-2.155h4.242c1.188.001 2.153.965 2.153 2.156z" fill="#c0405c"/><path d="m408.377 346.852v18.132l-3.443-3.446c-1.247-1.244-1.944-2.934-1.944-4.693v-9.993c0-1.191.964-2.155 2.153-2.155h1.082c1.187 0 2.152.964 2.152 2.155z" fill="#e9465e"/></g></g><g><g><g><path d="m293.253 382.065v55.278c0 2.211-1.333 4.107-3.24 4.934h-.003c-.654.282-1.374.44-2.133.44h-63.758c-.758 0-1.479-.158-2.133-.44-1.906-.825-3.242-2.723-3.242-4.934v-55.278l37.253-37.367z" fill="#fbcb74"/><path d="m293.253 382.065v55.278c0 2.211-1.333 4.107-3.24 4.934h-.003c-1.904-.827-3.24-2.723-3.24-4.934v-55.278c0-2.209 1.336-4.105 3.24-4.934h.003c1.906.827 3.24 2.725 3.24 4.934z" fill="#faefdc"/><path d="m225.228 382.065v55.278c0 2.211-1.333 4.11-3.24 4.934-1.906-.825-3.242-2.723-3.242-4.934v-55.278c0-2.209 1.336-4.107 3.242-4.934 1.906.827 3.24 2.725 3.24 4.934z" fill="#deb36f"/><path d="m278.672 379.193c0 1.79-1.451 3.241-3.241 3.241h-38.863c-1.79 0-3.241-1.451-3.241-3.241s1.451-3.241 3.241-3.241h38.863c1.79.001 3.241 1.452 3.241 3.241z" fill="#fbd9a3"/></g><g><path d="m270.586 426.956h-29.171c-3.353 0-6.072-2.718-6.072-6.072v-29.171c0-3.353 2.718-6.072 6.072-6.072h29.171c3.353 0 6.072 2.718 6.072 6.072v29.171c-.001 3.354-2.719 6.072-6.072 6.072z" fill="#c4983d"/><g><g><path d="m254.796 392.632v9.031c0 .019 0 .043-.005.063-.029 1.868-1.55 3.37-3.428 3.37h-9.031c-1.897 0-3.437-1.536-3.437-3.432v-9.031c0-1.877 1.507-3.404 3.375-3.432.019-.005.043-.005.063-.005h9.031c1.897-.001 3.432 1.539 3.432 3.436z" fill="#6052a3"/><path d="m254.796 392.632v9.031c0 .019 0 .043-.005.063-.019.005-.043.005-.063.005h-4.361c-4.477 0-8.102-3.63-8.102-8.102v-4.366c0-.019 0-.043.005-.063.019-.005.043-.005.063-.005h9.031c1.897 0 3.432 1.54 3.432 3.437z" fill="#57409b"/><path d="m250.616 400.18c-1.152 0-2.085-.934-2.085-2.085v-5.152c0-1.152.934-2.085 2.085-2.085 1.152 0 2.085.934 2.085 2.085v5.152c.001 1.151-.933 2.085-2.085 2.085z" fill="#9175a7"/></g><g><path d="m273.104 392.632v9.031c0 .019 0 .043-.005.063-.029 1.868-1.55 3.37-3.428 3.37h-9.031c-1.897 0-3.437-1.536-3.437-3.432v-9.031c0-1.877 1.507-3.404 3.375-3.432.019-.005.043-.005.063-.005h9.031c1.897-.001 3.432 1.539 3.432 3.436z" fill="#6052a3"/><path d="m273.104 392.632v9.031c0 .019 0 .043-.005.063-.019.005-.043.005-.063.005h-4.361c-4.477 0-8.102-3.63-8.102-8.102v-4.366c0-.019 0-.043.005-.063.019-.005.043-.005.063-.005h9.031c1.897 0 3.432 1.54 3.432 3.437z" fill="#57409b"/><path d="m268.924 400.18c-1.152 0-2.085-.934-2.085-2.085v-5.152c0-1.152.934-2.085 2.085-2.085 1.152 0 2.085.934 2.085 2.085v5.152c0 1.151-.933 2.085-2.085 2.085z" fill="#9175a7"/></g><g><path d="m254.796 410.94v9.031c0 .019 0 .043-.005.063-.029 1.868-1.55 3.37-3.428 3.37h-9.031c-1.897 0-3.437-1.536-3.437-3.432v-9.031c0-1.877 1.507-3.404 3.375-3.432.019-.005.043-.005.063-.005h9.031c1.897-.001 3.432 1.539 3.432 3.436z" fill="#6052a3"/><path d="m254.796 410.94v9.031c0 .019 0 .043-.005.063-.019.005-.043.005-.063.005h-4.361c-4.477 0-8.102-3.63-8.102-8.102v-4.366c0-.019 0-.043.005-.063.019-.005.043-.005.063-.005h9.031c1.897 0 3.432 1.54 3.432 3.437z" fill="#57409b"/><path d="m250.616 418.487c-1.152 0-2.085-.934-2.085-2.085v-5.152c0-1.152.934-2.085 2.085-2.085 1.152 0 2.085.934 2.085 2.085v5.152c.001 1.152-.933 2.085-2.085 2.085z" fill="#9175a7"/></g><g><path d="m273.104 410.94v9.031c0 .019 0 .043-.005.063-.029 1.868-1.55 3.37-3.428 3.37h-9.031c-1.897 0-3.437-1.536-3.437-3.432v-9.031c0-1.877 1.507-3.404 3.375-3.432.019-.005.043-.005.063-.005h9.031c1.897-.001 3.432 1.539 3.432 3.436z" fill="#6052a3"/><path d="m273.104 410.94v9.031c0 .019 0 .043-.005.063-.019.005-.043.005-.063.005h-4.361c-4.477 0-8.102-3.63-8.102-8.102v-4.366c0-.019 0-.043.005-.063.019-.005.043-.005.063-.005h9.031c1.897 0 3.432 1.54 3.432 3.437z" fill="#57409b"/><path d="m268.924 418.487c-1.152 0-2.085-.934-2.085-2.085v-5.152c0-1.152.934-2.085 2.085-2.085 1.152 0 2.085.934 2.085 2.085v5.152c0 1.152-.933 2.085-2.085 2.085z" fill="#9175a7"/></g></g></g><g><path d="m306.834 390.155c0 1.153-.44 2.303-1.318 3.181-1.766 1.766-4.634 1.756-6.387-.023l-39.925-40.524c-1.761-1.789-4.647-1.789-6.408 0l-39.926 40.524c-.881.893-2.043 1.341-3.204 1.341-1.153 0-2.306-.44-3.184-1.318-1.484-1.484-1.713-3.746-.692-5.471.188-.318.42-.618.692-.891l46.344-46.341c1.756-1.758 4.606-1.756 6.362 0l46.328 46.341c.272.272.504.573.692.891.418.704.626 1.496.626 2.29z" fill="#e9465e"/><path d="m306.208 387.864c-.188.318-.42.618-.692.891v.003c-1.766 1.766-4.634 1.753-6.387-.025l-39.925-40.524c-1.761-1.789-4.647-1.789-6.408 0l-39.926 40.524c-.881.893-2.043 1.341-3.206 1.341-1.153 0-2.303-.438-3.181-1.316-.275-.275-.504-.575-.692-.893.188-.318.42-.618.692-.891l46.344-46.341c1.756-1.758 4.606-1.756 6.362 0l46.328 46.341c.272.272.503.572.691.89z" fill="#ee6781"/><g fill="#f789a1"><path d="m224.411 373.169-.132-.129c-1.074-1.054-1.082-2.781-.018-3.845l17.465-17.464c1.05-1.05 2.751-1.058 3.81-.017 1.067 1.048 1.081 2.764.031 3.83l-17.333 17.593c-1.047 1.063-2.757 1.078-3.823.032z"/><path d="m287.59 373.169.129-.126c1.076-1.055 1.085-2.786.02-3.852l-17.454-17.459c-1.051-1.051-2.752-1.06-3.813-.02-1.072 1.05-1.087 2.77-.034 3.839l17.326 17.585c1.047 1.064 2.759 1.079 3.826.033z"/></g></g></g><g><path d="m286.692 346.852v21.292l-8.548-8.551v-12.742c0-1.191.964-2.155 2.153-2.155h4.242c1.189.001 2.153.965 2.153 2.156z" fill="#c0405c"/><path d="m286.692 346.852v18.132l-3.443-3.446c-1.247-1.244-1.944-2.934-1.944-4.693v-9.993c0-1.191.964-2.155 2.153-2.155h1.082c1.188 0 2.152.964 2.152 2.155z" fill="#e9465e"/></g></g><g><g><g><path d="m171.568 382.065v55.278c0 2.211-1.333 4.107-3.24 4.934h-.003c-.654.282-1.374.44-2.133.44h-63.758c-.758 0-1.479-.158-2.133-.44-1.906-.825-3.242-2.723-3.242-4.934v-55.278l37.253-37.367z" fill="#fbcb74"/><path d="m171.568 382.065v55.278c0 2.211-1.333 4.107-3.24 4.934h-.003c-1.904-.827-3.24-2.723-3.24-4.934v-55.278c0-2.209 1.336-4.105 3.24-4.934h.003c1.907.827 3.24 2.725 3.24 4.934z" fill="#faefdc"/><path d="m103.543 382.065v55.278c0 2.211-1.333 4.11-3.24 4.934-1.906-.825-3.242-2.723-3.242-4.934v-55.278c0-2.209 1.336-4.107 3.242-4.934 1.907.827 3.24 2.725 3.24 4.934z" fill="#deb36f"/><path d="m156.987 379.193c0 1.79-1.451 3.241-3.241 3.241h-38.863c-1.79 0-3.241-1.451-3.241-3.241s1.451-3.241 3.241-3.241h38.863c1.79.001 3.241 1.452 3.241 3.241z" fill="#fbd9a3"/></g><g><path d="m148.901 426.956h-29.171c-3.353 0-6.072-2.718-6.072-6.072v-29.171c0-3.353 2.718-6.072 6.072-6.072h29.171c3.353 0 6.072 2.718 6.072 6.072v29.171c0 3.354-2.719 6.072-6.072 6.072z" fill="#c4983d"/><g><g><path d="m133.112 392.632v9.031c0 .019 0 .043-.005.063-.029 1.868-1.55 3.37-3.428 3.37h-9.031c-1.897 0-3.437-1.536-3.437-3.432v-9.031c0-1.877 1.507-3.404 3.375-3.432.019-.005.043-.005.063-.005h9.031c1.896-.001 3.432 1.539 3.432 3.436z" fill="#6052a3"/><path d="m133.112 392.632v9.031c0 .019 0 .043-.005.063-.019.005-.043.005-.063.005h-4.361c-4.477 0-8.102-3.63-8.102-8.102v-4.366c0-.019 0-.043.005-.063.019-.005.043-.005.063-.005h9.031c1.896 0 3.432 1.54 3.432 3.437z" fill="#57409b"/><path d="m128.932 400.18c-1.152 0-2.085-.934-2.085-2.085v-5.152c0-1.152.934-2.085 2.085-2.085 1.152 0 2.085.934 2.085 2.085v5.152c0 1.151-.933 2.085-2.085 2.085z" fill="#9175a7"/></g><g><path d="m151.42 392.632v9.031c0 .019 0 .043-.005.063-.029 1.868-1.55 3.37-3.428 3.37h-9.031c-1.897 0-3.437-1.536-3.437-3.432v-9.031c0-1.877 1.507-3.404 3.375-3.432.019-.005.043-.005.063-.005h9.031c1.896-.001 3.432 1.539 3.432 3.436z" fill="#6052a3"/><path d="m151.42 392.632v9.031c0 .019 0 .043-.005.063-.019.005-.043.005-.063.005h-4.361c-4.477 0-8.102-3.63-8.102-8.102v-4.366c0-.019 0-.043.005-.063.019-.005.043-.005.063-.005h9.031c1.896 0 3.432 1.54 3.432 3.437z" fill="#57409b"/><path d="m147.24 400.18c-1.152 0-2.085-.934-2.085-2.085v-5.152c0-1.152.934-2.085 2.085-2.085 1.152 0 2.085.934 2.085 2.085v5.152c0 1.151-.934 2.085-2.085 2.085z" fill="#9175a7"/></g><g><path d="m133.112 410.94v9.031c0 .019 0 .043-.005.063-.029 1.868-1.55 3.37-3.428 3.37h-9.031c-1.897 0-3.437-1.536-3.437-3.432v-9.031c0-1.877 1.507-3.404 3.375-3.432.019-.005.043-.005.063-.005h9.031c1.896-.001 3.432 1.539 3.432 3.436z" fill="#6052a3"/><path d="m133.112 410.94v9.031c0 .019 0 .043-.005.063-.019.005-.043.005-.063.005h-4.361c-4.477 0-8.102-3.63-8.102-8.102v-4.366c0-.019 0-.043.005-.063.019-.005.043-.005.063-.005h9.031c1.896 0 3.432 1.54 3.432 3.437z" fill="#57409b"/><path d="m128.932 418.487c-1.152 0-2.085-.934-2.085-2.085v-5.152c0-1.152.934-2.085 2.085-2.085 1.152 0 2.085.934 2.085 2.085v5.152c0 1.152-.933 2.085-2.085 2.085z" fill="#9175a7"/></g><g><path d="m151.42 410.94v9.031c0 .019 0 .043-.005.063-.029 1.868-1.55 3.37-3.428 3.37h-9.031c-1.897 0-3.437-1.536-3.437-3.432v-9.031c0-1.877 1.507-3.404 3.375-3.432.019-.005.043-.005.063-.005h9.031c1.896-.001 3.432 1.539 3.432 3.436z" fill="#6052a3"/><path d="m151.42 410.94v9.031c0 .019 0 .043-.005.063-.019.005-.043.005-.063.005h-4.361c-4.477 0-8.102-3.63-8.102-8.102v-4.366c0-.019 0-.043.005-.063.019-.005.043-.005.063-.005h9.031c1.896 0 3.432 1.54 3.432 3.437z" fill="#57409b"/><path d="m147.24 418.487c-1.152 0-2.085-.934-2.085-2.085v-5.152c0-1.152.934-2.085 2.085-2.085 1.152 0 2.085.934 2.085 2.085v5.152c0 1.152-.934 2.085-2.085 2.085z" fill="#9175a7"/></g></g></g><g><path d="m185.15 390.155c0 1.153-.44 2.303-1.318 3.181-1.766 1.766-4.634 1.756-6.387-.023l-39.926-40.524c-1.761-1.789-4.647-1.789-6.408 0l-39.925 40.524c-.881.893-2.043 1.341-3.204 1.341-1.153 0-2.306-.44-3.184-1.318-1.484-1.484-1.713-3.746-.692-5.471.188-.318.42-.618.692-.891l46.344-46.341c1.756-1.758 4.606-1.756 6.362 0l46.328 46.341c.272.272.504.573.692.891.417.704.626 1.496.626 2.29z" fill="#e9465e"/><path d="m184.524 387.864c-.188.318-.42.618-.692.891v.003c-1.766 1.766-4.634 1.753-6.387-.025l-39.926-40.524c-1.761-1.789-4.647-1.789-6.408 0l-39.925 40.524c-.881.893-2.043 1.341-3.206 1.341-1.153 0-2.303-.438-3.181-1.316-.275-.275-.504-.575-.692-.893.188-.318.42-.618.692-.891l46.344-46.341c1.756-1.758 4.606-1.756 6.362 0l46.328 46.341c.271.272.503.572.691.89z" fill="#ee6781"/><g fill="#f789a1"><path d="m102.727 373.169-.132-.129c-1.074-1.054-1.082-2.781-.018-3.845l17.465-17.464c1.05-1.05 2.751-1.058 3.81-.017 1.067 1.048 1.081 2.764.031 3.83l-17.333 17.593c-1.047 1.063-2.758 1.078-3.823.032z"/><path d="m165.906 373.169.129-.126c1.076-1.055 1.085-2.786.02-3.852l-17.454-17.459c-1.051-1.051-2.752-1.06-3.813-.02-1.072 1.05-1.087 2.77-.034 3.839l17.326 17.585c1.046 1.064 2.759 1.079 3.826.033z"/></g></g></g><g><path d="m165.008 346.852v21.292l-8.548-8.551v-12.742c0-1.191.964-2.155 2.153-2.155h4.242c1.188.001 2.153.965 2.153 2.156z" fill="#c0405c"/><path d="m165.008 346.852v18.132l-3.443-3.446c-1.247-1.244-1.944-2.934-1.944-4.693v-9.993c0-1.191.964-2.155 2.153-2.155h1.082c1.187 0 2.152.964 2.152 2.155z" fill="#e9465e"/></g></g></g><path d="m362.612 293.998h-102.112v-17.968c0-2.485-2.015-4.5-4.5-4.5s-4.5 2.015-4.5 4.5v17.968h-102.113c-10.792 0-19.572 8.78-19.572 19.573v7.395c0 2.485 2.015 4.5 4.5 4.5s4.5-2.015 4.5-4.5v-7.395c0-5.83 4.743-10.573 10.572-10.573h102.113v17.968c0 2.485 2.015 4.5 4.5 4.5s4.5-2.015 4.5-4.5v-17.968h102.112c5.829 0 10.572 4.743 10.572 10.573v7.395c0 2.485 2.015 4.5 4.5 4.5s4.5-2.015 4.5-4.5v-7.395c0-10.793-8.78-19.573-19.572-19.573z" fill="#9acdae"/></g></svg>