<svg id="Icons" enable-background="new 0 0 512 512" height="512" viewBox="0 0 512 512" width="512" xmlns="http://www.w3.org/2000/svg"><g><circle cx="256" cy="256" fill="#ea792e" r="256"/><g><g><g><path d="m474.047 338.893c0 2.148-.364 4.219-1.046 6.147-.925 2.655-2.446 5.034-4.395 6.984-3.36 3.36-8.009 5.442-13.131 5.442h-398.949c-10.256 0-18.573-8.317-18.573-18.573 0-5.123 2.082-9.771 5.442-13.131 2.831-2.831 6.588-4.748 10.763-5.277.771-.099 1.564-.154 2.368-.154h398.948c10.256 0 18.573 8.306 18.573 18.562z" fill="#d48d77"/><path d="m474.047 338.893c0 2.148-.364 4.219-1.046 6.147-.771.099-1.564.154-2.369.154h-398.948c-10.256 0-18.573-8.317-18.573-18.573 0-2.148.363-4.219 1.047-6.136.771-.099 1.564-.154 2.368-.154h398.948c10.256 0 18.573 8.306 18.573 18.562z" fill="#eea47d"/><path d="m406.369 345.194h-241.396c-6.866 0-12.432-5.566-12.432-12.432s5.566-12.432 12.432-12.432h241.396c6.866 0 12.432 5.566 12.432 12.432-.001 6.866-5.567 12.432-12.432 12.432z" fill="#f5b890"/></g><g><path d="m427.13 357.47v88.93c-7.26 6.53-14.9 12.65-22.89 18.33-41.83 29.76-92.99 47.27-148.24 47.27s-106.41-17.51-148.24-47.27c-7.99-5.68-15.63-11.8-22.89-18.33v-88.93z" fill="#a26d5a"/><path d="m404.24 395.04v69.69c-41.83 29.76-92.99 47.27-148.24 47.27s-106.41-17.51-148.24-47.27v-69.69c0-7.93 6.42-14.35 14.36-14.35h267.76c7.94 0 14.36 6.42 14.36 14.35z" fill="#c17e62"/><path d="m372.224 419.424h-185.707c-10.697 0-19.368-8.671-19.368-19.368s8.671-19.368 19.368-19.368h185.707c10.697 0 19.368 8.671 19.368 19.368s-8.671 19.368-19.368 19.368z" fill="#d48d77"/></g></g><g id="Clock_1_"><path d="m318.787 83.026c0 11.897-3.966 22.885-10.657 31.688-9.565 12.613-24.72 20.755-41.776 20.755-28.961 0-52.442-23.481-52.442-52.442 0-15.715 6.921-29.824 17.872-39.444 9.225-8.087 21.324-12.998 34.57-12.998 28.961-.001 52.433 23.48 52.433 52.441z" fill="#f0dae2"/><path d="m318.787 83.026c0 11.897-3.966 22.885-10.657 31.688-37.516-6.242-67.552-34.552-76.346-71.132 9.225-8.087 21.324-12.998 34.57-12.998 28.961 0 52.433 23.481 52.433 52.442z" fill="#fff"/><g><path d="m266.35 85.779c-1.521 0-2.754-1.233-2.754-2.754v-29.924c0-1.521 1.233-2.754 2.754-2.754s2.754 1.233 2.754 2.754v29.924c0 1.522-1.233 2.754-2.754 2.754z" fill="#6052a3"/><path d="m296.273 84.861h-29.923c-1.014 0-1.836-.822-1.836-1.836s.822-1.836 1.836-1.836h29.923c1.014 0 1.836.822 1.836 1.836s-.822 1.836-1.836 1.836z" fill="#6052a3"/><circle cx="266.35" cy="83.025" fill="#2d2667" r="7.127"/></g><g><g><g><path d="m266.35 30.586c-2.811 0-5.09 2.279-5.09 5.09v5.054c0 2.811 2.279 5.09 5.09 5.09s5.09-2.279 5.09-5.09v-5.054c-.001-2.811-2.28-5.09-5.09-5.09z" fill="#c2aacf"/></g><g><path d="m266.35 120.205c-2.811 0-5.09 2.279-5.09 5.09v5.054c0 2.811 2.279 5.09 5.09 5.09s5.09-2.279 5.09-5.09v-5.054c-.001-2.811-2.28-5.09-5.09-5.09z" fill="#a583bb"/></g></g><g><g><path d="m240.136 37.61c-2.434 1.405-3.268 4.518-1.863 6.953l2.527 4.377c1.405 2.434 4.518 3.268 6.953 1.863 2.434-1.405 3.268-4.518 1.863-6.953l-2.527-4.377c-1.405-2.434-4.518-3.268-6.953-1.863z" fill="#c2aacf"/></g><g><path d="m284.946 115.222c-2.434 1.405-3.268 4.518-1.863 6.953l2.527 4.377c1.405 2.434 4.518 3.268 6.953 1.863 2.434-1.405 3.268-4.518 1.863-6.953l-2.527-4.377c-1.406-2.434-4.519-3.268-6.953-1.863z" fill="#a583bb"/></g></g><g><g><path d="m220.947 56.799c-1.405 2.434-.571 5.547 1.863 6.953l4.377 2.527c2.434 1.405 5.547.571 6.953-1.863 1.405-2.434.571-5.547-1.863-6.953l-4.377-2.527c-2.435-1.405-5.547-.571-6.953 1.863z" fill="#a583bb"/></g><g><path d="m298.559 101.609c-1.405 2.434-.571 5.547 1.863 6.953l4.377 2.527c2.434 1.405 5.547.571 6.953-1.863 1.405-2.434.571-5.547-1.863-6.953l-4.377-2.527c-2.434-1.406-5.547-.572-6.953 1.863z" fill="#c2aacf"/></g></g><g><g><path d="m213.923 83.012c0 2.811 2.279 5.09 5.09 5.09h5.054c2.811 0 5.09-2.279 5.09-5.09s-2.279-5.09-5.09-5.09h-5.054c-2.811.001-5.09 2.279-5.09 5.09z" fill="#a583bb"/></g><g><path d="m303.542 83.012c0 2.811 2.279 5.09 5.09 5.09h5.054c2.811 0 5.09-2.279 5.09-5.09s-2.279-5.09-5.09-5.09h-5.054c-2.811.001-5.09 2.28-5.09 5.09z" fill="#c2aacf"/></g></g><g><g><path d="m220.947 109.225c1.405 2.434 4.518 3.268 6.953 1.863l4.377-2.527c2.434-1.405 3.268-4.518 1.863-6.953-1.405-2.434-4.518-3.268-6.953-1.863l-4.377 2.527c-2.434 1.406-3.268 4.519-1.863 6.953z" fill="#a583bb"/></g><g><path d="m298.559 64.416c1.405 2.434 4.518 3.268 6.953 1.863l4.377-2.527c2.434-1.405 3.268-4.518 1.863-6.953-1.405-2.434-4.518-3.268-6.953-1.863l-4.377 2.527c-2.434 1.406-3.268 4.519-1.863 6.953z" fill="#c2aacf"/></g></g><g><g><path d="m240.136 128.415c2.434 1.405 5.547.571 6.953-1.863l2.527-4.377c1.405-2.434.571-5.547-1.863-6.953-2.434-1.405-5.547-.571-6.953 1.863l-2.527 4.377c-1.405 2.435-.571 5.547 1.863 6.953z" fill="#a583bb"/></g><g><path d="m284.946 50.803c2.434 1.405 5.547.571 6.953-1.863l2.527-4.377c1.405-2.434.571-5.547-1.863-6.953-2.434-1.405-5.547-.571-6.953 1.863l-2.527 4.377c-1.406 2.434-.571 5.547 1.863 6.953z" fill="#c2aacf"/></g></g></g><g><path d="m321.482 80.532c-1.305-29.281-25.532-52.697-55.13-52.697-9.159 0-17.801 2.238-25.41 6.21-17.684 9.203-29.787 27.704-29.787 48.981 0 30.431 24.76 55.191 55.197 55.191 30.431 0 55.191-24.76 55.191-55.191 0-.833-.017-1.666-.061-2.494zm-55.13 52.181c-27.398 0-49.687-22.294-49.687-49.687 0-18.645 10.325-34.93 25.56-43.422 7.148-3.993 15.379-6.265 24.127-6.265 27.115 0 49.226 21.839 49.67 48.854.011.278.011.555.011.833 0 27.393-22.288 49.687-49.681 49.687z" fill="#f39e22"/><path d="m321.482 80.532c-1.783.639-3.605 1.194-5.46 1.661-.444-27.015-22.555-48.854-49.67-48.854-8.748 0-16.979 2.272-24.127 6.265-.511-1.822-.944-3.677-1.283-5.56 7.609-3.971 16.251-6.21 25.41-6.21 29.598.001 53.825 23.417 55.13 52.698z" fill="#f9c744"/></g></g><g><g><path d="m234.228 158.592v103.685c0 2.827-.84 5.469-2.294 7.681-1.823 2.827-4.629 4.936-7.947 5.858-1.209.348-2.499.533-3.81.533h-158.928c-1.331 0-2.601-.184-3.81-.533-3.318-.922-6.124-3.031-7.947-5.858-1.454-2.212-2.294-4.854-2.294-7.681v-103.685c0-1.311.184-2.601.533-3.81 1.311-4.691 4.998-8.398 9.709-9.709 1.209-.348 2.499-.533 3.81-.533h158.928c1.331 0 2.601.184 3.81.533 4.691 1.311 8.398 4.998 9.709 9.709.347 1.208.531 2.499.531 3.81z" fill="#c2aacf"/><path d="m231.934 269.958c-2.499 3.851-6.821 6.391-11.757 6.391h-158.928c-4.936 0-9.258-2.54-11.757-6.391 5.551-15.854 20.647-27.201 38.365-27.201h105.693c17.737 0 32.833 11.347 38.384 27.201z" fill="#9175a7"/><path d="m67.681 158.592v103.685c0 2.827-.84 5.469-2.294 7.681-1.823 2.827-4.629 4.936-7.947 5.858-3.318-.922-6.124-3.031-7.947-5.858-1.454-2.212-2.294-4.854-2.294-7.681v-103.685c0-6.432 4.322-11.86 10.242-13.519 5.918 1.659 10.24 7.087 10.24 13.519z" fill="#a583bb"/><path d="m234.228 158.592v103.685c0 2.827-.84 5.469-2.294 7.681-1.823 2.827-4.629 4.936-7.947 5.858-3.318-.922-6.124-3.031-7.947-5.858-1.454-2.212-2.294-4.854-2.294-7.681v-103.685c0-6.452 4.342-11.88 10.242-13.519 5.898 1.639 10.24 7.067 10.24 13.519z" fill="#decee5"/><path d="m100.812 163.661h79.802c5.133 0 9.294-4.161 9.294-9.294s-4.161-9.294-9.294-9.294h-79.802c-5.133 0-9.294 4.161-9.294 9.294s4.161 9.294 9.294 9.294z" fill="#ebd9ea"/></g><path d="m153.928 258.575h-26.431c-4.68 0-8.473 3.794-8.473 8.473v34.904h43.377v-34.904c0-4.68-3.793-8.473-8.473-8.473z" fill="#a583bb"/><g><path d="m190.407 301.952h-99.389c-5.075 0-9.189 4.114-9.189 9.189s4.114 9.189 9.189 9.189h99.389c5.075 0 9.189-4.114 9.189-9.189.001-5.075-4.113-9.189-9.189-9.189z" fill="#c2aacf"/><path d="m171.354 301.952h-61.282c-3.129 0-5.666 2.537-5.666 5.666s2.537 5.666 5.666 5.666h61.282c3.129 0 5.666-2.537 5.666-5.666 0-3.13-2.537-5.666-5.666-5.666z" fill="#decee5"/></g></g><g><g id="Plant_1_"><g><g id="Leaf_2_"><g><path d="m368.632 179.114c15.169 7.313 40.111 19.336 19.621 39.826s-32.513-4.451-39.826-19.621c-4.113-8.533-3.325-16.125.378-19.828 3.702-3.702 11.294-4.491 19.827-.377z" fill="#53b976"/></g><g><path d="m384.998 215.685-32.939-32.939c.899-.899.899-2.356 0-3.255s-2.356-.899-3.255 0c-3.703 3.703-4.491 11.294-.378 19.828 7.313 15.169 19.336 40.111 39.826 19.621.899-.899.899-2.356 0-3.255-.898-.899-2.356-.899-3.254 0z" fill="#528f66"/></g><g><path d="m368.615 182.431c12.666 6.106 33.492 16.145 16.383 33.254s-27.148-3.717-33.254-16.383c-3.435-7.125-2.776-13.464.315-16.556 3.092-3.091 9.431-3.75 16.556-.315z" fill="#53b976"/></g><g><path d="m366.514 203.995c-.669.669-1.754.669-2.424 0l-2.135-2.135c-.669-.669-.669-1.754 0-2.424.669-.669 1.754-.669 2.424 0l2.135 2.135c.67.67.67 1.755 0 2.424z" fill="#78c795"/></g><g><path d="m355.969 193.45c-.669.669-1.754.669-2.424 0l-2.135-2.135c-.669-.669-.669-1.754 0-2.424.669-.669 1.754-.669 2.424 0l2.135 2.135c.669.669.669 1.754 0 2.424z" fill="#78c795"/></g><g><path d="m378.628 216.109c-.669.669-1.754.669-2.424 0l-2.135-2.135c-.669-.669-.669-1.754 0-2.424.669-.669 1.754-.669 2.424 0l2.135 2.135c.67.67.67 1.755 0 2.424z" fill="#78c795"/></g><g><path d="m389.975 212.397c-.566.566-1.471.674-2.162.212-.787-.526-.999-1.59-.474-2.377 3.213-4.813 3.238-9.025.078-13.256-.567-.758-.408-1.834.348-2.399.758-.566 1.832-.411 2.398.348 4.035 5.403 4.044 11.193.027 17.21-.065.096-.137.183-.215.262z" fill="#9acdae"/></g><g><path d="m381.954 190.137c-.559.559-1.449.672-2.14.227-1.752-1.13-3.762-2.281-6.144-3.518-.84-.436-1.167-1.471-.731-2.311.435-.84 1.471-1.167 2.311-.731 2.478 1.287 4.578 2.491 6.421 3.68.795.513 1.024 1.574.511 2.369-.066.105-.143.2-.228.284z" fill="#9acdae"/></g><g><path d="m366.452 182.292c-.438.438-1.099.623-1.731.423-2.868-.908-5.591-1.114-7.875-.595-.923.21-1.841-.368-2.051-1.291s.368-1.841 1.291-2.051c2.878-.654 6.222-.423 9.671.67.902.286 1.402 1.249 1.116 2.151-.087.271-.234.505-.421.693z" fill="#9acdae"/></g><g><path d="m384.251 191.422c-.731-.581-1.807-.388-2.31.399l-5.309 8.297c-1.015 1.586-2.892 1.818-4.193.517l-4.206-4.206c-1.301-1.301-1.532-3.641-.517-5.227l3.53-5.517c.512-.8.211-1.868-.643-2.283l-.998-.485c-.724-.352-1.597-.106-2.03.572l-2.954 4.616c-1.015 1.586-2.892 1.818-4.193.517l-3.892-3.892s-.235-.235-.313-.313c-2.486-2.486-3.98-4.719-3.98-4.719-.606-.606-1.315.388-1.941.975-.054.051-.108.103-.16.155-.012.012-.023.023-.035.035-.603.612-.575 1.606.032 2.213l3.712 3.712.189.189 4.016 4.016c1.301 1.301 1.069 3.178-.517 4.193l-4.753 3.041c-.678.434-.924 1.306-.572 2.03l.485.998c.415.855 1.483 1.156 2.283.644l5.654-3.617c1.586-1.015 3.927-.783 5.227.517l4.206 4.206c1.301 1.301 1.069 3.178-.517 4.193l-8.441 5.401c-.786.503-.979 1.578-.4 2.309.249.314.501.621.756.92.513.602 1.395.727 2.061.301l9.12-5.835c1.586-1.015 3.927-.783 5.227.517l3.452 3.452 3.285 3.285.67.67c.617.617 1.619.625 2.236.009.004-.004.008-.008.012-.012.045-.045.09-.09.135-.135.612-.619.604-1.618-.012-2.234l.283-.427s-2.557-1.847-4.237-3.527c-.863-.863-3.452-3.452-3.452-3.452-1.301-1.301-1.532-3.641-.517-5.227l5.742-8.975c.426-.666.302-1.547-.299-2.06-.301-.255-.608-.507-.922-.756z" fill="#528f66"/></g></g><g id="Leaf_1_"><g><path d="m431.427 179.114c-15.169 7.313-40.111 19.336-19.621 39.826s32.513-4.451 39.826-19.621c4.113-8.533 3.325-16.125-.378-19.828-3.702-3.702-11.294-4.491-19.827-.377z" fill="#53b976"/></g><g><path d="m415.061 215.685 32.939-32.939c-.899-.899-.899-2.356 0-3.255s2.356-.899 3.255 0c3.703 3.703 4.491 11.294.378 19.828-7.313 15.169-19.336 40.111-39.826 19.621-.899-.899-.899-2.356 0-3.255.898-.899 2.355-.899 3.254 0z" fill="#528f66"/></g><g><path d="m431.444 182.431c-12.666 6.106-33.492 16.145-16.383 33.254s27.148-3.717 33.254-16.383c3.435-7.125 2.776-13.464-.315-16.556-3.092-3.091-9.431-3.75-16.556-.315z" fill="#53b976"/></g><g><path d="m433.544 203.995c.669.669 1.754.669 2.424 0l2.135-2.135c.669-.669.669-1.754 0-2.424-.669-.669-1.754-.669-2.424 0l-2.135 2.135c-.669.67-.669 1.755 0 2.424z" fill="#78c795"/></g><g><path d="m444.09 193.45c.669.669 1.754.669 2.424 0l2.135-2.135c.669-.669.669-1.754 0-2.424-.669-.669-1.754-.669-2.424 0l-2.135 2.135c-.669.669-.669 1.754 0 2.424z" fill="#78c795"/></g><g><path d="m421.43 216.109c.669.669 1.754.669 2.424 0l2.135-2.135c.669-.669.669-1.754 0-2.424-.669-.669-1.754-.669-2.424 0l-2.135 2.135c-.669.67-.669 1.755 0 2.424z" fill="#78c795"/></g><g><path d="m410.084 212.397c.566.566 1.471.674 2.162.212.787-.526.999-1.59.474-2.377-3.213-4.813-3.238-9.025-.078-13.256.567-.758.408-1.834-.348-2.399-.758-.566-1.832-.411-2.398.348-4.035 5.403-4.044 11.193-.027 17.21.065.096.137.183.215.262z" fill="#9acdae"/></g><g><path d="m418.104 190.137c.559.559 1.449.672 2.14.227 1.752-1.13 3.762-2.281 6.144-3.518.84-.436 1.167-1.471.731-2.311-.435-.84-1.471-1.167-2.311-.731-2.478 1.287-4.578 2.491-6.421 3.68-.795.513-1.024 1.574-.511 2.369.067.105.144.2.228.284z" fill="#9acdae"/></g><g><path d="m433.607 182.292c.438.438 1.099.623 1.731.423 2.868-.908 5.591-1.114 7.875-.595.923.21 1.841-.368 2.051-1.291s-.368-1.841-1.291-2.051c-2.878-.654-6.222-.423-9.671.67-.902.286-1.402 1.249-1.116 2.151.087.271.234.505.421.693z" fill="#9acdae"/></g><g><path d="m415.808 191.422c.731-.581 1.807-.388 2.31.399l5.309 8.297c1.015 1.586 2.892 1.818 4.193.517l4.206-4.206c1.301-1.301 1.532-3.641.517-5.227l-3.53-5.517c-.512-.8-.211-1.868.643-2.283l.998-.485c.724-.352 1.597-.106 2.03.572l2.954 4.616c1.015 1.586 2.892 1.818 4.193.517l3.892-3.892s.235-.235.313-.313c2.486-2.486 3.98-4.719 3.98-4.719.606-.606 1.315.388 1.941.975.054.051.108.103.16.155.012.012.023.023.035.035.603.612.575 1.606-.032 2.213l-3.712 3.712-.189.189-4.016 4.016c-1.301 1.301-1.069 3.178.517 4.193l4.753 3.041c.678.434.924 1.306.572 2.03l-.485.998c-.415.855-1.483 1.156-2.283.644l-5.654-3.617c-1.586-1.015-3.927-.783-5.227.517l-4.206 4.206c-1.301 1.301-1.069 3.178.517 4.193l8.441 5.401c.786.503.979 1.578.4 2.309-.249.314-.501.621-.756.92-.513.602-1.395.727-2.061.301l-9.12-5.835c-1.586-1.015-3.927-.783-5.227.517l-3.452 3.452-3.285 3.285-.67.67c-.617.617-1.619.625-2.236.009-.004-.004-.008-.008-.012-.012-.045-.045-.09-.09-.135-.135-.612-.619-.604-1.618.012-2.234l-.283-.427s2.557-1.847 4.237-3.527c.863-.863 3.452-3.452 3.452-3.452 1.301-1.301 1.532-3.641.517-5.227l-5.742-8.975c-.426-.666-.302-1.547.299-2.06.301-.255.608-.507.922-.756z" fill="#528f66"/></g></g></g><g><g id="Leaf_6_"><g><path d="m368.632 127.114c15.169 7.313 40.111 19.336 19.621 39.826s-32.513-4.451-39.826-19.621c-4.113-8.533-3.325-16.125.378-19.828 3.702-3.702 11.294-4.491 19.827-.377z" fill="#53b976"/></g><g><path d="m384.998 163.685-32.939-32.939c.899-.899.899-2.356 0-3.255s-2.356-.899-3.255 0c-3.703 3.703-4.491 11.294-.378 19.828 7.313 15.169 19.336 40.111 39.826 19.621.899-.899.899-2.356 0-3.255-.898-.899-2.356-.899-3.254 0z" fill="#528f66"/></g><g><path d="m368.615 130.431c12.666 6.106 33.492 16.145 16.383 33.254s-27.148-3.717-33.254-16.383c-3.435-7.125-2.776-13.464.315-16.556 3.092-3.091 9.431-3.75 16.556-.315z" fill="#53b976"/></g><g><path d="m366.514 151.995c-.669.669-1.754.669-2.424 0l-2.135-2.135c-.669-.669-.669-1.754 0-2.424.669-.669 1.754-.669 2.424 0l2.135 2.135c.67.67.67 1.755 0 2.424z" fill="#78c795"/></g><g><path d="m355.969 141.45c-.669.669-1.754.669-2.424 0l-2.135-2.135c-.669-.669-.669-1.754 0-2.424.669-.669 1.754-.669 2.424 0l2.135 2.135c.669.669.669 1.754 0 2.424z" fill="#78c795"/></g><g><path d="m378.628 164.109c-.669.669-1.754.669-2.424 0l-2.135-2.135c-.669-.669-.669-1.754 0-2.424.669-.669 1.754-.669 2.424 0l2.135 2.135c.67.67.67 1.755 0 2.424z" fill="#78c795"/></g><g><path d="m389.975 160.397c-.566.566-1.471.674-2.162.212-.787-.526-.999-1.59-.474-2.377 3.213-4.813 3.238-9.025.078-13.256-.567-.758-.408-1.834.348-2.399.758-.566 1.832-.411 2.398.348 4.035 5.403 4.044 11.193.027 17.21-.065.096-.137.183-.215.262z" fill="#9acdae"/></g><g><path d="m381.954 138.137c-.559.559-1.449.672-2.14.227-1.752-1.13-3.762-2.281-6.144-3.518-.84-.436-1.167-1.471-.731-2.311.435-.84 1.471-1.167 2.311-.731 2.478 1.287 4.578 2.491 6.421 3.68.795.513 1.024 1.574.511 2.369-.066.105-.143.2-.228.284z" fill="#9acdae"/></g><g><path d="m366.452 130.292c-.438.438-1.099.623-1.731.423-2.868-.908-5.591-1.114-7.875-.595-.923.21-1.841-.368-2.051-1.291s.368-1.841 1.291-2.051c2.878-.654 6.222-.423 9.671.67.902.286 1.402 1.249 1.116 2.151-.087.271-.234.505-.421.693z" fill="#9acdae"/></g><g><path d="m384.251 139.422c-.731-.581-1.807-.388-2.31.399l-5.309 8.297c-1.015 1.586-2.892 1.818-4.193.517l-4.206-4.206c-1.301-1.301-1.532-3.641-.517-5.227l3.53-5.517c.512-.8.211-1.868-.643-2.283l-.998-.485c-.724-.352-1.597-.106-2.03.572l-2.954 4.616c-1.015 1.586-2.892 1.818-4.193.517l-3.892-3.892s-.235-.235-.313-.313c-2.486-2.486-3.98-4.719-3.98-4.719-.606-.606-1.315.388-1.941.975-.054.051-.108.103-.16.155-.012.012-.023.023-.035.035-.603.612-.575 1.606.032 2.213l3.712 3.712.189.189 4.016 4.016c1.301 1.301 1.069 3.178-.517 4.193l-4.753 3.041c-.678.434-.924 1.306-.572 2.03l.485.998c.415.855 1.483 1.156 2.283.644l5.654-3.617c1.586-1.015 3.927-.783 5.227.517l4.206 4.206c1.301 1.301 1.069 3.178-.517 4.193l-8.441 5.401c-.786.503-.979 1.578-.4 2.309.249.314.501.621.756.92.513.602 1.395.727 2.061.301l9.12-5.835c1.586-1.015 3.927-.783 5.227.517l3.452 3.452 3.285 3.285.67.67c.617.617 1.619.625 2.236.009.004-.004.008-.008.012-.012.045-.045.09-.09.135-.135.612-.619.604-1.618-.012-2.234l.283-.427s-2.557-1.847-4.237-3.527c-.863-.863-3.452-3.452-3.452-3.452-1.301-1.301-1.532-3.641-.517-5.227l5.742-8.975c.426-.666.302-1.547-.299-2.06-.301-.255-.608-.507-.922-.756z" fill="#528f66"/></g></g><g id="Leaf_5_"><g><path d="m431.427 127.114c-15.169 7.313-40.111 19.336-19.621 39.826s32.513-4.451 39.826-19.621c4.113-8.533 3.325-16.125-.378-19.828-3.702-3.702-11.294-4.491-19.827-.377z" fill="#53b976"/></g><g><path d="m415.061 163.685 32.939-32.939c-.899-.899-.899-2.356 0-3.255s2.356-.899 3.255 0c3.703 3.703 4.491 11.294.378 19.828-7.313 15.169-19.336 40.111-39.826 19.621-.899-.899-.899-2.356 0-3.255.898-.899 2.355-.899 3.254 0z" fill="#528f66"/></g><g><path d="m431.444 130.431c-12.666 6.106-33.492 16.145-16.383 33.254s27.148-3.717 33.254-16.383c3.435-7.125 2.776-13.464-.315-16.556-3.092-3.091-9.431-3.75-16.556-.315z" fill="#53b976"/></g><g><path d="m433.544 151.995c.669.669 1.754.669 2.424 0l2.135-2.135c.669-.669.669-1.754 0-2.424-.669-.669-1.754-.669-2.424 0l-2.135 2.135c-.669.67-.669 1.755 0 2.424z" fill="#78c795"/></g><g><path d="m444.09 141.45c.669.669 1.754.669 2.424 0l2.135-2.135c.669-.669.669-1.754 0-2.424-.669-.669-1.754-.669-2.424 0l-2.135 2.135c-.669.669-.669 1.754 0 2.424z" fill="#78c795"/></g><g><path d="m421.43 164.109c.669.669 1.754.669 2.424 0l2.135-2.135c.669-.669.669-1.754 0-2.424-.669-.669-1.754-.669-2.424 0l-2.135 2.135c-.669.67-.669 1.755 0 2.424z" fill="#78c795"/></g><g><path d="m410.084 160.397c.566.566 1.471.674 2.162.212.787-.526.999-1.59.474-2.377-3.213-4.813-3.238-9.025-.078-13.256.567-.758.408-1.834-.348-2.399-.758-.566-1.832-.411-2.398.348-4.035 5.403-4.044 11.193-.027 17.21.065.096.137.183.215.262z" fill="#9acdae"/></g><g><path d="m418.104 138.137c.559.559 1.449.672 2.14.227 1.752-1.13 3.762-2.281 6.144-3.518.84-.436 1.167-1.471.731-2.311-.435-.84-1.471-1.167-2.311-.731-2.478 1.287-4.578 2.491-6.421 3.68-.795.513-1.024 1.574-.511 2.369.067.105.144.2.228.284z" fill="#9acdae"/></g><g><path d="m433.607 130.292c.438.438 1.099.623 1.731.423 2.868-.908 5.591-1.114 7.875-.595.923.21 1.841-.368 2.051-1.291s-.368-1.841-1.291-2.051c-2.878-.654-6.222-.423-9.671.67-.902.286-1.402 1.249-1.116 2.151.087.271.234.505.421.693z" fill="#9acdae"/></g><g><path d="m415.808 139.422c.731-.581 1.807-.388 2.31.399l5.309 8.297c1.015 1.586 2.892 1.818 4.193.517l4.206-4.206c1.301-1.301 1.532-3.641.517-5.227l-3.53-5.517c-.512-.8-.211-1.868.643-2.283l.998-.485c.724-.352 1.597-.106 2.03.572l2.954 4.616c1.015 1.586 2.892 1.818 4.193.517l3.892-3.892s.235-.235.313-.313c2.486-2.486 3.98-4.719 3.98-4.719.606-.606 1.315.388 1.941.975.054.051.108.103.16.155.012.012.023.023.035.035.603.612.575 1.606-.032 2.213l-3.712 3.712-.189.189-4.016 4.016c-1.301 1.301-1.069 3.178.517 4.193l4.753 3.041c.678.434.924 1.306.572 2.03l-.485.998c-.415.855-1.483 1.156-2.283.644l-5.654-3.617c-1.586-1.015-3.927-.783-5.227.517l-4.206 4.206c-1.301 1.301-1.069 3.178.517 4.193l8.441 5.401c.786.503.979 1.578.4 2.309-.249.314-.501.621-.756.92-.513.602-1.395.727-2.061.301l-9.12-5.835c-1.586-1.015-3.927-.783-5.227.517l-3.452 3.452-3.285 3.285-.67.67c-.617.617-1.619.625-2.236.009-.004-.004-.008-.008-.012-.012-.045-.045-.09-.09-.135-.135-.612-.619-.604-1.618.012-2.234l-.283-.427s2.557-1.847 4.237-3.527c.863-.863 3.452-3.452 3.452-3.452 1.301-1.301 1.532-3.641.517-5.227l-5.742-8.975c-.426-.666-.302-1.547.299-2.06.301-.255.608-.507.922-.756z" fill="#528f66"/></g></g></g><g><path d="m402.687 166.239v79.643h-5.634v-79.643c0-.78.314-1.484.824-1.993.366-.366.824-.629 1.341-.748.211-.052.426-.08.652-.08 1.556.001 2.817 1.266 2.817 2.821z" fill="#53b976"/><path d="m399.87 163.419v82.464h-2.817v-79.643c0-.78.314-1.484.824-1.993.366-.366.824-.629 1.341-.748.211-.053.426-.08.652-.08z" fill="#528f66"/></g></g><g><path d="m442.478 266.117h-84.896c-2.791 0-5.053-2.262-5.053-5.053v-10.128c0-2.791 2.262-5.053 5.053-5.053h84.896c2.791 0 5.053 2.262 5.053 5.053v10.128c0 2.791-2.263 5.053-5.053 5.053z" fill="#f39e22"/><path d="m435.486 259.44h-61.01c-3.744 0-6.779-3.035-6.779-6.779s3.035-6.779 6.779-6.779h61.01c3.744 0 6.779 3.035 6.779 6.779-.001 3.744-3.036 6.779-6.779 6.779z" fill="#f9c744"/><path d="m429.272 255.129h-39.229c-2.553 0-4.623-2.07-4.623-4.623s2.07-4.623 4.623-4.623h39.229c2.553 0 4.623 2.07 4.623 4.623.001 2.553-2.069 4.623-4.623 4.623z" fill="#fad98f"/></g><g><path d="m435.417 266.12-8.69 47.13c-.01.06-.02.11-.04.17-.82 4.01-4.36 6.91-8.47 6.91h-36.37c-4.18 0-7.76-2.98-8.51-7.08l-8.7-47.13z" fill="#f9c744"/><path d="m435.417 266.12-8.69 47.13c-.01.06-.02.11-.04.17h-12.77c-17.08 0-30.92-13.84-30.92-30.92v-16.38z" fill="#fad98f"/><path d="m412.897 304.512c-4.09-.753-6.796-4.68-6.042-8.77l3.527-19.152c.753-4.09 4.68-6.796 8.77-6.042 4.09.753 6.796 4.68 6.042 8.77l-3.527 19.152c-.753 4.09-4.679 6.796-8.77 6.042z" fill="#faefdc"/></g></g><g><g fill="#f39e22"><path d="m280.885 227.467c-1.104 0-2-.896-2-2 0-4.388 4.544-6.284 8.553-7.957 2.996-1.25 6.093-2.542 6.093-4.265 0-1.726-3.098-3.019-6.094-4.27-4.009-1.674-8.552-3.571-8.552-7.961s4.544-6.287 8.553-7.961c2.996-1.251 6.094-2.544 6.094-4.27 0-1.104.896-2 2-2s2 .896 2 2c0 4.39-4.544 6.287-8.553 7.961-2.996 1.251-6.094 2.544-6.094 4.27s3.098 3.019 6.094 4.27c4.009 1.674 8.553 3.571 8.553 7.961 0 4.388-4.544 6.284-8.553 7.957-2.996 1.25-6.094 2.542-6.094 4.266 0 1.104-.895 1.999-2 1.999z"/><path d="m303.525 199.342c-1.104 0-2-.896-2-2 0-4.388 4.544-6.284 8.553-7.957 2.996-1.25 6.093-2.542 6.093-4.265 0-1.726-3.098-3.019-6.094-4.27-4.009-1.674-8.552-3.571-8.552-7.961s4.543-6.287 8.552-7.961c2.996-1.251 6.094-2.544 6.094-4.27 0-1.104.896-2 2-2s2 .896 2 2c0 4.39-4.544 6.288-8.553 7.961-2.996 1.251-6.094 2.544-6.094 4.27s3.098 3.019 6.094 4.27c4.009 1.674 8.553 3.571 8.553 7.961 0 4.388-4.544 6.284-8.553 7.957-2.996 1.25-6.094 2.542-6.094 4.266.001 1.104-.894 1.999-1.999 1.999z"/><path d="m305.068 239.976c-1.104 0-2-.896-2-2 0-4.388 4.544-6.284 8.553-7.957 2.996-1.25 6.093-2.542 6.093-4.265 0-1.726-3.098-3.019-6.094-4.27-4.009-1.674-8.552-3.571-8.552-7.961s4.544-6.287 8.553-7.961c2.996-1.251 6.094-2.544 6.094-4.27 0-1.104.896-2 2-2s2 .896 2 2c0 4.39-4.544 6.287-8.553 7.961-2.996 1.251-6.094 2.544-6.094 4.27s3.098 3.019 6.094 4.27c4.009 1.674 8.553 3.571 8.553 7.961 0 4.388-4.544 6.284-8.553 7.957-2.996 1.25-6.094 2.542-6.094 4.266 0 1.103-.895 1.999-2 1.999z"/></g><g><g><path d="m259.189 286.121c0 .24.01.49.03.73.37 6.59 5.86 11.84 12.54 11.84h4.77v9h-4.77c-10.59 0-19.42-7.67-21.22-17.74-.23-1.24-.35-2.52-.35-3.83 0-9.43 6.07-17.45 14.51-20.38 2.21-.77 4.59-1.19 7.06-1.19h4.77v9h-4.77c-1.98 0-3.84.46-5.51 1.27-4.17 2.05-7.06 6.34-7.06 11.3z" fill="#22bce0"/><path d="m266.349 273.041c0 .6-.03 1.2-.1 1.78-4.17 2.05-7.06 6.34-7.06 11.3 0 .24.01.49.03.73-2.48 1.77-5.46 2.89-8.68 3.1-.23-1.24-.35-2.52-.35-3.83 0-1.19.1-2.37.29-3.51 1.02-6.27 4.77-11.64 9.99-14.86 1.32-.82 2.74-1.49 4.23-2.01 1.06 2.21 1.65 4.69 1.65 7.3z" fill="#4fcae8"/><path d="m261.269 271.851c0 5.95-4.82 10.76-10.76 10.76h-.03c1.02-6.27 4.77-11.64 9.99-14.86.51 1.27.8 2.65.8 4.1z" fill="#83d5ef"/></g><g><path d="m328.069 252.88v61.62c0 3.22-2.61 5.83-5.83 5.83h-43.88c-3.22 0-5.83-2.61-5.83-5.83v-61.62c0-3.22 2.61-5.83 5.83-5.83h43.88c3.22.001 5.83 2.611 5.83 5.83z" fill="#22a8b9"/><path d="m328.069 252.88v52.91c-3.96 2.86-8.81 4.54-14.07 4.54h-7.4c-13.29 0-24.07-10.78-24.07-24.07v-25.14c0-5.25 1.69-10.11 4.54-14.07h35.17c3.22.001 5.83 2.611 5.83 5.83z" fill="#4fcae8"/><path d="m328.069 252.88v7.89c-1.34 1.12-3.07 1.8-4.97 1.8h-40.57v-1.45c0-5.25 1.69-10.11 4.54-14.07h35.17c3.22.001 5.83 2.611 5.83 5.83z" fill="#cde6f6"/><path d="m287.069 247.051c-2.85 3.96-4.54 8.82-4.54 14.07v1.45h-10v-9.69c0-3.22 2.61-5.83 5.83-5.83z" fill="#4fcae8"/><path d="m318.807 251.574h-37.013c-1.789 0-3.239 1.45-3.239 3.239s1.45 3.239 3.239 3.239h37.013c1.789 0 3.239-1.45 3.239-3.239s-1.45-3.239-3.239-3.239z" fill="#bf5e39"/><path d="m316.141 304.161c3.078 0 5.573-2.495 5.573-5.573v-26.525c0-3.078-2.495-5.573-5.573-5.573s-5.573 2.495-5.573 5.573v26.525c0 3.078 2.496 5.573 5.573 5.573z" fill="#83d5ef"/></g></g></g></g></g></svg>