<svg id="Icons" enable-background="new 0 0 512 512" height="512" viewBox="0 0 512 512" width="512" xmlns="http://www.w3.org/2000/svg"><g><g><circle cx="256" cy="256" fill="#6052a3" r="256"/><g fill="#57409b"><path d="m464.65 404.35c-46.41 65.16-122.57 107.65-208.65 107.65s-162.24-42.49-208.65-107.65c58.75-30.17 130.8-47.93 208.65-47.93s149.9 17.76 208.65 47.93z"/><path d="m464.65 107.65c-58.75 30.17-130.8 47.93-208.65 47.93s-149.9-17.76-208.65-47.93c46.41-65.16 122.57-107.65 208.65-107.65s162.24 42.49 208.65 107.65z"/></g></g><g><g><g><g><path d="m411.882 348.635v63.441c0 2.142-.574 4.152-1.576 5.883-1.303 2.26-3.342 4.049-5.787 5.029-1.355.552-2.842.854-4.395.854h-92.147c-1.561 0-3.048-.302-4.403-.854-2.444-.987-4.484-2.768-5.787-5.029-1.001-1.73-1.576-3.74-1.576-5.883v-63.441c0-4.94 3.041-9.173 7.362-10.911 1.355-.552 2.842-.854 4.403-.854h92.147c1.553 0 3.041.302 4.395.854 4.316 1.738 7.364 5.964 7.364 10.911z" fill="#d48d77"/><path d="m310.936 348.635v63.441c0 4.947-3.048 9.173-7.362 10.911-4.322-1.738-7.362-5.971-7.362-10.911v-63.441c0-4.94 3.041-9.173 7.362-10.911 4.314 1.738 7.362 5.964 7.362 10.911z" fill="#c17e62"/><path d="m411.882 348.635v63.441c0 2.142-.574 4.152-1.576 5.883-1.303 2.26-3.342 4.049-5.787 5.029-2.444-.987-4.484-2.768-5.787-5.029-1.001-1.73-1.576-3.74-1.576-5.883v-63.441c0-4.94 3.041-9.173 7.362-10.911 4.316 1.738 7.364 5.964 7.364 10.911z" fill="#eea47d"/><path d="m410.306 417.959c-2.032 3.519-5.831 5.883-10.182 5.883h-92.147c-1.561 0-3.048-.302-4.403-.854-2.444-.987-4.484-2.768-5.787-5.029 1.303-2.26 3.342-4.042 5.787-5.029 1.355-.552 2.842-.854 4.403-.854h92.147c4.351.001 8.15 2.364 10.182 5.883z" fill="#a26d5a"/></g><g><path d="m397.688 385.471h-87.283c-7.839 0-14.193-6.355-14.193-14.193v-6.504h115.67v6.504c0 7.838-6.355 14.193-14.194 14.193z" fill="#a26d5a"/><path d="m411.882 348.635v19.481c0 5.117-4.152 9.269-9.269 9.269h-97.131c-5.117 0-9.269-4.152-9.269-9.269v-19.481c0-4.94 3.041-9.173 7.362-10.911 1.355-.552 2.842-.854 4.403-.854h92.147c1.553 0 3.041.302 4.395.854 4.314 1.738 7.362 5.964 7.362 10.911z" fill="#c17e62"/><path d="m310.936 348.635v28.75h-5.455c-5.117 0-9.269-4.152-9.269-9.269v-19.481c0-4.94 3.041-9.173 7.362-10.911 4.314 1.738 7.362 5.964 7.362 10.911z" fill="#a26d5a"/><path d="m411.882 348.635v19.481c0 5.117-4.152 9.269-9.269 9.269h-5.456v-28.75c0-4.94 3.041-9.173 7.362-10.911 4.315 1.738 7.363 5.964 7.363 10.911z" fill="#d48d77"/><path d="m384.782 343.066h-61.471c-3.562 0-6.449 2.887-6.449 6.449s2.887 6.449 6.449 6.449h61.471c3.562 0 6.449-2.887 6.449-6.449 0-3.561-2.887-6.449-6.449-6.449z" fill="#d48d77"/><path d="m381.337 351.35h-38.932c-2.287 0-4.142-1.854-4.142-4.142 0-2.287 1.854-4.142 4.142-4.142h38.932c2.287 0 4.142 1.854 4.142 4.142 0 2.287-1.854 4.142-4.142 4.142z" fill="#eea47d"/></g><g><g><path d="m326.375 365.753c-.832-.618-1.863-.979-2.982-.979h-7.421c-1.112 0-2.142.361-2.974.979-1.252.906-2.061 2.385-2.061 4.057v15.152c0 1.671.81 3.151 2.061 4.057.832.618 1.863.979 2.974.979h7.421c1.119 0 2.15-.361 2.982-.979 1.244-.913 2.054-2.393 2.054-4.057v-15.152c0-1.665-.809-3.144-2.054-4.057zm-2.059 16.784c0 1.62-1.313 2.934-2.934 2.934h-3.394c-1.62 0-2.934-1.313-2.934-2.934v-10.304c0-1.62 1.314-2.934 2.934-2.934h3.394c1.62 0 2.934 1.313 2.934 2.934z" fill="#f9c744"/><path d="m328.429 369.809v15.152c0 1.664-.81 3.144-2.054 4.057-1.252-.913-2.061-2.393-2.061-4.057v-15.152c0-1.664.81-3.144 2.061-4.057 1.245.914 2.054 2.393 2.054 4.057z" fill="#fad98f"/><path d="m315.052 369.809v15.152c0 1.664-.81 3.144-2.054 4.057-1.252-.906-2.061-2.385-2.061-4.057v-15.152c0-1.671.81-3.151 2.061-4.057 1.244.914 2.054 2.393 2.054 4.057z" fill="#f39e22"/><path d="m326.375 365.753c-.832-.618-1.863-.979-2.982-.979h-4.734c.27 1.658.904 3.19 1.809 4.526h.914c1.62 0 2.934 1.313 2.934 2.934v.614c1.246.702 2.633 1.182 4.114 1.372v-4.41c-.001-1.665-.81-3.144-2.055-4.057z" fill="#faefdc"/></g><g><path d="m395.103 365.753c-.832-.618-1.863-.979-2.982-.979h-7.421c-1.112 0-2.142.361-2.974.979-1.252.906-2.061 2.385-2.061 4.057v15.152c0 1.671.81 3.151 2.061 4.057.832.618 1.863.979 2.974.979h7.421c1.119 0 2.15-.361 2.982-.979 1.244-.913 2.054-2.393 2.054-4.057v-15.152c0-1.665-.81-3.144-2.054-4.057zm-2.06 16.784c0 1.62-1.314 2.934-2.934 2.934h-3.394c-1.62 0-2.934-1.313-2.934-2.934v-10.304c0-1.62 1.313-2.934 2.934-2.934h3.394c1.62 0 2.934 1.313 2.934 2.934z" fill="#f9c744"/><path d="m397.157 369.809v15.152c0 1.664-.81 3.144-2.054 4.057-1.252-.913-2.061-2.393-2.061-4.057v-15.152c0-1.664.81-3.144 2.061-4.057 1.244.914 2.054 2.393 2.054 4.057z" fill="#fad98f"/><path d="m383.779 369.809v15.152c0 1.664-.81 3.144-2.054 4.057-1.252-.906-2.061-2.385-2.061-4.057v-15.152c0-1.671.81-3.151 2.061-4.057 1.245.914 2.054 2.393 2.054 4.057z" fill="#f39e22"/><path d="m395.103 365.753c-.832-.618-1.863-.979-2.982-.979h-4.734c.27 1.658.904 3.19 1.809 4.526h.914c1.62 0 2.934 1.313 2.934 2.934v.614c1.246.702 2.633 1.182 4.114 1.372v-4.41c-.001-1.665-.811-3.144-2.055-4.057z" fill="#faefdc"/></g></g><g><path d="m379.664 325.878v10.992h-8.827v-6.994c0-3.873-3.144-7.016-7.024-7.016h-19.525c-3.88 0-7.024 3.144-7.024 7.016v6.994h-8.827v-10.992c0-1.156.184-2.268.515-3.306 1.399-4.359 5.485-7.517 10.307-7.517h29.582c4.822 0 8.908 3.158 10.307 7.517.332 1.039.516 2.15.516 3.306z" fill="#a26d5a"/><path d="m379.149 322.572c-1.178 4.197-4.285 7.576-8.312 9.129v-1.826c0-3.873-3.144-7.016-7.024-7.016h-19.525c-3.88 0-7.024 3.144-7.024 7.016v1.826c-1.811-.699-3.438-1.767-4.786-3.114-1.649-1.649-2.879-3.711-3.527-6.015 1.399-4.359 5.485-7.517 10.307-7.517h29.582c4.824 0 8.91 3.159 10.309 7.517z" fill="#c17e62"/><path d="m368.661 322.86h-22.698c-2.109 0-3.819-1.71-3.819-3.819v-.166c0-2.109 1.71-3.819 3.819-3.819h22.698c2.109 0 3.819 1.71 3.819 3.819v.166c0 2.109-1.71 3.819-3.819 3.819z" fill="#d48d77"/></g></g><g><path d="m314.5 448.291c-2.271 3.792-7.401 4.642-10.774 1.786l-21.546-18.247c-2.601-2.203-2.925-6.099-.722-8.7 2.203-2.603 6.097-2.927 8.7-.722l10.448 8.848c3.373 2.857 8.503 2.006 10.774-1.786l20.358-33.992c1.751-2.924 5.537-3.878 8.468-2.123 2.924 1.751 3.874 5.543 2.123 8.468z" fill="#53b976"/></g></g><path d="m354.05 256.266c-2.699 0-4.886 2.188-4.886 4.886v40.28c0 2.699 2.188 4.886 4.886 4.886 2.699 0 4.886-2.188 4.886-4.886v-40.28c.001-2.699-2.187-4.886-4.886-4.886z" fill="#9175a7"/><g><g><path d="m204.7 64.449v172.475c0 3.686-2.051 6.883-5.068 8.525h-.006c-1.375.75-2.949 1.171-4.622 1.171h-72.545c-1.673 0-3.247-.421-4.622-1.171-3.024-1.642-5.074-4.839-5.074-8.525v-172.475c0-1.735.459-3.364 1.264-4.771.886-1.586 2.212-2.887 3.81-3.755 1.375-.75 2.949-1.171 4.622-1.171h72.545c1.673 0 3.247.421 4.622 1.171h.006c1.592.867 2.918 2.168 3.81 3.748.8 1.408 1.258 3.037 1.258 4.778z" fill="#ebd9ea"/><path d="m204.7 64.449v172.475c0 3.686-2.051 6.883-5.068 8.525h-.006c-3.024-1.642-5.074-4.839-5.074-8.525v-172.475c0-3.68 2.051-6.883 5.074-8.525h.006c3.017 1.642 5.068 4.845 5.068 8.525z" fill="#f9eaf9"/><path d="m122.911 64.449v172.475c0 3.686-2.051 6.883-5.074 8.525-3.024-1.642-5.074-4.839-5.074-8.525v-172.475c0-3.68 2.051-6.883 5.074-8.525 3.023 1.642 5.074 4.845 5.074 8.525z" fill="#c2aacf"/><path d="m150.618 54.752h16.228v149.168h-16.228z" fill="#decee5"/><g fill="#fff"><path d="m203.442 59.672c-1.741 3.16-5.105 5.303-8.965 5.303h-71.492c-2.819 0-5.378-1.146-7.23-2.992-.681-.682-1.264-1.456-1.729-2.305.886-1.586 2.212-2.887 3.81-3.755 1.375-.75 2.949-1.171 4.622-1.171h72.545c1.673 0 3.247.421 4.622 1.171h.006c1.593.868 2.919 2.169 3.811 3.749z"/><path d="m199.626 183.733c-2.802 0-5.074-2.272-5.074-5.074v-89.957c0-2.802 2.272-5.074 5.074-5.074s5.074 2.272 5.074 5.074v89.957c0 2.802-2.272 5.074-5.074 5.074z"/></g></g><g><g><g><path d="m150.618 76.589v15.736c0 .034 0 .076-.008.109-.05 3.255-2.701 5.872-5.972 5.872h-15.736c-3.305 0-5.989-2.676-5.989-5.981v-15.736c0-3.271 2.625-5.93 5.88-5.981.034-.008.075-.008.109-.008h15.736c3.305 0 5.98 2.684 5.98 5.989z" fill="#c2aacf"/><path d="m146.246 79.071v10.769c0 .023 0 .052-.006.075-.034 2.227-1.848 4.018-4.087 4.018h-10.769c-2.262 0-4.099-1.831-4.099-4.093v-10.769c0-2.239 1.797-4.058 4.024-4.093.023-.006.052-.006.075-.006h10.769c2.262.001 4.093 1.838 4.093 4.099z" fill="#6052a3"/><path d="m146.246 79.071v10.769c0 .023 0 .052-.006.075-.023.006-.052.006-.075.006h-5.201c-5.339 0-9.661-4.328-9.661-9.661v-5.206c0-.023 0-.052.006-.075.023-.006.052-.006.075-.006h10.769c2.262 0 4.093 1.837 4.093 4.098z" fill="#57409b"/><path d="m141.261 88.071c-1.373 0-2.487-1.113-2.487-2.487v-6.144c0-1.373 1.113-2.487 2.487-2.487 1.373 0 2.487 1.113 2.487 2.487v6.144c0 1.374-1.113 2.487-2.487 2.487z" fill="#9175a7"/></g><g><path d="m194.551 76.589v15.736c0 .034 0 .076-.008.109-.05 3.255-2.701 5.872-5.972 5.872h-15.736c-3.305 0-5.989-2.676-5.989-5.981v-15.736c0-3.271 2.625-5.93 5.88-5.981.034-.008.075-.008.109-.008h15.736c3.304 0 5.98 2.684 5.98 5.989z" fill="#c2aacf"/><path d="m190.179 79.071v10.769c0 .023 0 .052-.006.075-.034 2.227-1.848 4.018-4.087 4.018h-10.769c-2.262 0-4.099-1.831-4.099-4.093v-10.769c0-2.239 1.797-4.058 4.024-4.093.023-.006.052-.006.075-.006h10.769c2.262.001 4.093 1.838 4.093 4.099z" fill="#6052a3"/><path d="m190.179 79.071v10.769c0 .023 0 .052-.006.075-.023.006-.052.006-.075.006h-5.201c-5.339 0-9.661-4.328-9.661-9.661v-5.206c0-.023 0-.052.006-.075.023-.006.052-.006.075-.006h10.769c2.262 0 4.093 1.837 4.093 4.098z" fill="#57409b"/><path d="m185.194 88.071c-1.373 0-2.487-1.113-2.487-2.487v-6.144c0-1.373 1.113-2.487 2.487-2.487 1.373 0 2.487 1.113 2.487 2.487v6.144c0 1.374-1.113 2.487-2.487 2.487z" fill="#9175a7"/></g></g><g><g><path d="m150.618 109.919v15.736c0 .034 0 .076-.008.109-.05 3.255-2.701 5.872-5.972 5.872h-15.736c-3.305 0-5.989-2.676-5.989-5.981v-15.736c0-3.271 2.625-5.93 5.88-5.981.034-.008.075-.008.109-.008h15.736c3.305 0 5.98 2.684 5.98 5.989z" fill="#c2aacf"/><path d="m146.246 112.401v10.769c0 .023 0 .052-.006.075-.034 2.227-1.848 4.018-4.087 4.018h-10.769c-2.262 0-4.099-1.831-4.099-4.093v-10.769c0-2.239 1.797-4.058 4.024-4.093.023-.006.052-.006.075-.006h10.769c2.262.001 4.093 1.838 4.093 4.099z" fill="#6052a3"/><path d="m146.246 112.401v10.769c0 .023 0 .052-.006.075-.023.006-.052.006-.075.006h-5.201c-5.339 0-9.661-4.328-9.661-9.661v-5.206c0-.023 0-.052.006-.075.023-.006.052-.006.075-.006h10.769c2.262 0 4.093 1.837 4.093 4.098z" fill="#57409b"/><path d="m141.261 121.401c-1.373 0-2.487-1.113-2.487-2.487v-6.144c0-1.373 1.113-2.487 2.487-2.487 1.373 0 2.487 1.113 2.487 2.487v6.144c0 1.374-1.113 2.487-2.487 2.487z" fill="#9175a7"/></g><g><path d="m194.551 109.919v15.736c0 .034 0 .076-.008.109-.05 3.255-2.701 5.872-5.972 5.872h-15.736c-3.305 0-5.989-2.676-5.989-5.981v-15.736c0-3.271 2.625-5.93 5.88-5.981.034-.008.075-.008.109-.008h15.736c3.304 0 5.98 2.684 5.98 5.989z" fill="#c2aacf"/><path d="m190.179 112.401v10.769c0 .023 0 .052-.006.075-.034 2.227-1.848 4.018-4.087 4.018h-10.769c-2.262 0-4.099-1.831-4.099-4.093v-10.769c0-2.239 1.797-4.058 4.024-4.093.023-.006.052-.006.075-.006h10.769c2.262.001 4.093 1.838 4.093 4.099z" fill="#6052a3"/><path d="m190.179 112.401v10.769c0 .023 0 .052-.006.075-.023.006-.052.006-.075.006h-5.201c-5.339 0-9.661-4.328-9.661-9.661v-5.206c0-.023 0-.052.006-.075.023-.006.052-.006.075-.006h10.769c2.262 0 4.093 1.837 4.093 4.098z" fill="#57409b"/><path d="m185.194 121.401c-1.373 0-2.487-1.113-2.487-2.487v-6.144c0-1.373 1.113-2.487 2.487-2.487 1.373 0 2.487 1.113 2.487 2.487v6.144c0 1.374-1.113 2.487-2.487 2.487z" fill="#9175a7"/></g></g><g><g><path d="m150.618 143.249v15.736c0 .034 0 .076-.008.109-.05 3.255-2.701 5.872-5.972 5.872h-15.736c-3.305 0-5.989-2.676-5.989-5.981v-15.736c0-3.271 2.625-5.93 5.88-5.981.034-.008.075-.008.109-.008h15.736c3.305 0 5.98 2.684 5.98 5.989z" fill="#c2aacf"/><path d="m146.246 145.731v10.769c0 .023 0 .052-.006.075-.034 2.227-1.848 4.018-4.087 4.018h-10.769c-2.262 0-4.099-1.831-4.099-4.093v-10.769c0-2.239 1.797-4.058 4.024-4.093.023-.006.052-.006.075-.006h10.769c2.262 0 4.093 1.837 4.093 4.099z" fill="#6052a3"/><path d="m146.246 145.731v10.769c0 .023 0 .052-.006.075-.023.006-.052.006-.075.006h-5.201c-5.339 0-9.661-4.328-9.661-9.661v-5.206c0-.023 0-.052.006-.075.023-.006.052-.006.075-.006h10.769c2.262-.001 4.093 1.836 4.093 4.098z" fill="#57409b"/><path d="m141.261 154.731c-1.373 0-2.487-1.113-2.487-2.487v-6.144c0-1.373 1.113-2.487 2.487-2.487 1.373 0 2.487 1.113 2.487 2.487v6.144c0 1.374-1.113 2.487-2.487 2.487z" fill="#9175a7"/></g><g><path d="m194.551 143.249v15.736c0 .034 0 .076-.008.109-.05 3.255-2.701 5.872-5.972 5.872h-15.736c-3.305 0-5.989-2.676-5.989-5.981v-15.736c0-3.271 2.625-5.93 5.88-5.981.034-.008.075-.008.109-.008h15.736c3.304 0 5.98 2.684 5.98 5.989z" fill="#c2aacf"/><path d="m190.179 145.731v10.769c0 .023 0 .052-.006.075-.034 2.227-1.848 4.018-4.087 4.018h-10.769c-2.262 0-4.099-1.831-4.099-4.093v-10.769c0-2.239 1.797-4.058 4.024-4.093.023-.006.052-.006.075-.006h10.769c2.262 0 4.093 1.837 4.093 4.099z" fill="#6052a3"/><path d="m190.179 145.731v10.769c0 .023 0 .052-.006.075-.023.006-.052.006-.075.006h-5.201c-5.339 0-9.661-4.328-9.661-9.661v-5.206c0-.023 0-.052.006-.075.023-.006.052-.006.075-.006h10.769c2.262-.001 4.093 1.836 4.093 4.098z" fill="#57409b"/><path d="m185.194 154.731c-1.373 0-2.487-1.113-2.487-2.487v-6.144c0-1.373 1.113-2.487 2.487-2.487 1.373 0 2.487 1.113 2.487 2.487v6.144c0 1.374-1.113 2.487-2.487 2.487z" fill="#9175a7"/></g></g><g><g><path d="m150.618 176.579v15.736c0 .034 0 .076-.008.109-.05 3.255-2.701 5.872-5.972 5.872h-15.736c-3.305 0-5.989-2.676-5.989-5.981v-15.736c0-3.271 2.625-5.93 5.88-5.981.034-.008.075-.008.109-.008h15.736c3.305 0 5.98 2.684 5.98 5.989z" fill="#c2aacf"/><path d="m146.246 179.061v10.769c0 .023 0 .052-.006.075-.034 2.227-1.848 4.018-4.087 4.018h-10.769c-2.262 0-4.099-1.831-4.099-4.093v-10.769c0-2.239 1.797-4.058 4.024-4.093.023-.006.052-.006.075-.006h10.769c2.262 0 4.093 1.837 4.093 4.099z" fill="#6052a3"/><path d="m146.246 179.061v10.769c0 .023 0 .052-.006.075-.023.006-.052.006-.075.006h-5.201c-5.339 0-9.661-4.328-9.661-9.661v-5.206c0-.023 0-.052.006-.075.023-.006.052-.006.075-.006h10.769c2.262-.001 4.093 1.836 4.093 4.098z" fill="#57409b"/><path d="m141.261 188.061c-1.373 0-2.487-1.113-2.487-2.487v-6.144c0-1.373 1.113-2.487 2.487-2.487 1.373 0 2.487 1.113 2.487 2.487v6.144c0 1.374-1.113 2.487-2.487 2.487z" fill="#9175a7"/></g><g><path d="m194.551 176.579v15.736c0 .034 0 .076-.008.109-.05 3.255-2.701 5.872-5.972 5.872h-15.736c-3.305 0-5.989-2.676-5.989-5.981v-15.736c0-3.271 2.625-5.93 5.88-5.981.034-.008.075-.008.109-.008h15.736c3.304 0 5.98 2.684 5.98 5.989z" fill="#c2aacf"/><path d="m190.179 179.061v10.769c0 .023 0 .052-.006.075-.034 2.227-1.848 4.018-4.087 4.018h-10.769c-2.262 0-4.099-1.831-4.099-4.093v-10.769c0-2.239 1.797-4.058 4.024-4.093.023-.006.052-.006.075-.006h10.769c2.262 0 4.093 1.837 4.093 4.099z" fill="#6052a3"/><path d="m190.179 179.061v10.769c0 .023 0 .052-.006.075-.023.006-.052.006-.075.006h-5.201c-5.339 0-9.661-4.328-9.661-9.661v-5.206c0-.023 0-.052.006-.075.023-.006.052-.006.075-.006h10.769c2.262-.001 4.093 1.836 4.093 4.098z" fill="#57409b"/><path d="m185.194 188.061c-1.373 0-2.487-1.113-2.487-2.487v-6.144c0-1.373 1.113-2.487 2.487-2.487 1.373 0 2.487 1.113 2.487 2.487v6.144c0 1.374-1.113 2.487-2.487 2.487z" fill="#9175a7"/></g></g></g><g><g><path d="m184.74 243.801h-52.02c-1.557 0-2.819 1.262-2.819 2.819s1.262 2.819 2.819 2.819h52.02c1.557 0 2.819-1.262 2.819-2.819 0-1.556-1.262-2.819-2.819-2.819z" fill="#f9eaf9"/><path d="m175.412 238.163h-33.36c-1.557 0-2.819 1.262-2.819 2.819s1.262 2.819 2.819 2.819h33.36c1.557 0 2.819-1.262 2.819-2.819s-1.262-2.819-2.819-2.819z" fill="#fff"/></g><g><path d="m146.246 208.213h24.973v29.95h-24.973z" fill="#c2aacf"/><path d="m150.618 208.213h16.228v29.95h-16.228z" fill="#6052a3"/><path d="m157.803 208.213h1.857v29.95h-1.857z" fill="#57409b"/></g><g><g><g><path d="m180.394 208.214h4.343v35.588h-4.343z" fill="#9175a7"/><path d="m184.738 208.214v33.407c-1.555-.087-2.782-1.369-2.782-2.949v-30.458z" fill="#a583bb"/><path d="m183.347 234.736c-.768 0-1.391-.623-1.391-1.391v-13.03c0-.768.623-1.391 1.391-1.391s1.391.623 1.391 1.391v13.03c0 .769-.623 1.391-1.391 1.391z" fill="#c2aacf"/></g><g><path d="m132.72 208.214h4.343v35.588h-4.343z" fill="#9175a7"/><path d="m137.064 208.214v33.407c-1.555-.087-2.782-1.369-2.782-2.949v-30.458z" fill="#a583bb"/><path d="m135.673 234.736c-.768 0-1.391-.623-1.391-1.391v-13.03c0-.768.623-1.391 1.391-1.391s1.391.623 1.391 1.391v13.03c0 .769-.623 1.391-1.391 1.391z" fill="#c2aacf"/></g></g><g><path d="m187.383 207.117v5.545c0 1.908-2.447 2.701-3.563 1.159-.905-1.252-1.797-2.509-3.606-2.509-3.581 0-3.581 4.957-7.162 4.957s-3.581-4.957-7.162-4.957-3.581 4.957-7.162 4.957-3.581-4.957-7.162-4.957-3.581 4.957-7.162 4.957-3.581-4.957-7.162-4.957c-1.803 0-2.701 1.258-3.6 2.503-1.121 1.549-3.563.75-3.563-1.159v-5.539c0-1.766 1.431-3.197 3.197-3.197h50.91c1.766 0 3.197 1.431 3.197 3.197z" fill="#c0405c"/><path d="m187.383 207.117v2.937c0 1.908-2.447 2.708-3.563 1.159-.905-1.245-1.797-2.509-3.606-2.509-3.581 0-3.581 4.957-7.162 4.957s-3.581-4.957-7.162-4.957-3.581 4.957-7.162 4.957-3.581-4.957-7.162-4.957-3.581 4.957-7.162 4.957-3.581-4.957-7.162-4.957c-1.803 0-2.701 1.258-3.6 2.503-1.121 1.549-3.563.75-3.563-1.159v-2.931c0-1.766 1.431-3.197 3.197-3.197h50.91c1.766 0 3.197 1.431 3.197 3.197z" fill="#e9465e"/><path d="m183.747 203.92h-50.03c-.698 0-1.264.566-1.264 1.264s.566 1.264 1.264 1.264h50.03c.698 0 1.264-.566 1.264-1.264s-.566-1.264-1.264-1.264z" fill="#ee6781"/></g></g></g></g></g><g><g><g><g><path d="m216.566 348.635v63.441c0 2.142-.574 4.152-1.576 5.883-1.303 2.26-3.342 4.049-5.787 5.029-1.355.552-2.842.854-4.395.854h-92.147c-1.561 0-3.048-.302-4.403-.854-2.444-.987-4.484-2.768-5.787-5.029-1.001-1.73-1.576-3.74-1.576-5.883v-63.441c0-4.94 3.041-9.173 7.362-10.911 1.355-.552 2.842-.854 4.403-.854h92.147c1.553 0 3.041.302 4.395.854 4.316 1.738 7.364 5.964 7.364 10.911z" fill="#d48d77"/><path d="m115.621 348.635v63.441c0 4.947-3.048 9.173-7.362 10.911-4.322-1.738-7.362-5.971-7.362-10.911v-63.441c0-4.94 3.041-9.173 7.362-10.911 4.314 1.738 7.362 5.964 7.362 10.911z" fill="#c17e62"/><path d="m216.566 348.635v63.441c0 2.142-.574 4.152-1.576 5.883-1.303 2.26-3.342 4.049-5.787 5.029-2.444-.987-4.484-2.768-5.787-5.029-1.001-1.73-1.576-3.74-1.576-5.883v-63.441c0-4.94 3.041-9.173 7.362-10.911 4.316 1.738 7.364 5.964 7.364 10.911z" fill="#eea47d"/><path d="m214.991 417.959c-2.032 3.519-5.831 5.883-10.182 5.883h-92.147c-1.561 0-3.048-.302-4.403-.854-2.444-.987-4.484-2.768-5.787-5.029 1.303-2.26 3.342-4.042 5.787-5.029 1.355-.552 2.842-.854 4.403-.854h92.147c4.351.001 8.15 2.364 10.182 5.883z" fill="#a26d5a"/></g><g><path d="m202.373 385.471h-87.283c-7.839 0-14.193-6.355-14.193-14.193v-6.504h115.67v6.504c-.001 7.838-6.355 14.193-14.194 14.193z" fill="#a26d5a"/><path d="m216.566 348.635v19.481c0 5.117-4.152 9.269-9.269 9.269h-97.131c-5.117 0-9.269-4.152-9.269-9.269v-19.481c0-4.94 3.041-9.173 7.362-10.911 1.355-.552 2.842-.854 4.403-.854h92.147c1.553 0 3.041.302 4.395.854 4.314 1.738 7.362 5.964 7.362 10.911z" fill="#c17e62"/><path d="m115.621 348.635v28.75h-5.455c-5.117 0-9.269-4.152-9.269-9.269v-19.481c0-4.94 3.041-9.173 7.362-10.911 4.314 1.738 7.362 5.964 7.362 10.911z" fill="#a26d5a"/><path d="m216.566 348.635v19.481c0 5.117-4.152 9.269-9.269 9.269h-5.456v-28.75c0-4.94 3.041-9.173 7.362-10.911 4.315 1.738 7.363 5.964 7.363 10.911z" fill="#d48d77"/><path d="m189.467 343.066h-61.471c-3.562 0-6.449 2.887-6.449 6.449s2.887 6.449 6.449 6.449h61.471c3.562 0 6.449-2.887 6.449-6.449 0-3.561-2.888-6.449-6.449-6.449z" fill="#d48d77"/><path d="m186.022 351.35h-38.932c-2.287 0-4.142-1.854-4.142-4.142 0-2.287 1.854-4.142 4.142-4.142h38.932c2.287 0 4.142 1.854 4.142 4.142 0 2.287-1.855 4.142-4.142 4.142z" fill="#eea47d"/></g><g><g><path d="m131.06 365.753c-.832-.618-1.863-.979-2.982-.979h-7.421c-1.112 0-2.142.361-2.974.979-1.252.906-2.061 2.385-2.061 4.057v15.152c0 1.671.81 3.151 2.061 4.057.832.618 1.863.979 2.974.979h7.421c1.119 0 2.15-.361 2.982-.979 1.244-.913 2.054-2.393 2.054-4.057v-15.152c0-1.665-.81-3.144-2.054-4.057zm-2.06 16.784c0 1.62-1.313 2.934-2.934 2.934h-3.394c-1.62 0-2.934-1.313-2.934-2.934v-10.304c0-1.62 1.313-2.934 2.934-2.934h3.394c1.62 0 2.934 1.313 2.934 2.934z" fill="#f9c744"/><path d="m133.114 369.809v15.152c0 1.664-.81 3.144-2.054 4.057-1.252-.913-2.061-2.393-2.061-4.057v-15.152c0-1.664.81-3.144 2.061-4.057 1.244.914 2.054 2.393 2.054 4.057z" fill="#fad98f"/><path d="m119.737 369.809v15.152c0 1.664-.81 3.144-2.054 4.057-1.252-.906-2.061-2.385-2.061-4.057v-15.152c0-1.671.81-3.151 2.061-4.057 1.244.914 2.054 2.393 2.054 4.057z" fill="#f39e22"/><path d="m131.06 365.753c-.832-.618-1.863-.979-2.982-.979h-4.734c.27 1.658.904 3.19 1.809 4.526h.914c1.62 0 2.934 1.313 2.934 2.934v.614c1.246.702 2.633 1.182 4.114 1.372v-4.41c-.001-1.665-.811-3.144-2.055-4.057z" fill="#faefdc"/></g><g><path d="m199.787 365.753c-.832-.618-1.863-.979-2.982-.979h-7.421c-1.112 0-2.142.361-2.974.979-1.252.906-2.061 2.385-2.061 4.057v15.152c0 1.671.81 3.151 2.061 4.057.832.618 1.863.979 2.974.979h7.421c1.119 0 2.15-.361 2.982-.979 1.244-.913 2.054-2.393 2.054-4.057v-15.152c.001-1.665-.809-3.144-2.054-4.057zm-2.059 16.784c0 1.62-1.313 2.934-2.934 2.934h-3.394c-1.62 0-2.934-1.313-2.934-2.934v-10.304c0-1.62 1.313-2.934 2.934-2.934h3.394c1.62 0 2.934 1.313 2.934 2.934z" fill="#f9c744"/><path d="m201.842 369.809v15.152c0 1.664-.81 3.144-2.054 4.057-1.252-.913-2.061-2.393-2.061-4.057v-15.152c0-1.664.81-3.144 2.061-4.057 1.244.914 2.054 2.393 2.054 4.057z" fill="#fad98f"/><path d="m188.464 369.809v15.152c0 1.664-.81 3.144-2.054 4.057-1.252-.906-2.061-2.385-2.061-4.057v-15.152c0-1.671.81-3.151 2.061-4.057 1.244.914 2.054 2.393 2.054 4.057z" fill="#f39e22"/><path d="m199.787 365.753c-.832-.618-1.863-.979-2.982-.979h-4.734c.27 1.658.904 3.19 1.809 4.526h.914c1.62 0 2.934 1.313 2.934 2.934v.614c1.246.702 2.633 1.182 4.114 1.372v-4.41c0-1.665-.81-3.144-2.055-4.057z" fill="#faefdc"/></g></g><g><path d="m184.349 325.878v10.992h-8.827v-6.994c0-3.873-3.144-7.016-7.024-7.016h-19.525c-3.88 0-7.024 3.144-7.024 7.016v6.994h-8.827v-10.992c0-1.156.184-2.268.515-3.306 1.399-4.359 5.485-7.517 10.307-7.517h29.582c4.822 0 8.908 3.158 10.307 7.517.331 1.039.516 2.15.516 3.306z" fill="#a26d5a"/><path d="m183.833 322.572c-1.178 4.197-4.285 7.576-8.312 9.129v-1.826c0-3.873-3.144-7.016-7.024-7.016h-19.525c-3.88 0-7.024 3.144-7.024 7.016v1.826c-1.811-.699-3.438-1.767-4.786-3.114-1.649-1.649-2.879-3.711-3.527-6.015 1.399-4.359 5.485-7.517 10.307-7.517h29.582c4.824 0 8.91 3.159 10.309 7.517z" fill="#c17e62"/><path d="m173.345 322.86h-22.698c-2.109 0-3.819-1.71-3.819-3.819v-.166c0-2.109 1.71-3.819 3.819-3.819h22.698c2.109 0 3.819 1.71 3.819 3.819v.166c0 2.109-1.71 3.819-3.819 3.819z" fill="#d48d77"/></g></g><path d="m216.928 428.892c-2.789-2.789-2.789-7.312 0-10.101l11.965-11.965c2.498-2.496 2.498-6.547 0-9.043-2.495-2.498-6.548-2.498-9.043 0l-11.965 11.965c-2.789 2.789-7.312 2.789-10.101 0l-11.965-11.965c-2.495-2.498-6.548-2.498-9.043 0-2.498 2.497-2.498 6.547 0 9.043l11.965 11.965c2.789 2.789 2.789 7.312 0 10.101l-11.965 11.965c-2.498 2.497-2.498 6.547 0 9.043 1.248 1.249 2.885 1.874 4.522 1.874 1.636 0 3.274-.625 4.522-1.874l11.965-11.965c2.789-2.789 7.312-2.789 10.101 0l11.964 11.965c1.247 1.249 2.885 1.874 4.522 1.874 1.636 0 3.274-.625 4.522-1.874 2.498-2.496 2.498-6.547 0-9.043z" fill="#e9465e"/></g><path d="m158.735 256.266c-2.699 0-4.886 2.188-4.886 4.886v40.28c0 2.699 2.188 4.886 4.886 4.886 2.699 0 4.886-2.188 4.886-4.886v-40.28c0-2.699-2.187-4.886-4.886-4.886z" fill="#9175a7"/><g><g><g><path d="m408.294 158.048v80.496c0 3.22-1.942 5.981-4.717 7.185h-.004c-.952.411-2.001.641-3.105.641h-92.844c-1.104 0-2.153-.23-3.105-.641-2.776-1.201-4.721-3.965-4.721-7.185v-80.496l54.249-54.414z" fill="#fbcb74"/><path d="m408.294 158.048v80.496c0 3.22-1.942 5.981-4.717 7.185h-.004c-2.772-1.204-4.717-3.965-4.717-7.185v-80.496c0-3.217 1.946-5.977 4.717-7.185h.004c2.775 1.204 4.717 3.968 4.717 7.185z" fill="#faefdc"/><path d="m309.236 158.048v80.496c0 3.22-1.942 5.985-4.717 7.185-2.776-1.201-4.721-3.965-4.721-7.185v-80.496c0-3.217 1.946-5.981 4.721-7.185 2.775 1.204 4.717 3.968 4.717 7.185z" fill="#deb36f"/><path d="m387.061 153.866c0 2.606-2.113 4.719-4.719 4.719h-56.593c-2.606 0-4.719-2.113-4.719-4.719s2.113-4.719 4.719-4.719h56.593c2.606 0 4.719 2.113 4.719 4.719z" fill="#fbd9a3"/></g><g><path d="m375.286 223.419h-42.479c-4.883 0-8.841-3.958-8.841-8.841v-42.479c0-4.883 3.958-8.841 8.841-8.841h42.479c4.883 0 8.841 3.958 8.841 8.841v42.479c.001 4.883-3.958 8.841-8.841 8.841z" fill="#c4983d"/><g><g><path d="m352.294 173.436v13.151c0 .028 0 .063-.007.091-.042 2.72-2.257 4.907-4.991 4.907h-13.151c-2.762 0-5.005-2.236-5.005-4.998v-13.151c0-2.734 2.194-4.956 4.914-4.998.028-.007.063-.007.091-.007h13.151c2.762 0 4.998 2.243 4.998 5.005z" fill="#6052a3"/><path d="m352.294 173.436v13.151c0 .028 0 .063-.007.091-.028.007-.063.007-.091.007h-6.351c-6.519 0-11.798-5.286-11.798-11.798v-6.358c0-.028 0-.063.007-.091.028-.007.063-.007.091-.007h13.151c2.762 0 4.998 2.243 4.998 5.005z" fill="#57409b"/><path d="m346.207 184.427c-1.677 0-3.037-1.36-3.037-3.037v-7.503c0-1.677 1.36-3.037 3.037-3.037s3.037 1.36 3.037 3.037v7.503c0 1.677-1.36 3.037-3.037 3.037z" fill="#9175a7"/></g><g><path d="m378.954 173.436v13.151c0 .028 0 .063-.007.091-.042 2.72-2.257 4.907-4.991 4.907h-13.151c-2.762 0-5.005-2.236-5.005-4.998v-13.151c0-2.734 2.194-4.956 4.914-4.998.028-.007.063-.007.091-.007h13.151c2.762 0 4.998 2.243 4.998 5.005z" fill="#6052a3"/><path d="m378.954 173.436v13.151c0 .028 0 .063-.007.091-.028.007-.063.007-.091.007h-6.351c-6.519 0-11.798-5.286-11.798-11.798v-6.358c0-.028 0-.063.007-.091.028-.007.063-.007.091-.007h13.151c2.762 0 4.998 2.243 4.998 5.005z" fill="#57409b"/><path d="m372.867 184.427c-1.677 0-3.037-1.36-3.037-3.037v-7.503c0-1.677 1.36-3.037 3.037-3.037s3.037 1.36 3.037 3.037v7.503c0 1.677-1.36 3.037-3.037 3.037z" fill="#9175a7"/></g><g><path d="m352.294 200.096v13.151c0 .028 0 .063-.007.091-.042 2.72-2.257 4.907-4.991 4.907h-13.151c-2.762 0-5.005-2.236-5.005-4.998v-13.151c0-2.734 2.194-4.956 4.914-4.998.028-.007.063-.007.091-.007h13.151c2.762 0 4.998 2.243 4.998 5.005z" fill="#6052a3"/><path d="m352.294 200.096v13.151c0 .028 0 .063-.007.091-.028.007-.063.007-.091.007h-6.351c-6.519 0-11.798-5.286-11.798-11.798v-6.358c0-.028 0-.063.007-.091.028-.007.063-.007.091-.007h13.151c2.762 0 4.998 2.243 4.998 5.005z" fill="#57409b"/><path d="m346.207 211.087c-1.677 0-3.037-1.36-3.037-3.037v-7.503c0-1.677 1.36-3.037 3.037-3.037s3.037 1.36 3.037 3.037v7.503c0 1.677-1.36 3.037-3.037 3.037z" fill="#9175a7"/></g><g><path d="m378.954 200.096v13.151c0 .028 0 .063-.007.091-.042 2.72-2.257 4.907-4.991 4.907h-13.151c-2.762 0-5.005-2.236-5.005-4.998v-13.151c0-2.734 2.194-4.956 4.914-4.998.028-.007.063-.007.091-.007h13.151c2.762 0 4.998 2.243 4.998 5.005z" fill="#6052a3"/><path d="m378.954 200.096v13.151c0 .028 0 .063-.007.091-.028.007-.063.007-.091.007h-6.351c-6.519 0-11.798-5.286-11.798-11.798v-6.358c0-.028 0-.063.007-.091.028-.007.063-.007.091-.007h13.151c2.762 0 4.998 2.243 4.998 5.005z" fill="#57409b"/><path d="m372.867 211.087c-1.677 0-3.037-1.36-3.037-3.037v-7.503c0-1.677 1.36-3.037 3.037-3.037s3.037 1.36 3.037 3.037v7.503c0 1.677-1.36 3.037-3.037 3.037z" fill="#9175a7"/></g></g></g><g><path d="m428.072 169.829c0 1.679-.641 3.354-1.92 4.632-2.572 2.572-6.748 2.557-9.301-.033l-58.14-59.01c-2.564-2.605-6.767-2.605-9.331 0l-58.14 59.01c-1.282 1.301-2.976 1.953-4.666 1.953-1.679 0-3.357-.641-4.636-1.92-2.16-2.16-2.494-5.455-1.008-7.967.274-.463.611-.9 1.008-1.297l67.486-67.482c2.557-2.561 6.707-2.557 9.264 0l67.463 67.482c.397.397.734.834 1.008 1.297.609 1.026.913 2.178.913 3.335z" fill="#e9465e"/><path d="m427.16 166.493c-.274.463-.611.9-1.008 1.297v.004c-2.572 2.572-6.748 2.553-9.301-.037l-58.14-59.01c-2.564-2.605-6.767-2.605-9.331 0l-58.14 59.01c-1.282 1.301-2.976 1.953-4.669 1.953-1.679 0-3.354-.637-4.632-1.916-.4-.4-.734-.838-1.008-1.301.274-.463.611-.9 1.008-1.297l67.486-67.482c2.557-2.561 6.707-2.557 9.264 0l67.463 67.482c.397.397.734.834 1.008 1.297z" fill="#ee6781"/><g fill="#f789a1"><path d="m308.047 145.094-.192-.188c-1.564-1.535-1.575-4.05-.026-5.599l25.432-25.431c1.529-1.529 4.006-1.54 5.548-.024 1.554 1.527 1.574 4.025.045 5.577l-25.241 25.619c-1.523 1.548-4.014 1.569-5.566.046z"/><path d="m400.048 145.094.187-.184c1.568-1.536 1.58-4.057.028-5.609l-25.417-25.424c-1.53-1.53-4.007-1.543-5.553-.029-1.561 1.528-1.583 4.034-.05 5.59l25.23 25.608c1.528 1.549 4.021 1.571 5.575.048z"/></g></g></g><g><path d="m398.741 106.771v31.006l-12.448-12.451v-18.555c0-1.734 1.404-3.139 3.135-3.139h6.178c1.73.001 3.135 1.405 3.135 3.139z" fill="#c0405c"/><path d="m398.741 106.771v26.404l-5.014-5.018c-1.816-1.812-2.831-4.273-2.831-6.833v-14.552c0-1.734 1.404-3.139 3.135-3.139h1.575c1.73 0 3.135 1.404 3.135 3.138z" fill="#e9465e"/></g></g></g></g></svg>