<svg id="Capa_1" enable-background="new 0 0 512 512" height="512" viewBox="0 0 512 512" width="512" xmlns="http://www.w3.org/2000/svg"><g><g><g><path d="m143.5 156.5h34.181l1.819-13v-24l-16.968-3.394-19.032 3.394 2.521 18.904z" fill="#8d9ca8"/><path d="m179.5 143.5v13l-18 3.181-18-3.181v-37l6.266-2.372 7.734 2.372v20c0 2.209 1.791 4 4 4z" fill="#7a8c98"/><g><path d="m136.921 118.5h49.158c4.39 0 7.293-4.559 5.437-8.537l-1.549-4.461-7.467-16.002-21-2.926-20 2.926-10.016 20.463c-1.856 3.978 1.047 8.537 5.437 8.537z" fill="#f8f7f7"/><path d="m187.08 119.5h-51.16c-4.39 0-7.29-4.56-5.44-8.54l10.02-21.46 6.883-1.649 6.607 1.649-4.14 12.023c-.671 1.948.776 3.977 2.837 3.977h37.284l2.55 5.46c1.849 3.98-1.051 8.54-5.441 8.54z" fill="#e8e8e8"/></g><g><path d="m136.921 88.5h49.158c4.39 0 7.293-4.559 5.437-8.537l-1.549-4.461-7.467-16.002-20.223-2.713-20.777 2.713-10.016 20.463c-1.856 3.978 1.047 8.537 5.437 8.537z" fill="#f8f7f7"/><path d="m187.08 89.5h-51.16c-4.39 0-7.29-4.56-5.44-8.54l10.02-21.46 6.457-1.947 6.033 1.947-4.14 12.023c-.671 1.948.776 3.977 2.837 3.977h38.284l2.55 5.46c1.849 3.98-1.051 8.54-5.441 8.54z" fill="#e8e8e8"/></g><g><path d="m136.921 58.5h49.158c4.39 0 7.293-4.559 5.437-8.537l-1.549-4.461-4.774-10.23c-1.643-3.521-5.177-5.771-9.062-5.771h-28.392c-3.818 0-7.303 2.174-8.982 5.604l-7.273 14.859c-1.856 3.977 1.047 8.536 5.437 8.536z" fill="#f8f7f7"/><path d="m187.08 59.5h-51.16c-4.39 0-7.29-4.56-5.44-8.54l7.326-15.691c1.643-3.52 5.176-5.769 9.061-5.769h7.123l-4.14 12.023c-.671 1.948.776 3.977 2.837 3.977h37.284l2.55 5.46c1.849 3.98-1.051 8.54-5.441 8.54z" fill="#e8e8e8"/></g></g><g><path d="m237.5 156.5h34.181l1.819-13v-24l-16.968-3.394-19.032 3.394 2.521 18.904z" fill="#8d9ca8"/><path d="m273.5 143.5v13l-18 3.181-18-3.181v-37l6.266-2.372 7.734 2.372v20c0 2.209 1.791 4 4 4z" fill="#7a8c98"/><g><path d="m230.921 118.5h49.158c4.39 0 7.293-4.559 5.437-8.537l-1.549-4.461-7.467-16.002-21-2.926-20 2.926-10.016 20.463c-1.856 3.978 1.047 8.537 5.437 8.537z" fill="#f8f7f7"/><path d="m281.08 119.5h-51.16c-4.39 0-7.29-4.56-5.44-8.54l10.02-21.46 6.883-1.649 6.607 1.649-4.14 12.023c-.671 1.948.776 3.977 2.837 3.977h37.284l2.55 5.46c1.849 3.98-1.051 8.54-5.441 8.54z" fill="#e8e8e8"/></g><g><path d="m230.921 88.5h49.158c4.39 0 7.293-4.559 5.437-8.537l-1.549-4.461-7.467-16.002-20.223-2.713-20.777 2.713-10.016 20.463c-1.856 3.978 1.047 8.537 5.437 8.537z" fill="#f8f7f7"/><path d="m281.08 89.5h-51.16c-4.39 0-7.29-4.56-5.44-8.54l10.02-21.46 6.457-1.947 6.033 1.947-4.14 12.023c-.671 1.948.776 3.977 2.837 3.977h38.284l2.55 5.46c1.849 3.98-1.051 8.54-5.441 8.54z" fill="#e8e8e8"/></g><g><path d="m230.921 58.5h49.158c4.39 0 7.293-4.559 5.437-8.537l-1.549-4.461-4.774-10.23c-1.643-3.521-5.177-5.771-9.062-5.771h-28.392c-3.818 0-7.303 2.174-8.982 5.604l-7.273 14.859c-1.856 3.977 1.047 8.536 5.437 8.536z" fill="#f8f7f7"/><path d="m281.08 59.5h-51.16c-4.39 0-7.29-4.56-5.44-8.54l7.326-15.691c1.643-3.52 5.176-5.769 9.061-5.769h7.123l-4.14 12.023c-.671 1.948.776 3.977 2.837 3.977h37.284l2.55 5.46c1.849 3.98-1.051 8.54-5.441 8.54z" fill="#e8e8e8"/></g></g><g><path d="m332.5 156.5h34.181l1.819-13v-24l-16.968-3.394-19.032 3.394 2.521 18.904z" fill="#8d9ca8"/><path d="m368.5 143.5v13l-18 3.181-18-3.181v-37l6.266-2.372 7.734 2.372v20c0 2.209 1.791 4 4 4z" fill="#7a8c98"/><g><path d="m325.921 118.5h49.158c4.39 0 7.293-4.559 5.437-8.537l-1.549-4.461-7.467-16.002-21-2.926-20 2.926-10.016 20.463c-1.856 3.978 1.047 8.537 5.437 8.537z" fill="#f8f7f7"/><path d="m376.08 119.5h-51.16c-4.39 0-7.29-4.56-5.44-8.54l10.02-21.46 6.883-1.649 6.607 1.649-4.14 12.023c-.671 1.948.776 3.977 2.837 3.977h37.284l2.55 5.46c1.849 3.98-1.051 8.54-5.441 8.54z" fill="#e8e8e8"/></g><g><path d="m325.921 88.5h49.158c4.39 0 7.293-4.559 5.437-8.537l-1.549-4.461-7.467-16.002-20.223-2.713-20.777 2.713-10.016 20.463c-1.856 3.978 1.047 8.537 5.437 8.537z" fill="#f8f7f7"/><path d="m376.08 89.5h-51.16c-4.39 0-7.29-4.56-5.44-8.54l10.02-21.46 6.457-1.947 6.033 1.947-4.14 12.023c-.671 1.948.776 3.977 2.837 3.977h38.284l2.55 5.46c1.849 3.98-1.051 8.54-5.441 8.54z" fill="#e8e8e8"/></g><g><path d="m325.921 58.5h49.158c4.39 0 7.293-4.559 5.437-8.537l-1.549-4.461-4.774-10.23c-1.643-3.521-5.177-5.771-9.062-5.771h-28.392c-3.818 0-7.303 2.174-8.982 5.604l-7.273 14.859c-1.856 3.977 1.047 8.536 5.437 8.536z" fill="#f8f7f7"/><path d="m376.08 59.5h-51.16c-4.39 0-7.29-4.56-5.44-8.54l7.326-15.691c1.643-3.52 5.176-5.769 9.061-5.769h7.123l-4.14 12.023c-.671 1.948.776 3.977 2.837 3.977h37.284l2.55 5.46c1.849 3.98-1.051 8.54-5.441 8.54z" fill="#e8e8e8"/></g></g><path d="m407.5 453.5v46c0 2.761-2.239 5-5 5h-21l-9-1c-2.761 0-5-2.239-5-5l-.271-9.344c0-2.03-1.939-3.433-3.676-4.216-.626-.283-1.322-.44-2.053-.44h-30c-2.761 0-5 2.239-5 5v10c0 2.761-2.239 5-5 5h-122l-9-1c-2.761 0-5-2.239-5-5v-9c0-1.127-1.373-2.168-2.003-3.004-.912-1.212-2.363-1.996-3.997-1.996h-30c-2.761 0-5 2.239-5 5v10c0 2.761-2.239 5-5 5h-20l-9-1c-2.761 0-5-2.239-5-5v-45l143-4.665z" fill="#e8e8e8"/><g fill="#d8d8d8"><path d="m119.5 453.5v51h-10c-2.76 0-5-2.24-5-5v-46l7.5-4.665z"/><path d="m199.5 489.5v15h-10c-2.76 0-5-2.24-5-5v-10c0-2.76-2.24-5-5-5h15c2.76 0 5 2.24 5 5z"/><path d="m381.5 489.5v15h-10c-2.76 0-5-2.24-5-5v-10c0-2.76-2.24-5-5-5h15c2.76 0 5 2.24 5 5z"/></g><path d="m493.5 422.5h-57v-235l13-1h45c5.523 0 10 4.477 10 10v183.5l-2.436 7.5 2.436 7.5v15.5l-1 2c0 5.523-4.477 10-10 10z" fill="#f8f7f7"/><path d="m18.5 187.5 2-1h56.926v236h-58.926c-5.523 0-10-4.477-10-10v-215c0-5.523 4.477-10 10-10z" fill="#f8f7f7"/><path d="m504.5 410.5v3c0 5.523-4.477 10-10 10h-59.13v-237h14.13v219c0 2.761 2.239 5 5 5z" fill="#e8e8e8"/><path d="m77.426 410.5v13h-59.926c-5.523 0-10-4.477-10-10v-18.5l2.124-6.716-2.124-8.284v-183.5c0-5.523 4.477-10 10-10h3v219c0 2.761 2.239 5 5 5z" fill="#e8e8e8"/><path d="m98.5 451.917c-11.046 0-20-8.954-20-20l-1.074-250.165c0-9.319 4.948-22.402 13.574-24.622 1.598-.411 3.273-.63 5-.63h320c11.046 0 20 8.954 20 20v257c0 1.727-.219 3.402-.63 5-2.22 8.626-13.601 12.317-22.92 12.317z" fill="#8d9ca8"/><path d="m111 186.5h290c2.761 0 5 2.239 5 5v227c0 2.761-2.239 5-5 5h-290c-2.761 0-5-2.239-5-5v-227c0-2.761 2.239-5 5-5z" fill="#e8e8e8"/><path d="m121 405.5v-201c0-1.657 1.343-3 3-3h264c1.657 0 3 1.343 3 3v201c0 1.657-1.343 3-3 3h-264c-1.657 0-3-1.343-3-3z" fill="#f8f7f7"/><path d="m435.37 438.5c-2.22 8.63-10.05 15-19.37 15h-320c-11.05 0-20-8.95-20-20v-257c0-9.32 6.37-17.15 15-19.37v276.37c0 2.76 2.24 5 5 5z" fill="#7a8c98"/></g><g><path d="m413.5 418.5v-227c0-6.893-5.607-12.5-12.5-12.5h-290c-6.893 0-12.5 5.607-12.5 12.5v227c0 6.893 5.607 12.5 12.5 12.5h290c6.893 0 12.5-5.607 12.5-12.5zm-119.875-55c-4.142 0-7.5 3.358-7.5 7.5v45h-22.625v-222h22.625v142c0 4.142 3.358 7.5 7.5 7.5s7.5-3.358 7.5-7.5v-142h22.625v222h-22.625v-45c0-4.142-3.358-7.5-7.5-7.5zm-105.375-169.5h22.625v222h-22.625zm-15 222h-22.625v-222h22.625zm52.625-222h22.625v222h-22.625zm112.875 0h22.625v222h-22.625zm-225.25 0h22.125v222h-22.125zm285 222h-22.125v-222h22.125z"/><path d="m494.5 179h-51v-2.5c0-15.164-12.336-27.5-27.5-27.5h-40v-22c3.497.019 8.604-1.931 11.465-6.248 2.492-3.912 2.809-8.757.847-12.961l-5.796-12.419c1.98-1.074 3.69-2.644 4.949-4.62 2.492-3.912 2.809-8.757.847-12.961l-5.796-12.419c1.98-1.074 3.69-2.644 4.949-4.62 2.492-3.912 2.809-8.757.847-12.96l-7.323-15.692c-2.863-6.136-9.088-10.1-15.858-10.1h-7.131v-14.5c0-4.142-3.358-7.5-7.5-7.5s-7.5 3.358-7.5 7.5v14.5h-7.131c-6.77 0-12.995 3.964-15.858 10.1l-7.323 15.692c-1.961 4.203-1.645 9.048.847 12.96 1.258 1.976 2.968 3.546 4.949 4.62l-5.796 12.42c-1.961 4.203-1.645 9.048.847 12.96 1.258 1.976 2.968 3.546 4.949 4.62l-5.796 12.42c-1.961 4.203-1.645 9.048.847 12.96 1.854 2.919 6.319 6.208 11.465 6.248v22h-44v-22c3.497.019 8.604-1.931 11.465-6.248 2.492-3.912 2.809-8.757.847-12.961l-5.796-12.419c1.98-1.074 3.69-2.644 4.949-4.62 2.492-3.912 2.809-8.757.847-12.961l-5.796-12.419c1.98-1.074 3.69-2.644 4.949-4.62 2.492-3.912 2.809-8.757.847-12.96l-7.323-15.692c-2.863-6.136-9.088-10.1-15.858-10.1h-7.131v-14.5c0-4.142-3.358-7.5-7.5-7.5s-7.5 3.358-7.5 7.5v14.5h-7.131c-6.77 0-12.995 3.964-15.858 10.1l-7.323 15.692c-1.961 4.203-1.645 9.048.847 12.96 1.258 1.976 2.968 3.546 4.949 4.62l-5.796 12.42c-1.961 4.203-1.645 9.048.847 12.96 1.258 1.976 2.968 3.546 4.949 4.62l-5.796 12.42c-1.961 4.203-1.645 9.048.847 12.96 1.854 2.919 6.319 6.208 11.465 6.248v22h-43v-22h.079c4.638 0 8.895-2.335 11.387-6.248 2.492-3.912 2.809-8.757.847-12.961l-5.796-12.419c1.98-1.074 3.69-2.644 4.949-4.62 2.492-3.912 2.809-8.757.847-12.961l-5.796-12.419c1.98-1.074 3.69-2.644 4.949-4.62 2.492-3.912 2.809-8.757.847-12.96l-7.323-15.692c-2.864-6.136-9.089-10.1-15.859-10.1h-7.131v-14.5c0-4.142-3.358-7.5-7.5-7.5s-7.5 3.358-7.5 7.5v14.5h-7.131c-6.77 0-12.995 3.964-15.858 10.1l-7.323 15.692c-1.961 4.203-1.645 9.048.847 12.96 1.258 1.976 2.968 3.546 4.949 4.62l-5.796 12.42c-1.961 4.203-1.645 9.048.847 12.96 1.258 1.976 2.968 3.546 4.949 4.62l-5.796 12.42c-1.961 4.203-1.645 9.048.847 12.96 2.492 3.913 6.749 6.248 11.387 6.248h.078v22h-40c-15.164 0-27.5 12.336-27.5 27.5v2.5h-51c-9.649 0-17.5 7.851-17.5 17.5v217c0 9.649 7.851 17.5 17.5 17.5h51v2.5c0 15.164 12.336 27.5 27.5 27.5h1v38.5c0 6.893 5.607 12.5 12.5 12.5h30c6.893 0 12.5-5.607 12.5-12.5v-7.5h25v7.5c0 6.893 5.607 12.5 12.5 12.5h76.5c4.142 0 7.5-3.358 7.5-7.5s-3.358-7.5-7.5-7.5h-74v-7.5c0-6.893-5.607-12.5-12.5-12.5h-30c-6.893 0-12.5 5.607-12.5 12.5v7.5h-25v-36h47c4.142 0 7.5-3.358 7.5-7.5s-3.358-7.5-7.5-7.5h-63c-6.893 0-12.5-5.607-12.5-12.5v-148.5c0-4.142-3.358-7.5-7.5-7.5s-7.5 3.358-7.5 7.5v95h-53.5v-183.5c0-1.378 1.122-2.5 2.5-2.5h51v56c0 4.142 3.358 7.5 7.5 7.5s7.5-3.358 7.5-7.5v-73.5c0-6.893 5.607-12.5 12.5-12.5h320c6.893 0 12.5 5.607 12.5 12.5v257c0 6.893-5.607 12.5-12.5 12.5h-222c-4.142 0-7.5 3.358-7.5 7.5s3.358 7.5 7.5 7.5h206v36h-26v-7.5c0-6.893-5.607-12.5-12.5-12.5h-30c-6.893 0-12.5 5.607-12.5 12.5v7.5h-18c-4.142 0-7.5 3.358-7.5 7.5s3.358 7.5 7.5 7.5h20.5c6.893 0 12.5-5.607 12.5-12.5v-7.5h25v7.5c0 6.893 5.607 12.5 12.5 12.5h31c6.893 0 12.5-5.607 12.5-12.5v-38.5h1c15.164 0 27.5-12.336 27.5-27.5v-2.5h51c9.649 0 17.5-7.851 17.5-17.5v-217c0-9.649-7.851-17.5-17.5-17.5zm-426 216v21h-51c-1.378 0-2.5-1.122-2.5-2.5v-18.5zm265.777-328h32.447l7 15h-46.447zm-7.001 45 7-15h32.447l7 15zm6.327-73.557c.409-.876 1.298-1.443 2.266-1.443h29.263c.967 0 1.856.566 2.266 1.442l6.326 13.558h-46.447zm6.397 88.557h21v22h-21zm-100.723-60h32.447l7 15h-46.447zm-7.001 45 7-15h32.447l7 15zm6.327-73.557c.409-.876 1.298-1.443 2.266-1.443h29.263c.967 0 1.856.566 2.266 1.442l6.326 13.558h-46.447zm6.397 88.557h21v22h-21zm-99.723-60h32.447l7 15h-46.447zm-7.001 45 7-15h32.447l7 15zm6.327-73.557c.409-.876 1.298-1.443 2.266-1.443h29.263c.967 0 1.856.566 2.266 1.442l6.326 13.558h-46.447zm6.397 88.557h21v22h-21zm343.5 67c1.378 0 2.5 1.122 2.5 2.5v183.5h-53.5v-186zm0 222h-51v-21h53.5v18.5c0 1.378-1.122 2.5-2.5 2.5z"/><path d="m461.5 239h18c4.142 0 7.5-3.358 7.5-7.5s-3.358-7.5-7.5-7.5h-18c-4.142 0-7.5 3.358-7.5 7.5s3.358 7.5 7.5 7.5z"/><path d="m479.5 254h-18c-4.142 0-7.5 3.358-7.5 7.5s3.358 7.5 7.5 7.5h18c4.142 0 7.5-3.358 7.5-7.5s-3.358-7.5-7.5-7.5z"/><path d="m50.5 224h-18c-4.142 0-7.5 3.358-7.5 7.5s3.358 7.5 7.5 7.5h18c4.142 0 7.5-3.358 7.5-7.5s-3.358-7.5-7.5-7.5z"/><path d="m50.5 254h-18c-4.142 0-7.5 3.358-7.5 7.5s3.358 7.5 7.5 7.5h18c4.142 0 7.5-3.358 7.5-7.5s-3.358-7.5-7.5-7.5z"/><path d="m299 479c0-4.142-3.358-7.5-7.5-7.5h-72c-4.142 0-7.5 3.358-7.5 7.5s3.358 7.5 7.5 7.5h72c4.142 0 7.5-3.358 7.5-7.5z"/></g></g></svg>