<svg id="Capa_1" enable-background="new 0 0 511.968 511.968" height="512" viewBox="0 0 511.968 511.968" width="512" xmlns="http://www.w3.org/2000/svg"><g><g><g><path d="m116.484 185.395c8.284 0 15-6.716 15-15v-5.038l-1.309-12.996h-26.691v18.033c0 7.249 3.142 13.297 9.977 14.695.976.201 1.987.306 3.023.306z" fill="#ffd163"/><path d="m116.484 165.358c-1.657 0-3 1.343-3 3v15.04c0 .58.03 1.16.1 1.72-6.9-1.35-12.1-7.43-12.1-14.72v-18.04h30v13z" fill="#ffb65f"/></g><g><path d="m395.484 185.395c8.284 0 15-6.716 15-15v-5.038l-1.309-12.996h-26.691v18.033c0 7.249 3.142 13.297 9.977 14.695.976.201 1.987.306 3.023.306z" fill="#ffd163"/><path d="m395.484 165.358c-1.657 0-3 1.343-3 3v15.04c0 .58.03 1.16.1 1.72-6.9-1.35-12.1-7.43-12.1-14.72v-18.04h30v13z" fill="#ffb65f"/></g><g><path d="m95.484 288.501c8.284 0 15-6.716 15-15v-5.038l-1.309-12.996h-26.691v18.033c0 7.249 3.142 13.297 9.977 14.695.976.201 1.987.306 3.023.306z" fill="#ffd163"/><path d="m95.484 268.464c-1.657 0-3 1.343-3 3v15.04c0 .58.03 1.16.1 1.72-6.9-1.35-12.1-7.43-12.1-14.72v-18.04h30v13z" fill="#ffb65f"/></g><g><path d="m416.484 288.501c8.284 0 15-6.716 15-15v-5.038l-1.309-12.996h-26.691v18.033c0 7.249 3.142 13.297 9.977 14.695.976.201 1.987.306 3.023.306z" fill="#ffd163"/><path d="m416.484 268.464c-1.657 0-3 1.343-3 3v15.04c0 .58.03 1.16.1 1.72-6.9-1.35-12.1-7.43-12.1-14.72v-18.04h30v13z" fill="#ffb65f"/></g><path d="m349.989 440.653c-.094 0-.188-.001-.283-.002-8.283-.153-13.744-6.722-13.591-15.013l.106-5.758c.233-12.602 1.137-25.581-2.376-37.683l-35.018-112.067c-.395-1.362-.596-2.772-.596-4.19l-.385-185.862-37.679-34.266-4.183-2.588-41 38.109v184.645c0 1.383-.191 2.759-.567 4.089l-32.568 115.19c-2.922 10.335-4.504 21.02-4.703 31.758l-.165 8.902c-.154 8.292-6.996 14.883-15.275 14.735-8.283-.153-13.573-6.722-13.42-15.013l.661-9.532c.247-13.315 2.322-25.937 5.945-38.752l31.486-113.615-.37-188.697c0-4.175 1.737-8.162 4.793-11.003l54.696-50.759c4.813-4.475 12.109-6.756 17.643-3.746 1.083.589 2.108 1.321 3.05 2.196l56 52.052c3.057 2.841 4.793 6.828 4.793 11.003v189.054l31.975 110.153c4.356 15.007 6.418 30.54 6.129 46.166l-.106 5.757c-.151 8.197-6.837 14.737-14.992 14.737z" fill="#b6c4cf"/><path d="m263.144 9.528-58.37 54.25c-3.05 2.85-4.79 6.83-4.79 11.01v189.11l-32 113.18c-3.62 12.82-5.59 26.07-5.83 39.38l-.09 24.19h-.36c-8.28-.15-14.87-7-14.72-15.29l.17-8.9c.24-13.31 2.21-26.56 5.83-39.38l32-113.18v-189.11c0-4.18 1.74-8.16 4.79-11.01l56-52.05c4.82-4.48 11.84-5.21 17.37-2.2z" fill="#9facba"/><path d="m350.094 419.608-.05 21.05h-.05c-.1 0-.19-.01-.29-.01-8.28-.15-14.87-7-14.72-15.29l.11-5.75c.23-12.61-1.43-25.13-4.94-37.24l-32.57-112.2c-.4-1.36-.6-2.77-.6-4.19v-184.65l-41-38.1 5.428-5.072c1.15-1.075 2.936-1.078 4.09-.006l46.482 43.178v184.65c0 1.42.2 2.83.6 4.19l32.57 112.2c3.51 12.11 5.17 24.63 4.94 37.24z" fill="#9facba"/><g><path d="m187.984 425.638h-41l-10 1c-3.314 0-6 2.689-6 6.006v30.031h62l1-16.998v-14.033c0-3.317-2.686-6.006-6-6.006z" fill="#b6c4cf"/><path d="m193.984 445.678v17l-32 2.673-32-2.673v-31.03c0-3.32 2.69-6.01 6-6.01h11v17.04c0 1.657 1.343 3 3 3z" fill="#9facba"/></g><g><path d="m376.484 425.638h-41.501l-9.499 1c-3.314 0-6 2.689-6 6.006v30.031h62l1-16.998v-14.033c0-3.317-2.686-6.006-6-6.006z" fill="#b6c4cf"/><path d="m382.484 445.678v17l-32 2.673-32-2.673v-31.03c0-3.32 2.69-6.01 6-6.01h10.499v17.04c0 1.657 1.343 3 3 3z" fill="#9facba"/></g><path d="m448.984 502.718h-386c-2.761 0-5-2.239-5-5l.248-13.25c0-9.319 4.126-18.942 12.752-21.162 1.598-.411 3.274-.63 5.001-.63h360c11.046 0 20 8.954 20 20v7.042l-2 8c-.001 2.761-2.24 5-5.001 5z" fill="#8d9ca8"/><path d="m455.984 489.718v10c0 2.761-2.239 5-5 5h-390c-2.761 0-5-2.239-5-5v-17.04c0-9.32 6.37-17.15 15-19.37v23.41c0 1.657 1.343 3 3 3z" fill="#7a8c98"/></g><g><path d="m67.332 261.716h5.651v10.533c0 12.407 10.093 22.5 22.5 22.5s22.5-10.093 22.5-22.5v-10.533h59.5l-5.458 20.192c-1.127 3.986 1.191 8.131 5.177 9.258.682.193 1.369.285 2.044.285 3.271 0 6.279-2.158 7.213-5.461l5.741-20.305c.188-.664.283-1.351.283-2.041v-189.109c0-2.084.875-4.092 2.399-5.51l14.958-13.904c3.034-2.82 3.207-7.565.387-10.599-2.821-3.035-7.566-3.208-10.599-.387l-14.958 13.903c-4.568 4.245-7.187 10.258-7.187 16.497v4.131c-21.9 11.444-65.986 34.48-87.491 45.722-7.323 3.827-11.952 11.339-12.082 19.605l-.078 4.968c-.041 2.566.929 4.987 2.729 6.816s4.204 2.835 6.769 2.835h6.651v10.533c0 12.407 10.093 22.5 22.5 22.5s22.5-10.093 22.5-22.5v-10.533h38.5v22.758l-106.059 46.17c-8.077 3.516-13.384 11.481-13.522 20.294l-.066 4.23c-.041 2.566.929 4.987 2.729 6.816s4.204 2.836 6.769 2.836zm35.652 10.533c0 4.136-3.364 7.5-7.5 7.5s-7.5-3.364-7.5-7.5v-10.533h15zm74.5-135.856-33.452-23.32 33.452-17.481zm-80.544 1.289 32.101-16.776 32.57 22.706c-19.047 0-49.643 0-68.667 0 .245-2.514 1.737-4.749 3.996-5.93zm27.044 31.463c0 4.136-3.364 7.5-7.5 7.5s-7.5-3.364-7.5-7.5v-10.533h15zm53.5 71.804-42.721-24.622 42.721-18.597zm-100.075.344 40.24-17.517 39.802 22.939c-22.181 0-62.623 0-84.408 0 .476-2.384 2.092-4.432 4.366-5.422z"/><path d="m435.984 454.925h-46v-23.531c0-7.447-6.056-13.506-13.5-13.506h-3.878c.083-15.651-2.079-31.195-6.445-46.236l-6.731-23.189c-1.155-3.978-5.312-6.267-9.293-5.112-3.978 1.155-6.267 5.315-5.112 9.293l6.731 23.189c3.973 13.688 5.918 27.836 5.833 42.054h-14.998c.083-12.815-1.664-25.543-5.238-37.856l-32.57-112.204c-.198-.684-.299-1.39-.299-2.101v-184.644c0-2.084-.867-4.075-2.394-5.494l-41-38.109c-2.878-2.675-7.334-2.675-10.212 0l-41 38.109c-1.527 1.419-2.394 3.409-2.394 5.494v184.645c0 .692-.096 1.382-.284 2.048l-32.568 115.19c-2.927 10.113-4.926 23.519-5.011 34.922h-15.003c.069-11.76 2.007-26.583 5.582-39.019l16.735-59.19c1.127-3.986-1.191-8.131-5.177-9.258-3.984-1.128-8.131 1.19-9.258 5.177l-16.735 59.19c-3.708 12.87-6.048 28.918-6.151 43.1h-3.63c-7.444 0-13.5 6.059-13.5 13.506v23.531h-46.5c-15.164 0-27.5 12.336-27.5 27.5v17.042c0 6.893 5.607 12.5 12.5 12.5h390c6.893 0 12.5-5.607 12.5-12.5v-17.042c0-15.162-12.337-27.499-27.5-27.499zm-61 0h-49v-22.037h49zm-152.5-253.099 21.842 18.355-21.842 18.355zm0-43.214h67v20.036h-67zm67 43.214v36.71l-21.842-18.355zm-33.5 8.559-19.917-16.738h39.835zm0 19.593 19.917 16.738h-39.835zm33.5-94.545-21.842-18.355 21.842-18.355zm-13.583 8.179h-39.834l19.917-16.737zm-53.417-8.179v-36.711l21.842 18.355zm-.85 136.423c.564-1.995.85-4.057.85-6.129v-4.012h67v4.012c0 2.125.3 4.237.893 6.281l1.692 5.83-36.07 15.873-36.059-15.862zm74.654 20.514 6.344 21.854-28.008-12.321zm-40.304-185.089-19.918-16.738h39.835zm-40.165 185.143 21.557 9.483-27.682 12.182zm-15.873 56.141 36.915 15.507-46.82 19.526zm4.112-14.542 51.942-23.924 52.436 24.123-52.139 21.744zm108.586 14.696 10.22 35.209-47.152-19.807zm-56.66-295.506 24.024 22.331h-48.049zm-118.5 379.675h49v22.037h-49zm311 64.08h-385v-14.542c0-6.893 5.607-12.5 12.5-12.5h173.859c4.142 0 7.5-3.358 7.5-7.5s-3.358-7.5-7.5-7.5h-48.359v-23.531c0-7.447-6.056-13.506-13.5-13.506h-3.36c.059-4.217.403-10.014 1.316-16.327l70.337-29.334 70.342 29.548c.698 5.337 1.016 10.719.975 16.113h-3.11c-7.444 0-13.5 6.059-13.5 13.506v23.531h-26.141c-4.142 0-7.5 3.358-7.5 7.5s3.358 7.5 7.5 7.5h151.141c6.893 0 12.5 5.607 12.5 12.5z"/><path d="m235.509 31.264 15.375-14.291c2.86-2.659 7.34-2.659 10.201 0l56 52.052c1.525 1.417 2.399 3.425 2.399 5.509v189.056c0 .708.1 1.411.297 2.091l15.474 53.307c.952 3.28 3.947 5.411 7.199 5.411.692 0 1.396-.097 2.094-.299 3.978-1.155 6.267-5.315 5.112-9.293l-15.176-53.09h59.5v10.533c0 12.407 10.093 22.5 22.5 22.5s22.5-10.093 22.5-22.5v-10.533h5.651c2.565 0 4.969-1.007 6.769-2.835 1.801-1.829 2.77-4.25 2.729-6.814l-.066-4.232c-.138-8.812-5.446-16.778-13.522-20.293l-106.062-46.17v-22.758h38.5v10.533c0 12.407 10.093 22.5 22.5 22.5s22.5-10.093 22.5-22.5v-10.533h6.651c2.565 0 4.969-1.007 6.769-2.835 1.801-1.829 2.77-4.25 2.729-6.815l-.078-4.969c-.13-8.266-4.759-15.778-12.082-19.604-21.523-11.252-65.905-34.442-87.491-45.722v-4.131c0-6.238-2.62-12.251-7.188-16.497l-56-52.051c-8.587-7.983-22.04-7.982-30.626 0l-15.374 14.29c-3.034 2.82-3.208 7.566-.388 10.6 2.825 3.029 7.571 3.202 10.604.383zm188.475 240.985c0 4.136-3.364 7.5-7.5 7.5s-7.5-3.364-7.5-7.5v-10.533h15zm14.941-25.533c-21.728 0-61.327 0-83.027 0l38.458-22.923 40.203 17.501c2.273.989 3.89 3.038 4.366 5.422zm-61.5-30.294-42.941 25.595v-44.287zm25.559-47.277c0 4.136-3.364 7.5-7.5 7.5s-7.5-3.364-7.5-7.5v-10.533h15zm16.039-25.533c-19.108 0-49.847 0-68.667 0l32.57-22.706 32.101 16.776c2.261 1.181 3.751 3.417 3.996 5.93zm-51.088-30.54-33.452 23.32v-40.801z"/></g></g></svg>