<svg id="Icons" enable-background="new 0 0 512 512" height="512" viewBox="0 0 512 512" width="512" xmlns="http://www.w3.org/2000/svg"><g><g><circle cx="256" cy="256" fill="#53b976" r="256"/><path d="m512 256c0 44.2-11.21 85.79-30.93 122.07-23.79 8.23-49.34 12.69-75.93 12.69-128.41 0-232.5-104.09-232.5-232.5 0-60.67 23.24-115.92 61.31-157.32 7.27-.62 14.62-.94 22.05-.94 141.38 0 256 114.62 256 256z" fill="#78c795"/><path d="m509.57 220.6c-20.88 35.98-59.83 60.17-104.43 60.17-66.65 0-120.69-54.03-120.69-120.69 0-62.69 47.81-114.22 108.96-120.11 61.87 39.43 105.66 104.71 116.16 180.63z" fill="#9acdae"/></g><g><g><path d="m312.107 251.142v134.283h-236.137v-134.283c-.004-6.744 1.371-13.168 3.841-19.008 7.407-17.521 24.765-29.817 44.993-29.817h138.468c20.228 0 37.586 12.297 44.993 29.817 2.471 5.839 3.846 12.263 3.842 19.008z" fill="#c0405c"/><path d="m308.266 232.134c-7.393 17.527-24.767 29.826-44.993 29.827h-138.468c-20.226-.001-37.601-12.3-44.993-29.827 7.407-17.521 24.765-29.817 44.993-29.817h138.468c20.227-.001 37.586 12.296 44.993 29.817z" fill="#e9465e"/></g><path d="m289.58 459.95v49.86c-10.99 1.45-22.2 2.19-33.58 2.19-3.44 0-6.85-.07-10.26-.21-6.25-.24-12.45-.71-18.58-1.4-10.19-1.14-20.21-2.88-30-5.19-6.29-1.48-12.48-3.19-18.58-5.12-10.3-3.26-20.31-7.16-30-11.65-16.85-7.79-32.7-17.37-47.32-28.48z" fill="#e9465e"/><g><path d="m310.92 425.45v13.17c0 11.78-9.56 21.33-21.34 21.33h-188.32c-.93-.7-1.85-1.41-2.77-2.13-7.44-5.82-14.56-12.04-21.31-18.65-.02-.18-.02-.37-.02-.55v-13.17c-.16-26.29 21.63-48.65 48.52-48.52h136.72c26.88-.13 48.69 22.23 48.52 48.52z" fill="#c0405c"/><path d="m310.515 419.189c-1.906 9.818-10.552 17.225-20.933 17.225h-191.087c-10.381 0-19.027-7.407-20.933-17.225 2.688-20.876 18.655-37.596 39.15-41.428 2.907-.543 5.91-.829 8.97-.829h136.714c23.987-.198 45.197 18.278 48.119 42.257z" fill="#e9465e"/></g><g><path d="m355.95 372.62v119.13c-7.34 3.12-14.86 5.9-22.53 8.33-6.98 2.22-14.09 4.14-21.32 5.75-7.39 1.65-14.9 2.99-22.52 3.98v-137.19c0-1.31.08-2.61.23-3.88 1.5-12.88 10.38-23.51 22.3-27.56 21.09-7.51 44.26 9.32 43.84 31.44z" fill="#c0405c"/><g fill="#e9465e"><path d="m355.72 368.74c-5.519 38.836-60.399 38.837-65.91 0 1.916-16.421 15.915-29.306 32.95-29.3 17.037-.006 31.045 12.874 32.96 29.3z"/><path d="m333.42 417.33v82.75c-6.98 2.22-14.09 4.14-21.32 5.75v-88.5c0-.42.03-.84.08-1.24 1.97-13.22 20.83-12.12 21.24 1.24z"/></g></g><g><path d="m98.49 372.62v85.2c-7.89-6.17-15.41-12.79-22.52-19.82-7.45-7.37-14.45-15.2-20.95-23.43-8.51-10.77-16.18-22.24-22.89-34.31v-7.64c0-1.31.08-2.61.23-3.88 2.09-21.46 26.14-35.61 46.08-26.59 11.96 5.01 20.21 17.49 20.05 30.47z" fill="#c0405c"/><path d="m98.27 368.74c-5.515 38.836-60.413 38.836-65.91 0 1.905-16.437 15.912-29.308 32.95-29.3 17.04-.009 31.043 12.867 32.96 29.3z" fill="#e9465e"/><path d="m350.28 354.1c-12.787 19.401-42.252 19.399-55.03 0 12.781-19.447 42.255-19.431 55.03 0z" fill="#ee6781"/><path d="m92.83 354.09c-12.797 19.417-42.251 19.408-55.04 0 12.792-19.431 42.256-19.422 55.04 0z" fill="#ee6781"/><path d="m75.97 417.33v20.67c-7.45-7.37-14.45-15.2-20.95-23.43 1.21-4.55 5.36-7.9 10.29-7.9 5.91-.03 10.7 4.88 10.66 10.66z" fill="#e9465e"/></g><path d="m262.396 376.932h-136.722c0 18.641 15.112 33.753 33.753 33.753h69.215c18.642 0 33.754-15.112 33.754-33.753z" fill="#c0405c"/><path d="m246.579 202.316h-105.081c-22.122.882-22.17 32.483 0 33.387h105.082c9.219 0 16.693-7.474 16.693-16.693 0-9.22-7.474-16.694-16.694-16.694z" fill="#ee6781"/></g><g><g><path d="m148.578 276.809v110.966h97.161v-110.966c0-19.965-16.181-36.156-36.157-36.156h-24.848c-19.976 0-36.156 16.191-36.156 36.156z" fill="#f39e22"/><path d="m148.578 276.809v110.966h74.022v-110.966c0-19.965-16.181-36.156-36.157-36.156h-1.709c-19.976 0-36.156 16.191-36.156 36.156z" fill="#f9c744"/></g><g><path d="m181.105 225.471v17.435c0 8.867 7.191 16.047 16.059 16.047 2.974 0 5.76-.81 8.146-2.22 4.728-2.786 7.902-7.935 7.902-13.828v-17.435h-32.107z" fill="#f5b890"/><path d="m213.212 225.471v17.435c0 5.893-3.174 11.042-7.902 13.828v-18.634c-5.582 2.331-11.719 3.618-18.156 3.618-2.053 0-4.073-.133-6.049-.377v-15.87z" fill="#d48d77"/></g><g><g><path d="m139.922 120.475v65.61c0 13.04 5.283 24.848 13.828 33.393 6.17 6.159 14.028 10.621 22.817 12.64 3.407.777 6.947 1.187 10.587 1.187 26.08 0 47.232-21.141 47.232-47.221v-65.61c0-14.294-11.597-25.88-25.891-25.88h-42.693c-2.508 0-4.927.355-7.224 1.032-10.777 3.119-18.656 13.063-18.656 24.849z" fill="#d48d77"/><path d="m139.922 120.475v65.61c0 13.04 5.283 24.848 13.828 33.393 6.17 6.159 14.028 10.621 22.817 12.64 20.997-4.805 36.645-23.594 36.645-46.034v-25.103c0-32.661-23.572-59.806-54.634-65.355-10.777 3.119-18.656 13.063-18.656 24.849z" fill="#f5b890"/><g fill="#d48d77"><path d="m173.798 163.952h9.629c3.955 0 7.16 3.206 7.16 7.16 0 3.955-3.206 7.16-7.16 7.16h-9.629c-3.955 0-7.16-3.206-7.16-7.16-.001-3.954 3.205-7.16 7.16-7.16z"/><path d="m175.073 94.594h12.079v74.219h-12.079z" transform="matrix(-1 0 0 -1 362.225 263.406)"/></g><g fill="#334353"><path d="m202.97 141.944c3.614 0 6.544 2.93 6.544 6.544v11.421c0 3.614-2.93 6.544-6.544 6.544s-6.544-2.93-6.544-6.544v-11.421c0-3.615 2.93-6.544 6.544-6.544z"/><path d="m165.255 141.944c3.614 0 6.544 2.93 6.544 6.544v11.421c0 3.614-2.93 6.544-6.544 6.544s-6.544-2.93-6.544-6.544v-11.421c0-3.615 2.93-6.544 6.544-6.544z"/></g><g><path d="m185.442 204.663c11.336 0 20.559-9.222 20.559-20.558 0-2.145-1.739-3.884-3.884-3.884s-3.884 1.739-3.884 3.884c0 7.052-5.737 12.79-12.79 12.79-2.145 0-3.884 1.739-3.884 3.884-.001 2.145 1.738 3.884 3.883 3.884z" fill="#c17e62"/></g></g><g><path d="m133.375 125.17c0-16.209 6.575-30.888 17.195-41.508 7.576-7.576 17.224-13.095 28.011-15.639 4.337-1.015 8.855-1.557 13.498-1.557 32.431 0 58.704 26.273 58.704 58.704l-.104 64.222c-.027 16.576-13.472 29.999-30.048 29.999 8.5-8.539 13.755-20.308 13.755-33.306v-54.382h-46.155c-11.109 0-20.114-9.005-20.114-20.114 0 11.109-9.005 20.114-20.114 20.114h-8.08v54.382c0 12.996 5.249 24.767 13.744 33.306-11.207 0-20.292-9.085-20.292-20.292z" fill="#334353"/><path d="m133.375 125.17c0-16.209 6.575-30.888 17.195-41.508 7.576-7.576 17.224-13.095 28.011-15.639 25.911 6.103 45.206 29.359 45.206 57.147v6.533h-35.556c-11.109 0-20.114-9.005-20.114-20.114 0 11.109-9.005 20.114-20.114 20.114h-8.08v54.382c0 12.996 5.249 24.767 13.744 33.306-11.207 0-20.292-9.085-20.292-20.292z" fill="#3e4e60"/></g><g><g><path d="m242.342 173.109h-7.961v-24.911h7.961c6.879 0 12.455 5.576 12.455 12.455s-5.576 12.456-12.455 12.456z" fill="#d48d77"/><path d="m242.743 165.998h-8.362v-10.69h8.362c2.952 0 5.345 2.393 5.345 5.345s-2.393 5.345-5.345 5.345z" fill="#c17e62"/></g><g><path d="m136.437 148.198h3.486v24.911h-3.486c-6.879 0-12.455-5.576-12.455-12.455-.001-6.88 5.576-12.456 12.455-12.456z" fill="#d48d77"/><path d="m136.035 155.309h3.888v10.69h-3.888c-2.952 0-5.345-2.393-5.345-5.345 0-2.953 2.393-5.345 5.345-5.345z" fill="#c17e62"/></g></g></g><g><path d="m197.16 395.43v109.77c-6.29-1.48-12.48-3.19-18.58-5.12-10.3-3.26-20.31-7.16-30-11.65v-71.77c0-9.55 6.32-17.64 15-20.29 1.97-.61 4.06-.94 6.23-.94z" fill="#3e4e60"/><path d="m245.74 416.66v95.13c-6.25-.24-12.45-.71-18.58-1.4-10.19-1.14-20.21-2.88-30-5.19v-109.77h27.35c11.72 0 21.23 9.51 21.23 21.23z" fill="#3e4e60"/><g fill="#3f5d77"><path d="m227.16 416.66v93.73c-10.19-1.14-20.21-2.88-30-5.19v-109.77h8.77c11.72 0 21.23 9.51 21.23 21.23z"/><path d="m178.58 416.66v83.42c-10.3-3.26-20.31-7.16-30-11.65v-71.77c0-9.55 6.32-17.64 15-20.29 8.68 2.65 15 10.74 15 20.29z"/></g></g></g><g><g><path d="m273.371 297.622v71.19c0 1.433-.293 2.801-.814 4.05-.695 1.629-1.77 3.029-3.138 4.093-1.77 1.4-3.995 2.236-6.427 2.236h-137.906c-2.432 0-4.658-.836-6.427-2.236-1.368-1.064-2.443-2.465-3.138-4.093-.521-1.249-.814-2.616-.814-4.05v-71.19c0-5.733 4.647-10.369 10.379-10.369h137.906c5.732.001 10.379 4.637 10.379 10.369z" fill="#c2aacf"/><path d="m273.371 297.622v71.19c0 1.433-.293 2.801-.814 4.05-1.585 3.724-5.266 6.329-9.565 6.329h-.955c-4.299 0-7.98-2.606-9.565-6.329-.521-1.249-.814-2.616-.814-4.05v-71.19c0-5.733 4.647-10.369 10.379-10.369h.955c5.732.001 10.379 4.637 10.379 10.369z" fill="#decee5"/><path d="m136.301 297.622v71.19c0 1.433-.293 2.801-.814 4.05-1.585 3.724-5.266 6.329-9.565 6.329h-.836c-4.299 0-7.98-2.606-9.565-6.329-.521-1.249-.814-2.616-.814-4.05v-71.19c0-5.733 4.647-10.369 10.379-10.369h.836c5.732.001 10.379 4.637 10.379 10.369z" fill="#decee5"/><path d="m269.419 376.955c-1.77 1.4-3.995 2.236-6.427 2.236h-137.906c-2.432 0-4.658-.836-6.427-2.236 5.852-11.291 17.654-19.011 31.257-19.011h88.246c13.603 0 25.405 7.719 31.257 19.011z" fill="#a583bb"/><circle cx="194.039" cy="325.09" fill="#fff" r="13.088"/></g><g><path d="m262.514 387.312c0 4.484-3.637 8.121-8.121 8.121h-120.709c-2.247 0-4.267-.912-5.743-2.378-1.466-1.476-2.378-3.496-2.378-5.743 0-1.487.402-2.866 1.097-4.06 1.401-2.432 4.017-4.061 7.024-4.061h120.709c2.247 0 4.267.912 5.743 2.378.5.499.934 1.064 1.281 1.683.695 1.194 1.097 2.573 1.097 4.06z" fill="#9175a7"/><path d="m261.417 383.252c-1.401 2.432-4.017 4.06-7.024 4.06h-120.709c-2.247 0-4.267-.912-5.743-2.378-.5-.499-.934-1.064-1.281-1.683 1.401-2.432 4.017-4.061 7.024-4.061h120.709c2.247 0 4.267.912 5.743 2.378.5.5.934 1.065 1.281 1.684z" fill="#755c8e"/></g></g><g><g><path d="m442.61 431.25c-5.61 5.97-11.51 11.68-17.67 17.09-5.01 4.41-10.2 8.63-15.55 12.63h-188.13c-8.2 0-14.86-6.65-14.86-14.86 0-2.26.5-4.4 1.41-6.32.73-1.56 1.74-2.98 2.95-4.19 2.68-2.69 6.4-4.35 10.5-4.35z" fill="#a26d5a"/><path d="m442.61 431.25c-5.61 5.97-11.51 11.68-17.67 17.09h-203.68c-5.94 0-11.08-3.49-13.45-8.55.73-1.56 1.74-2.98 2.95-4.19 2.68-2.69 6.4-4.35 10.5-4.35z" fill="#c17e62"/></g><path d="m221.26 460.97v48.69c5.85.8 11.76 1.39 17.73 1.78 5.62.37 11.29.56 17.01.56 31.9 0 62.44-5.84 90.6-16.5 15.01-5.68 29.34-12.73 42.85-21 6.87-4.2 13.52-8.71 19.94-13.53z" fill="#a26d5a"/><path d="m389.45 474.5c-13.51 8.27-27.84 15.32-42.85 21-28.16 10.66-58.7 16.5-90.6 16.5-5.72 0-11.39-.19-17.01-.56v-11.04c0-14.3 11.6-25.9 25.9-25.9z" fill="#c17e62"/><g fill="#d48d77"><path d="m442.61 431.25c-5.61 5.97-11.51 11.68-17.67 17.09h-177.08c-4.72 0-8.54-3.83-8.54-8.55 0-2.35.96-4.49 2.5-6.04 1.54-1.54 3.68-2.5 6.04-2.5z"/><path d="m389.45 474.5c-13.51 8.27-27.84 15.32-42.85 21h-71.21c-2.9 0-5.53-1.18-7.43-3.08s-3.07-4.52-3.07-7.42c0-5.8 4.7-10.5 10.5-10.5z"/></g></g><g><g><path d="m449.747 372.422v23.397c0 19.569-15.862 35.431-35.431 35.431h-29.783v-12.781h27.215c13.92 0 25.217-11.297 25.217-25.217v-20.83c0-1.764.715-3.36 1.864-4.51 1.161-1.161 2.757-1.875 4.521-1.875 3.528-.001 6.397 2.857 6.397 6.385z" fill="#c2aacf"/><path d="m449.747 372.422v6.408c-1.92.971-4.097 1.518-6.396 1.518s-4.465-.547-6.385-1.507v-6.419c0-1.764.715-3.36 1.864-4.51 1.161-1.161 2.757-1.875 4.521-1.875 3.527-.001 6.396 2.857 6.396 6.385z" fill="#fff"/></g><g><path d="m406.625 387.101v22.058c0 12.201-9.89 22.091-22.091 22.091h-72.548v-90.922h47.867c22.873 0 41.906 16.421 45.969 38.11.524 2.802.803 5.705.803 8.663z" fill="#f9eaf9"/><g fill="#fff"><path d="m321.622 417.022h-8.758c-3.929 0-7.113 3.185-7.113 7.113 0 3.929 3.185 7.113 7.113 7.113h8.758c3.929 0 7.113-3.185 7.113-7.113s-3.185-7.113-7.113-7.113z"/><path d="m348.086 417.022h-8.758c-3.929 0-7.113 3.185-7.113 7.113 0 3.929 3.185 7.113 7.113 7.113h8.758c3.929 0 7.113-3.185 7.113-7.113.001-3.928-3.184-7.113-7.113-7.113z"/><path d="m406.625 387.101v22.058c0 12.201-9.891 22.091-22.091 22.091h-24.581v-29.848c0-12.683 10.281-22.964 22.964-22.964h22.905c.524 2.802.803 5.705.803 8.663z"/></g></g><g id="Cat_1_"><g><g><path d="m357.251 309.667.005.002s2.699-8.295 2.699-16.392c0-4.473-1.978-8.381-3.749-10.982-1.265-1.858-3.931-2.051-5.451-.395l-16.943 18.459h-12.494l-16.943-18.459c-1.52-1.656-4.186-1.463-5.451.395-1.771 2.601-3.749 6.509-3.749 10.982 0 8.096 2.699 16.392 2.699 16.392l.005-.002c-.492.935-.907 1.924-1.229 2.96-1.004 3.235-1.474 6.476-1.474 9.644 0 17.236 13.969 32.311 32.39 32.311 9.212 0 17.309-3.77 23.104-9.692 7.925-8.101 11.544-20.232 7.812-32.263-.324-1.037-.739-2.025-1.231-2.96z" fill="#f9eaf9"/></g><g><path d="m298.314 297.217c0 2.865.446 5.763.921 8.042.489 2.342 2.966 3.681 5.189 2.797l1.882-.747 6.677-2.651c2.506-.995 3.237-4.192 1.413-6.179l-6.148-6.698-.004-.004-2.94-3.204c-1.151-1.252-3.174-1.119-4.131.287-1.349 1.974-2.859 4.95-2.859 8.357z" fill="#c2aacf"/></g><g><path d="m356.814 297.217c0 2.865-.446 5.763-.921 8.042-.489 2.342-2.966 3.681-5.189 2.797l-1.882-.747-6.677-2.651c-2.506-.995-3.237-4.192-1.413-6.179l6.148-6.698.004-.004 2.94-3.204c1.151-1.252 3.174-1.119 4.131.287 1.349 1.974 2.859 4.95 2.859 8.357z" fill="#c2aacf"/></g><g fill="#fff"><path d="m342.761 312.373h-2.084c-1.735 0-3.141 1.406-3.141 3.141v2.793c0 1.735 1.406 3.141 3.141 3.141h2.084c1.735 0 3.141-1.406 3.141-3.141v-2.793c0-1.734-1.406-3.141-3.141-3.141z"/><path d="m314.45 312.373h-2.084c-1.735 0-3.141 1.406-3.141 3.141v2.793c0 1.735 1.406 3.141 3.141 3.141h2.084c1.735 0 3.141-1.406 3.141-3.141v-2.793c0-1.734-1.406-3.141-3.141-3.141z"/></g></g><g><g><g><path d="m341.708 342.475c0 2.322-.559 4.513-1.551 6.445-2.344 4.571-7.104 7.699-12.594 7.699-7.812 0-14.144-6.332-14.144-14.144 0-4.682 2.274-8.832 5.779-11.404 2.342-1.722 5.236-2.74 8.366-2.74 7.812-.001 14.144 6.331 14.144 14.144z" fill="#fff"/></g></g><path d="m341.708 341.202c-.866 0-1.569.702-1.569 1.569 0 3.034-2.469 5.503-5.503 5.503-3.035 0-5.503-2.469-5.503-5.503 0-.866-.702-1.569-1.569-1.569-.866 0-1.569.702-1.569 1.569 0 3.034-2.469 5.503-5.503 5.503-3.035 0-5.503-2.469-5.503-5.503 0-.866-.702-1.569-1.569-1.569s-1.569.702-1.569 1.569c0 4.764 3.877 8.64 8.641 8.64 2.923 0 5.508-1.463 7.073-3.692 1.564 2.229 4.149 3.692 7.073 3.692 4.764 0 8.641-3.876 8.641-8.64-.002-.867-.704-1.569-1.571-1.569z" fill="#c2aacf"/><path d="m325.383 342.097c0 1.09.773 2.061 1.852 2.219 1.352.198 2.512-.844 2.512-2.158v-.061c0-.975.79-1.765 1.765-1.765h.617c1.205 0 2.182-.977 2.182-2.182s-.977-2.182-2.182-2.182h-9.129c-1.205 0-2.182.977-2.182 2.182s.977 2.182 2.182 2.182h.617c.975 0 1.766.79 1.766 1.765z" fill="#ee6781"/></g><g><path d="m347.953 325.973c0 .925-.369 1.757-.973 2.361-.557.557-1.302.91-2.133.965-.071.008-.141.008-.22.008h-5.812c-1.843 0-3.333-1.49-3.333-3.333 0-1.835 1.49-3.326 3.333-3.326h5.812c.079 0 .149 0 .22.008 1.734.117 3.106 1.56 3.106 3.317z" fill="#334353"/><path d="m319.646 325.973c0 .925-.376 1.757-.972 2.361-.557.557-1.31.91-2.141.965-.07.008-.141.008-.22.008h-5.812c-1.835 0-3.326-1.49-3.326-3.333 0-1.835 1.49-3.326 3.326-3.326h5.812c.078 0 .149 0 .22.008 1.741.117 3.113 1.56 3.113 3.317z" fill="#334353"/><g fill="#3f5d77"><path d="m347.953 325.973c0 .925-.369 1.757-.973 2.361-.557.557-1.302.91-2.133.965-1.741-.11-3.114-1.553-3.114-3.326 0-1.765 1.373-3.208 3.114-3.318 1.734.118 3.106 1.561 3.106 3.318z"/><path d="m319.646 325.973c0 .925-.376 1.757-.972 2.361-.557.557-1.31.91-2.141.965-1.741-.118-3.114-1.561-3.114-3.326 0-1.757 1.373-3.2 3.114-3.318 1.741.118 3.113 1.561 3.113 3.318z"/></g></g></g></g><g id="Clock_5_"><path d="m345.935 158.37c0-13.629 4.543-26.218 12.21-36.303 10.958-14.45 28.321-23.778 47.86-23.778 33.179 0 60.081 26.901 60.081 60.08 0 18.004-7.929 34.168-20.476 45.189-10.569 9.265-24.43 14.891-39.605 14.891-33.18.002-60.07-26.899-60.07-60.079z" fill="#f0dae2"/><path d="m466.085 158.37c0 13.629-4.543 26.218-12.21 36.303-42.981-7.151-77.391-39.584-87.465-81.492 10.569-9.265 24.43-14.891 39.605-14.891 33.18 0 60.07 26.901 60.07 60.08z" fill="#fff"/><g><path d="m406.009 155.216c1.742 0 3.155 1.412 3.155 3.155v34.282c0 1.743-1.413 3.155-3.155 3.155s-3.155-1.412-3.155-3.155v-34.282c0-1.742 1.413-3.155 3.155-3.155z" fill="#3f5d77"/><path d="m371.728 156.268h34.282c1.162 0 2.103.942 2.103 2.103s-.942 2.103-2.103 2.103h-34.282c-1.162 0-2.103-.942-2.103-2.103s.941-2.103 2.103-2.103z" fill="#3f5d77"/><circle cx="406.01" cy="158.369" fill="#334353" r="8.166"/></g><g><g><g><path d="m406.01 98.293c-3.22 0-5.831 2.611-5.831 5.831v5.79c0 3.22 2.611 5.831 5.831 5.831s5.831-2.611 5.831-5.831v-5.79c0-3.221-2.61-5.831-5.831-5.831z" fill="#c2aacf"/></g><g><path d="m406.01 200.964c-3.22 0-5.831 2.611-5.831 5.831v5.79c0 3.22 2.611 5.831 5.831 5.831s5.831-2.611 5.831-5.831v-5.79c0-3.22-2.61-5.831-5.831-5.831z" fill="#a583bb"/></g></g><g><g><path d="m375.979 106.339c-2.789 1.61-3.744 5.176-2.134 7.965l2.895 5.015c1.61 2.789 5.176 3.744 7.965 2.134s3.744-5.176 2.134-7.965l-2.895-5.015c-1.61-2.788-5.176-3.744-7.965-2.134z" fill="#c2aacf"/></g><g><path d="m427.315 195.256c-2.789 1.61-3.744 5.176-2.134 7.965l2.895 5.015c1.61 2.789 5.176 3.744 7.965 2.134s3.744-5.176 2.134-7.965l-2.895-5.015c-1.61-2.789-5.176-3.744-7.965-2.134z" fill="#a583bb"/></g></g><g><g><path d="m353.995 128.324c-1.61 2.789-.655 6.355 2.134 7.965l5.015 2.895c2.789 1.61 6.355.655 7.965-2.134s.655-6.355-2.134-7.965l-5.015-2.895c-2.789-1.611-6.355-.655-7.965 2.134z" fill="#a583bb"/></g><g><path d="m442.911 179.659c-1.61 2.789-.655 6.355 2.134 7.965l5.015 2.895c2.789 1.61 6.355.655 7.965-2.134s.655-6.355-2.134-7.965l-5.015-2.895c-2.788-1.61-6.355-.654-7.965 2.134z" fill="#c2aacf"/></g></g><g><g><path d="m345.948 158.355c0 3.22 2.611 5.831 5.831 5.831h5.79c3.22 0 5.831-2.611 5.831-5.831s-2.611-5.831-5.831-5.831h-5.79c-3.22 0-5.831 2.61-5.831 5.831z" fill="#a583bb"/></g><g><path d="m448.62 158.355c0 3.22 2.611 5.831 5.831 5.831h5.79c3.22 0 5.831-2.611 5.831-5.831s-2.611-5.831-5.831-5.831h-5.79c-3.22 0-5.831 2.61-5.831 5.831z" fill="#c2aacf"/></g></g><g><g><path d="m353.995 188.386c1.61 2.789 5.176 3.744 7.965 2.134l5.015-2.895c2.789-1.61 3.744-5.176 2.134-7.965s-5.176-3.744-7.965-2.134l-5.015 2.895c-2.789 1.61-3.744 5.176-2.134 7.965z" fill="#a583bb"/></g><g><path d="m442.911 137.05c1.61 2.789 5.176 3.744 7.965 2.134l5.015-2.895c2.789-1.61 3.744-5.176 2.134-7.965s-5.176-3.744-7.965-2.134l-5.015 2.895c-2.788 1.61-3.744 5.176-2.134 7.965z" fill="#c2aacf"/></g></g><g><g><path d="m375.979 210.37c2.789 1.61 6.355.655 7.965-2.134l2.895-5.015c1.61-2.789.655-6.355-2.134-7.965s-6.355-.655-7.965 2.134l-2.895 5.015c-1.61 2.789-.655 6.355 2.134 7.965z" fill="#a583bb"/></g><g><path d="m427.315 121.454c2.789 1.61 6.355.655 7.965-2.134l2.895-5.015c1.61-2.789.655-6.355-2.134-7.965s-6.355-.655-7.965 2.134l-2.895 5.015c-1.61 2.788-.655 6.354 2.134 7.965z" fill="#c2aacf"/></g></g></g><g><path d="m469.173 155.513c-1.495-33.546-29.251-60.373-63.16-60.373-10.493 0-20.394 2.564-29.111 7.114-20.26 10.543-34.125 31.739-34.125 56.116 0 34.863 28.366 63.23 63.236 63.23 34.863 0 63.23-28.366 63.23-63.23 0-.954-.019-1.909-.07-2.857zm-63.16 59.781c-31.389 0-56.924-25.541-56.924-56.924 0-21.361 11.829-40.017 29.283-49.746 8.189-4.575 17.619-7.178 27.641-7.178 31.064 0 56.396 25.02 56.905 55.969.013.318.013.636.013.954 0 31.384-25.535 56.925-56.918 56.925z" fill="#f39e22"/><path d="m469.173 155.513c-2.043.732-4.13 1.368-6.255 1.903-.509-30.95-25.84-55.969-56.905-55.969-10.022 0-19.452 2.602-27.641 7.178-.585-2.087-1.082-4.212-1.47-6.369 8.717-4.55 18.618-7.114 29.111-7.114 33.909-.002 61.664 26.825 63.16 60.371z" fill="#f9c744"/></g></g></g></svg>