<svg id="Icons" enable-background="new 0 0 512 512" height="512" viewBox="0 0 512 512" width="512" xmlns="http://www.w3.org/2000/svg"><g><path d="m512 256c0 15.42-1.36 30.53-3.98 45.2-21.35 119.83-126.06 210.8-252.02 210.8s-230.67-90.97-252.02-210.8c-2.62-14.67-3.98-29.78-3.98-45.2 0-141.38 114.62-256 256-256s256 114.62 256 256z" fill="#e9465e"/><g><g><path d="m508.02 301.2c-21.595 123.801-133.71 215.035-259.39 210.689-119.932-2.577-224.234-92.647-244.65-210.689z" fill="#d48d77"/><g fill="#eea47d"><path d="m380.58 353.08v126.62c-6.65 3.71-13.48 7.13-20.48 10.25v-136.87c0-5.66 4.58-10.24 10.24-10.24 2.83 0 5.39 1.14 7.24 3 1.86 1.85 3 4.41 3 7.24z"/><path d="m422.26 301.2v97.32c0 5.66-4.59 10.24-10.24 10.24-5.66 0-10.25-4.58-10.25-10.24v-97.32z"/><path d="m467.46 381.18v19.14c-6.26 9.17-13.11 17.91-20.48 26.17v-45.31c0-5.65 4.59-10.24 10.24-10.24 2.83 0 5.39 1.15 7.24 3 1.86 1.86 3 4.42 3 7.24z"/><path d="m467.46 301.2v27.74c0 5.65-4.58 10.24-10.24 10.24-5.65 0-10.24-4.59-10.24-10.24v-27.74z"/><path d="m508.02 301.2c-2.88 16.14-7.27 31.76-13.01 46.7v-46.7z"/><path d="m329.69 301.2v42.24c0 5.66-4.59 10.25-10.25 10.25-5.65 0-10.24-4.59-10.24-10.25v-42.24z"/><path d="m305.71 426.29v80.88c-6.74 1.33-13.57 2.39-20.49 3.18v-84.06c0-5.65 4.59-10.24 10.24-10.24 2.83 0 5.39 1.15 7.25 3 1.85 1.85 3 4.41 3 7.24z"/><path d="m248.63 353.08v158.81c-6.9-.19-13.73-.66-20.48-1.39v-157.42c0-5.66 4.58-10.24 10.24-10.24 2.83 0 5.39 1.14 7.24 3 1.85 1.85 3 4.41 3 7.24z"/><path d="m185.76 301.2v92.63c0 5.66-4.58 10.24-10.24 10.24s-10.24-4.58-10.24-10.24v-92.63z"/><path d="m163.68 460.62v34.23c-6.98-2.7-13.81-5.7-20.48-8.98v-25.25c0-5.66 4.58-10.24 10.24-10.24 2.83 0 5.39 1.14 7.24 3 1.86 1.85 3 4.41 3 7.24z"/><path d="m95.83 407.27v48.44c-7.16-5.74-13.99-11.86-20.48-18.32v-30.12c0-5.65 4.58-10.24 10.24-10.24 2.83 0 5.39 1.15 7.24 3s3 4.41 3 7.24z"/><path d="m112.91 301.2v44.31c0 5.65-4.58 10.24-10.24 10.24s-10.24-4.59-10.24-10.24v-44.31z"/><path d="m36.95 345.65v42.9c-8.05-13.26-14.92-27.32-20.48-42.02v-.88c0-5.66 4.58-10.24 10.24-10.24 2.83 0 5.39 1.15 7.24 3s3 4.41 3 7.24z"/></g></g><g id="Laptop_1_"><g><g><path d="m290.47 209.611v128.505c0 10.545-8.545 19.09-19.082 19.09h-205.224c-10.545 0-19.09-8.545-19.09-19.09v-128.505c0-1.118.098-2.22.294-3.289 1.543-8.978 9.37-15.801 18.796-15.801h205.225c10.536 0 19.081 8.545 19.081 19.09z" fill="#a583bb"/><path d="m198.799 357.206h-132.635c-10.545 0-19.09-8.545-19.09-19.09v-128.505c0-1.118.098-2.22.294-3.289 80.563 6.252 144.902 70.394 151.431 150.884z" fill="#9175a7"/><path d="m290.47 209.611v98.552c-7.705 1.779-15.728 2.726-23.971 2.726-58.413 0-105.767-47.354-105.767-105.767 0-4.954.343-9.827 1.004-14.601h109.652c10.537 0 19.082 8.545 19.082 19.09z" fill="#c2aacf"/></g><g><g><path d="m372.25 422.369v12.259c.008.131.008.261 0 .384v.033c-.171 2.024-2.62 3.305-7.207 3.305h-212.627c-8.496 0-21.106-4.366-28.166-9.753l-64.395-49.149c-3.265-2.489-4.766-4.758-4.603-6.48v-12.487h14.618v9.215h205.216c8.496 0 21.106 4.366 28.166 9.753l57.744 44.065v-1.143h11.254z" fill="#9175a7"/><path d="m166.128 404.021c0 11.989-1.91 23.522-5.452 34.328h-8.26c-8.496 0-21.106-4.366-28.166-9.753l-64.395-49.149c-3.265-2.489-4.766-4.758-4.603-6.48v-12.487h14.618v9.215h90.806c3.542 10.805 5.452 22.337 5.452 34.326z" fill="#6c53a2"/><path d="m372.25 422.369v12.259c.008.131.008.261 0 .384v.033c-.171 2.024-2.62 3.305-7.207 3.305h-120.922c-22.322-16.176-38.335-40.523-43.665-68.656h74.63c8.496 0 21.106 4.366 28.166 9.753l57.744 44.065v-1.143z" fill="#a583bb"/></g><g><path d="m365.043 425.862h-212.627c-8.496 0-21.106-4.367-28.166-9.753l-64.395-49.149c-7.06-5.387-5.893-9.753 2.604-9.753h212.627c8.496 0 21.106 4.367 28.166 9.753l18.201 13.891 46.195 35.258c7.059 5.387 5.892 9.753-2.605 9.753z" fill="#c2aacf"/><path d="m367.647 416.109-46.195-35.258-18.201-13.891c-7.06-5.387-19.67-9.753-28.166-9.753h-76.271c1.951 26.632 13.361 50.627 30.876 68.656h135.353c8.497-.001 9.664-4.367 2.604-9.754z" fill="#decee5"/><path d="m166.128 404.021c0 7.476-.743 14.781-2.163 21.841h-11.549c-8.496 0-21.106-4.367-28.166-9.753l-64.395-49.149c-7.06-5.387-5.893-9.753 2.604-9.753h93.263c6.676 14.209 10.406 30.075 10.406 46.814z" fill="#a583bb"/><path d="m321.452 380.85c-11.312 3.55-25.26 5.632-40.351 5.632-37.805 0-68.46-13.108-68.46-29.276h62.445c8.496 0 21.106 4.367 28.166 9.753z" fill="#fff"/></g></g><g><path d="m282.309 216.034v107.497c0 9.582-7.77 17.352-17.352 17.352h-192.37c-9.582 0-17.352-7.77-17.352-17.352v-107.497c0-3.134.832-6.072 2.293-8.611 2.979-5.223 8.611-8.741 15.058-8.741h192.37c9.583.001 17.353 7.77 17.353 17.352z" fill="#334353"/></g><path d="m176.386 343.33h-15.224c-3.155 0-5.713 2.558-5.713 5.713s2.558 5.713 5.713 5.713h15.224c3.155 0 5.713-2.558 5.713-5.713s-2.558-5.713-5.713-5.713z" fill="#6c53a2"/><g><g><g fill="#3e4e60"><path d="m144.034 370.746h-21.106l-.326-.253-5.346-4.081c-.939-.71-.433-2.204.743-2.204h21.098l.326.253 3.958 3.02h.008l1.387 1.061c.931.711.425 2.204-.742 2.204z"/><path d="m128.25 384.76h-20.233l-.318-.245c-.008 0-.008-.008-.016-.008l-7.656-5.844c-.939-.71-.433-2.204.743-2.204h20.233l.326.253 6.276 4.783 1.387 1.061c.931.719.425 2.204-.742 2.204z"/><path d="m178.174 370.746h-21.098l-.326-.253-5.346-4.081c-.939-.71-.433-2.204.743-2.204h21.098l.326.253 3.958 3.02 1.396 1.061c.041.033.082.065.114.098.768.743.262 2.106-.865 2.106z"/><path d="m246.471 370.746h-21.098l-.326-.253-5.354-4.081c-.93-.71-.424-2.204.743-2.204h21.106l.326.253 3.958 3.02 1.387 1.061c.939.711.433 2.204-.742 2.204z"/><path d="m212.323 370.746h-21.098l-.326-.253-5.354-4.081c-.041-.033-.082-.065-.114-.098-.767-.743-.261-2.106.865-2.106h21.098l.326.253 3.958 3.02 1.387 1.061c.939.711.433 2.204-.742 2.204z"/><path d="m182.933 400.438h-21.098l-.294-.228c-.016 0-.025-.008-.033-.016l-9.843-7.517c-.93-.71-.424-2.204.751-2.204h21.098l.326.253 8.447 6.448h.008l1.387 1.061c.041.033.082.065.114.098.769.751.263 2.105-.863 2.105z"/><path d="m285.378 400.438h-21.098l-.245-.188c-.008 0-.008-.008-.016-.008-.025-.016-.049-.033-.073-.049l-8.757-6.693-.073-.057-1.004-.767c-.939-.71-.433-2.204.743-2.204h21.098l.318.245c.008 0 .008.008.016.008l8.447 6.448 1.387 1.061c.938.719.432 2.204-.743 2.204z"/><path d="m217.081 400.438h-21.098l-.294-.228c-.016 0-.024-.008-.033-.016l-9.843-7.517c-.93-.71-.433-2.204.743-2.204h21.098l.318.245c.008 0 .008.008.016.008l8.447 6.448 1.387 1.061c.94.718.434 2.203-.741 2.203z"/><path d="m251.229 400.438h-21.098l-.294-.228c-.016 0-.025-.008-.033-.016l-9.843-7.517c-.93-.71-.433-2.204.743-2.204h21.098l.318.245c.008 0 .008.008.016.008l8.447 6.448 1.387 1.061c.941.718.435 2.203-.741 2.203z"/><path d="m109.886 370.746h-20.07c-.122-.114-.237-.229-.343-.343-.008 0-.008 0-.016-.008-.155-.155-.302-.318-.441-.473-.131-.147-.253-.302-.375-.449v-.008c-.057-.073-.114-.147-.171-.229-.106-.147-.196-.294-.286-.441-.041-.065-.082-.139-.122-.212-.016-.025-.033-.049-.041-.073-.065-.114-.114-.229-.163-.343s-.09-.22-.122-.326c-.008-.041-.024-.073-.033-.106-.073-.253-.106-.498-.106-.726 0-.53.188-1.004.571-1.404.22-.237.514-.457.873-.637.506-.261 1.143-.457 1.91-.579.686-.122 1.485-.18 2.383-.18h11.614l.318.245c.008 0 .008.008.016.008l3.958 3.02 1.387 1.061c.932.71.434 2.203-.741 2.203z"/><path d="m148.792 400.438h-7.99c-1.689 0-3.583-.22-5.566-.612-.988-.196-2-.432-3.012-.71-.514-.139-1.02-.286-1.534-.449-.506-.155-1.02-.327-1.526-.498s-1.012-.359-1.51-.555c-.498-.188-.996-.392-1.485-.596s-.979-.416-1.453-.637c-.473-.22-.947-.449-1.404-.677-.229-.114-.457-.237-.677-.359-.204-.106-.408-.212-.604-.326-.237-.131-.482-.261-.71-.4-.424-.245-.841-.498-1.241-.759-.4-.253-.783-.522-1.151-.784-.18-.131-.359-.269-.539-.4-.939-.71-.433-2.204.743-2.204h20.233l.326.253 8.455 6.448 1.387 1.061c.932.719.426 2.204-.742 2.204z"/><path d="m278.416 370.746h-18.894l-.318-.245c-.008 0-.008-.008-.016-.008l-5.346-4.081c-.93-.71-.433-2.204.743-2.204h7.982c.22 0 .449 0 .677.008.139.008.277.016.416.025.106 0 .204.008.31.016.106 0 .212.016.318.025.22.016.441.033.669.057.033 0 .073.008.106.008.18.016.359.041.539.065.326.041.661.082 1.004.139.253.041.522.082.784.131.277.049.555.098.832.155.09.016.188.041.286.057.041.008.073.016.114.025.294.065.596.131.898.204.245.057.49.114.735.18.09.025.188.049.278.073 1.069.269 2.138.588 3.199.955.359.114.71.245 1.061.367.694.245 1.371.506 2.04.783.147.057.302.122.449.196.163.065.318.13.473.196.057.025.106.049.163.073.335.147.669.302 1.004.457 1.2.556.816 2.343-.506 2.343z"/><path d="m315.78 397.827-.025.196c-.024.131-.065.253-.106.367-.024.065-.057.123-.082.18-.073.139-.163.269-.269.392l-.008.008c-.024.033-.049.049-.073.082-.049.057-.106.106-.163.155s-.122.098-.18.147c-.016.008-.025.016-.033.025 0 0-.008 0-.008.008-.033.016-.057.033-.09.057-.033.016-.057.041-.09.057-.073.049-.155.09-.229.131-.057.033-.122.065-.18.09-.122.065-.253.122-.392.171-.025.008-.049.016-.073.025-.008 0-.016.008-.024.008h-.008c-.147.057-.294.098-.457.147-.212.065-.441.114-.686.155-.082.016-.171.033-.253.041-.163.033-.343.057-.522.074-.106.008-.22.025-.326.033-.057.008-.114.008-.171.016-.065.008-.122.008-.18.008-.139.016-.278.025-.416.025-.229.008-.457.016-.694.016h-11.614l-.245-.188c-.008 0-.008-.008-.016-.008-.024-.016-.049-.033-.073-.049l-8.757-6.693-.073-.057-1.004-.767c-.939-.71-.433-2.204.743-2.204h20.233l.326.253 2.555 1.951c2.098 1.6 3.281 3.085 3.591 4.318.025.098.041.196.057.294.008.016.008.033.008.049.023.169.023.332.007.487z"/><path d="m162.39 384.76h-21.098l-.326-.253-7.664-5.844c-.041-.033-.082-.065-.114-.098-.767-.743-.261-2.106.865-2.106h21.098l.326.253 6.268 4.783h.008l1.387 1.061c.041.033.082.065.114.098.768.751.262 2.106-.864 2.106z"/><path d="m264.835 384.76h-21.098l-.318-.245c-.008 0-.008-.008-.016-.008l-7.656-5.844c-.939-.71-.433-2.204.743-2.204h21.098l.318.245c.008 0 .008.008.016.008l6.268 4.783 1.387 1.061c.939.719.433 2.204-.742 2.204z"/><path d="m196.538 384.76h-21.098l-.326-.253-7.664-5.844c-.93-.71-.424-2.204.751-2.204h21.098l.326.253 6.268 4.783 1.387 1.061c.939.719.433 2.204-.742 2.204z"/><path d="m230.686 384.76h-21.098l-.326-.253-7.664-5.844c-.93-.71-.433-2.204.743-2.204h21.098l.318.245c.008 0 .008.008.016.008l6.268 4.783 1.387 1.061c.94.719.434 2.204-.742 2.204z"/><path d="m298.11 384.76h-20.225l-.318-.245c-.008 0-.008-.008-.016-.008l-7.656-5.844c-.939-.71-.433-2.204.743-2.204h20.233l.326.253 6.276 4.783 1.387 1.061c.931.719.425 2.204-.75 2.204z"/></g><g fill="#3f5d77"><path d="m143.381 367.482h-16.772c-.269 0-.53-.09-.743-.253l-3.958-3.02h17.188l.326.253z"/><path d="m127.605 381.495h-15.907c-.269 0-.531-.09-.751-.253l-6.268-4.783h16.323l.326.253z"/><path d="m177.53 367.482h-16.772c-.269 0-.531-.09-.743-.253l-3.958-3.02h17.188l.326.253z"/><path d="m245.826 367.482h-16.772c-.269 0-.531-.09-.743-.253l-3.958-3.02h17.188l.326.253z"/><path d="m211.678 367.482h-16.772c-.269 0-.53-.09-.743-.253l-3.958-3.02h17.188l.326.253z"/><path d="m182.288 397.174h-16.772c-.269 0-.531-.082-.743-.245l-8.455-6.456h17.197l.326.253z"/><path d="m284.733 397.174h-16.772c-.269 0-.53-.082-.751-.245l-8.447-6.456h17.188l.318.245c.008 0 .008.008.016.008z"/><path d="m216.436 397.174h-16.772c-.269 0-.53-.082-.743-.245l-8.455-6.456h17.188l.318.245c.008 0 .008.008.016.008z"/><path d="m250.585 397.174h-16.772c-.269 0-.531-.082-.743-.245l-8.455-6.456h17.188l.318.245c.008 0 .008.008.016.008z"/><path d="m109.241 367.482h-15.654c-.318 0-.637-.122-.865-.351-.979-1.004-1.567-1.926-1.771-2.742.686-.122 1.485-.18 2.383-.18h11.614l.318.245c.008 0 .008.008.016.008z"/><path d="m148.148 397.174h-4.081c-3.379 0-7.574-.865-11.639-2.269-3.363-1.167-6.644-2.71-9.263-4.432h16.201l.326.253z"/><path d="m276.832 367.482h-13.63c-.269 0-.531-.09-.751-.253l-3.958-3.02h4.073c.22 0 .449 0 .677.008.139.008.277.016.416.025.106 0 .204.008.31.016.106 0 .212.016.318.025.22.016.441.033.669.057.033 0 .073.008.106.008.18.016.359.041.539.065.326.041.661.082 1.004.139.253.041.522.082.784.131.277.049.555.098.832.155.09.016.188.041.286.057.041.008.073.016.114.025.294.065.596.131.898.204.245.057.49.114.735.18.09.025.188.049.278.073 1.069.269 2.138.588 3.199.955.359.114.71.245 1.061.367.694.244 1.371.505 2.04.783z"/><path d="m315.706 396.994c-.694.114-1.494.18-2.4.18h-11.198c-.269 0-.531-.082-.751-.245l-8.447-6.456h16.323l.326.253 2.555 1.951c2.099 1.599 3.282 3.085 3.592 4.317z"/><path d="m161.745 381.495h-16.772c-.269 0-.53-.09-.743-.253l-6.276-4.783h17.197l.326.253z"/><path d="m264.19 381.495h-16.772c-.269 0-.531-.09-.751-.253l-6.268-4.783h17.188l.318.245c.008 0 .008.008.016.008z"/><path d="m195.893 381.495h-16.772c-.269 0-.531-.09-.743-.253l-6.276-4.783h17.197l.326.253z"/><path d="m230.042 381.495h-16.772c-.269 0-.53-.09-.743-.253l-6.276-4.783h17.188l.318.245c.008 0 .008.008.016.008z"/><path d="m297.473 381.495h-15.907c-.269 0-.531-.09-.751-.253l-6.268-4.783h16.323l.326.253z"/></g></g><g><path d="m278.669 419.341h-71.553c-2.857 0-7.101-1.469-9.476-3.289l-3.534-2.693-7.933-6.056c-2.375-1.812-1.983-3.281.873-3.281h71.553c2.857 0 7.101 1.469 9.476 3.281l11.475 8.749c.759.579 1.232 1.126 1.428 1.6.441 1.003-.367 1.689-2.309 1.689z" fill="#3f5d77"/><path d="m278.669 419.341h-71.553c-2.857 0-7.101-1.469-9.476-3.289l-3.534-2.693c-.433-1.004.367-1.681 2.318-1.681h71.545c2.865 0 7.109 1.469 9.484 3.281l3.526 2.693c.44 1.003-.368 1.689-2.31 1.689z" fill="#3e4e60"/></g></g><g fill="#fff"><path d="m250.29 198.683h-52.683c-2.254 0-4.081-1.827-4.081-4.081s1.827-4.081 4.081-4.081h52.683c2.254 0 4.081 1.827 4.081 4.081-.001 2.254-1.828 4.081-4.081 4.081z"/><path d="m349.033 415.545h-51.577c-2.849 0-5.158 2.309-5.158 5.158s2.309 5.158 5.158 5.158h51.577c2.849 0 5.158-2.309 5.158-5.158.001-2.849-2.309-5.158-5.158-5.158z"/></g></g><g><g><path d="m247.2 219.527h-156.855c-6.481 0-11.735 5.254-11.735 11.735v66.159c0 6.481 5.254 11.735 11.735 11.735h156.855c6.481 0 11.735-5.254 11.735-11.735v-66.159c0-6.481-5.254-11.735-11.735-11.735z" fill="#3f5d77"/><g><circle cx="168.772" cy="264.342" fill="#334353" r="37.478"/><g><g><path d="m181.12 297.4v2.33c-3.87 1.36-8.02 2.09-12.35 2.09-3.86 0-7.59-.59-11.1-1.67-2.57-.8-5.02-1.86-7.32-3.17.22-6.14 5.26-11.04 11.45-11.04h7.87c6.33 0 11.45 5.13 11.45 11.46z" fill="#dd5e26"/><path d="m181.12 297.4v2.33c-3.87 1.36-8.02 2.09-12.35 2.09-3.86 0-7.59-.59-11.1-1.67v-2.75c0-6.33 5.13-11.46 11.46-11.46h.54c6.33 0 11.45 5.13 11.45 11.46z" fill="#ea792e"/></g><g><path d="m170.817 281.135v5.524c0 2.809-2.278 5.084-5.088 5.084-.942 0-1.825-.257-2.581-.703-1.498-.883-2.503-2.514-2.503-4.381v-5.524z" fill="#f5b890"/><path d="m160.645 281.135v5.524c0 1.867 1.006 3.498 2.503 4.381v-5.903c1.769.738 3.713 1.146 5.752 1.146.65 0 1.29-.042 1.916-.12v-5.028z" fill="#d48d77"/></g><g><g><g><path d="m151.416 264.546h2.522v-7.892h-2.522c-2.179 0-3.946 1.767-3.946 3.946s1.767 3.946 3.946 3.946z" fill="#d48d77"/><path d="m151.289 262.293h2.649v-3.387h-2.649c-.935 0-1.693.758-1.693 1.693 0 .936.758 1.694 1.693 1.694z" fill="#c17e62"/></g><g><path d="m184.969 256.653h-1.105v7.892h1.105c2.179 0 3.946-1.767 3.946-3.946s-1.767-3.946-3.946-3.946z" fill="#d48d77"/><path d="m185.096 258.906h-1.232v3.387h1.232c.935 0 1.693-.758 1.693-1.693 0-.936-.758-1.694-1.693-1.694z" fill="#c17e62"/></g></g><g><path d="m183.865 247.87v20.786c0 4.131-1.674 7.872-4.381 10.58-1.955 1.951-4.444 3.365-7.229 4.005-1.079.246-2.201.376-3.354.376-8.263 0-14.964-6.698-14.964-14.96v-20.787c0-4.529 3.674-8.199 8.203-8.199h13.526c.795 0 1.561.113 2.289.327 3.413.988 5.91 4.138 5.91 7.872z" fill="#d48d77"/><path d="m183.865 247.87v20.786c0 4.131-1.674 7.872-4.381 10.58-1.955 1.951-4.444 3.365-7.229 4.005-6.652-1.522-11.61-7.475-11.61-14.584v-7.953c0-10.347 7.468-18.947 17.309-20.705 3.414.987 5.911 4.137 5.911 7.871z" fill="#f5b890"/><g fill="#eea47d"><path d="m173.132 261.645h-3.05c-1.253 0-2.269 1.016-2.269 2.269s1.016 2.269 2.269 2.269h3.05c1.253 0 2.269-1.016 2.269-2.269 0-1.254-1.016-2.269-2.269-2.269z"/><path d="m168.901 239.671h3.827v23.514h-3.827z"/></g><g fill="#334353"><path d="m164.841 252.771c-1.145 0-2.073.928-2.073 2.073v3.619c0 1.145.928 2.073 2.073 2.073s2.073-.928 2.073-2.073v-3.619c0-1.145-.929-2.073-2.073-2.073z"/><path d="m176.789 252.771c-1.145 0-2.073.928-2.073 2.073v3.619c0 1.145.928 2.073 2.073 2.073s2.073-.928 2.073-2.073v-3.619c0-1.145-.928-2.073-2.073-2.073z"/></g><g><path d="m169.443 274.543c-3.591 0-6.513-2.922-6.513-6.513 0-.68.551-1.231 1.231-1.231s1.231.551 1.231 1.231c0 2.234 1.818 4.052 4.052 4.052.68 0 1.231.551 1.231 1.231-.001.679-.552 1.23-1.232 1.23z" fill="#c17e62"/></g></g><g><path d="m153.939 264.546h-2.522c-.441 0-.864-.075-1.26-.209v1.052c0 2.093 1.696 3.789 3.789 3.789z" fill="#3e4e60"/><path d="m153.938 256.653h-2.522c-.42 0-.816.083-1.196.204l-.063.003v-10.323c0-4.79 3.883-8.673 8.673-8.673h10.067v2.166c0 2.827-2.292 5.119-5.119 5.119-1.731 0-3.135 1.404-3.135 3.135v1.84c0 3.605-2.923 6.528-6.528 6.528l-.178.009v-.008z" fill="#3e4e60"/><path d="m185.609 241.975c0 1.077.873 1.95 1.95 1.95.464 0 .912-.165 1.265-.466l2.331-1.988c.829-.707 2.106-.118 2.106.972v2.749c0 3.849-3.12 6.969-6.969 6.969-1.6 0-3.134-.635-4.265-1.766l-2.472-2.472c-1.774-1.774-4.18-2.771-6.69-2.771h-10.625c-2.012 0-3.643-1.631-3.643-3.643s1.631-3.643 3.643-3.643h19.26c2.269-.001 4.109 1.839 4.109 4.109z" fill="#3f5d77"/></g></g></g></g></g><g><circle cx="168.772" cy="324.919" fill="#53b976" r="9.392"/><circle cx="193.39" cy="324.919" fill="#e9465e" r="9.392"/><path d="m82.897 320.632h59.922c2.368 0 4.287 1.919 4.287 4.287s-1.919 4.287-4.287 4.287h-59.922c-2.368 0-4.287-1.919-4.287-4.287s1.919-4.287 4.287-4.287z" fill="#3f5d77"/></g></g></g></g><g><g id="Speech-bubble_1_"><path d="m340.399 279.062c4.569 0 9.045-2.231 11.734-6.339l45.178-69.045c4.235-6.473 2.422-15.155-4.052-19.39-6.473-4.236-15.153-2.421-19.39 4.052l-45.178 69.045c-4.235 6.473-2.422 15.155 4.052 19.39 2.365 1.547 5.026 2.287 7.656 2.287z" fill="#ebd9ea"/><path d="m479.14 130.44v42.42c0 12.34-4.18 23.69-11.2 32.74-9.77 12.58-25.04 20.67-42.2 20.67h-135.29c-17.15 0-32.43-8.09-42.19-20.67-7.02-9.05-11.21-20.4-11.21-32.74v-87.48c0-12.34 4.19-23.69 11.21-32.73 9.76-12.58 25.04-20.67 42.19-20.67h89.53c29.71 16.47 55.79 38.68 76.76 65.14 8.3 10.47 15.8 21.61 22.4 33.32z" fill="#ebd9ea"/><path d="m479.14 130.44v42.42c0 12.34-4.18 23.69-11.2 32.74-7.02-9.05-11.2-20.4-11.2-32.74v-75.74c8.3 10.47 15.8 21.61 22.4 33.32z" fill="#fff"/><path d="m259.465 85.38v87.48c0 12.34-4.18 23.69-11.2 32.74-7.03-9.05-11.21-20.4-11.21-32.74v-87.48c0-12.34 4.18-23.69 11.21-32.73 7.02 9.04 11.2 20.39 11.2 32.73z" fill="#c1b7d3"/></g><g><g><path d="m427.443 95.507v76.065c0 2.569-.689 4.979-1.889 7.053-1.562 2.71-4.008 4.855-6.938 6.029-1.624.662-3.407 1.024-5.27 1.024h-110.483c-1.871 0-3.654-.362-5.279-1.024-2.931-1.183-5.376-3.319-6.938-6.029-1.201-2.074-1.889-4.484-1.889-7.053v-76.065c0-5.923 3.646-10.999 8.827-13.082 1.624-.662 3.407-1.024 5.279-1.024h110.482c1.863 0 3.646.362 5.27 1.024 5.173 2.083 8.828 7.15 8.828 13.082z" fill="#d48d77"/><path d="m306.412 95.507v76.065c0 5.932-3.655 10.999-8.827 13.082-5.182-2.083-8.827-7.159-8.827-13.082v-76.065c0-5.923 3.646-10.999 8.827-13.082 5.172 2.083 8.827 7.15 8.827 13.082z" fill="#c17e62"/><path d="m427.443 95.507v76.065c0 2.569-.689 4.979-1.889 7.053-1.562 2.71-4.008 4.855-6.938 6.029-2.931-1.183-5.376-3.319-6.938-6.029-1.201-2.074-1.889-4.484-1.889-7.053v-76.065c0-5.923 3.646-10.999 8.827-13.082 5.172 2.083 8.827 7.15 8.827 13.082z" fill="#eea47d"/><path d="m425.554 178.624c-2.436 4.219-6.991 7.053-12.208 7.053h-110.483c-1.871 0-3.654-.362-5.279-1.024-2.931-1.183-5.376-3.319-6.938-6.029 1.562-2.71 4.008-4.846 6.938-6.029 1.624-.662 3.407-1.024 5.279-1.024h110.482c5.217 0 9.772 2.834 12.209 7.053z" fill="#a26d5a"/></g><g><path d="m410.425 139.672h-104.65c-9.399 0-17.018-7.619-17.018-17.018v-7.798h138.685v7.798c.001 9.398-7.618 17.018-17.017 17.018z" fill="#a26d5a"/><path d="m427.443 95.507v23.357c0 6.135-4.979 11.114-11.113 11.114h-116.459c-6.135 0-11.114-4.979-11.114-11.114v-23.357c0-5.923 3.646-10.999 8.827-13.082 1.624-.662 3.407-1.024 5.279-1.024h110.482c1.863 0 3.646.362 5.27 1.024 5.173 2.083 8.828 7.15 8.828 13.082z" fill="#c17e62"/><path d="m306.412 95.507v34.47h-6.541c-6.135 0-11.114-4.979-11.114-11.114v-23.356c0-5.923 3.646-10.999 8.827-13.082 5.173 2.083 8.828 7.15 8.828 13.082z" fill="#a26d5a"/><path d="m427.443 95.507v23.357c0 6.135-4.979 11.114-11.113 11.114h-6.541v-34.47c0-5.923 3.646-10.999 8.827-13.082 5.172 2.082 8.827 7.149 8.827 13.081z" fill="#d48d77"/><path d="m394.951 88.829h-73.702c-4.271 0-7.733 3.462-7.733 7.733s3.462 7.733 7.733 7.733h73.702c4.271 0 7.733-3.462 7.733-7.733-.001-4.271-3.463-7.733-7.733-7.733z" fill="#d48d77"/><path d="m390.821 98.761h-46.679c-2.742 0-4.966-2.223-4.966-4.966s2.223-4.966 4.966-4.966h46.679c2.743 0 4.966 2.223 4.966 4.966-.001 2.743-2.224 4.966-4.966 4.966z" fill="#eea47d"/></g><g><g><path d="m324.923 116.03c-.997-.742-2.233-1.174-3.575-1.174h-8.898c-1.333 0-2.569.433-3.566 1.174-1.501 1.086-2.472 2.86-2.472 4.864v18.166c0 2.004.971 3.778 2.472 4.864.997.742 2.233 1.174 3.566 1.174h8.898c1.342 0 2.578-.433 3.575-1.174 1.492-1.095 2.463-2.869 2.463-4.864v-18.166c-.001-1.995-.972-3.769-2.463-4.864zm-2.47 20.124c0 1.943-1.575 3.518-3.518 3.518h-4.069c-1.943 0-3.517-1.575-3.517-3.518v-12.354c0-1.943 1.575-3.517 3.517-3.517h4.069c1.943 0 3.518 1.575 3.518 3.517z" fill="#f9c744"/><path d="m327.385 120.894v18.166c0 1.995-.971 3.769-2.463 4.864-1.501-1.095-2.472-2.869-2.472-4.864v-18.166c0-1.995.971-3.769 2.472-4.864 1.492 1.095 2.463 2.869 2.463 4.864z" fill="#fad98f"/><path d="m311.346 120.894v18.166c0 1.995-.971 3.769-2.463 4.864-1.501-1.086-2.472-2.86-2.472-4.864v-18.166c0-2.004.971-3.778 2.472-4.864 1.492 1.095 2.463 2.869 2.463 4.864z" fill="#f39e22"/><path d="m324.923 116.03c-.997-.742-2.233-1.174-3.575-1.174h-5.676c.323 1.987 1.084 3.825 2.169 5.427h1.095c1.943 0 3.518 1.575 3.518 3.517v.736c1.493.842 3.157 1.417 4.932 1.645v-5.288c-.001-1.994-.972-3.768-2.463-4.863z" fill="#faefdc"/></g><g><path d="m407.325 116.03c-.997-.742-2.233-1.174-3.575-1.174h-8.898c-1.333 0-2.569.433-3.566 1.174-1.501 1.086-2.472 2.86-2.472 4.864v18.166c0 2.004.971 3.778 2.472 4.864.997.742 2.233 1.174 3.566 1.174h8.898c1.342 0 2.578-.433 3.575-1.174 1.492-1.095 2.463-2.869 2.463-4.864v-18.166c0-1.995-.971-3.769-2.463-4.864zm-2.469 20.124c0 1.943-1.575 3.518-3.518 3.518h-4.069c-1.943 0-3.517-1.575-3.517-3.518v-12.354c0-1.943 1.575-3.517 3.517-3.517h4.069c1.943 0 3.518 1.575 3.518 3.517z" fill="#f9c744"/><path d="m409.788 120.894v18.166c0 1.995-.971 3.769-2.463 4.864-1.501-1.095-2.472-2.869-2.472-4.864v-18.166c0-1.995.971-3.769 2.472-4.864 1.492 1.095 2.463 2.869 2.463 4.864z" fill="#fad98f"/><path d="m393.749 120.894v18.166c0 1.995-.971 3.769-2.463 4.864-1.501-1.086-2.472-2.86-2.472-4.864v-18.166c0-2.004.971-3.778 2.472-4.864 1.492 1.095 2.463 2.869 2.463 4.864z" fill="#f39e22"/><path d="m407.325 116.03c-.997-.742-2.233-1.174-3.575-1.174h-5.676c.323 1.987 1.084 3.825 2.169 5.427h1.095c1.943 0 3.518 1.575 3.518 3.517v.736c1.493.842 3.157 1.417 4.932 1.645v-5.288c0-1.994-.971-3.768-2.463-4.863z" fill="#faefdc"/></g></g><g><path d="m388.814 68.221v13.179h-10.584v-8.386c0-4.643-3.769-8.412-8.421-8.412h-23.41c-4.652 0-8.421 3.769-8.421 8.412v8.386h-10.584v-13.179c0-1.386.221-2.719.618-3.963 1.677-5.226 6.576-9.013 12.358-9.013h35.468c5.782 0 10.681 3.787 12.358 9.013.398 1.245.618 2.578.618 3.963z" fill="#a26d5a"/><path d="m388.197 64.258c-1.412 5.032-5.137 9.083-9.966 10.946v-2.189c0-4.643-3.769-8.412-8.421-8.412h-23.41c-4.652 0-8.421 3.769-8.421 8.412v2.189c-2.172-.839-4.122-2.119-5.738-3.734-1.977-1.977-3.451-4.449-4.228-7.212 1.677-5.226 6.576-9.013 12.358-9.013h35.468c5.781 0 10.68 3.787 12.358 9.013z" fill="#c17e62"/><path d="m375.622 64.602h-27.214c-2.529 0-4.579-2.05-4.579-4.579v-.2c0-2.529 2.05-4.579 4.579-4.579h27.214c2.529 0 4.579 2.05 4.579 4.579v.2c0 2.529-2.05 4.579-4.579 4.579z" fill="#d48d77"/></g></g></g></g></svg>