<svg id="Capa_1" enable-background="new 0 0 512.008 512.008" height="512" viewBox="0 0 512.008 512.008" width="512" xmlns="http://www.w3.org/2000/svg"><g><g><path d="m504.507 256.003c0 80.081-37.88 151.315-96.699 196.761-41.985 32.439-95.914 46.936-153.076 46.936-137.243 0-242.862-106.454-242.862-243.697 0-33.349 5.48-63.907 17.394-92.963 14.494-35.347 33.627-67.87 61.741-92.853 43.883-38.997 101.677-62.684 165.002-62.684 137.243 0 248.5 111.258 248.5 248.5z" fill="#df646e"/><path d="m420.987 441.843c-43.89 38.98-101.67 62.66-164.98 62.66-137.24 0-248.5-111.26-248.5-248.5 0-79.54 37.37-150.36 95.52-195.84-51.24 45.52-83.52 111.91-83.52 185.84 0 137.24 111.26 248.5 248.5 248.5 57.7 0 110.8-19.67 152.98-52.66z" fill="#dc4955"/><path d="m256.89 471.737c-58.363 0-111.935-23.245-153.204-64.514-41.269-41.27-63.413-92.857-63.413-151.22s21.786-112.987 63.055-154.257c3.448-3.448 5.166-7.012 8.798-10.198 39.84-34.956 90.394-54.045 143.881-54.045 58.363 0 113.233 22.728 154.503 63.997 41.27 41.27 63.997 96.14 63.997 154.503s-22.728 113.233-63.997 154.503c-2.414 2.414-4.875 4.765-7.38 7.052-20.332 18.556-44.457 31.769-69.572 41.409-24.692 9.477-49.427 12.77-76.668 12.77z" fill="#f8f7f7"/><path d="m406.287 414.613c-40.75 38.67-93.89 59.89-150.28 59.89-58.36 0-113.23-22.73-154.5-64s-64-96.14-64-154.5 22.73-113.23 64-154.5c6.12-6.12 12.53-11.83 19.22-17.11-1.42 1.35-2.83 2.72-4.22 4.11-41.27 41.27-64 96.14-64 154.5s22.73 113.23 64 154.5 96.14 64 154.5 64c49.71 0 96.89-16.49 135.28-46.89z" fill="#e8e8e8"/><path d="m243.365 289.673-47.642 114.688c-3.913 9.049-3.973 23.776 4.966 26.126 1.277.336 2.628.516 4.036.516 4.623 0 9.011-2.042 11.987-5.58l150.409-178.787c7.611-9.047 1.179-22.863-10.643-22.863h-85.553c-.719 0-1.203-.737-.918-1.397l51.662-119.492c2.927-6.77.689-14.053-4.367-18.276-2.668-2.229-7.388-.8-11.28-.8-4.623 0-9.011 2.042-11.987 5.58l-145.982 175.157c-5.708 6.785-6.677 17.079-.237 21.389 2.147 1.437 4.765 2.3 7.721 2.3h85.554c.303 0 .565.131.744.332.246.275 1.695.725 1.53 1.107z" fill="#ffd163"/><g fill="#ffb65f"><path d="m262.007 289.633-60.7 141c-9.31-2.05-14.96-12.26-10.96-21.51l51.66-119.49c.29-.66-.2-1.4-.92-1.4h20c.72 0 1.21.74.92 1.4z"/><path d="m317.297 84.613c-.72.59-1.38 1.25-1.99 1.97l-167.08 199.61c-6.75-4.18-9.16-13.9-3.33-20.82l150.41-178.79c1.48-1.77 3.32-3.16 5.37-4.12 2.05-.95 4.3-1.46 6.61-1.46 3.89 0 7.35 1.38 10.01 3.61z"/></g></g><g><path d="m261.086 361.026c-2.666 3.169-2.259 7.901.911 10.567 1.406 1.183 3.12 1.761 4.824 1.761 2.137 0 4.26-.909 5.743-2.672l100.295-119.218c5.42-6.442 6.579-15.186 3.026-22.818s-10.99-12.373-19.408-12.373h-75.662l47.737-110.412c3.104-7.183 2.393-15.375-1.905-21.915-4.297-6.539-11.534-10.443-19.358-10.443-6.854 0-13.314 3.008-17.727 8.252l-68.371 81.271c-2.667 3.169-2.259 7.901.911 10.567 3.169 2.667 7.9 2.259 10.567-.911l68.371-81.271c1.555-1.849 3.832-2.909 6.248-2.909 2.799 0 5.286 1.342 6.823 3.681s1.782 5.155.672 7.724l-52.266 120.888c-1.003 2.318-.771 4.985.616 7.095s3.742 3.381 6.268 3.381h87.075c3.791 0 5.405 2.835 5.81 3.704.404.869 1.534 3.93-.906 6.831z"/><path d="m185.365 428.06c4.297 6.54 11.534 10.444 19.359 10.444 6.854 0 13.314-3.008 17.726-8.252l27.582-32.786c2.667-3.169 2.259-7.901-.911-10.567-3.168-2.666-7.9-2.258-10.567.911l-27.583 32.786c-1.555 1.848-3.832 2.908-6.247 2.908-2.799 0-5.286-1.342-6.824-3.681-1.537-2.339-1.781-5.154-.67-7.724l52.266-120.889c1.002-2.318.771-4.984-.616-7.095-1.387-2.11-3.743-3.381-6.268-3.381h-87.075c-3.791 0-5.406-2.835-5.81-3.704-.405-.869-1.535-3.93.906-6.831l59.506-70.733c2.667-3.169 2.259-7.901-.911-10.567-3.169-2.666-7.9-2.258-10.567.911l-59.506 70.733c-5.419 6.442-6.579 15.186-3.026 22.818s10.99 12.374 19.409 12.374h75.662l-47.736 110.412c-3.107 7.181-2.396 15.373 1.901 21.913z"/><path d="m437.026 74.984c-48.352-48.352-112.64-74.98-181.02-74.98-36.42 0-71.607 7.493-104.583 22.27-3.78 1.694-5.471 6.131-3.777 9.911s6.13 5.471 9.911 3.777c31.034-13.907 64.157-20.958 98.449-20.958 132.888 0 241 108.112 241 241s-108.112 241-241 241-241-108.112-241-241c0-83.11 41.983-159.297 112.306-203.8 3.5-2.215 4.542-6.848 2.327-10.348-2.214-3.5-6.846-4.542-10.348-2.327-73.05 45.544-119.946 129.746-119.284 216.474-.125 143.635 117.414 256.398 256 256 143.636.125 256.398-117.414 256-256 0-68.379-26.629-132.667-74.981-181.019z"/><path d="m473.534 278.142c4.13.26 7.704-2.858 7.976-6.992.33-5.011.497-10.107.497-15.146.123-127.032-103.965-226.379-226-226-127.031-.123-226.38 103.965-226 226-.123 127.031 103.965 226.38 226 226 60.366 0 117.12-23.508 159.807-66.194 30.062-30.063 50.948-67.616 60.399-108.6.931-4.036-1.587-8.062-5.623-8.993-4.037-.93-8.062 1.586-8.994 5.623-8.817 38.24-28.316 73.291-56.39 101.364-39.853 39.853-92.84 61.8-149.199 61.8-118.872.072-211.338-97.27-211-211-.072-118.872 97.27-211.338 211-211 118.871-.072 211.338 97.27 211 211 0 4.712-.156 9.477-.464 14.162-.272 4.133 2.858 7.704 6.991 7.976z"/></g></g></svg>