<svg id="Icons" enable-background="new 0 0 512 512" height="512" viewBox="0 0 512 512" width="512" xmlns="http://www.w3.org/2000/svg"><g><g><circle cx="256" cy="256" fill="#57409b" r="256"/><circle cx="256" cy="256" fill="#6052a3" r="167.171"/></g><g><g><g><g><path d="m318.461 226.062v92.684c0 3.708-2.236 6.887-5.432 8.273h-.004c-1.097.474-2.304.738-3.576.738h-106.9c-1.271 0-2.479-.265-3.576-.738-3.196-1.382-5.436-4.565-5.436-8.273v-92.684l62.462-62.652z" fill="#fbcb74"/><path d="m318.461 226.062v92.684c0 3.708-2.236 6.887-5.432 8.273h-.004c-3.192-1.387-5.432-4.565-5.432-8.273v-92.684c0-3.704 2.24-6.882 5.432-8.273h.004c3.196 1.387 5.432 4.57 5.432 8.273z" fill="#faefdc"/><path d="m204.405 226.062v92.684c0 3.708-2.236 6.891-5.432 8.273-3.196-1.382-5.436-4.565-5.436-8.273v-92.684c0-3.704 2.24-6.887 5.436-8.273 3.196 1.387 5.432 4.57 5.432 8.273z" fill="#deb36f"/><path d="m294.013 221.248c0 3.001-2.433 5.434-5.434 5.434h-65.161c-3.001 0-5.434-2.433-5.434-5.434s2.433-5.434 5.434-5.434h65.161c3.001 0 5.434 2.433 5.434 5.434z" fill="#fbd9a3"/></g><g><path d="m280.455 301.331h-48.911c-5.622 0-10.18-4.558-10.18-10.18v-48.911c0-5.622 4.558-10.18 10.18-10.18h48.911c5.622 0 10.18 4.558 10.18 10.18v48.911c0 5.622-4.557 10.18-10.18 10.18z" fill="#c4983d"/><g><g><path d="m253.982 243.78v15.142c0 .032 0 .073-.008.105-.048 3.132-2.599 5.65-5.747 5.65h-15.142c-3.18 0-5.763-2.575-5.763-5.755v-15.142c0-3.148 2.526-5.707 5.658-5.755.032-.008.073-.008.105-.008h15.142c3.18 0 5.755 2.583 5.755 5.763z" fill="#6052a3"/><path d="m253.982 243.78v15.142c0 .032 0 .073-.008.105-.032.008-.073.008-.105.008h-7.313c-7.507 0-13.584-6.086-13.584-13.584v-7.321c0-.032 0-.073.008-.105.032-.008.073-.008.105-.008h15.142c3.18 0 5.755 2.583 5.755 5.763z" fill="#57409b"/><path d="m246.974 256.435c-1.931 0-3.496-1.565-3.496-3.496v-8.639c0-1.931 1.565-3.496 3.496-3.496s3.496 1.565 3.496 3.496v8.639c0 1.931-1.565 3.496-3.496 3.496z" fill="#9175a7"/></g><g><path d="m284.678 243.78v15.142c0 .032 0 .073-.008.105-.048 3.132-2.599 5.65-5.747 5.65h-15.142c-3.18 0-5.763-2.575-5.763-5.755v-15.142c0-3.148 2.526-5.707 5.658-5.755.032-.008.073-.008.105-.008h15.142c3.18 0 5.755 2.583 5.755 5.763z" fill="#6052a3"/><path d="m284.678 243.78v15.142c0 .032 0 .073-.008.105-.032.008-.073.008-.105.008h-7.313c-7.507 0-13.584-6.086-13.584-13.584v-7.321c0-.032 0-.073.008-.105.032-.008.073-.008.105-.008h15.142c3.18 0 5.755 2.583 5.755 5.763z" fill="#57409b"/><path d="m277.67 256.435c-1.931 0-3.496-1.565-3.496-3.496v-8.639c0-1.931 1.565-3.496 3.496-3.496s3.496 1.565 3.496 3.496v8.639c0 1.931-1.565 3.496-3.496 3.496z" fill="#9175a7"/></g><g><path d="m253.982 274.476v15.142c0 .032 0 .073-.008.105-.048 3.132-2.599 5.65-5.747 5.65h-15.142c-3.18 0-5.763-2.575-5.763-5.755v-15.142c0-3.148 2.526-5.707 5.658-5.755.032-.008.073-.008.105-.008h15.142c3.18 0 5.755 2.583 5.755 5.763z" fill="#6052a3"/><path d="m253.982 274.476v15.142c0 .032 0 .073-.008.105-.032.008-.073.008-.105.008h-7.313c-7.507 0-13.584-6.086-13.584-13.584v-7.321c0-.032 0-.073.008-.105.032-.008.073-.008.105-.008h15.142c3.18 0 5.755 2.583 5.755 5.763z" fill="#57409b"/><path d="m246.974 287.131c-1.931 0-3.496-1.565-3.496-3.496v-8.639c0-1.931 1.565-3.496 3.496-3.496s3.496 1.565 3.496 3.496v8.639c0 1.931-1.565 3.496-3.496 3.496z" fill="#9175a7"/></g><g><path d="m284.678 274.476v15.142c0 .032 0 .073-.008.105-.048 3.132-2.599 5.65-5.747 5.65h-15.142c-3.18 0-5.763-2.575-5.763-5.755v-15.142c0-3.148 2.526-5.707 5.658-5.755.032-.008.073-.008.105-.008h15.142c3.18 0 5.755 2.583 5.755 5.763z" fill="#6052a3"/><path d="m284.678 274.476v15.142c0 .032 0 .073-.008.105-.032.008-.073.008-.105.008h-7.313c-7.507 0-13.584-6.086-13.584-13.584v-7.321c0-.032 0-.073.008-.105.032-.008.073-.008.105-.008h15.142c3.18 0 5.755 2.583 5.755 5.763z" fill="#57409b"/><path d="m277.67 287.131c-1.931 0-3.496-1.565-3.496-3.496v-8.639c0-1.931 1.565-3.496 3.496-3.496s3.496 1.565 3.496 3.496v8.639c0 1.931-1.565 3.496-3.496 3.496z" fill="#9175a7"/></g></g></g><g><path d="m341.233 239.626c0 1.933-.738 3.861-2.21 5.334-2.961 2.961-7.77 2.944-10.71-.038l-66.942-67.945c-2.953-3-7.791-3-10.744 0l-66.942 67.945c-1.476 1.498-3.426 2.249-5.372 2.249-1.933 0-3.866-.738-5.338-2.21-2.488-2.488-2.872-6.281-1.161-9.174.316-.533.704-1.037 1.161-1.493l77.703-77.699c2.944-2.948 7.723-2.944 10.667 0l77.677 77.699c.457.457.845.96 1.161 1.493.7 1.181 1.05 2.508 1.05 3.839z" fill="#e9465e"/><path d="m340.183 235.786c-.316.533-.704 1.037-1.161 1.493v.004c-2.961 2.961-7.77 2.94-10.71-.043l-66.942-67.945c-2.953-3-7.791-3-10.744 0l-66.942 67.945c-1.476 1.498-3.426 2.249-5.376 2.249-1.933 0-3.861-.734-5.334-2.206-.461-.461-.845-.964-1.161-1.498.316-.533.704-1.037 1.161-1.493l77.703-77.699c2.944-2.948 7.723-2.944 10.667 0l77.677 77.699c.458.457.846.961 1.162 1.494z" fill="#ee6781"/><g fill="#f789a1"><path d="m203.036 211.147-.221-.216c-1.8-1.767-1.814-4.663-.03-6.447l29.283-29.281c1.761-1.761 4.612-1.773 6.388-.028 1.789 1.758 1.813 4.634.052 6.421l-29.062 29.498c-1.755 1.782-4.624 1.806-6.41.053z"/><path d="m308.966 211.147.216-.211c1.805-1.769 1.82-4.671.033-6.458l-29.265-29.273c-1.762-1.762-4.613-1.777-6.394-.034-1.797 1.76-1.823 4.644-.057 6.436l29.05 29.485c1.757 1.783 4.628 1.808 6.417.055z"/></g></g></g><g><path d="m307.461 167.022v35.7l-14.332-14.337v-21.364c0-1.997 1.617-3.614 3.61-3.614h7.113c1.992.001 3.609 1.618 3.609 3.615z" fill="#c0405c"/><path d="m307.461 167.022v30.401l-5.773-5.777c-2.091-2.086-3.26-4.92-3.26-7.868v-16.756c0-1.997 1.617-3.614 3.61-3.614h1.813c1.993 0 3.61 1.617 3.61 3.614z" fill="#e9465e"/></g></g><g><g><g><path d="m310.883 405.338c-2.074-1.979-4.888-3.207-7.987-3.207h-93.793c-3.099 0-5.913 1.228-7.987 3.207-2.205 2.098-3.576 5.066-3.576 8.345v39.112l.005-.001c0 5.083 4.119 9.205 9.202 9.205h98.505c5.082 0 9.202-4.123 9.202-9.205l.005.001v-39.112c0-3.278-1.37-6.247-3.576-8.345z" fill="#83d5ef"/><path d="m314.454 452.795c0 5.082-4.119 9.205-9.201 9.205h-98.505c-5.082 0-9.201-4.123-9.201-9.205l53.347-32.441c3.137-1.908 7.076-1.908 10.213 0z" fill="#cde6f6"/><path d="m310.883 405.338-30.052 27.013-18.263 16.427c-3.731 3.361-9.405 3.361-13.137 0l-18.263-16.427-30.052-27.013c2.074-1.979 4.888-3.207 7.987-3.207h93.793c3.1.001 5.913 1.228 7.987 3.207z" fill="#fff"/></g><g><g fill="#9175a7"><path d="m65.54 191.822c-1.279 0-2.316-1.037-2.316-2.316 0-5.081 5.261-7.276 9.903-9.213 3.468-1.447 7.055-2.944 7.055-4.938 0-1.998-3.587-3.495-7.056-4.944-4.641-1.938-9.902-4.135-9.902-9.217 0-5.083 5.261-7.279 9.902-9.217 3.468-1.448 7.055-2.946 7.055-4.943 0-1.279 1.037-2.316 2.316-2.316s2.316 1.037 2.316 2.316c0 5.083-5.261 7.279-9.902 9.217-3.468 1.448-7.055 2.946-7.055 4.943s3.586 3.495 7.055 4.943c4.641 1.938 9.902 4.135 9.902 9.218 0 5.081-5.261 7.275-9.902 9.212-3.469 1.447-7.055 2.944-7.055 4.939-.001 1.28-1.038 2.316-2.316 2.316z"/><path d="m91.751 159.26c-1.279 0-2.316-1.037-2.316-2.316 0-5.081 5.261-7.276 9.903-9.213 3.468-1.447 7.055-2.944 7.055-4.938 0-1.998-3.587-3.495-7.056-4.944-4.641-1.938-9.902-4.135-9.902-9.217s5.26-7.279 9.902-9.217c3.469-1.448 7.056-2.946 7.056-4.944 0-1.279 1.037-2.316 2.316-2.316s2.316 1.037 2.316 2.316c0 5.083-5.261 7.28-9.902 9.218-3.469 1.448-7.055 2.946-7.055 4.943s3.586 3.495 7.055 4.943c4.641 1.938 9.902 4.135 9.902 9.218 0 5.081-5.261 7.275-9.902 9.212-3.469 1.447-7.055 2.944-7.055 4.939-.001 1.279-1.038 2.316-2.317 2.316z"/><path d="m93.538 206.304c-1.279 0-2.316-1.037-2.316-2.316 0-5.081 5.261-7.276 9.903-9.213 3.468-1.447 7.055-2.944 7.055-4.938 0-1.998-3.587-3.495-7.056-4.944-4.641-1.938-9.902-4.135-9.902-9.217 0-5.083 5.261-7.279 9.902-9.217 3.468-1.448 7.055-2.946 7.055-4.943 0-1.279 1.037-2.316 2.316-2.316s2.316 1.037 2.316 2.316c0 5.083-5.261 7.279-9.902 9.217-3.468 1.448-7.055 2.946-7.055 4.943s3.586 3.495 7.055 4.943c4.641 1.938 9.902 4.135 9.902 9.218 0 5.081-5.261 7.275-9.902 9.212-3.469 1.447-7.055 2.944-7.055 4.939-.001 1.279-1.037 2.316-2.316 2.316z"/></g><g><g><path d="m40.42 259.73c0 .278.012.567.035.845.429 7.63 6.785 13.708 14.519 13.708h5.523v10.42h-5.523c-12.261 0-22.484-8.88-24.568-20.539-.267-1.436-.406-2.918-.406-4.434 0-10.918 7.028-20.203 16.799-23.596 2.559-.892 5.314-1.378 8.174-1.378h5.523v10.42h-5.523c-2.292 0-4.446.533-6.379 1.47-4.828 2.374-8.174 7.341-8.174 13.084z" fill="#22bce0"/><path d="m48.71 244.586c0 .695-.035 1.389-.116 2.061-4.828 2.374-8.174 7.34-8.174 13.083 0 .278.012.567.035.845-2.871 2.049-6.321 3.346-10.049 3.589-.267-1.436-.406-2.918-.406-4.434 0-1.378.116-2.744.336-4.064 1.181-7.259 5.523-13.477 11.566-17.205 1.528-.949 3.172-1.725 4.897-2.327 1.228 2.559 1.911 5.43 1.911 8.452z" fill="#4fcae8"/><path d="m42.828 243.208c0 6.889-5.581 12.458-12.458 12.458h-.035c1.181-7.259 5.523-13.477 11.566-17.205.592 1.471.927 3.068.927 4.747z" fill="#83d5ef"/></g><g><path d="m120.168 221.245v71.343c0 3.728-3.022 6.75-6.75 6.75h-50.803c-3.728 0-6.75-3.022-6.75-6.75v-71.343c0-3.728 3.022-6.75 6.75-6.75h50.803c3.728 0 6.75 3.022 6.75 6.75z" fill="#22a8b9"/><path d="m120.168 221.245v61.258c-4.585 3.311-10.2 5.256-16.29 5.256h-8.567c-15.387 0-27.868-12.481-27.868-27.868v-29.107c0-6.078 1.957-11.705 5.256-16.29h40.719c3.728.001 6.75 3.023 6.75 6.751z" fill="#4fcae8"/><path d="m120.168 221.245v9.135c-1.552 1.297-3.554 2.084-5.754 2.084h-46.971v-1.679c0-6.078 1.957-11.705 5.256-16.29h40.719c3.728 0 6.75 3.022 6.75 6.75z" fill="#cde6f6"/><path d="m72.699 214.495c-3.3 4.585-5.256 10.212-5.256 16.29v1.679h-11.578v-11.219c0-3.728 3.022-6.75 6.75-6.75z" fill="#4fcae8"/><path d="m109.444 219.733h-42.853c-2.071 0-3.75 1.679-3.75 3.75s1.679 3.75 3.75 3.75h42.853c2.071 0 3.75-1.679 3.75-3.75 0-2.072-1.679-3.75-3.75-3.75z" fill="#bf5e39"/><path d="m106.358 280.617c3.564 0 6.452-2.889 6.452-6.452v-30.71c0-3.564-2.889-6.452-6.452-6.452-3.564 0-6.452 2.889-6.452 6.452v30.71c0 3.563 2.889 6.452 6.452 6.452z" fill="#83d5ef"/></g></g></g><g><g><path d="m303.169 42.387v51.741c0 1.747-.468 3.387-1.285 4.798-1.063 1.843-2.726 3.303-4.72 4.101-1.105.45-2.318.697-3.585.697h-75.153c-1.273 0-2.486-.246-3.591-.697-1.994-.805-3.657-2.258-4.72-4.101-.817-1.411-1.285-3.05-1.285-4.798v-51.741c0-4.029 2.48-7.482 6.005-8.899 1.105-.45 2.318-.697 3.591-.697h75.153c1.267 0 2.48.246 3.585.697 3.519 1.417 6.005 4.864 6.005 8.899z" fill="#d48d77"/><path d="m220.84 42.387v51.741c0 4.035-2.486 7.482-6.005 8.899-3.525-1.417-6.005-4.87-6.005-8.899v-51.741c0-4.029 2.48-7.482 6.005-8.899 3.519 1.417 6.005 4.864 6.005 8.899z" fill="#c17e62"/><path d="m303.169 42.387v51.741c0 1.747-.468 3.387-1.285 4.798-1.063 1.843-2.726 3.303-4.72 4.101-1.994-.805-3.657-2.258-4.72-4.101-.817-1.411-1.285-3.05-1.285-4.798v-51.741c0-4.029 2.48-7.482 6.005-8.899 3.519 1.417 6.005 4.864 6.005 8.899z" fill="#eea47d"/><path d="m301.884 98.926c-1.657 2.87-4.756 4.798-8.304 4.798h-75.153c-1.273 0-2.486-.246-3.591-.697-1.994-.805-3.657-2.258-4.72-4.101 1.063-1.843 2.726-3.297 4.72-4.101 1.105-.45 2.318-.697 3.591-.697h75.153c3.548 0 6.647 1.928 8.304 4.798z" fill="#a26d5a"/></g><g><path d="m291.593 72.429h-71.186c-6.393 0-11.576-5.183-11.576-11.576v-5.304h94.338v5.304c0 6.393-5.183 11.576-11.576 11.576z" fill="#a26d5a"/><path d="m303.169 42.387v15.888c0 4.173-3.387 7.56-7.56 7.56h-79.218c-4.173 0-7.56-3.387-7.56-7.56v-15.888c0-4.029 2.48-7.482 6.005-8.899 1.105-.45 2.318-.697 3.591-.697h75.153c1.267 0 2.48.246 3.585.697 3.518 1.417 6.004 4.864 6.004 8.899z" fill="#c17e62"/><path d="m220.84 42.387v23.448h-4.449c-4.173 0-7.56-3.387-7.56-7.56v-15.888c0-4.029 2.48-7.482 6.005-8.899 3.518 1.417 6.004 4.864 6.004 8.899z" fill="#a26d5a"/><path d="m303.169 42.387v15.888c0 4.173-3.387 7.56-7.56 7.56h-4.449v-23.448c0-4.029 2.48-7.482 6.005-8.899 3.518 1.417 6.004 4.864 6.004 8.899z" fill="#d48d77"/><path d="m281.067 37.845h-50.134c-2.905 0-5.26 2.355-5.26 5.26s2.355 5.26 5.26 5.26h50.134c2.905 0 5.26-2.355 5.26-5.26s-2.355-5.26-5.26-5.26z" fill="#d48d77"/><path d="m278.258 44.601h-31.752c-1.866 0-3.378-1.512-3.378-3.378s1.512-3.378 3.378-3.378h31.752c1.866 0 3.378 1.512 3.378 3.378-.001 1.865-1.513 3.378-3.378 3.378z" fill="#eea47d"/></g><g><g><path d="m233.432 56.347c-.679-.504-1.519-.799-2.432-.799h-6.053c-.907 0-1.747.294-2.426.799-1.021.739-1.681 1.945-1.681 3.309v12.357c0 1.363.66 2.57 1.681 3.309.679.504 1.519.799 2.426.799h6.053c.913 0 1.753-.294 2.432-.799 1.015-.745 1.675-1.951 1.675-3.309v-12.357c0-1.357-.66-2.564-1.675-3.309zm-1.68 13.689c0 1.321-1.071 2.393-2.393 2.393h-2.768c-1.321 0-2.393-1.071-2.393-2.393v-8.403c0-1.321 1.071-2.393 2.393-2.393h2.768c1.321 0 2.393 1.071 2.393 2.393z" fill="#f9c744"/><path d="m235.107 59.656v12.357c0 1.357-.661 2.564-1.675 3.309-1.021-.745-1.681-1.951-1.681-3.309v-12.357c0-1.357.66-2.564 1.681-3.309 1.015.745 1.675 1.952 1.675 3.309z" fill="#fad98f"/><path d="m224.197 59.656v12.357c0 1.357-.66 2.564-1.675 3.309-1.021-.739-1.681-1.945-1.681-3.309v-12.357c0-1.363.66-2.57 1.681-3.309 1.014.745 1.675 1.952 1.675 3.309z" fill="#f39e22"/><path d="m233.432 56.347c-.679-.504-1.519-.799-2.432-.799h-3.861c.22 1.352.738 2.602 1.475 3.691h.745c1.321 0 2.393 1.071 2.393 2.393v.501c1.016.573 2.148.964 3.355 1.119v-3.597c0-1.356-.66-2.563-1.675-3.308z" fill="#faefdc"/></g><g><path d="m289.484 56.347c-.678-.504-1.519-.799-2.432-.799h-6.052c-.907 0-1.747.294-2.426.799-1.021.739-1.681 1.945-1.681 3.309v12.357c0 1.363.66 2.57 1.681 3.309.678.504 1.519.799 2.426.799h6.053c.913 0 1.753-.294 2.432-.799 1.015-.745 1.675-1.951 1.675-3.309v-12.357c0-1.357-.661-2.564-1.676-3.309zm-1.679 13.689c0 1.321-1.071 2.393-2.393 2.393h-2.768c-1.321 0-2.393-1.071-2.393-2.393v-8.403c0-1.321 1.071-2.393 2.393-2.393h2.768c1.321 0 2.393 1.071 2.393 2.393z" fill="#f9c744"/><path d="m291.16 59.656v12.357c0 1.357-.661 2.564-1.675 3.309-1.021-.745-1.681-1.951-1.681-3.309v-12.357c0-1.357.66-2.564 1.681-3.309 1.014.745 1.675 1.952 1.675 3.309z" fill="#fad98f"/><path d="m280.249 59.656v12.357c0 1.357-.66 2.564-1.675 3.309-1.021-.739-1.681-1.945-1.681-3.309v-12.357c0-1.363.66-2.57 1.681-3.309 1.015.745 1.675 1.952 1.675 3.309z" fill="#f39e22"/><path d="m289.484 56.347c-.678-.504-1.519-.799-2.432-.799h-3.861c.22 1.352.738 2.602 1.475 3.691h.745c1.321 0 2.393 1.071 2.393 2.393v.501c1.016.573 2.147.964 3.355 1.119v-3.597c.001-1.356-.66-2.563-1.675-3.308z" fill="#faefdc"/></g></g><g><path d="m276.893 23.827v8.965h-7.199v-5.704c0-3.158-2.564-5.722-5.728-5.722h-15.924c-3.164 0-5.728 2.564-5.728 5.722v5.704h-7.199v-8.965c0-.943.15-1.849.42-2.696 1.141-3.555 4.473-6.131 8.406-6.131h24.126c3.933 0 7.266 2.576 8.406 6.131.27.846.42 1.753.42 2.696z" fill="#a26d5a"/><path d="m276.473 21.131c-.961 3.423-3.495 6.179-6.779 7.446v-1.489c0-3.158-2.564-5.722-5.728-5.722h-15.924c-3.164 0-5.728 2.564-5.728 5.722v1.489c-1.477-.57-2.804-1.441-3.903-2.54-1.345-1.345-2.348-3.026-2.876-4.906 1.141-3.555 4.473-6.131 8.406-6.131h24.126c3.932 0 7.265 2.576 8.406 6.131z" fill="#c17e62"/><path d="m267.919 21.365h-18.512c-1.72 0-3.115-1.394-3.115-3.115v-.136c0-1.72 1.394-3.115 3.115-3.115h18.512c1.72 0 3.115 1.394 3.115 3.115v.136c-.001 1.72-1.395 3.115-3.115 3.115z" fill="#d48d77"/></g></g><g><g><path d="m488 239.419v48.701c0 1.059-.181 2.079-.516 3.024-1.245 3.548-4.622 6.089-8.594 6.089h-80.518c-3.97 0-7.349-2.538-8.597-6.084-.335-.948-.516-1.968-.516-3.029v-66.304c0-.35.025-.695.077-1.03.496-3.404 3.429-6.019 6.972-6.019h23.516c3.543 0 6.476 2.615 6.972 6.019.052.335.077.68.077 1.03v8.49h52.018c5.03 0 9.109 4.079 9.109 9.113z" fill="#dd8c29"/><path d="m487.484 291.144c-1.245 3.548-4.622 6.089-8.594 6.089h-80.518c-3.97 0-7.349-2.538-8.597-6.084.335-.799.821-1.516 1.424-2.116 1.196-1.198 2.853-1.94 4.679-1.94h85.503c2.746 0 5.098 1.672 6.103 4.051z" fill="#c68132"/><path d="m488 239.419v43.141c-39.841-4.625-72.911-31.455-86.505-67.793h18.328c3.893 0 7.049 3.156 7.049 7.049v8.49h52.018c5.031 0 9.11 4.079 9.11 9.113z" fill="#f39e22"/><g fill="#f9c744"><path d="m475.049 240.681h-42.99c-2.865 0-5.188-2.323-5.188-5.188s2.323-5.188 5.188-5.188h42.99c2.865 0 5.188 2.323 5.188 5.188 0 2.866-2.323 5.188-5.188 5.188z"/><path d="m426.794 220.786c-.377 2.02-2.149 3.548-4.277 3.548h-28.905c-2.129 0-3.9-1.528-4.277-3.548.496-3.404 3.429-6.019 6.972-6.019h23.516c3.543 0 6.475 2.615 6.971 6.019z"/></g></g><g><g><path d="m459.189 257.804c-1.764-1.967-4.338-3.206-7.189-3.206-1.348 0-2.631.276-3.796.778-.86.368-1.655.859-2.366 1.449-.083-2.163-.662-4.198-1.622-5.999l1.061.198-3.132-3.114c-.271-.294-.555-.575-.85-.845l-.019-.019v.002c-2.55-2.319-5.96-3.707-9.698-3.626-7.447.163-13.515 6.262-13.643 13.71-.001.049-.001.098-.002.147-.014 2.035-1.611 3.702-3.645 3.771-.06.002-.121.005-.181.008-4.842.252-8.793 4.146-9.106 8.985-.243 3.76 1.671 7.094 4.626 8.887 1.456.883 3.164 1.392 4.993 1.392h50.515c3.853 0 7.091-3.053 7.141-6.906.015-1.165-.255-2.265-.744-3.236-1.151-2.286-3.52-3.854-6.254-3.854-.116 0-.23.003-.345.009-1.504.073-2.883.621-3.991 1.497.448-1.112.697-2.325.697-3.598 0-1.352-.279-2.639-.782-3.807l1.095.137z" fill="#decee5"/></g><g><path d="m472.265 273.73c-.21 3.726-3.392 6.592-7.123 6.592h-50.521c-1.828 0-3.537-.509-4.993-1.392-.927-1.525-1.441-3.328-1.39-5.255.134-5.033 4.209-9.167 9.24-9.369.064-.003.127-.005.191-.006 2.066-.043 3.688-1.725 3.737-3.791.004-.152.01-.305.018-.459.39-7.013 6.044-12.705 13.054-13.136 3.304-.203 6.38.743 8.865 2.481 2.134 1.488 3.831 3.559 4.862 5.981.006.015.013.029.019.044.868 2.053 3.042 3.192 5.227 2.748.623-.127 1.267-.193 1.927-.193 1.796 0 3.477.491 4.916 1.346 2.482 1.473 4.244 4.029 4.64 7.015.055.417.083.844.083 1.278v.084c-.01 1.169 1.031 2.036 2.183 1.838.386-.066.784-.101 1.189-.101 1.131 0 2.199.268 3.144.745.532 1.058.804 2.269.732 3.55z" fill="#f9eaf9"/></g><g><g><path d="m444.477 260.478c-.923 0-1.82-.478-2.316-1.333-1.061-1.831-2.772-3.138-4.817-3.682-2.045-.545-4.179-.259-6.01.802-1.278.741-2.914.305-3.655-.972-.741-1.278-.306-2.914.972-3.655 3.067-1.778 6.642-2.255 10.068-1.344s6.292 3.102 8.07 6.169c.741 1.278.306 2.914-.972 3.655-.423.243-.885.36-1.34.36z" fill="#fff"/></g><g><path d="m429.742 274.53c-.662 0-1.325-.244-1.843-.737-1.07-1.018-1.112-2.711-.094-3.781 2.443-2.568 5.74-4.032 9.284-4.12 3.546-.082 6.91 1.208 9.478 3.652 1.07 1.018 1.112 2.711.094 3.781s-2.711 1.113-3.781.094c-1.533-1.459-3.544-2.233-5.658-2.18-2.115.053-4.084.926-5.542 2.46-.525.553-1.231.831-1.938.831z" fill="#fff"/></g><g><path d="m460.747 270.987c-1.184 0-2.266-.792-2.583-1.99-.584-2.203-2.731-3.553-4.788-3.008-1.428.378-2.892-.473-3.27-1.901s.473-2.892 1.9-3.27c4.906-1.3 9.989 1.754 11.328 6.809.378 1.428-.473 2.892-1.9 3.27-.23.061-.461.09-.687.09z" fill="#fff"/></g><g><path d="m413.283 277.612c-.069 0-.139-.003-.209-.008-1.473-.114-2.574-1.4-2.46-2.872.191-2.473 1.368-4.714 3.313-6.312 1.913-1.571 4.346-2.33 6.851-2.136 1.473.114 2.574 1.4 2.46 2.873s-1.399 2.576-2.873 2.46c-1.122-.086-2.203.246-3.044.937-.809.664-1.297 1.584-1.375 2.591-.108 1.401-1.28 2.467-2.663 2.467z" fill="#fff"/></g></g></g></g></g><g fill="#9175a7"><g><path d="m256 383.192c-3.022 0-5.471-2.45-5.471-5.471v-27.751c0-3.022 2.45-5.471 5.471-5.471 3.022 0 5.471 2.45 5.471 5.471v27.752c0 3.021-2.449 5.47-5.471 5.47z"/><path d="m256 148.401c-3.022 0-5.471-2.45-5.471-5.471v-27.752c0-3.022 2.45-5.471 5.471-5.471 3.022 0 5.471 2.45 5.471 5.471v27.752c0 3.021-2.449 5.471-5.471 5.471z"/></g><g><path d="m372.743 256c0 3.022-2.45 5.471-5.471 5.471h-27.752c-3.022 0-5.471-2.45-5.471-5.471 0-3.022 2.45-5.471 5.471-5.471h27.752c3.021 0 5.471 2.449 5.471 5.471z"/><path d="m169.951 256c0 3.022-2.45 5.471-5.471 5.471h-27.752c-3.022 0-5.471-2.45-5.471-5.471 0-3.022 2.45-5.471 5.471-5.471h27.752c3.022 0 5.471 2.449 5.471 5.471z"/></g></g></g></g></g></svg>